<svg xmlns="http://www.w3.org/2000/svg" xmlns:xlink="http://www.w3.org/1999/xlink" width="169" height="169" viewBox="0 0 169 169">
  <defs>
    <filter id="Elipse_5165" x="0" y="0" width="169" height="169" filterUnits="userSpaceOnUse">
      <feOffset dy="6" input="SourceAlpha"/>
      <feGaussianBlur stdDeviation="5" result="blur"/>
      <feFlood flood-opacity="0.329"/>
      <feComposite operator="in" in2="blur"/>
      <feComposite in="SourceGraphic"/>
    </filter>
    <clipPath id="clip-path">
      <rect id="Rectángulo_325263" data-name="Rectángulo 325263" width="71.155" height="71.007" fill="none"/>
    </clipPath>
  </defs>
  <g id="Grupo_877362" data-name="Grupo 877362" transform="translate(-347.615 -1078.631)">
    <g transform="matrix(1, 0, 0, 1, 347.62, 1078.63)" filter="url(#Elipse_5165)">
      <circle id="Elipse_5165-2" data-name="Elipse 5165" cx="69.5" cy="69.5" r="69.5" transform="translate(15 9)" fill="#ffb500"/>
    </g>
    <g id="Grupo_876312" data-name="Grupo 876312" transform="translate(396.615 1121.631)">
      <g id="Grupo_876311" data-name="Grupo 876311" transform="translate(0 0)" clip-path="url(#clip-path)">
        <path id="Trazado_614555" data-name="Trazado 614555" d="M3.119,39.264H2.112a.584.584,0,0,0-.1.1.241.241,0,0,0-.042.123c0,2.719,0,5.435,0,8.254l.909.678H6.725c.336.931,1.174,1.359,1.567,1.865A3.742,3.742,0,0,0,11.7,50.3c.416-.519,1.243-.958,1.574-1.854H23.864a5.582,5.582,0,0,0,2.125,2.021,3.945,3.945,0,0,0,2.859-.092c.491-.613,1.314-1.063,1.671-1.94h2.861c.218-.234.445-.475.7-.748V36.533l-5.15-6.413H22.679V27.413l-.833-.74H2.651c-.148.194-.349.458-.651.852v2.491c.368.18.754.028,1.12.079a.926.926,0,0,0,1.3-.049,2.892,2.892,0,0,1,2.268-.632c4.108-.018,8.214.033,12.32-.023a.7.7,0,0,1,.8.78c.058,5,.22,10.006-.086,15.007-.005.092-.077.171-.3.379a23.469,23.469,0,0,1-5.516.012A1.487,1.487,0,0,1,13,44.928C11.021,43,9.341,42.933,7.311,44.682c-1.055,1.141-1.055,1.141-2.391.9-.34-.285-.224-.676-.217-1.046a37,37,0,0,0-.067-4.529,1.227,1.227,0,0,0-.375-.775.873.873,0,0,0-1.143.03" transform="translate(1.499 20.291)" fill="#040506"/>
        <path id="Trazado_614556" data-name="Trazado 614556" d="M6.925,44.009c.178.044.254-.1.338-.2a2.49,2.49,0,0,1,2.285-.953,7.7,7.7,0,0,0,.921.005,7.819,7.819,0,0,1,1.618,1.146,7.8,7.8,0,0,0,5.182.208,2.416,2.416,0,0,0,1.822-2.477c.123-4.2.072-8.393.028-12.591a1.712,1.712,0,0,0-.437-1.181H3.922c-.343.291-.023.717-.218,1.083-.331.162-.715.011-1.081.062v1.146q1.461,1.146,0,2.292v2.291c.776.752,1.879.132,2.708.636a.71.71,0,0,1,.088.946c-.806.655-2-.079-2.8.711V38.28H3.752c.039,1.907.009,3.819.018,5.729a2.879,2.879,0,0,0,3.155,0" transform="translate(1.995 21.275)" fill="#5f7996"/>
        <path id="Trazado_614557" data-name="Trazado 614557" d="M27.406,22.221l.688.657h21.52l.667-.806V.627C50.106.5,49.836.312,49.4,0H28.043l-.637.637Z" transform="translate(20.849 -0.001)" fill="#040506"/>
        <path id="Trazado_614558" data-name="Trazado 614558" d="M42.388,34.83a4.4,4.4,0,0,0,1.574-4.758,5.031,5.031,0,0,0-3.808-3.719c-3.21-.352-4.625,1.122-5.411,3a4.354,4.354,0,0,0,1.345,5.441c-.262.328-.611.169-.9.16a4.644,4.644,0,0,0-4.559,4.65c.065,3.529.016,7.059.016,10.7l.843.694H47.127l.725-.706c0-3.634.011-7.26-.005-10.885a4.258,4.258,0,0,0-2.507-3.939,3.694,3.694,0,0,0-1.939-.516,1.437,1.437,0,0,1-1.012-.123" transform="translate(23.3 20.008)" fill="#040506"/>
        <path id="Trazado_614559" data-name="Trazado 614559" d="M8.508,22.081h1.921a4.779,4.779,0,0,0,1.639-1.257,2.7,2.7,0,0,0,.9-2.211,6.264,6.264,0,0,1,1.5-4.243,7.96,7.96,0,0,0,1.817-3.523,4.883,4.883,0,0,0-.1-2.877c-.169-.407-.231-.857-.37-1.278a2.771,2.771,0,0,0-.646-1.164C14.588,4.963,14,4.407,13.456,3.8a4.2,4.2,0,0,0-1.924-.894,6.761,6.761,0,0,0-5.39.535A7.255,7.255,0,0,0,4.668,4.722C2.818,6.272,2.541,8.374,2.629,10.6c.535,1.065.662,2.275,1.567,3.231a5.761,5.761,0,0,1,1.861,4.5c-.157,1.7.831,2.643,2.071,3.47.074.049.155.088.229.137a1.554,1.554,0,0,1,.151.15" transform="translate(1.989 1.949)" fill="#050506"/>
        <path id="Trazado_614560" data-name="Trazado 614560" d="M17.312,30.219V28.157H15.02v5.28c.19.157.477.391.812.664h5.117V31.835H19.075c.148-.2-.062.039-.062-.151,0-.033.051-.069.083-.1q8.1-8.1,16.164-16.148-.787-.784-1.576-1.572L17.312,30.219" transform="translate(11.426 10.546)" fill="#040506"/>
        <path id="Trazado_614561" data-name="Trazado 614561" d="M29.47,4.05,28,5.585,29.482,6.9l-.169.269H15.023v2.3H29.47c-.685.579-1.2,1.019-1.652,1.4.588.59,1.021,1.027,1.491,1.5a.9.9,0,0,0,.8-.35c1.067-1.092,2.157-2.162,3.227-3.226V7.911C32.049,6.628,30.766,5.346,29.47,4.05" transform="translate(11.429 3.08)" fill="#050506"/>
        <path id="Trazado_614562" data-name="Trazado 614562" d="M28,38.8l1.456,1.483h.588c1.192-1.19,2.373-2.37,3.566-3.562V35.9l-3.8-3.8c-.493.495-1.019,1.019-1.546,1.546.386.384.857.857,1.331,1.329a.459.459,0,0,1-.072.1.2.2,0,0,1-.118.058c-2.382,0-4.765,0-7.2,0v2.2c-.021-.023.007.019.046.044a.233.233,0,0,0,.121.048c2.381,0,4.763,0,7.006,0L28,38.8" transform="translate(16.884 24.419)" fill="#050606"/>
        <path id="Trazado_614563" data-name="Trazado 614563" d="M3.629,34.163H7.011c.141-.724,0-1.463.088-2.292H1.4c-.155.724,0,1.465-.1,2.292Z" transform="translate(0.99 24.245)" fill="#040506"/>
        <path id="Trazado_614564" data-name="Trazado 614564" d="M4.618,31.563H5.729c.079-.724.014-1.461.04-2.2-.4-.192-.787-.046-1.152-.1H.092c-.146.724,0,1.465-.092,2.292Z" transform="translate(0 22.262)" fill="#040506"/>
        <path id="Trazado_614565" data-name="Trazado 614565" d="M2.422,8.722c-.563.46-1.289.53-1.75,1.072.025.78.84,1.143.923,1.991a8.248,8.248,0,0,0,1.933-1.118c.067-.88-.493-1.395-1.106-1.946" transform="translate(0.511 6.635)" fill="#0f1010"/>
        <path id="Trazado_614566" data-name="Trazado 614566" d="M.292,5.53A3.643,3.643,0,0,1,2.1,6.173c.792-.28.637-1.225,1.169-1.655C3,3.613,2.007,3.841,1.583,3.16A4.191,4.191,0,0,0,.292,5.53" transform="translate(0.222 2.403)" fill="#0e0f0f"/>
        <path id="Trazado_614567" data-name="Trazado 614567" d="M10.762,10.692c.491.6,1.229.636,1.794,1.109.4-.639.773-1.224,1.137-1.8-.416-.775-1.3-.678-1.836-1.342-.389.791-1.143,1.2-1.1,2.032" transform="translate(8.185 6.587)" fill="#0e0f0f"/>
        <path id="Trazado_614568" data-name="Trazado 614568" d="M11.016,4.281c.523.622.586,1.352,1.125,1.8.752.12,1.208-.544,1.859-.66.129-.887-.563-1.4-.847-2.18L11.016,4.281" transform="translate(8.38 2.467)" fill="#0d0e0e"/>
        <path id="Trazado_614569" data-name="Trazado 614569" d="M8.154,2.2V.009H5.914C5.84.683,5.905,1.419,5.877,2.2Z" transform="translate(4.471 0.006)" fill="#040506"/>
        <path id="Trazado_614570" data-name="Trazado 614570" d="M21.728,35.653H15.56c-.232-.234-.467-.472-.71-.718V30.089c-.035-.04-.058-.1-.1-.109a2.06,2.06,0,0,0-1.056,0V42.529a1.577,1.577,0,0,0,2.007,0c.606-.239.833-1.005,1.569-1.065a3.582,3.582,0,0,1,3.307.778,1.1,1.1,0,0,0,1.261-.91,8.907,8.907,0,0,0-.114-5.678" transform="translate(10.421 22.755)" fill="#cfdae0"/>
        <path id="Trazado_614571" data-name="Trazado 614571" d="M14.594,27.971c0,4.384-.03,8.77.019,13.155a2.613,2.613,0,0,1-1.741,2.888H8c.107.46.736.6.653,1.143h6.932c.232-1.181.306-12.126.114-17.111-.352-.174-.738-.021-1.1-.074" transform="translate(6.084 21.269)" fill="#4f637a"/>
        <path id="Trazado_614572" data-name="Trazado 614572" d="M18.754,33.18c0,1.477-.023,2.955.009,4.432a2.167,2.167,0,0,1-1.155,2.157c.127.565.894.7.909,1.386h1.315V33.239c-.327-.158-.711-.009-1.078-.06" transform="translate(13.395 25.229)" fill="#b3bcc1"/>
        <path id="Trazado_614573" data-name="Trazado 614573" d="M18.808,31.912a5.278,5.278,0,0,0-1.556-1.977h-1.6V32.2c1.113.576,2.194.8,3.155-.287" transform="translate(11.908 22.772)" fill="#bbdff8"/>
        <path id="Trazado_614574" data-name="Trazado 614574" d="M18.808,31.058c-.308.049-.5.336-.879.3-.754-.062-1.518-.018-2.277-.018v1.092a14.049,14.049,0,0,0,2.076.051c.708.014,1.416,0,2.213,0-.275-.627-.509-1.176-1.134-1.433" transform="translate(11.908 23.627)" fill="#9fd3f4"/>
        <path id="Trazado_614575" data-name="Trazado 614575" d="M16.36,37.729l-.7.722v.884c.2.173.454.382.791.662h.813c.178-.2.419-.474.68-.766v-.8l-1-.7Z" transform="translate(11.913 28.701)" fill="#3c4a5d"/>
        <path id="Trazado_614576" data-name="Trazado 614576" d="M7.445,40.011c.234-.232.467-.467.708-.708v-.894c-.21-.181-.46-.394-.773-.669H6.538c-.136.183-.331.445-.639.854v.741c.2.143.493.363.914.676Z" transform="translate(4.488 28.71)" fill="#3c4a5d"/>
        <path id="Trazado_614577" data-name="Trazado 614577" d="M6.429,37.078H3.274V38.2c.813.056,1.637.011,2.493.03-.06-.56.56-.7.662-1.15" transform="translate(2.491 28.206)" fill="#4e6279"/>
        <path id="Trazado_614578" data-name="Trazado 614578" d="M15.706,37.078H13.7V38.2H15.03c-.037-.526.574-.667.676-1.118" transform="translate(10.421 28.206)" fill="#b0b9be"/>
        <path id="Trazado_614579" data-name="Trazado 614579" d="M44.743,1.283H41.353c-.116,2.023-.012,4.053-.063,6.194L40.5,7.94c-.377.407-.872.181-1.266-.085a2.056,2.056,0,0,0-2.712-.018,1.282,1.282,0,0,1-1.349.384c-.234-.287-.468-.574-.759-.933V1.348H28.683V17.325a2.592,2.592,0,0,0,1.891.47c3.664.011,7.33.028,10.994-.005,2.657-.025,3.615-.981,3.639-3.636.033-3.661.016-7.321,0-10.982a2.586,2.586,0,0,0-.468-1.889" transform="translate(21.82 0.975)" fill="#e39f41"/>
        <path id="Trazado_614580" data-name="Trazado 614580" d="M44.743,1.283q0,6.8,0,13.591a2.21,2.21,0,0,1-2.453,2.451q-6.8.005-13.605,0V19.47a.664.664,0,0,0,.1.1.23.23,0,0,0,.123.046c6,0,12.007,0,18.071,0V1.283Z" transform="translate(21.82 0.975)" fill="#c68b36"/>
        <path id="Trazado_614581" data-name="Trazado 614581" d="M35.489,5.18V1.313H33.278V5.1a1.654,1.654,0,0,1,2.211.083" transform="translate(25.316 0.998)" fill="#ffdfa3"/>
        <path id="Trazado_614582" data-name="Trazado 614582" d="M44.522,43.929v-9.8a2.542,2.542,0,0,0-1.88-1.6h-9.1a2.541,2.541,0,0,0-1.583,1.814v9.582Z" transform="translate(24.31 24.749)" fill="#68a0d7"/>
        <path id="Trazado_614583" data-name="Trazado 614583" d="M35.866,32.756a2.888,2.888,0,0,0,3.347-1.9,2.794,2.794,0,0,0-.773-2.446,2.858,2.858,0,0,0-2.55-.743c-1.588.986-1.833,1.41-1.833,3.185a3.818,3.818,0,0,0,1.808,1.9" transform="translate(25.909 21.023)" fill="#ffcf9a"/>
        <path id="Trazado_614584" data-name="Trazado 614584" d="M6.9,14.205h3.222c.537-.417.671-1.081.982-1.613a21.033,21.033,0,0,1,1.284-1.734A4.346,4.346,0,0,0,11.1,4.787c-1.687-1.044-2.28-1.21-4.081-.558a4.533,4.533,0,0,0-2.78,6.053,2.967,2.967,0,0,0,.85,1.2A6.089,6.089,0,0,1,6.5,13.629a5.2,5.2,0,0,0,.408.576" transform="translate(2.977 2.923)" fill="#ffdf55"/>
        <path id="Trazado_614585" data-name="Trazado 614585" d="M5.893,11.074v1.581l.9.636h.7c.136-.183.335-.447.641-.856V11.074Z" transform="translate(4.483 8.424)" fill="#576f94"/>
      </g>
    </g>
  </g>
</svg>
