<svg id="Grupo_876333" data-name="Grupo 876333" xmlns="http://www.w3.org/2000/svg" xmlns:xlink="http://www.w3.org/1999/xlink" width="139.572" height="144.7" viewBox="0 0 139.572 144.7">
  <defs>
    <clipPath id="clip-path">
      <rect id="Rect치ngulo_325291" data-name="Rect치ngulo 325291" width="139.572" height="144.7" fill="none"/>
    </clipPath>
  </defs>
  <g id="Grupo_876332" data-name="Grupo 876332" transform="translate(0 0)" clip-path="url(#clip-path)">
    <path id="Trazado_614654" data-name="Trazado 614654" d="M36.239,18.67H1.468c-.448.483-.928.995-1.468,1.569V99.292c.452.287,1.051.662,2.179,1.377H90.386l1.45-1.45V81.42c1.8-3.1.7-6.46.9-9.707.193-3.31.126-6.624.06-9.935-.088-4.109-1.338-5.405-5.5-5.444-10.961-.112-21.922-.021-32.883-.053-1.489,0-3.023.214-4.449-.522-.862-1.265-.631-2.708-.634-4.088-.032-9.437.021-18.878-.035-28.315-.014-2.4-.312-4.694-3.209-5.43-3.31-.105-6.684-1.033-9.851.743" transform="translate(0 44.032)" fill="#040506"/>
    <path id="Trazado_614655" data-name="Trazado 614655" d="M94.272,60.287h2.137c.564-.589.263-1.324.266-1.983.021-12.965-.077-25.93.06-38.891A9.992,9.992,0,0,0,86.846,9.56c-7.731.168-15.469.046-23.222.046.515-2.76,1.632-5.279,1.7-8.155-.508-.4-1.054-.834-1.836-1.45H42.483c-.273.371-.683.932-1.412,1.927-.189,2.238,1.209,4.712,1.576,7.637-.319.357-1.058.021-1.7.025-7.244.025-14.492.074-21.736,0a9.781,9.781,0,0,0-9.563,9.525c.06,12.464.021,24.924.021,37.385v1.181c.83.41,1.643.091,2.417.2a1.89,1.89,0,0,0,2.533-.035c1.082-1.447.841-3.2.844-4.88.032-10.239-.007-20.479.025-30.718.014-5.78,1.068-6.82,6.9-6.824,2.911,0,5.829-.161,8.737.13a1.929,1.929,0,0,1,1.142.511c.694,1.727-.5,2.053-1.8,2.154-2.207.172-4.424.014-6.635.091-4.011.144-5.37,1.331-5.419,5.223-.13,10.337-.07,20.678-.028,31.019a5.657,5.657,0,0,0,.669,3.1,3.265,3.265,0,0,0,2.8,1.061,4.466,4.466,0,0,0,2.781-.869c1.068-10.653.084-21.379.8-32.739q27.739-.042,54.616,0c1.384,1.636,1.114,3.1,1.117,4.463.032,9.346.007,18.692.025,28.038,0,1.6-.133,3.226.6,4.7a2.874,2.874,0,0,0,2.641,1.226,3.612,3.612,0,0,0,2.617-.753c1.044-1.191.935-2.736.939-4.225q.042-17.02,0-34.032c-.025-5.055-1.195-6.158-6.267-6.235-1.909-.032-3.822.07-5.727-.067-1.138-.081-2.252-.27-2.084-1.8.718-1.1,1.8-.956,2.76-.977,3.016-.06,6.036-.109,9.048.014,3.51.137,4.929,1.489,5.1,4.985.193,4.113.056,8.232.067,12.348.011,7.63-.014,15.259.014,22.885.007,1.587-.182,3.237.858,4.589a1.892,1.892,0,0,0,2.526.028" transform="translate(24.152 0)" fill="#040506"/>
    <path id="Trazado_614656" data-name="Trazado 614656" d="M79.209,47.3a8.994,8.994,0,0,1,4.5-1.723,6.277,6.277,0,0,0,3.944-2.224v-9.09c2.386-.676,4.806-1.324,7.206-2.056a8.869,8.869,0,0,0,5.489-7.076,7.887,7.887,0,0,0-1.422-4.211,6.069,6.069,0,0,0-3.408-2.575c-2.487-.83-2.915-.834-5.517,0-3.377,1.079-6.726,2.238-10.19,3.016-3.717-.2-6.978,1.622-10.488,2.344C56.054,27.741,42.8,31.843,29.434,35.564c-5.741,1.594-9.35,5.7-12.965,9.851a2.777,2.777,0,0,0,1.293,4.663c4.7,1.352,9.511,3.065,14.468,1.632,12.264-3.542,24.483-7.251,36.7-10.951,3.317-1.128,6.768-1.825,10.05-3.058.848-.2,1.646-.76,2.585-.375.743.82.4,1.65.168,2.368-.89,1.009-2.046,1.061-3.065,1.419-3.2,1.033-6.449,1.913-9.661,2.911-1.471.406-2.985.876-3.048,2.729-.056,1.639.354,3.16,2.13,3.857A29.48,29.48,0,0,0,79.209,47.3" transform="translate(39.215 44.359)" fill="#040506"/>
    <path id="Trazado_614657" data-name="Trazado 614657" d="M39.619,58.378c1.117.312,2.1-.35,3.027-.673a38.046,38.046,0,0,1,7.034-1.853c.091-.014.144-.319.214-.49-.56.042-.606-.336-.606-.746V49.932H47.164a1.655,1.655,0,0,1-.2-.214.527.527,0,0,1-.091-.263q-.005-20.939,0-41.942c-1.1-1.065-1.345-3-3.247-3.377h-16V8.768H40.46c.494.592.939,1.128,1.531,1.836V52.167c-.788.385-1.6.067-2.372.179a5.087,5.087,0,0,0,0,6.032" transform="translate(69.137 10.355)" fill="#0083ac"/>
    <path id="Trazado_614658" data-name="Trazado 614658" d="M20.013,47.519H17.9c-.448-2.62-.592-27.264-.217-37.2.427-.427.855-.851,1.38-1.377H31.976V4.137h-15.8c-2.158,1.237-2.158,1.237-3.415,3.317V47.323c-.83.406-1.643.088-2.414.2v4.827h9.668a3.741,3.741,0,0,0,0-4.827" transform="translate(25.894 10.355)" fill="#0083ac"/>
    <path id="Trazado_614659" data-name="Trazado 614659" d="M52.8,26.258c-1.321-.417-2.512.284-3.629.669a38.692,38.692,0,0,1-7.034,1.857c-.095.014-.144.319-.214.49.291,1.559.2,3.223,1.212,4.592.557.571,1.293,1.061,1.331,1.934a92.438,92.438,0,0,1-.137,15.018c-3.955,1.916-10.919,1.412-13.35-.781a4.426,4.426,0,0,0-4.768.357v9.654H31.05a6.483,6.483,0,0,1,4.736-1.485c2.911.035,5.826.091,8.733-.028,4.358-.179,6.656-2.438,6.768-6.785.137-5.311.049-10.621.032-15.932A6.536,6.536,0,0,1,52.8,31.085Z" transform="translate(65.62 65.403)" fill="#0083ac"/>
    <path id="Trazado_614660" data-name="Trazado 614660" d="M49.363,27.556H46.957c-.021,3.86-.007,7.731-.011,11.6q-.005,5.717,0,11.434a9.025,9.025,0,0,1-3.829,3.514H27.805c-.406.834-.091,1.643-.2,2.414v2.13c.585.568,1.324.259,1.983.266,4.123.032,8.25-.105,12.366.046a9.871,9.871,0,0,0,9.865-9.847C51.658,42,51.78,34.881,51.78,27.756c-.834-.41-1.646-.091-2.417-.2" transform="translate(69.061 68.932)" fill="#040506"/>
    <path id="Trazado_614661" data-name="Trazado 614661" d="M59.033,98.588h4.834a6.317,6.317,0,0,1,4.7-1.5c1.674.021,3.4.2,5.156-.837,1.342-2.816.592-5.945.718-8.971.081-2-.042-4,1.51-5.587V77.78c-.431-.476-.844-.242-1.209-.308a5.556,5.556,0,0,1-1.706-4.631c.963-.3,1.8-1.037,2.915-.8.7-1.72,1.965-3.514-.6-4.827-3.9,1-7.742,2.165-11.588,3.342-2.946.9-5.892,1.811-8.849,2.687-5.192,1.534-10.481,2.753-15.508,4.82-2.144-.095-4.284,1.534-6.435.014-1.9.406-3.594-.848-5.486-.624-1.051.123-1.9-1.1-3.139-.431-.462-.6-.89-1.145-1.517-1.955V73.622a2.151,2.151,0,0,1,.263-.385c2.06-2.063,4.071-4.179,6.2-6.165a14.272,14.272,0,0,1,6.989-3.535c2.638-.553,5.17-1.583,7.766-2.351,3.5-1.033,7.062-1.867,10.5-3.069,3-1.047,6.06-1.881,9.073-2.83,2.925-.921,5.9-1.853,8.908-2.575a34.759,34.759,0,0,0,3.426-1.188V45.493H73.834a1.493,1.493,0,0,1-.2-.217.5.5,0,0,1-.091-.259c0-12.649,0-25.3,0-38.141H15.848a1.688,1.688,0,0,0-.217.2.482.482,0,0,0-.105.256q-.005,16.562,0,33.135c-.834.41-1.643.091-2.417.2v4.827c1.279-.27,1.629.949,2.487,1.548v37.01H57.468l1.566,1.566Z" transform="translate(32.802 17.209)" fill="#dddddb"/>
    <path id="Trazado_614662" data-name="Trazado 614662" d="M37.634,30.3H30.491c-.245,4.26-.028,8.537-.133,13.045-.445.263-1.058.62-1.667.981l.315.389H12.472c-.319-.406-.8-1.023-1.436-1.836V30.44H1.374V61.677c4.5-2.309,9.364-1.464,14.1-1.531,9.357-.13,16.643-5.3,19.624-14.075a16.283,16.283,0,0,0,.97-5.3c-.011-3.57-.3-7.181,1.562-10.471" transform="translate(3.439 75.843)" fill="#fdad08"/>
    <path id="Trazado_614663" data-name="Trazado 614663" d="M50.054,30.3H43.118a1.328,1.328,0,0,0-.214.207.514.514,0,0,0-.1.256c0,4.2,0,8.407,0,12.509-.525.522-.949.949-1.443,1.443H24.892c-.319-.406-.8-1.023-1.436-1.836V30.44H13.794V61.677c4.5-2.309,9.364-1.464,14.1-1.531,9.357-.13,16.643-5.3,19.624-14.075a16.283,16.283,0,0,0,.97-5.3c-.011-3.57-.3-7.181,1.562-10.471" transform="translate(34.527 75.843)" fill="#fdad08"/>
    <path id="Trazado_614664" data-name="Trazado 614664" d="M37.634,19.277H30.491c-.245,4.26-.028,8.537-.133,13.045-.445.263-1.058.62-1.667.981l.315.389H12.472c-.319-.406-.8-1.023-1.436-1.836V19.417H1.374V50.654c4.5-2.309,9.364-1.464,14.1-1.531,9.357-.13,16.643-5.3,19.624-14.075a16.283,16.283,0,0,0,.97-5.3c-.011-3.57-.3-7.181,1.562-10.471" transform="translate(3.439 48.252)" fill="#fdad08"/>
    <path id="Trazado_614665" data-name="Trazado 614665" d="M37.634,30.321c-2.3,1.755-2.414,1.986-2.417,4.96,0,1.6-.074,3.209.014,4.81.214,3.857-1.237,7.248-3.093,10.443-1.825,3.132-4.172,4.985-7.878,6.94a24.588,24.588,0,0,1-6.778,1.808c-3.713.007-7.426,0-11.14,0-2.978,0-3.205.116-4.967,2.414v2.13a1.938,1.938,0,0,0,.214.186.515.515,0,0,0,.259.091c12.646.007,25.3.007,38.075.007V30.454c-.708-.34-1.517-.025-2.287-.133" transform="translate(3.439 75.821)" fill="#f7970f"/>
    <path id="Trazado_614666" data-name="Trazado 614666" d="M50.054,30.321c-2.3,1.755-2.414,1.986-2.417,4.96,0,1.6-.074,3.209.014,4.81.214,3.857-1.237,7.248-3.093,10.443-1.825,3.132-4.172,4.985-7.878,6.94A24.587,24.587,0,0,1,29.9,59.281c-3.713.007-7.426,0-11.14,0-2.978,0-3.205.116-4.967,2.414v2.13a1.939,1.939,0,0,0,.214.186.515.515,0,0,0,.259.091c12.646.007,25.3.007,38.075.007V30.454c-.708-.34-1.517-.025-2.287-.133" transform="translate(34.527 75.821)" fill="#f7970f"/>
    <path id="Trazado_614667" data-name="Trazado 614667" d="M37.634,19.3c-2.3,1.755-2.414,1.986-2.417,4.96,0,1.6-.074,3.209.014,4.81.214,3.857-1.237,7.248-3.093,10.443-1.825,3.132-4.172,4.985-7.878,6.94a24.588,24.588,0,0,1-6.778,1.808c-3.713.007-7.426,0-11.14,0-2.978,0-3.205.116-4.967,2.414V52.8a1.937,1.937,0,0,0,.214.186.515.515,0,0,0,.259.091c12.646.007,25.3.007,38.075.007V19.431c-.708-.34-1.517-.025-2.287-.133" transform="translate(3.439 48.23)" fill="#f7970f"/>
    <path id="Trazado_614668" data-name="Trazado 614668" d="M15.14,28.751V19.307H5.559c-.091,1.433-.021,3-.035,4.564-.014,1.59,0,3.184,0,4.88Z" transform="translate(13.795 48.327)" fill="#ffd14b"/>
    <path id="Trazado_614669" data-name="Trazado 614669" d="M17.949,30.33v9.448h9.539a39.338,39.338,0,0,0,.074-4.571c.032-1.59.007-3.184.007-4.876Z" transform="translate(44.927 75.918)" fill="#ffd14b"/>
    <path id="Trazado_614670" data-name="Trazado 614670" d="M15.006,30.315H5.544v9.567c1.436.091,3.009.018,4.575.032,1.594.014,3.188,0,4.887,0Z" transform="translate(13.877 75.88)" fill="#ffd14b"/>
    <path id="Trazado_614671" data-name="Trazado 614671" d="M17.951,10.947V15.68H46.834c.158-1.44.025-3,.084-4.652H38.84c-.613-.6-1.114-1.1-1.608-1.583-.154-2.816,1.184-5.3,1.576-8.054H26.033c.2,2.683,1.766,5.209,1.51,8.064q-.741.746-1.489,1.492h-8.1" transform="translate(44.932 3.482)" fill="#4fb3b1"/>
    <path id="Trazado_614672" data-name="Trazado 614672" d="M62.136,24.691v-4.55a31.258,31.258,0,0,0-5.969,1.443c-3.244.925-6.495,1.864-9.7,2.876-3.013.956-6.064,1.867-9.08,2.83-3.468,1.1-7,2.081-10.492,3.142-1.047.319-2.309.217-3.216,1.289.4,1.289.813,2.652,1.282,4.172,4.393-1.534,8.863-2.862,13.326-4.123C42.8,30.5,47.273,29.063,51.83,27.932c3.436-.855,6.775-2.112,10.306-3.24" transform="translate(59.28 50.414)" fill="#fcac08"/>
    <path id="Trazado_614673" data-name="Trazado 614673" d="M18.1,30.844c1.534.245,3.079-.053,4.554.624,1.047.476,2.161-.476,3.233-.781,2.6-.725,5.17-1.573,7.9-2.417.273-1.569-.434-2.981-1.2-4.487L22.157,26.791C20.874,28.073,19.55,29.4,18.1,30.844" transform="translate(45.305 59.528)" fill="#faab08"/>
    <path id="Trazado_614674" data-name="Trazado 614674" d="M30.873,26.312c.557-.042.6.329.606.739v4.088a24.384,24.384,0,0,1,5.741-1.811c1.373-.182,2.5-1.17,3.927-1.205.953-1.611,1.321-3.219,0-4.827-1.121-.312-2.1.35-3.027.673a38.325,38.325,0,0,1-7.034,1.853c-.095.011-.144.319-.214.49" transform="translate(77.277 58.108)" fill="#0082ab"/>
    <path id="Trazado_614675" data-name="Trazado 614675" d="M36.078,25.66c1.941-.049,3.5-1.037,5.209-1.454,1.338-.322,2.894-.641,2.96-2.68a3.832,3.832,0,0,0-2.512-2.382A37.925,37.925,0,0,0,36.078,21Z" transform="translate(90.305 47.919)" fill="#f8a908"/>
    <path id="Trazado_614676" data-name="Trazado 614676" d="M33.806,24.174V29c.683-.319,1.3-.83,2.154-.613.722.179.995-.508,1.391-.823v-4.7a9.442,9.442,0,0,1-3.335.82c-.06,0-.14.319-.21.49" transform="translate(84.618 57.23)" fill="#f1f3f4"/>
    <path id="Trazado_614677" data-name="Trazado 614677" d="M39.688,28.249H37.341c-.172,4.729.007,9.472-.1,14.4h-9.4a6.671,6.671,0,0,0-.235,2.5v2.4c4.281.028,8.568,0,13.049.018.34-.445.764-1,1.4-1.818V28.421c-.778-.382-1.59-.063-2.361-.172" transform="translate(69.068 70.653)" fill="#040506"/>
    <path id="Trazado_614678" data-name="Trazado 614678" d="M15.2,27.481c.392.375.9.862,1.44,1.384H28.161c.364-.438.813-.97,1.4-1.681V15.795c-.371-.266-.935-.673-1.843-1.321H16.545L15.2,15.816Z" transform="translate(38.054 36.229)" fill="#040506"/>
    <path id="Trazado_614679" data-name="Trazado 614679" d="M29.64,21.207V9.717c-.476-.438-.991-.907-1.59-1.457H16.574c-.336.42-.767.963-1.384,1.741V21.284c.417.35,1.016.851,1.692,1.422H28.141c.5-.508,1-1,1.5-1.5" transform="translate(38.021 20.676)" fill="#040506"/>
    <path id="Trazado_614680" data-name="Trazado 614680" d="M20.71,17.238v4.628H49.6c.161-1.426.021-2.978.081-4.628Z" transform="translate(51.838 43.148)" fill="#040506"/>
    <path id="Trazado_614681" data-name="Trazado 614681" d="M49.686,15.666V11.038H20.839c-.277,1.422.011,2.981-.158,4.628Z" transform="translate(51.765 27.629)" fill="#040506"/>
    <path id="Trazado_614682" data-name="Trazado 614682" d="M42.809,19.116V14.481H23.7c-.48,1.426.049,3-.277,4.635Z" transform="translate(58.639 36.247)" fill="#040506"/>
    <path id="Trazado_614683" data-name="Trazado 614683" d="M42.749,12.906V8.282H23.535c-.165,1.422-.021,2.974-.084,4.624Z" transform="translate(58.699 20.731)" fill="#040506"/>
    <path id="Trazado_614684" data-name="Trazado 614684" d="M25.49,19.107V14.483H20.768c-.154,1.426-.018,2.974-.077,4.624Z" transform="translate(51.791 36.252)" fill="#040506"/>
    <path id="Trazado_614685" data-name="Trazado 614685" d="M25.513,12.91V8.282H20.829c-.259,1.426.011,2.981-.147,4.628Z" transform="translate(51.768 20.731)" fill="#040506"/>
    <path id="Trazado_614686" data-name="Trazado 614686" d="M14.469,41.847V37.219H9.786c-.252,1.426.007,2.981-.144,4.628Z" transform="translate(24.134 93.161)" fill="#040506"/>
    <path id="Trazado_614687" data-name="Trazado 614687" d="M26.89,41.847V37.219H22.207c-.252,1.426.007,2.981-.144,4.628Z" transform="translate(55.225 93.161)" fill="#040506"/>
    <path id="Trazado_614688" data-name="Trazado 614688" d="M14.318,26.181H9.683v4.712c1.429.151,2.985.018,4.635.077Z" transform="translate(24.237 65.533)" fill="#040506"/>
    <path id="Trazado_614689" data-name="Trazado 614689" d="M16.555,15.94V20.6c1.524.168,3.076.028,4.729.091V15.947a23.685,23.685,0,0,0-4.729-.007" transform="translate(41.438 39.612)" fill="#dddddb"/>
    <rect id="Rect치ngulo_325290" data-name="Rect치ngulo 325290" width="4.631" height="4.631" transform="translate(58.144 33.836)" fill="#dddddb"/>
  </g>
</svg>
