<svg id="Grupo_876335" data-name="Grupo 876335" xmlns="http://www.w3.org/2000/svg" xmlns:xlink="http://www.w3.org/1999/xlink" width="142.17" height="142.166" viewBox="0 0 142.17 142.166">
  <defs>
    <clipPath id="clip-path">
      <rect id="Rect치ngulo_325293" data-name="Rect치ngulo 325293" width="142.17" height="142.166" fill="none"/>
    </clipPath>
  </defs>
  <g id="Grupo_876334" data-name="Grupo 876334" transform="translate(0 0)" clip-path="url(#clip-path)">
    <path id="Trazado_614690" data-name="Trazado 614690" d="M15.662,30.69C10.953,38.554,15.9,46.28,23.935,46c1.629,1.912,1.935,4.663,4,6.357,1.916,1.576,3.24,3.894,6.047,4.67-1.113,1.7-.478,3.943-2.058,5.431-1.446.3-2.9-.126-4.376.558-1.17.543-2.658-.011-4.058.574-1.193.5-2.769-.237-4.024.658-4.838.226-10.576,3.81-13.253,6.72a23.961,23.961,0,0,0-5.393,9.5A17.049,17.049,0,0,0,0,85.3c.05,9.26-.073,18.52.069,27.78A13.883,13.883,0,0,0,4.382,123.3a16.39,16.39,0,0,0,2.486,2.276c1.847,1.147,3.657,2.276,5.94,2.3.291,0,.574.44.945.746v13.437h59.63v-13.36c.509-.451.8-.849,1.5-.891a10.773,10.773,0,0,0,6.235-2.872,16.521,16.521,0,0,0,4.058-4.6,9.686,9.686,0,0,0,1.19-2.93,25.121,25.121,0,0,0,.815-4.559c-.084-5.427-.031-10.863-.031-16.4h4.395c-.05-.05.031,0,.084.08a.459.459,0,0,1,.1.241q.006,21.05,0,42.1a5.292,5.292,0,0,0,3.859,3.3c13.559,0,27.876,0,42.2,0a3.764,3.764,0,0,0,3.825-2.517,2.735,2.735,0,0,1,.558-.658q0-21.148,0-42.357c0-3.156-1.744-4.877-4.926-4.888-2.861-.008-5.718,0-8.705,0V50.564h5.554a5.332,5.332,0,0,0,3.492-4.051V23.981c0-6.108-.08-12.22.042-18.329.05-2.593-.711-4.479-3.5-5.573C120.245.079,106.02.1,91.8.06c-2.356,0-3.695,1.251-4.651,3.4V45.913c-1.193,0-2.406.088-3.6-.019-2.6-.229-4.475.708-5.634,3.641V68.2A20.74,20.74,0,0,1,75.792,67a19.752,19.752,0,0,0-7.443-2.773c-1.45-.241-2.907-.413-4.337-.646a26.948,26.948,0,0,1-4.326-.581c-1.5-.52-2.922-.314-4.372-.493-1.48-1.22-1.132-3.156-1.8-5,1.932-1.461,3.783-3.347,5.73-5.121,1.958-1.79,2.391-4.441,3.867-6.319,1.209-.455,2.306-.046,3.442-.4a9.191,9.191,0,0,0,6.563-6.636,8.841,8.841,0,0,0-.662-6.376c-.822-1.748-.972-1.828-.176-3.718a17.658,17.658,0,0,0,1.006-9.547,22.889,22.889,0,0,0-3.634-9.65,25.785,25.785,0,0,0-8.135-7.309,12.787,12.787,0,0,0-5-1.679C55.5.622,54.729-.188,53.612.041a14.517,14.517,0,0,1-2.857.038C45.408.079,40.06.1,34.709.072a19.794,19.794,0,0,0-8.77,2.341,21.026,21.026,0,0,0-8.709,7.776,22.585,22.585,0,0,0-3.366,14.886,13.671,13.671,0,0,0,1.8,5.615" transform="translate(0.001 0.002)" fill="#040506"/>
    <path id="Trazado_614691" data-name="Trazado 614691" d="M60.843,55.446h4.513V37.3h4.609V55.469H74.54v4.517H61.248a2.376,2.376,0,0,0-.31.3.471.471,0,0,0-.092.245c0,4.376,0,8.751,0,13.307,2.754,0,5.458.34,8.04-.08,3.576-.589,6.843-2.05,8.594-5.653a14.021,14.021,0,0,0,1.744-6.449c-.1-8.5.057-16.99-.076-25.481a16.525,16.525,0,0,0-4.724-11.482c-1.847-1.916-3.695-3.806-6.33-4.758a10.848,10.848,0,0,0-3.84-1.1c-1.1.015-2.042-.949-3.2-.566-1.186.4-2.081-.7-3.435-.551C55.97,21.96,54.6,26.4,53.143,30.826c-1.568.4-2.521-1.453-4.073-1.128-2.165-1.442-4.781-1.855-7.03-3.071-1.128-.608-2.207-.111-2.98-.314-4.028,1.813-7.9,3.224-11.689,4.7C25.819,26.4,24.358,22.04,22.9,17.7c-1.522-.092-2.735.864-4.184.593-1.274-.237-2.4.861-3.775.585-.627-.126-5.164,2.1-5.951,2.838-3.37,3.148-6.5,6.4-7.275,11.314a26.227,26.227,0,0,0-.474,4.073c-.011,8.4-.119,16.8.046,25.194.073,3.565,1.105,6.835,4.487,8.985,2.448,1.553,4.609,2.551,7.26,2.551H27.314L28.649,72.5V60.166H5.9V55.557h4.464V37.286h4.609V55.4h4.479a8.23,8.23,0,0,0,.111-2.643c.023-3.339.119-6.686-.023-10.021-.115-2.6.708-4.475,3.488-5.569,10.442,0,21.228.05,32.01-.038,2.654-.019,4.712.593,5.8,3.5Z" transform="translate(3.376 49.99)" fill="#ffcd58"/>
    <path id="Trazado_614692" data-name="Trazado 614692" d="M66.306,66.283V25.219H57.272c-.214,4.418-.015,8.95-.115,13.559H34.338V25.208H25.216V66.283Z" transform="translate(71.232 71.21)" fill="#cb8e57"/>
    <path id="Trazado_614693" data-name="Trazado 614693" d="M33.049,14.8V1.249h-9.03v41.06H64.853c.459-2.383.612-28.889.222-41.048H56.167c.054-.046-.027,0-.084.076a.459.459,0,0,0-.1.241c-.008,4.376-.008,8.751-.008,13.226Z" transform="translate(67.85 3.51)" fill="#cb8e57"/>
    <path id="Trazado_614694" data-name="Trazado 614694" d="M26.164,54.316H62.7V13.253h-8.92c.054-.046-.031.008-.084.08a.46.46,0,0,0-.092.245c-.011,4.379-.008,8.755-.008,13.226H30.734V13.222H21.616V35.75a27.653,27.653,0,0,1,3.932,8.327c.926,3.347.264,6.724.616,10.239" transform="translate(61.062 37.351)" fill="#cb8e57"/>
    <path id="Trazado_614695" data-name="Trazado 614695" d="M14.892,33.095c-.306-.685-1.144-.482-1.6-.994a4.647,4.647,0,0,1-1.564-3.374c.057-1.518.011-3.037.011-4.678H7.216V37.677c4.555,0,9.107-.015,13.659.019a6.266,6.266,0,0,1,2.222.138c3.718,1.335,5.649,2.96,6.724,6.812a8.377,8.377,0,0,1-1.744,7.944,9.149,9.149,0,0,1-8.04,3.435c-1.331-.084-2.67-.015-4-.015-.6,1.691-2.192,2.521-3.19,3.794a10.461,10.461,0,0,1-5.569.727v9.164H39.131V24.007H34.663c0,1.358-.034,2.762.008,4.161.069,2.13-.669,3.733-2.758,4.54-.161.061-.26.272-.363.386Z" transform="translate(20.384 67.817)" fill="#e0e4e9"/>
    <path id="Trazado_614696" data-name="Trazado 614696" d="M46.063,24.171V22.14c.662-.52,1.442-.187,2.169-.249.742-.057,1.5-.011,2.341-.011v2.1c1.044.516,2.41-.444,3.079,1.522,1.285-3.718,1.874-6.571,1.155-9.926A21.417,21.417,0,0,0,50.63,6.989c-1.951-2.582-5.03-3.584-7.711-5.06C36.267.663,29.543,1.554,22.861,1.214c-1.993-.1-3.8.845-5.4.662C12.63,3.788,8.946,6.6,6.713,11.074a15.4,15.4,0,0,0-.555,13.72c.987-.272,1.935-.918,3.159-.52,1.327-3.549,3.071-6.51,6.64-8.235,2.345-1.132,4.62-.926,6.984-1.052.394.807.092,1.576.2,2.31a4.247,4.247,0,0,0,4.177.493c.822-.329,1.04-1.3,1.637-1.622,1.993-1,2.555.773,3.6,1.541a5.493,5.493,0,0,0,4,.046c1.136-.711,1.7-2.842,3.84-1.392a48.045,48.045,0,0,0,2.039,8.227,3.388,3.388,0,0,0,3.637-.421" transform="translate(13.571 3.407)" fill="#525b66"/>
    <path id="Trazado_614697" data-name="Trazado 614697" d="M39.391,12.286H35.379c-.792-.44-1.4.574-2.165.283-2.555-1.736-1.6-4.938-2.995-7.156H25.637c-1.518,1.79.168,3.389.31,5.083a2.23,2.23,0,0,1-1.779,1.939c-2.834-1.614-1.687-4.892-3.117-7.022H16.465V7.547a5.161,5.161,0,0,1-2.735.107c-1.056-.214-1.595,1.2-2.586.524C10,9.33,8.934,10.408,7.867,11.483c-1.147,4.75-.562,9.585-.47,14.37.042,2.326,1.343,4.54,2.586,6.625,1.92,3.213,4.9,5.053,8.208,6.38a8.7,8.7,0,0,0,4.2.914c1.362-.164,2.838.558,4.077-.528a13.178,13.178,0,0,0,8.617-4.708A15.405,15.405,0,0,0,39.4,24.029c-.031-3.913-.008-7.829-.008-11.742" transform="translate(20.242 15.292)" fill="#efc5a5"/>
    <path id="Trazado_614698" data-name="Trazado 614698" d="M10.289,15.394c.589,2.012-1.1,3.416-.421,4.77,2.234,2.23,4.242,4.238,6.407,6.4a38.138,38.138,0,0,0,3.113-3.018c1.033-.987,2.027-2.016,3.018-3.006.516-1.725-.849-3.163-.405-5.148a21.823,21.823,0,0,1-11.712,0" transform="translate(27.416 43.487)" fill="#eec4a4"/>
    <path id="Trazado_614699" data-name="Trazado 614699" d="M9.619,37.857h5.867c1.3-.65,2.624-1.415,3.087-3.087.5-2.681-.245-4.823-3.2-5.974H9.619Z" transform="translate(27.172 81.345)" fill="#eec4a4"/>
    <path id="Trazado_614700" data-name="Trazado 614700" d="M9.611,24.012V28.4H23.25c.153-1.346.019-2.819.076-4.387Z" transform="translate(27.15 67.831)" fill="#afc96a"/>
    <path id="Trazado_614701" data-name="Trazado 614701" d="M4.907,42.664H9.363c.092-1.461.027-2.949.038-4.433.011-1.511,0-3.022,0-4.632H4.918a88.426,88.426,0,0,0-.011,9.065" transform="translate(13.548 94.913)" fill="#ffcd58"/>
    <path id="Trazado_614702" data-name="Trazado 614702" d="M16.816,42.7H21.2V33.645c-1.35-.153-2.819-.019-4.387-.076Z" transform="translate(47.503 94.828)" fill="#ffcd58"/>
    <path id="Trazado_614703" data-name="Trazado 614703" d="M28.8,34.336h4.391V25.317c-1.346-.256-2.827.011-4.391-.145Z" transform="translate(81.367 71.108)" fill="#a56434"/>
    <rect id="Rect치ngulo_325292" data-name="Rect치ngulo 325292" width="4.406" height="8.969" transform="translate(119.332 96.383)" fill="#a56434"/>
    <path id="Trazado_614704" data-name="Trazado 614704" d="M29.594,13.215H25.207V22.23c1.343.264,2.823-.015,4.387.149Z" transform="translate(71.206 37.331)" fill="#a56434"/>
    <path id="Trazado_614705" data-name="Trazado 614705" d="M32.135,22.2V13.228H27.668a39.624,39.624,0,0,0-.065,4.341c-.031,1.511-.008,3.022-.008,4.628Z" transform="translate(77.891 37.368)" fill="#a56434"/>
    <path id="Trazado_614706" data-name="Trazado 614706" d="M27.592,1.245V10.21h4.464a37.647,37.647,0,0,0,.069-4.334c.027-1.511.008-3.022.008-4.632Z" transform="translate(77.944 3.518)" fill="#a56434"/>
    <path id="Trazado_614707" data-name="Trazado 614707" d="M30,10.342H34.39V1.292C33.044,1.14,31.571,1.273,30,1.216Z" transform="translate(84.754 3.436)" fill="#a56434"/>
    <path id="Trazado_614708" data-name="Trazado 614708" d="M10.7,17.367a5.175,5.175,0,0,1-2.628.784c.853,2.49,1.671,4.877,2.521,7.351,2.18,0,3.813-1.274,5.588-1.981,0-.272.042-.405,0-.455-1.767-1.851-3.542-3.691-5.477-5.7" transform="translate(22.814 49.06)" fill="#feb415"/>
    <path id="Trazado_614709" data-name="Trazado 614709" d="M18.055,25.5c.887-2.551,1.721-4.957,2.559-7.371-.773-.436-1.729-.13-2.153-.692-1.916,1.92-3.829,3.829-5.848,5.852A20.111,20.111,0,0,0,18.055,25.5" transform="translate(35.627 49.252)" fill="#ffb515"/>
    <path id="Trazado_614710" data-name="Trazado 614710" d="M4.8,14.128c.983,2.02,2.142,3.423,4.487,3.339V8.444C6.06,8.528,4.8,10.142,4.8,14.128" transform="translate(13.565 23.854)" fill="#ebc1a2"/>
    <path id="Trazado_614711" data-name="Trazado 614711" d="M16.81,17.558c2.368.1,3.515-1.323,4.448-3.213.149-1.507.268-3.148-1.052-4.479a3.943,3.943,0,0,0-3.4-1.431Z" transform="translate(47.486 23.759)" fill="#ebc1a2"/>
    <path id="Trazado_614712" data-name="Trazado 614712" d="M10.806,7.114c.229,1.434-.046,2.842.436,4.364a9.471,9.471,0,0,0,2.413,3.928c1.021-1.021,2.046-2.046,3.171-3.167-.314-.6-.834-1.606-1.434-2.762V4.891c-1.45-.153-2.922-.027-4.395-.08-.382.807-.092,1.572-.191,2.3" transform="translate(30.487 13.591)" fill="#0b0a09"/>
    <path id="Trazado_614713" data-name="Trazado 614713" d="M13.21,7.063c.18,1.35-.138,2.685.275,4.085a8.336,8.336,0,0,0,2.846,4.433c.788-.379,1.09-1.411,2.039-1.645.08-.631.685-.857,1.052-1.354-.5-.964-1.006-1.958-1.694-3.3V4.829H13.371c-.36.731-.057,1.5-.161,2.234" transform="translate(37.255 13.642)" fill="#090808"/>
    <path id="Trazado_614714" data-name="Trazado 614714" d="M12.92,11.142q-1.876.918-3.756,1.84c.26,3.377,4.158,5.607,7.78,6.066,4.008.5,9.3-2.83,9.352-6.017-1.262-.635-2.524-1.27-3.771-1.9a6.441,6.441,0,0,1-3.576,3.312c-3.385.042-4.609-.612-6.028-3.3" transform="translate(25.887 31.444)" fill="#070707"/>
    <path id="Trazado_614715" data-name="Trazado 614715" d="M12.947,11.54V9.807c-.455-.436-.933-.891-1.461-1.392H9.727c-.329.4-.746.906-1.316,1.595v1.606c.4.344.952.822,1.572,1.354H11.6c.26-.451.639-1.105,1.017-1.759.111.111.222.218.333.329" transform="translate(23.76 23.772)" fill="#0e0c0b"/>
    <path id="Trazado_614716" data-name="Trazado 614716" d="M17.771,11.429V9.75c-.421-.337-.933-.746-1.656-1.327H14.539c-.325.394-.792.96-1.343,1.626v1.484c.478.478.945.941,1.415,1.415h1.752c.413-.448.861-.929,1.408-1.518" transform="translate(37.277 23.795)" fill="#0e0c0b"/>
  </g>
</svg>
