<svg xmlns="http://www.w3.org/2000/svg" xmlns:xlink="http://www.w3.org/1999/xlink" width="72.717" height="72.566" viewBox="0 0 72.717 72.566">
  <defs>
    <clipPath id="clip-path">
      <rect id="Rectángulo_324906" data-name="Rectángulo 324906" width="72.717" height="72.566" fill="none"/>
    </clipPath>
  </defs>
  <g id="Grupo_876239" data-name="Grupo 876239" transform="translate(0 0)">
    <g id="Grupo_876238" data-name="Grupo 876238" transform="translate(0 0)" clip-path="url(#clip-path)">
      <path id="Trazado_613987" data-name="Trazado 613987" d="M13.926,42.466C10.895,42.4,8.3,43.832,8.82,47.716l.9,1.407c-.176.673-.878,1.007-.9,1.675-.024.607,0,1.214,0,1.853a8.909,8.909,0,0,0-6.049,2.9,8.974,8.974,0,0,0-2.5,5.193,7.6,7.6,0,0,0-.244,2.012c.351,2.27.939,4.455,2.694,6.1A11.08,11.08,0,0,0,4.48,70.4a9.448,9.448,0,0,0,5.025,1.587c6.481-.007,12.962,0,19.442-.007a3.551,3.551,0,0,0,3.765-2.448c.027-.08.129-.134.239-.246-.063-1.256.28-2.636-.863-3.711.2-.89,1.085-1.551.827-2.619h1.441a10.712,10.712,0,0,0,.351,2.784A6.557,6.557,0,0,0,35.965,68.6a9.86,9.86,0,0,0,3.377,3.07,7.592,7.592,0,0,0,3.179.868c7.332.029,14.666.063,22-.024a7.663,7.663,0,0,0,4.418-1.663,9.943,9.943,0,0,0,2.987-3.867c.2-.4.088-.912.483-1.219-.122-.7.315-1.295.312-2.007-.041-10.387,0-20.776-.054-31.16a8.513,8.513,0,0,0-2.572-6.159A10.146,10.146,0,0,0,66.1,24.063a3.8,3.8,0,0,0-1.314-.244c-2.072,0-4.145,0-6.288,0V17.97c0-1.463-.015-2.928,0-4.391a6.512,6.512,0,0,0-2.053-4.95c-2.272-2.175-4.223-4.652-6.515-6.8A6.216,6.216,0,0,0,45.579.017C37.252.015,28.926.027,20.6,0a8,8,0,0,0-2.385.436A5.737,5.737,0,0,0,16.122,1.9a6.838,6.838,0,0,0-2.2,5.335c0,11.708,0,23.417,0,35.232" transform="translate(-0.001 -0.001)" fill="#040506"/>
      <path id="Trazado_613988" data-name="Trazado 613988" d="M8.207,41.176h9.329a4.146,4.146,0,0,1,2.172.551A3.12,3.12,0,0,1,21.832,44.9a14.2,14.2,0,0,1-.044,1.519,2.47,2.47,0,0,1-.8,1.122c-.068.9.844,1.253.844,2.014v1.916a4.477,4.477,0,0,1-.907,1.624c.18.763.963,1.175.907,1.963a.862.862,0,0,0,1.419.283q0-11.817,0-23.636a9.972,9.972,0,0,1,.9-4.155,8.356,8.356,0,0,1,3.735-3.972,8.472,8.472,0,0,1,4.225-1.126c4.3.066,8.595.022,12.944.022v-11.3H36.515L35.467,9.942v-9H9.651a1.957,1.957,0,0,0-1.443.283A2.585,2.585,0,0,0,7.734,3.1q-.015,18.1,0,36.205a2.549,2.549,0,0,0,.473,1.873" transform="translate(11.113 1.34)" fill="#ffcf99"/>
      <path id="Trazado_613989" data-name="Trazado 613989" d="M45.2,53.655a6.181,6.181,0,0,0,2.55-5.23q.015-15.573,0-31.143a5.766,5.766,0,0,0-1.86-4.477A8.484,8.484,0,0,0,43.7,11.221a6.625,6.625,0,0,0-2.716-.61q-10.142-.062-20.283,0a7.024,7.024,0,0,0-3.972,1.341c-.1.073-.249.156-.2.336a3.7,3.7,0,0,0-.761,2.5c.012,10.4,0,20.8.022,31.2,0,1.212-.024,2.472.992,3.409.866-.056.653-.768.707-1.248.3-2.672.792-3.143,3.457-3.153h.566c2.9.015,3.4.5,3.4,3.345v.7c0,2.858-.285,3.15-3.079,3.36-.51.039-1.17-.129-1.351.646a3.566,3.566,0,0,0,2.841,1.029c6.654.073,13.31.034,19.964.027a5.184,5.184,0,0,0,1.912-.458" transform="translate(22.668 15.211)" fill="#77b77d"/>
      <path id="Trazado_613990" data-name="Trazado 613990" d="M46.253,52.646H24.368a5.839,5.839,0,0,1-2.814-.851,1.268,1.268,0,0,0-.883-.385,2.409,2.409,0,0,1-2.136-2.133,1.264,1.264,0,0,0-.388-.88,3.708,3.708,0,0,1-.836-2.541c-.063-1.034-.015-2.075-.015-3.114V13.71a8.171,8.171,0,0,0-.015-1.27c-.071-.451.434-.719.3-1.161a5.748,5.748,0,0,0-2.309,3.643,7.414,7.414,0,0,0-.244,1.875q0,15.229,0,30.456a6.9,6.9,0,0,0,3.389,6.081c.478.31,1.141.237,1.575.729q11.6,0,23.243,0a4.91,4.91,0,0,0,2.012-.627,1.786,1.786,0,0,0,1.007-.795" transform="translate(21.61 16.22)" fill="#54a653"/>
      <path id="Trazado_613991" data-name="Trazado 613991" d="M9.771,41V1.053A4.227,4.227,0,0,0,6.923,3.989,11.532,11.532,0,0,0,6.64,6.7q.018,16.4.007,32.809V41Z" transform="translate(9.55 1.513)" fill="#fdb361"/>
      <path id="Trazado_613992" data-name="Trazado 613992" d="M7.545,37.463c.519,0,1.039-.012,1.558,0a6.584,6.584,0,0,0,4.937-2.092,6.4,6.4,0,0,0,1.768-2.806c.38-1.3.866-2.548.254-3.9a3.824,3.824,0,0,0-.8-2.355,7.607,7.607,0,0,0-4.828-3.628,18.718,18.718,0,0,0-2.014-.256c-.375-.049-.571.246-.875.3C4.826,23.975,3.8,26.376,3.517,29.08a8.049,8.049,0,0,0,4.028,8.383" transform="translate(4.961 32.252)" fill="#eb7000"/>
      <path id="Trazado_613993" data-name="Trazado 613993" d="M24.139,22.811V21.4l-.7-.7H5.253c-.212.224-.436.466-.69.736.051.48-.244,1.09.444,1.529.724,0,1.529.061,2.319-.012a8.63,8.63,0,0,1,3.865.619,2.852,2.852,0,0,0,1.031.241q4.824,0,9.646,0a2.722,2.722,0,0,0,2.272-.995" transform="translate(6.533 29.758)" fill="#f38111"/>
      <path id="Trazado_613994" data-name="Trazado 613994" d="M23.413,21.3l.695-.724V19.156c-.215-.19-.458-.41-.741-.663H5.217c-.222.219-.422.419-.656.653v1.492l.817.666Z" transform="translate(6.56 26.596)" fill="#f89124"/>
      <path id="Trazado_613995" data-name="Trazado 613995" d="M8.85,37.29a1.758,1.758,0,0,0-.814-.924A8.484,8.484,0,0,1,6.085,34.06c-.493-.649-.485-1.578-.927-2.3-.078-2.563-.1-5.113,1.8-7.181.278-1,1.365-1.251,1.887-2.026a2.838,2.838,0,0,0-1.677.38,10.909,10.909,0,0,0-2.758,1.882,6.585,6.585,0,0,0-1.738,3.357A8.673,8.673,0,0,0,3.005,32.5,7.43,7.43,0,0,0,6.26,36.408a11.412,11.412,0,0,0,2.589.883" transform="translate(3.656 32.424)" fill="#c25e07"/>
      <path id="Trazado_613996" data-name="Trazado 613996" d="M10.609,27.318a10.236,10.236,0,0,1-2.331,2.919.5.5,0,0,0,.063.127.186.186,0,0,0,.11.068c3.019,0,6.035,0,8.9,0a2.633,2.633,0,0,0,1.414-1.08c-.01-.519.122-1.131-.39-1.626a2.371,2.371,0,0,0-1.738-.414c-1.98.012-3.962,0-6.03,0" transform="translate(11.906 39.28)" fill="#9a4d0d"/>
      <path id="Trazado_613997" data-name="Trazado 613997" d="M18.367,24.983a2.27,2.27,0,0,0-.651-2.06H8.551c1.3.78,1.234,2.3,2.348,3.06,1.7,0,3.45-.049,5.193.017a2.63,2.63,0,0,0,2.275-1.017" transform="translate(12.298 32.967)" fill="#ea6f00"/>
      <path id="Trazado_613998" data-name="Trazado 613998" d="M16.573,25.506a2.628,2.628,0,0,0-1.551-.4c-1.782.027-3.567.01-5.454.01.049.578.585,1.119.249,1.565-.373.5-.117.973-.285,1.551,2.012,0,3.93.015,5.849-.007.695-.007,1.131-.512,1.587-.99-.024-.563.141-1.175-.395-1.726" transform="translate(13.708 36.102)" fill="#c05e07"/>
      <path id="Trazado_613999" data-name="Trazado 613999" d="M25.385,7.432c0-.212.02-.28,0-.3-1.743-1.78-3.487-3.555-5.32-5.42V7.432Z" transform="translate(28.853 2.454)" fill="#f7a142"/>
      <path id="Trazado_614000" data-name="Trazado 614000" d="M15.442,23.415a1.953,1.953,0,0,1-1.419-.283,2.689,2.689,0,0,0,0,.28,4.429,4.429,0,0,1-.866,3.331c.032.366.307.436.41.6h1.875Z" transform="translate(18.923 33.268)" fill="#fab160"/>
      <path id="Trazado_614001" data-name="Trazado 614001" d="M2.676,26.16c-.241-.607.475-1,.171-1.617H1.257c.178.541-.485.958-.278,1.617Z" transform="translate(1.35 35.297)" fill="#b25709"/>
      <path id="Trazado_614002" data-name="Trazado 614002" d="M2.34,26.046H1.075v1.3l.351.351H2.621c.351-.629-.1-1.1-.28-1.653" transform="translate(1.546 37.458)" fill="#ba5b09"/>
      <path id="Trazado_614003" data-name="Trazado 614003" d="M3.485,22.906c-.573.568-1.4.819-1.836,1.609a3.961,3.961,0,0,0,1.278.073c-.015-.646,1.073-.878.558-1.682" transform="translate(2.372 32.943)" fill="#b3580a"/>
      <path id="Trazado_614004" data-name="Trazado 614004" d="M3.047,28.659l.2-.2c.073-.273-.375-.375-.219-.7a2.032,2.032,0,0,0-1.192,0c.414.378.761.695,1.112,1.007l.1-.1" transform="translate(2.646 39.781)" fill="#af560a"/>
      <path id="Trazado_614005" data-name="Trazado 614005" d="M17.389,19.336a5.639,5.639,0,0,0-2.753-2.148,23.5,23.5,0,0,1-2.372-1.063c-.439-.354-.078-.88-.541-1.07a.94.94,0,0,0,.266-.892l.763-.7c.631,0,1.341.046,2.041-.012s1.07.688,1.753.573c.407-.078.5-.527.839-.656,0-.327,0-.61,0-.892-.466-.627-1.512-.785-2.721-1-.278-.407,0-.9-.18-1.329-.4-.624-1.017-.249-1.5-.383a2.189,2.189,0,0,0-.368,1.9A2.854,2.854,0,0,0,10.274,13.3a4.322,4.322,0,0,0-.219,3.17,3.474,3.474,0,0,0,1.777,1.782,18.122,18.122,0,0,0,2.048.863,2.482,2.482,0,0,1,1.777,1.8v1.47l-1.117.975c-1.385.158-2.884.119-3.743-1.341-1.031-.28-.963.624-1.361.98.539,1.18.539,1.18,2.982,2.358.283.261.076.612.18,1.066.156.115.422.3.688.495.188.232.622.137,1.219-.219v-1.18c.241-.144.312-.434.585-.434a2.246,2.246,0,0,0,1.882-1.209,3.029,3.029,0,0,0,.707-2.111,4.349,4.349,0,0,1,0-1.27c.059-.441-.5-.7-.293-1.156" transform="translate(13.574 14.037)" fill="#060606"/>
      <path id="Trazado_614006" data-name="Trazado 614006" d="M29.728,8.2c.224-.375.407-.68.6-1a2.443,2.443,0,0,0-1.251-1.27q-9.092,0-18.231-.007A2.2,2.2,0,0,0,9.1,6.618v.944L10.13,8.2Z" transform="translate(13.089 8.527)" fill="#0d0b09"/>
      <path id="Trazado_614007" data-name="Trazado 614007" d="M12.926,8.141c-.215.227-.439.466-.69.734v.848c.21.188.456.4.756.671h19c.115-.2.276-.5.436-.79.068.054.137.11.2.166V8.807c-.188-.149-.475-.38-.834-.666Z" transform="translate(17.598 11.707)" fill="#0a0907"/>
      <path id="Trazado_614008" data-name="Trazado 614008" d="M9.088,8.854v.853c.229.224.466.454.744.724,1.492-.173,3.082.288,4.535-.324l.395-.788c-.107-.249-.227-.529-.354-.819a2.36,2.36,0,0,0-1.668-.358c-.985.01-1.97,0-2.943,0-.244.246-.478.478-.71.71" transform="translate(13.07 11.704)" fill="#0f0d09"/>
      <path id="Trazado_614009" data-name="Trazado 614009" d="M22.426,5.918c-1.309.2-2.675-.38-3.779.707v.956c.2.124.517.322,1.026.641h3.065c.232-.234.463-.466.7-.7V6.688c-.173-.432-.7-.378-1.012-.77" transform="translate(26.818 8.51)" fill="#120f0c"/>
      <path id="Trazado_614010" data-name="Trazado 614010" d="M22.225,20.45h2.27a7.571,7.571,0,0,1,3.85-.69c2.7.024,5.391.037,8.088,0,2.109-.029,2.66-.6,2.7-2.731.017-.851.027-1.7-.022-2.548a1.921,1.921,0,0,0-1.587-2.051c-5.652-.061-11.306-.029-16.96-.017-1.617,0-2.129.466-2.175,2.092-.044,1.536-.3,3.109.395,4.586.985.856,2.365.724,3.438,1.363" transform="translate(26.335 17.817)" fill="#2487cb"/>
      <path id="Trazado_614011" data-name="Trazado 614011" d="M40.474,13.895c.568.161.568.161,1.129.7v5.142l-.863.673c-3.652,0-7.507,0-11.362,0-.536,0-1.119-.18-1.565.307-.132.276-.266.549-.4.824-.127.6.449.763.707,1.131,3.969,0,7.944.056,11.916-.02,2.5-.046,3.689-1.392,3.833-3.765.063-1.036-.015-2.077.015-3.116a4.306,4.306,0,0,0-2.46-4.15H39.553q-9.794,0-19.589,0a3.547,3.547,0,0,0-3.6,3.443,21.761,21.761,0,0,0,0,3.823,3.719,3.719,0,0,0,3.967,3.782c1.275.015,2.553,0,3.823,0a.63.63,0,0,1,.592-.3c.134-.276.266-.551.4-.827-.3-.361-.6-.719-.953-1.134h-2.17c-.683-.639-1.66-.28-2.536-.766-.714-1.434-.463-3.023-.251-4.6a1.044,1.044,0,0,1,.907-.807,15.488,15.488,0,0,1,2.777-.495q8.368,0,16.738,0a1.184,1.184,0,0,1,.817.144" transform="translate(23.414 16.721)" fill="#040506"/>
      <path id="Trazado_614012" data-name="Trazado 614012" d="M25.757,21.154a4.342,4.342,0,0,0-1.526,3.709c.032,2.972.046,5.947-.017,8.917a12.83,12.83,0,0,0,.329,2.287,3.318,3.318,0,0,0,2.55,2.029c.707.022,1.417,0,2.126,0a3.1,3.1,0,0,0,2.972-1.77,3.487,3.487,0,0,1,.266-.375V22.712a4.065,4.065,0,0,0-2.333-1.9c-1.3.1-2.848-.241-4.367.339" transform="translate(34.823 29.918)" fill="#050606"/>
      <path id="Trazado_614013" data-name="Trazado 614013" d="M28.5,26.074c-.276-.3-.614-.495-.622-.892-.41-.2-.8-.39-1.331-.646H22.133A3.488,3.488,0,0,0,20.27,26.5c0,.744,0,1.638,0,2.533,0,1.041-.176,2.116.734,3.023.317.024.524.432.839.671h5.1c.146-.356.571-.227.8-.493a2.423,2.423,0,0,0,.763-1.675c-.024-1.46-.007-2.923-.007-4.484" transform="translate(29.14 35.285)" fill="#040606"/>
      <path id="Trazado_614014" data-name="Trazado 614014" d="M22.976,29.039c.193-.351.644-.283.9-.583a2.3,2.3,0,0,0,.675-1.568c-.022-1.507-.007-3.014-.007-4.323a2.842,2.842,0,0,0-.883-1.361c-1.868-.673-3.65-.241-5.349-.407a3.351,3.351,0,0,0-2,2.1c0,.953.022,2.175-.007,3.4a2.4,2.4,0,0,0,1.546,2.465,1.507,1.507,0,0,1,.315.278Z" transform="translate(23.448 29.911)" fill="#040706"/>
      <path id="Trazado_614015" data-name="Trazado 614015" d="M26.658,20.811c-1.3,0-2.619.017-3.938,0a2.652,2.652,0,0,0-2.453,2.431c0,1.319,0,2.638,0,3.943a2.731,2.731,0,0,1,.507.973c1.114,1.068,2.333.863,3.511.873.851.007,1.7,0,2.553,0a2.528,2.528,0,0,0,1.638-1.887V22.364c-.083-.276-.612-.361-.544-.822-.363-.334-.922-.319-1.275-.731" transform="translate(29.146 29.922)" fill="#040606"/>
      <path id="Trazado_614016" data-name="Trazado 614016" d="M16.312,29.354v.561a2.6,2.6,0,0,0,2.845,2.838c.188,0,.373,0,.561,0,.8,0,1.6-.017,2.4,0a2.075,2.075,0,0,0,2.236-1.365c.032-.078.134-.129.193-.183,0-1.38-.041-2.743.012-4.1a1.945,1.945,0,0,0-1.548-2.294c-.119-.029-.21-.176-.319-.273-1.165,0-2.343.041-3.516-.015a2.525,2.525,0,0,0-2.18.888c-.122.141-.263.266-.3.3a8.975,8.975,0,0,0-.383,3.64" transform="translate(23.448 35.263)" fill="#040706"/>
      <path id="Trazado_614017" data-name="Trazado 614017" d="M21.584,17.116c-.266.266-.5.5-.734.731a1.888,1.888,0,0,0-.58,1.458c.02,1.131-.051,2.265.022,3.392a2.269,2.269,0,0,0,1.375,2.253,2.451,2.451,0,0,0,.936.122c1.417.02,2.833.01,4.25.01a2.544,2.544,0,0,0,1.634-1.89V18.7A3.062,3.062,0,0,0,28.2,18.2a2.784,2.784,0,0,0-2.514-1.339c-.8,0-1.609.037-2.409-.012-.61-.039-1.095.532-1.692.263" transform="translate(29.135 24.234)" fill="#040706"/>
      <path id="Trazado_614018" data-name="Trazado 614018" d="M24.536,23.533V18.31a5.248,5.248,0,0,1-.649-.553,2.779,2.779,0,0,0-2.187-.885c-.756-.01-1.517.059-2.263-.02-.671-.071-1.19.546-1.756.3-.412.375-.758.692-.975.888-.69,1.773-.251,3.46-.407,5.052.268.524.51.99.756,1.468a2.269,2.269,0,0,0,1.756.536c1.368-.024,2.738-.007,4.106-.007a3.106,3.106,0,0,0,1.619-1.553" transform="translate(23.443 24.228)" fill="#040706"/>
      <path id="Trazado_614019" data-name="Trazado 614019" d="M24.855,24.53c.166,0,.293-.039.344.007a6.631,6.631,0,0,1,.485.522h5.537l1.212-1.209V18.437c-.134-.28-.622-.444-.59-.851-1.59-1.012-3.328-.724-5-.658a3.2,3.2,0,0,0-1.809.717,5.468,5.468,0,0,0-.8,2.07c-.01.944-.015,1.887,0,2.831a10.84,10.84,0,0,0,.624,1.985" transform="translate(34.835 24.218)" fill="#050706"/>
      <path id="Trazado_614020" data-name="Trazado 614020" d="M6.183,33.388,6.6,34.4H8.158c.132-1.239,1.751-1.395,2.068-2.6,0-.561-.007-1.122,0-1.68A1.9,1.9,0,0,0,9,28.207c-.558-.249-1.078-.585-1.638-.829a1.549,1.549,0,0,1-.427-.332.648.648,0,0,1-.117-.232c.037-.312.273-.449.59-.627.522.183,1.1.383,1.68.585.322.141.312-.578.69-.207.171-.332.31-.6.468-.917-.161-.285-.346-.583-.5-.895-.2-.395-.614-.1-.87-.3-.417-.363-.48-1-1.151-1.312H6.988c-.395.29-.853.61-.753,1.268A2.809,2.809,0,0,0,4.557,27.5,4.071,4.071,0,0,0,7.3,29.731a1.132,1.132,0,0,1,.914.624.788.788,0,0,1-.385.941H6.641c-.234-.234-.553-.553-.792-.79-.712-.132-.924.373-1.285.663V32.3a3.055,3.055,0,0,0,1.619,1.087" transform="translate(6.54 33.286)" fill="#070605"/>
      <path id="Trazado_614021" data-name="Trazado 614021" d="M39.092,12.724c.022-.278-.173-.283-.366-.283H18.653a2.971,2.971,0,0,0-1.412,1.014V18.2c.215.358.395.663.622,1.046H20.64c.032-.822-.407-1.573-.3-2.424a15.657,15.657,0,0,0,.015-2.392,2.527,2.527,0,0,1,.424-1.7Z" transform="translate(24.796 17.892)" fill="#006db6"/>
      <path id="Trazado_614022" data-name="Trazado 614022" d="M28.773,22.305v-.419a.377.377,0,0,0-.361-.149c-.983.017-1.965.027-2.945.054-.037,0-.068.151-.1.232-.317,3.655-.049,7.315-.141,11.033a3.865,3.865,0,0,0,3.579.115,25.734,25.734,0,0,0,.093-4.257,51.966,51.966,0,0,0-.124-6.608" transform="translate(36.252 31.261)" fill="#f38111"/>
      <path id="Trazado_614023" data-name="Trazado 614023" d="M28.852,22.138V32.873c-.539.01-1.085.024-1.634.029s-1.122,0-1.773,0V21.855c-.28-.022-.283.171-.283.363,0,3.621.007,7.241-.012,10.862a3.217,3.217,0,0,0,.429,1.239H28.4c.439-.18.388-.71.736-.985,0-3.5,0-7.027-.007-10.55,0-.227.2-.6-.276-.646" transform="translate(36.172 31.428)" fill="#e76e00"/>
      <path id="Trazado_614024" data-name="Trazado 614024" d="M24.887,27.728v-2.2a8.785,8.785,0,0,0-1.775-.061c-.607-.015-1.214,0-1.916,0v2.268a3.65,3.65,0,0,0,3.691,0" transform="translate(30.484 36.603)" fill="#326d35"/>
      <rect id="Rectángulo_324902" data-name="Rectángulo 324902" width="3.691" height="1.417" transform="translate(51.681 64.332)" fill="#2d622f"/>
      <path id="Trazado_614025" data-name="Trazado 614025" d="M20.929,24.01v-2.2a8.785,8.785,0,0,0-1.775-.061c-.607-.015-1.214,0-1.916,0V24.01a3.65,3.65,0,0,0,3.691,0" transform="translate(24.792 31.255)" fill="#326d35"/>
      <rect id="Rectángulo_324903" data-name="Rectángulo 324903" width="3.691" height="1.417" transform="translate(42.029 55.266)" fill="#2d622f"/>
      <path id="Trazado_614026" data-name="Trazado 614026" d="M24.887,24.01v-2.2a8.785,8.785,0,0,0-1.775-.061c-.607-.015-1.214,0-1.916,0V24.01a3.65,3.65,0,0,0,3.691,0" transform="translate(30.484 31.255)" fill="#326d35"/>
      <rect id="Rectángulo_324904" data-name="Rectángulo 324904" width="3.691" height="1.417" transform="translate(51.681 55.266)" fill="#2d622f"/>
      <path id="Trazado_614027" data-name="Trazado 614027" d="M20.929,27.728v-2.2a8.785,8.785,0,0,0-1.775-.061c-.607-.015-1.214,0-1.916,0v2.268a3.65,3.65,0,0,0,3.691,0" transform="translate(24.792 36.603)" fill="#326d35"/>
      <rect id="Rectángulo_324905" data-name="Rectángulo 324905" width="3.691" height="1.417" transform="translate(42.029 64.332)" fill="#2d622f"/>
      <path id="Trazado_614028" data-name="Trazado 614028" d="M24.887,20.059v-2.2a8.785,8.785,0,0,0-1.775-.061c-.607-.015-1.214,0-1.916,0v2.268a3.65,3.65,0,0,0,3.691,0" transform="translate(30.484 25.573)" fill="#326d35"/>
      <path id="Trazado_614029" data-name="Trazado 614029" d="M24.887,18.716H21.2v1.636a9.162,9.162,0,0,0,1.775.061c.607.015,1.214,0,1.916,0Z" transform="translate(30.484 26.916)" fill="#2b5e2e"/>
      <path id="Trazado_614030" data-name="Trazado 614030" d="M20.929,20.059v-2.2a8.785,8.785,0,0,0-1.775-.061c-.607-.015-1.214,0-1.916,0v2.268a3.65,3.65,0,0,0,3.691,0" transform="translate(24.792 25.573)" fill="#326d35"/>
      <path id="Trazado_614031" data-name="Trazado 614031" d="M20.929,18.716H17.238v1.636a9.162,9.162,0,0,0,1.775.061c.607.015,1.214,0,1.916,0Z" transform="translate(24.792 26.916)" fill="#2b5e2e"/>
      <path id="Trazado_614032" data-name="Trazado 614032" d="M28.846,17.786H25.155V18.92c.3.414.017.929.346,1.534a4.073,4.073,0,0,0,3.372-.01,6.026,6.026,0,0,0-.027-2.658" transform="translate(36.178 25.579)" fill="#f07f10"/>
      <path id="Trazado_614033" data-name="Trazado 614033" d="M28.846,17.787V20.3H25.538c-.212-.341-.044-.766-.1-1.163a.223.223,0,0,0-.28-.219v2.411c.132.127.268.258.4.388h3.187l.39-.39c0-1.022,0-2.1,0-3.177,0-.193,0-.388-.283-.366" transform="translate(36.178 25.578)" fill="#e06b00"/>
    </g>
  </g>
</svg>
