<svg xmlns="http://www.w3.org/2000/svg" xmlns:xlink="http://www.w3.org/1999/xlink" width="82.11" height="92" viewBox="0 0 82.11 92">
  <defs>
    <clipPath id="clip-path">
      <rect id="Rectángulo_324896" data-name="Rectángulo 324896" width="82.11" height="92" fill="none"/>
    </clipPath>
  </defs>
  <g id="Grupo_876234" data-name="Grupo 876234" transform="translate(0 0)">
    <g id="Grupo_876233" data-name="Grupo 876233" transform="translate(0 0)" clip-path="url(#clip-path)">
      <path id="Trazado_613924" data-name="Trazado 613924" d="M67.676,19.837a17.232,17.232,0,0,1-4.6-2.379c-1.1-.674-2.25-1.262-3.343-1.947-2.685-1.685-5.5-3.172-8.279-4.694-.44-.241-.671-.651-1.067-.921A8.555,8.555,0,0,0,47.5,2.657,9.035,9.035,0,0,0,40.683.007a9.167,9.167,0,0,0-6.336,2.941,8.459,8.459,0,0,0-2.616,6.824,2.842,2.842,0,0,1-1.542,1.294c-2.078,1.095-4.071,2.325-6.069,3.554-.854.524-1.743,1.046-2.62,1.478-2.207,1.086-4.177,2.569-6.4,3.607a2.9,2.9,0,0,1-.623.118,6.664,6.664,0,0,0-3.78-1.454,9.159,9.159,0,0,0-5.825,1.065,9.119,9.119,0,0,0-3.667,3.5c-2.319,4.3-1.211,10.815,3.9,13.1V55.91c-5.418,2.576-6.253,9.247-3.78,13.323a9.451,9.451,0,0,0,13.256,2.9c3.032,1.246,5.735,3.259,8.693,4.8,2.926,1.521,5.69,3.353,8.48,5.022a8.68,8.68,0,0,0,3.008,7.514,8.987,8.987,0,0,0,6.865,2.52,9.2,9.2,0,0,0,6.282-3.061,8.428,8.428,0,0,0,2.491-6.7,2.836,2.836,0,0,1,1.542-1.294c2.078-1.1,4.071-2.325,6.069-3.554.854-.526,1.743-1.046,2.62-1.478,2.207-1.086,4.177-2.57,6.4-3.609a2.953,2.953,0,0,1,.607-.115c2.043,1.667,4.534,1.545,7.017,1.461,3.012-1.1,4.807-2.022,6.481-5.026a10.5,10.5,0,0,0,.463-7.56,8.121,8.121,0,0,0-4.573-5.113V36.091a8.545,8.545,0,0,0,4.6-5.182,11.26,11.26,0,0,0,.308-5.405,7.622,7.622,0,0,0-1.885-3.854,9.345,9.345,0,0,0-4.506-2.944,11.049,11.049,0,0,0-6.905.369,4.673,4.673,0,0,0-.96.762" transform="translate(0 0.001)" fill="#040506"/>
      <path id="Trazado_613925" data-name="Trazado 613925" d="M9.122,42.073c.366-.017.439.365.7.505v7.648c3.665,1.936,5.654,4.949,5.394,9.37l16.9,9.785,2.768-1.416c6-.182,4.474-.3,7.958,1.417l16.887-9.769a9.122,9.122,0,0,1,5.34-9.3V30.959a9.389,9.389,0,0,1-4.164-3.773,8.259,8.259,0,0,1-1.124-5.494L42.915,11.925c-1.306.351-2.38,1.627-3.982,1.413-1.4,1.024-2.78-.309-4.058,0-.928-.636-1.947-.847-2.692-1.481L15.22,21.685c.331,4.262-1.695,7.254-5.349,9.322v7.662c-.311.166-.383.548-.749.53-1.611.956-1.611,1.918,0,2.874" transform="translate(3.579 5.364)" fill="#a3314f"/>
      <path id="Trazado_613926" data-name="Trazado 613926" d="M10.075,14.687c-1.564-.392-1.552-.353-3.859.344a5.99,5.99,0,0,0-3.124,2.421,6.516,6.516,0,0,0-1.237,3.435A6.887,6.887,0,0,0,6.6,27.638a8.769,8.769,0,0,0,3.082.321c.253-.007.5-.222.748-.341a3.733,3.733,0,0,0,.982-2.055,26.393,26.393,0,0,0-.1-9.008,2.766,2.766,0,0,0-1.24-1.868" transform="translate(0.83 6.53)" fill="#858fc7"/>
      <path id="Trazado_613927" data-name="Trazado 613927" d="M53.938,14.738c-.179,0-.359.009-.537,0-.566-.033-1.07-.61-1.635-.341-1.1.526-2.347.585-3.39,1.362a8.313,8.313,0,0,0-2.762,4.226c-.6,1.672.055,3.047.6,4.345A6.184,6.184,0,0,0,50.284,27.7a4.742,4.742,0,0,0,3.654-.028c1.6-1.561,1.287-3.677,1.4-5.564.155-2.518.216-5.135-1.4-7.367" transform="translate(20.521 6.479)" fill="#858fc7"/>
      <path id="Trazado_613928" data-name="Trazado 613928" d="M10.439,39.96a4.873,4.873,0,0,0-3.825,0,6.819,6.819,0,0,0-4.765,6.736c.27,2.913,2.043,5.671,5.485,6.176.516.076.857.536,1.468.42.455-.086.767-.572,1.278-.4a2.982,2.982,0,0,0,1.314-2.213,25.912,25.912,0,0,0-.048-8.825,3.637,3.637,0,0,0-.908-1.892" transform="translate(0.826 17.892)" fill="#858fc7"/>
      <path id="Trazado_613929" data-name="Trazado 613929" d="M53.925,39.972c-1.718-.845-3.366-.333-4.888.45a7.192,7.192,0,0,0-2.82,2.71c-.256.418.09,1-.468,1.247-.7,2.478-.325,3.761,1.022,5.841A5.606,5.606,0,0,0,51,52.9c.976.866,1.952-.119,2.928,0,1.506-2.257,1.589-4.846,1.406-7.375-.135-1.886.19-4-1.406-5.556" transform="translate(20.534 17.881)" fill="#858fc7"/>
      <path id="Trazado_613930" data-name="Trazado 613930" d="M32.227,52.575a4.781,4.781,0,0,0-3.8,0,7.316,7.316,0,0,0-3.986,3.265c-.514.8-.428,1.709-.784,2.536-.37.863.1,1.81.367,2.669a7.1,7.1,0,0,0,4.322,4.37,2.318,2.318,0,0,0,.852.087c.89.019,1.783.007,2.675.007A3.254,3.254,0,0,0,33.3,62.959a32.533,32.533,0,0,0-.02-7.98,4.077,4.077,0,0,0-1.056-2.4" transform="translate(10.635 23.596)" fill="#858fc7"/>
      <path id="Trazado_613931" data-name="Trazado 613931" d="M31.817,2.015A10.356,10.356,0,0,1,30.214,2c-1.738-.276-3.07.658-4.357,1.535a5.616,5.616,0,0,0-1.933,3.1,6.753,6.753,0,0,0,4.44,8.327,8.877,8.877,0,0,0,3.069.319c.251-.006.5-.222.744-.341a3.646,3.646,0,0,0,.943-1.884,28.256,28.256,0,0,0,.06-8.849,2.989,2.989,0,0,0-1.361-2.2" transform="translate(10.686 0.884)" fill="#858fc7"/>
      <path id="Trazado_613932" data-name="Trazado 613932" d="M10.181,35.9c.036-.479-.405-.279-.661-.466V33.356c.038-.151.725.247.661-.333H8.924l-.63-.635c0-2.069.007-4.265-.016-6.461,0-.128-.237-.254-.4-.414H5.574V43.346H7.94c.1-.1.228-.227.417-.415V36.468l.568-.571h1.256" transform="translate(2.521 11.54)" fill="#b0dcef"/>
      <path id="Trazado_613933" data-name="Trazado 613933" d="M51.882,43.4V25.486c-.945.152-1.946-.343-2.817.462v17c.132.131.258.257.449.447Z" transform="translate(22.19 11.52)" fill="#aed9ec"/>
      <path id="Trazado_613934" data-name="Trazado 613934" d="M34.714,57.884c2.9-1.545,5.565-3.257,8.362-4.759,2.151-1.157,4.236-2.473,6.335-3.744a3.566,3.566,0,0,1,.654-.232c-.168-.961-.977-1.532-1.308-2.428l-15.381,8.93a7.544,7.544,0,0,1,1.339,2.234" transform="translate(15.094 21.13)" fill="#b3dff2"/>
      <path id="Trazado_613935" data-name="Trazado 613935" d="M48.738,20.084c.335-.868,1.188-1.4,1.308-2.341-2.344-1.275-4.633-2.643-6.908-4.036-.895-.549-1.857-.992-2.761-1.547-1.841-1.128-3.753-2.139-5.655-3.211a5.514,5.514,0,0,1-1.384,2.18c5.176,3.011,10.212,5.94,15.4,8.955" transform="translate(15.077 4.048)" fill="#b3dff2"/>
      <path id="Trazado_613936" data-name="Trazado 613936" d="M27.058,57.868a5.472,5.472,0,0,1,1.383-2.193L13.087,46.751a11.675,11.675,0,0,0-1.419,2.274c2.39,1.349,4.747,2.6,6.98,4.072a27.21,27.21,0,0,0,2.762,1.535c1.937.976,3.665,2.295,5.648,3.236" transform="translate(5.277 21.144)" fill="#b3dff3"/>
      <path id="Trazado_613937" data-name="Trazado 613937" d="M27.039,8.944c-2.829,1.471-5.505,3.154-8.259,4.7-2.37,1.329-4.7,2.748-7.067,4.113.115.934.973,1.462,1.307,2.329,5.095-2.961,10.179-5.915,15.4-8.949a5.445,5.445,0,0,1-1.378-2.191" transform="translate(5.297 4.045)" fill="#b3dff3"/>
      <path id="Trazado_613938" data-name="Trazado 613938" d="M29.626,52.464c-.184.826.608,1.5.362,2.337.561.375.343.951.349,1.451.02,1.717-.007,3.433.013,5.15a8.238,8.238,0,0,1-1.082,3.994A7.611,7.611,0,0,0,33.9,62.013c.038-1.192,1-2.183.749-3.439a8.435,8.435,0,0,0-1.163-3.435,5.894,5.894,0,0,0-2.768-2.3c-.366-.121-.63-.559-1.1-.373" transform="translate(13.236 23.707)" fill="#6a6fb1"/>
      <path id="Trazado_613939" data-name="Trazado 613939" d="M29.267,2a8.361,8.361,0,0,1,1.08,4.171c-.017,1.48.032,2.961-.02,4.44-.022.617.277,1.284-.212,1.86-.382.449.161,1.169-.469,1.6-.138.094-.02.562-.02.858,2.194-.4,4.578-2.752,4.668-5.009A2.491,2.491,0,0,0,34.6,7.587c-.447-1.171-.659-2.523-1.595-3.433A7.764,7.764,0,0,0,29.267,2" transform="translate(13.236 0.903)" fill="#6a6fb1"/>
      <path id="Trazado_613940" data-name="Trazado 613940" d="M7.869,39.848c-.152.877.63,1.621.359,2.515.632.892.308,1.908.349,2.871a24.933,24.933,0,0,1-.015,3.548,8.691,8.691,0,0,1-1.051,4c3.06-.81,4.351-2.231,5.058-5.356.123-.546.52-1.108.3-1.634-.524-1.271-.627-2.732-1.612-3.793a5.321,5.321,0,0,0-2.129-1.738c-.418-.131-.751-.581-1.262-.41" transform="translate(3.396 18.004)" fill="#6a6fb1"/>
      <path id="Trazado_613941" data-name="Trazado 613941" d="M51.282,39.836a14.813,14.813,0,0,1,.741,4.73c-.044.665.546,1.293.33,2-.545,1.791-.174,3.757-1.057,5.487-.1.19-.013.472-.013.712a17.906,17.906,0,0,0,2.074-1.047,6.649,6.649,0,0,0-2.074-11.884" transform="translate(23.177 18.016)" fill="#6a6fb1"/>
      <path id="Trazado_613942" data-name="Trazado 613942" d="M7.509,14.609a8.19,8.19,0,0,1,1.047,4c.123,1.708.016,3.432.036,5.148a7.991,7.991,0,0,1-.626,2.764,5.611,5.611,0,0,0-.1,1.024,6.03,6.03,0,0,0,4.64-5.015c.128-.6.588-1.149.383-1.808a17.084,17.084,0,0,0-1.448-3.683,2.939,2.939,0,0,0-1.078-1.141,9.281,9.281,0,0,0-2.857-1.284" transform="translate(3.396 6.607)" fill="#6a6fb1"/>
      <path id="Trazado_613943" data-name="Trazado 613943" d="M51.274,14.609c-.1,1.006.569,1.814.716,2.755.142.911-.2,1.84.26,2.768a2.105,2.105,0,0,1,.052,1.721,3.828,3.828,0,0,0-.292,2.215c0,1.22-.6,2.293-.736,3.472a6.6,6.6,0,0,0,4.688-4.464,5.747,5.747,0,0,0-.081-4.328,4.875,4.875,0,0,0-2.7-3.133c-.408-.765-1.329-.558-1.9-1.006" transform="translate(23.184 6.607)" fill="#6a6fb1"/>
      <path id="Trazado_613944" data-name="Trazado 613944" d="M14.006,51.688c1.6,1.256,3.469,2.039,5.157,3.137.974.633,2.058,1.1,3.064,1.686,2.119,1.243,4.184,2.586,6.339,3.761,1.766.963,3.485,1.994,5.195,3.048a2.149,2.149,0,0,0,2.393.019c1.767-1.062,3.609-2,5.336-3.127,1.082-.7,2.254-1.227,3.34-1.91,2.13-1.336,4.316-2.586,6.487-3.848,1.582-.918,3.179-1.833,4.762-2.774.667-1.387.46-2.918.463-4.424q.013-8.256,0-16.509a7.851,7.851,0,0,0-.517-3.956c-1.7-1.027-3.419-2.193-5.251-3.135s-3.554-2.085-5.357-3.08c-1.905-1.05-3.751-2.2-5.639-3.285-1.3-.745-2.643-1.42-3.941-2.171a1.718,1.718,0,0,0-1.737.016,21.748,21.748,0,0,0-2.444,1.457c-2.032,1.168-4.055,2.36-6.1,3.483-1.852,1.015-3.657,2.119-5.5,3.147A39.288,39.288,0,0,0,14.3,26.688c-.074.061-.225.028-.338.038a8.561,8.561,0,0,0-.5,4.1c-.007,5.324-.028,10.648.013,15.972.013,1.625-.362,3.292.532,4.891" transform="translate(6.064 6.735)" fill="#050506"/>
      <path id="Trazado_613945" data-name="Trazado 613945" d="M32.582,55.07V35.3c-.613-.691-1.727-.752-2.345-1.547-2.967-1.294-5.593-3.2-8.442-4.714a61.778,61.778,0,0,1-5.748-3.448c-.173-.116-.322-.086-.571-.083V45.192L32.582,55.07" transform="translate(6.999 11.532)" fill="#f07b45"/>
      <path id="Trazado_613946" data-name="Trazado 613946" d="M42.172,27.223c-.221.048-.434-.049-.672.116-1.75,1.208-3.68,2.114-5.465,3.278a29.765,29.765,0,0,1-3.488,1.962c-1.124.532-1.981,1.477-3.234,1.7V54.254c1.152-.636,2.212-1.205,3.255-1.8,1.065-.611,2.109-1.259,3.169-1.879q3.394-1.982,6.8-3.953a2.023,2.023,0,0,0-.007-2.584c-.816-.476-1.493-.029-2.165.354-1.764,1-3.525,2.017-5.292,3.019a2.526,2.526,0,0,1-2.215.555c-.927-.829-.447-1.984-.622-3-.545-3.167.672-5.17,3.668-6.42a39.551,39.551,0,0,0,5.59-3.205c.552-.347,1.172-.626,1.412-1.316a23.1,23.1,0,0,0,.135-5.492c-.022-.545-.023-1.24-.863-1.306" transform="translate(13.256 12.312)" fill="#eb6440"/>
      <path id="Trazado_613947" data-name="Trazado 613947" d="M16.52,24.984c1.654.993,3.064,1.889,4.522,2.7,1.118.622,2.223,1.269,3.34,1.889,2.048,1.136,4.059,2.325,6.052,3.555.851.526,1.9.722,2.588,1.531a1.783,1.783,0,0,0,1.606-.41,14.578,14.578,0,0,1,2.742-1.6c.988-.585,1.992-1.2,3.061-1.728-.019-.546-.423-.672-.838-.918-2.97-1.764-6.012-3.4-8.962-5.209-1.936-1.184-3.97-2.234-5.93-3.4a2.061,2.061,0,0,0-2.515.131c-1.1.889-2.443,1.354-3.6,2.135-.632.427-1.284.823-2.065,1.322" transform="translate(7.471 9.512)" fill="#f79a58"/>
      <path id="Trazado_613948" data-name="Trazado 613948" d="M23.575,21.141,40.2,30.773c2.52-.986,4.7-2.629,7.087-3.847.057-.834-.989-.4-1.056-1.031a17.27,17.27,0,0,1-3.047-1.7c-2.09-1.291-4.275-2.415-6.367-3.7A61.3,61.3,0,0,0,31.3,17.38a1.608,1.608,0,0,0-1.73-.032c-1.343.784-2.711,1.526-4.068,2.287a7.3,7.3,0,0,1-1.163.649.927.927,0,0,0-.768.857" transform="translate(10.662 7.738)" fill="#f07b45"/>
      <path id="Trazado_613949" data-name="Trazado 613949" d="M38.167,44.941c.328-.025.359.193.359.439v2.075c1.306-.738,2.611-1.477,3.891-2.2V25.373c-1.438,1.083-3.077,1.484-4.249,2.687.484,0,.353.372.354.632.009,2.183,0,4.367,0,6.551,1.168,2,.837,4.2.97,6.362.087,1.41-1.3,2.068-1.329,3.336" transform="translate(17.261 11.475)" fill="#e44938"/>
      <path id="Trazado_613950" data-name="Trazado 613950" d="M41.408,41.875a.709.709,0,0,1,.507-.655c1.105-.324,1.258-1.2,1.278-2.116.038-1.772.01-3.545.01-5.26-.457-.617-.627-1.426-1.436-1.667-.575-.132-1,.269-1.385.527-1.946,1.306-4.043,2.345-6.047,3.542A11.441,11.441,0,0,0,31,38.473v7.18l.848.848a3.219,3.219,0,0,0,2.694-.874c1.162-.791,2.473-1.288,3.619-2.1.813-.575,1.731-1,2.573-1.542.24-.154.452-.064.672-.112" transform="translate(14.02 14.541)" fill="#070506"/>
      <path id="Trazado_613951" data-name="Trazado 613951" d="M39.388,37.722v-2.8c-2.289.966-4.219,2.44-6.37,3.583V41.48c2.174-1.387,4.418-2.354,6.37-3.758" transform="translate(14.933 15.793)" fill="#fcfbfc"/>
    </g>
  </g>
</svg>
