<svg xmlns="http://www.w3.org/2000/svg" xmlns:xlink="http://www.w3.org/1999/xlink" width="68.452" height="68.5" viewBox="0 0 68.452 68.5">
  <defs>
    <clipPath id="clip-path">
      <rect id="Rectángulo_325250" data-name="Rectángulo 325250" width="68.452" height="68.5" fill="none"/>
    </clipPath>
  </defs>
  <g id="Grupo_876287" data-name="Grupo 876287" transform="translate(0 0)">
    <g id="Grupo_876286" data-name="Grupo 876286" transform="translate(0 0)" clip-path="url(#clip-path)">
      <path id="Trazado_614398" data-name="Trazado 614398" d="M34.48,53.629A10.563,10.563,0,0,0,35.5,57.913,16.865,16.865,0,0,0,47.292,67.951a15.894,15.894,0,0,0,5.613.463,17.7,17.7,0,0,0,7.465-2.584,19.085,19.085,0,0,0,4.244-3.79,14.9,14.9,0,0,0,2.9-5.342,17.381,17.381,0,0,0,.827-7.2,20.81,20.81,0,0,0-1.151-4.507,15.811,15.811,0,0,0-1.931-3.479,17.508,17.508,0,0,0-7.47-6,20.084,20.084,0,0,0-3.706-1.036,14.4,14.4,0,0,0-3.168-.232,17.126,17.126,0,0,0-15.4,10.545c-.536,1.352-1.248,2.7-1.08,4.251-.106-.2-.022.1-.157-.031-.031-.031-.082-.071-.082-.108,0-6.367,0-12.735,0-19.137a3.1,3.1,0,0,1,1.246-.088q13.672-.01,27.344-.011a8.894,8.894,0,0,0,3.845-.388c.388-.392.884-.9,1.338-1.365a7.85,7.85,0,0,0,.4-3.594q.013-9.554,0-19.111a7.532,7.532,0,0,0-.4-3.431C66.3,0,66.3,0,63.773,0H9.372A10.2,10.2,0,0,0,8.237.721,3.935,3.935,0,0,0,6.821,4.006c.071,6.226.031,12.453.031,18.816-1.127,0-2.251.053-3.369-.015a2.655,2.655,0,0,0-2.306.988,3.553,3.553,0,0,1-.3.3A2.5,2.5,0,0,0,0,26.166c.044,1.852.013,3.706.013,5.56V65.958a7.129,7.129,0,0,0,1.726,2.1,7.506,7.506,0,0,0,3.433.4q11.893.007,23.783,0a7.5,7.5,0,0,0,3.552-.45c.342-.344.811-.814,1.281-1.285a6.332,6.332,0,0,0,.4-3.113q0-4.991,0-9.983c.278-.421.066-.893.141-1.29.077.4-.134.869.146,1.29" transform="translate(0.001 -0.001)" fill="#040506"/>
      <path id="Trazado_614399" data-name="Trazado 614399" d="M15.8,25.079V23.7c-.375.434-.245.922-.287,1.382Z" transform="translate(18.685 28.549)" fill="#151516"/>
      <path id="Trazado_614400" data-name="Trazado 614400" d="M55.417,26.067a8.038,8.038,0,0,1,1.047-2.575,20.674,20.674,0,0,1,2.015-2.013,5.177,5.177,0,0,1,2.564-.966V6.732c-.747-.39-1.775-.39-2.487-1a21.034,21.034,0,0,1-2.114-2.114,5.8,5.8,0,0,1-.975-2.564H9.813a9.142,9.142,0,0,1-.994,2.5A20.129,20.129,0,0,1,6.711,5.675a5.955,5.955,0,0,1-2.555.979V21.5H26.237a9.676,9.676,0,0,1-3.876-7.172,9.779,9.779,0,0,1,1.682-6.566,8.275,8.275,0,0,1,2.114-2.392c.95-.628,2.028-1.063,3.012-1.647.448-.267,1.049.093,1.4-.423.8.216,1.543-.43,2.3-.254s1.537.143,2.262.37a15.657,15.657,0,0,1,2.7,1.045A11.326,11.326,0,0,1,40.731,7.04a7.49,7.49,0,0,1,1.2,1.777,6.728,6.728,0,0,1,.869,2.469c.04.933.573,1.806.329,2.727a17.034,17.034,0,0,1-.93,3.746,10.715,10.715,0,0,1-5.545,5.316,11.254,11.254,0,0,1-7.891.128,5.689,5.689,0,0,1,.441,2.864Z" transform="translate(5.007 1.267)" fill="#158687"/>
      <path id="Trazado_614401" data-name="Trazado 614401" d="M26.951,11.386H1.726c-.194.22-.41.47-.679.778V51.8c.218.139.536.337,1.058.666H26.951c.915-.675.807-1.493.335-2.361A4.55,4.55,0,0,0,24.8,49.74a5.4,5.4,0,0,1-2.606-.406,42.086,42.086,0,0,1-.09-8.4c.84-.741,1.678-.525,2.461-.584.928-.068,1.9.2,2.758-.395a2.31,2.31,0,0,0,.064-2.289c-.661-.631-1.5-.423-2.282-.47a6.368,6.368,0,0,1-2.862-.373,7.239,7.239,0,0,1-.04-4.017c.919-.622,1.839-.39,2.714-.452.829-.06,1.711.176,2.445-.434a6.329,6.329,0,0,0,.033-4.149c-.564-.485-.994,0-1.371.269a6.67,6.67,0,0,1-4.158,1.184c-4.081-.037-8.162,0-12.243-.018-3.779-.018-5.871-2.139-5.887-5.937,0-1.329-.037-2.661.013-3.991a5.169,5.169,0,0,1,5.062-5.148c4.7-.1,9.395-.049,14.091-.02a5.4,5.4,0,0,1,2.913,1.025c.452.291.871.8,1.526.474.4-1.457.831-2.919-.392-4.227" transform="translate(1.261 13.717)" fill="#e96046"/>
      <path id="Trazado_614402" data-name="Trazado 614402" d="M34.539,20.669a3.847,3.847,0,0,0-2.324-1.393,8.843,8.843,0,0,0-4.579-.571,10.559,10.559,0,0,0-5.6,2.617,10.279,10.279,0,0,0-2.919,4.637,8.114,8.114,0,0,0-.289,4.648,11.169,11.169,0,0,0,.891,2.917,7.205,7.205,0,0,0,2.571,3.12c1.874,1.224,3.693.761,5.492-.187a1.556,1.556,0,0,0,0-1.731c-.362-.769-2.006-.068-1.768-1.614,1.226-.741,2.745.082,3.977-.686a2.231,2.231,0,0,0,.174-2.2c-.655-.653-1.4-.516-2.095-.582-1.53-.148-2.11-.721-2.209-2.242-.1-1.557-.123-3.08,1.6-3.907.463-.223.547-.745.655-1.213.132-.584.4-.975,1.109-.688.461.443.276,1.191.728,1.649.423.443,1.085.3,1.574.644a.719.719,0,0,1-.064,1.032c-1.182.445-2.54-.134-3.722.481a2.163,2.163,0,0,0-.165,2.333,3.062,3.062,0,0,0,2,.5c1.6.134,2.136.723,2.258,2.344a20.409,20.409,0,0,0,.026,3.115c.7.392,1.052-.174,1.371-.58A11.671,11.671,0,0,0,35.5,22.029a2.34,2.34,0,0,0-.963-1.36" transform="translate(22.442 22.405)" fill="#ffd53d"/>
      <path id="Trazado_614403" data-name="Trazado 614403" d="M12.8,11.386a2.079,2.079,0,0,1,.3,1.016c-.051,1.087-.018,2.174-.018,3.263a.686.686,0,0,0-.062.8c1.325,2.655.635,5.483.725,8.244.033,1.041-1.054,1.823-.664,2.941v4.277a5.23,5.23,0,0,1,0,5.706v2.282a4.859,4.859,0,0,1,.732,2.948c-.053,1.455-.053,2.917,0,4.374a4.859,4.859,0,0,1-.732,2.948,8.678,8.678,0,0,0,.013,1.268,1.681,1.681,0,0,1-.3,1.014h3c.223-.231.454-.47.7-.723V12.109c-.245-.254-.476-.492-.7-.723Z" transform="translate(15.416 13.717)" fill="#e23a21"/>
      <path id="Trazado_614404" data-name="Trazado 614404" d="M25.7,35.239c-.86.19-1.711.419-2.58.556-.5.079-1.045-.068-1.539.037-.518.11-.814-.445-1.294-.309a1.884,1.884,0,0,0,1.087.959A18.745,18.745,0,0,0,23.9,37.611a11.321,11.321,0,0,0,2.218.441c.754.033,1.594.348,2.3-.247a7.316,7.316,0,0,0,4.41-1.722,10.008,10.008,0,0,0,3.916-5.556,7.174,7.174,0,0,0,.32-3.7,14.22,14.22,0,0,0-.553-2.474A14.213,14.213,0,0,0,35.339,22a17.639,17.639,0,0,0-2.383-2.438c-.073-.071-.276-.009-.417-.009a7.14,7.14,0,0,1,.855,2.774,12.4,12.4,0,0,1,.3,2.015,12.606,12.606,0,0,1-1.768,6.092,5.2,5.2,0,0,1-1.951,2.242c-.646-.192-.961.324-1.376.635-.247.309-.606.514-.8.866s-.112.831-.434,1.089c-.593.322-1.122,0-1.658-.024" transform="translate(24.444 23.522)" fill="#ffc000"/>
      <path id="Trazado_614405" data-name="Trazado 614405" d="M25.692,4.524a6.186,6.186,0,0,0-2.8-1.257,5.768,5.768,0,0,0-3.067.115c-2.291.586-3.069.97-4.467,2.533A8.552,8.552,0,0,0,13.7,9.2a6.475,6.475,0,0,0-.249,2.3,6.366,6.366,0,0,0,1.415,3.865,2.811,2.811,0,0,0,3.113.445,2.353,2.353,0,0,1,2.112-.9,4.2,4.2,0,0,0,2.469-.32,2.159,2.159,0,0,0,.1-2.3c-.6-.575-1.347-.437-2.039-.507-1.515-.15-2.079-.734-2.187-2.262-.183-2.626.8-4.1,3.239-4.776A4.255,4.255,0,0,0,24.1,5.961c.256.481.24.785-.044,1.089-1.175.487-2.542-.141-3.748.531a2.139,2.139,0,0,0-.022,2.476c1.345.474,2.976.174,4.255,1.12,1.521-.743,1.475-2.291,1.748-3.614a2.956,2.956,0,0,0-.6-3.04" transform="translate(16.192 3.748)" fill="#ffd53d"/>
      <path id="Trazado_614406" data-name="Trazado 614406" d="M17.221,14.891h-.708a8.13,8.13,0,0,0-1.27.013c-.45.073-.714-.434-1.155-.3a5.289,5.289,0,0,0,2.533,2.558,7.944,7.944,0,0,0,4.928,1.151,11.91,11.91,0,0,0,4.427-2.037,7.681,7.681,0,0,0,2.242-3.492,5.219,5.219,0,0,0,.11-4.136c.06-1.2-.765-2.07-1.23-3.047a7.408,7.408,0,0,0-1.77-1.826c-.075-.073-.273-.011-.417-.011-.137.4.324.622.3,1.014a14.4,14.4,0,0,1-.029,1.693,7.471,7.471,0,0,1-1.407,3.854,6.34,6.34,0,0,0-.1,2.377c-.051,2.053-1.1,3.393-3.338,4.019-.646-1.2-2.267-.818-3.115-1.832" transform="translate(16.973 4.506)" fill="#eeb000"/>
      <path id="Trazado_614407" data-name="Trazado 614407" d="M21.635,31.451c.17-.71.977-1.091.924-1.929-.187-.732-1-.825-1.46-1.31a6.21,6.21,0,0,1-1.118-1.453c-.516-.311-.825.1-1.2.194-.4.1-.454.761-1.091.512a13.107,13.107,0,0,0,3.942,3.986" transform="translate(21.316 32.101)" fill="#b8b7bd"/>
      <path id="Trazado_614408" data-name="Trazado 614408" d="M26.628,19.865a8.211,8.211,0,0,1,2.659,2.644c.986.115,1.4-.741,2.128-.935A13.178,13.178,0,0,0,27.6,17.768c-.247.648-1.076,1.111-.972,2.1" transform="translate(32.07 21.406)" fill="#b8b7bd"/>
      <path id="Trazado_614409" data-name="Trazado 614409" d="M23.8,31.989c.523-.207.97-.516,1.473-.351s.827-.379,1.3-.3a17.643,17.643,0,0,0,2.084-.783.4.4,0,0,0,.157-.518,5.388,5.388,0,0,1-.959-1.6c-1.226.769-2.683.785-4.057,1.305Z" transform="translate(28.674 34.262)" fill="#b8b8bd"/>
      <path id="Trazado_614410" data-name="Trazado 614410" d="M31.4,27.566c-.761-.2-1.182-1.069-2.132-.886a6.859,6.859,0,0,1-2.6,2.573c-.276,1.019.736,1.426.873,2.218a13.467,13.467,0,0,0,3.854-3.9" transform="translate(32.077 32.112)" fill="#ffd23c"/>
      <path id="Trazado_614411" data-name="Trazado 614411" d="M16.746,25.553h2.079c.494-1.349.5-2.82,1.29-4.035-.591-.4-1.279-.542-1.616-1.078a.644.644,0,0,0-.692.5c-.057.818-.728,1.431-.71,2.291,0,.181-.154.5-.163.763-.015.5.1,1.021-.476,1.407.1.053.192.1.289.154" transform="translate(19.827 24.625)" fill="#b8b8bd"/>
      <path id="Trazado_614412" data-name="Trazado 614412" d="M25.588,16.578c-1.784.368-3.609.459-5.247,1.649a4.743,4.743,0,0,1,1.184,1.8c1.23-.769,2.685-.787,4.063-1.31Z" transform="translate(24.506 19.972)" fill="#b8b8bd"/>
      <path id="Trazado_614413" data-name="Trazado 614413" d="M32.216,23.829h-2.5c-.529,1.241-.5,2.725-1.323,4.048.593.364,1.3.54,1.689,1.078.384-.132.6-.309.653-.593a19.531,19.531,0,0,0,.714-2.271c.009-.137.148-.309.15-.5,0-.58-.134-1.182.613-1.762" transform="translate(34.212 28.708)" fill="#b8b8bd"/>
      <path id="Trazado_614414" data-name="Trazado 614414" d="M25.531,32.157v-2.4c-1.367-.452-2.86-.373-4.015-1.345-.415.668-.54,1.363-1.113,1.693.117.459.3.657.683.714.743.108,1.343.67,2.141.683.154,0,.4.165.628.163a2.056,2.056,0,0,1,1.676.492" transform="translate(24.581 34.228)" fill="#ffd33c"/>
      <path id="Trazado_614415" data-name="Trazado 614415" d="M22.6,19.988c.128-1.043-.8-1.422-.917-2.308a14.555,14.555,0,0,1-2.13,1.845c-.677.644-1.005,1.559-1.9,2.161.95.042,1.367,1,2.289.963A7.152,7.152,0,0,1,22.6,19.988" transform="translate(21.261 21.3)" fill="#ffd33c"/>
      <path id="Trazado_614416" data-name="Trazado 614416" d="M23.789,16.764v2.1c1.363.43,2.835.412,4.015,1.3.417-.611.553-1.3,1.091-1.638a.643.643,0,0,0-.5-.692c-.818-.06-1.429-.728-2.286-.712-.181,0-.5-.154-.763-.163-.5-.015-1.019.1-1.4-.476Z" transform="translate(28.66 19.848)" fill="#ffd33c"/>
      <path id="Trazado_614417" data-name="Trazado 614417" d="M30.272,20.294a3.42,3.42,0,0,1-1.889,1.314c.84,1.285.842,2.756,1.336,4.114H31.84a16.383,16.383,0,0,0-1.568-5.428" transform="translate(34.195 24.449)" fill="#ffd33c"/>
      <path id="Trazado_614418" data-name="Trazado 614418" d="M18.747,23.828H16.56a14.571,14.571,0,0,0,1.612,5.3A4.736,4.736,0,0,1,20,27.9a13.113,13.113,0,0,1-1.255-4.072" transform="translate(19.951 28.707)" fill="#ffd33c"/>
      <path id="Trazado_614419" data-name="Trazado 614419" d="M31.678,13.434V11.02c-1.57.448-2.244.7-3.144,3.047.853.082,1.673.018,2.469.042.251-.249.483-.483.675-.675" transform="translate(34.377 13.276)" fill="#b8b8be"/>
      <path id="Trazado_614420" data-name="Trazado 614420" d="M7.241,1.063H4.735c-.1.148-.289.417-.567.814v2.26A3.937,3.937,0,0,0,7.241,1.063" transform="translate(5.022 1.28)" fill="#b8b8be"/>
      <path id="Trazado_614421" data-name="Trazado 614421" d="M28.553,1.057a4.091,4.091,0,0,0,3.124,3.135c.04-.814.009-1.6.022-2.485-.227-.181-.514-.408-.816-.65Z" transform="translate(34.4 1.273)" fill="#b8b8be"/>
      <path id="Trazado_614422" data-name="Trazado 614422" d="M14.3,9.237a4.626,4.626,0,0,0-4.555-4.59A4.721,4.721,0,0,0,5.163,9.233a4.721,4.721,0,0,0,4.579,4.59A4.622,4.622,0,0,0,14.3,9.237" transform="translate(6.22 5.598)" fill="#040506"/>
      <path id="Trazado_614423" data-name="Trazado 614423" d="M29.388,13.8a4.622,4.622,0,0,0,4.575-4.571,4.582,4.582,0,1,0-9.163.013A4.624,4.624,0,0,0,29.388,13.8" transform="translate(29.878 5.598)" fill="#040506"/>
      <path id="Trazado_614424" data-name="Trazado 614424" d="M26.013,26.4a.856.856,0,0,1,.187-.637,4.085,4.085,0,0,0,.955-2.725c-.009-1.7-.013-3.409,0-5.113a4.208,4.208,0,0,0-1.047-2.974c-.159-.176-.057-.357-.095-.531-.545-.4-1.087-.809-1.636-1.208A5.776,5.776,0,0,0,22,12.428c-4.886,0-9.772-.035-14.657.018a5.08,5.08,0,0,0-4.119,2.24,5.713,5.713,0,0,0-1.153,3.805c.068,1.468.015,2.943.015,4.416a5.471,5.471,0,0,0,2.425,4.4,5.279,5.279,0,0,0,3.4,1.1c4.46-.024,8.918-.051,13.376.011a6.088,6.088,0,0,0,4.284-1.713c.132-.117.2-.34.441-.3" transform="translate(2.486 14.957)" fill="#040506"/>
      <path id="Trazado_614425" data-name="Trazado 614425" d="M16.031,34.6c.6.13.761-.443,1.131-.7v-8.87c-.37-.258-.534-.831-1.131-.7h-5c-.187.229-.4.483-.679.822V33.92l.844.683Z" transform="translate(12.468 29.293)" fill="#040506"/>
      <path id="Trazado_614426" data-name="Trazado 614426" d="M6.21,31.208c.1.106.247.194.276.315.368,1.451,1.5,1.755,2.758,1.823.849.046,1.7.011,2.553.009.09,0,.183-.013.273-.02.335-.4.9-.379,1.358-.778.194-.375.434-.847.734-1.431V27.586c-.238-.461-.478-.93-.752-1.46-.423-.216-.893-.459-1.473-.756-.862,0-1.854.037-2.842-.018a2.689,2.689,0,0,0-1.292.32A2.665,2.665,0,0,0,6.212,28.23c-.011.994,0,1.989,0,2.979" transform="translate(7.477 30.54)" fill="#050506"/>
      <path id="Trazado_614427" data-name="Trazado 614427" d="M2.9,21.447c-.39.465-.386,1.019-.811,1.4,0,.668.053,1.378-.011,2.077A4.322,4.322,0,0,0,2.9,27.955c.392.2.862.443,1.433.736.822,0,1.773-.066,2.71.02a3.306,3.306,0,0,0,2.009-.635,2.475,2.475,0,0,0,.988-1.969c.1-1.08.024-2.176.024-3.272-.194-.141-.22-.37-.317-.571a2.715,2.715,0,0,0-2.58-1.557c-.946-.018-1.892,0-2.82,0-.483.249-.95.489-1.446.743" transform="translate(2.48 24.937)" fill="#050506"/>
      <path id="Trazado_614428" data-name="Trazado 614428" d="M2.818,32.548c.463.39,1.019.388,1.393.811.668,0,1.374-.042,2.075.011a4.013,4.013,0,0,0,3.082-.924c.15-.291.39-.763.683-1.334,0-.825-.064-1.775.02-2.714a3.313,3.313,0,0,0-.635-2.011,2.481,2.481,0,0,0-1.964-.99c-1.08-.1-2.174-.024-3.267-.024-.141.194-.37.223-.569.32a2.717,2.717,0,0,0-1.554,2.582c-.02.946,0,1.894,0,2.824l.741,1.449" transform="translate(2.496 30.537)" fill="#050506"/>
      <path id="Trazado_614429" data-name="Trazado 614429" d="M11.949,28.689l1.4-.717c1.316-1.508.695-3.342.864-4.978-.271-.529-.514-1-.787-1.53L11.942,20.7c-.9,0-1.931,0-2.97,0a3.031,3.031,0,0,0-.9.223A2.11,2.11,0,0,0,6.5,22.531c-.029.121-.179.212-.276.317,0,.988.044,1.987-.02,2.976a2.705,2.705,0,0,0,.333,1.29A2.642,2.642,0,0,0,9.1,28.685c.99.018,1.982,0,2.846,0" transform="translate(7.467 24.939)" fill="#050506"/>
      <path id="Trazado_614430" data-name="Trazado 614430" d="M16.028,26.413c.6.139.745-.456,1.127-.666V21.428c-.315-.245-.478-.822-1.127-.721h-5c-.176.227-.379.487-.672.862v4.165l.792.679Z" transform="translate(12.471 24.933)" fill="#050506"/>
      <path id="Trazado_614431" data-name="Trazado 614431" d="M23.989,35.034v.536c.721.077,1.453.013,2.28.044V33.892c.22-.284.584-.355.853-.569.379-.287.761-.571,1.14-.855.5-1.453.194-2.957.3-4.425-.381-.152-.245-.58-.516-.811a2.391,2.391,0,0,0-1.684-.761c-.752.026-1.508.007-2.315.007V24.213c.668-.046,1.409-.011,2.145-.018.752-.007,1.506,0,2.306,0V21.957H26.306V19.695H24.015v2.161a2.45,2.45,0,0,0-2.3,1.77v3.563c.344.152.236.569.494.8a2.311,2.311,0,0,0,1.676.778c.754-.031,1.51-.007,2.326-.007v2.264h-4.44v2.293h2.222Z" transform="translate(26.157 23.727)" fill="#050506"/>
      <path id="Trazado_614432" data-name="Trazado 614432" d="M24.632,25.876h-.855v.571a.7.7,0,0,0,.855-.571" transform="translate(28.646 31.174)" fill="#ffd338"/>
      <path id="Trazado_614433" data-name="Trazado 614433" d="M15.513,14.994v1.094h2.139c.227.4.1.736.159,1.12h2.227V16.194A2.452,2.452,0,0,0,22.35,14.4c0-.866-.035-1.909.015-2.95a2.035,2.035,0,0,0-.3-1.019,2.124,2.124,0,0,0-2.15-1.146c-.661.029-1.325,0-2.055,0V7.033h4.432v-2.3h-2.1c-.22-.351-.082-.688-.132-1.078H17.826V4.667a2.452,2.452,0,0,0-2.313,1.779V10c.344.15.238.569.494.8a2.314,2.314,0,0,0,1.68.776c.754-.029,1.512-.007,2.326-.007v2.275h-4.4c-.2.4-.046.785-.1,1.149" transform="translate(18.681 4.403)" fill="#050506"/>
      <path id="Trazado_614434" data-name="Trazado 614434" d="M6.208,8.6c.388.787.723,1.446,1.576,1.59A2.384,2.384,0,0,0,10.8,8.46c.3-1.647-.957-3.067-3.032-2.738C6.3,6.646,6.208,6.82,6.208,8.6" transform="translate(7.479 6.836)" fill="#ffd33c"/>
      <path id="Trazado_614435" data-name="Trazado 614435" d="M25.844,7.63V8.638a3.049,3.049,0,0,0,1.524,1.605A2.477,2.477,0,0,0,30.4,8.558V7.434a2.387,2.387,0,0,0-2.785-1.722A2.518,2.518,0,0,0,25.844,7.63" transform="translate(31.136 6.837)" fill="#ffd33c"/>
      <path id="Trazado_614436" data-name="Trazado 614436" d="M18.789,13.463c-4.121,0-8.244.015-12.364-.013a2.467,2.467,0,0,0-1.951.8,4.351,4.351,0,0,0-1.349,1.925c.157,2.042-.306,4.434.265,6.718.578.58,1.111,1.111,1.678,1.68a10.3,10.3,0,0,0,3.916.3c3.27.022,6.537.007,9.807.007.45-.32,1.047-.582.5-1.29a5.314,5.314,0,0,0-2.22-.282c-1.422-.128-2.035-.712-2.112-2.145a38.975,38.975,0,0,1,0-3.964c.068-1.435.679-2.024,2.1-2.156a5.552,5.552,0,0,0,2.222-.271c.567-.708-.031-.977-.487-1.3" transform="translate(3.728 16.203)" fill="#64c0d8"/>
      <path id="Trazado_614437" data-name="Trazado 614437" d="M10.213,13.457c-.011.28.236.381.392.52.212.185.174.4.176.622a6.866,6.866,0,0,1,0,9.128c0,.22.035.434-.176.62-.157.139-.4.243-.392.52.567,0,1.138.04,1.7-.009a2.545,2.545,0,0,0,1.8-.78c.34-.386.723-.734,1.113-1.124a27.347,27.347,0,0,0-.018-7.706,12.091,12.091,0,0,1-.992-.9,2.819,2.819,0,0,0-2.189-.886c-.472-.009-.946,0-1.418,0" transform="translate(12.304 16.209)" fill="#3fb3c5"/>
      <path id="Trazado_614438" data-name="Trazado 614438" d="M11.375,25.381v5.607h2.247c.073-1.817.011-3.689.037-5.607Z" transform="translate(13.704 30.578)" fill="#4a8ccc"/>
      <path id="Trazado_614439" data-name="Trazado 614439" d="M7.23,29.378c.227.227.326.329.414.417h2.639l.364-.366V26.706c-.948-.584-2-.15-3.029-.324-.7.959-.183,2.037-.388,3" transform="translate(8.711 31.784)" fill="#ffd53d"/>
      <path id="Trazado_614440" data-name="Trazado 614440" d="M3.495,21.759l-.39.39c.161.952-.273,2.009.311,2.957H6.134c.126-.126.227-.225.364-.364V22.1l-.34-.34Z" transform="translate(3.733 26.214)" fill="#ffd53d"/>
      <path id="Trazado_614441" data-name="Trazado 614441" d="M6.523,29.45C6.408,28.4,6.7,27.364,6.3,26.4H3.489l-.364.364v2.644c.088.088.187.19.4.4.913-.187,2,.331,3-.366" transform="translate(3.765 31.811)" fill="#ffd53d"/>
      <path id="Trazado_614442" data-name="Trazado 614442" d="M10.6,22.124l-.39-.39c-.95.159-2-.273-2.952.311v2.8c.935.719,2.013.093,2.924.368.168-.168.269-.267.419-.419Z" transform="translate(8.738 26.175)" fill="#ffd53d"/>
      <path id="Trazado_614443" data-name="Trazado 614443" d="M11.387,21.756v1.052h2.158c.192-.289.086-.65.053-1.052Z" transform="translate(13.719 26.21)" fill="#4a8ccc"/>
      <path id="Trazado_614444" data-name="Trazado 614444" d="M13.14,23.114c1.479-.39,1.989-1.012,1.993-2.438s0-2.833,0-4.251-.514-2.048-1.993-2.438c-.9,0-1.8-.062-2.692.013a2.039,2.039,0,0,0-2.132,2.139c-.079,1.605-.079,3.219,0,4.824A2.039,2.039,0,0,0,10.448,23.1c.891.075,1.795.013,2.692.013" transform="translate(9.947 16.821)" fill="#040506"/>
      <path id="Trazado_614445" data-name="Trazado 614445" d="M9.33,19.551h2.183V15.042c-.672-.075-1.4-.009-2.183-.037Z" transform="translate(11.241 18.077)" fill="#64c0d8"/>
    </g>
  </g>
</svg>
