<svg id="Grupo_876297" data-name="Grupo 876297" xmlns="http://www.w3.org/2000/svg" xmlns:xlink="http://www.w3.org/1999/xlink" width="76.717" height="76.639" viewBox="0 0 76.717 76.639">
  <defs>
    <clipPath id="clip-path">
      <rect id="Rectángulo_325252" data-name="Rectángulo 325252" width="76.717" height="76.639" fill="none"/>
    </clipPath>
  </defs>
  <g id="Grupo_876290" data-name="Grupo 876290" transform="translate(0 0)" clip-path="url(#clip-path)">
    <path id="Trazado_614470" data-name="Trazado 614470" d="M32.044,15.493H19.768v9.819H16.825a4.338,4.338,0,0,0-3.8-2.425,30.55,30.55,0,0,0-3.7,0A4.375,4.375,0,0,0,5,28.189c.261,1.527.887,3.019,1.283,4.542.328,1.26,1.027,2.452.795,3.846-.906,1.14-1.921,2.241-2.724,3.479-.667,1.025-1.479,1.931-2.132,2.963a12.42,12.42,0,0,0-1.8,3.726A11.851,11.851,0,0,0,1.2,55.193a12.643,12.643,0,0,0,3.136,4.233,12.913,12.913,0,0,0,5.66,2.716,26.792,26.792,0,0,0,6.045.2,8.024,8.024,0,0,0,3.532-.9c.318.282.094.563.28.895.109.113,8.225.184,12.2.006Z" transform="translate(0 14.184)" fill="#040506"/>
    <path id="Trazado_614471" data-name="Trazado 614471" d="M75.247,25.509c-.69.734-1.419.232-1.973.49-.174.144-.331.274-.469.391.228,1.278.45,2.519.726,4.057-4.635-3.385-8.953-6.708-13.391-10a5.044,5.044,0,0,0-.46-4.695,5.466,5.466,0,0,0-3.253-2.163c-2.615-.282-5.277.986-5.886,4.645-.937-.276-1.785.326-2.73.289-.893-.034-1.712.613-2.6.27a5.019,5.019,0,0,0-4.421-2.739,4.438,4.438,0,0,0-4.249,2.5l-9.388-2.58c0-.992,0-2.055,0-3.118a3.954,3.954,0,0,0-.266-1.743c-.207-.45-.1-1.023-.318-1.563a23.229,23.229,0,0,0-2.184-4.2,9.846,9.846,0,0,0-2.975-2.877,14.282,14.282,0,0,0-5.1-2.216A17.868,17.868,0,0,0,13.193,0,13.8,13.8,0,0,0,5.275,2.862C2.715,4.634,1.555,7.256.4,9.941c-.234.546.176,1.232-.393,1.689-.015,2.477-.082,4.938,1.1,7.264a17.286,17.286,0,0,0,3.072,4.591c1.406,1.4,3.254,2.061,4.907,3.051.981.029,1.873.515,2.822.609a13.084,13.084,0,0,0,3.536-.021,18.137,18.137,0,0,0,2.649-.655,9.84,9.84,0,0,0,2.912-1.492,12.958,12.958,0,0,0,2.783-2.431,32.833,32.833,0,0,0,2.479-4.007,8.292,8.292,0,0,1,3.228.69,30.77,30.77,0,0,1,3.042.835c1.011.431,2.163.431,3.136.914.406,3.283,2.5,4.8,4.758,4.963,2.668.193,4.794-1.745,5.275-4.635,1.812.163,3.517-.745,5.367-.605a4.83,4.83,0,0,0,7.233,1.841,1.945,1.945,0,0,1,1.312.548q3.6,2.8,7.3,5.461c1.481,1.067,2.875,2.249,4.316,3.369.306.238.751.274.973.69l-4.6.818c.481.59.182,1.26.3,1.917.186.243.423.653.8.456.617-.324,1.306-.117,1.873-.329.64-.238,1.308-.1,1.875-.308.64-.234,1.326-.082,1.873-.312a6.167,6.167,0,0,1,2.046-.272l.347-.347c-.475-2.833-.954-5.683-1.465-8.723" transform="translate(0.003 0)" fill="#040506"/>
    <path id="Trazado_614472" data-name="Trazado 614472" d="M25.8,61.826H38.037V16.306A109.492,109.492,0,0,0,25.8,16.2Z" transform="translate(23.621 14.733)" fill="#040506"/>
    <path id="Trazado_614473" data-name="Trazado 614473" d="M30.311,19.36H18.069V58.71a118.76,118.76,0,0,0,12.242.092Z" transform="translate(16.542 17.724)" fill="#040506"/>
    <path id="Trazado_614474" data-name="Trazado 614474" d="M33.532,56.513H45.766v-34.4A108.607,108.607,0,0,0,33.532,22Z" transform="translate(30.698 20.046)" fill="#040506"/>
    <path id="Trazado_614475" data-name="Trazado 614475" d="M16.555,27.09H8.213a24.605,24.605,0,0,0-2.91,3.7c-.674.893-1.387,1.758-2,2.709a10.693,10.693,0,0,0-1.737,4.076,6.577,6.577,0,0,0,.006,3.609,6.031,6.031,0,0,1,.011,1.19,3.589,3.589,0,0,1,.78,1.419A9.75,9.75,0,0,0,9.23,49.049a16.459,16.459,0,0,0,5.578.184,9.553,9.553,0,0,0,4.959-2.155A10.7,10.7,0,0,0,23.211,41.4c.879-3.015-.569-6.411-2.182-8.589-1.165-1.575-2.419-3.082-3.494-4.726a7.091,7.091,0,0,0-.981-1" transform="translate(1.206 24.801)" fill="#afc96a"/>
    <path id="Trazado_614476" data-name="Trazado 614476" d="M10.644,35.113c-.084.883.554,1.327.941,1.85,1.46,1.963,3.026,3.854,4.318,5.934a12.4,12.4,0,0,1,1.214,3.042,12.6,12.6,0,0,1,.282,4.348,10.252,10.252,0,0,1-.759,2.915,12.813,12.813,0,0,1-3.831,5.335.55.55,0,0,0,.071.134.21.21,0,0,0,.121.071c2.256,0,4.513,0,6.831,0V16.786H12.55V24.67a14.992,14.992,0,0,1,2,2.3,4.609,4.609,0,0,1-.711,4.925c-1.054,1.115-2.163,2.178-3.2,3.214" transform="translate(9.737 15.368)" fill="#ea695c"/>
    <path id="Trazado_614477" data-name="Trazado 614477" d="M4.391,21.158a2.75,2.75,0,0,0-.274,2.68A44.253,44.253,0,0,1,5.7,29.655c.042.276.389.444.349.824h8.511c1.264-1.463,2.938-2.668,4.042-4.321a2.507,2.507,0,0,0-1.674-3h-3.2v2.369H11.281c-.01-.527-.025-1.121-.031-1.714-.006-.565,0-1.128,0-1.672-.4-1.293-1.349-1.575-2.542-1.507a21.534,21.534,0,0,1-2.461,0,2.936,2.936,0,0,0-1.854.525" transform="translate(3.57 18.883)" fill="#9cbe54"/>
    <path id="Trazado_614478" data-name="Trazado 614478" d="M1.27,12.622a11.4,11.4,0,0,0,3.18,7.421A10.654,10.654,0,0,0,12.4,23.515a10.718,10.718,0,0,0,8.07-3.557,10.95,10.95,0,0,0,3.053-7.677,11.924,11.924,0,0,0-1.555-5.517,11.6,11.6,0,0,0-4.007-3.921A10.721,10.721,0,0,0,11.98,1.3a11.014,11.014,0,0,0-7.6,3.582A11.238,11.238,0,0,0,1.27,12.622" transform="translate(1.163 1.17)" fill="#ffcd58"/>
    <path id="Trazado_614479" data-name="Trazado 614479" d="M24.9,11.553a2.585,2.585,0,0,0-3.019-1.862,2.669,2.669,0,0,0-1.891,1.981v1.239a2.746,2.746,0,0,0,1.674,1.659,2.616,2.616,0,0,0,3.235-1.8Z" transform="translate(18.301 8.836)" fill="#ffcb57"/>
    <path id="Trazado_614480" data-name="Trazado 614480" d="M27.707,11.458a2.585,2.585,0,0,0,3.017,1.864,2.67,2.67,0,0,0,1.893-1.983V10.106c-.374-.682-.722-1.465-1.691-1.647a2.583,2.583,0,0,0-3.218,1.783Z" transform="translate(25.365 7.677)" fill="#ffcb57"/>
    <path id="Trazado_614481" data-name="Trazado 614481" d="M34.48,58.149V17.439H27.249c-.23,1.326-.324,34.887-.1,40.71H34.48Z" transform="translate(24.738 15.965)" fill="#ea695c"/>
    <path id="Trazado_614482" data-name="Trazado 614482" d="M19.358,55.2h7.3V20.745c.017.019-.011-.025-.052-.054a.244.244,0,0,0-.13-.054c-2.356,0-4.712,0-7.12,0Z" transform="translate(17.722 18.892)" fill="#ea695c"/>
    <path id="Trazado_614483" data-name="Trazado 614483" d="M42.123,23.23h-7.3V52.74c-.019-.023.01.023.048.052a.253.253,0,0,0,.13.056c2.356,0,4.714,0,7.122,0Z" transform="translate(31.874 21.267)" fill="#ea695c"/>
    <path id="Trazado_614484" data-name="Trazado 614484" d="M10.156,28.39H7.672v2.6c-2.174.709-2.649,2.341-2.49,4.331.391.151.362.594.506.873A2.212,2.212,0,0,0,6.9,37.377c.615.243,1.167.63,1.791.887a2.958,2.958,0,0,1,1.427,1.128c.159.628-.423.906-.782,1.316H8.394l-.8-.835v-1.6H5.22v2.291c.533.981.916,2.17,2.36,2.337v2.707c.839.094,1.636.023,2.482.054v-2.64c2.174-.711,2.649-2.343,2.492-4.331-.389-.153-.362-.6-.506-.875a2.2,2.2,0,0,0-1.213-1.178c-.615-.243-1.165-.632-1.789-.889a2.934,2.934,0,0,1-1.421-1.119c-.176-.642.431-.906.76-1.324h.937a2.277,2.277,0,0,1,.87,1.2h2.279c.4-.873-.236-1.494-.531-2.176a2.623,2.623,0,0,0-1.785-1.257Z" transform="translate(4.718 25.991)" fill="#050606"/>
    <path id="Trazado_614485" data-name="Trazado 614485" d="M10.135,14.151l-.965.737H8.36c-.165-.2-.385-.485-.728-.921V12.491H5.191a6.105,6.105,0,0,0,.274,2.862,3.1,3.1,0,0,0,2.186,1.808v2.651h2.385V17.164c1.442-.178,1.971-1.289,2.519-2.542a3.9,3.9,0,0,0-.567-2.7,2.731,2.731,0,0,0-1.117-1.055c-.783-.343-1.519-.8-2.274-1.211-.665-.366-.663-.37-.975-1.213.065-.429.513-.578.745-.927h.944c.314.308.783.552.85,1.165h2.293c.471-.824-.251-1.421-.51-2.111-.31-.82-1.119-1.021-1.864-1.383V2.6H7.7V5.246c-1.442.18-1.969,1.293-2.517,2.542a3.909,3.909,0,0,0,.565,2.7,2.736,2.736,0,0,0,1.119,1.055c.783.343,1.507.824,2.278,1.2a1.508,1.508,0,0,1,.994,1.41" transform="translate(4.717 2.38)" fill="#050506"/>
  </g>
</svg>
