<svg xmlns="http://www.w3.org/2000/svg" xmlns:xlink="http://www.w3.org/1999/xlink" width="628" height="349" viewBox="0 0 628 349">
  <defs>
    <filter id="Rectángulo_325316" x="0" y="0" width="628" height="349" filterUnits="userSpaceOnUse">
      <feOffset dy="3" input="SourceAlpha"/>
      <feGaussianBlur stdDeviation="3" result="blur"/>
      <feFlood flood-opacity="0.161"/>
      <feComposite operator="in" in2="blur"/>
      <feComposite in="SourceGraphic"/>
    </filter>
    <filter id="Rectángulo_324871" x="84.615" y="113.6" width="271" height="112" filterUnits="userSpaceOnUse">
      <feOffset dy="3" input="SourceAlpha"/>
      <feGaussianBlur stdDeviation="3" result="blur-2"/>
      <feFlood flood-opacity="0.161"/>
      <feComposite operator="in" in2="blur-2"/>
      <feComposite in="SourceGraphic"/>
    </filter>
    <filter id="Rectángulo_325313" x="400" y="24.3" width="186" height="90" filterUnits="userSpaceOnUse">
      <feOffset dy="3" input="SourceAlpha"/>
      <feGaussianBlur stdDeviation="3" result="blur-3"/>
      <feFlood flood-opacity="0.161"/>
      <feComposite operator="in" in2="blur-3"/>
      <feComposite in="SourceGraphic"/>
    </filter>
    <filter id="Rectángulo_325314" x="400" y="130.3" width="186" height="90" filterUnits="userSpaceOnUse">
      <feOffset dy="3" input="SourceAlpha"/>
      <feGaussianBlur stdDeviation="3" result="blur-4"/>
      <feFlood flood-opacity="0.161"/>
      <feComposite operator="in" in2="blur-4"/>
      <feComposite in="SourceGraphic"/>
    </filter>
    <filter id="Rectángulo_325315" x="392" y="235.3" width="194" height="90" filterUnits="userSpaceOnUse">
      <feOffset dy="3" input="SourceAlpha"/>
      <feGaussianBlur stdDeviation="3" result="blur-5"/>
      <feFlood flood-opacity="0.161"/>
      <feComposite operator="in" in2="blur-5"/>
      <feComposite in="SourceGraphic"/>
    </filter>
    <filter id="Elipse_5170" x="358" y="228" width="103" height="103" filterUnits="userSpaceOnUse">
      <feOffset dy="3" input="SourceAlpha"/>
      <feGaussianBlur stdDeviation="3" result="blur-6"/>
      <feFlood flood-opacity="0.161"/>
      <feComposite operator="in" in2="blur-6"/>
      <feComposite in="SourceGraphic"/>
    </filter>
    <clipPath id="clip-path">
      <rect id="Rectángulo_325319" data-name="Rectángulo 325319" width="48.052" height="48.057" fill="none"/>
    </clipPath>
    <filter id="Elipse_5169" x="358" y="123" width="103" height="103" filterUnits="userSpaceOnUse">
      <feOffset dy="3" input="SourceAlpha"/>
      <feGaussianBlur stdDeviation="3" result="blur-7"/>
      <feFlood flood-opacity="0.161"/>
      <feComposite operator="in" in2="blur-7"/>
      <feComposite in="SourceGraphic"/>
    </filter>
    <clipPath id="clip-path-2">
      <rect id="Rectángulo_325318" data-name="Rectángulo 325318" width="48.385" height="45.333" fill="none"/>
    </clipPath>
    <filter id="Elipse_5168" x="358" y="18" width="103" height="103" filterUnits="userSpaceOnUse">
      <feOffset dy="3" input="SourceAlpha"/>
      <feGaussianBlur stdDeviation="3" result="blur-8"/>
      <feFlood flood-opacity="0.161"/>
      <feComposite operator="in" in2="blur-8"/>
      <feComposite in="SourceGraphic"/>
    </filter>
    <clipPath id="clip-path-3">
      <rect id="Rectángulo_325317" data-name="Rectángulo 325317" width="46.288" height="46.997" fill="none"/>
    </clipPath>
  </defs>
  <g id="Grupo_877361" data-name="Grupo 877361" transform="translate(-801.192 -2015.031)">
    <g transform="matrix(1, 0, 0, 1, 801.19, 2015.03)" filter="url(#Rectángulo_325316)">
      <rect id="Rectángulo_325316-2" data-name="Rectángulo 325316" width="610" height="331" rx="20" transform="translate(9 6)" fill="#e8e8e8"/>
    </g>
    <g transform="matrix(1, 0, 0, 1, 801.19, 2015.03)" filter="url(#Rectángulo_324871)">
      <rect id="Rectángulo_324871-2" data-name="Rectángulo 324871" width="253" height="94" rx="20" transform="translate(93.62 119.6)" fill="#ced371"/>
    </g>
    <path id="Trazado_617047" data-name="Trazado 617047" d="M35.649,16.609H31.421L30.683,19h-3.3L32.081,6.2h2.9L39.709,19H36.4ZM32.16,14.228h2.751l-1.38-4.438ZM42.8,9.49l.1,1.116a3.225,3.225,0,0,1,2.716-1.292,2.713,2.713,0,0,1,2.219.888,4.226,4.226,0,0,1,.76,2.672V19H45.625V13a1.6,1.6,0,0,0-.29-1.059A1.342,1.342,0,0,0,44.28,11.6a1.413,1.413,0,0,0-1.292.686V19H40.026V9.49ZM55.591,19a3.344,3.344,0,0,1-.281-.853,2.754,2.754,0,0,1-2.285,1.028,3.374,3.374,0,0,1-2.285-.813,2.588,2.588,0,0,1-.94-2.043,2.66,2.66,0,0,1,1.143-2.338,5.821,5.821,0,0,1,3.322-.791h.914v-.5q0-1.316-1.134-1.316a.927.927,0,0,0-1.055,1.042H50.028A2.655,2.655,0,0,1,51.2,10.175a4.931,4.931,0,0,1,2.993-.86,4.323,4.323,0,0,1,2.874.888,3.086,3.086,0,0,1,1.081,2.435v4.21a4.311,4.311,0,0,0,.4,2V19Zm-1.854-1.934a1.652,1.652,0,0,0,.918-.237,1.487,1.487,0,0,0,.523-.536V14.772h-.861q-1.547,0-1.547,1.389a.848.848,0,0,0,.272.655A.986.986,0,0,0,53.737,17.066ZM54.475,5.5H57.6L55.161,8.26l-2.417,0ZM62.913,19H59.942V5.5h2.971Zm4.948,0H64.89V9.49h2.971ZM64.714,7.038A1.322,1.322,0,0,1,65.171,6a1.943,1.943,0,0,1,2.373,0A1.322,1.322,0,0,1,68,7.038a1.322,1.322,0,0,1-.457,1.037,1.943,1.943,0,0,1-2.373,0A1.322,1.322,0,0,1,64.714,7.038Zm9.949,9.29a.684.684,0,0,0-.4-.606,6.016,6.016,0,0,0-1.5-.475,6.853,6.853,0,0,1-1.828-.646,3.062,3.062,0,0,1-1.1-.971,2.319,2.319,0,0,1-.378-1.31,2.628,2.628,0,0,1,1.081-2.158,4.453,4.453,0,0,1,2.83-.848,4.934,4.934,0,0,1,3.023.853,2.666,2.666,0,0,1,1.143,2.241H74.567q0-1.143-1.2-1.143a1.194,1.194,0,0,0-.782.259.8.8,0,0,0-.316.646.737.737,0,0,0,.387.642,3.654,3.654,0,0,0,1.235.4,10.671,10.671,0,0,1,1.49.378A2.706,2.706,0,0,1,77.52,16.24a2.491,2.491,0,0,1-1.156,2.118,5.068,5.068,0,0,1-2.993.817,5.172,5.172,0,0,1-2.18-.439,3.645,3.645,0,0,1-1.494-1.2,2.707,2.707,0,0,1-.536-1.591H71.93a1.145,1.145,0,0,0,.439.962,1.808,1.808,0,0,0,1.081.3,1.422,1.422,0,0,0,.91-.246A.787.787,0,0,0,74.664,16.328ZM82.029,19H79.058V9.49h2.971ZM78.882,7.038A1.322,1.322,0,0,1,79.339,6a1.943,1.943,0,0,1,2.373,0,1.322,1.322,0,0,1,.457,1.037,1.322,1.322,0,0,1-.457,1.037,1.943,1.943,0,0,1-2.373,0A1.322,1.322,0,0,1,78.882,7.038Zm9.949,9.29a.684.684,0,0,0-.4-.606,6.016,6.016,0,0,0-1.5-.475A6.853,6.853,0,0,1,85.1,14.6a3.062,3.062,0,0,1-1.1-.971,2.319,2.319,0,0,1-.378-1.31,2.628,2.628,0,0,1,1.081-2.158,4.453,4.453,0,0,1,2.83-.848,4.934,4.934,0,0,1,3.023.853,2.666,2.666,0,0,1,1.143,2.241H88.735q0-1.143-1.2-1.143a1.194,1.194,0,0,0-.782.259.8.8,0,0,0-.316.646.737.737,0,0,0,.387.642,3.654,3.654,0,0,0,1.235.4,10.671,10.671,0,0,1,1.49.378,2.706,2.706,0,0,1,2.145,2.646,2.491,2.491,0,0,1-1.156,2.118,5.068,5.068,0,0,1-2.993.817,5.172,5.172,0,0,1-2.18-.439,3.645,3.645,0,0,1-1.494-1.2,2.707,2.707,0,0,1-.536-1.591H86.1a1.145,1.145,0,0,0,.439.962,1.808,1.808,0,0,0,1.081.3,1.422,1.422,0,0,0,.91-.246A.787.787,0,0,0,88.832,16.328ZM98.245,19V11.547h-1.38V9.49h1.38V9.174a3.631,3.631,0,0,1,1.248-2.909,4.987,4.987,0,0,1,3.243-.949,11.509,11.509,0,0,1,3.094.51l-.4,2.338-.492-.132a7.832,7.832,0,0,0-2.021-.255q-1.7,0-1.7,1.547V9.49h1.863v2.057h-1.863V19Zm8.947,0h-2.979V9.49h2.979Zm4.526-9.51.1,1.116a3.225,3.225,0,0,1,2.716-1.292,2.713,2.713,0,0,1,2.219.888,4.226,4.226,0,0,1,.76,2.672V19H114.54V13a1.6,1.6,0,0,0-.29-1.059,1.342,1.342,0,0,0-1.055-.338,1.413,1.413,0,0,0-1.292.686V19h-2.962V9.49ZM124.506,19a3.344,3.344,0,0,1-.281-.853,2.754,2.754,0,0,1-2.285,1.028,3.374,3.374,0,0,1-2.285-.813,2.588,2.588,0,0,1-.94-2.043,2.66,2.66,0,0,1,1.143-2.338,5.821,5.821,0,0,1,3.322-.791h.914v-.5q0-1.316-1.134-1.316a.927.927,0,0,0-1.055,1.042h-2.962a2.655,2.655,0,0,1,1.173-2.239,4.931,4.931,0,0,1,2.993-.86,4.323,4.323,0,0,1,2.874.888,3.086,3.086,0,0,1,1.081,2.435v4.21a4.311,4.311,0,0,0,.4,2V19Zm-1.854-1.934a1.652,1.652,0,0,0,.918-.237,1.487,1.487,0,0,0,.523-.536V14.772h-.861q-1.547,0-1.547,1.389a.848.848,0,0,0,.272.655A.986.986,0,0,0,122.652,17.066Zm8.771-7.576.1,1.116a3.225,3.225,0,0,1,2.716-1.292,2.713,2.713,0,0,1,2.219.888,4.226,4.226,0,0,1,.76,2.672V19h-2.971V13a1.6,1.6,0,0,0-.29-1.059A1.342,1.342,0,0,0,132.9,11.6a1.413,1.413,0,0,0-1.292.686V19h-2.962V9.49Zm11.452,7.4a1.317,1.317,0,0,0,.967-.338,1.241,1.241,0,0,0,.334-.945h2.777a3.288,3.288,0,0,1-1.121,2.566,4.168,4.168,0,0,1-2.887,1,4.22,4.22,0,0,1-3.27-1.3,5.125,5.125,0,0,1-1.2-3.6v-.123a5.792,5.792,0,0,1,.532-2.544,3.872,3.872,0,0,1,1.534-1.7,4.573,4.573,0,0,1,2.373-.593,4.116,4.116,0,0,1,2.944,1.028,3.647,3.647,0,0,1,1.09,2.786h-2.777a1.626,1.626,0,0,0-.36-1.134,1.244,1.244,0,0,0-.967-.4q-1.151,0-1.345,1.468a10.357,10.357,0,0,0-.062,1.283,4.068,4.068,0,0,0,.343,1.986A1.187,1.187,0,0,0,142.875,16.891ZM151.331,19H148.36V9.49h2.971ZM148.184,7.038A1.322,1.322,0,0,1,148.641,6a1.943,1.943,0,0,1,2.373,0,1.322,1.322,0,0,1,.457,1.037,1.322,1.322,0,0,1-.457,1.037,1.943,1.943,0,0,1-2.373,0A1.322,1.322,0,0,1,148.184,7.038Zm9.571,12.138a4.889,4.889,0,0,1-3.542-1.305,4.507,4.507,0,0,1-1.354-3.4v-.246a5.84,5.84,0,0,1,.541-2.575,3.955,3.955,0,0,1,1.578-1.727,4.763,4.763,0,0,1,2.461-.611,4.117,4.117,0,0,1,3.164,1.244,4.887,4.887,0,0,1,1.16,3.467v1.151h-5.889a2.135,2.135,0,0,0,.694,1.257,2.066,2.066,0,0,0,1.389.457,2.662,2.662,0,0,0,2.2-.984l1.354,1.6a3.784,3.784,0,0,1-1.569,1.217A5.3,5.3,0,0,1,157.755,19.176Zm-.334-7.576q-1.3,0-1.547,1.723h2.988v-.229a1.467,1.467,0,0,0-.36-1.1A1.434,1.434,0,0,0,157.421,11.6Zm11.285.571-.976-.07a1.752,1.752,0,0,0-1.793.879V19h-2.962V9.49h2.777l.1,1.222a2.294,2.294,0,0,1,2.083-1.4,2.888,2.888,0,0,1,.826.105Zm.378,1.986a5.613,5.613,0,0,1,.554-2.536,3.96,3.96,0,0,1,1.591-1.709,4.791,4.791,0,0,1,2.435-.6,4.373,4.373,0,0,1,3.366,1.323,5.076,5.076,0,0,1,1.23,3.6v.105a4.925,4.925,0,0,1-1.235,3.529,4.384,4.384,0,0,1-3.344,1.305,4.434,4.434,0,0,1-3.261-1.217,4.761,4.761,0,0,1-1.327-3.3Zm2.962.185a3.538,3.538,0,0,0,.413,1.934,1.376,1.376,0,0,0,1.222.615q1.582,0,1.617-2.435v-.3q0-2.558-1.635-2.558-1.485,0-1.608,2.206Zm8.561,8.1-1.494-.7.3-.6a4.874,4.874,0,0,0,.642-2.18v-2.2h2.373l-.009,1.907a4.767,4.767,0,0,1-.519,2.057A5.226,5.226,0,0,1,180.607,22.445ZM43.041,41.891a1.317,1.317,0,0,0,.967-.338,1.241,1.241,0,0,0,.334-.945h2.777A3.288,3.288,0,0,1,46,43.174a4.168,4.168,0,0,1-2.887,1,4.22,4.22,0,0,1-3.27-1.3,5.125,5.125,0,0,1-1.2-3.6v-.123a5.792,5.792,0,0,1,.532-2.544,3.872,3.872,0,0,1,1.534-1.7,4.573,4.573,0,0,1,2.373-.593,4.116,4.116,0,0,1,2.944,1.028,3.647,3.647,0,0,1,1.09,2.786H44.341A1.626,1.626,0,0,0,43.981,37a1.244,1.244,0,0,0-.967-.4q-1.151,0-1.345,1.468a10.357,10.357,0,0,0-.062,1.283,4.068,4.068,0,0,0,.343,1.986A1.187,1.187,0,0,0,43.041,41.891ZM48,39.157a5.613,5.613,0,0,1,.554-2.536,3.96,3.96,0,0,1,1.591-1.709,4.791,4.791,0,0,1,2.435-.6,4.373,4.373,0,0,1,3.366,1.323,5.076,5.076,0,0,1,1.23,3.6v.105a4.925,4.925,0,0,1-1.235,3.529,4.384,4.384,0,0,1-3.344,1.305,4.434,4.434,0,0,1-3.261-1.217,4.761,4.761,0,0,1-1.327-3.3Zm2.962.185a3.538,3.538,0,0,0,.413,1.934,1.376,1.376,0,0,0,1.222.615q1.582,0,1.617-2.435v-.3q0-2.558-1.635-2.558-1.485,0-1.608,2.206ZM61.278,34.49l.1,1.116a3.27,3.27,0,0,1,2.716-1.292,2.407,2.407,0,0,1,2.435,1.433,3.165,3.165,0,0,1,2.795-1.433q2.892,0,2.971,3.5V44H69.32V38a1.813,1.813,0,0,0-.246-1.063,1.048,1.048,0,0,0-.9-.334,1.4,1.4,0,0,0-1.31.782l.009.123V44H63.906V38.015a1.906,1.906,0,0,0-.237-1.081,1.045,1.045,0,0,0-.905-.334,1.42,1.42,0,0,0-1.3.782V44H58.5V34.49Zm21.533,4.825a5.735,5.735,0,0,1-1,3.538,3.2,3.2,0,0,1-2.694,1.323,2.742,2.742,0,0,1-2.153-.958v4.438H74V34.49h2.769l.088.879A2.742,2.742,0,0,1,79.1,34.314a3.224,3.224,0,0,1,2.733,1.3,5.805,5.805,0,0,1,.976,3.564Zm-2.962-.185q0-2.531-1.477-2.531a1.394,1.394,0,0,0-1.406.756V41.1a1.439,1.439,0,0,0,1.424.791q1.415,0,1.459-2.443Zm3.894.026a5.613,5.613,0,0,1,.554-2.536,3.96,3.96,0,0,1,1.591-1.709,4.791,4.791,0,0,1,2.435-.6,4.373,4.373,0,0,1,3.366,1.323,5.076,5.076,0,0,1,1.23,3.6v.105a4.925,4.925,0,0,1-1.235,3.529,4.384,4.384,0,0,1-3.344,1.305,4.434,4.434,0,0,1-3.261-1.217,4.761,4.761,0,0,1-1.327-3.3Zm2.962.185a3.538,3.538,0,0,0,.413,1.934,1.376,1.376,0,0,0,1.222.615q1.582,0,1.617-2.435v-.3q0-2.558-1.635-2.558-1.485,0-1.608,2.206Zm13.271-2.171L99,37.1a1.752,1.752,0,0,0-1.793.879V44H94.246V34.49h2.777l.1,1.222a2.294,2.294,0,0,1,2.083-1.4,2.888,2.888,0,0,1,.826.105Zm4.957-5.045V34.49H106.5v2.057h-1.564V40.9a1.111,1.111,0,0,0,.193.747,1.037,1.037,0,0,0,.765.211,4.345,4.345,0,0,0,.738-.053v2.118a5.466,5.466,0,0,1-1.67.255,3.1,3.1,0,0,1-2.259-.721,2.954,2.954,0,0,1-.729-2.188v-4.72h-1.213V34.49h1.213V32.126ZM113.019,44a3.344,3.344,0,0,1-.281-.853,2.754,2.754,0,0,1-2.285,1.028,3.374,3.374,0,0,1-2.285-.813,2.588,2.588,0,0,1-.94-2.043,2.66,2.66,0,0,1,1.143-2.338,5.821,5.821,0,0,1,3.322-.791h.914v-.5q0-1.316-1.134-1.316a.927.927,0,0,0-1.055,1.042h-2.962a2.655,2.655,0,0,1,1.173-2.239,4.931,4.931,0,0,1,2.993-.86,4.323,4.323,0,0,1,2.874.888,3.086,3.086,0,0,1,1.081,2.435v4.21a4.311,4.311,0,0,0,.4,2V44Zm-1.854-1.934a1.652,1.652,0,0,0,.918-.237,1.487,1.487,0,0,0,.523-.536V39.772h-.861q-1.547,0-1.547,1.389a.848.848,0,0,0,.272.655A.986.986,0,0,0,111.165,42.066Zm8.851-7.576.1,1.116a3.27,3.27,0,0,1,2.716-1.292,2.407,2.407,0,0,1,2.435,1.433,3.165,3.165,0,0,1,2.795-1.433q2.892,0,2.971,3.5V44h-2.971V38a1.813,1.813,0,0,0-.246-1.063,1.048,1.048,0,0,0-.9-.334,1.4,1.4,0,0,0-1.31.782l.009.123V44h-2.971V38.015a1.906,1.906,0,0,0-.237-1.081,1.045,1.045,0,0,0-.905-.334,1.42,1.42,0,0,0-1.3.782V44h-2.962V34.49ZM135.844,44h-2.971V34.49h2.971ZM132.7,32.038A1.322,1.322,0,0,1,133.155,31a1.943,1.943,0,0,1,2.373,0,1.405,1.405,0,0,1,0,2.074,1.943,1.943,0,0,1-2.373,0A1.322,1.322,0,0,1,132.7,32.038Zm9.571,12.138a4.889,4.889,0,0,1-3.542-1.305,4.507,4.507,0,0,1-1.354-3.4v-.246a5.84,5.84,0,0,1,.541-2.575,3.955,3.955,0,0,1,1.578-1.727,4.763,4.763,0,0,1,2.461-.611,4.117,4.117,0,0,1,3.164,1.244,4.887,4.887,0,0,1,1.16,3.467v1.151h-5.889a2.135,2.135,0,0,0,.694,1.257,2.066,2.066,0,0,0,1.389.457,2.662,2.662,0,0,0,2.2-.984l1.354,1.6a3.784,3.784,0,0,1-1.569,1.217A5.3,5.3,0,0,1,142.269,44.176Zm-.334-7.576q-1.3,0-1.547,1.723h2.988v-.229a1.467,1.467,0,0,0-.36-1.1A1.434,1.434,0,0,0,141.935,36.6Zm8.253-2.109.1,1.116A3.225,3.225,0,0,1,153,34.314a2.713,2.713,0,0,1,2.219.888,4.226,4.226,0,0,1,.76,2.672V44h-2.971V38a1.6,1.6,0,0,0-.29-1.059,1.342,1.342,0,0,0-1.055-.338,1.413,1.413,0,0,0-1.292.686V44h-2.962V34.49Zm10.881-2.364V34.49h1.564v2.057h-1.564V40.9a1.111,1.111,0,0,0,.193.747,1.037,1.037,0,0,0,.765.211,4.345,4.345,0,0,0,.738-.053v2.118a5.466,5.466,0,0,1-1.67.255,3.1,3.1,0,0,1-2.259-.721,2.954,2.954,0,0,1-.729-2.188v-4.72h-1.213V34.49h1.213V32.126Zm2.092,7.031a5.613,5.613,0,0,1,.554-2.536,3.96,3.96,0,0,1,1.591-1.709,4.791,4.791,0,0,1,2.435-.6,4.373,4.373,0,0,1,3.366,1.323,5.076,5.076,0,0,1,1.23,3.6v.105a4.925,4.925,0,0,1-1.235,3.529,4.384,4.384,0,0,1-3.344,1.305,4.434,4.434,0,0,1-3.261-1.217,4.761,4.761,0,0,1-1.327-3.3Zm2.962.185a3.538,3.538,0,0,0,.413,1.934,1.376,1.376,0,0,0,1.222.615q1.582,0,1.617-2.435v-.3q0-2.558-1.635-2.558-1.485,0-1.608,2.206Z" transform="translate(915.808 2152.631)" fill="#12263f"/>
    <g transform="matrix(1, 0, 0, 1, 801.19, 2015.03)" filter="url(#Rectángulo_325313)">
      <rect id="Rectángulo_325313-2" data-name="Rectángulo 325313" width="168" height="72" rx="20" transform="translate(409 30.3)" fill="#fff"/>
    </g>
    <g transform="matrix(1, 0, 0, 1, 801.19, 2015.03)" filter="url(#Rectángulo_325314)">
      <rect id="Rectángulo_325314-2" data-name="Rectángulo 325314" width="168" height="72" rx="20" transform="translate(409 136.3)" fill="#fff"/>
    </g>
    <g transform="matrix(1, 0, 0, 1, 801.19, 2015.03)" filter="url(#Rectángulo_325315)">
      <rect id="Rectángulo_325315-2" data-name="Rectángulo 325315" width="176" height="72" rx="20" transform="translate(401 241.3)" fill="#fff"/>
    </g>
    <path id="Trazado_617048" data-name="Trazado 617048" d="M-27.863,0h-2.344V-11.375h2.344Zm4.1-8.453.07.977a2.951,2.951,0,0,1,2.43-1.133,2.453,2.453,0,0,1,2,.789,3.682,3.682,0,0,1,.672,2.359V0h-2.258V-5.406a1.465,1.465,0,0,0-.312-1.043A1.4,1.4,0,0,0-22.2-6.773a1.553,1.553,0,0,0-1.43.813V0h-2.258V-8.453Zm6.555,4.164a4.954,4.954,0,0,1,.926-3.133,3,3,0,0,1,2.5-1.187,2.631,2.631,0,0,1,2.164.953l.094-.8H-9.48V-.281a3.613,3.613,0,0,1-.5,1.93A3.236,3.236,0,0,1-11.4,2.9a4.985,4.985,0,0,1-2.141.43,4.635,4.635,0,0,1-1.812-.371A3.217,3.217,0,0,1-16.691,2l1-1.375a2.645,2.645,0,0,0,2.047.945,1.936,1.936,0,0,0,1.4-.48,1.8,1.8,0,0,0,.5-1.363V-.727A2.612,2.612,0,0,1-13.8.156a2.992,2.992,0,0,1-2.465-1.191,4.953,4.953,0,0,1-.941-3.16Zm2.258.168a3.085,3.085,0,0,0,.461,1.8,1.466,1.466,0,0,0,1.266.653,1.568,1.568,0,0,0,1.477-.775V-6a1.564,1.564,0,0,0-1.461-.775,1.476,1.476,0,0,0-1.277.665A3.477,3.477,0,0,0-14.949-4.121ZM-3-6.336A6.134,6.134,0,0,0-3.809-6.4a1.654,1.654,0,0,0-1.68.867V0H-7.746V-8.453h2.133l.063,1.008A2.092,2.092,0,0,1-3.668-8.609a2.366,2.366,0,0,1,.7.1ZM1.98.156A4.15,4.15,0,0,1-1.047-.984,4.054,4.054,0,0,1-2.215-4.023v-.219A5.106,5.106,0,0,1-1.723-6.52,3.612,3.612,0,0,1-.328-8.066,3.914,3.914,0,0,1,1.73-8.609a3.508,3.508,0,0,1,2.73,1.094,4.444,4.444,0,0,1,1,3.1v.922H.074a2.1,2.1,0,0,0,.66,1.328,2,2,0,0,0,1.395.5,2.437,2.437,0,0,0,2.039-.945L5.277-1.367A3.389,3.389,0,0,1,3.9-.246,4.511,4.511,0,0,1,1.98.156ZM1.723-6.789a1.411,1.411,0,0,0-1.09.455A2.357,2.357,0,0,0,.1-5.031H3.238v-.181a1.681,1.681,0,0,0-.406-1.165A1.456,1.456,0,0,0,1.723-6.789Zm9.594,4.453a.727.727,0,0,0-.41-.652A4.659,4.659,0,0,0,9.59-3.414Q6.574-4.047,6.574-5.977a2.323,2.323,0,0,1,.934-1.879,3.766,3.766,0,0,1,2.441-.754,4.053,4.053,0,0,1,2.574.758,2.388,2.388,0,0,1,.965,1.969H11.23a1.092,1.092,0,0,0-.312-.8A1.322,1.322,0,0,0,9.941-7a1.351,1.351,0,0,0-.883.258.814.814,0,0,0-.312.656A.7.7,0,0,0,9.1-5.48a3.657,3.657,0,0,0,1.2.4,9.8,9.8,0,0,1,1.422.379A2.336,2.336,0,0,1,13.512-2.43,2.2,2.2,0,0,1,12.52-.559,4.28,4.28,0,0,1,9.957.156,4.47,4.47,0,0,1,8.07-.223,3.166,3.166,0,0,1,6.777-1.262a2.414,2.414,0,0,1-.469-1.426H8.449a1.179,1.179,0,0,0,.445.922A1.766,1.766,0,0,0,10-1.445a1.635,1.635,0,0,0,.98-.246A.766.766,0,0,0,11.316-2.336Zm3.3-1.969A5.013,5.013,0,0,1,15.1-6.547,3.546,3.546,0,0,1,16.492-8.07a4.069,4.069,0,0,1,2.113-.539A3.849,3.849,0,0,1,21.4-7.562a4.2,4.2,0,0,1,1.207,2.844l.016.578A4.418,4.418,0,0,1,21.535-1.02,3.775,3.775,0,0,1,18.621.156,3.793,3.793,0,0,1,15.7-1.016,4.5,4.5,0,0,1,14.613-4.2Zm2.258.16A3.16,3.16,0,0,0,17.324-2.3a1.5,1.5,0,0,0,1.3.638,1.5,1.5,0,0,0,1.281-.63,3.457,3.457,0,0,0,.461-2.015A3.128,3.128,0,0,0,19.9-6.14a1.5,1.5,0,0,0-1.3-.649,1.474,1.474,0,0,0-1.281.646A3.516,3.516,0,0,0,16.871-4.144ZM28.59-2.336a.727.727,0,0,0-.41-.652,4.659,4.659,0,0,0-1.316-.426q-3.016-.633-3.016-2.562a2.323,2.323,0,0,1,.934-1.879,3.766,3.766,0,0,1,2.441-.754,4.053,4.053,0,0,1,2.574.758,2.388,2.388,0,0,1,.965,1.969H28.5a1.092,1.092,0,0,0-.312-.8A1.322,1.322,0,0,0,27.215-7a1.351,1.351,0,0,0-.883.258.814.814,0,0,0-.312.656.7.7,0,0,0,.355.605,3.657,3.657,0,0,0,1.2.4A9.8,9.8,0,0,1,29-4.7,2.336,2.336,0,0,1,30.785-2.43a2.2,2.2,0,0,1-.992,1.871A4.28,4.28,0,0,1,27.23.156a4.47,4.47,0,0,1-1.887-.379,3.166,3.166,0,0,1-1.293-1.039,2.414,2.414,0,0,1-.469-1.426h2.141a1.179,1.179,0,0,0,.445.922,1.766,1.766,0,0,0,1.109.32,1.635,1.635,0,0,0,.98-.246A.766.766,0,0,0,28.59-2.336Z" transform="translate(1308.808 2088.631)" fill="#12263f"/>
    <path id="Trazado_617049" data-name="Trazado 617049" d="M-15.059-1.437A4.068,4.068,0,0,1-16.848-.262,7.492,7.492,0,0,1-19.41.156,5.076,5.076,0,0,1-22-.488a4.3,4.3,0,0,1-1.719-1.871,6.585,6.585,0,0,1-.621-2.883v-.773a6.994,6.994,0,0,1,.574-2.949,4.248,4.248,0,0,1,1.656-1.906,4.771,4.771,0,0,1,2.535-.66,4.751,4.751,0,0,1,3.164.965,4.123,4.123,0,0,1,1.352,2.809H-17.34a2.268,2.268,0,0,0-.691-1.43A2.208,2.208,0,0,0-19.5-9.641a2.078,2.078,0,0,0-1.82.9,4.724,4.724,0,0,0-.633,2.672v.727a4.5,4.5,0,0,0,.68,2.7,2.327,2.327,0,0,0,1.992.914A2.6,2.6,0,0,0-17.4-2.289V-4.25h-2.133V-5.977h4.477ZM-8.41,0a2.507,2.507,0,0,1-.227-.758A2.732,2.732,0,0,1-10.77.156a3,3,0,0,1-2.059-.719,2.312,2.312,0,0,1-.816-1.812,2.389,2.389,0,0,1,1-2.062A4.915,4.915,0,0,1-9.77-5.164H-8.73v-.484a1.393,1.393,0,0,0-.3-.937,1.183,1.183,0,0,0-.949-.352,1.345,1.345,0,0,0-.895.273.929.929,0,0,0-.324.75h-2.258A2.268,2.268,0,0,1-13-7.273a3,3,0,0,1,1.281-.98,4.669,4.669,0,0,1,1.859-.355,3.689,3.689,0,0,1,2.48.785,2.747,2.747,0,0,1,.918,2.207v3.664a4.041,4.041,0,0,0,.336,1.82V0Zm-1.867-1.57a1.945,1.945,0,0,0,.922-.223,1.462,1.462,0,0,0,.625-.6V-3.844h-.844q-1.7,0-1.8,1.172l-.008.133a.9.9,0,0,0,.3.7A1.153,1.153,0,0,0-10.277-1.57ZM-.152-2.336a.727.727,0,0,0-.41-.652,4.659,4.659,0,0,0-1.316-.426q-3.016-.633-3.016-2.562a2.323,2.323,0,0,1,.934-1.879A3.766,3.766,0,0,1-1.52-8.609a4.053,4.053,0,0,1,2.574.758A2.388,2.388,0,0,1,2.02-5.883H-.238a1.092,1.092,0,0,0-.312-.8A1.322,1.322,0,0,0-1.527-7a1.351,1.351,0,0,0-.883.258.814.814,0,0,0-.312.656.7.7,0,0,0,.355.605,3.657,3.657,0,0,0,1.2.4A9.8,9.8,0,0,1,.254-4.7,2.336,2.336,0,0,1,2.043-2.43,2.2,2.2,0,0,1,1.051-.559,4.28,4.28,0,0,1-1.512.156,4.47,4.47,0,0,1-3.4-.223,3.166,3.166,0,0,1-4.691-1.262,2.414,2.414,0,0,1-5.16-2.687H-3.02a1.179,1.179,0,0,0,.445.922,1.766,1.766,0,0,0,1.109.32,1.635,1.635,0,0,0,.98-.246A.766.766,0,0,0-.152-2.336Zm6.352-8.2v2.078H7.645V-6.8H6.2v4.219a1.007,1.007,0,0,0,.18.672.9.9,0,0,0,.688.2,3.6,3.6,0,0,0,.664-.055V-.047a4.648,4.648,0,0,1-1.367.2,2.156,2.156,0,0,1-2.422-2.4V-6.8H2.707V-8.453H3.941v-2.078ZM8.316-4.3A5.013,5.013,0,0,1,8.8-6.547,3.546,3.546,0,0,1,10.2-8.07a4.069,4.069,0,0,1,2.113-.539A3.849,3.849,0,0,1,15.1-7.562a4.2,4.2,0,0,1,1.207,2.844l.016.578A4.418,4.418,0,0,1,15.238-1.02,3.775,3.775,0,0,1,12.324.156,3.793,3.793,0,0,1,9.406-1.016,4.5,4.5,0,0,1,8.316-4.2Zm2.258.16A3.16,3.16,0,0,0,11.027-2.3a1.5,1.5,0,0,0,1.3.638,1.5,1.5,0,0,0,1.281-.63,3.457,3.457,0,0,0,.461-2.015,3.128,3.128,0,0,0-.461-1.831,1.5,1.5,0,0,0-1.3-.649,1.474,1.474,0,0,0-1.281.646A3.516,3.516,0,0,0,10.574-4.144ZM22.293-2.336a.727.727,0,0,0-.41-.652,4.659,4.659,0,0,0-1.316-.426q-3.016-.633-3.016-2.562a2.323,2.323,0,0,1,.934-1.879,3.766,3.766,0,0,1,2.441-.754,4.053,4.053,0,0,1,2.574.758,2.388,2.388,0,0,1,.965,1.969H22.207a1.092,1.092,0,0,0-.312-.8A1.322,1.322,0,0,0,20.918-7a1.351,1.351,0,0,0-.883.258.814.814,0,0,0-.312.656.7.7,0,0,0,.355.605,3.657,3.657,0,0,0,1.2.4A9.8,9.8,0,0,1,22.7-4.7,2.336,2.336,0,0,1,24.488-2.43,2.2,2.2,0,0,1,23.5-.559a4.28,4.28,0,0,1-2.562.715,4.47,4.47,0,0,1-1.887-.379,3.166,3.166,0,0,1-1.293-1.039,2.414,2.414,0,0,1-.469-1.426h2.141a1.179,1.179,0,0,0,.445.922,1.766,1.766,0,0,0,1.109.32,1.635,1.635,0,0,0,.98-.246A.766.766,0,0,0,22.293-2.336Z" transform="translate(1308.808 2193.331)" fill="#12263f"/>
    <path id="Trazado_617050" data-name="Trazado 617050" d="M-19.562-2.344h-4.109L-24.453,0h-2.492l4.234-11.375h2.172L-16.281,0h-2.492Zm-3.477-1.9H-20.2L-21.625-8.5Zm11.188,2.578a1.481,1.481,0,0,0,1.016-.344,1.2,1.2,0,0,0,.406-.914h2.117a2.9,2.9,0,0,1-.469,1.574A3.093,3.093,0,0,1-10.043-.238a3.949,3.949,0,0,1-1.77.395A3.67,3.67,0,0,1-14.672-1,4.56,4.56,0,0,1-15.719-4.18v-.148A4.508,4.508,0,0,1-14.68-7.445a3.627,3.627,0,0,1,2.852-1.164,3.555,3.555,0,0,1,2.543.9,3.2,3.2,0,0,1,.973,2.4H-10.43a1.551,1.551,0,0,0-.406-1.072,1.354,1.354,0,0,0-1.031-.412,1.36,1.36,0,0,0-1.191.575,3.333,3.333,0,0,0-.4,1.866v.235a3.375,3.375,0,0,0,.4,1.878A1.377,1.377,0,0,0-11.852-1.664Zm7.531-8.867v2.078h1.445V-6.8H-4.32v4.219a1.007,1.007,0,0,0,.18.672.9.9,0,0,0,.688.2,3.6,3.6,0,0,0,.664-.055V-.047a4.648,4.648,0,0,1-1.367.2,2.156,2.156,0,0,1-2.422-2.4V-6.8H-7.812V-8.453h1.234v-2.078ZM.766,0H-1.5V-8.453H.766Zm-2.4-10.641a1.112,1.112,0,0,1,.34-.836A1.277,1.277,0,0,1-.367-11.8a1.28,1.28,0,0,1,.922.328,1.105,1.105,0,0,1,.344.836A1.108,1.108,0,0,1,.551-9.8a1.283,1.283,0,0,1-.918.328A1.283,1.283,0,0,1-1.285-9.8,1.108,1.108,0,0,1-1.633-10.641ZM5.789-2.758l1.57-5.7H9.719L6.867,0H4.711L1.859-8.453H4.219ZM10.242-4.3a5.013,5.013,0,0,1,.484-2.242A3.546,3.546,0,0,1,12.121-8.07a4.069,4.069,0,0,1,2.113-.539,3.849,3.849,0,0,1,2.793,1.047,4.2,4.2,0,0,1,1.207,2.844l.016.578A4.418,4.418,0,0,1,17.164-1.02,3.775,3.775,0,0,1,14.25.156a3.793,3.793,0,0,1-2.918-1.172A4.5,4.5,0,0,1,10.242-4.2Zm2.258.16A3.16,3.16,0,0,0,12.953-2.3a1.5,1.5,0,0,0,1.3.638,1.5,1.5,0,0,0,1.281-.63,3.457,3.457,0,0,0,.461-2.015,3.128,3.128,0,0,0-.461-1.831,1.5,1.5,0,0,0-1.3-.649,1.474,1.474,0,0,0-1.281.646A3.516,3.516,0,0,0,12.5-4.144ZM24.219-2.336a.727.727,0,0,0-.41-.652,4.659,4.659,0,0,0-1.316-.426q-3.016-.633-3.016-2.562a2.323,2.323,0,0,1,.934-1.879,3.766,3.766,0,0,1,2.441-.754,4.053,4.053,0,0,1,2.574.758,2.388,2.388,0,0,1,.965,1.969H24.133a1.092,1.092,0,0,0-.312-.8A1.322,1.322,0,0,0,22.844-7a1.351,1.351,0,0,0-.883.258.814.814,0,0,0-.312.656A.7.7,0,0,0,22-5.48a3.657,3.657,0,0,0,1.2.4,9.8,9.8,0,0,1,1.422.379A2.336,2.336,0,0,1,26.414-2.43a2.2,2.2,0,0,1-.992,1.871,4.28,4.28,0,0,1-2.562.715,4.47,4.47,0,0,1-1.887-.379A3.166,3.166,0,0,1,19.68-1.262a2.414,2.414,0,0,1-.469-1.426h2.141a1.179,1.179,0,0,0,.445.922,1.766,1.766,0,0,0,1.109.32,1.635,1.635,0,0,0,.98-.246A.766.766,0,0,0,24.219-2.336Z" transform="translate(1308.808 2298.331)" fill="#12263f"/>
    <g transform="matrix(1, 0, 0, 1, 801.19, 2015.03)" filter="url(#Elipse_5170)">
      <circle id="Elipse_5170-2" data-name="Elipse 5170" cx="42.5" cy="42.5" r="42.5" transform="translate(367 234)" fill="#ffb500"/>
    </g>
    <g id="Grupo_876356" data-name="Grupo 876356" transform="translate(1186.192 2267.031)">
      <g id="Grupo_876355" data-name="Grupo 876355" transform="translate(0 0)" clip-path="url(#clip-path)">
        <path id="Trazado_614815" data-name="Trazado 614815" d="M23.992,42.346A13.564,13.564,0,0,0,36.3,48.036a10.467,10.467,0,0,1,2.112-.5c.694-.207,1.362-.466,2.023-.737a8.033,8.033,0,0,0,1.874-1.083,20.169,20.169,0,0,0,1.744-1.381A13.136,13.136,0,0,0,45.5,42.623a13.425,13.425,0,0,0,1.149-1.845,14.506,14.506,0,0,0,.788-2A11.4,11.4,0,0,0,48,36.12a10.6,10.6,0,0,0-.081-2.847,22.509,22.509,0,0,0-.635-2.744,14.348,14.348,0,0,0-1.108-2.444,13.568,13.568,0,0,0-1.66-2.206,18.657,18.657,0,0,0-2.09-1.831,26.028,26.028,0,0,0,2.446-2.316A24.758,24.758,0,0,0,46.7,18.9a13.3,13.3,0,0,0,1.057-3.045,12.174,12.174,0,0,0,.269-3.474,12.712,12.712,0,0,0-.623-3.326,12.9,12.9,0,0,0-2-3.809A14.3,14.3,0,0,0,41.283,1.69,11.6,11.6,0,0,0,37.244.238C33.467-.287,32.647.1,29.8,1a13.614,13.614,0,0,0-5.741,4.722c-.3-.584-.865-.892-1.184-1.411a2.258,2.258,0,0,0-.843-.822,15.313,15.313,0,0,1-1.29-1.083A13.029,13.029,0,0,0,17.382.69a13.865,13.865,0,0,0-2.22-.507A12.316,12.316,0,0,0,12.43.039a16.024,16.024,0,0,0-2.783.5A11.716,11.716,0,0,0,5.37,2.577,10.171,10.171,0,0,0,3.128,4.693,15.757,15.757,0,0,0,1.213,7.687a9.046,9.046,0,0,0-1,3.652,5.643,5.643,0,0,0-.19,2.244A11.918,11.918,0,0,0,.55,16.746a15.062,15.062,0,0,0,2.009,4.3c.762.507,1.026,1.485,1.891,1.929.447.228.725.754,1.19,1.023a26.794,26.794,0,0,0-2.456,2.328,25.123,25.123,0,0,0-1.836,2.828A13.342,13.342,0,0,0,.291,32.2a12.1,12.1,0,0,0-.269,3.472A12.916,12.916,0,0,0,2.65,42.813a14.317,14.317,0,0,0,4.119,3.558,11.856,11.856,0,0,0,4.039,1.452,12.953,12.953,0,0,0,7.449-.766,13.709,13.709,0,0,0,5.735-4.712" transform="translate(0 0.001)" fill="#040506"/>
        <path id="Trazado_614816" data-name="Trazado 614816" d="M8.235,19.548a4.224,4.224,0,0,0-.353-.24,1.4,1.4,0,0,1-.771-1.365c.012-2.03.005-4.059.005-6.111A2,2,0,0,1,5.6,9.328,2.712,2.712,0,0,1,6.868,8.043c.082-.031.146-.127.206-.2A21.532,21.532,0,0,1,9.137,6.02a15.406,15.406,0,0,1,1.411-1.242,3.241,3.241,0,0,1,2.7-.711c.166.192.456.219.692.349a2.14,2.14,0,0,1,.61.382c.586.677,1.406,1.088,1.977,1.774.286.346.731.466,1.028.808a2.815,2.815,0,0,0,.925.784,2.038,2.038,0,0,1,.749.74,1.116,1.116,0,0,1,.283.754,5.935,5.935,0,0,0-.007.754A2.258,2.258,0,0,1,18,11.816v4.974a8.4,8.4,0,0,1,3.222-1.631c-.053-.327.216-.75-.142-1.161-.081-.092-.021-.31-.022-.469,0-.355.021-.711,0-1.064a11.885,11.885,0,0,1,.831-4.5,2.514,2.514,0,0,1,.63-1.295,11.129,11.129,0,0,0-5.255-4.753,10.876,10.876,0,0,0-6.041-.916,12.173,12.173,0,0,0-2.48.545A12.111,12.111,0,0,0,6.477,2.636,9.73,9.73,0,0,0,4.442,4.271,11.663,11.663,0,0,0,2.784,6.291,13.689,13.689,0,0,0,1.676,8.545a21.943,21.943,0,0,0-.606,2.466,8.664,8.664,0,0,0-.11,2.634,10.873,10.873,0,0,0,.367,2.064A11.606,11.606,0,0,0,2.122,17.7a16.7,16.7,0,0,0,1.106,1.771,20.3,20.3,0,0,0,1.548,1.677,6.966,6.966,0,0,0,1.694,1.29,9.636,9.636,0,0,0,1.924.956,8.232,8.232,0,0,0,1.989.555c.743.077,1.476.236,2.239.245a14.749,14.749,0,0,1,2.192-.206,15.321,15.321,0,0,1,.221-2.326,7.733,7.733,0,0,1,.8-2.112Z" transform="translate(0.65 0.643)" fill="#e0e4e9"/>
        <path id="Trazado_614817" data-name="Trazado 614817" d="M13.784,14.837h1.485c.079-.147-.092-.158-.092-.23-.007-1.156-.005-2.311-.005-3.609.036-.135.49-.168.356-.5l.918-.461c.8.015,1.6-.38,2.482-.421.43-.332.361-.889.432-1.339.065-.425.2-.844.279-1.257a1.548,1.548,0,0,1,.951-1.071,7.7,7.7,0,0,0,.711-.382c2.425,0,4.938-.048,7.449.022a2.124,2.124,0,0,1,2.076,1.744c.1.658.32,1.3.387,1.968.01.1.149.2.209.269.593.123,1.156.253,1.723.355a3.63,3.63,0,0,1,1.656.564c.029.223.269.391.466.6,0,1.059-.014,2.122.007,3.186a1.488,1.488,0,0,1-.48,1.16,3.282,3.282,0,0,1-1.279.968h-1.4a3.741,3.741,0,0,1-1.452,1.389,2.732,2.732,0,0,1-1.918-.058c-.319-.4-.839-.7-1.127-1.288H22.77c-.207.565-.774.863-1.142,1.327-.279-.029-.538-.031-.632.281a8.241,8.241,0,0,1,1.591,3.174c.331-.062.757.218,1.165-.149.091-.081.31-.019.471-.019H26.06a1.867,1.867,0,0,1,.671.012,15.178,15.178,0,0,0,1.942.445,14.248,14.248,0,0,1,2.482.968,11.652,11.652,0,0,0,4.695-5.313,13.449,13.449,0,0,0,.9-5.959c-.218-.819-.272-1.679-.564-2.478a12.265,12.265,0,0,0-1.084-2.258A9.749,9.749,0,0,0,33.47,4.44,11.737,11.737,0,0,0,31.45,2.78a13.247,13.247,0,0,0-2.258-1.1,21.906,21.906,0,0,0-2.465-.6,8.678,8.678,0,0,0-2.636-.11,8.249,8.249,0,0,0-2.057.375,11.626,11.626,0,0,0-2,.779c-.6.346-1.185.731-1.766,1.115a20.049,20.049,0,0,0-1.677,1.552,7.087,7.087,0,0,0-1.29,1.694A9.2,9.2,0,0,0,14.356,8.4a8.16,8.16,0,0,0-.557,1.989,21.451,21.451,0,0,0-.242,2.239c.005.731.281,1.417.226,2.206" transform="translate(9.664 0.651)" fill="#e0e4e9"/>
        <path id="Trazado_614818" data-name="Trazado 614818" d="M28.395,30.62v1.536H29.88v1.56H20.662V32.2h1.485V30.62H19.5c-1.216,0-1.331-.062-1.994-1.112V21.922l-1.1.565h-.509a.261.261,0,0,0-.1.248c-.009.88.242,1.733.214,2.629a15.29,15.29,0,0,1-.88,4.479,7.056,7.056,0,0,1-.576,1.279,11.255,11.255,0,0,0,4.906,4.524,11.077,11.077,0,0,0,6.356,1.089,12.065,12.065,0,0,0,2.213-.473A14.738,14.738,0,0,0,30,35.438a9.713,9.713,0,0,0,1.882-1.286,11.485,11.485,0,0,0,1.7-1.713,9.616,9.616,0,0,0,1.184-1.822c.315-.68.581-1.372.843-2.073a15.956,15.956,0,0,0,.462-2.12,5.847,5.847,0,0,0,.009-2.4,13.586,13.586,0,0,0-.6-2.646,18.041,18.041,0,0,0-1.2-2.408,13.384,13.384,0,0,0-1.8-2.155,10.373,10.373,0,0,0-2.287-1.718,9.656,9.656,0,0,0-2.463-1.057,12.262,12.262,0,0,0-2.717-.459,10.6,10.6,0,0,0-2.8.255,18.747,18.747,0,0,1-.128,1.879,7.193,7.193,0,0,1-.875,2.442c.247.154.509.069.755.069,3.03.009,6.06.026,9.09-.007A1.767,1.767,0,0,1,33.016,19.4c0,3.121,0,6.344,0,9.57a1.5,1.5,0,0,1-1.661,1.651c-.966,0-1.932,0-2.958,0" transform="translate(10.368 9.673)" fill="#e0e4e9"/>
        <path id="Trazado_614819" data-name="Trazado 614819" d="M16.9,9.943a6.961,6.961,0,0,0-4.959,2.216,6.8,6.8,0,0,0-1.982,4.787,6.463,6.463,0,0,0,.449,2.425,7.219,7.219,0,0,0,1.8,2.645,6.98,6.98,0,0,0,2.3,1.454,6.434,6.434,0,0,0,2.525.445A7.29,7.29,0,0,0,22,21.662a6.869,6.869,0,0,0,1.893-4.822,6.978,6.978,0,0,0-2.244-4.967A7.2,7.2,0,0,0,16.9,9.943" transform="translate(7.096 7.088)" fill="#ffcd58"/>
        <path id="Trazado_614820" data-name="Trazado 614820" d="M15.4,11.827l.452.447h1.151a2.551,2.551,0,0,1,3-1.492,4.855,4.855,0,0,1,1.5,1.47h4.815a3.22,3.22,0,0,1,1.18-1.315c.473-.368,1.091-.185,1.649-.209a3.851,3.851,0,0,1,1.615,1.536h1.177c.1-.132.245-.307.438-.548V9.028c-1.221-.17-2.386-.56-3.6-.651-.089-.106-.242-.2-.238-.3.024-.844-.389-1.615-.4-2.453-.007-.488-.356-.772-.67-1.088H20.317a2.015,2.015,0,0,0-.677.922c.034.868-.447,1.728-.411,2.67-.134.075-.178.26-.368.276a15.735,15.735,0,0,0-2.953.574,2.134,2.134,0,0,1-.505.005Z" transform="translate(10.98 3.236)" fill="#afc96a"/>
        <path id="Trazado_614821" data-name="Trazado 614821" d="M18.412,17.214,17.2,18.444v4.9H29.5c-.014.012.014-.005.033-.029a.157.157,0,0,0,.034-.082c0-1.994,0-3.989,0-6.017Z" transform="translate(12.261 12.271)" fill="#5ec1e5"/>
        <path id="Trazado_614822" data-name="Trazado 614822" d="M10.625,16.921v3.535H9.071V25.11h6.146v5.38a3.89,3.89,0,0,0,1.189-1.305c.329-.474.548-1,.841-1.488a9.673,9.673,0,0,0,.642-1.67c.212-.562.12-1.237.322-1.8a10.261,10.261,0,0,0,.128-1.785c.125-.646-.327-1.218-.175-1.925a8.757,8.757,0,0,1-7.54-3.592" transform="translate(6.466 12.062)" fill="#e0e4e9"/>
        <path id="Trazado_614823" data-name="Trazado 614823" d="M3.639,19.021V29.795H8.2c-.019.015.01,0,.027-.027a.138.138,0,0,0,.036-.081c0-1.994,0-3.989,0-6.017h2.956a.976.976,0,0,0,.106-.1.155.155,0,0,0,.033-.082c0-1.478,0-2.955,0-4.467Z" transform="translate(2.594 13.559)" fill="#e9b389"/>
        <path id="Trazado_614824" data-name="Trazado 614824" d="M7.265,27.264h7.677V22.726a73.638,73.638,0,0,0-7.677-.062Z" transform="translate(5.179 16.11)" fill="#ffe594"/>
        <path id="Trazado_614825" data-name="Trazado 614825" d="M4.529,8,4.9,8.28h9.847c.226,0,.473.048.567-.355-.466-.353-.856-.882-1.428-1.285a14.124,14.124,0,0,1-1.7-1.49c-.456-.442-.983-.783-1.449-1.2A1.141,1.141,0,0,0,9.09,4.01c-.572.447-1.081.969-1.639,1.425A32.624,32.624,0,0,0,4.529,8" transform="translate(3.228 2.584)" fill="#e65b73"/>
        <path id="Trazado_614826" data-name="Trazado 614826" d="M5.448,7.267v6.127H6.914c-.015.014.012,0,.029-.029a.147.147,0,0,0,.034-.081c0-1.478,0-2.956,0-4.467h4.578c-.014-.014.014.005.033.029a.155.155,0,0,1,.033.082c0,1.478,0,2.956,0,4.467h1.488c-.014.014.012-.007.029-.034a.165.165,0,0,0,.029-.084c0-1.992,0-3.984,0-6.01Z" transform="translate(3.883 5.18)" fill="#daa277"/>
        <path id="Trazado_614827" data-name="Trazado 614827" d="M2.48,17.05a6.27,6.27,0,0,0-1.122,2.482,11.688,11.688,0,0,0-.425,3.987c.015.182.043.368.067.546a12.021,12.021,0,0,0,1.545,4.584,7.546,7.546,0,0,0,1.447,1.86V20.4H2.48Z" transform="translate(0.641 12.154)" fill="#dfe4e9"/>
        <path id="Trazado_614828" data-name="Trazado 614828" d="M14.819,17.453c-.187-.526-.687-.942-.509-1.66-.456.051-.877-.2-1.285.147-.077.065-.245.026-.372.026-.611,0-1.226-.036-1.833.012s-1.149-.341-1.756-.2a20.127,20.127,0,0,1-3.373-1.2c-1.47.567-2.305,1.852-3.414,2.819.646.168,10.8.216,12.54.063" transform="translate(1.625 10.386)" fill="#dfe4e9"/>
        <path id="Trazado_614829" data-name="Trazado 614829" d="M17.2,21.734v1.451c.963.087,11.3.092,12.353,0V21.734Z" transform="translate(12.262 15.493)" fill="#c0c7d0"/>
        <path id="Trazado_614830" data-name="Trazado 614830" d="M2.736,17.213V18.7h10.8c.05-.457.005-.956.026-1.485Z" transform="translate(1.95 12.27)" fill="#daa277"/>
        <path id="Trazado_614831" data-name="Trazado 614831" d="M4.376,26.315a12.758,12.758,0,0,0,3.741,1.3,11.449,11.449,0,0,0,3.9,0,12.665,12.665,0,0,0,3.631-1.245c-.617-.168-9.138-.221-11.269-.058" transform="translate(3.119 18.688)" fill="#dfe3e8"/>
        <path id="Trazado_614832" data-name="Trazado 614832" d="M22.955,23.533H19.923v1.533h3.032Z" transform="translate(14.202 16.775)" fill="#99a4b0"/>
        <path id="Trazado_614833" data-name="Trazado 614833" d="M7.246,9.088v3.044c.488.057.985.009,1.514.029V9.093a7.323,7.323,0,0,0-1.514-.005" transform="translate(5.165 6.452)" fill="#99a4b0"/>
        <path id="Trazado_614834" data-name="Trazado 614834" d="M17.191,9.655v.469l.512.48h.562l.474-.649v-.42c-.158-.154-.315-.31-.483-.476h-.6c-.113.149-.25.322-.464.6" transform="translate(12.254 6.458)" fill="#7e8894"/>
        <path id="Trazado_614835" data-name="Trazado 614835" d="M23.685,10.6l.473-.5V9.512c-.146-.108-.322-.242-.6-.447h-.5l-.447.654v.4c.154.108.36.252.675.474Z" transform="translate(16.121 6.462)" fill="#7e8894"/>
        <path id="Trazado_614836" data-name="Trazado 614836" d="M14.231,17.07c-.5-.021-.987-.021-1.47-.021a2.409,2.409,0,0,0,1.466,3v1.622H15.75V20.151h1.524V17.138a3.071,3.071,0,0,0-.6-.968c-.3-.221-.6-.461-.933-.689-.452-.361-1.372-.164-1.148-1.146,1.05-.243.752.817,1.148,1.146.5.019.987.019,1.47.019a2.41,2.41,0,0,0-1.466-3V10.878H14.219V12.4H12.7v3.015a3.082,3.082,0,0,0,.6.966c.3.223.6.462.933.69.452.361,1.372.164,1.148,1.146-1.05.243-.752-.817-1.148-1.146" transform="translate(9.042 7.754)" fill="#050506"/>
        <path id="Trazado_614837" data-name="Trazado 614837" d="M4.543,23.543v1.483H6.055c.05-.457.005-.954.024-1.483Z" transform="translate(3.238 16.782)" fill="#040506"/>
        <path id="Trazado_614838" data-name="Trazado 614838" d="M6.069,23.219V21.734H4.555c-.048.459,0,.956-.024,1.485Z" transform="translate(3.23 15.493)" fill="#040506"/>
        <path id="Trazado_614839" data-name="Trazado 614839" d="M6.037,19.916H4.552v1.512c.459.048.956.005,1.485.024Z" transform="translate(3.245 14.197)" fill="#040506"/>
        <path id="Trazado_614840" data-name="Trazado 614840" d="M6.352,19.925v1.487H7.864c.048-.461.005-.957.024-1.487Z" transform="translate(4.528 14.203)" fill="#040506"/>
        <path id="Trazado_614841" data-name="Trazado 614841" d="M8.16,23.543v1.483H9.672c.05-.457.005-.954.024-1.483Z" transform="translate(5.817 16.782)" fill="#040506"/>
        <path id="Trazado_614842" data-name="Trazado 614842" d="M11.46,23.533H9.978v1.511c.456.051.952.007,1.482.026Z" transform="translate(7.113 16.775)" fill="#040506"/>
        <path id="Trazado_614843" data-name="Trazado 614843" d="M13.575,14.481v1.071l.478.454H15.1V14.959l-.454-.478Z" transform="translate(9.677 10.323)" fill="#ffc957"/>
        <path id="Trazado_614844" data-name="Trazado 614844" d="M15.113,14.211V13.141l-.478-.454H13.589v1.047l.454.478Z" transform="translate(9.687 9.044)" fill="#ffc957"/>
      </g>
    </g>
    <g transform="matrix(1, 0, 0, 1, 801.19, 2015.03)" filter="url(#Elipse_5169)">
      <circle id="Elipse_5169-2" data-name="Elipse 5169" cx="42.5" cy="42.5" r="42.5" transform="translate(367 129)" fill="#ffb500"/>
    </g>
    <g id="Grupo_876354" data-name="Grupo 876354" transform="translate(1186.192 2164.031)">
      <g id="Grupo_876353" data-name="Grupo 876353" transform="translate(0 0)" clip-path="url(#clip-path-2)">
        <path id="Trazado_614779" data-name="Trazado 614779" d="M34.965,34.72c-.069.5.384.546.735.753h1.674a6.575,6.575,0,0,1,.043,1.276c.012.436,0,.872,0,1.284-.5.34-1.152.194-1.61.653-.174.485-.64.919-.368,1.727a41.684,41.684,0,0,0,4.275,4.624c.059.1.164.052.252.059.342.029.628.337,1.027.122a2.808,2.808,0,0,0,1.283-.956,3.486,3.486,0,0,1,.628-.773c.7-.721,1.422-1.425,2.131-2.138.255-.258.566-.475.643-.872a1.921,1.921,0,0,0-.863-2.176,1.047,1.047,0,0,1-.956-.327v-2.5c.832,0,1.645-.006,2.456,0a2.983,2.983,0,0,0,1.423-.436,1.325,1.325,0,0,0,.63-.772V29.091c0-6.13-.012-12.26.013-18.39a2.1,2.1,0,0,0-.89-2A6.038,6.038,0,0,0,45.066,8.5q-12.127-.009-24.255,0h-.928c.3-1.963-.5-3.191-1.477-3.618a.568.568,0,0,1-.033-.433,3.358,3.358,0,0,0-2.14-2.175h-.494A3.015,3.015,0,0,0,13.494.6a1.455,1.455,0,0,0-1.3.138C11.761.148,11.041.129,10.4.022a3.487,3.487,0,0,0-2.1.67C6.64.22,5.635,1.157,4.681,2.275a1.458,1.458,0,0,0-1.349.557c-.453.484-1.011.88-1.083,1.633a1.218,1.218,0,0,1-.388.586A3.91,3.91,0,0,0,.6,6.9V8.554a2.8,2.8,0,0,0,0,3.462v1.653a3.568,3.568,0,0,0,1.274,1.839.988.988,0,0,1,.313.531A3.353,3.353,0,0,0,3.4,17.8c.132.135.266.268.407.407q0,6.543,0,13.1a9.521,9.521,0,0,0,.275,3.217l.588.585a3.135,3.135,0,0,0,1.914.363c.625,0,1.251,0,1.91,0V38.04a2.552,2.552,0,0,1-.886.284c-.526.046-1.084.782-1.155,1.4a4.478,4.478,0,0,0,0,.539,41.231,41.231,0,0,0,4.422,4.82c.072,0,.182-.02.25.022.75.468,1.291-.036,1.853-.4.476-.308.669-.87,1.067-1.255.7-.678,1.357-1.4,2.079-2.054a1.964,1.964,0,0,0,.715-1.785,1.447,1.447,0,0,0-.026-.262,2.9,2.9,0,0,0-.824-1.047,1.068,1.068,0,0,1-1.013-.376V35.517h7.882v2.528c-.326.136-.625.385-.947.245a1.976,1.976,0,0,0-.9,2.13,2.278,2.278,0,0,0,.74,1c.688.691,1.386,1.371,2.065,2.07a3.252,3.252,0,0,1,.627.775,2.722,2.722,0,0,0,1.365.993.573.573,0,0,0,.691-.093c.127-.145.3-.028.455-.075a42.547,42.547,0,0,0,4.394-4.773c.194-.649-.207-1.135-.463-1.658-.43-.431-1.08-.284-1.564-.614V35.5H32.4c.2-.268.63-.211.68-.6.206-.793.068-1.057-.673-1.18a14.433,14.433,0,0,0-1.788-.054c-.33-.013-.694.043-.944-.346.269-.518.749-.391,1.15-.392,2.8-.013,5.594,0,8.392-.007a5.734,5.734,0,0,0,1.406-.11,1.549,1.549,0,0,0,1.264-1.141,3.632,3.632,0,0,1,3.025-2.864,1.688,1.688,0,0,0,.922-1.623q.048-7.136,0-14.271a1.788,1.788,0,0,0-1.261-1.788,3.612,3.612,0,0,0-1.121-.123q-10.563-.007-21.13,0a3.114,3.114,0,0,0-.466.03c-.355-.012-.734.094-1.044-.184.152-.6.152-.6,1.213-.557,7.572.02,15.14.054,22.708-.013a5.23,5.23,0,0,1,1.569.168c.333.812.366,22.053.036,23.032-.485.272-1.037.119-1.558.2-2.822-.061-5.645-.036-8.467-.014-1.076.009-1.323.242-1.348,1.051" transform="translate(0 0)" fill="#040506"/>
        <path id="Trazado_614780" data-name="Trazado 614780" d="M35.708,19.814a2.63,2.63,0,0,0-1.952.743,2.735,2.735,0,0,0-1.09,1.808,1.388,1.388,0,0,1-.663,1.2,5.9,5.9,0,0,1-2.364.208c-3.11.007-6.22,0-9.373,0v1.306H23.7l.266.266c.1.2,0,.45.032.692.2-.033.329-.226.578-.2.433.043.873.012,1.31.012-.085-.4.294-.5.468-.754h9.351A1.149,1.149,0,0,0,36,24.326q.056-1.872,0-3.746a1,1,0,0,0-.29-.766" transform="translate(9.076 8.869)" fill="#a2d2c8"/>
        <path id="Trazado_614781" data-name="Trazado 614781" d="M5.2,21.883c.4-.084.508.3.753.468v4.714c.812.152,28.735.214,32.133.067a4.8,4.8,0,0,1,1.249-2.456,5.845,5.845,0,0,1,2.48-1.346V8.863H18.988A2.143,2.143,0,0,0,18.6,9.91c-.3,1.135-2.418,4.3-3.3,4.792a17.689,17.689,0,0,0-2.257,1.513,5.744,5.744,0,0,1-2.541.83c-.246.77.054,1.509-.2,2.2.01.188-.184.227-.259.365H9.252c-.185-.155-.34-.3-.274-.553-.23-.407.012-.869-.2-1.4a13.011,13.011,0,0,0-2.822-.484v2.547c-.1.1-.162.162-.284.284h-.66A2.255,2.255,0,0,0,5.2,21.883" transform="translate(2.193 3.969)" fill="#49ad97"/>
        <path id="Trazado_614782" data-name="Trazado 614782" d="M11.828,1.8c-.649.1-.915-.517-1.412-.7a1.869,1.869,0,0,0-2.085.72c-.683-.035-1.3-.391-1.992-.12-.67.262-.734.977-1.184,1.39-1.035.065-1.273-.125-2.014,1.077a1.85,1.85,0,0,1-.009.536c-.1.355-.152.727-.62.888a1.187,1.187,0,0,0-.889,1.193c0,.109-.207.143-.181.3.249.237.106.647.389.889-.123.227-.136.53-.372.685s-.126.491-.4.568V10.35l.76,1.218c-.13.339-.255.665-.385,1-.013.181.2.252.217.473a.864.864,0,0,0,.55.835,1.3,1.3,0,0,1,.928,1.584c.747,1.21.985,1.021,2.037,1.089a5.033,5.033,0,0,1,.6.874c.2.476.6.515,1,.605.537.12,1-.236,1.575-.187a1.924,1.924,0,0,0,2.086.714c.177-.311.646-.376.934-.707.068-.078.3-.012.459-.012a5.078,5.078,0,0,0,2.529-1.323,1.853,1.853,0,0,0,.556-1.875.415.415,0,0,0-.262-.119c-.378.025-.6.305-.87.518A6.567,6.567,0,0,1,5.323,5.009,6.358,6.358,0,0,1,12.15,3.68a1.61,1.61,0,0,1,1.165,1.125A2.663,2.663,0,0,0,14.6,6.114a1.419,1.419,0,0,1,1.179.877c.094.216.2.447.473.514a1.035,1.035,0,0,0,.006-1.572c-.831-.927-1.3-2.083-2.1-3.017A5.511,5.511,0,0,0,11.828,1.8" transform="translate(0.477 0.467)" fill="#fca238"/>
        <path id="Trazado_614783" data-name="Trazado 614783" d="M22.847,29.9c.12-.043.169-.2.068-.362H21.54c-.109-.174-.24-.387-.462-.746V22.576H17.506v6.46l-.468.466H15.731l-.336.316c1.4,1.154,2.4,2.693,3.7,3.829L22.847,29.9" transform="translate(6.894 10.11)" fill="#dd276f"/>
        <path id="Trazado_614784" data-name="Trazado 614784" d="M5.751,19.5c0-.437-.03-.876.012-1.309.025-.249-.168-.376-.2-.578-.356-.064-.35-.437-.568-.691v-2.33a1.556,1.556,0,0,0-1.322-.376V27.593H21.189v-1.3h-.915q-6.741,0-13.479,0a1.9,1.9,0,0,1-1.578-.623A25.263,25.263,0,0,1,4.98,21a6.875,6.875,0,0,1,.22-1.145.434.434,0,0,1,.55-.355" transform="translate(1.645 6.352)" fill="#a2d2c8"/>
        <path id="Trazado_614785" data-name="Trazado 614785" d="M31.014,25.589v5.283H33c.143-.843.2-20.516.064-23.963H31.014a1.421,1.421,0,0,0-.188,1.32c.311.271.623.541.944.819V24.032c0,.931-.041,1.009-.756,1.556" transform="translate(13.77 3.094)" fill="#6bbaa9"/>
        <path id="Trazado_614786" data-name="Trazado 614786" d="M37.969,8.229c.172.013.188-.1.188-.23V6.909H15.121a1.159,1.159,0,0,0-.19,1.32Z" transform="translate(6.627 3.094)" fill="#a2d3c8"/>
        <path id="Trazado_614787" data-name="Trazado 614787" d="M7.387,27.843c-.051.272-.33.356-.484.589H5.514c-.009.151-.014.271-.014.266l3.848,3.845c1.342-1.1,2.308-2.655,3.709-3.824-.437-.583-1.045-.174-1.671-.379l-.413-.549v-2.4a5.568,5.568,0,0,0-3.382-.149c-.248.944.042,1.794-.206,2.6" transform="translate(2.463 11.218)" fill="#dd276f"/>
        <path id="Trazado_614788" data-name="Trazado 614788" d="M27.342,27.843c-.051.272-.33.356-.484.589H25.469c-.009.151-.014.271-.014.266l3.853,3.85c1.32-1.121,2.292-2.671,3.77-3.87l-.407-.119c.033-.043.067-.085.1-.127H31.41l-.481-.64v-2.4a5.568,5.568,0,0,0-3.382-.149c-.248.944.042,1.794-.206,2.6" transform="translate(11.399 11.218)" fill="#dd276f"/>
        <path id="Trazado_614789" data-name="Trazado 614789" d="M10.82,14.064a2.529,2.529,0,0,1-.56,1.617c-.046.042-.006.178-.006.269.062.08.126.08.188,0h.85c1.037-.662,1.213-.94,1.228-1.952.375-.6,1.329-.67,1.377-1.3.327-.806-.106-1.338-.055-1.914a2.456,2.456,0,0,0,.754-1.86c-.279-.376-.342-.895-.753-1.176-.075-.6.388-1.125.083-1.9-.135-.57-.908-.767-1.409-1.323A1.831,1.831,0,0,0,11.19,2.549c-.243-.026-.627.093-.937-.184-.064-.08-.126-.08-.19,0a4.722,4.722,0,0,1,.775,2.011,2.3,2.3,0,0,1,1.49,2.369.148.148,0,0,1-.187.149c-.207.565.119,1.093.113,1.651a12.017,12.017,0,0,1-.232,2.872,2.64,2.64,0,0,1-1.2,2.647" transform="translate(4.507 1.033)" fill="#f3831b"/>
        <path id="Trazado_614790" data-name="Trazado 614790" d="M8.629,19.241c.187.016.188-.113.188-.242,0-.591,0-1.183,0-1.771,1.92-.159,3.111-.727,3.637-1.71a4.14,4.14,0,0,0,3.139-3.056,4.364,4.364,0,0,0,1.723-3.6H16.24c-.282,1.132-.5,2.331-1.719,2.9-.185,1.7-1.377,2.373-2.806,2.778-.521.982-1.446,1.443-3.087,1.533Z" transform="translate(3.864 3.97)" fill="#30a58c"/>
        <path id="Trazado_614791" data-name="Trazado 614791" d="M6.8,28.089c.187.014.188-.114.188-.243,0-.717,0-1.433,0-2.209h3.4V24.514c-1.174-.022-2.35,0-3.588-.013Z" transform="translate(3.047 10.973)" fill="#db0c56"/>
        <path id="Trazado_614792" data-name="Trazado 614792" d="M26.758,28.089c.187.014.188-.114.188-.243,0-.717,0-1.433,0-2.209h3.4V24.514c-1.174-.022-2.35,0-3.588-.013Z" transform="translate(11.983 10.973)" fill="#dc0c56"/>
        <path id="Trazado_614793" data-name="Trazado 614793" d="M5.63,15.006a4.844,4.844,0,0,0,2.832.555v1.095c0,.127.009.252.19.237v-2.7c-1.167.6-2.043-.028-3.022-.5Z" transform="translate(2.521 6.129)" fill="#30a48a"/>
        <path id="Trazado_614794" data-name="Trazado 614794" d="M3.673,14.7A1.979,1.979,0,0,0,5,15.083V14.03A2.606,2.606,0,0,1,3.72,13.1a14.245,14.245,0,0,0-.046,1.61" transform="translate(1.645 5.865)" fill="#6ab9a8"/>
        <path id="Trazado_614795" data-name="Trazado 614795" d="M15.247,8.229c-.091-.266.226-.41.194-.669a5.43,5.43,0,0,1-.006-.652H14.16c-.1.411-.007.837-.068,1.32Z" transform="translate(6.311 3.094)" fill="#69b7a6"/>
        <path id="Trazado_614796" data-name="Trazado 614796" d="M11.144,11.731h-.188c-.473.161-.822.55-1.322.688-.22.059-.424.025-.638.071-.161.184-.165.518-.5.562a.144.144,0,0,0,.149.185c.343.009.688,0,1.032,0a3.2,3.2,0,0,0,1.462-1.51" transform="translate(3.805 5.254)" fill="#f0811b"/>
        <path id="Trazado_614797" data-name="Trazado 614797" d="M10.766,2.761h.188a3.147,3.147,0,0,0-.46-.754A1.782,1.782,0,0,0,8.5,1.538c-.009,0,0,.059,0,.091a.435.435,0,0,1,.365.552,2.112,2.112,0,0,1,1.632.575c.042.045.178.006.269.006" transform="translate(3.805 0.637)" fill="#f0811b"/>
        <path id="Trazado_614798" data-name="Trazado 614798" d="M13.649,19.085a2.742,2.742,0,0,1,.366.691A3.575,3.575,0,0,0,15,21.442c.122.145.277.259.4.4a5.905,5.905,0,0,0,2.936,1.8,11.681,11.681,0,0,0,2.133.31,11.215,11.215,0,0,0,2.775-.812,6.649,6.649,0,0,0,2.492-2.33,9.349,9.349,0,0,0,.9-1.985,1.258,1.258,0,0,0,.042-.453c.009-.5-.006-1.006,0-1.509a5.731,5.731,0,0,0-1.746-4.183,7.339,7.339,0,0,0-2.925-1.829c-.337-.122-.689.061-.964-.171s-.6-.1-.9-.111c-.324-.007-.685-.116-.958.18a2.613,2.613,0,0,0-1.32.235,5.1,5.1,0,0,0-1.407.7,6.868,6.868,0,0,0-2.725,3.622,4.032,4.032,0,0,0-.269,1.582c.055.51-.178,1.037.162,1.539.116.171.019.485.019.652" transform="translate(6.019 4.722)" fill="#040506"/>
        <path id="Trazado_614799" data-name="Trazado 614799" d="M11.013,21.078a5.9,5.9,0,0,0,.255-2.4,3.554,3.554,0,0,0-1.009-1.331H7.57l-.815.814c.071.5-.253.953-.229,1.488a5.28,5.28,0,0,0,.282,1.209.854.854,0,0,0,.624.692c.138.032.462.016.489.305.505,0,.977-.028,1.445.007a1.636,1.636,0,0,0,1.451-.589,2.7,2.7,0,0,1,.2-.2" transform="translate(2.922 7.769)" fill="#040707"/>
        <path id="Trazado_614800" data-name="Trazado 614800" d="M27.648,14.436c.363,0,.99-.026,1.614.007a1.266,1.266,0,0,0,1.436-.932.546.546,0,0,1,.126-.232l.071-.069c0-.562,0-1.126,0-1.691A1.762,1.762,0,0,0,29.259,9.9c-.534.016-1.068,0-1.585,0l-.89.452a.753.753,0,0,1-.405.536v2.487a1.715,1.715,0,0,0,1.27,1.054" transform="translate(11.813 4.436)" fill="#050707"/>
        <path id="Trazado_614801" data-name="Trazado 614801" d="M27.41,19.261l.473.465h.55c.287-.113.252-.466.478-.644V14.509l-.572-.418h-.485l-.444.54Z" transform="translate(12.275 6.311)" fill="#000b09"/>
        <path id="Trazado_614802" data-name="Trazado 614802" d="M13.7,4.983A3.893,3.893,0,0,1,12.57,3.851a5.22,5.22,0,0,1-1.911-.333,5.639,5.639,0,1,0,3.559,7.06,5.1,5.1,0,0,0-.032-3.511A5.835,5.835,0,0,1,13.7,4.983" transform="translate(1.433 1.434)" fill="#ffe9c9"/>
        <path id="Trazado_614803" data-name="Trazado 614803" d="M14.084,5.378l-.388.754c.114.211.264.462.384.727s.182.556.324.808c.151.268.055.563.206.861a2.259,2.259,0,0,1,.026,1.3,7.857,7.857,0,0,1-.471,1.593,5.164,5.164,0,0,1-3.158,2.946,5.255,5.255,0,0,1-3.478.029,5.634,5.634,0,0,1-3.213-2.849,3.288,3.288,0,0,1-.423-1.706,12.106,12.106,0,0,1,.138-2.007,4.986,4.986,0,0,1,.992-1.949,4.666,4.666,0,0,1,1.29-1.168,5.335,5.335,0,0,1,2.671-.857,5.063,5.063,0,0,1,2.761.628,1.666,1.666,0,0,0,.7.138c.2-.084.266-.347.505-.378.081-.32-.145-.569-.223-.893-.534-.132-.977-.53-1.577-.662-.482-.107-.974-.249-1.459-.308a1.848,1.848,0,0,0-1.426.165,3.981,3.981,0,0,0-2.112.581A6.793,6.793,0,0,0,2.54,7.754a7.035,7.035,0,0,0-.126,2.558,6.221,6.221,0,0,0,.906,2.437,6.745,6.745,0,0,0,2.972,2.67,7.137,7.137,0,0,0,1.849.559,5.164,5.164,0,0,0,1.151.151,6.605,6.605,0,0,0,4.5-1.869c.08-.083.132-.224.291-.2a2.665,2.665,0,0,0,1.51-2.453,3.489,3.489,0,0,0,.385-1.522,14.057,14.057,0,0,1,0-1.675,3.488,3.488,0,0,0-.385-1.52,2.574,2.574,0,0,0-.859-1.51Z" transform="translate(1.053 1.039)" fill="#050506"/>
        <path id="Trazado_614804" data-name="Trazado 614804" d="M11.966,8.734a4.807,4.807,0,0,1-1.047,1.9c-.148.191-.414.282-.463.553h.188c.7.029,1.012-.534,1.239-1a1.442,1.442,0,0,0,.174-1.448c-.009-.013-.059,0-.091,0" transform="translate(4.682 3.91)" fill="#f29a34"/>
        <path id="Trazado_614805" data-name="Trazado 614805" d="M11.891,6.671c0,.24-.009.482,0,.722A.9.9,0,0,0,12,8a5.974,5.974,0,0,0,.087-1.325h-.2" transform="translate(5.324 2.988)" fill="#f9962d"/>
        <path id="Trazado_614806" data-name="Trazado 614806" d="M19.522,21.98a5.094,5.094,0,0,0,2.5-.543,5.273,5.273,0,0,0,1.9-1.682,4.549,4.549,0,0,0,.937-3.358,4.493,4.493,0,0,0-1.319-3.026,7.155,7.155,0,0,0-1.632-1.289,4.774,4.774,0,0,0-1.41-.444,5.12,5.12,0,0,0-4.688,1.59A4.307,4.307,0,0,0,14.5,16.445a8.9,8.9,0,0,0,.158,1.813,4.576,4.576,0,0,0,1.672,2.579,7.262,7.262,0,0,0,2.1,1.05,6.818,6.818,0,0,0,1.087.094" transform="translate(6.491 5.189)" fill="#c1e1da"/>
        <path id="Trazado_614807" data-name="Trazado 614807" d="M9.246,18.258h-1.4l-.239.239v1.4h1.64Z" transform="translate(3.406 8.177)" fill="#beded7"/>
        <path id="Trazado_614808" data-name="Trazado 614808" d="M27.291,10.97v1.417c.469.5,1.076.091,1.637.321V10.97Z" transform="translate(12.222 4.913)" fill="#bbdad3"/>
        <path id="Trazado_614809" data-name="Trazado 614809" d="M9.715,6.062,9.16,5.61H8.684C7.6,6.6,6.809,7.834,5.774,8.9V9.68c.071.072.139.139.233.235H6.8c.407-.239.51-.735.863-1.045A3.5,3.5,0,0,0,8.49,7.9a3.9,3.9,0,0,1,.782-.811,1.259,1.259,0,0,0,.443-1.027" transform="translate(2.586 2.513)" fill="#090909"/>
        <path id="Trazado_614810" data-name="Trazado 614810" d="M8.173,7.7c-.129.133-.3.305-.456.468v.563l.539.4c.246.188.427-.148.7-.14l.274-.539c.051-.2-.3-.25-.184-.488-.261-.043-.426-.317-.87-.268" transform="translate(3.456 3.448)" fill="#1a1815"/>
        <path id="Trazado_614811" data-name="Trazado 614811" d="M5.5,5.942v.55c.224.227.381.569.888.482L6.8,6.407V5.742c-.258-.019-.416-.339-.725-.268-.262.056-.356.321-.573.468" transform="translate(2.463 2.447)" fill="#131210"/>
        <path id="Trazado_614812" data-name="Trazado 614812" d="M19.593,15.671v-.8a.226.226,0,0,1,.243-.094,1.8,1.8,0,0,0,1.057-.25v-.832l-.611-.413h-.607c-.067-.361-.332-.537-.546-.763h-.565c-.036.032-.1.062-.126.111a1.576,1.576,0,0,1-1.112.932c-.828.224-.893,1.021-1.134,1.674.2.3.091.718.4.969a.513.513,0,0,1,.193.416c.446.043.728.53,1.265.4v.9c-.213.143-.5.023-.843.077l-.313.508-.111-.091v.623a1.3,1.3,0,0,0,1.187.45c.317.2.288.591.588.754h.52c.42-.185.481-.64.785-.924h.576a3.361,3.361,0,0,0,1.045-1.455v-.846a1.984,1.984,0,0,0-1.888-1.346" transform="translate(7.252 5.606)" fill="#050607"/>
        <path id="Trazado_614813" data-name="Trazado 614813" d="M18.563,16.553c.455.062.281-.387.478-.436-.148-.135-.313-.284-.478-.436Z" transform="translate(8.313 7.023)" fill="#abc9c2"/>
        <path id="Trazado_614814" data-name="Trazado 614814" d="M17.587,15.01v-.924c-.472.455-.472.455,0,.924" transform="translate(7.718 6.308)" fill="#b6d8d0"/>
      </g>
    </g>
    <g transform="matrix(1, 0, 0, 1, 801.19, 2015.03)" filter="url(#Elipse_5168)">
      <circle id="Elipse_5168-2" data-name="Elipse 5168" cx="42.5" cy="42.5" r="42.5" transform="translate(367 24)" fill="#ffb500"/>
    </g>
    <g id="Grupo_876352" data-name="Grupo 876352" transform="translate(1187.192 2058.031)">
      <g id="Grupo_876351" data-name="Grupo 876351" transform="translate(0 0)" clip-path="url(#clip-path-3)">
        <path id="Trazado_614763" data-name="Trazado 614763" d="M0,36.894v1.568c.213.165.466.077.7.077,2.876.008,5.754.024,8.63-.006a5.675,5.675,0,0,1,2.092.5c1.033.39,2.053.818,3.1,1.144.57.176,1.061.593,1.7.568,1.124.548,2.35.836,3.494,1.313,1.02.426,2.09.713,3.092,1.181.306.142.631.263.945.373a3.268,3.268,0,0,0,1.183.264c1.5-.034,3-.013,4.488-.013A4.652,4.652,0,0,0,30.954,42.7c.664-.554,1.318-1.146,1.989-1.686A18.3,18.3,0,0,1,34.7,39.531,9.917,9.917,0,0,0,36.11,38.3c.639-.593,1.313-1.152,1.978-1.7,1.021-.849,2-1.751,3.043-2.578a18.6,18.6,0,0,0,1.762-1.531,17.448,17.448,0,0,1,1.766-1.525c.6-.468,1.067-1.043,1.623-1.484a1.39,1.39,0,0,0-.543-1.109C45,27.635,44.266,26.9,43.527,26.16q1.1-1.1,2.209-2.2a1.379,1.379,0,0,0,.551-1.014L35.643,12.314h-.454c-3.353,3.351-6.706,6.7-10.012,10L14.441,11.6h-.846C10.127,15.06,6.67,18.515,3.138,22.042v.563l5.7,5.7a.822.822,0,0,1-.079.115.135.135,0,0,1-.075.037H0v1.468c.223.433.636.434,1.034.435,2.756.011,5.51.008,8.265,0a5.144,5.144,0,0,0,2.444-.728,14.526,14.526,0,0,1,8.134-1.676c1.859.127,3.733.022,5.6.025a2.065,2.065,0,0,1,1.141.181,5.162,5.162,0,0,1,.049,2.168c-.376.345-.792.244-1.177.246-2.234.014-4.47-.01-6.7.016-.509.005-1.007.088-1.137.7a1.12,1.12,0,0,0,.622,1.219c.206.134.429.235.645.35.865.464,1.779.82,2.666,1.233,1.968.919,3.946,1.817,5.916,2.732a2.081,2.081,0,0,0,2.3-.274c3.856-2.814,7.733-5.6,11.607-8.387a1.587,1.587,0,0,1,.934-.462,4.009,4.009,0,0,1,1.393,1.356,1.107,1.107,0,0,1-.508.733c-4.532,3.924-9.11,7.8-13.647,11.713a2.843,2.843,0,0,1-1.76.648A12.153,12.153,0,0,1,22.46,41.2c-3.735-1.454-7.52-2.781-11.277-4.179a5.517,5.517,0,0,0-1.969-.386c-2.694.008-5.387,0-8.081.006A1.514,1.514,0,0,0,0,36.894" transform="translate(0 3.117)" fill="#040506"/>
        <path id="Trazado_614764" data-name="Trazado 614764" d="M0,33.6c3.089,0,6.18.019,9.27-.014a6.072,6.072,0,0,1,2.1.469c1.067.376,2.116.8,3.176,1.2.9.337,1.8.669,2.705,1,.93.341,1.851.709,2.794,1.007.6.189,1.188.4,1.755.639,1,.411,2.044.675,3.013,1.144a1.322,1.322,0,0,0,.617.058c1.162.009,2.324,0,3.345,0a17.385,17.385,0,0,0,2.252-1.764A11.979,11.979,0,0,0,32.438,36.1c.639-.593,1.313-1.152,1.978-1.7,1.021-.849,1.972-1.781,3.05-2.567.549-.4,1.029-.908,1.54-1.365.624-.561,1.266-1.111,1.91-1.641,1.048-.864,2.006-1.84,3.126-2.617a3.887,3.887,0,0,1,.364-.2,11.757,11.757,0,0,0-1.089-1.153c-.318-.331-.647-.65-.985-.987-.675.494-1.35.992-2.031,1.482-1.393,1-2.756,2.053-4.168,3.024-1.38.949-2.713,1.968-4.1,2.909a26.284,26.284,0,0,0-2.468,1.831c-.189.164-.44.279-.626.469a3.538,3.538,0,0,1-2.11-.639c-1.287-.657-2.616-1.226-3.923-1.833-1.408-.653-2.812-1.33-4.247-1.93a1.662,1.662,0,0,1-.846-.671c.077-.291-.194-.712.374-.98h8.785V24.422H16.19a2.438,2.438,0,0,0-1.41.363c-1.4.608-2.821,1.169-4.211,1.8a2.875,2.875,0,0,1-1.191.24c-2.845-.029-5.69-.016-8.535-.014A1.168,1.168,0,0,1,0,26.624Z" transform="translate(0 6.416)" fill="#f3c5bb"/>
        <path id="Trazado_614765" data-name="Trazado 614765" d="M19.441,2.676c-.07.218-.308.2-.448.242a6.781,6.781,0,0,0-2.351,1.427,8.183,8.183,0,0,0-1.729,2.118,5.947,5.947,0,0,0-.869,3.305,6.289,6.289,0,0,1,0,.915,5.393,5.393,0,0,0,.552,2.431A6.958,6.958,0,0,0,16.68,16a18.9,18.9,0,0,0,1.577,1.049c.48.329,1.095.311,1.568.643.808-.06,1.6.4,2.39.167a17.726,17.726,0,0,0,2.087-.488,7.843,7.843,0,0,0,1.883-.972,7.463,7.463,0,0,0,2.947-4.328,10.636,10.636,0,0,1,.341-1.96,11.633,11.633,0,0,0-.733-3.086A7.309,7.309,0,0,0,27.088,4.6a8.327,8.327,0,0,0-3.674-1.979,23.994,23.994,0,0,0-2.958-.151c-.292.294-.678.129-1.015.206" transform="translate(3.77 0.664)" fill="#050506"/>
        <path id="Trazado_614766" data-name="Trazado 614766" d="M15.5,1.747l.809,1.261A10.179,10.179,0,0,1,21.288,1.64a9.807,9.807,0,0,1,4.863,1.32c.516-.242.586-.792.865-1.186A10.3,10.3,0,0,0,15.5,1.747" transform="translate(4.165 0.001)" fill="#060607"/>
        <path id="Trazado_614767" data-name="Trazado 614767" d="M13.791,11.915a6.75,6.75,0,0,1-.582-2.425c.015-.274-.2-.586-.143-.93H11.609a8.293,8.293,0,0,0,.769,4.023,2.923,2.923,0,0,0,1.413-.669" transform="translate(3.112 2.301)" fill="#080908"/>
        <path id="Trazado_614768" data-name="Trazado 614768" d="M24.206,16.574a6,6,0,0,1-.549-1.364,9.208,9.208,0,0,1-3.512.707v1.566a8.939,8.939,0,0,0,4.061-.908" transform="translate(5.415 4.089)" fill="#080909"/>
        <path id="Trazado_614769" data-name="Trazado 614769" d="M28.974,8.558H27.54a12.453,12.453,0,0,1-.723,3.41c.25.428.837.326,1.213.61.528-.089.477-.613.539-.9.114-.533.331-1.043.393-1.581a13.955,13.955,0,0,0,.011-1.538" transform="translate(7.208 2.301)" fill="#080808"/>
        <path id="Trazado_614770" data-name="Trazado 614770" d="M9.809,27.693a21.824,21.824,0,0,1,2.326-1.1,3.861,3.861,0,0,1,.612-1.949,6.035,6.035,0,0,1,1.689-1.854,4.815,4.815,0,0,1,1.687-.773,5.646,5.646,0,0,1,3.927.534,5.731,5.731,0,0,1,2.574,3.082h2.738L12.788,13.075l-8.807,8.8,5.828,5.821" transform="translate(1.07 3.515)" fill="#2b9c5c"/>
        <path id="Trazado_614771" data-name="Trazado 614771" d="M30.632,28.708l.207.207c.044.081.072.067.133,0a13.268,13.268,0,0,1,1.817-1.387c.992-.8,2.048-1.526,3.106-2.242a31.018,31.018,0,0,0,2.813-2.625,1.142,1.142,0,0,0,0-.143.155.155,0,0,0-.029-.079Q34.33,18.09,29.986,13.75c-.042,0-.072,0-.1,0s-.071-.009-.088.008c-3.031,3.025-6.061,6.051-9.123,9.107A6.8,6.8,0,0,0,21.681,24c.206-.088.242-.279.346-.44a4.921,4.921,0,0,1,2.935-2.37c.728-.17,1.51-.6,2.291-.1a4.086,4.086,0,0,1,2.063.787,4.81,4.81,0,0,1,1.894,2.51c.173.447.057.906.307,1.345.235.414-.145.9-.193,1.372a2.567,2.567,0,0,1-.5,1.256c-.066.086-.1.247-.194.35" transform="translate(5.556 3.696)" fill="#2b9c5c"/>
        <path id="Trazado_614772" data-name="Trazado 614772" d="M22.585,23.457c1.377,1.375,2.694,2.69,4.023,4.02a3.377,3.377,0,0,0,2.749-3.912,3.445,3.445,0,0,0-1-1.963,3.059,3.059,0,0,0-1.831-.887,3.3,3.3,0,0,0-3.94,2.742" transform="translate(6.07 5.556)" fill="#7cba87"/>
        <path id="Trazado_614773" data-name="Trazado 614773" d="M23.8,31.7c1.318-1.061,2.8-1.932,4.1-3.036a39.685,39.685,0,0,0-4.022-3.923.382.382,0,0,0-.075.039c-.022.018-.052.044-.052.069q0,1.736,0,3.47l-.486.485H17.545c1.086.381,2.022,1.047,3.084,1.467S22.7,31.294,23.8,31.7" transform="translate(4.716 6.65)" fill="#2b9b5c"/>
        <path id="Trazado_614774" data-name="Trazado 614774" d="M11.911,23.654a2.28,2.28,0,0,1,1.218-.18c1.825,0,3.648,0,5.514,0a1.743,1.743,0,0,0-.708-1.177A3.716,3.716,0,0,0,15.8,21.284a3.6,3.6,0,0,0-3.888,2.37" transform="translate(3.201 5.712)" fill="#7bba86"/>
        <path id="Trazado_614775" data-name="Trazado 614775" d="M21.052,15.935a6.144,6.144,0,0,0,4.749-1.88A5.8,5.8,0,0,0,27.51,9.719a6.126,6.126,0,0,0-6.18-6.076,6.45,6.45,0,0,0-2.588.6,6.29,6.29,0,0,0-2,1.6A4.532,4.532,0,0,0,15.614,7.57a6.242,6.242,0,0,0-.414,2.4,6.475,6.475,0,0,0,1.956,4.321,5.416,5.416,0,0,0,3.9,1.646" transform="translate(4.083 0.979)" fill="#ffd158"/>
        <path id="Trazado_614776" data-name="Trazado 614776" d="M19.83,13.592c.023.192.039.336.06.514h1.583c.143-.089-.025-.31.076-.458a3.024,3.024,0,0,0,2.172-1.882c0-.27,0-.634,0-1a1.315,1.315,0,0,0-.8-1.232c-.452-.251-.96-.345-1.378-.6V7.009c.435.136.462.593.775.862h1.373a1.381,1.381,0,0,0-.115-.789A2.379,2.379,0,0,0,21.859,5.51a.4.4,0,0,1-.336-.364c-.01-.19-.211-.209-.246-.357H20.151a1.076,1.076,0,0,0-.41.636,2.854,2.854,0,0,0-2.081,1.943c0,.132.008.377,0,.619a1.673,1.673,0,0,0,1.007,1.6c.374.217.842.221,1.172.581v1.709c-.478-.058-.452-.6-.79-.837H17.685a1.863,1.863,0,0,0,.626,1.625c.414.449.8.985,1.52.927" transform="translate(4.746 1.288)" fill="#050506"/>
        <path id="Trazado_614777" data-name="Trazado 614777" d="M21.154,10.516c.077-.268.329-.473.264-.831-.209-.056-.368-.279-.684-.278v1.237c.17.11.217-.3.42-.128" transform="translate(5.573 2.529)" fill="#f7c352"/>
        <path id="Trazado_614778" data-name="Trazado 614778" d="M19.524,6.493a2.23,2.23,0,0,0-.707.933c.055.39.467.336.7.636a7.464,7.464,0,0,0,.011-1.568" transform="translate(5.058 1.746)" fill="#edbb4f"/>
      </g>
    </g>
  </g>
</svg>
