<svg xmlns="http://www.w3.org/2000/svg" xmlns:xlink="http://www.w3.org/1999/xlink" width="123" height="123" viewBox="0 0 123 123">
  <defs>
    <filter id="Elipse_5172" x="0" y="0" width="123" height="123" filterUnits="userSpaceOnUse">
      <feOffset dy="3" input="SourceAlpha"/>
      <feGaussianBlur stdDeviation="3" result="blur"/>
      <feFlood flood-opacity="0.161"/>
      <feComposite operator="in" in2="blur"/>
      <feComposite in="SourceGraphic"/>
    </filter>
    <clipPath id="clip-path">
      <rect id="Rectángulo_325356" data-name="Rectángulo 325356" width="54.77" height="54.437" fill="none"/>
    </clipPath>
  </defs>
  <g id="Grupo_877374" data-name="Grupo 877374" transform="translate(-485.615 -5187.631)">
    <g transform="matrix(1, 0, 0, 1, 485.62, 5187.63)" filter="url(#Elipse_5172)">
      <circle id="Elipse_5172-2" data-name="Elipse 5172" cx="52.5" cy="52.5" r="52.5" transform="translate(9 6)" fill="#ffb500"/>
    </g>
    <g id="Grupo_876366" data-name="Grupo 876366" transform="translate(519.615 5218.631)">
      <g id="Grupo_876365" data-name="Grupo 876365" transform="translate(0 0)" clip-path="url(#clip-path)">
        <path id="Trazado_614935" data-name="Trazado 614935" d="M3.39,55.043h26c.156-.222.483-.1.642-.321.348-.061.783-.077.934-.406s.6-.3.663-.675c.026-.117-.042-.26.083-.361.322-.048.572.182.867.207.02.087.038.159.07.287.572-.218.925.5,1.491.293l.122.335c.867-.092,1.652.384,2.511.32a.975.975,0,0,0,.695.159q1.39,0,2.779,0a.983.983,0,0,0,.7-.159A2.769,2.769,0,0,0,42,54.576c.3-.121.658.084.983-.158.136-.1.41-.017.59-.017.118-.069.088-.156.1-.291.58.043,1.063-.394,1.667-.36.259-.562.852-.473,1.335-.684.093-.147.085-.431.412-.434a.783.783,0,0,0,.638-.4c.173-.227.555-.293.865-.439.269-.5.285-.517.745-.6.138-.05.083-.182.132-.262.143-.231.525-.2.6-.459s.243-.338.449-.455c.158-.089.238-.317.348-.485.061-.093.031-.2.186-.286.287-.158.346-.613.793-.662-.15-.436.491-.588.329-1.021.248-.093.416-.17.5-.447s.02-.721.462-.835c.106-.33.22-.658.316-.991.022-.074.018-.151.1-.2h.21a9.814,9.814,0,0,1,.339-1.6c.163-.123.155-.36.321-.482-.121-.4.188-.736.174-1.134-.012-.349-.13-.725.135-1.063.077-.1.012-.311.012-.471,0-.747-.011-1.494,0-2.241a3.843,3.843,0,0,0-.156-1.137c-.1-.365.068-.753-.145-1.145-.133-.245-.025-.62-.025-.893-.078-.134-.167-.088-.278-.107a5.139,5.139,0,0,0-.421-1.563c-.021-.044-.137-.041-.272-.076.127-.515-.228-.936-.34-1.424-.044-.193-.314-.378-.461-.588-.129-.184-.035-.551-.417-.536a1.619,1.619,0,0,0-.366-.733,2.5,2.5,0,0,1-.553-.8c-.05-.172-.455-.237-.51-.41-.123-.384-.444-.447-.715-.605a.344.344,0,0,0-.481,0l-.321.16a.456.456,0,0,0-.148.2,1.509,1.509,0,0,0-.039.627,2,2,0,0,0,.485.994,12.028,12.028,0,0,1,3.054,6.283,1.078,1.078,0,0,0,.076.227.94.94,0,0,1,.182.7c-.01,1.2-.017,2.4,0,3.6a1.05,1.05,0,0,1-.173.819,14.706,14.706,0,0,1-2.236,5.349A14.51,14.51,0,0,1,43.76,52.28a8.6,8.6,0,0,0-1.378.411.892.892,0,0,1-.684.192,24.184,24.184,0,0,1-5.509-.005.8.8,0,0,1-.676-.192c-.478-.309-1.084-.242-1.567-.539a13.948,13.948,0,0,1-6.275-4.778,15.067,15.067,0,0,1-1.817-3.451,17.364,17.364,0,0,1-.885-3.717,5.351,5.351,0,0,1-.173-2.064,1.12,1.12,0,0,1,.224-.785,10.058,10.058,0,0,0,.411-2.06.912.912,0,0,1,.213-.633A14.657,14.657,0,0,1,28.6,29.678a13.248,13.248,0,0,1,5.589-3.712,15.136,15.136,0,0,1,8.013-.549,1.01,1.01,0,0,1,.679.2,19.574,19.574,0,0,1,3.877,1.829c.709.412,1.07.3,1.408-.33-.073-.2.145-.315.161-.49l-.387-.779c-.109-.094-.386.092-.5-.175-.1-.229-.36-.146-.528-.169-.027-.129-.043-.2-.056-.263-.156-.116-.361.023-.511-.166a.6.6,0,0,0-.462-.19c-.278.03-.258-.294-.341-.293-.293,0-.5-.251-.8-.207-.315.047-.418-.255-.689-.3l.087-.149c-.3-.027-.667.04-.9-.105-.257-.162-.56.038-.8-.229-.106-.119-.455-.02-.693-.02a.653.653,0,0,0-.525-.159c-.211-.01-.437.035-.6-.162H37.091c-.152.191-.37.154-.574.165a.5.5,0,0,0-.389.156c-.274.008-.563-.059-.807.179-.5-.239-.817-.807-1.44-.822-.159-.218-.486-.1-.642-.321h-.4a.374.374,0,0,1-.065-.442,2.484,2.484,0,0,0,.145-1.224c.007-1.043-.006-2.085.007-3.128a2.012,2.012,0,0,0-.347-1.136,4.388,4.388,0,0,0-.538-.653c-.167-.167-.364-.289-.525-.479a1.252,1.252,0,0,0-.976-.321c-1.31,0-2.621,0-3.931,0a3.432,3.432,0,0,1-.522-.963c-.4-.121-.348-.551-.541-.815-.128-.176-.441-.25-.343-.564a.782.782,0,0,1-.341-.661c-.388.024-.2-.347-.336-.485-.215-.221-.127-.67-.551-.723a5.322,5.322,0,0,1-.38-1.161c-.2-.121-.521-.187-.462-.563-.21-.1-.014-.459-.378-.5-.233-.028.024-.471-.291-.573-.257-.084-.014-.495-.235-.512-.394-.029-.119-.345-.263-.47s-.341-.268-.276-.525a1.588,1.588,0,0,1-.575-.953.291.291,0,0,0-.316-.168c-.136-.405-.164-.912-.433-1.174a8.781,8.781,0,0,1-.625-.942c-.072-.182-.307-.13-.41-.3-.076-.129-.256-.2-.22-.4-.386-.1-.663-.463-1.084-.388-.029-.133-.044-.206-.07-.33-.5.139-.94-.164-1.441-.164s-.944.381-1.37.164c-.272.046-.16.3-.411.375-.207.062-.579.011-.664.295s-.345.336-.521.489-.169.465-.491.521-.174.446-.312.668c-.153.247-.459.338-.532.644s-.123.665-.474.831c.138.39-.472.516-.321.91-.415.15-.418.553-.55.881-.062.154-.242.174-.343.212-.233.47-.143,1.067-.71,1.329-.014.362-.443.58-.311.965-.216.129-.479.124-.5.452a1.394,1.394,0,0,1-.469.914c-.238.226-.156.646-.547.825-.156.072-.223.434-.246.672-.029.3-.2.4-.5.465.136.453-.379.727-.332,1.194a.571.571,0,0,0-.5.5c-1.213.145-2.463-.17-3.549.2-.32.231-.278.573-.654.661s-.279.737-.732.861c.119.283-.176.461-.171.736.024,1.31.018,2.62.006,3.93,0,.341.284.616.162.922.078.136.167.093.249.105l.454.912c.317.086.592.448,1.02.372l.085.326c.454-.107.85.285,1.339.134A16.048,16.048,0,0,0,4.6,30.331H2.587c-.121.166-.359.157-.481.321-.71.1-1.122.64-1.617,1.048v.318c-.066.114-.155.068-.229.079a7.778,7.778,0,0,0-.235,2.865,8.675,8.675,0,0,0,.18,2.817c.027.123.154.074.269.133-.065.493.489.588.635.9.228.489.764.242,1.01.692,0-.031-.047.058.053.115l.429.05c-.263.208-.131.478-.2.719l-.285.11v4.358c.068.11.158.065.295.094-.1.353.192.646.173,1.037a2.228,2.228,0,0,0-1.058.517c-.008.183-.362.3-.409.642-.03.221-.384.326-.427.605a12.5,12.5,0,0,0,.186,5.525,1.4,1.4,0,0,1,.183,0c.022,0,.038.035.069.066v.3c.252.35.689.512.886.906.28-.1.457.245.731.17.158.218.486.1.642.321" transform="translate(0 -0.606)" fill="#060708"/>
        <path id="Trazado_614936" data-name="Trazado 614936" d="M54.6,35.869c-.4.121-.734-.186-1.131-.175a1.706,1.706,0,0,1-1.064-.125c-.192-.119-.521,0-.784-.025a29.009,29.009,0,0,0-3.046.193,8.2,8.2,0,0,1-.93.121c-.117.073-.106.154-.1.284-.379.068-.77.137-1.159.21-.083.015-.144.059-.126.16a13.65,13.65,0,0,0-4.92,4.352,12.866,12.866,0,0,0-2.515,5.9c0,.162,0,.323-.008.485.042.315-.175.546-.27.818a12.19,12.19,0,0,0,0,3.057,1.718,1.718,0,0,1,.268,1.065,10.082,10.082,0,0,0,1.679,5.173,14.294,14.294,0,0,0,4.68,5.043c.3.2.73.207.92.579a.747.747,0,0,0,.669.292c.34,0,.612.206.936.19.123.164.36.155.481.321a16.617,16.617,0,0,1,2.011.169,16.579,16.579,0,0,1,2.075,0c.635.046,1.22-.289,1.852-.172.121-.166.358-.157.481-.321.611-.018,1.166-.291,1.735-.341.048-.123-.012-.216.084-.268.2-.107.436.033.661-.15.143-.117.366-.306.623-.2.129-.048.1-.164.122-.294.441.065.663-.43,1.1-.416.045-.508.836-.27.826-.838.2-.1.457-.023.616-.267.14-.215.257-.476.546-.565.251-.078.2-.427.488-.528a.615.615,0,0,0,.424-.518.846.846,0,0,0,.561-.718c.035-.143.313-.229.516-.364.085-.233.023-.625.459-.639l.4-1.2c.437-.074.346-.492.46-.756a1.226,1.226,0,0,0,.157-.882l.311-.064c.02-.689.431-1.329.35-2.062.218-.158.1-.486.321-.642V47.743c-.166-.121-.157-.359-.321-.482a19.287,19.287,0,0,0-.341-2.336.624.624,0,0,1-.442-.584c-.03-.233-.127-.431-.175-.648-.068-.3-.362-.449-.435-.766-.057-.242-.1-.579-.47-.676-.108-.028-.173-.259-.205-.377-.134-.474-.555-.714-.8-1.091a.288.288,0,0,0-.28-.109c-.122-.186,0-.482-.271-.607-.149-.068-.113-.22-.113-.349a.408.408,0,0,1,0-.641v-.16c.042-.257-.4-.083-.349-.409.018-.106-.259-.383-.365-.365-.327.053-.154-.391-.409-.349-.22-.019-.117.19-.207.286-.127.109-.371-.068-.491.188-.133-.207-.351-.128-.555-.186-.013-.065-.028-.138-.047-.231-.166-.125-.477.021-.593-.264-.1-.242-.587.057-.546-.388a2.156,2.156,0,0,1-.62-.238c-.21-.106-.459-.052-.633-.208v-.235c-.586.137-1-.481-1.6-.329-.123-.164-.36-.155-.482-.321" transform="translate(-12.209 -11.279)" fill="#f6e035"/>
        <path id="Trazado_614937" data-name="Trazado 614937" d="M53.707,14.076a1.738,1.738,0,0,0,1.132-.543,3.365,3.365,0,0,1,.85-.437c.178-.051.124-.246.221-.373.152-.2.454-.175.548-.476a.594.594,0,0,1,.521-.419c.1-.332.53-.5.412-.924l.295-.061V9.438c-.017-.044-.142,0-.239-.041-.124-.156.057-.441-.21-.547.065-.207-.244-.278-.176-.489a.938.938,0,0,1-.672-.67c-.478-.035-.878-.335-1.372-.369-.508-.036-.951.2-1.425.2a6.98,6.98,0,0,1-1.424,1.426c-.151.1-.012.289-.1.424-.1.169-.383.158-.424.289a1.143,1.143,0,0,1-.246.381.639.639,0,0,1-.388.223,4.149,4.149,0,0,0-.205,1.2c.04.433-.122.953.222,1.259.314.28.336.678.616.94.09.177.289.013.411.128.1.091.188.189.28.282H52.9a.642.642,0,0,0,.8,0" transform="translate(-16.135 -2.324)" fill="#070808"/>
        <path id="Trazado_614938" data-name="Trazado 614938" d="M62.483,25.1c.352.11.642-.162.977-.16a.254.254,0,0,0,.236-.182c.05-.416.479-.424.681-.669a5.042,5.042,0,0,0,.189-1.525c-.1-.465-.223-.925-.356-1.466-.02-.042-.151.016-.261-.059.008-.516-.308-.755-.8-.785-.026-.1-.045-.173-.079-.3-.36.132-.653-.171-1.024-.157-.338.014-.61.3-.97.145-.026.126-.042.2-.059.285-.173.177-.457-.059-.647.155-.154.173-.434-.044-.585.122-.194.214-.468,0-.656.163-.02.074-.038.147-.064.248a1.449,1.449,0,0,0-.919.256c-.24.169-.136.683-.6.56a4.981,4.981,0,0,0-.324,1.511,4.184,4.184,0,0,0,.332,1.486.932.932,0,0,1,.646.7c.268-.12.442.162.71.156.393-.01.764.339,1.179.063.362-.24.82.113,1.205-.21.141-.118.465-.019.706-.019.121-.166.359-.157.482-.321" transform="translate(-18.171 -6.286)" fill="#070808"/>
        <path id="Trazado_614939" data-name="Trazado 614939" d="M39.676,3.889c-.064.293.126.613-.145.9a.461.461,0,0,0,.043.512c.183.188.055.4.1.592.059.115.187.059.272.114.126.137-.04.361.159.491a.38.38,0,0,1,.223.391c.381.091.672.445,1.111.371a.555.555,0,0,0,.429.157c.231,0,.463,0,.695,0,.172-.029.284-.229.493-.162a.337.337,0,0,0,.4-.177c.123-.2.33-.109.494-.164.108-.264,0-.693.491-.62a7.269,7.269,0,0,0,.366-1.729l.262-.054a8.776,8.776,0,0,1,.364-1.352c.146-.285-.179-1.316-.229-1.719-.04-.326-.4-.175-.416-.469C44.777.7,44.493.7,44.25.652a.766.766,0,0,1-.385-.206C43.823.4,43.834.3,43.819.218c-.386-.062-.777.043-1.141-.166a.563.563,0,0,0-.526.027c-.212.21-.462.041-.683.164l-.046.219c-.093.118-.238.031-.371.061-.171.174-.418.3-.448.593-.308-.014-.271.319-.459.454.13.567-.238,1.1-.149,1.677-.218.159-.1.486-.321.642" transform="translate(-12.536 0)" fill="#070708"/>
        <path id="Trazado_614940" data-name="Trazado 614940" d="M57.678,79.3H54.789a.217.217,0,0,0,0,.321h2.889a.217.217,0,0,0,0-.321" transform="translate(-17.378 -25.184)" fill="#525354"/>
        <path id="Trazado_614941" data-name="Trazado 614941" d="M54.684,17.221h-.8v.246c.179.139.385.059.583.061.062-.114.228-.147.22-.307" transform="translate(-17.112 -5.469)" fill="#9fa0a1"/>
        <path id="Trazado_614942" data-name="Trazado 614942" d="M60.2,33.533h.642v-.321H60.2a.217.217,0,0,0,0,.321" transform="translate(-19.095 -10.547)" fill="#7d7d7e"/>
        <rect id="Rectángulo_325326" data-name="Rectángulo 325326" width="0.642" height="0.321" transform="translate(33.239 22.022)" fill="#a9abac"/>
        <rect id="Rectángulo_325327" data-name="Rectángulo 325327" width="0.642" height="0.321" transform="translate(29.387 54.116)" fill="#a4a6a7"/>
        <rect id="Rectángulo_325328" data-name="Rectángulo 325328" width="0.642" height="0.321" transform="translate(36.769 54.116)" fill="#cfd1d3"/>
        <path id="Trazado_614943" data-name="Trazado 614943" d="M43.673,10.8c.01-.139-.079-.161-.188-.16H43.03a.218.218,0,0,0,0,.321h.454c.109,0,.2-.021.188-.16" transform="translate(-13.643 -3.378)" fill="#363636"/>
        <rect id="Rectángulo_325329" data-name="Rectángulo 325329" width="0.642" height="0.321" transform="translate(40.3 54.116)" fill="#b0b2b3"/>
        <rect id="Rectángulo_325330" data-name="Rectángulo 325330" width="0.321" height="0.642" transform="translate(27.141 3.247)" fill="#717272"/>
        <path id="Trazado_614944" data-name="Trazado 614944" d="M53.613,33.533h.481v-.321h-.481a.217.217,0,0,0,0,.321" transform="translate(-17.004 -10.547)" fill="#3b3c3d"/>
        <rect id="Rectángulo_325331" data-name="Rectángulo 325331" width="0.481" height="0.321" transform="translate(40.622 22.664)" fill="#272829"/>
        <rect id="Rectángulo_325332" data-name="Rectángulo 325332" width="0.321" height="0.481" transform="translate(54.102 42.401)" fill="#8c8e8d"/>
        <rect id="Rectángulo_325333" data-name="Rectángulo 325333" width="0.481" height="0.321" transform="translate(43.831 18.813)" fill="#58595a"/>
        <rect id="Rectángulo_325334" data-name="Rectángulo 325334" width="0.481" height="0.321" transform="translate(28.907 7.26)" fill="#6d6e6e"/>
        <path id="Trazado_614945" data-name="Trazado 614945" d="M72.693,40.113h.48v-.239c-.125-.15-.279-.072-.427-.057-.1.085-.033.2-.053.3" transform="translate(-23.084 -12.634)" fill="#bbbdbf"/>
        <rect id="Rectángulo_325335" data-name="Rectángulo 325335" width="0.481" height="0.321" transform="translate(36.128 22.664)" fill="#9d9fa0"/>
        <path id="Trazado_614946" data-name="Trazado 614946" d="M19.167,35.609h4.007a6.776,6.776,0,0,0,.818-.13c.459-.056.443-.351.515-.638l.248-.065V21.58a1.746,1.746,0,0,1,1.127-.414c.882,0,1.763,0,2.664,0,.1-.35.431-.4.7-.54s.181-.635.6-.6A4.326,4.326,0,0,0,30.08,18.1c0-.33.01-.662-.4-.785-.014-.421-.5-.645-.413-1.081l-.261-.068c-.15-.113.06-.347-.113-.427-.3-.139-.159-.523-.415-.672s-.3-.415-.342-.693a.4.4,0,0,0-.411-.293c-.214-.442-.093-1.054-.669-1.312-.055-.347-.409-.588-.349-.968-.052-.132-.177-.087-.264-.126a3.29,3.29,0,0,0-.611-1.1.614.614,0,0,1-.089-.118,1.985,1.985,0,0,1-.279-.593c0-.308-.406-.169-.358-.407.051-.255-.192-.4-.18-.657.012-.235-.243-.293-.456-.365.071-.425-.393-.7-.328-1.165-.526-.012-.415-.54-.647-.808.182-.374-.311-.358-.373-.638-.047-.213-.144-.569-.529-.571-.057,0-.135-.1-.165-.164-.072-.164-.118-.413-.289-.426-.36-.029-.672-.3-1.051-.185a.344.344,0,0,0-.481,0,1.189,1.189,0,0,0-.934.223c-.143.126-.29.076-.438.1-.183.592-.852.919-.876,1.6-.76,1.58-1.37,3.221-2,4.854-.732,1.881-1.439,3.773-2.193,5.646a4.066,4.066,0,0,0-.123,3.039,2.3,2.3,0,0,1,.3.623,1.24,1.24,0,0,0,.326.6c.366,0,.732.02,1.1-.005a1.657,1.657,0,0,1,.952.207c.089.1.012.235.036.347.05.17.35,0,.323.254a2.65,2.65,0,0,1,1.6,1.671,2.821,2.821,0,0,1,.1,1.108c.025,3.464-.042,6.928.035,10.392a.661.661,0,0,0,.356.469" transform="translate(-4.384 -1.391)" fill="#8fc392"/>
        <path id="Trazado_614947" data-name="Trazado 614947" d="M32.491,73.136c-.305-.2-.5-.521-.8-.734-.13-.093-.253-.035-.43-.1-.041-.493-.6-.6-.872-.992-.26-.369-.721-.6-.832-1.146-.249-.182-.672-.3-.594-.844-.583.048-.356-.593-.751-.837H9.381a1.085,1.085,0,0,0-.387.5,11.271,11.271,0,0,0-.065,4.228,1.6,1.6,0,0,0,1.184.35q10.651.013,21.3-.005c.389,0,.879.13,1.075-.419" transform="translate(-2.782 -21.749)" fill="#f6e035"/>
        <path id="Trazado_614948" data-name="Trazado 614948" d="M26.827,59.443a10.159,10.159,0,0,1-.111-2.247H11.9a1.332,1.332,0,0,0-.618.71,10.9,10.9,0,0,0,.117,4.112,1.64,1.64,0,0,0,1.14.257q6.936.01,13.872,0a1.34,1.34,0,0,0,1.056-.263c.091-.42-.24-.783-.16-1.2-.311-.248-.1-.592-.161-.885-.166-.121-.157-.358-.321-.481" transform="translate(-3.538 -18.164)" fill="#f5e035"/>
        <path id="Trazado_614949" data-name="Trazado 614949" d="M30.688,73.135a.123.123,0,0,1-.127.158c-.186.01-.374,0-.561,0H7.258v-2.3c0-.454,0-.908,0-1.362,0-.414.313-.738.321-1.149-.747,0-1.5,0-2.243,0a3.273,3.273,0,0,0-1.593.225c-.179.151-.218.388-.336.578-.164.122-.155.36-.321.481v3.443c.059.119.19.061.272.119.124.141-.044.37.167.5a.417.417,0,0,1,.229.38,1.449,1.449,0,0,0,1.035.215H29.966a1.251,1.251,0,0,0,.992-.245c.021-.171.207-.317.371-.472-.213-.2-.2-.647-.641-.567" transform="translate(-0.98 -21.747)" fill="#ffb23b"/>
        <path id="Trazado_614950" data-name="Trazado 614950" d="M26.174,49.475a2.949,2.949,0,0,1,.235-1.245c.057-.2.046-.4.087-.592.624-.265.424-.916.641-1.372.018-.175-.085-.234-.236-.233-.767.006-1.536-.042-2.323.03-.227.655.055,1.336-.169,1.968a1.758,1.758,0,0,1-.258,1.077c-.415,0-.328.484-.508.77l-1,.3v.183c-.016.014-.038.05-.055.047-.369-.046-.678.2-1.045.194q-2.524-.019-5.049,0c-.39,0-.732-.3-1.123-.145-.209-.322-.285-.373-1-.674-.261-.315-.216-.826-.721-1.032.143-.415-.181-.8-.159-1.243s0-.9,0-1.4H8.842c-.346.121-.641.312-.675.708a19.047,19.047,0,0,0,.02,3.993.569.569,0,0,0,.209.328,1.529,1.529,0,0,0,1.007.209q7.614.014,15.228,0a1.445,1.445,0,0,0,1.06-.265c.147.012.161-.086.161-.2v-.928c.164-.122.155-.36.321-.481" transform="translate(-2.564 -14.616)" fill="#f5df35"/>
        <path id="Trazado_614951" data-name="Trazado 614951" d="M25.744,62H9.727V57.847c.014-.039.128-.015.231-.025.088-.209.047-.459.219-.633-.934,0-1.871.029-2.8-.016-.333-.016-.583.2-.9.176a.239.239,0,0,0-.237.176c-.048.305-.384.291-.534.537v4.376a1.452,1.452,0,0,1,.627.663H26.177c.21-.392-.369-.661-.089-.983-.13-.166-.246-.095-.345-.115" transform="translate(-1.812 -18.156)" fill="#ffb33b"/>
        <path id="Trazado_614952" data-name="Trazado 614952" d="M23.959,51.117H6.627V48.408c0-.4,0-.8,0-1.2a1.108,1.108,0,0,1,.482-1.066q-1.6,0-3.2,0c-.307,0-.629-.072-.914.3-.016.118-.216.255-.376.423q0,2.159,0,4.32c.1.177.365.24.321.5.237.154.526.194.714.385H23.959Z" transform="translate(-0.831 -14.652)" fill="#ffb23b"/>
        <path id="Trazado_614953" data-name="Trazado 614953" d="M38.323,47.244a2.7,2.7,0,0,1,.247-1.26c.074-.211.014-.411.1-.62l.309-.112c-.217-.538.481-.884.3-1.406.058-.159.182-.118.272-.151.2-.394.043-1,.714-1.161-.235-.427.468-.539.308-.965.061-.178.271-.076.384-.223.16-.208.015-.584.33-.659a.518.518,0,0,0,.44-.454c.451-.144.558-.689.994-.855a.3.3,0,0,0,.171-.156.961.961,0,0,1,.617-.616c.1-.041.162-.143.079-.3a.818.818,0,0,0,.87-.651,6.216,6.216,0,0,0,.86-.222.374.374,0,0,0,.23-.456h-.555c-.115.059-.064.187-.124.291-.3.016-.547.226-.818.29s-.42.373-.631.359c-.362-.024-.421.575-.793.325a.241.241,0,0,0-.131.212c-.069.389-.492.2-.681.407-.173.19-.156.586-.568.529-.062-.009-.182.042-.194.087-.091.326-.426.394-.62.609-.175.194-.267.467-.553.561-.109.036-.128.158-.109.27a.219.219,0,0,1-.12.265c-.409.132-.478.54-.712.8a3.7,3.7,0,0,0-.554.811c-.142.277-.509.42-.521.721-.012.326-.351.515-.146.839l-.351.019c.16.536-.4.9-.323,1.432-.164.122-.155.36-.321.481a2.1,2.1,0,0,1-.151.889c-.094.252.091.553-.155.816-.092.1-.015.356-.015.541a.99.99,0,0,0-.16.7,6.449,6.449,0,0,0,.16,2.187,12.455,12.455,0,0,0,.355,2.844l.229.083c.134.551.265,1.086.431,1.759a.358.358,0,0,1,.2-.024,6.238,6.238,0,0,0,.478,1.254c.407.629.488.678.558,1.04.311.206.71.343.652.835.051.083.142.049.21.076.269.1.228.465.463.592.2.106.464.128.441.447.477.235.655.841,1.174.994.284.084.373.343.575.49s.59.074.638.322c.068.347.358.257.527.342.335.169.538.516.94.6a8.477,8.477,0,0,1,1.12.384c.158.012.158-.1.164-.273-.722.058-.972-.8-1.687-.884-.1-.225-.249-.516-.506-.588s-.225-.41-.533-.437a.526.526,0,0,1-.515-.478.3.3,0,0,0-.291-.226c-.1.01-.133-.069-.194-.114-.235-.172-.025-.594-.4-.7-.289-.078-.3-.431-.521-.593-.049-.036-.007-.2-.007-.293-.2-.124-.5-.117-.481-.443.018-.3-.175-.4-.459-.473.07-.461-.442-.749-.353-1.215l-.24-.051c-.247-.488-.113-1.1-.684-1.507a14.318,14.318,0,0,1-.351-2.482c-.3-.257-.026-.7-.321-.963v-3.37a.65.65,0,0,0,.158-.525c.01-.211-.035-.437.162-.6" transform="translate(-11.503 -11.742)" fill="#ffb23c"/>
        <path id="Trazado_614954" data-name="Trazado 614954" d="M36.5,39.847c.266.054.057-.341.334-.334a.522.522,0,0,0,.442-.392c-.009-.315.255-.216.369-.319.166-.151.131-.326.141-.5.22-.091.455-.055.638-.265.133-.152.109-.426.423-.482a.579.579,0,0,0,.4-.52c.306-.271.823-.2,1.005-.673.039-.1.248-.181.386-.194.346-.032.452-.4.745-.491a9.52,9.52,0,0,1,.91-.309c.2-.044.1-.212.156-.261.156-.146.353.019.466-.141-.013-.019-.026-.055-.039-.055-3.6,0-7.191,0-10.818,0-.118.155-.041.374-.042.576q-.013,2,0,4c0,.128-.113.338.156.366a.978.978,0,0,0,.655.246q1.511.049,3.021,0a1.009,1.009,0,0,0,.656-.247" transform="translate(-10.157 -11.085)" fill="#f5df35"/>
        <path id="Trazado_614955" data-name="Trazado 614955" d="M13.233,34.846c-.641,0-1.284-.028-1.924.008-.619.035-1.264-.19-1.877.214a.909.909,0,0,1-.671.621v4.23c.369.023.424.377.566.583a2.833,2.833,0,0,0,1.535.284c.932-.011,1.864,0,2.853,0V39.82a1.724,1.724,0,0,1-.538-.633,28.685,28.685,0,0,1,.046-3.559c.028-.261.145-.519.01-.783" transform="translate(-2.782 -11.059)" fill="#ffb23c"/>
        <path id="Trazado_614956" data-name="Trazado 614956" d="M12.879,20.986c.042-.547-.233-1.054-.175-1.615.048-.459.349-.882.151-1.3.088-.145.172-.127.291-.131a6.252,6.252,0,0,0,.415-1.572l.228-.05.429-1.566.224-.054c.165-.544.063-1.187.654-1.677-.072-.5.429-.97.349-1.572.053-.078.126-.094.269-.079.084-.579.439-1.095.37-1.707a.624.624,0,0,0,.482-.686c-.012-.293.233-.506.186-.785l.3-.078V7.346h-.243c-.087.23-.283.424-.238.7-.316.087-.006.528-.281.568-.351.052-.166.407-.362.51s-.041.5-.4.467c-.023.417-.484.652-.42,1.083l-.277.072a3.333,3.333,0,0,1-.291.82c-.089.284-.46.279-.469.6-.008.3-.267.544-.231.865-.192.138-.474.161-.495.5a.935.935,0,0,1-.355.575,1.387,1.387,0,0,0-.437,1c-.046.124-.169.083-.293.129.063.427-.424.652-.418,1.082-.6.059-.152,1-.824.979-.221.452-.142,1.043-.716,1.394-.074.13.115.4-.119.59-.069.057-.057.256-.029.377.053.218.236.419.147.654a2.383,2.383,0,0,0-.186.622c-.136.132-.412-.1-.448.207a3.636,3.636,0,0,0,.386.751c.194.226.361.508.738.372.171-.023.277-.239.481-.16a.409.409,0,0,1,.642,0h1.444a.858.858,0,0,0-.16-.642c-.166-.121-.157-.358-.321-.481" transform="translate(-3.071 -2.333)" fill="#6db794"/>
        <path id="Trazado_614957" data-name="Trazado 614957" d="M8.5,26.934a1.135,1.135,0,0,1-.189-.642H8.02a1.715,1.715,0,0,1-.964-.4v-.561a.946.946,0,0,1,0-1.123V23.58c-.689.08-1.458-.311-2.06.462H4.735c-.08.233-.263.416-.253.7.021.613.007,1.228.007,1.843,0,.428.029.858-.008,1.282a3.952,3.952,0,0,0,.234,1.369,3.97,3.97,0,0,0,.949.271c2.213,0,4.426,0,6.626,0,.109-.2.05-.388.059-.641-.525,0-1.05-.008-1.575,0a11.659,11.659,0,0,1-1.47-.323c-.14-.156-.369-.207-.493-.418A6.205,6.205,0,0,0,8.5,26.934" transform="translate(-1.421 -7.479)" fill="#ffb23c"/>
        <path id="Trazado_614958" data-name="Trazado 614958" d="M39.2,24.046V25.49c-.164.123-.155.36-.321.482-.018.43-.338.779-.332,1.215a.656.656,0,0,0-.533.4c-.078.274-.364.258-.452.438-.138.282-.443.109-.608.268v.247a1.127,1.127,0,0,0,.9.25c1.229.012,2.458,0,3.687.005a1.7,1.7,0,0,0,1.514-.737c-.026-.1.1-.13.108-.194a8.031,8.031,0,0,0-.032-2.506c-.07-.317,0-.62-.094-.923-.292-.112-.393-.38-.493-.669a12.336,12.336,0,0,0-3.34-.2.344.344,0,0,0,0,.481" transform="translate(-11.735 -7.479)" fill="#f5df35"/>
        <path id="Trazado_614959" data-name="Trazado 614959" d="M20.68,43.792l-.16-.321a1.467,1.467,0,0,1-.158-1.006c-.006-3.287,0-6.575-.007-9.862A1.488,1.488,0,0,0,20.2,31.6v-.566a10.585,10.585,0,0,0-.8-.706c-.075-.055-.154-.154-.244-.165a4.443,4.443,0,0,0-.556-.007q0,6.175,0,12.349c0,.205-.1.442.054.614.122.139.079.375.278.448a3.089,3.089,0,0,0,.708.219,9.631,9.631,0,0,0,1.041.01" transform="translate(-5.897 -9.574)" fill="#6db794"/>
        <path id="Trazado_614960" data-name="Trazado 614960" d="M41.552,30.154a.932.932,0,0,0-.777.481H35.454a8.312,8.312,0,0,1-3.149.316,1.013,1.013,0,0,0-.024.647h2.31c1.813,0,3.626-.017,5.438.016.33.006.581-.183.893-.184a.318.318,0,0,0,.3-.3c.012-.21.175-.143.328-.222Z" transform="translate(-10.239 -9.576)" fill="#ffb33b"/>
        <path id="Trazado_614961" data-name="Trazado 614961" d="M36.579,42.147H32.246v.874a.376.376,0,0,0,.051.058.125.125,0,0,0,.067.029h3.492c.159-.132.255-.346.506-.34.04-.218.275-.369.217-.623" transform="translate(-10.241 -13.385)" fill="#ffb23b"/>
        <path id="Trazado_614962" data-name="Trazado 614962" d="M15.161,34.856a3.276,3.276,0,0,0-.329,1.293c.023,1.211.008,2.421.008,3.681h.8v-4.9c-.169-.118-.33-.05-.482-.07" transform="translate(-4.71 -11.069)" fill="#f5e035"/>
        <path id="Trazado_614963" data-name="Trazado 614963" d="M10.375,28.508v1.6h.8c.077-.226-.192-.349-.165-.568a4.7,4.7,0,0,0,0-.555,1.237,1.237,0,0,1-.642-.481" transform="translate(-3.295 -9.053)" fill="#f4da36"/>
        <path id="Trazado_614964" data-name="Trazado 614964" d="M32.011,48.007c.155.012.16-.094.16-.2V46.081c.824,0,1.634,0,2.444,0a.122.122,0,0,1,.124.157h.238c.095-.074.107-.165.041-.295H32.011Z" transform="translate(-10.166 -14.592)" fill="#484113"/>
        <path id="Trazado_614965" data-name="Trazado 614965" d="M36.33,57.059V54.812a.217.217,0,0,0-.321,0v2.163c.111.131.223.065.321.084" transform="translate(-11.436 -17.385)" fill="#704e1c"/>
        <rect id="Rectángulo_325336" data-name="Rectángulo 325336" width="0.321" height="0.642" transform="translate(24.573 36.785)" fill="#221c11"/>
        <path id="Trazado_614966" data-name="Trazado 614966" d="M72.071,40.736h-.244c-.178.18,0,.394-.086.547.117.144.231.075.33.1Z" transform="translate(-22.784 -12.937)" fill="#554d16"/>
        <path id="Trazado_614967" data-name="Trazado 614967" d="M12.662,28.826v-.248c-.184-.131-.388-.063-.579-.055-.111.091-.043.2-.063.3Z" transform="translate(-3.816 -9.05)" fill="#3c624f"/>
        <rect id="Rectángulo_325337" data-name="Rectángulo 325337" width="0.321" height="0.642" transform="translate(52.818 40.476)" fill="#84781e"/>
        <rect id="Rectángulo_325338" data-name="Rectángulo 325338" width="0.321" height="0.481" transform="translate(23.29 34.859)" fill="#9d8f22"/>
        <rect id="Rectángulo_325339" data-name="Rectángulo 325339" width="0.321" height="0.481" transform="translate(23.289 41.279)" fill="#433d16"/>
        <rect id="Rectángulo_325340" data-name="Rectángulo 325340" width="0.321" height="0.481" transform="translate(25.215 34.058)" fill="#8e6321"/>
        <rect id="Rectángulo_325341" data-name="Rectángulo 325341" width="0.321" height="0.481" transform="translate(27.141 18.011)" fill="#94871e"/>
        <rect id="Rectángulo_325342" data-name="Rectángulo 325342" width="0.482" height="0.321" transform="translate(41.905 52.19)" fill="#6e641b"/>
        <rect id="Rectángulo_325343" data-name="Rectángulo 325343" width="0.481" height="0.321" transform="translate(35.486 52.19)" fill="#5d5217"/>
        <path id="Trazado_614968" data-name="Trazado 614968" d="M40.089,24.052v-.481H39.85c-.15.125-.072.28-.057.427.085.1.2.034.3.054" transform="translate(-12.627 -7.486)" fill="#a39324"/>
        <rect id="Rectángulo_325344" data-name="Rectángulo 325344" width="0.321" height="0.481" transform="translate(52.818 35.983)" fill="#928521"/>
        <rect id="Rectángulo_325345" data-name="Rectángulo 325345" width="0.482" height="0.321" transform="translate(42.386 24.59)" fill="#80731c"/>
        <path id="Trazado_614969" data-name="Trazado 614969" d="M23.78,4.372h.481c0-.079,0-.158,0-.237-.123-.172-.287-.023-.391-.089-.139.115-.071.229-.091.326" transform="translate(-7.552 -1.285)" fill="#121813"/>
        <path id="Trazado_614970" data-name="Trazado 614970" d="M62.678,48.96a4.722,4.722,0,0,0-.313-1.473c-.055-.2-.235-.072-.325-.222.085-.49-.314-.908-.332-1.426-.188-.132-.495-.155-.476-.5.016-.308-.238-.357-.46-.444a.579.579,0,0,0-.278-.594c-.264-.124-.361-.4-.563-.551-.328-.244-.516-.621-.839-.841-.285-.194-.482-.515-.867-.582A.36.36,0,0,1,58,41.954c-.478-.2-1.05-.211-1.384-.7a10.978,10.978,0,0,0-1.6-.341c-.027-.1-.046-.176-.061-.235a13.651,13.651,0,0,0-5.885,0c-.012.05-.028.123-.052.228-.487.047-.958.255-1.441.321-.295.041-.254.281-.412.346-.344.141-.7.25-1.112.392a1.377,1.377,0,0,1-.485.582h-.326c0,.4-.487.387-.573.628-.133.373-.558.4-.672.672a1.193,1.193,0,0,1-.645.581c-.164.24-.02.695-.5.684-.154.149.024.446-.225.544-.28.11-.094.392-.218.549l-.27.071c.113.5-.522.806-.317,1.29-.089.145-.178.1-.259.116a9.821,9.821,0,0,0-.369,2.24c-.094.818,0,1.656-.029,2.483a21.263,21.263,0,0,0,.344,2.281l.3.107c-.058.541.306.987.373,1.511.631.065.192,1.037.886,1.022a1.55,1.55,0,0,0,.785,1.13c-.122.6.708.544.727,1.048.5.109.5.109.771.608.351.248.861.254,1.055.723l1.192.4v.235c.586-.137,1,.481,1.6.329.123.163.36.155.482.321.5-.122.949.208,1.449.169a8.5,8.5,0,0,1,1.514,0c.583.059,1.114-.257,1.69-.171.121-.166.359-.158.482-.321a1.585,1.585,0,0,0,1.039-.2c.23-.088.452-.059.66-.134.093-.055.059-.142.068-.228a4.915,4.915,0,0,1,1.18-.422c.132-.027.089-.151.126-.241.123-.308.483-.129.666-.336.158-.177.113-.53.49-.532.132,0,.362-.113.377-.2.057-.349.424-.322.588-.545.115-.157.075-.3.117-.482.513.08.371-.695.882-.693.137-.173-.016-.488.272-.6.245-.1-.059-.588.388-.547a2.33,2.33,0,0,1,.238-.621c.1-.209.054-.458.208-.633h.214c.02-.709.431-1.35.35-2.084.218-.158.1-.486.32-.642V49.923c-.191-.152-.154-.37-.164-.574a.5.5,0,0,0-.156-.389" transform="translate(-13.069 -12.817)" fill="#060708"/>
        <path id="Trazado_614971" data-name="Trazado 614971" d="M38.831,58.607v.881c.115.126.225.064.321.082v-.881c-.115-.126-.225-.064-.321-.082" transform="translate(-12.332 -18.612)" fill="#f7dc34"/>
        <rect id="Rectángulo_325346" data-name="Rectángulo 325346" width="0.321" height="0.642" transform="translate(49.608 39.834)" fill="#5b5218"/>
        <path id="Trazado_614972" data-name="Trazado 614972" d="M38.831,52.7v.642h.321V52.7a.217.217,0,0,0-.321,0" transform="translate(-12.332 -16.712)" fill="#fad135"/>
        <rect id="Rectángulo_325347" data-name="Rectángulo 325347" width="0.321" height="0.481" transform="translate(26.499 35.502)" fill="#ffbc38"/>
        <path id="Trazado_614973" data-name="Trazado 614973" d="M72.7,53.636v.481h.32v-.481a.217.217,0,0,0-.32,0" transform="translate(-23.087 -17.011)" fill="#453f16"/>
        <rect id="Rectángulo_325348" data-name="Rectángulo 325348" width="0.481" height="0.321" transform="translate(41.263 48.981)" fill="#70651b"/>
        <rect id="Rectángulo_325349" data-name="Rectángulo 325349" width="0.481" height="0.321" transform="translate(36.128 48.981)" fill="#82761e"/>
        <rect id="Rectángulo_325350" data-name="Rectángulo 325350" width="0.321" height="0.481" transform="translate(49.608 36.144)" fill="#b8a528"/>
        <path id="Trazado_614974" data-name="Trazado 614974" d="M53.351,12.76c.119.19.158.427.339.58.37.24.676-.162,1.067-.095-.067-.515.62-.4.677-.816s.762-.22.643-.739a1.421,1.421,0,0,0,.614-.254V10.377c-.113-.237-.641-.159-.632-.637h-.707c-.1.361-.578.392-.732.77-.124.3-.63.328-.656.755-.452.107-.385.586-.613.853a.465.465,0,0,0,0,.642" transform="translate(-16.903 -3.093)" fill="#f7e881"/>
        <path id="Trazado_614975" data-name="Trazado 614975" d="M53.257,13.866v-.642h-.24c-.19.179-.014.394-.087.551.114.14.228.072.326.091" transform="translate(-16.808 -4.2)" fill="#8d8648"/>
        <path id="Trazado_614976" data-name="Trazado 614976" d="M62.585,22.349a4.012,4.012,0,0,1-1.393.334c-.031.089-.065.181-.114.318-.407-.123-.747.248-1.15.156-.126.134-.042.275-.081.419l-.289.1v.7c.207.1.479.164.486.544h.775c.121-.166.359-.157.482-.321a10.35,10.35,0,0,0,1.8-.171c.375-.016.1-.629.586-.45v-.939c-.029-.045-.107-.048-.226-.042-.14-.193-.01-.589-.39-.644a.344.344,0,0,0-.482,0" transform="translate(-18.914 -7.066)" fill="#f7e981"/>
        <rect id="Rectángulo_325351" data-name="Rectángulo 325351" width="0.482" height="0.321" transform="translate(41.905 17.529)" fill="#a09850"/>
        <path id="Trazado_614977" data-name="Trazado 614977" d="M63.991,22.242h.482V22c-.126-.15-.28-.072-.428-.057-.1.085-.034.2-.054.3" transform="translate(-20.321 -6.959)" fill="#10100e"/>
        <path id="Trazado_614978" data-name="Trazado 614978" d="M43.071,2.6c-.257.059-.332.411-.63.367a4.366,4.366,0,0,1-.149,1.247c-.145.33.033.752-.167,1.131-.1.187-.017.47-.017.667l.336.571h1.065c.194-.1.211-.338.231-.581l.283-.059c-.048-.647.39-1.21.341-1.863L44.653,4V2.976c-.36-.106-.656-.452-1.1-.379a.346.346,0,0,0-.482,0" transform="translate(-13.363 -0.793)" fill="#f7e880"/>
        <path id="Trazado_614979" data-name="Trazado 614979" d="M43.533,2.492h.482V2.256a.2.2,0,0,0-.2-.085c-.076.007-.151.011-.214.015-.115.095-.047.209-.067.306" transform="translate(-13.824 -0.689)" fill="#1c1b13"/>
        <path id="Trazado_614980" data-name="Trazado 614980" d="M20.958,32.271V44.06c.106.135.222.065.321.085V32.356c-.106-.136-.222-.065-.321-.085" transform="translate(-6.656 -10.248)" fill="#75ba92"/>
        <rect id="Rectángulo_325352" data-name="Rectángulo 325352" width="0.321" height="0.481" transform="translate(9.808 18.653)" fill="#7cbc92"/>
        <path id="Trazado_614981" data-name="Trazado 614981" d="M43.771,54.492a7.838,7.838,0,0,0,.416,1.43,4.884,4.884,0,0,1,.548,1.209c.177.087.414.143.471.346.083.3.316.456.472.68a1.909,1.909,0,0,0,.592.553c.132.083.211.328.349.482s.286.1.439.113c.132.2.153.493.507.489.229,0,.373.148.39.448.54.015.985.445,1.551.341.034.132.053.2.072.274a13.043,13.043,0,0,0,3.135.392,16.536,16.536,0,0,0,3.33-.409c-.052.02-.083-.1-.048-.259.51.157.863-.321,1.355-.332.115-.178.105-.48.432-.462.3.017.4-.175.472-.461.373.125.613-.209.835-.388s.33-.558.674-.637l.425-.858c.65-.007.27-.953.88-1.072.044-.53.454-.964.348-1.513l.268-.064a12.2,12.2,0,0,0,.345-2.887,17.981,17.981,0,0,0-.319-2.784c-.613-.35-.383-1.047-.68-1.514l-.235-.061c.183-.446-.533-.569-.318-1.015a1.435,1.435,0,0,1-.688-.607c-.189-.234-.567-.322-.644-.693a1.065,1.065,0,0,1-.644-.583c-.319-.273-.828-.28-1.022-.749l-1.193-.4v-.214c-.708-.021-1.349-.432-2.083-.35-.313-.323-.811,0-1.123-.321h-.963c-.161.2-.387.153-.6.162a.65.65,0,0,0-.525.159,2.628,2.628,0,0,0-1.258.247c-.214.079-.414,0-.744.174.058-.035.08.05.073.188-.435-.05-.726.376-1.185.357-.16.089-.09.387-.282.411-.361.046-.51.31-.749.517s-.381.464-.6.637-.465.27-.562.568c-.058.176-.295.147-.428.281a.646.646,0,0,0-.213.556c-.161.115-.473.131-.457.349.02.262-.24.414-.177.654.076.292-.3.136-.356.406a5.886,5.886,0,0,0-.289,1.394c-.164.122-.155.36-.321.481a12.042,12.042,0,0,1-.181,2.006c0,.326.2.578.184.89s0,.637,0,.956c.166.121.157.358.321.481" transform="translate(-13.741 -13.534)" fill="#ffb23c"/>
        <path id="Trazado_614982" data-name="Trazado 614982" d="M57.644,42.615V42.9a7.154,7.154,0,0,0,1.123.035v-.286a7.238,7.238,0,0,0-1.123-.035" transform="translate(-18.307 -13.532)" fill="#dc9931"/>
        <path id="Trazado_614983" data-name="Trazado 614983" d="M54.587,42.938h.642a.218.218,0,0,0,0-.321h-.642Z" transform="translate(-17.336 -13.534)" fill="#77521d"/>
        <rect id="Rectángulo_325353" data-name="Rectángulo 325353" width="0.321" height="0.481" transform="translate(29.708 40.476)" fill="#604319"/>
        <rect id="Rectángulo_325354" data-name="Rectángulo 325354" width="0.482" height="0.321" transform="translate(37.893 29.083)" fill="#d0902f"/>
        <rect id="Rectángulo_325355" data-name="Rectángulo 325355" width="0.321" height="0.481" transform="translate(29.708 36.144)" fill="#885f20"/>
        <path id="Trazado_614984" data-name="Trazado 614984" d="M54.2,59.089v.879c.343.025.306.429.663.583.264.087.562-.2.919-.219.083-.508-.108-1.048.263-1.562.347.124.659-.206,1.06-.175.237.018.283-.252.369-.478.392.161.629-.205.833-.386s.321-.489.676-.605c.041-.517.431-.984.352-1.566a.8.8,0,0,0,0-.963,2.927,2.927,0,0,0-.4-1.278c-.428-.08-.386-.854-.981-.639-.21-.677-.8-.539-1.251-.669-.13-.035-.08-.163-.141-.276-.229-.1-.6.112-.74-.291V48.173l1.417.377c.009.1.014.15.02.235h.715c.013-.3.393-.287.5-.461.182-.4-.169-.682-.111-1.022-.424-.244-1.021-.154-1.353-.7h-.953l-.254-.279v-.977c-.261-.024-.418-.232-.577-.373-.433-.067-.649.336-1.035.324v1.25h-.734c-.041.115-.073.208-.117.334-.39-.048-.667.265-1.026.363a.959.959,0,0,1-.645.655c-.136.178-.149.483-.367.678v.79c-.058.124-.187.069-.3.138v.712c.03.048.109.049.222.044.095.372.19.753.28,1.1.479.306.479.306.648.637.422-.029.708.391,1.145.353.111.046.076.167.113.294a1.626,1.626,0,0,1,.757.245v4.379c-.5.214-.908-.186-1.362-.13-.1-.055-.05-.145-.076-.248l-1.3-.358c-.18.113-.444.16-.611.381v.926c.105.328.437.225.639.345v.237c.664-.026,1.228.47,1.922.342.206.261.6.055.8.321" transform="translate(-16.144 -14.28)" fill="#060708"/>
        <path id="Trazado_614985" data-name="Trazado 614985" d="M63.288,59.073v.963h.28v-.929c-.067-.083-.182-.014-.28-.033" transform="translate(-20.099 -18.758)" fill="#ac7727"/>
        <path id="Trazado_614986" data-name="Trazado 614986" d="M55.389,65.508v-.271c-.254-.114-.535-.018-.8-.05v.271c.254.114.535.017.8.05" transform="translate(-17.335 -20.7)" fill="#8c6221"/>
        <path id="Trazado_614987" data-name="Trazado 614987" d="M59.927,58.231a.787.787,0,0,1-.551-.6c-.4-.04-.759-.337-1.218-.172v3.607c.147.162.365-.022.508.054.141-.081.087-.172.116-.261.336-.163.752-.254.882-.708.018-.063.106-.114.173-.153a.4.4,0,0,1,.151-.017,1.7,1.7,0,0,0-.061-1.746" transform="translate(-18.47 -18.231)" fill="#fcaf3a"/>
        <path id="Trazado_614988" data-name="Trazado 614988" d="M54.135,50.127v.3c-.116.2-.433.1-.489.356v.957a5.969,5.969,0,0,0,.639.552,2.445,2.445,0,0,0,.766.319V49.943c-.337-.162-.616.048-.916.185" transform="translate(-17.037 -15.842)" fill="#faad3a"/>
      </g>
    </g>
  </g>
</svg>
