<svg xmlns="http://www.w3.org/2000/svg" xmlns:xlink="http://www.w3.org/1999/xlink" width="123" height="123" viewBox="0 0 123 123">
  <defs>
    <filter id="Elipse_5173" x="0" y="0" width="123" height="123" filterUnits="userSpaceOnUse">
      <feOffset dy="3" input="SourceAlpha"/>
      <feGaussianBlur stdDeviation="3" result="blur"/>
      <feFlood flood-opacity="0.161"/>
      <feComposite operator="in" in2="blur"/>
      <feComposite in="SourceGraphic"/>
    </filter>
    <clipPath id="clip-path">
      <rect id="Rect치ngulo_325358" data-name="Rect치ngulo 325358" width="53.77" height="53.634" fill="none"/>
    </clipPath>
  </defs>
  <g id="Grupo_877375" data-name="Grupo 877375" transform="translate(-800.615 -5187.631)">
    <g transform="matrix(1, 0, 0, 1, 800.62, 5187.63)" filter="url(#Elipse_5173)">
      <circle id="Elipse_5173-2" data-name="Elipse 5173" cx="52.5" cy="52.5" r="52.5" transform="translate(9 6)" fill="#ffb500"/>
    </g>
    <g id="Grupo_876368" data-name="Grupo 876368" transform="translate(835.615 5219.63)">
      <g id="Grupo_876367" data-name="Grupo 876367" transform="translate(0 0)" clip-path="url(#clip-path)">
        <path id="Trazado_614989" data-name="Trazado 614989" d="M9.683,12.517c-.266-.034-.338-.326-.608-.439a7.584,7.584,0,0,0-1.827,1.312A30.1,30.1,0,0,0,5.1,15.54a19.869,19.869,0,0,0-2.96,4.434,15.019,15.019,0,0,0-1.128,2.782,21.51,21.51,0,0,0-.541,2.286c-.053.366-.313.661-.247,1.065a1.36,1.36,0,0,1-.183,1.075c-.083.113-.013.339-.013.513,0,.8-.02,1.609,0,2.412a20.827,20.827,0,0,0,1.1,5.835A19.378,19.378,0,0,0,2.739,39.47a26.271,26.271,0,0,0,1.5,2.314,24.684,24.684,0,0,0,3.049,3.241A18.335,18.335,0,0,0,9.86,46.906a19.652,19.652,0,0,0,5.585,2.461,7.447,7.447,0,0,0,2.94.469l.32.322a3.59,3.59,0,0,0,.392,1.925,3.2,3.2,0,0,0,2.42,1.534,3.471,3.471,0,0,0,.524,0q14.217,0,28.435.012a3.268,3.268,0,0,0,3.2-2.318,2.423,2.423,0,0,0,.079-.8c.009-4.368,0-8.735.015-13.1a2.709,2.709,0,0,0-.727-1.8c-.246-.294-.54-.548-.733-.741a5.685,5.685,0,0,0-2.7-.331c-2.792-.006-5.585,0-8.346,0-.273-.369.085-.6.105-.872.042-.57.357-1.1.219-1.7.431-1.422.094-2.881.222-4.314a4.612,4.612,0,0,0-.225-1.277c-.07-.39.2-.841-.2-1.173a8.25,8.25,0,0,0-.646-2.67c-.208-.74-.546-1.443-.826-2.163.224-.193.478-.091.709-.092,1.819-.009,3.637,0,5.457,0,.629,0,1.264-.045,1.887.013.6.056,1.1-.4,1.648-.212A2.6,2.6,0,0,0,51,17.275a45.721,45.721,0,0,0-2.273-4.045c-.582-1.021-1.125-2.062-1.784-3.039-.38-.562-.627-1.209-.981-1.792-.744-1.228-1.5-2.454-2.188-3.712C43.181,3.6,42.437,2.6,41.957,1.457A4.52,4.52,0,0,0,40.923.211,3.82,3.82,0,0,0,38.53.174,8.076,8.076,0,0,0,36.754,2.7c-.629,1.107-1.288,2.2-1.958,3.279-.326.528-.445,1.182-.959,1.6A36.482,36.482,0,0,1,31.983,10.9c-.056.116-.086.243-.159.453A21.949,21.949,0,0,0,24,8.509V6.9a2.9,2.9,0,0,0,2.681-1.715c0-.174-.007-.453,0-.731a1.924,1.924,0,0,0-1.152-1.832,2.628,2.628,0,0,0-1.422-.383c-1.993.01-3.988.054-5.98-.016a3.16,3.16,0,0,0-2.706,1.1,2.935,2.935,0,0,0-.247,1.717c.341,1.41,1.448,1.7,2.663,1.866V8.459a20.854,20.854,0,0,0-5.986,1.951c-.148.3-.035.581-.075.85.37.877,1.04.677,1.672.418a20.906,20.906,0,0,1,5.568-1.427,17.535,17.535,0,0,1,10.539,2.04A19.075,19.075,0,0,1,39.695,25.833a17.242,17.242,0,0,1-.175,7.377c-.113.49-.168,1.09-.936.924-.29-.4-.061-.769.007-1.13a17.334,17.334,0,0,0-.648-9.7C35.3,16.539,30.478,12.172,23.2,11.29A18.042,18.042,0,0,0,17.27,46.857c.478.1,1.228-.007,1.054.886-.3.3-.619.159-.914.105A18.786,18.786,0,0,1,2.03,31.183,18.591,18.591,0,0,1,7.1,16.058c.734-.8,1.657-1.4,2.42-2.166.383-.386.879-.826.167-1.375" transform="translate(0 -0.001)" fill="#040506"/>
        <path id="Trazado_614990" data-name="Trazado 614990" d="M9.144,9.425c-.032.175.161.209.234.405-.26.247-.165.829-.766.86-.7.86-1.761,1.354-2.419,2.238a22.153,22.153,0,0,0-2.021,2.616c-.506.945-1.044,1.873-1.528,2.828A17.738,17.738,0,0,0,1.571,21.7c-.611,2.2-.328,4.428-.4,6.646.329.828.127,1.786.63,2.571a11.936,11.936,0,0,0,1.483,4.1,13.779,13.779,0,0,0,2.53,3.668c.345.336.519.781.875,1.116a20.411,20.411,0,0,0,6.276,4.108,10.262,10.262,0,0,0,3.277.971c.312.018.61.269.964.19.32-.072.5.424.954.08.045-.4,0-.943.018-1.5A14.414,14.414,0,0,1,13.5,42.435,18.623,18.623,0,0,1,9.22,39.841a15.7,15.7,0,0,1-1.892-1.733A16.963,16.963,0,0,1,4.955,34.9a20.015,20.015,0,0,1-1.723-4.112c-.162-.538-.195-1.09-.363-1.625a11.853,11.853,0,0,1-.23-3.681A17.909,17.909,0,0,1,4,19.231c.374-.986.993-1.819,1.385-2.782a4.127,4.127,0,0,1,.677-.864,17.692,17.692,0,0,1,4.009-3.895,28.323,28.323,0,0,1,2.422-1.52c1.119-.592,2.365-.872,3.522-1.375.623.124,1.176-.355,1.8-.211a12.969,12.969,0,0,1,3.691-.2c.478-.023,1.03-.173,1.424.08s.93-.136,1.234.331a14.042,14.042,0,0,1,5.087,1.9,19.548,19.548,0,0,1,1.8,1.228A15.243,15.243,0,0,1,33.633,14.3a19.058,19.058,0,0,1,2.8,4.285c.494.989.778,2.055,1.214,3.064.146.339-.143.768.221,1.062-.072.649.3,1.234.252,1.894-.056.835-.013,1.676-.013,2.515,0,.42.148.926-.035,1.237-.266.452.029.975-.208,1.271-.29.36.019.832-.373,1.129-.1.076-.015.395-.015.642H38.9c.216-.623.326-1.334.512-2.023s-.048-1.417.206-2.005a5.746,5.746,0,0,0,.158-1.923c.072-.674-.254-1.312-.228-2.011a9.525,9.525,0,0,0-.354-1.822,9.261,9.261,0,0,0-.551-1.878,20.7,20.7,0,0,0-2.924-5.3,28.315,28.315,0,0,0-3.236-3.353,18.4,18.4,0,0,0-5.163-2.96,30.734,30.734,0,0,0-3.662-1.047,16.462,16.462,0,0,1-1.7-.2,4.083,4.083,0,0,0-1.812-.165,24.68,24.68,0,0,0-4.813.766A21.345,21.345,0,0,0,12.5,8.5a2.913,2.913,0,0,1-.7.086c-.228-.092-.3-.388-.566-.42a12.1,12.1,0,0,0-2.1,1.258" transform="translate(0.539 3.091)" fill="#4fadcf"/>
        <path id="Trazado_614991" data-name="Trazado 614991" d="M17.185,41.294V34.363a7.038,7.038,0,0,0-.016-1.255c-.075-.411.363-.671.219-1.085a8.252,8.252,0,0,1,1.83-1.575H34.556a6.085,6.085,0,0,0,.677-1.944c.107-.6.117-1.23.262-1.786a6.214,6.214,0,0,0,.14-2.02,15.72,15.72,0,0,0-1.432-6,14.866,14.866,0,0,0-2.265-3.766,17.333,17.333,0,0,0-4.055-3.58,17.893,17.893,0,0,0-3.7-1.707c-.57-.178-1.17-.244-1.72-.415-.585-.181-1.188,0-1.7-.2a3.156,3.156,0,0,0-1.6-.159,20.028,20.028,0,0,0-4.791.823,17.212,17.212,0,0,0-4.494,2.328,20.527,20.527,0,0,0-2.91,2.786A14.327,14.327,0,0,0,4.794,18.3a25.43,25.43,0,0,0-1.286,4.082,11.228,11.228,0,0,0-.171,2.542,15.446,15.446,0,0,0,.025,2.615,12.468,12.468,0,0,0,.369,1.721,14.9,14.9,0,0,0,1.3,3.34A13.473,13.473,0,0,0,7.2,35.681c.5.487.993.983,1.483,1.481a13.754,13.754,0,0,0,2.573,1.89,15.4,15.4,0,0,0,3.558,1.541c.4.13.826.167,1.23.312a2.8,2.8,0,0,1,1.142.389" transform="translate(1.523 4.085)" fill="#fff"/>
        <path id="Trazado_614992" data-name="Trazado 614992" d="M42.332,28.807c-.058-.3-.332-.436-.525-.617a5.179,5.179,0,0,1-1.566-3.128c-.029-.206-.19-.273-.292-.429H19.5a5.806,5.806,0,0,1-1.891,3.835,6.425,6.425,0,0,1-3.788,1.866v4.478a1.067,1.067,0,0,0,.472.3,6.04,6.04,0,0,1,4.493,3.217,4.355,4.355,0,0,1,.679,2.175H40.217v-.918a12.348,12.348,0,0,1,2.115-3.229,1.653,1.653,0,0,0,.333-1.17c.013-1.7.007-3.394,0-5.092a2.327,2.327,0,0,0-.338-1.287" transform="translate(6.391 11.392)" fill="#b1d094"/>
        <path id="Trazado_614993" data-name="Trazado 614993" d="M27.529,2.536c-.42.731-.815,1.479-1.265,2.191-.781,1.24-1.506,2.515-2.242,3.779a18.868,18.868,0,0,0-1.34,2.46,25.416,25.416,0,0,1,5.777,6.46h6.836c.722-.509.538-1.188.211-1.765-1.562-2.749-3.159-5.481-4.757-8.21-.155-.265-.332-.765-.844-.389a17.883,17.883,0,0,0-.159,3.624c-.029.472.026.98-.5,1.25-.731-.661-.851-5.189-.211-6.7a3.058,3.058,0,0,0-1.508-2.7" transform="translate(10.49 1.172)" fill="#e14170"/>
        <path id="Trazado_614994" data-name="Trazado 614994" d="M28.514,7.6a8.089,8.089,0,0,1,.624.834c.743,1.3,1.484,2.608,2.26,3.893A23.634,23.634,0,0,1,32.57,14.45a24.6,24.6,0,0,0,1.392,2.293c-.007.431.123.918-.2,1.34h3.26c.088-.1.183-.2.291-.314a2.108,2.108,0,0,0-.5-1.74c-.5-.8-.929-1.641-1.4-2.46-.63-1.106-1.391-2.14-1.97-3.27-.55-1.073-1.223-2.069-1.8-3.125-.607-1.114-1.274-2.2-1.923-3.286-.4-.671-.744-1.372-1.16-2.037a5.49,5.49,0,0,0-.559-.733h-.674A9.082,9.082,0,0,0,26,3.194a13.525,13.525,0,0,1,1.468,2.515c.76.4.665,1.278,1.05,1.888" transform="translate(12.023 0.516)" fill="#df2e5f"/>
        <path id="Trazado_614995" data-name="Trazado 614995" d="M33.315,27.487v7.549c.105,0,.259.045.306-.006a8.314,8.314,0,0,1,2.223-1.283h.81v-4.74a7.829,7.829,0,0,1-3.339-1.521" transform="translate(15.408 12.712)" fill="#9fc683"/>
        <path id="Trazado_614996" data-name="Trazado 614996" d="M13.8,28.581c1.236.151,2.009-.635,2.767-1.262a4.164,4.164,0,0,0,1.332-2.7c-.774,0-1.637,0-2.5,0-.415,0-.676.4-1.087.436-.513,1.126-.513,1.126-.513,3.525" transform="translate(6.381 11.385)" fill="#3b965e"/>
        <path id="Trazado_614997" data-name="Trazado 614997" d="M17.815,36.77a4.158,4.158,0,0,0-1.246-2.594,7.073,7.073,0,0,0-2.48-1.364c-.08.08-.18.178-.3.3a8.1,8.1,0,0,0,.291,3l.658.661Z" transform="translate(6.379 15.174)" fill="#3b965e"/>
        <path id="Trazado_614998" data-name="Trazado 614998" d="M36.846,28.6V25.573a2.769,2.769,0,0,0-1.17-.933H32.912A4.731,4.731,0,0,0,36.846,28.6" transform="translate(15.221 11.395)" fill="#3b965f"/>
        <path id="Trazado_614999" data-name="Trazado 614999" d="M32.923,36.748h3.216l.689-.781V32.829a4.893,4.893,0,0,0-3.9,3.919" transform="translate(15.226 15.182)" fill="#3b965f"/>
        <path id="Trazado_615000" data-name="Trazado 615000" d="M19.444,3.9c.328-.43.405-.816-.05-1.2H11.806c-.455.388-.376.774-.05,1.2Z" transform="translate(5.313 1.244)" fill="#4fadcf"/>
        <rect id="Rect치ngulo_325357" data-name="Rect치ngulo 325357" width="3.076" height="1.401" transform="translate(19.357 6.888)" fill="#bbdbe5"/>
        <path id="Trazado_615001" data-name="Trazado 615001" d="M20.25,15.4v-.8c-.314-.477-.76-.263-1.195-.306-1.129,1.941-2.262,3.886-3.421,5.875-.573-.506-1.053.117-1.591.044-.167-.022-1.22,1.107-1.319,1.3a2.689,2.689,0,0,0,.9,3.2,2.3,2.3,0,0,0,1.679.459,2.836,2.836,0,0,0,1.67-.772,2.512,2.512,0,0,0,.082-3.481c1-1.818,2.09-3.628,3.194-5.527" transform="translate(5.787 6.607)" fill="#060607"/>
        <path id="Trazado_615002" data-name="Trazado 615002" d="M10.45,11.442H9.577c-.329.117-.26.48-.5.692.366.575.5,1.3,1.114,1.784h.664l.509-.55c-.023-.76-.655-1.243-.917-1.926" transform="translate(4.199 5.291)" fill="#0d0d0d"/>
        <path id="Trazado_615003" data-name="Trazado 615003" d="M10.233,26.77c-.648.415-.731,1.17-1.142,1.745.12.234.164.524.409.7.219.158.469,0,.667.085a3.5,3.5,0,0,0,1.23-1.986l-.772-.546Z" transform="translate(4.204 12.38)" fill="#0b0c0c"/>
        <path id="Trazado_615004" data-name="Trazado 615004" d="M5.761,24.8v.581c.146.316.532.282.722.521.572-.426,1.36-.515,1.794-1.169v-.61l-.842-.483A3.079,3.079,0,0,0,5.761,24.8" transform="translate(2.664 10.932)" fill="#0c0c0c"/>
        <path id="Trazado_615005" data-name="Trazado 615005" d="M7.445,17.072l.809-.5V15.88a5.875,5.875,0,0,0-1.637-1.163c-.257.193-.63.193-.845.567v.6a6.072,6.072,0,0,0,1.673,1.186" transform="translate(2.669 6.806)" fill="#0c0c0c"/>
        <path id="Trazado_615006" data-name="Trazado 615006" d="M21.116,16.612,21.78,17A2.707,2.707,0,0,0,23.634,15.9v-.544c-.085-.278-.412-.369-.588-.722a9.676,9.676,0,0,0-1.93,1.3v.684" transform="translate(9.766 6.765)" fill="#0d0d0d"/>
        <path id="Trazado_615007" data-name="Trazado 615007" d="M20.351,11.973l-.731-.417.126-.129h-.607a3.639,3.639,0,0,0-1.182,1.7c.2.247.192.641.6.813h.535c.667-.469.769-1.278,1.258-1.97" transform="translate(8.305 5.284)" fill="#0d0e0e"/>
        <path id="Trazado_615008" data-name="Trazado 615008" d="M4.992,20.944h1.9l.284-.322V19.71c-.658-.5-1.419-.069-2.147-.294-.17.225-.335.442-.556.736v.272c.175.177.348.348.521.521" transform="translate(2.068 8.979)" fill="#0a0a0b"/>
        <path id="Trazado_615009" data-name="Trazado 615009" d="M25.08,20.133c.083-.177-.449-.306-.26-.663H22.567c-.589.5-.206.967,0,1.445h1.813l.7-.782" transform="translate(10.292 9.004)" fill="#0a0a0b"/>
        <path id="Trazado_615010" data-name="Trazado 615010" d="M15.223,10.385c-.333-.018-.534-.373-.949-.215l-.464.556v1.86c.469.13.91.6,1.413-.006Z" transform="translate(6.387 4.684)" fill="#0a0a0b"/>
        <path id="Trazado_615011" data-name="Trazado 615011" d="M29.412,36.251a2.124,2.124,0,0,0,1.29-1.167.494.494,0,0,1,.6-.3,4.2,4.2,0,0,1-.01-2.325,5.077,5.077,0,0,0-3.628-5.623,5.02,5.02,0,0,0-3.254,9.47,4.341,4.341,0,0,0,3.26.222c.572-.2,1.183-.061,1.743-.275" transform="translate(9.866 12.336)" fill="#3c975f"/>
        <path id="Trazado_615012" data-name="Trazado 615012" d="M29.846,36.683a1.765,1.765,0,0,0-1.53-.067,4.393,4.393,0,0,1-4.769-1.092,3.787,3.787,0,0,1-1.291-2.09A5.164,5.164,0,0,1,22.4,30.4a4.689,4.689,0,0,1,1.985-2.406,3.672,3.672,0,0,1,1.666-.537c.35,0,.7.028,1.047,0a3.32,3.32,0,0,1,2.156.629,4.527,4.527,0,0,1,1.707,1.853,4.416,4.416,0,0,1,.386,3.457c-.067.219-.278.377-.243.639a3.783,3.783,0,0,1,.006.572c.067.4.554.276.63.614.129-.028.269.057.39-.07.216-.228.448-.439.671-.655-.174-.358.215-.557.208-.873a1.338,1.338,0,0,1,.126-.785,1.379,1.379,0,0,0,.054-1,11.968,11.968,0,0,0-.575-2.172,7.183,7.183,0,0,0-1.36-1.945,7.39,7.39,0,0,0-1.155-.99,8.156,8.156,0,0,0-1.23-.586,5.563,5.563,0,0,0-2.991-.319,6.742,6.742,0,0,0-2.467.848A5.224,5.224,0,0,0,21.5,28.575a6.236,6.236,0,0,0-.917,2.559c-.042.518-.348,1.043-.075,1.544.254.467.02.965.268,1.465.224.455.461.924.661,1.4a5.016,5.016,0,0,0,1.209,1.381,4.918,4.918,0,0,0,3.279,1.436,1.026,1.026,0,0,1,.67.175.586.586,0,0,0,.674-.034c.189-.183.38-.127.578-.137a4.773,4.773,0,0,0,2-.706Z" transform="translate(9.432 11.904)" fill="#040606"/>
        <path id="Trazado_615013" data-name="Trazado 615013" d="M28.248,6.145V4.753l-.687-.5H27.2c-.3.057-.395.367-.624.516V11.1c.159.1.364.234.57.364-.031.039-.061.078-.094.117h.7L28.248,11Z" transform="translate(12.289 1.968)" fill="#0e0507"/>
        <path id="Trazado_615014" data-name="Trazado 615014" d="M26.568,10.946c-.089.266.262.427.234.7l.594.3c.231.053.284-.338.54-.208.24-.124-.029-.525.374-.516-.208-.352-.253-.7-.562-.93h-.674c-.111.143-.276.357-.506.651" transform="translate(12.28 4.761)" fill="#1c090c"/>
        <path id="Trazado_615015" data-name="Trazado 615015" d="M14.185,21.195h.826l.519-.519v-.858l-.559-.494H14.13c-.094.139-.23.338-.461.677v.722c.12.064.335.181.551.3l-.035.175" transform="translate(6.322 8.936)" fill="#bcdce5"/>
        <path id="Trazado_615016" data-name="Trazado 615016" d="M25.491,35.523c.116-.151.218-.238.411-.193.118-.256.238-.516.363-.788a2.063,2.063,0,0,0,1.15-1.171c.219-.439.467-.9.054-1.376.009-.986-.8-1.214-1.477-1.47a5.21,5.21,0,0,0-.812-.316.77.77,0,0,1,.034-.5c.554-.235.873.417,1.571.352.118-.018.221-.322.458-.481v-.664a13.274,13.274,0,0,1-1.514-1.536c-.4-.161-.611.183-.91.208-.026.059-.079.12-.075.175.019.222,0,.455-.224.532a1.781,1.781,0,0,0-1.033,1.151c.072.348-.11.818.113,1.293a2.579,2.579,0,0,0,1.591,1.2,4.1,4.1,0,0,0,.8.333.627.627,0,0,1-.285.718c-.66.2-1.24-.39-1.988-.1a1.085,1.085,0,0,0-.452.857l.775.722c.25-.034.605.013.649.3.073.483.5.487.8.75" transform="translate(10.761 12.641)" fill="#040706"/>
      </g>
    </g>
  </g>
</svg>
