<svg xmlns="http://www.w3.org/2000/svg" xmlns:xlink="http://www.w3.org/1999/xlink" width="133.333" height="133.176" viewBox="0 0 133.333 133.176">
  <defs>
    <clipPath id="clip-path">
      <rect id="Rectángulo_325265" data-name="Rectángulo 325265" width="133.333" height="133.176" fill="none"/>
    </clipPath>
  </defs>
  <g id="Grupo_876315" data-name="Grupo 876315" clip-path="url(#clip-path)">
    <path id="Trazado_614614" data-name="Trazado 614614" d="M35.795,79.673c-.554,6.385,2.692,9.305,6.759,10.513,3.508,1.039,7.673-1.21,9.568-4.8,1.464.245,2.96-.214,4.544.474,1.05.457,2.463.086,3.716.086a41.734,41.734,0,0,1,4.553.04c1.2.134,2.144-.548,3.268-.611,1.09-.06,2.324.574,3.268-.494,1.824.1,3.465-.745,5.2-1.016,2.118-.328,3.913-1.384,5.886-2.018,3.779-1.21,7.022-3.445,10.27-5.606a34.23,34.23,0,0,0,5.358-4.6,53.289,53.289,0,0,0,6.431-7.539,40.649,40.649,0,0,0,5.141-11.266,30.622,30.622,0,0,0,1.122-5.966,30.412,30.412,0,0,0-.029-7.758,46.88,46.88,0,0,0-2.812-10.616,42.8,42.8,0,0,0-8.752-13.013,50.333,50.333,0,0,0-9.234-7.539,52.574,52.574,0,0,0-8.455-4.185c-2.563-1.036-5.241-1.579-7.824-2.472-1.045-.36-2.284.228-3.208-.677-2.286.3-4.439-.782-6.754-.579s-4.676-.206-6.962.1A63.659,63.659,0,0,0,44.016,2.777a55.3,55.3,0,0,0-12.491,6.1,52.2,52.2,0,0,0-10.3,9.351,30.485,30.485,0,0,0-5.369,8.475c-.836,2.067-1.621,4.156-2.475,6.214-.394.951-.12,1.947-.585,2.98-.748,1.661-1.079,9.668-.577,11.249.645,2.018.531,4.162,1.339,6.143.751,1.835,1.093,3.856,1.967,5.62a52.693,52.693,0,0,0,4.3,7.07,55.287,55.287,0,0,0,7.827,8.261,30.453,30.453,0,0,0,7.133,4.73,9.314,9.314,0,0,1,1,.7" transform="translate(22.221 -0.001)" fill="#040506"/>
    <path id="Trazado_614615" data-name="Trazado 614615" d="M2.1,65.376H40.742a4.521,4.521,0,0,0,.856-3.283c.023-5.62.071-11.244-.011-16.864-.086-5.666-2.96-8.543-8.657-8.606q-11.509-.124-23.021,0c-5.7.063-8.572,2.94-8.657,8.606-.083,5.62-.034,11.244-.011,16.864A4.522,4.522,0,0,0,2.1,65.376" transform="translate(2.234 67.799)" fill="#5b8ac4"/>
    <path id="Trazado_614616" data-name="Trazado 614616" d="M4.329,89.973c0-5.806-.023-11.609.011-17.415.011-2.343-.351-4.727.708-7.19.768-.765,1.716-1.713,2.446-2.443,2.378-1.17,4.664-.848,6.913-.853,6.431-.02,12.862-.031,19.29.006,1.9.011,3.856-.442,5.615.579,1,1,2,2.007,3.12,3.123.925,2.232.508,4.8.528,7.316.046,5.626.014,11.252.014,16.878h4.053c.482-.622.223-1.359.225-2.035q.039-10.062.014-20.124a10.052,10.052,0,0,0-4.39-7.9c-2.926-1.884-2.983-1.9-7.49-2.358a14.6,14.6,0,0,0,3.979-5.583,15.7,15.7,0,0,0,1.464-5.834c-.02-1.79-.128-3.591.023-5.366a15.592,15.592,0,0,0-2.783-9.845,16.551,16.551,0,0,0-8.135-6.485,17.8,17.8,0,0,0-9.22-.916,14.984,14.984,0,0,0-8.107,3.685c-1.961,1.835-3.865,3.714-4.738,6.354-.662,2-1.633,3.911-1.419,6.134a25.225,25.225,0,0,1,.011,4.022,17.021,17.021,0,0,0,5.366,13.824c-.619.422-1.256.166-1.855.22a10.319,10.319,0,0,0-7.8,4.225A11.341,11.341,0,0,0,0,69.156c.1,6.873.034,13.753.034,20.817Z" transform="translate(0.001 43.202)" fill="#040506"/>
    <path id="Trazado_614617" data-name="Trazado 614617" d="M27.968,39.6a6.678,6.678,0,0,0,.04-5.883l-2.934-2.934a6.8,6.8,0,0,0-5.852-.046l-2.558,2.558c-1.9,4.036-.431,6.8,2.518,9,1.984.748,3.962,1.259,5.983.206.928-.962,1.855-1.921,2.8-2.9" transform="translate(29.326 55.809)" fill="#050606"/>
    <path id="Trazado_614618" data-name="Trazado 614618" d="M37.82,74.778c-.305,1.073,0,2.1-.46,3.285-.942,2.412,1.245,5.01,3.916,5.092.534.017,1.068,0,1,0,3.228-.765,2.755-3.976,5.038-5.341.879.126,2-.245,3.223.445.993.562,2.412-.411,3.551.5.277.223.848.1,1.285.1a36.566,36.566,0,0,0,3.754-.023c1.544-.148,3.071.351,4.661-.394,1.356-.634,3.131.374,4.556-.654,3.982-.311,7.579-1.875,11.207-3.385a43.429,43.429,0,0,0,9.836-6.06,37.167,37.167,0,0,0,9.625-10.992c2.049-3.328,2.937-7.022,4.242-10.6-.4-1.6.611-3.031.551-4.6a31.416,31.416,0,0,0-.088-4.815,28.681,28.681,0,0,0-.559-3.779c-.394-1.108-.457-2.286-.956-3.357-.525-1.119-.922-2.3-1.367-3.454C98.668,21.138,94.92,16.688,90.5,12.817A50.328,50.328,0,0,0,72.45,3.375a20.673,20.673,0,0,0-7.265-1.262c-1.479.083-2.8-.779-4.344-.579a19.905,19.905,0,0,1-4.553.011c-1.781-.183-3.36.742-5.152.637-1.559-.094-3.117.674-4.661.911a24.061,24.061,0,0,0-4.818,1.384,49.473,49.473,0,0,0-13.547,7.487A35.537,35.537,0,0,0,18.4,23.21a35.984,35.984,0,0,0-1.721,3.317,25.776,25.776,0,0,1-1.436,3.431c-.631,1.082-.24,2.52-1.1,3.565.354,1.684-.605,3.217-.548,4.875a29.075,29.075,0,0,0,.066,4.815A47.852,47.852,0,0,0,16.6,53.8a54.1,54.1,0,0,0,4.59,7.764,32.02,32.02,0,0,0,5.4,5.769,32.709,32.709,0,0,0,6.642,4.624c1.556.811,3,1.838,4.587,2.826" transform="translate(25.069 2.787)" fill="#d1d1d0"/>
    <path id="Trazado_614619" data-name="Trazado 614619" d="M29.611,28.629H3.822c0,2.752-.2,5.592.06,8.389a12.8,12.8,0,0,0,2.894,6.534,10.5,10.5,0,0,0,5.206,3.531c2.481.759,5.127,1.567,7.753.263,2.161.28,3.705-1.173,5.215-2.221,2.186-1.521,3.365-3.911,4.13-6.525.965-3.3.24-6.605.531-9.971" transform="translate(6.951 53.089)" fill="#e3b888"/>
    <path id="Trazado_614620" data-name="Trazado 614620" d="M4.336,31.2h22.57a12.561,12.561,0,0,0-11.423-6.351A12.478,12.478,0,0,0,4.336,31.2" transform="translate(8.041 46.077)" fill="#384654"/>
    <path id="Trazado_614621" data-name="Trazado 614621" d="M20.275,35.879c.414-.434.836-.879,1.31-1.379v-1.63c-.382-.323-.851-.716-1.479-1.242H18.554c-.274.4-.668.973-1.242,1.81v1.19c.422.24,1.039.588,1.656.939-.1.1-.206.208-.305.311Z" transform="translate(32.104 58.653)" fill="#c8c7c7"/>
    <path id="Trazado_614622" data-name="Trazado 614622" d="M48.9,50.822a5.443,5.443,0,0,0,2.167-.474c.685-.223,1.493-.091,2.127-.6,2.6-4.413,4.844-9.057,7.873-12.774,1.89-.043,2.415,1.422,3.731,1.553,1.618-.491,2.047-2.052,2.623-3.405,3.762-8.8.363-20.289-7.6-25.835a22.205,22.205,0,0,0-35.087,15.02c-.391,2.563-.057,4.573,2.363,6.26a13.675,13.675,0,0,1,6.054,11.672,4.433,4.433,0,0,0,2.523,4.1,23.306,23.306,0,0,0,9.657,3A4.879,4.879,0,0,1,48.9,50.822" transform="translate(45.605 9.359)" fill="#bfd3ed"/>
    <path id="Trazado_614623" data-name="Trazado 614623" d="M62.431,53.228V51.144A22.977,22.977,0,0,1,47.38,46.671c.605-7.022-2.289-12.131-8.489-15.785a15.95,15.95,0,0,1,.7-7.09,23.406,23.406,0,0,1,4.139-7.93,20.462,20.462,0,0,1,9.137-6.411,20.96,20.96,0,0,1,24.211,6.782C82.983,23.69,83.511,33.2,78.3,40.891c-.948-.739-1.068-2.161-2.392-2.692H74.763c-1.422.422-1.878,1.841-2.463,2.863q-2.428,4.243-5.047,8.358a4.608,4.608,0,0,0-.528,2.735c.594.077.8.642,1.3,1.01H82.641c.291-.357.734-.893,1.262-1.533a5.112,5.112,0,0,0-.023-1.147,3.362,3.362,0,0,0-.514-.856c-.811-1.37-1.618-2.74-2.532-4.29,6.993-10.344,7.55-21.226-.194-31.4C73.2,4.166,62.157,1.931,52.41,5.085A23.5,23.5,0,0,0,43.3,10.312a26.293,26.293,0,0,0-6.559,8.834,22.98,22.98,0,0,0-2.192,10.467c-1.176,0-2.229-.037-3.283.006a12.529,12.529,0,0,0-8.686,3.625c-1.527,1.527-3.2,2.923-4,5.047a14.2,14.2,0,0,0-1.225,4.855c-.02,2.415-.123,4.835.026,7.242A12.427,12.427,0,0,0,20.837,58.6c1.576,1.607,3.071,3.334,5.249,4.159a12.421,12.421,0,0,0,4.867,1.2,20.044,20.044,0,0,0,5.432-.471c2.049-.642,4.013-1.307,5.506-2.892,1.476-1.561,3.311-2.806,4.042-5.03.36-1.1.791-2.178,1.09-3.305a2.073,2.073,0,0,1,1.467.131c2.395,1.187,4.775,2.475,7.57,2.446,1.987,1.122,4.125.243,6.177.571.382-.774.1-1.5.194-2.181" transform="translate(32.073 6.954)" fill="#040506"/>
    <path id="Trazado_614624" data-name="Trazado 614624" d="M6.6,30.11c-.414.434-.836.879-1.31,1.379v1.63c.382.323.851.716,1.479,1.242H8.288l1.27-1.436V31.372L7.914,30.41c.1-.1.2-.2.294-.3Z" transform="translate(9.801 55.836)" fill="#0e0c09"/>
    <path id="Trazado_614625" data-name="Trazado 614625" d="M11.133,34.373h1.624l1.3-1.367V31.359c-.4-.291-.893-.654-1.687-1.233H11.061c-.323.371-.771.891-1.27,1.47v1.516c.422.243,1.036.6,1.65.948l-.308.314" transform="translate(18.157 55.865)" fill="#0e0c09"/>
    <path id="Trazado_614626" data-name="Trazado 614626" d="M39.036,18.151c-3.034-1-5.96-2.652-9.231-3.482-.577,1.21-1.065,2.241-1.316,2.769-.2.988.1,1.31.382,1.407,3.836,1.287,7.387,3.368,11.181,4.176,4-4,7.838-7.838,11.569-11.569-.814-.814-1.79-1.787-2.946-2.943-3.043,3.04-6.3,6.3-9.639,9.642" transform="translate(52.712 15.778)" fill="#050607"/>
    <path id="Trazado_614627" data-name="Trazado 614627" d="M40.339,19.735c-2.152-1.065-4.627-1.016-6.425-2.426a27.629,27.629,0,0,0-4.764,1.227c-1.7.742-3.4.009-5.052.745-1.533.685-3.32.037-4.992.274-.425,3.009-.525,6.283.363,8.187A10.986,10.986,0,0,0,23,32.38a10.675,10.675,0,0,0,7.41,2.109c3.16-.388,6.1-1.362,7.793-4.45.442-.811,1.444-1.5,1.513-2.295.123-1.461.873-2.8.654-4.327a26.441,26.441,0,0,1-.034-3.682" transform="translate(34.842 32.097)" fill="#e3b887"/>
    <path id="Trazado_614628" data-name="Trazado 614628" d="M19.169,20.486C21,21.311,22.526,20,24.11,20.23c1.7.248,3.274-.4,4.827-.7a23.69,23.69,0,0,0,4.57-1.344,22.265,22.265,0,0,0,4.858,2.055c-3.026-7.576-15.32-8.266-19.2.248" transform="translate(35.548 26.568)" fill="#384654"/>
    <path id="Trazado_614629" data-name="Trazado 614629" d="M39.646,18.212c-1.519.916-1.353,2.837-3.1,3.8H42.6c-1.653-.951-1.51-2.752-2.954-3.8" transform="translate(67.772 33.772)" fill="#36516f"/>
    <path id="Trazado_614630" data-name="Trazado 614630" d="M22.532,23.093c.414-.434.836-.879,1.31-1.379V20.082l-1.65-1.239H20.811c-.274.4-.668.976-1.242,1.813v1.119l1.87,1.319Z" transform="translate(36.289 34.942)" fill="#0e0c09"/>
    <path id="Trazado_614631" data-name="Trazado 614631" d="M24.082,20.251v1.573c.394.317.873.7,1.553,1.245h1.473c.305-.371.742-.9,1.259-1.524V20.156l-1.327-1.327H25.4c-.385.417-.8.868-1.316,1.422" transform="translate(44.658 34.916)" fill="#0e0c09"/>
  </g>
</svg>
