<svg xmlns="http://www.w3.org/2000/svg" xmlns:xlink="http://www.w3.org/1999/xlink" width="137.821" height="138.217" viewBox="0 0 137.821 138.217">
  <defs>
    <clipPath id="clip-path">
      <rect id="Rectángulo_325362" data-name="Rectángulo 325362" width="137.821" height="138.217" fill="none"/>
    </clipPath>
  </defs>
  <g id="Grupo_876378" data-name="Grupo 876378" transform="translate(0 0)">
    <g id="Grupo_876377" data-name="Grupo 876377" transform="translate(0 0)" clip-path="url(#clip-path)">
      <path id="Trazado_615052" data-name="Trazado 615052" d="M65.548,48.232c1.93-2.332,2.97-4.623,2.19-7.693-.778-1.163-1.34-2.951-3.289-3.723.564-5.431,3-10.4,3.562-15.521l-1.539-1.708c-1.372.326-2.725-.224-4.139.55-1.129.617-2.79-.425-4.021.66-1.89-.347-3.657.478-5.5.59-.8.049-1.717-.361-2.385.507-.112.144-.554-.006-.82.063-.985.256-1.592-.816-2.645-.645-.848.135-1.869.452-2.7-.332-.459-.429-1.1-.186-1.64-.167-1.96.068-3.8-1-5.788-.592-1.243-1-2.71-.391-4.253-.643l-1.465,2.012c-.283,1.163.592,2.757.972,4.41.581,2.526,1.37,5,1.928,7.534.228,1.036,1,2.012.478,3.283-3.008,1.755-3.721,4.594-3.245,7.913.721,1.131,1.448,2.275,2.226,3.5-2.759,2.078-4.6,5.057-6.591,7.822A54.182,54.182,0,0,0,21.965,65.2a56.676,56.676,0,0,0-3.5,10.065,38.353,38.353,0,0,0-1.08,9.9c.042,2.972.055,5.947,0,8.917a22.437,22.437,0,0,0,4.873,14.064c2.537,3.37,5.746,6.3,10.1,7.369a18.25,18.25,0,0,0,4.526.884c8.513-.051,17.028.055,25.541-.059a16.407,16.407,0,0,0,10.367-4.019A23.738,23.738,0,0,0,80.728,100.4c.07-.249.435-.505.389-.683-.389-1.461.66-2.659.634-4.084-.089-4.987.112-9.98-.1-14.958a40.91,40.91,0,0,0-1.366-6.889c-1.1-5.014-3.564-9.454-5.864-13.965a46.691,46.691,0,0,0-4.095-6.346,21.916,21.916,0,0,0-4.78-5.24" transform="translate(19.355 21.811)" fill="#0d0d0a"/>
      <path id="Trazado_615053" data-name="Trazado 615053" d="M16.929,25.058H15.21Q7.616,32.675,0,40.31v1.683c5.061,5.063,10.128,10.13,15.278,15.28H17l1.383-1.659V50.48h16.84c.56-.56,1.032-1.034,1.514-1.52v-15.6l-1.611-1.421H18.444V26.576l-1.516-1.518" transform="translate(0 27.914)" fill="#070707"/>
      <path id="Trazado_615054" data-name="Trazado 615054" d="M69.275,25.058H67.569c-.357.444-.776.964-1.406,1.744v5.086H49.323c-.56.562-1.032,1.036-1.509,1.514V48.99c.459.389.966.822,1.687,1.437H66.119v5.334L67.613,57.3h1.738L84.559,42.054v-1.7l-15.284-15.3" transform="translate(53.263 27.914)" fill="#070707"/>
      <path id="Trazado_615055" data-name="Trazado 615055" d="M48.828,36.85c.454-.471.917-.953,1.488-1.547V18.495h5.372c.408-.522.869-1.108,1.444-1.841V15.261Q49.5,7.6,41.917,0c-.573,0-1.144,0-1.717,0L25,15.246v1.776c.454.4.951.846,1.638,1.457h5.192V35.3c.575.607,1.032,1.091,1.469,1.554Z" transform="translate(27.843 0.001)" fill="#070707"/>
      <path id="Trazado_615056" data-name="Trazado 615056" d="M28.725,15.926c1.412-1.416,2.7-2.706,4.019-4.029V10.055c-.416-.3-.962-.685-1.85-1.319H10c-.283.374-.683.9-1.29,1.708V31.56l1.769,1.247H11.5l3.972-3.981,12.073,12.1h2.089q5.594-5.606,11.181-11.208V28.013L28.725,15.926" transform="translate(9.707 9.732)" fill="#070707"/>
      <path id="Trazado_615057" data-name="Trazado 615057" d="M41.294,27.454V29.68C45.012,33.4,48.735,37.128,52.5,40.9h1.592c4-4.008,7.982-8.006,11.83-11.861l3.767,3.773h2.42c.275-.366.672-.9,1.283-1.714V10.029l-1.577-.862c.112-.14.226-.279.34-.419H50.682c-.3.381-.761.968-1.334,1.7v1.421L53.1,15.623c-4.014,4.025-8.033,8.052-11.8,11.832" transform="translate(46 9.746)" fill="#070707"/>
      <path id="Trazado_615058" data-name="Trazado 615058" d="M66.144,43.557A20.606,20.606,0,0,0,62.5,38.462c-1.562-1.547-3.108-3.112-4.674-4.682H36.553c-1.492,1.5-3.067,3.021-4.579,4.6a40.964,40.964,0,0,0-4.852,6.6A32.051,32.051,0,0,0,24.816,49.2c-.884,2.023-1.609,4.133-2.456,6.158a43.059,43.059,0,0,0-1.991,6.331,20.5,20.5,0,0,0-.753,4.883c.015,4.021-.33,8.077.091,12.054.518,4.892,1.8,9.648,6.232,12.726a6.9,6.9,0,0,0,4.135.879c6.211,0,12.447-.338,18.632.07,11.906.788,20.839-7.762,21.983-18.89.96-9.356,1.148-18.793-3.4-27.547-.347-.307-.243-.839-.573-1.152-.357-.3-.226-.848-.575-1.152" transform="translate(21.719 37.63)" fill="#ffdc5f"/>
      <path id="Trazado_615059" data-name="Trazado 615059" d="M63.9,39.495c-.233,1.427.408,2.681.818,3.968a54.568,54.568,0,0,1,1.558,6.545c.964,5.192.643,10.407.374,15.557a19.834,19.834,0,0,1-5.826,13.627,20.246,20.246,0,0,1-5.974,4.281,14.643,14.643,0,0,1-5.961,1.516q-13.172-.013-26.342,0c1.55,2.543,4.137,3.255,6.756,4.1a12.907,12.907,0,0,0,4.091.5c7.177.011,14.354,0,21.533.011a14.591,14.591,0,0,0,6.488-1.681c2.805-1.353,4.56-3.68,6.547-5.881,1.406-1.556,1.755-3.526,2.6-5.281A11.449,11.449,0,0,0,71.33,72.2c.1-3.932.214-7.879-.027-11.8a37.558,37.558,0,0,0-1.6-8.228,65.593,65.593,0,0,0-4.649-11.606c-.262-.509-.537-.968-1.154-1.078" transform="translate(25.113 43.997)" fill="#ecaf00"/>
      <path id="Trazado_615060" data-name="Trazado 615060" d="M47.33,22.623c-1.068-.3-1.877.615-2.9.6-.9-.017-1.892-.3-2.621.558-1.649-.211-3.365.459-4.97-.421a1.837,1.837,0,0,0-1.076-.142c-2.065.281-3.966-.843-6.052-.651-.907.087-1.8-.877-3.116-.311.884,3.539,1.6,7.166,2.839,10.735h15.6c1.393-3.315,3.2-6.536,2.3-10.365" transform="translate(29.62 24.59)" fill="#ffda5e"/>
      <path id="Trazado_615061" data-name="Trazado 615061" d="M48.45,29.416H27.435c-.342.427-.757.943-1.336,1.668v1.585l1.543.939c-.1.137-.188.277-.283.414H48.45q2.733-2.3,0-4.606" transform="translate(29.073 32.769)" fill="#e85f45"/>
      <path id="Trazado_615062" data-name="Trazado 615062" d="M37.62,22.63c.294,1.055-.664,1.86-.579,2.875s-.579,1.837-.795,2.788c-.347,1.562-1.044,3.048-.926,4.7h3.966c1.44-3.38,2.11-7.058,3.078-10.667-1.793-.888-3.184.831-4.744.3" transform="translate(39.33 24.584)" fill="#eaae00"/>
      <path id="Trazado_615063" data-name="Trazado 615063" d="M36.672,29.416a4.378,4.378,0,0,1,0,4.606h3.769c.381-.438.81-.932,1.355-1.562V30.782c-.4-.353-.956-.835-1.566-1.366Z" transform="translate(40.851 32.769)" fill="#de381f"/>
      <path id="Trazado_615064" data-name="Trazado 615064" d="M41.838,38.95c.087.435-.285,1.1.575,1.152-.087-.438.283-1.1-.575-1.152" transform="translate(46.597 43.389)" fill="#ecaf00"/>
      <path id="Trazado_615065" data-name="Trazado 615065" d="M41.567,38.4c.087.435-.285,1.1.575,1.152-.087-.438.283-1.1-.575-1.152" transform="translate(46.295 42.782)" fill="#ecaf00"/>
      <path id="Trazado_615066" data-name="Trazado 615066" d="M2.726,36.89c2.653,2.659,5.253,5.266,7.851,7.872.381-.526.063-1.209.165-1.9L12.283,41.4H29.03V32.366H12.211c-.408-.548-.8-1.078-1.2-1.611-.556-.5.07-1.353-.374-1.8L2.726,36.89" transform="translate(3.037 32.257)" fill="#e85f45"/>
      <path id="Trazado_615067" data-name="Trazado 615067" d="M66.786,41.313l1.573,1.674V44.45c2.545-2.552,5.181-5.194,7.686-7.707l-7.729-7.748c-.342.277.11.977-.1,1.881L66.158,32.2H50.05v9.117Z" transform="translate(55.753 32.3)" fill="#e85f45"/>
      <path id="Trazado_615068" data-name="Trazado 615068" d="M28.68,10.766h2.27c.349.463.746.994,1.378,1.837V29.119h9.166v-16.8c.556-.562,1.025-1.036,1.594-1.609h1.752l-8-8.016a50.709,50.709,0,0,0-3.86,3.765c-1.374,1.33-2.7,2.7-4.3,4.3" transform="translate(31.948 3.005)" fill="#d6d6d7"/>
      <path id="Trazado_615069" data-name="Trazado 615069" d="M10.908,22.774a5.2,5.2,0,0,1,2.463-1.934c1.306.347,2.12,1.4,3.038,2.313,3.236,3.239,6.469,6.483,9.836,9.859a39.677,39.677,0,0,0,3.31-3.188c1.084-1.049,2.137-2.133,3.365-3.363-2.19-2.2-4.317-4.232-6.327-6.371-2-2.122-4.441-3.839-5.9-6.458a4.83,4.83,0,0,1,1.858-2.579c-4.031-.311-7.792-.025-11.648-.175Z" transform="translate(12.151 12.117)" fill="#3cb1c1"/>
      <path id="Trazado_615070" data-name="Trazado 615070" d="M63.364,20.856c.668.444,1.666.622,2.287,1.945V10.935H54.477c-.271.676.526.795.81,1.131.319.378-.161,1.091.588,1.127-.161,1.351-1.106,2.08-1.915,2.894-3.363,3.378-6.733,6.752-9.914,9.942,2.222,2.228,4.34,4.353,6.6,6.621,3.137-3.143,6.494-6.517,9.862-9.879.782-.782,1.448-1.725,2.854-1.915" transform="translate(49.064 12.182)" fill="#3cb0c1"/>
      <path id="Trazado_615071" data-name="Trazado 615071" d="M36.159,58.926c-3.518-2.167-3.518-2.167-5.437-5.467-.368-4.124,1.674-6.72,5.917-8.365H51.293V40.556H42.228V36.007H37.7v4.376a11.8,11.8,0,0,0-9.065,4.2,10.957,10.957,0,0,0-2.522,6.145,11.861,11.861,0,0,0,1.311,6.934,12.142,12.142,0,0,0,6.38,5.3,8.079,8.079,0,0,0,3.5.583c2.105-.055,4.211-.015,5.788-.015,3.133,1.008,4.964,2.788,6.04,6.281.3,3.31-1.746,5.906-5.989,7.551H28.491V81.9h9.065v4.549h4.467c.465-1.315-.061-2.85.26-4.378,3.294-.175,6.283-1.182,8.441-3.805,3.847-4.676,4.124-9.4,1.114-14.392a10.259,10.259,0,0,0-9.075-4.951q-3.3,0-6.6,0" transform="translate(29.017 40.111)" fill="#0d0d0a"/>
    </g>
  </g>
</svg>
