<svg xmlns="http://www.w3.org/2000/svg" xmlns:xlink="http://www.w3.org/1999/xlink" width="123" height="123" viewBox="0 0 123 123">
  <defs>
    <filter id="Elipse_5171" x="0" y="0" width="123" height="123" filterUnits="userSpaceOnUse">
      <feOffset dy="3" input="SourceAlpha"/>
      <feGaussianBlur stdDeviation="3" result="blur"/>
      <feFlood flood-opacity="0.161"/>
      <feComposite operator="in" in2="blur"/>
      <feComposite in="SourceGraphic"/>
    </filter>
    <clipPath id="clip-path">
      <rect id="Rectángulo_325325" data-name="Rectángulo 325325" width="55.813" height="55.8" fill="none"/>
    </clipPath>
  </defs>
  <g id="Grupo_877373" data-name="Grupo 877373" transform="translate(-170.615 -5187.631)">
    <g transform="matrix(1, 0, 0, 1, 170.62, 5187.63)" filter="url(#Elipse_5171)">
      <circle id="Elipse_5171-2" data-name="Elipse 5171" cx="52.5" cy="52.5" r="52.5" transform="translate(9 6)" fill="#ffb500"/>
    </g>
    <g id="Grupo_876364" data-name="Grupo 876364" transform="translate(204.615 5218.631)">
      <g id="Grupo_876363" data-name="Grupo 876363" transform="translate(0 0)" clip-path="url(#clip-path)">
        <path id="Trazado_614926" data-name="Trazado 614926" d="M17.65,18.521c.1-.461-.345-.587-.543-.872-2.684,0-5.374-.038-8.059.017a4.87,4.87,0,0,0-3.431,1.44,5.25,5.25,0,0,0-1.4,1.821A5.949,5.949,0,0,0,3.7,23c.006,2.832,0,5.663,0,8.526a1.888,1.888,0,0,0-1.741,1.615V35.95c.377,1.061,1.244,1.2,2.093,1.3a18.884,18.884,0,0,0,1.992.013c-.606.583-1.086,1.017-1.533,1.484a21.687,21.687,0,0,0-4,5.968A7.027,7.027,0,0,0,.177,48.99c.109.615.36,1.17.493,1.77A4.383,4.383,0,0,0,1.3,51.91,8.593,8.593,0,0,0,4.585,54.9a10.415,10.415,0,0,0,1.9.669,5.982,5.982,0,0,0,2.311.2,8.82,8.82,0,0,0,4.631-1.724,9.08,9.08,0,0,0,2.612-3.271c.259-.463.152-1.023.52-1.421-.088-.749.345-1.442.223-2.2a12.213,12.213,0,0,0-1.408-4.212,30.847,30.847,0,0,0-2.629-3.7,24.806,24.806,0,0,0-1.893-1.916c1-.2,2.011.145,3.048-.4.206-.225.522-.57.916-1,0-.754-.013-1.661,0-2.566a1.379,1.379,0,0,0-.9-1.467c-.28-.112-.549-.253-.848-.392,0-1.4,0-2.815,0-4.227a1.04,1.04,0,0,1,.055-.227h6.381A12.62,12.62,0,0,0,23.387,32.4a11.4,11.4,0,0,0,5.431,2.636,12.143,12.143,0,0,0,8.966-1.274A13.476,13.476,0,0,0,43.8,27.056h4.716a3.936,3.936,0,0,0,1.322,1.463,1.25,1.25,0,0,0,.871.263,20.33,20.33,0,0,1,2.286-.015A2.581,2.581,0,0,0,55.5,27.218c.093-.177.076-.423.3-.528,0-2.615-.029-5.231.011-7.846a2.868,2.868,0,0,0-1.7-2.773.855.855,0,0,1-.17-.166c-1.074,0-2.162.01-3.25,0a1.4,1.4,0,0,0-1.118.455c-.352.392-.853.661-1.027,1.253H43.816a14.607,14.607,0,0,0-3.7-5.2,14.746,14.746,0,0,0-5.652-2.852V5.709c1.183-.175,2.379.192,3.684-.383A2.751,2.751,0,0,0,39.014,4.1c0-.6-.019-1.36.006-2.12.025-.745-.107-1.379-.9-1.69C38,.248,37.919.1,37.83,0H25.692A2.554,2.554,0,0,0,24.21,1.53V4.191a2.785,2.785,0,0,0,.253.539,2.268,2.268,0,0,0,1.9.933c.762,0,1.526,0,2.368,0,.082,1.28.013,2.566.044,3.827-.187.12-.255.29-.47.32a10.606,10.606,0,0,0-3.012,1.145,12.144,12.144,0,0,0-3.337,2.724A9.093,9.093,0,0,0,19.6,17.5c-.1.349-.44.613-.423,1.023-.335.5-.069.825.331,1.078a1.006,1.006,0,0,0,1.3-.107A3.445,3.445,0,0,0,21.6,18.2a10.842,10.842,0,0,1,17.414-3.831,9.864,9.864,0,0,1,2.661,3.939,2.279,2.279,0,0,0,2.413,1.621,27.189,27.189,0,0,1,3.846.084,18.981,18.981,0,0,1,.042,4.553,9.924,9.924,0,0,1-3.4.15,2.743,2.743,0,0,0-3.065,1.954,10.477,10.477,0,0,1-10,6.471,10.517,10.517,0,0,1-9.958-6.892,2.1,2.1,0,0,0-2.133-1.509c-1.962.015-3.924-.036-5.886.019-1.808.05-2.634.9-2.722,2.711-.051,1.088.055,2.177-.063,3.263a1.047,1.047,0,0,1-.192.411,17.432,17.432,0,0,1-4.238.057A1.442,1.442,0,0,1,5.977,30c-.008-2.215-.021-4.431,0-6.646A3.186,3.186,0,0,1,9.373,19.93c2.071-.025,4.141,0,6.212-.008a3.441,3.441,0,0,0,1.3-.13c.556-.225,1.088-.5.77-1.272" transform="translate(0 0.001)" fill="#2a2a2a"/>
        <path id="Trazado_614927" data-name="Trazado 614927" d="M14.961,13.248c.114.316-.3.474-.215.758-.16.173-.446.088-.545.331-2.682,0-5.368.013-8.054-.01a2.833,2.833,0,0,0-1.865.768,4.823,4.823,0,0,0-1.311,1.842V26.2a.517.517,0,0,0,.069.076.178.178,0,0,0,.091.04c1.737,0,3.476,0,5.29,0,0-1.185-.006-2.335,0-3.488a3.635,3.635,0,0,1,.232-1.9c.276-.276.528-.528.779-.777a4.513,4.513,0,0,1,2.518-.366c1.888-.006,3.775,0,5.634,0,.257.272.5.533.853.9a6.117,6.117,0,0,0,1.208,2.568,10.9,10.9,0,0,0,4.665,3.926,8.693,8.693,0,0,0,3.446.888.83.83,0,0,1,.507.093,1.281,1.281,0,0,0,1.219.044,1.752,1.752,0,0,1,.815-.135,6.873,6.873,0,0,0,3.038-.823c.6-.314,1.217-.573,1.8-.922A11.908,11.908,0,0,0,36.967,24.7a8.556,8.556,0,0,0,2.427-3.9,1.882,1.882,0,0,1,.821-1.04h5.459V14.337H41.684c-.255,0-.51-.019-.762,0a1.428,1.428,0,0,1-1.543-1.086,11.707,11.707,0,0,0-1.888-3.368,9.789,9.789,0,0,0-1.964-1.861A8.766,8.766,0,0,0,32.683,6.5a10.843,10.843,0,0,0-3.973-.655,14.5,14.5,0,0,0-4.175.952A11.406,11.406,0,0,0,19.567,11a5.363,5.363,0,0,0-.947,1.893,2.163,2.163,0,0,1-.991,1.453c-.457.048-.789-.274-1.143-.5v-.594Z" transform="translate(2.689 5.273)" fill="#c3c7d2"/>
        <path id="Trazado_614928" data-name="Trazado 614928" d="M7.482,19.667c-.825.825-1.611,1.577-2.36,2.366a18.991,18.991,0,0,0-3.646,5.231,3.568,3.568,0,0,0-.448,1.884,7.629,7.629,0,0,1,.006.979,5.885,5.885,0,0,0,.84,2.808A8.512,8.512,0,0,0,4.61,35.568c.726.027,1.326.589,2.1.469a5.025,5.025,0,0,1,1.2-.006,5.636,5.636,0,0,0,3.257-1.074,6.188,6.188,0,0,0,2.429-3.112,4.47,4.47,0,0,0,.3-1.394,7.652,7.652,0,0,0-1.632-5.3c-.491-.711-1.061-1.383-1.577-2.078-.93-1.251-2.158-2.2-3.2-3.408" transform="translate(0.918 17.796)" fill="#39b5e5"/>
        <path id="Trazado_614929" data-name="Trazado 614929" d="M29.386,9.266H27.13a2.09,2.09,0,0,0-.808,1.137c0,2.139.01,4.459-.008,6.779a1.841,1.841,0,0,0,.764,1.434c2.183.05,2.183.05,2.937-.51V9.782l-.63-.516" transform="translate(23.81 8.385)" fill="#274962"/>
        <path id="Trazado_614930" data-name="Trazado 614930" d="M13.739,1.047V2.719H24.8c.1-.514,0-1.078.055-1.672Z" transform="translate(12.431 0.948)" fill="#274962"/>
        <rect id="Rectángulo_325323" data-name="Rectángulo 325323" width="9.297" height="1.676" transform="translate(3.718 33.592)" fill="#274962"/>
        <rect id="Rectángulo_325324" data-name="Rectángulo 325324" width="1.672" height="3.631" transform="translate(30.748 5.701)" fill="#aeb5c1"/>
        <path id="Trazado_614931" data-name="Trazado 614931" d="M20.887,6.877A8.543,8.543,0,0,0,15.46,8.7a9.129,9.129,0,0,0-1.85,1.836,7.146,7.146,0,0,0-.857,1.49,6.463,6.463,0,0,0-.857,3.242c.011.2.088.43-.147.592-.139.1-.1.291-.057.4.322.842.25,1.749.509,2.617a9.732,9.732,0,0,0,3.046,4.509,9.1,9.1,0,0,0,3.042,1.585,7.9,7.9,0,0,0,3.958.389,8.728,8.728,0,0,0,5.01-2.343,8.636,8.636,0,0,0,2.168-2.806,9.1,9.1,0,0,0,.817-2.72,8.85,8.85,0,0,0,.19-1.547,9.836,9.836,0,0,0-2.351-5.9,12.085,12.085,0,0,0-2.766-2.257,5.652,5.652,0,0,0-2-.665c-.379-.061-.68-.347-1.1-.267a7.879,7.879,0,0,1-1.326.015" transform="translate(10.544 6.196)" fill="#2a2a2a"/>
        <path id="Trazado_614932" data-name="Trazado 614932" d="M8.153,27.475a4.187,4.187,0,0,0-1.886-1.4H5.3a1.7,1.7,0,0,1-.573-.985c.025-.423.4-.482.5-.75h.939a2.851,2.851,0,0,0,1.12.85c.282.11.333-.408.63-.183.122-.419.436-.72.24-1.278-.324-.25-.581-.779-1.162-.975a.637.637,0,0,1-.312-.4,1.511,1.511,0,0,0-.507-.821H5.25l-.516.51v.512c-1.813.838-2.145,2.288-1.442,4.111a3.591,3.591,0,0,0,2.869,1.4c.354.21.257.627.623.768-.3.314-.282.718-.669.931H5.261c-.227-.265-.486-.564-.716-.832H3.7l-.465.7v.735c.4.291.667.77,1.194.994.341.147.448.585.549.952a1.068,1.068,0,0,0,1.472-.051,2.429,2.429,0,0,1,.979-1.211,2.206,2.206,0,0,0,1-1.834,3.082,3.082,0,0,0-.284-1.733" transform="translate(2.669 19.476)" fill="#2a2a2a"/>
        <path id="Trazado_614933" data-name="Trazado 614933" d="M12.934,13.2c.15.651-.25,1.3-.25,2.015A7.75,7.75,0,0,0,13.829,19.2a6.366,6.366,0,0,0,3.147,2.789,5.856,5.856,0,0,0,2.68.63,7.148,7.148,0,0,1,1.088,0,5.285,5.285,0,0,0,3.2-.922,7.428,7.428,0,0,0,3.006-3.4,7.727,7.727,0,0,0,.6-3.24,7.211,7.211,0,0,0-.806-3.152A8,8,0,0,0,23.8,8.876a5.092,5.092,0,0,0-2.587-.857c-1.032-.535-2.055-.133-3.036.124a6.566,6.566,0,0,0-3.154,1.825,6.429,6.429,0,0,0-1.1,1.278,2.983,2.983,0,0,0-.57,1.189c-.023.246-.25.472-.413.762" transform="translate(11.477 7.017)" fill="#ffca61"/>
        <path id="Trazado_614934" data-name="Trazado 614934" d="M18.473,15.376c.469.3.244.771.282,1.141l-.56.56h-.636l-.859-.859h-.648a1.757,1.757,0,0,0-.714,1.038,3.536,3.536,0,0,0,1.68,1.608v.507c.179.177.36.354.549.539h.644c.242-.276.68-.45.549-.96A3.508,3.508,0,0,0,20.5,17.323a2.236,2.236,0,0,0,.2-1.634,2.9,2.9,0,0,0-1.042-1.739,3.454,3.454,0,0,0-2.12-.566c-.116-.168-.263-.373-.5-.709v-.541l.65-.476h.773c.107.179.421.23.28.514a1.587,1.587,0,0,0,1.227.312c.11-.131.328-.21.331-.478,0-.16.276-.234.217-.469a2.483,2.483,0,0,0-1.735-1.712c-.141-.1.086-.368-.074-.533s-.307-.309-.474-.476h-.648c-.33.238-.665.5-.573.985a3.355,3.355,0,0,0-1.486,1.227,2.845,2.845,0,0,0,.192,3.122,3.434,3.434,0,0,0,2.754,1.227" transform="translate(13.71 7.978)" fill="#2b2a2a"/>
      </g>
    </g>
  </g>
</svg>
