<svg xmlns="http://www.w3.org/2000/svg" xmlns:xlink="http://www.w3.org/1999/xlink" width="69.054" height="61.741" viewBox="0 0 69.054 61.741">
  <defs>
    <clipPath id="clip-path">
      <rect id="Rectángulo_324891" data-name="Rectángulo 324891" width="69.054" height="61.741" fill="none"/>
    </clipPath>
  </defs>
  <g id="Grupo_876231" data-name="Grupo 876231" transform="translate(0 0)">
    <g id="Grupo_876230" data-name="Grupo 876230" transform="translate(0 0)" clip-path="url(#clip-path)">
      <path id="Trazado_613914" data-name="Trazado 613914" d="M20.631,1.044H17.665c-1.31,1.274-1.386,1.274-2.7,0-.893,0-1.788-.034-2.679.018-.353.021-.537-.239-.827-.286-.343.236-.423.688-.932,1.052-.984.4-2.212.115-3.407.183-.582.033-1.168,0-1.751.01-2.391.051-3.7,1.3-3.712,3.657q-.045,8.285,0,16.57a3.336,3.336,0,0,0,3.683,3.684c6.38.027,12.76.007,19.141.014a2.477,2.477,0,0,0,2.3-1.1A17.642,17.642,0,0,1,32.839,19.2a2.689,2.689,0,0,0,.648-.479,1.3,1.3,0,0,0,.282-.554,17.961,17.961,0,0,0-2.352-4.655c-1.911,1.213-1.763,3.77-3.388,4.781a1.49,1.49,0,0,1-1.341-.893c-1.165-1.924-2.138-3.947-3.123-5.966a2.527,2.527,0,0,1-.146-.377c-.146-.507-.181-1.007.374-1.287s.96.031,1.28.442a19.609,19.609,0,0,1,1.5,2.709c.294.537.491,1.179,1.287,1.344,1.5-1.2,1.446-3.544,3.231-4.7,1.961,1.025,1.989,3.483,3.6,4.783,1.768-1.185,1.542-3.794,3.425-4.742,1.111.412.919,1.114.613,1.807-.6,1.356-1.172,2.72-1.852,4.041a2.139,2.139,0,0,0-.307,1.914c2.287-.157,4.626-.37,6.983-.467a3.738,3.738,0,0,0-.749-2.493,26.526,26.526,0,0,1-1.553-2.985c-.282-.7-.435-1.417.67-1.792,1.967.927,1.751,3.6,3.558,4.852,1.492-1.389,1.5-3.643,3.163-4.931,2.284.813,1.978,3.639,3.824,4.886,1.557-1.3,1.464-3.765,3.214-4.812.885.166,1.182.7.947,1.31a49.622,49.622,0,0,1-3.436,6.993c-.112.193-.355.266-.753.35-1.941-.835-1.681-3.623-3.681-4.689a7.324,7.324,0,0,0-1.887,3.843,2.679,2.679,0,0,0,1.62,1.3,17.11,17.11,0,0,1,6.844,5.924,2.551,2.551,0,0,0,2.336,1.284c1.617-.04,3.235.024,4.852-.02a3.287,3.287,0,0,0,3.5-3.458q.074-8.487,0-16.975C66,3.241,64.608,2.026,62.13,2.022Q48.986,2,35.845,2.016c-4.089,0-8.178-.025-12.267.016a3.679,3.679,0,0,1-2.946-.988" transform="translate(0.682 0.322)" fill="#ffb757"/>
      <path id="Trazado_613915" data-name="Trazado 613915" d="M21.313,1.366c-.125.387.324.6.286.961.178.191.531.086.653.388,13.654,0,27.312.017,40.968-.03a3.356,3.356,0,0,1,2.765,1.458,2.246,2.246,0,0,1,.368,1.463c-.02,6.061-.013,12.121-.013,18.182a4.26,4.26,0,0,1-2.12,2.1H57.035c-1.8-3.034-4.124-5.645-9.3-7.959a28.346,28.346,0,0,1,1.74-3.9c1.433,1.487,1.676,3.707,3.194,5.087a1.489,1.489,0,0,0,1.389-.294,43.745,43.745,0,0,0,2.022-3.947,26.752,26.752,0,0,0,1.894-4.086,2.94,2.94,0,0,0-.957-1.335H55.875a28.3,28.3,0,0,0-2.717,5.258c-1.222-1.708-1.572-3.817-3.094-5.239H48.878c-1.211,1.457-1.8,3.347-2.633,5.09-.316.047-.314-.143-.416-.362-.456-.981-1.015-1.913-1.475-2.893a4.66,4.66,0,0,0-1.359-1.856,2.088,2.088,0,0,0-1.682.6v1.467q1.414,2.619,2.921,5.417a9.893,9.893,0,0,1-1.819.058,15.375,15.375,0,0,1-1.751-.007c-.624-.055-1.209.294-1.771.235-.595-.061-1.031.559-1.665.211a5.269,5.269,0,0,1,.838-1.885c.767-1.349,1.172-2.854,1.969-4.173.362-.6.01-1.055-.159-1.562a1.607,1.607,0,0,0-2.03,0c-.772,1.548-1.569,3.149-2.407,4.831L32.8,9.795a1.427,1.427,0,0,0-2.144.379c-.568,1.141-1.365,2.74-2.163,4.344-.286-.1-.334-.385-.48-.63a39.524,39.524,0,0,0-2.27-4.137c-.568-.275-1.235-.637-1.913.13-.531.606-.367,1.267.034,2.008.731,1.352,1.28,2.8,2.061,4.124a21.387,21.387,0,0,0,1.91,3.119h1.144a2.707,2.707,0,0,0,.96-1.287c.64-1.263,1.262-2.536,1.955-3.939.568,1.124,1.056,2.1,1.556,3.074a2.75,2.75,0,0,0,.657,1.076c.28.212.064.49.166.678a17.99,17.99,0,0,0-7.739,7.154c-6.871,0-13.789-.025-20.707.02a2.987,2.987,0,0,1-2.88-1.8,1.153,1.153,0,0,0-.212-.215V4.739A3.7,3.7,0,0,1,3.8,3.375a2.089,2.089,0,0,1,1.614-.67c2.02.025,4.041.01,6.056.01.228-.229.452-.45.674-.673V1.1c.12-.571-.425-.726-.67-1.079-2.061,0-4.127-.052-6.19.016A5.058,5.058,0,0,0,.474,3.221,4.962,4.962,0,0,0,.009,5.185C.016,11.243-.03,17.3.035,23.361a4.966,4.966,0,0,0,3.217,4.787A5.792,5.792,0,0,0,5.5,28.6c6.152-.023,12.305-.013,18.457-.013H25.3a17.838,17.838,0,0,0-.769,8.893,18.724,18.724,0,0,0,3.557,7.954,11.643,11.643,0,0,0,1.708,1.716,10.457,10.457,0,0,0,1.669,1.474c.648.377,1.262.858,1.92,1.239a14.571,14.571,0,0,0,1.913.9c.7.276,1.41.505,2.128.718.7.207,1.472.157,2.138.377A6.806,6.806,0,0,0,41.912,52c.724-.014,1.509.309,2.18-.242a4.975,4.975,0,0,0,2.3-.32,11.646,11.646,0,0,0,1.995-.7,6.287,6.287,0,0,1,2.154-.9l.707.705c2.826,2.825,5.666,5.635,8.468,8.484A28.78,28.78,0,0,0,62,61.013a4.593,4.593,0,0,0,4.829.085,4.64,4.64,0,0,0,2.182-4.582,3.386,3.386,0,0,0-.643-1.733A16.931,16.931,0,0,0,66.6,52.67a31.291,31.291,0,0,0-3.619-3.292c-.549-.268-.973.273-1.5.224-.959.934-.513,1.812.176,2.6,1,1.15,2.141,2.172,3.21,3.264a4.065,4.065,0,0,1,.916,1.15,1.274,1.274,0,0,1-.282,1.488,1.321,1.321,0,0,1-1.584.381,3.244,3.244,0,0,1-.96-.729q-4.483-4.464-8.952-8.944a1.663,1.663,0,0,1-.487-.7c.74-1.352,2.4-2.025,2.842-3.626a.926.926,0,0,1,.178-.6,15.208,15.208,0,0,0,2.476-5.968,11.245,11.245,0,0,0,.326-3.52c-.079-.619.19-1.362-.068-1.855-.306-.59,0-1.179-.249-1.651a13.383,13.383,0,0,1-.481-1.691c-.069-.184-.248-.317-.252-.61,1.8,0,3.585.033,5.37-.008a5.107,5.107,0,0,0,4.866-3.113,4.7,4.7,0,0,0,.493-1.947c.023-6.152.065-12.305-.021-18.457a4.706,4.706,0,0,0-2.267-4.041,5.365,5.365,0,0,0-2.968-.98Q43.007,0,22.253.02c-.156.167-.293.354-.562.259-.067.406-.48.654-.378,1.087" transform="translate(0 0)" fill="#040506"/>
      <path id="Trazado_613916" data-name="Trazado 613916" d="M40.839,31.417c-.64.215-.685.94-1.161,1.335-.824.682-1.539,1.5-2.345,2.3l4.8,4.8,5.038,5.033c.157.159.313.32.474.474,1.345,1.283,2.716.326,3.146-.99a1.614,1.614,0,0,0-.62-1.608q-1.765-1.75-3.517-3.511a2.98,2.98,0,0,1-.559-.576c-.3-.547-.746-1.1-.143-1.743.067-.072.008-.261.008-.4a2.733,2.733,0,0,1-1.079-1.077c-.565-.45-1.58.255-1.916-.736-.248-.49.245-.944.028-1.42-.161-.033-.348.078-.49-.085a13.3,13.3,0,0,1-1.666-1.8" transform="translate(15.525 13.064)" fill="#e4464e"/>
      <path id="Trazado_613917" data-name="Trazado 613917" d="M11.06,1.36c-.123.375.316.589.276.947a1.608,1.608,0,0,0,2.07.05c.075-.319.442-.578.35-1,.14-.378-.345-.578-.265-.934A1.613,1.613,0,0,0,11.41.367c-.075.319-.44.578-.35.994" transform="translate(4.59 0.005)" fill="#0f0d0b"/>
      <path id="Trazado_613918" data-name="Trazado 613918" d="M41.493,32.83c-.055.331-.4.44-.522.675a2.667,2.667,0,0,0,.021.817c.062.183.307.3.245.494.694.7,1.42.4,2.144.17-.048-.52.5-.932.176-1.576-.219-.221-.534-.534-.838-.838a1.568,1.568,0,0,0-1.225.258" transform="translate(17.029 13.537)" fill="#0e0a0a"/>
      <path id="Trazado_613919" data-name="Trazado 613919" d="M6.149,6.678H5.056c-.558.249-.718.821-1.079,1.328,1.11,2.236,2.312,4.467,3.409,6.749.181.375.375.742.566,1.117a1.954,1.954,0,0,0,1.63.5c1.414-1.375,1.94-3.333,2.832-5.06.551.11.573.622.752.949.517.943.919,1.948,1.385,2.919a1.789,1.789,0,0,0,1.986,1.191,6.2,6.2,0,0,0,1.9-3c.515-1.277,1.167-2.478,1.768-3.705a3.426,3.426,0,0,0,.483-2.356,1.85,1.85,0,0,0-1.717-.612,6.476,6.476,0,0,0-1.764,2.9,6.765,6.765,0,0,1-1.168,2.213c-1.184-1.6-1.668-3.586-2.905-5.114H12a4.551,4.551,0,0,0-1.514,2.291,14.442,14.442,0,0,1-1.4,2.808C7.9,10.185,7.313,8.281,6.149,6.678" transform="translate(1.654 2.772)" fill="#050506"/>
      <path id="Trazado_613920" data-name="Trazado 613920" d="M33.883,43.583a15.105,15.105,0,0,0,10.783-4.747,14.268,14.268,0,0,0,4.013-10.718A14.33,14.33,0,0,0,44,17.942a14.3,14.3,0,0,0-10.725-4.011A14.344,14.344,0,0,0,23.09,18.612a14.278,14.278,0,0,0-4.014,10.719A14.419,14.419,0,0,0,23.757,39.51a15.178,15.178,0,0,0,10.126,4.073" transform="translate(7.927 5.787)" fill="#fff"/>
      <path id="Trazado_613921" data-name="Trazado 613921" d="M34.164,15.967c-4.454.074-7.272,1.24-9.5,3.472a11.614,11.614,0,0,0-3.516,9.027A11.9,11.9,0,0,0,33.575,39.731a11.894,11.894,0,0,0,11.3-12.519A11.785,11.785,0,0,0,41.437,19.5c-1.954-2-5.185-3.613-7.273-3.53" transform="translate(8.789 6.638)" fill="#040506"/>
      <path id="Trazado_613922" data-name="Trazado 613922" d="M32.521,17.886a9.186,9.186,0,0,0-7.05,3.108,8.629,8.629,0,0,0-2.418,6.414,8.872,8.872,0,0,0,3.085,6.41,8.622,8.622,0,0,0,6.417,2.417,8.878,8.878,0,0,0,6.412-3.082,8.615,8.615,0,0,0,2.42-6.414A8.915,8.915,0,0,0,38.3,20.327a8.746,8.746,0,0,0-5.782-2.441" transform="translate(9.585 7.438)" fill="#64c5f3"/>
      <path id="Trazado_613923" data-name="Trazado 613923" d="M33.154,24.91a2.875,2.875,0,0,0,.934,2.546h1.128l.6-.74A4.93,4.93,0,0,0,35,22.786a5.63,5.63,0,0,0-5.823-2.522c-.16.159-.382.381-.606.6v1.017a1.929,1.929,0,0,0,1.756.97,2.989,2.989,0,0,1,2.6,1.826,1.363,1.363,0,0,0,.224.228" transform="translate(11.883 8.385)" fill="#040607"/>
    </g>
  </g>
</svg>
