<svg id="Grupo_876380" data-name="Grupo 876380" xmlns="http://www.w3.org/2000/svg" xmlns:xlink="http://www.w3.org/1999/xlink" width="131.978" height="131.772" viewBox="0 0 131.978 131.772">
  <defs>
    <clipPath id="clip-path">
      <rect id="Rect치ngulo_325364" data-name="Rect치ngulo 325364" width="131.978" height="131.772" fill="none"/>
    </clipPath>
  </defs>
  <g id="Grupo_876379" data-name="Grupo 876379" transform="translate(0 0)" clip-path="url(#clip-path)">
    <path id="Trazado_615072" data-name="Trazado 615072" d="M111.008,88.443l-.741.741a29.368,29.368,0,0,1-5.18,14.938,28.444,28.444,0,0,1-4.35,5.408,15.257,15.257,0,0,1-1.1,1.077,46.576,46.576,0,0,1-8.621,5.262c-1.243.537-2.562.958-3.8,1.354s-2.773.486-4.092.771a22.845,22.845,0,0,1-5.728.361,32.943,32.943,0,0,1-10.61-2.3,32.181,32.181,0,0,1-12.8-9.4A26.132,26.132,0,0,1,48.35,96.451c-.6-.361-1.208-.133-1.783-.19-.749.841-1.875.852-2.76,1.227a3.119,3.119,0,0,0-1.072,2.958c.179,1.066-.744,1.829-.611,2.931H25.9c-.217-1.522-.974-3.05-.613-4.887a5.82,5.82,0,0,0-1.132-.95,27.08,27.08,0,0,0-3.074-1.262,4.22,4.22,0,0,0-1.3-.022A13.981,13.981,0,0,1,15.644,99.3L4.106,87.759c1.308-1.1,1.7-2.868,3.026-4.046.44-1.723-.928-2.977-1.305-4.5-.157-.649-1.132-.293-1.438-1a9.131,9.131,0,0,1-4.347-.665V61.392c1.653-.109,3.172-.977,4.808-.624L6.157,59.46c-.4-1.408,1.471-2.361.974-4.068-.939-1.294-1.943-2.678-2.857-3.943L15.929,39.795c1.137.828,2.513,1.826,4.092,2.971a9.724,9.724,0,0,0,5.262-2.339c-.453-1.661.548-3.115.483-4.806H42.008c.274,1.115.928,2.271.714,3.639-.141.912.822,1.362.855,2.369,1.742-.269,2.768,1.577,4.575,1.007,1.115-1.18,2.884-1.672,4.024-2.939L63.719,51.24a14.188,14.188,0,0,1-2.952,4.04c-.355,1.634.8,2.657,1.254,4.04,1.986-.993,3.9-1.954,5.924-2.966V46.4h12.74v7.709c1.278,1.159,2.667,1.028,4.149.887V35.849a2.874,2.874,0,0,1,.271-.255.455.455,0,0,1,.223-.076c4.1,0,8.206,0,12.4,0V60.784c1.047,1.674,2.879,2.108,3.867,3.552.09-.383-.073.092.19-.128a.323.323,0,0,0,.125-.2c.005-13.028.005-26.058.005-39.194h12.843V84.316h3.975c-.052.046.022,0,.071-.065a.406.406,0,0,0,.092-.217q.008-38.061.005-76.22h12.615c.4,2.2.564,70.441.174,80.63Z" transform="translate(0.07 13.387)" fill="#040506"/>
    <path id="Trazado_615073" data-name="Trazado 615073" d="M95.284,22.4c-.117,1.7.912,3.213.1,5.061a7.649,7.649,0,0,1-3.438,3.924,5.857,5.857,0,0,1-5.031-.008L75.819,43.7c.353,1.164.725,2.114.914,3.1.174.906-.442,1.693-.7,2.529-.412,1.327-1.6,2.1-2.2,2.735a8.051,8.051,0,0,1-5.46.893c-.982-.109-1.644-1.262-2.705-1.5-.057-1.08-1.145-1.5-1.514-2.464-.526-1.365-.014-2.676-.274-3.821.811-1.2,1.058-2.562,2.2-3.311-2.876-7.666-5.69-15.166-8.51-22.685a9.971,9.971,0,0,1-4.22-1.359c-5.8,3.457-11.505,7.044-17.188,10.575.38,5.362-3.408,8.464-7.506,7.715-2.483-.966-4.135-2.114-4.985-4.133H12.526A11.779,11.779,0,0,1,9.81,35.276c-3.783,1.628-6.8.871-9.191-2.827-.307-1.123-.931-2.6-.434-4.225A6.654,6.654,0,0,1,3.748,23.9a5.389,5.389,0,0,1,2.771-.63A11.454,11.454,0,0,1,10.5,24.74c1.118.586,1.465,1.88,2.079,3H23.54c3.137-4.779,5.97-5.443,10.461-3.072,5.647-3.484,11.25-6.941,17-10.491a8.2,8.2,0,0,1,1.53-5.617,4.154,4.154,0,0,1,2.822-1.777c.958-.049,1.71-1.075,2.6-.57,1.121.635,2.437.687,3.528,1.465a7.063,7.063,0,0,1,1.568,2.163,4.71,4.71,0,0,1,.817,3.742,7.227,7.227,0,0,1-1.951,3.6c-.5,1.18.19,2.312.621,3.235,1.075,2.312,1.78,4.754,2.773,7.09.773,1.81,1.335,3.739,2.1,5.563.735,1.756.952,3.718,2.119,5.3.163.223.024.67.024,1.007l1.281,1.281h2.2c1.33-2.187,3.5-3.772,5.085-5.821,1.623-2.087,3.555-3.834,5.362-5.812,0-1.682-1.028-3.327-.4-5.191a13.724,13.724,0,0,1,2.041-3.164c1.007-.944,2.306-1.107,3.471-1.6,1.313-.548,2.513.866,3.951.4,3.148-3.148,6.363-6.361,9.562-9.562,2.073,2.076,4.152,4.154,6.293,6.3,5.278-3.7,9.94-7.766,15.117-11.82-1.68-.488-3.026-.136-4.434-.317V.125a2.162,2.162,0,0,1,.488-.119C123.591,0,127.615,0,131.737,0V12.811c-1.2.138-2.532.016-3.945.071v-6c-.9-.274-.925.855-1.623.863-.643.005-.879.727-1.349,1.066-2.266,1.631-4.268,3.59-6.613,5.134-1.094.716-1.97,1.756-3.061,2.548-2.076,1.506-4,3.224-5.959,4.887-.4.334-.8.171-1.335.269-1.87-1.872-3.8-3.8-5.693-5.7a1.84,1.84,0,0,0-.312.005.425.425,0,0,0-.217.092c-2.068,2.06-4.13,4.125-6.347,6.342" transform="translate(-0.001 -0.001)" fill="#040506"/>
    <path id="Trazado_615074" data-name="Trazado 615074" d="M44.143,66.257V71.2a33.817,33.817,0,0,1-7.693,3.256c.45,1.726-.814,3.036-.434,4.678H26.638c.456-1.566-.589-2.874-.486-4.618A51.828,51.828,0,0,1,17.4,70.661c-1.094,1.359-2.543,1.948-3.807,2.765q-3.118-3.118-6.35-6.355A20.847,20.847,0,0,0,9.665,63.34a1.976,1.976,0,0,0-.342-1.324c-.765-1.823-1.9-3.492-2.236-5.517A3.038,3.038,0,0,0,5.8,54.486c-1.321.469-2.594-.8-4.222-.475V44.638c1.729.437,3.183-.879,4.852-.38a36.215,36.215,0,0,1,3.311-8.417C9.465,33.9,7.7,33.114,7.229,31.478c2.03-2.03,4.152-4.149,6.279-6.271,1.634.353,2.285,2.317,4.266,2.521,2.553-1.183,5.221-2.648,8.439-3.235-.48-1.653.885-3.1.4-4.914h9.264c-.079,1.522.958,2.83.548,4.363,2.757,1.525,5.8,2.1,8.108,3.766,2.217.038,2.9-2.106,4.646-2.486l6.333,6.336c-.844,1.254-1.691,2.518-2.613,3.894.516,2.157,2.057,4.013,2.681,5.9l-3.332,3.33c-.638-.052-.176-.738-.339-1.134-1.517-3.69-3.137-7.294-6.238-10.032a29.89,29.89,0,0,0-9.335-4.83,21.517,21.517,0,0,0-8.276-.361,20.177,20.177,0,0,0-9.207,3.81,20.155,20.155,0,0,0-5.009,5.115,23.394,23.394,0,0,0-3.112,6.681c-.809,2.811-.556,5.69-.453,8.531a11.853,11.853,0,0,0,1.113,4.4c1.362,2.955,2.884,5.88,5.424,8.032a23.709,23.709,0,0,0,9.728,5.1,23.075,23.075,0,0,0,8.027.331,19.24,19.24,0,0,0,9.573-4.068" transform="translate(2.706 33.549)" fill="#ffb915"/>
    <path id="Trazado_615075" data-name="Trazado 615075" d="M46.461,26.505c.7.288.887.706,1.4.67,5.082-.342,9.478,1.75,13.69,4.152a23,23,0,0,1,7.674,7.4,31.235,31.235,0,0,1,4,8.615,19.8,19.8,0,0,1,.673,4.087c.111,1.707-.049,3.43.041,5.139.168,3.186-.963,6.086-2.13,8.895a24.623,24.623,0,0,1-7.218,9.847c-3.454,2.784-7.142,5.153-11.674,5.975a29.872,29.872,0,0,0-3.381.5,7.092,7.092,0,0,1-3.4.412c-2.388-.456-4.846-.48-7.2-1.21a31,31,0,0,1-8.6-4.046c-4.526-3.153-8.018-8.325-10.016-14.04A35.8,35.8,0,0,1,19.29,58.7a25.907,25.907,0,0,1-.445-5.457,3.838,3.838,0,0,1,.03-1.53c.79-1.734.469-3.7,1.194-5.419.917-2.19,1.593-4.583,2.96-6.466,3.367-4.651,7.451-8.672,12.889-10.87,2.6-1.053,5.313-2.032,8.255-1.815.79.057,1.726.391,2.288-.632" transform="translate(32.175 45.417)" fill="#afc96a"/>
    <path id="Trazado_615076" data-name="Trazado 615076" d="M40.305,42.411A32.454,32.454,0,0,0,37.222,50.4a4.026,4.026,0,0,1-1.113,2.111c-1.9,1.956-3.842,3.823-6.6,4.58-.4.109-1.039.1-1.275.754-1.677-.429-3.191.564-4.9.564s-3.221-.993-4.477-.67a17.719,17.719,0,0,1-9.978-7.611A24.694,24.694,0,0,1,6.4,43.179c-.475-1.777.144-6.038,1.02-7.766,1.734-3.416,3.685-6.578,7.3-8.569,3.443-1.9,7.028-3.074,10.786-2.412,5.267.931,8.227,2.651,11.367,6.58a15.6,15.6,0,0,1,3.43,11.4" transform="translate(10.693 41.545)" fill="#ffcd58"/>
    <rect id="Rect치ngulo_325363" data-name="Rect치ngulo 325363" width="3.937" height="71.963" transform="translate(123.688 25.789)" fill="#ffe393"/>
    <path id="Trazado_615077" data-name="Trazado 615077" d="M39.316,15.765h3.951V69.254c-.92-.849.147-2.206-.936-2.849.331-1.129-.35-2.106-.624-3.093s-.692-1.929-.969-2.939a13.764,13.764,0,0,0-1.422-2.722Z" transform="translate(67.369 27.013)" fill="#ffe192"/>
    <path id="Trazado_615078" data-name="Trazado 615078" d="M36.984,38.3c-1.142-1.235-3.137-.876-4.127-2.507V20.34c1.123-1.444,2.619-.307,3.737-.838.434.518.868.757.866,1.387-.03,5.715-.016,11.429-.016,17.144-.155.087-.307.176-.459.266" transform="translate(56.301 33.417)" fill="#fddd8f"/>
    <path id="Trazado_615079" data-name="Trazado 615079" d="M26.594,28.062V23.555h4.537c.138,1.2.014,2.524.062,3.8a8.427,8.427,0,0,1-4.6.706" transform="translate(45.57 40.362)" fill="#f6d68b"/>
    <path id="Trazado_615080" data-name="Trazado 615080" d="M2.245,13.812c-.138-.643-.147-1.159-.749-1.3.524-.83.627-1.688,1.376-2.25H4.986c1.189.722.586,1.853.776,2.757L4.519,14.26c-.882.461-1.378-.518-2.274-.448" transform="translate(2.563 17.58)" fill="#e36559"/>
    <path id="Trazado_615081" data-name="Trazado 615081" d="M13.879,13.823c-.942-.231-1.208.952-1.767.592-1-.133-1.246-.874-1.829-1.265V11.457l1.473-1.213h1.137c.478.483.982.99,1.427,1.441.277.809-.608,1.216-.442,2.138" transform="translate(17.622 17.553)" fill="#e66659"/>
    <path id="Trazado_615082" data-name="Trazado 615082" d="M27.916,20.563c-1.053.244-1.549-.516-2.269-.592-.011-.735-.963-1.178-.353-2.445.119-.1.627-.518,1.237-1.023h1.384L28.8,18.1c.109-.106.214-.212.323-.315v1.227c-.532.687-.939,1.208-1.208,1.555" transform="translate(42.994 28.28)" fill="#e66659"/>
    <path id="Trazado_615083" data-name="Trazado 615083" d="M22.225,8.04a3.834,3.834,0,0,1-1.856-2.415c.263-.448.586-1,.947-1.606h2.344c.662.524.668.543.695,2.686-.6.545-.971,1.511-2.13,1.335" transform="translate(34.903 6.886)" fill="#e56659"/>
    <path id="Trazado_615084" data-name="Trazado 615084" d="M32.126,10.4c.529-.472.353-1.359,1.2-1.658h2.032c1.243.738.559,1.878.787,2.7-.393.849-1.338.763-1.764,1.3A3.255,3.255,0,0,1,32.126,10.4" transform="translate(55.049 14.979)" fill="#e6665a"/>
    <path id="Trazado_615085" data-name="Trazado 615085" d="M57.266,62.352c-.068.315.141.659-.174.955-.556.526-1.083,1.085-1.612,1.617h-1.3c-1.533.06-2.673,1.058-3.992,1.639-2.092.925-4.206,1.891-6.442,1.718-1.359-.844-.719-2.391-1.571-3.294a1.4,1.4,0,0,0-1.842.166c-.583.887-.274,2.079-1.058,2.868C32.117,69.782,20.826,58.735,22.088,51.2c.738-1.039,2.087-.624,3-1.24a1.357,1.357,0,0,0,.174-1.87c-.847-.8-2.217-.282-3.286-1.473-.421-2.483.784-4.846,2.011-7.161.659-1.246,1.24-2.434.852-3.875.532-1.3,2.041-1.788,2.575-3.088.773-.35,1.487.336,2.627.022,2.564-1.151,5.248-3.237,8.5-2.746,1.52.73,1.1,2.282,1.894,3.159a1.389,1.389,0,0,0,1.856-.163c.575-.885.271-2.076,1.075-2.846,7.755-1.015,17.709,8.816,17,16.886-.754,1.012-2.136.5-3,1.237a1.481,1.481,0,0,0-.052,1.81c.771.632,1.75.469,2.6,1.164,1.208,1.794.247,3.606-.491,5.4-.806,1.948-2.176,3.688-2.157,5.934" transform="translate(37.507 50.891)" fill="#e0e4e9"/>
    <path id="Trazado_615086" data-name="Trazado 615086" d="M27.536,32.5c.744.141.974.9,1.533,1.27A22.1,22.1,0,0,0,24.9,43.795h4.122v4.054H25.08a5.291,5.291,0,0,0,.258,2.382,22.819,22.819,0,0,0,3.221,6.906A17.723,17.723,0,0,0,39.5,64.374c.754.16,1.4,1.047,2.393.383V60.922h4.144v4.03c3.593-.92,7.1-1.62,9.7-4.225.635.29,1.02.578,1.134,1.115.217.879,1.194,1.153,1.612,2.076a3.914,3.914,0,0,1-1.929,1.631c-1.889.806-3.587,1.981-5.62,2.57a15.751,15.751,0,0,1-4.743.936c-.735-.016-1.528-.187-2.084.524-.632-.171-1.1-.635-1.859-.57a11.341,11.341,0,0,1-4.165-.418A23.049,23.049,0,0,1,26.92,62.032c-2.676-3.1-4.841-6.39-5.65-10.528a14.168,14.168,0,0,0-.5-3.107,5.349,5.349,0,0,1-.418-2.9c.456-4.6,1.52-9.012,4.233-12.878.339-.483.665-.98.757-1.113,1.357-.084,1.444.98,2.193,1" transform="translate(34.808 53.976)" fill="#050606"/>
    <path id="Trazado_615087" data-name="Trazado 615087" d="M54.4,64.93c-.084-.651-.8-.83-1.058-1.438,1.693-3.017,3.926-5.894,3.609-9.8H53.5V49.55h3.769A18.226,18.226,0,0,0,52.02,38.243c-1.7-1.761-2.1-3.126-11.229-5.75-.556.556-.214,1.265-.274,1.9-.06.673-.014,1.354-.014,2.13H36.509c-.494-1.289.507-2.795-.662-3.829a18.873,18.873,0,0,0-9.408,3.837c-.817-.242-1.018-1.286-1.891-1.452-.076-.567-.616-.771-.988-1.275,1.9-2.277,4.515-3.395,7.221-4.4a24.123,24.123,0,0,1,11.636-.9,19.18,19.18,0,0,1,11.068,5.43A29.027,29.027,0,0,1,57.9,38.769a30.124,30.124,0,0,1,3.224,7.668,20.667,20.667,0,0,1,.4,8.263,19.8,19.8,0,0,1-3.441,9.329c-.559.8-.7,1.948-2.117,2.255-.48-.144-.684-1.186-1.558-1.354" transform="translate(40.371 48.313)" fill="#050506"/>
    <path id="Trazado_615088" data-name="Trazado 615088" d="M24.351,27.422a.512.512,0,0,0,.366.6c1.066.3,1.571,1.208,2.206,1.973-.429,1.78.087,3.525.168,5.286.315,6.727-3.926,10.659-10.585,9.679A18.868,18.868,0,0,0,12,44.925c-.182-.741-.952-.8-1.359-1.213s-.475-1.18-1.213-1.362a18.874,18.874,0,0,0-.033-4.494c-1-6.808,3.658-11.47,10.466-10.466a18.594,18.594,0,0,0,4.494.033" transform="translate(15.859 46.7)" fill="#f7f9fa"/>
    <path id="Trazado_615089" data-name="Trazado 615089" d="M10.6,43.526c.893-.125.912-1.028,1.449-1.661,2.106,1.476,4.548,1.167,6.933,1.129,1.473-.024,2.491-1.148,3.53-1.948A6.058,6.058,0,0,0,25.021,35.7C24.945,34.507,25,33.3,25,32.143c-.38-.73-.752-1.433-1.115-2.117.608-.513,1.506-.532,1.631-1.427.659.239,1.012-.469,1.712-.529.643.608,1.644,1.056,1.376,2.328.92.765.336,2.016.977,2.941a2.954,2.954,0,0,1,.033,2,17.408,17.408,0,0,1-1.9,5.88c-2.057,3.319-4.681,5.392-8.534,5.907-1.273,1.05-2.868.706-4.116.41-1.715-.407-3.644-.714-4.963-2.2-.193-.695.754-1.094.5-1.815" transform="translate(17.261 48.098)" fill="#070707"/>
    <path id="Trazado_615090" data-name="Trazado 615090" d="M26.912,29.955c-.9.125-.914,1.028-1.452,1.658a8.682,8.682,0,0,0-6.409-1.075,6.865,6.865,0,0,0-5.028,2.993,9.146,9.146,0,0,0-.556,9.495,1.8,1.8,0,0,1,.065.5c-.521.44-1.422.459-1.547,1.354-.925-.258-1.259.613-1.791,1-1.653-2.757-2.955-5.723-2.228-8.827A13.687,13.687,0,0,1,19.838,25.879c2.453-.315,3.058.005,8.048,2.217-.279.643-1.281.909-.974,1.859" transform="translate(13.297 44.168)" fill="#070707"/>
    <path id="Trazado_615091" data-name="Trazado 615091" d="M28.316,32.834H32.27v8.618h4.119v4.081H28.316Z" transform="translate(48.521 56.261)" fill="#060607"/>
  </g>
</svg>
