<svg id="Grupo_876382" data-name="Grupo 876382" xmlns="http://www.w3.org/2000/svg" xmlns:xlink="http://www.w3.org/1999/xlink" width="122.674" height="123" viewBox="0 0 122.674 123">
  <defs>
    <clipPath id="clip-path">
      <rect id="Rectángulo_325367" data-name="Rectángulo 325367" width="122.674" height="123" fill="none"/>
    </clipPath>
  </defs>
  <g id="Grupo_876381" data-name="Grupo 876381" transform="translate(0 0)" clip-path="url(#clip-path)">
    <path id="Trazado_615092" data-name="Trazado 615092" d="M1.927,43.658H.073v3.908h13.5c.18.947.878,1.406,1.439,2.017H32.323A2.637,2.637,0,0,0,33.7,47.121l.717.035A2.634,2.634,0,0,1,34.479,49a16.5,16.5,0,0,0-.386,9.356c.173.838-.267,1.8.507,2.519-.176,1.54.853,2.613,1.446,3.866A31.825,31.825,0,0,0,38.1,68.362a19.4,19.4,0,0,0,5.5,5.3A19.69,19.69,0,0,0,49.631,76.4a20.079,20.079,0,0,0,5.774,1.009c1.4-.037,2.806-.049,4.2,0A26.374,26.374,0,0,0,67.7,75.424a22.478,22.478,0,0,0,6.973-4.689,23.381,23.381,0,0,0,5.473-9.388,21.124,21.124,0,0,0,.915-9.252,19.125,19.125,0,0,0-1.555-5.779,18.307,18.307,0,0,0-2.934-4.978c-.546-.586-.494-1.587-1.384-1.787V36.158A5.319,5.319,0,0,0,73.455,33.8c1.975-1.587,1.861-3.683,1.681-5.806-.593-.578-.6-1.624-1.77-1.982a5.7,5.7,0,0,0,1.822-4.7,4.7,4.7,0,0,0-.9-2.591c-2.1-2.539-4.007-3.606-7.947-2.291.878-4.462,2.338-8.7,3.048-13.145-.5-.4-.944-.764-1.634-1.322-2.259-.277-3.552,2.121-5.782,2.875C60.408,3.589,59.912,1.261,58.045,0h-1.4C54.827,1.582,54.1,3.9,52.8,5.952c-1.834-.015-3.087-1.305-4.865-1.987H46.722c-.4.405-.8.816-1.209,1.231-.23,1.854.695,3.505,1.041,5.4-1.167,1.135-2.736,1.589-4.16,2.289-.133.064-.366-.057-.484.017-2.536,1.6-5.515,2.291-8.083,3.906-.482-.415-.1-1.023-.277-1.795-.282-.2-.744-.539-1.486-1.073H15.069a3.483,3.483,0,0,0-1.5,1.99H0V19.7c.63.311,1.293.047,1.926.138,1.11.964,2.467.724,3.765.8,2.272.133,4.583-.341,7.245.517.143,6.983.084,14.015.032,21.08-2.291,1.028-4.452.462-6.538.62-1.528.116-3.152-.314-4.5.8" transform="translate(0.001 -0.001)" fill="#040506"/>
    <path id="Trazado_615093" data-name="Trazado 615093" d="M103.091,43.657h1.856V39.751H95.416c-.188-.937-.875-1.4-1.444-2.015H76.533l-1.162,1.5v3.537A17.268,17.268,0,0,0,68.126,38.6c-.264-.067-.438-.489-.818-.4-1.313.294-2.427-.727-3.755-.524a13.847,13.847,0,0,1-2.717.02,9.417,9.417,0,0,0-7.8,3.28c-.22.245-.452.477-.662.695-3.006,0-5.974-.027-8.941.01-2.163.025-4.36-.316-6.578.63-.524.526-1.167,1.169-1.871,1.876a4.865,4.865,0,0,1-2.5-1.58,40.982,40.982,0,0,0-5.517-4.58,22.973,22.973,0,0,1-2.116-2.079,7.767,7.767,0,0,0-8.273-1.72A7.487,7.487,0,0,0,12,40.5c-.02.907,0,1.817,0,2.588a18.155,18.155,0,0,0,5.127,6.926c1.157,1.031,1.782,2.467,2.934,3.517a27.943,27.943,0,0,1,3.073,3.389,29.071,29.071,0,0,0,5.754,5.759,13.15,13.15,0,0,0,7.967,2.813c.989-.025,1.982.049,2.966-.015,1.943-.131,3.76.747,5.735.546a17.551,17.551,0,0,1,5.666.04c2.922.69,5.816.279,8.718.393,1.842.072,3.594.739,5.485.559a21.442,21.442,0,0,1,5.67.042,22.048,22.048,0,0,0,4.126.405,7.152,7.152,0,0,1,.141,2.375c.03.742,0,1.486,0,2.4.361.272.816.618,1.508,1.142H93.9a3.486,3.486,0,0,0,1.525-2h9.6V67.614c-.633-.314-1.3-.049-1.931-.141-1.11-.964-2.472-.732-3.77-.786a6.1,6.1,0,0,1-2.85-.413c-.717-2.3-.717-19.115,0-21.4,2.069-1.073,4.627.351,6.625-1.216" transform="translate(17.652 49.621)" fill="#040506"/>
    <path id="Trazado_615094" data-name="Trazado 615094" d="M.78,31.843H12.405c.366-2.062.475-16.512.168-23.816H.78Z" transform="translate(1.148 11.814)" fill="#507fc1"/>
    <path id="Trazado_615095" data-name="Trazado 615095" d="M53.617,37.736H45.952c-.366,2.066-.472,16.463-.171,23.816h7.836Z" transform="translate(67.126 55.542)" fill="#507fc1"/>
    <path id="Trazado_615096" data-name="Trazado 615096" d="M37.1,38.705h8.174c.4-.408.8-.821,1.224-1.256v-1.5l-1.35-1.271H42.6V30.857h6.555l1.3-1.369V28.007L49.1,26.747H42.6V22.92h6.553c.465-.492.863-.91,1.3-1.369V20.06l-1.372-1.246H42.6V14.985h6.553c.457-.492.848-.915,1.29-1.394V12.113c-.381-.314-.823-.68-1.449-1.194a3.377,3.377,0,0,1-.932-.015c-.855-.19-1.374.754-2.282.551a1.812,1.812,0,0,0-2.034.438c-.091.121-.472.015-.719.02A7.448,7.448,0,0,0,40,12.355c-.821.356-1.8.116-2.773.452-1.214.42-2.633.18-3.982.536a49.188,49.188,0,0,1-6.021.932c-1.4.188-2.773.813-4.239.608-.734-1.125.371-2.605-.833-3.846,1.748.01,3.179-1.09,4.748-.546.366-.386.588-.62.863-.907a15.226,15.226,0,0,0-1.1-3.522c-3.644,1.636-7.225,3.246-10.8,4.857-.349.158-.687.331-1.031.5a5.364,5.364,0,0,0-.571,4.071c1.461,10.421,6.919,17.825,16.606,22.047,2.012.875,4.2.591,6.241,1.172" transform="translate(20.772 8.922)" fill="#f4d4d7"/>
    <path id="Trazado_615097" data-name="Trazado 615097" d="M7.205,7.258V34.876H18.81c.346-2.02.46-20.205.153-27.618Z" transform="translate(10.605 10.682)" fill="#1b3e8d"/>
    <path id="Trazado_615098" data-name="Trazado 615098" d="M40.711,39.545a10.709,10.709,0,0,0,2.479-4.276,20.244,20.244,0,0,0,.984-7.517c-.025-.388-.163-.781-.215-1.135a17.263,17.263,0,0,0-2.294-6.486,8.612,8.612,0,0,0-2.146-2.84c-.425.072-.544.858-1.226.287v4.056a8.047,8.047,0,0,1-4.753,4.575H22.488c-.339,1.063.724,1.209,1.033,1.864H25.83c2.6,1.483,2.939,1.809,4.5,4.318-.185,1.355.366,2.85-.514,4.182a12.58,12.58,0,0,1-3.463,3.384v4.054a2.507,2.507,0,0,0,2.269.658c4.558-.438,8.862-1.515,12.087-5.124" transform="translate(33.003 25.449)" fill="#f9a937"/>
    <path id="Trazado_615099" data-name="Trazado 615099" d="M32.868,39.94V35.832c-1.911-1.493-4.046-2.729-3.992-5.7H32.7A3.65,3.65,0,0,0,34.119,32H35.6c.413-.413.818-.821,1.229-1.233v-1.5L35.528,28a4.785,4.785,0,0,1-4.667-1.5c-1.1-1.1-2.3-2.371-1.881-4.415-1.995,0-3.868-.1-5.73.025a9.058,9.058,0,0,1-5.389-1.345c-.581-.344-1.258-1.075-2.321-.467v2.282c-.833,3.095.692,5.6,2.153,8.039a20.968,20.968,0,0,0,12.06,9.183,4.138,4.138,0,0,0,3.115.146" transform="translate(22.526 29.521)" fill="#f9a937"/>
    <path id="Trazado_615100" data-name="Trazado 615100" d="M37.792,35.517c-.059-.141-.109-.4-.176-.405-4.313-.3-8.006-2.148-11.472-4.57a24.459,24.459,0,0,1-9.25-12.725c-.423-1.261-.571-2.593-.954-3.824-.6-1.935-.3-3.849-.425-5.764-.564.255-1.073.7-1.874.487V30.354c3.275,1.649,6.684,3.362,10.263,5.164Z" transform="translate(20.079 12.11)" fill="#d8bec2"/>
    <path id="Trazado_615101" data-name="Trazado 615101" d="M33.052,38.448c-.5.025-.685-.66-1.275-.509a3.751,3.751,0,0,1-2.264-.465,22.12,22.12,0,0,1-7.554-4.4,23.144,23.144,0,0,1-5.045-7.055,9.449,9.449,0,0,1-1.189-4.941.37.37,0,0,0-.482.393c.208,1.829-.519,3.742.482,5.5C16.246,33.44,21.607,38.841,27.3,41.3a18.59,18.59,0,0,0,5.23,1.085,41.892,41.892,0,0,0,4.7.037A14.914,14.914,0,0,0,42.707,41.3a15.341,15.341,0,0,0,5.871-3.762c.774-.855,1.6-1.671,2.455-2.447a1.253,1.253,0,0,0,.336-1.11c-1.182.415-2.047,1.352-3.142,1.9a21.449,21.449,0,0,1-11.215,2.563Z" transform="translate(22.342 31.013)" fill="#d28e35"/>
    <path id="Trazado_615102" data-name="Trazado 615102" d="M27.515,2.338c-.635.989-1.224,1.817-1.718,2.7-.569,1.016-.821,2.3-2.306,2.432L20.453,6.417c.714,2.9,1.389,5.643,2.094,8.5a23.335,23.335,0,0,0,4.551-.69,6.219,6.219,0,0,1,2.091-.282,3.557,3.557,0,0,0,2.82-1.058c.578-2.371,1.164-4.768,1.79-7.319-1.2.326-2.113,1.246-3.374.828a11.234,11.234,0,0,1-2.909-4.059" transform="translate(30.104 3.441)" fill="#d28e35"/>
    <path id="Trazado_615103" data-name="Trazado 615103" d="M73.027,59.124c0-3.468-.037-6.939.02-10.4A4.438,4.438,0,0,0,72.16,46.1c-.391-.583-.86-1.12-1.209-1.728-1.614-2.793-4.39-3.713-7.205-4.61a16.9,16.9,0,0,0-6.219-.457,4.685,4.685,0,0,0-4.266,2.435c-.314.64-.934.892-1.174,1.483H36.619c-.336.4-.7.835-1.184,1.406v1.411c.334.269.781.628,1.458,1.169H51.159v3.849H35.522a7.636,7.636,0,0,1-4.061-4.375,1.84,1.84,0,0,0-.747-.915c-2.729-1.8-4.887-4.3-7.561-6.185A43.165,43.165,0,0,1,19.7,36.6c-2.062-1.809-4.215-1.884-5.836,1.187a.83.83,0,0,1-.173.175,4.081,4.081,0,0,0,1.6,4.227c1.186,1,1.785,2.46,2.937,3.51a23.658,23.658,0,0,1,3.073,3.386A17.568,17.568,0,0,0,25.5,53.17a11.947,11.947,0,0,0,9.178,4.689c10.943.5,21.874,1.325,32.831,1.528,1.829.032,3.742,1.1,5.517-.262" transform="translate(19.994 52.015)" fill="#f4d4d7"/>
    <path id="Trazado_615104" data-name="Trazado 615104" d="M39.265,64.675H50.989V37.1c.027.025-.027-.042-.094-.084a.444.444,0,0,0-.215-.077c-3.779,0-7.559,0-11.415,0Z" transform="translate(57.793 54.36)" fill="#1b3e8d"/>
    <path id="Trazado_615105" data-name="Trazado 615105" d="M65.935,48.508c-2.034.309-3.938-.7-5.987-.531a20.375,20.375,0,0,1-5.92-.04c-3.085-.67-6.185-.012-9.205-.48-3.569-.551-7.168-.049-10.676-.546-2.353-.334-4.664-.208-6.985-.4a14.061,14.061,0,0,1-6.432-2.388c-.791-.5-1.547-1.048-2.321-1.575.064.3-.133.633.166.924,1.6,1.547,3.04,3.246,5.235,4.071a9.908,9.908,0,0,0,3.552.887c4.561-.156,9.067.957,13.617.541,2.047-.185,3.935.7,5.97.554a22.469,22.469,0,0,1,6.152.049c3,.638,5.97.3,8.948.386,1.266.035,2.393,1.051,3.787.388.267-.549.007-1.214.1-1.846" transform="translate(27.086 62.632)" fill="#d7bdc2"/>
  </g>
</svg>
