<svg xmlns="http://www.w3.org/2000/svg" xmlns:xlink="http://www.w3.org/1999/xlink" width="298.792" height="179.348" viewBox="0 0 298.792 179.348">
  <defs>
    <clipPath id="clip-path">
      <rect id="Rectángulo_325455" data-name="Rectángulo 325455" width="184.79" height="172.664" fill="none"/>
    </clipPath>
    <clipPath id="clip-path-6">
      <rect id="Rectángulo_325405" data-name="Rectángulo 325405" width="91.386" height="60.423" fill="none"/>
    </clipPath>
    <clipPath id="clip-path-7">
      <rect id="Rectángulo_325406" data-name="Rectángulo 325406" width="85.295" height="108.251" fill="none"/>
    </clipPath>
    <clipPath id="clip-path-9">
      <rect id="Rectángulo_325408" data-name="Rectángulo 325408" width="90.85" height="52.553" fill="none"/>
    </clipPath>
    <clipPath id="clip-path-10">
      <rect id="Rectángulo_325409" data-name="Rectángulo 325409" width="1.796" height="5.685" fill="none"/>
    </clipPath>
    <clipPath id="clip-path-11">
      <rect id="Rectángulo_325410" data-name="Rectángulo 325410" width="7.261" height="7.548" fill="none"/>
    </clipPath>
    <clipPath id="clip-path-12">
      <rect id="Rectángulo_325411" data-name="Rectángulo 325411" width="7.262" height="7.548" fill="none"/>
    </clipPath>
    <clipPath id="clip-path-20">
      <rect id="Rectángulo_325419" data-name="Rectángulo 325419" width="15.467" height="8.93" fill="none"/>
    </clipPath>
    <clipPath id="clip-path-22">
      <rect id="Rectángulo_325421" data-name="Rectángulo 325421" width="7.735" height="14.523" fill="none"/>
    </clipPath>
    <clipPath id="clip-path-26">
      <rect id="Rectángulo_325425" data-name="Rectángulo 325425" width="7.735" height="18.7" fill="none"/>
    </clipPath>
    <clipPath id="clip-path-28">
      <rect id="Rectángulo_325427" data-name="Rectángulo 325427" width="7.734" height="18.699" fill="none"/>
    </clipPath>
    <clipPath id="clip-path-32">
      <rect id="Rectángulo_325431" data-name="Rectángulo 325431" width="7.735" height="9.495" fill="none"/>
    </clipPath>
    <clipPath id="clip-path-34">
      <rect id="Rectángulo_325433" data-name="Rectángulo 325433" width="7.735" height="9.494" fill="none"/>
    </clipPath>
    <clipPath id="clip-path-36">
      <rect id="Rectángulo_325435" data-name="Rectángulo 325435" width="14.166" height="11.39" fill="none"/>
    </clipPath>
    <clipPath id="clip-path-37">
      <rect id="Rectángulo_325436" data-name="Rectángulo 325436" width="16.028" height="12.685" fill="none"/>
    </clipPath>
    <clipPath id="clip-path-38">
      <rect id="Rectángulo_325437" data-name="Rectángulo 325437" width="8.885" height="8.055" fill="none"/>
    </clipPath>
    <clipPath id="clip-path-39">
      <rect id="Rectángulo_325438" data-name="Rectángulo 325438" width="14.168" height="14.266" fill="none"/>
    </clipPath>
    <clipPath id="clip-path-40">
      <rect id="Rectángulo_325439" data-name="Rectángulo 325439" width="16.026" height="12.685" fill="none"/>
    </clipPath>
    <clipPath id="clip-path-41">
      <rect id="Rectángulo_325440" data-name="Rectángulo 325440" width="1.772" height="11.257" fill="none"/>
    </clipPath>
    <clipPath id="clip-path-42">
      <rect id="Rectángulo_325441" data-name="Rectángulo 325441" width="3.871" height="2.235" fill="none"/>
    </clipPath>
    <clipPath id="clip-path-43">
      <rect id="Rectángulo_325442" data-name="Rectángulo 325442" width="1.936" height="2.239" fill="none"/>
    </clipPath>
    <clipPath id="clip-path-51">
      <rect id="Rectángulo_325450" data-name="Rectángulo 325450" width="5.306" height="12.519" fill="none"/>
    </clipPath>
    <clipPath id="clip-path-52">
      <rect id="Rectángulo_325451" data-name="Rectángulo 325451" width="14.247" height="23.042" fill="none"/>
    </clipPath>
    <clipPath id="clip-path-53">
      <rect id="Rectángulo_325452" data-name="Rectángulo 325452" width="4.185" height="2.496" fill="none"/>
    </clipPath>
    <clipPath id="clip-path-54">
      <rect id="Rectángulo_325453" data-name="Rectángulo 325453" width="15.359" height="24.093" fill="none"/>
    </clipPath>
  </defs>
  <g id="Grupo_877361" data-name="Grupo 877361" transform="translate(-380.615 -7991.631)">
    <rect id="Imagen_5" data-name="Imagen 5" width="298.792" height="168.015" rx="19" transform="translate(380.615 7991.631)" fill="#ced371"/>
    <g id="Grupo_876603" data-name="Grupo 876603" transform="translate(434.492 7998.314)">
      <g id="Grupo_876602" data-name="Grupo 876602" clip-path="url(#clip-path)">
        <g id="Grupo_876461" data-name="Grupo 876461">
          <g id="Grupo_876460" data-name="Grupo 876460" clip-path="url(#clip-path)">
            <path id="Trazado_615649" data-name="Trazado 615649" d="M355.855,347.639c7.229,4.174,7.229,10.94,0,15.114s-18.949,4.173-26.178,0-7.229-10.94,0-15.114,18.949-4.173,26.178,0" transform="translate(-199.758 -212.235)" fill="#e0e0e0"/>
            <path id="Trazado_615650" data-name="Trazado 615650" d="M33.677,260.568,18.5,251.8a.944.944,0,0,1,0-1.789l88.285-50.972a3.424,3.424,0,0,1,3.1,0l15.179,8.763a.944.944,0,0,1,0,1.789L36.776,260.568a3.424,3.424,0,0,1-3.1,0" transform="translate(-11.001 -122.393)" fill="#e0e0e0"/>
          </g>
        </g>
        <g id="Grupo_876463" data-name="Grupo 876463">
          <g id="Grupo_876462" data-name="Grupo 876462" clip-path="url(#clip-path)">
            <path id="Trazado_615651" data-name="Trazado 615651" d="M53.306,19.287l-3.433,1.982a4.071,4.071,0,0,0,.029-.454V19.82c0-1.77-1.242-2.487-2.775-1.6a5.367,5.367,0,0,0-1.654,1.59c-.251-2.225-2-3.054-4.117-1.83a9.176,9.176,0,0,0-4.151,7.19v1.487a3.912,3.912,0,0,0,.352,1.724l-2.851,1.646a3.4,3.4,0,0,0-1.539,2.666c0,.981.689,1.379,1.539.888l18.6-10.739a3.4,3.4,0,0,0,1.539-2.666c0-.981-.689-1.379-1.539-.888" transform="translate(-20.433 -10.727)" fill="#ebebeb"/>
            <path id="Trazado_615652" data-name="Trazado 615652" d="M107.528,41.445l-2.591,1.5a3.067,3.067,0,0,0,.022-.343v-.75c0-1.336-.938-1.877-2.094-1.209a4.047,4.047,0,0,0-1.248,1.2c-.19-1.679-1.507-2.3-3.107-1.381a6.926,6.926,0,0,0-3.133,5.426v1.123a2.959,2.959,0,0,0,.265,1.3l-2.152,1.242a2.568,2.568,0,0,0-1.162,2.012c0,.741.52,1.041,1.162.671l14.038-8.1a2.568,2.568,0,0,0,1.161-2.012c0-.741-.52-1.041-1.161-.671" transform="translate(-56.879 -24.661)" fill="#ebebeb"/>
          </g>
        </g>
        <g id="Grupo_876471" data-name="Grupo 876471">
          <g id="Grupo_876470" data-name="Grupo 876470" clip-path="url(#clip-path)">
            <path id="Trazado_615653" data-name="Trazado 615653" d="M164.962,258l13.048-7.545a3.423,3.423,0,0,0,2.018-2.812c0-1.018.006-1.815.006-1.815L166.5,238.2a2.872,2.872,0,0,1-1.3-2.25V219.859l-22.79,13.17v16.087a2.871,2.871,0,0,0,1.3,2.25L155.22,258a10.768,10.768,0,0,0,9.742,0" transform="translate(-87.729 -135.444)" fill="#263238"/>
            <path id="Trazado_615654" data-name="Trazado 615654" d="M147.874,269.078v1.807l-4.177-2.407a2.875,2.875,0,0,1-1.3-2.25V250.143l4.342-2.5c.09,1.1.187,2.242.277,3.352l-3.044,1.762v12.569a2.853,2.853,0,0,0,1.3,2.25Z" transform="translate(-87.726 -152.558)"/>
            <path id="Trazado_615655" data-name="Trazado 615655" d="M146.5,252.4a2.87,2.87,0,0,0,1.3,2.25l9.942,5.727a10.77,10.77,0,0,0,9.742,0l13.055-7.544c2.69-1.552,2.691-4.07,0-5.623l-9.949-5.731a2.871,2.871,0,0,1-1.3-2.25V226.66L146.5,239.829Z" transform="translate(-90.251 -139.634)" fill="#37474f"/>
            <path id="Trazado_615656" data-name="Trazado 615656" d="M173.236,243.009v0l-2.645-1.527a2.871,2.871,0,0,1-1.3-2.25V226.66L146.5,239.829V252.4a2.87,2.87,0,0,0,1.3,2.25l2.6,1.5Z" transform="translate(-90.251 -139.634)" fill="#263238"/>
            <path id="Trazado_615657" data-name="Trazado 615657" d="M208.766,287.5v1.815a3.43,3.43,0,0,1-2.017,2.812l-13.05,7.54a9.764,9.764,0,0,1-4.65,1.155v-1.807a9.764,9.764,0,0,0,4.65-1.155l13.05-7.548a3.42,3.42,0,0,0,2.017-2.812" transform="translate(-116.464 -177.117)" fill="#455a64"/>
            <path id="Trazado_615658" data-name="Trazado 615658" d="M48.748,128.39a3.481,3.481,0,0,0,3.147-.058l88.139-50.886a3.588,3.588,0,0,0,1.623-2.812V3.1A3.482,3.482,0,0,0,140.134.347a3.483,3.483,0,0,0-3.147.058L48.85,51.292A3.588,3.588,0,0,0,47.226,54.1v71.532a3.481,3.481,0,0,0,1.523,2.754" transform="translate(-29.093 0)" fill="#455a64"/>
            <path id="Trazado_615659" data-name="Trazado 615659" d="M56.784,131.444l88.138-50.886a3.588,3.588,0,0,0,1.624-2.812V6.214c0-1.036-.727-1.455-1.624-.938L56.785,56.162a3.588,3.588,0,0,0-1.624,2.812v71.532c0,1.035.727,1.455,1.624.937" transform="translate(-33.981 -3.114)" fill="#27debf"/>
            <path id="Trazado_615660" data-name="Trazado 615660" d="M56.784,131.444l88.138-50.886a3.588,3.588,0,0,0,1.624-2.812V6.214c0-1.036-.727-1.455-1.624-.938L56.785,56.162a3.588,3.588,0,0,0-1.624,2.812v71.532c0,1.035.727,1.455,1.624.937" transform="translate(-33.981 -3.114)" fill="#37474f"/>
            <path id="Trazado_615661" data-name="Trazado 615661" d="M51.656,324.123a3.035,3.035,0,0,1-4.432-2.82v-6.492l3.045,1.762v6.492c0,.945.6,1.372,1.387,1.057" transform="translate(-29.092 -193.939)" fill="#263238"/>
            <path id="Trazado_615662" data-name="Trazado 615662" d="M55.154,234.724l0,6.49c0,1.035.727,1.455,1.623.937l88.139-50.886a3.589,3.589,0,0,0,1.623-2.812v-6.5Z" transform="translate(-33.978 -112.09)" fill="#37474f"/>
            <g id="Grupo_876466" data-name="Grupo 876466" transform="translate(21.179 69.86)" opacity="0.2">
              <g id="Grupo_876465" data-name="Grupo 876465">
                <g id="Grupo_876464" data-name="Grupo 876464" clip-path="url(#clip-path-6)">
                  <path id="Trazado_615663" data-name="Trazado 615663" d="M55.161,234.71v6.5c0,1.036.727,1.455,1.623.938l88.139-50.886a3.59,3.59,0,0,0,1.623-2.812v-6.5Z" transform="translate(-55.161 -181.949)"/>
                </g>
              </g>
            </g>
            <path id="Trazado_615664" data-name="Trazado 615664" d="M63.092,125.613V68a2.154,2.154,0,0,1,.974-1.687L147.41,18.19c.538-.311.974-.059.974.562l0,57.619a2.154,2.154,0,0,1-.974,1.687L64.066,126.175c-.538.311-.974.059-.974-.562" transform="translate(-38.868 -11.124)" fill="#27debf"/>
            <g id="Grupo_876469" data-name="Grupo 876469" transform="translate(24.224 6.933)" opacity="0.3">
              <g id="Grupo_876468" data-name="Grupo 876468">
                <g id="Grupo_876467" data-name="Grupo 876467" clip-path="url(#clip-path-7)">
                  <path id="Trazado_615665" data-name="Trazado 615665" d="M63.092,125.613V68a2.154,2.154,0,0,1,.974-1.687L147.41,18.19c.538-.311.974-.059.974.562l0,57.619a2.154,2.154,0,0,1-.974,1.687L64.066,126.175c-.538.311-.974.059-.974-.562" transform="translate(-63.092 -18.057)"/>
                </g>
              </g>
            </g>
            <path id="Trazado_615666" data-name="Trazado 615666" d="M171.721,255.721a3.368,3.368,0,0,0-1.523,2.638c0,.971.682,1.365,1.523.88a3.367,3.367,0,0,0,1.523-2.639c0-.971-.682-1.365-1.523-.879" transform="translate(-104.85 -157.409)" fill="#455a64"/>
            <path id="Trazado_615667" data-name="Trazado 615667" d="M50.748,138.49a3.452,3.452,0,0,0-.48,1.605V206.87l-3.045-1.762V138.34a3.364,3.364,0,0,1,.48-1.6Z" transform="translate(-29.092 -84.236)" fill="#263238"/>
          </g>
        </g>
        <g id="Grupo_876503" data-name="Grupo 876503">
          <g id="Grupo_876502" data-name="Grupo 876502" clip-path="url(#clip-path)">
            <path id="Trazado_615668" data-name="Trazado 615668" d="M181.041,7.052a.8.8,0,0,0-.828.065L92.371,57.849a2.516,2.516,0,0,0-1.138,1.971v59.222a1.107,1.107,0,0,0,.48.989c.186.1,1.163.669,1.454.825a.651.651,0,0,0,.659-.038l87.84-50.751A2.509,2.509,0,0,0,182.8,68.1V8.6a.787.787,0,0,0-.353-.747c-.2-.107-1.2-.674-1.41-.8" transform="translate(-56.204 -4.291)" fill="#27debf"/>
            <path id="Trazado_615669" data-name="Trazado 615669" d="M96.09,122.361c-.315,0-.571-.39-.571-.868V62.271a2.343,2.343,0,0,1,1.042-1.8L184.4,9.734a.846.846,0,0,1,.412-.13c.274,0,.438.232.438.62v59.5a2.335,2.335,0,0,1-1.042,1.8L96.37,122.277a.565.565,0,0,1-.28.084" transform="translate(-58.845 -5.917)" fill="#fafafa"/>
            <path id="Trazado_615670" data-name="Trazado 615670" d="M184.507,9.488c.214,0,.246.268.246.428v59.5a2.122,2.122,0,0,1-.947,1.637L95.966,121.8a.381.381,0,0,1-.184.059c-.2,0-.379-.316-.379-.677V61.963a2.126,2.126,0,0,1,.946-1.638L184.191,9.592a.647.647,0,0,1,.316-.1m0-.384A1.026,1.026,0,0,0,184,9.26L96.157,59.992a2.514,2.514,0,0,0-1.138,1.971v59.222c0,.574.319,1.061.763,1.061a.75.75,0,0,0,.376-.11L184,71.384a2.51,2.51,0,0,0,1.139-1.969V9.916c0-.514-.257-.812-.63-.812" transform="translate(-58.537 -5.609)" fill="#e0e0e0"/>
            <path id="Trazado_615671" data-name="Trazado 615671" d="M91.709,210.764c.123.065,1.008.57,1.4.791a1.16,1.16,0,0,1-.419-.956V155.1l-1.456-.852v55.529a1.107,1.107,0,0,0,.48.988" transform="translate(-56.202 -95.025)" fill="#f0f0f0"/>
            <path id="Trazado_615672" data-name="Trazado 615672" d="M185.136,9.908c0-.719-.511-1.009-1.137-.648L96.157,59.992a2.514,2.514,0,0,0-1.138,1.97v3.722l90.116-52.042Z" transform="translate(-58.537 -5.609)" fill="#27debf"/>
            <g id="Grupo_876474" data-name="Grupo 876474" transform="translate(35.374 2.674)" opacity="0.4">
              <g id="Grupo_876473" data-name="Grupo 876473">
                <g id="Grupo_876472" data-name="Grupo 876472" clip-path="url(#clip-path-9)">
                  <path id="Trazado_615673" data-name="Trazado 615673" d="M182.221,7.941,94.38,58.673a2.337,2.337,0,0,0-.8.844l-1.446-.837a2.269,2.269,0,0,1,.791-.83L180.768,7.118a.8.8,0,0,1,.827-.068c.2.126,1.149.662,1.388.791a.822.822,0,0,0-.762.1" transform="translate(-92.133 -6.964)" fill="#fff"/>
                </g>
              </g>
            </g>
            <g id="Grupo_876477" data-name="Grupo 876477" transform="translate(35.027 54.39)" opacity="0.15">
              <g id="Grupo_876476" data-name="Grupo 876476">
                <g id="Grupo_876475" data-name="Grupo 876475" clip-path="url(#clip-path-10)">
                  <path id="Trazado_615674" data-name="Trazado 615674" d="M91.229,146.5v-3.7a2.347,2.347,0,0,1,.347-1.138l1.449.834a2.3,2.3,0,0,0-.34,1.13v3.721Z" transform="translate(-91.229 -141.66)"/>
                </g>
              </g>
            </g>
            <path id="Trazado_615675" data-name="Trazado 615675" d="M95.02,72.965v6.7l90.117-52.031V20.923Z" transform="translate(-58.537 -12.89)" fill="#ebebeb"/>
            <path id="Trazado_615676" data-name="Trazado 615676" d="M104.792,149.8l5.828-3.348v3.34l-5.83,3.366Z" transform="translate(-64.555 -90.22)" fill="#e0e0e0"/>
            <path id="Trazado_615677" data-name="Trazado 615677" d="M123.723,141.549v1.32l2.907-1.679v-1.32Z" transform="translate(-76.219 -86.168)" fill="#e0e0e0"/>
            <path id="Trazado_615678" data-name="Trazado 615678" d="M123.723,146.86v1.32l2.907-1.679v-1.32Z" transform="translate(-76.219 -89.439)" fill="#e0e0e0"/>
            <path id="Trazado_615679" data-name="Trazado 615679" d="M135.08,134.991v1.32l2.907-1.679v-1.32Z" transform="translate(-83.216 -82.127)" fill="#e0e0e0"/>
            <path id="Trazado_615680" data-name="Trazado 615680" d="M135.08,140.3v1.32l2.907-1.679v-1.32Z" transform="translate(-83.216 -85.399)" fill="#e0e0e0"/>
            <path id="Trazado_615681" data-name="Trazado 615681" d="M146.437,128.432v1.32l2.907-1.679v-1.32Z" transform="translate(-90.212 -78.087)" fill="#e0e0e0"/>
            <path id="Trazado_615682" data-name="Trazado 615682" d="M146.437,133.743v1.32l2.907-1.679v-1.32Z" transform="translate(-90.212 -81.358)" fill="#e0e0e0"/>
            <path id="Trazado_615683" data-name="Trazado 615683" d="M180.5,108.766v1.32l2.907-1.679v-1.32Z" transform="translate(-111.2 -65.971)" fill="#e0e0e0"/>
            <path id="Trazado_615684" data-name="Trazado 615684" d="M180.5,114.076v1.32l2.907-1.679V112.4Z" transform="translate(-111.2 -69.243)" fill="#e0e0e0"/>
            <path id="Trazado_615685" data-name="Trazado 615685" d="M191.862,102.207v1.32l2.907-1.679v-1.32Z" transform="translate(-118.197 -61.931)" fill="#e0e0e0"/>
            <path id="Trazado_615686" data-name="Trazado 615686" d="M191.862,107.518v1.32l2.907-1.679v-1.32Z" transform="translate(-118.197 -65.203)" fill="#e0e0e0"/>
            <path id="Trazado_615687" data-name="Trazado 615687" d="M203.219,95.649v1.32l2.907-1.679v-1.32Z" transform="translate(-125.193 -57.891)" fill="#e0e0e0"/>
            <path id="Trazado_615688" data-name="Trazado 615688" d="M203.219,100.959v1.32l2.907-1.679v-1.32Z" transform="translate(-125.193 -61.162)" fill="#e0e0e0"/>
            <path id="Trazado_615689" data-name="Trazado 615689" d="M157.791,117.839l7.268-4.2V117l-7.266,4.2Z" transform="translate(-97.207 -70.01)" fill="#e0e0e0"/>
            <path id="Trazado_615690" data-name="Trazado 615690" d="M214.578,86.414l5.828-3.348v3.34l-5.83,3.366Z" transform="translate(-132.19 -51.173)" fill="#e0e0e0"/>
            <path id="Trazado_615691" data-name="Trazado 615691" d="M233.509,78.165v1.32l2.907-1.679v-1.32Z" transform="translate(-143.853 -47.12)" fill="#e0e0e0"/>
            <path id="Trazado_615692" data-name="Trazado 615692" d="M233.509,83.476V84.8l2.907-1.679V81.8Z" transform="translate(-143.853 -50.391)" fill="#e0e0e0"/>
            <path id="Trazado_615693" data-name="Trazado 615693" d="M244.866,71.607v1.32l2.907-1.679v-1.32Z" transform="translate(-150.85 -43.08)" fill="#e0e0e0"/>
            <path id="Trazado_615694" data-name="Trazado 615694" d="M244.866,76.917v1.32l2.907-1.679v-1.32Z" transform="translate(-150.85 -46.351)" fill="#e0e0e0"/>
            <path id="Trazado_615695" data-name="Trazado 615695" d="M256.223,65.048v1.32l2.907-1.679V63.37Z" transform="translate(-157.846 -39.039)" fill="#e0e0e0"/>
            <path id="Trazado_615696" data-name="Trazado 615696" d="M256.223,70.359v1.32L259.131,70v-1.32Z" transform="translate(-157.846 -42.311)" fill="#e0e0e0"/>
            <path id="Trazado_615697" data-name="Trazado 615697" d="M290.293,45.378V46.7L293.2,45.02V43.7Z" transform="translate(-178.835 -26.921)" fill="#e0e0e0"/>
            <path id="Trazado_615698" data-name="Trazado 615698" d="M290.293,50.689v1.32L293.2,50.33V49.01Z" transform="translate(-178.835 -30.193)" fill="#e0e0e0"/>
            <path id="Trazado_615699" data-name="Trazado 615699" d="M301.65,38.82v1.32l2.907-1.679v-1.32Z" transform="translate(-185.832 -22.881)" fill="#e0e0e0"/>
            <path id="Trazado_615700" data-name="Trazado 615700" d="M301.65,44.13v1.32l2.907-1.679v-1.32Z" transform="translate(-185.832 -26.153)" fill="#e0e0e0"/>
            <path id="Trazado_615701" data-name="Trazado 615701" d="M313.007,32.261v1.32l2.907-1.679v-1.32Z" transform="translate(-192.828 -18.841)" fill="#e0e0e0"/>
            <path id="Trazado_615702" data-name="Trazado 615702" d="M313.007,37.572v1.32l2.907-1.679v-1.32Z" transform="translate(-192.828 -22.112)" fill="#e0e0e0"/>
            <path id="Trazado_615703" data-name="Trazado 615703" d="M267.581,54.455l7.268-4.2v3.357l-7.266,4.2Z" transform="translate(-164.843 -30.962)" fill="#e0e0e0"/>
            <path id="Trazado_615704" data-name="Trazado 615704" d="M92.686,155.1l-1.456-.852v6.715l1.455.838Z" transform="translate(-56.202 -95.025)" fill="#e0e0e0"/>
            <path id="Trazado_615705" data-name="Trazado 615705" d="M269.161,30.8v.247c0,.4.277.556.619.358l17.656-10.194a1.37,1.37,0,0,0,.62-1.074v-.247c0-.4-.277-.555-.62-.358L269.781,29.729a1.37,1.37,0,0,0-.62,1.074" transform="translate(-165.817 -11.982)" fill="#f5f5f5"/>
            <path id="Trazado_615706" data-name="Trazado 615706" d="M313.71,20.14v-.247c0-.4-.277-.556-.62-.358L310.8,20.856v1.678l2.287-1.32a1.37,1.37,0,0,0,.62-1.074" transform="translate(-191.47 -11.982)" fill="#455a64"/>
            <path id="Trazado_615707" data-name="Trazado 615707" d="M98.805,95.322l87.212-50.343v3.348L106.071,94.486v43.638l-7.264,4.193Z" transform="translate(-60.869 -27.709)" fill="#f0f0f0"/>
            <path id="Trazado_615708" data-name="Trazado 615708" d="M117.728,167.2,124.99,163v3.348l-7.262,4.2Z" transform="translate(-72.526 -100.418)" fill="#27debf"/>
            <path id="Trazado_615709" data-name="Trazado 615709" d="M117.728,237.127l7.262-4.192v3.348l-7.262,4.2Z" transform="translate(-72.526 -143.5)" fill="#27debf"/>
            <path id="Trazado_615710" data-name="Trazado 615710" d="M117.728,245.87l7.262-4.192v3.348l-7.262,4.2Z" transform="translate(-72.526 -148.886)" fill="#27debf"/>
            <g id="Grupo_876480" data-name="Grupo 876480" transform="translate(45.202 92.792)" opacity="0.8">
              <g id="Grupo_876479" data-name="Grupo 876479">
                <g id="Grupo_876478" data-name="Grupo 876478" clip-path="url(#clip-path-11)">
                  <path id="Trazado_615711" data-name="Trazado 615711" d="M117.728,245.87l7.262-4.192v3.348l-7.262,4.2Z" transform="translate(-117.728 -241.677)" fill="#fff"/>
                </g>
              </g>
            </g>
            <path id="Trazado_615712" data-name="Trazado 615712" d="M231.287,171.557l7.262-4.192v3.348l-7.262,4.2Z" transform="translate(-142.485 -103.105)" fill="#27debf"/>
            <g id="Grupo_876483" data-name="Grupo 876483" transform="translate(88.803 64.26)" opacity="0.3">
              <g id="Grupo_876482" data-name="Grupo 876482">
                <g id="Grupo_876481" data-name="Grupo 876481" clip-path="url(#clip-path-12)">
                  <path id="Trazado_615713" data-name="Trazado 615713" d="M231.287,171.557l7.262-4.192v3.348l-7.262,4.2Z" transform="translate(-231.287 -167.365)"/>
                </g>
              </g>
            </g>
            <path id="Trazado_615714" data-name="Trazado 615714" d="M231.287,180.3l7.262-4.192v3.348l-7.262,4.2Z" transform="translate(-142.485 -108.491)" fill="#27debf"/>
            <g id="Grupo_876486" data-name="Grupo 876486" transform="translate(88.803 67.617)" opacity="0.4">
              <g id="Grupo_876485" data-name="Grupo 876485">
                <g id="Grupo_876484" data-name="Grupo 876484" clip-path="url(#clip-path-12)">
                  <path id="Trazado_615715" data-name="Trazado 615715" d="M231.287,180.3l7.262-4.192v3.348l-7.262,4.2Z" transform="translate(-231.287 -176.108)"/>
                </g>
              </g>
            </g>
            <path id="Trazado_615716" data-name="Trazado 615716" d="M231.287,189.044l7.262-4.192V188.2l-7.262,4.2Z" transform="translate(-142.485 -113.878)" fill="#27debf"/>
            <g id="Grupo_876489" data-name="Grupo 876489" transform="translate(88.803 70.973)" opacity="0.5">
              <g id="Grupo_876488" data-name="Grupo 876488">
                <g id="Grupo_876487" data-name="Grupo 876487" clip-path="url(#clip-path-12)">
                  <path id="Trazado_615717" data-name="Trazado 615717" d="M231.287,189.044l7.262-4.192V188.2l-7.262,4.2Z" transform="translate(-231.287 -184.851)"/>
                </g>
              </g>
            </g>
            <path id="Trazado_615718" data-name="Trazado 615718" d="M231.287,197.787l7.262-4.192v3.348l-7.262,4.2Z" transform="translate(-142.485 -119.264)" fill="#27debf"/>
            <g id="Grupo_876492" data-name="Grupo 876492" transform="translate(88.803 74.331)" opacity="0.3">
              <g id="Grupo_876491" data-name="Grupo 876491">
                <g id="Grupo_876490" data-name="Grupo 876490" clip-path="url(#clip-path-12)">
                  <path id="Trazado_615719" data-name="Trazado 615719" d="M231.287,197.787l7.262-4.192v3.348l-7.262,4.2Z" transform="translate(-231.287 -193.595)"/>
                </g>
              </g>
            </g>
            <path id="Trazado_615720" data-name="Trazado 615720" d="M212.375,112.544l7.261-4.192v16.784l-7.261,4.2Z" transform="translate(-130.834 -66.75)" fill="#27debf"/>
            <path id="Trazado_615721" data-name="Trazado 615721" d="M212.375,165l7.261-4.192v23.5l-7.261,4.2Z" transform="translate(-130.834 -99.068)" fill="#27debf"/>
            <path id="Trazado_615722" data-name="Trazado 615722" d="M136.641,208.715l7.262-4.192v3.348l-7.262,4.2Z" transform="translate(-84.177 -125.996)" fill="#27debf"/>
            <g id="Grupo_876495" data-name="Grupo 876495" transform="translate(52.463 78.526)" opacity="0.3">
              <g id="Grupo_876494" data-name="Grupo 876494">
                <g id="Grupo_876493" data-name="Grupo 876493" clip-path="url(#clip-path-12)">
                  <path id="Trazado_615723" data-name="Trazado 615723" d="M136.641,208.715l7.262-4.192v3.348l-7.262,4.2Z" transform="translate(-136.64 -204.522)"/>
                </g>
              </g>
            </g>
            <path id="Trazado_615724" data-name="Trazado 615724" d="M174.519,143.143l7.262-4.192V142.3l-7.262,4.2Z" transform="translate(-107.512 -85.601)" fill="#27debf"/>
            <g id="Grupo_876498" data-name="Grupo 876498" transform="translate(67.006 53.35)" opacity="0.6">
              <g id="Grupo_876497" data-name="Grupo 876497">
                <g id="Grupo_876496" data-name="Grupo 876496" clip-path="url(#clip-path-11)">
                  <path id="Trazado_615725" data-name="Trazado 615725" d="M174.519,143.143l7.262-4.192V142.3l-7.262,4.2Z" transform="translate(-174.519 -138.951)" fill="#fff"/>
                </g>
              </g>
            </g>
            <path id="Trazado_615726" data-name="Trazado 615726" d="M269.166,140.958l7.262-4.192v3.348l-7.262,4.2Z" transform="translate(-165.82 -84.255)" fill="#27debf"/>
            <g id="Grupo_876501" data-name="Grupo 876501" transform="translate(103.346 52.511)" opacity="0.8">
              <g id="Grupo_876500" data-name="Grupo 876500">
                <g id="Grupo_876499" data-name="Grupo 876499" clip-path="url(#clip-path-11)">
                  <path id="Trazado_615727" data-name="Trazado 615727" d="M269.166,140.958l7.262-4.192v3.348l-7.262,4.2Z" transform="translate(-269.166 -136.765)" fill="#fff"/>
                </g>
              </g>
            </g>
            <path id="Trazado_615728" data-name="Trazado 615728" d="M269.166,158.45l7.262-4.192v3.348l-7.262,4.2Z" transform="translate(-165.82 -95.031)" fill="#27debf"/>
            <path id="Trazado_615729" data-name="Trazado 615729" d="M98.428,94.665l-.089.052v47.408l87.479-50.507.089-.052V44.158Zm87.121-6.652L178.642,92V89.056l6.907-3.988ZM98.7,98.279l6.909-3.989v2.944L98.7,101.223Zm43.248-4.824V96.4l-6.91,3.99V97.445Zm-6.91,3.576V94.087l6.91-3.99v2.945Zm7.268-3.783,6.91-3.989V92.2l-6.91,3.989Zm0-.413V89.891l6.91-3.989v2.945Zm0-3.358V86.533l6.91-3.989v2.944Zm0-3.358V83.175l6.91-3.989v2.945Zm-.358.207-6.91,3.99V87.372l6.91-3.99Zm0,.413v2.945l-6.91,3.99V90.729Zm-7.268,7.141-6.91,3.989V94.925l6.91-3.989Zm0,.413v2.945l-6.91,3.989V98.283Zm0,3.358V100.6l-6.91,3.989v-2.945Zm0,3.357v2.945l-6.91,3.989V105Zm.358-.207,6.91-3.99v2.945l-6.91,3.99Zm6.91-.632v2.945l-6.91,3.99V104.16Zm.358-.207,6.91-3.989v2.945l-6.91,3.989Zm0-.413V96.606l6.91-3.989v2.945Zm7.268-7.14,6.91-3.99v2.945l-6.91,3.99Zm0-.413V89.052l6.91-3.99v2.945Zm0-3.358V85.695l6.91-3.99V84.65Zm0-3.358V82.337l6.91-3.99v2.945Zm0-3.358V78.98l6.91-3.99v2.945Zm0-3.358V75.622l6.91-3.99v2.945Zm-.358.207-6.91,3.989V79.818l6.91-3.989Zm-7.268,4.2-6.91,3.989V84.014l6.91-3.99Zm-7.268,4.2-6.91,3.989V88.21l6.91-3.99Zm0,.413v2.945l-6.91,3.99V91.568Zm-7.268,7.141-6.91,3.99V95.764l6.91-3.99Zm0,.413v2.945l-6.91,3.99V99.122Zm0,3.358v2.945l-6.91,3.99v-2.945Zm0,3.358v2.945l-6.91,3.99v-2.945Zm0,3.358v2.945l-6.91,3.99v-2.945Zm0,3.358v2.945l-6.91,3.99v-2.945Zm.358-.207,6.91-3.989v2.944l-6.91,3.99Zm6.91-.632v2.945l-6.91,3.989v-2.945Zm.358-.207,6.91-3.99v2.945l-6.91,3.99Zm7.268-4.2,6.91-3.989v2.945l-6.91,3.99Zm7.268-4.2,6.91-3.989v2.945l-6.91,3.989Zm0-.413V95.768l6.91-3.99v2.945Zm7.268-7.141,6.91-3.99v2.945l-6.91,3.99Zm0-.413V88.214l6.91-3.99v2.945Zm0-3.358V84.856l6.91-3.99v2.945Zm0-3.358V81.5l6.91-3.99v2.945Zm0-3.358V78.141l6.91-3.99V77.1Zm0-3.358V74.783l6.91-3.99v2.945Zm0-3.358V71.426l6.91-3.99v2.945Zm0-3.358V68.068l6.91-3.99v2.944Zm-.358.207-6.91,3.989V72.264l6.91-3.99Zm-7.268,4.2L142.3,79.4V76.46l6.91-3.989Zm-7.268,4.2-6.91,3.99V80.656l6.91-3.989Zm-7.268,4.2-6.91,3.99V84.852l6.91-3.99ZM127.409,88l-6.91,3.99V89.049l6.91-3.99Zm0,.413v2.944l-6.91,3.99V92.406Zm-7.268,7.141-6.91,3.99V96.6l6.91-3.989Zm0,.413v2.945l-6.91,3.989V99.96Zm0,3.357v2.945l-6.91,3.99v-2.945Zm0,3.358v2.945l-6.91,3.99v-2.945Zm0,3.358v2.945l-6.91,3.99v-2.945Zm0,3.358v2.945l-6.91,3.99V113.39Zm0,3.358V115.7l-6.91,3.989v-2.944Zm0,3.358v2.945l-6.91,3.99v-2.945Zm.358-.207,6.91-3.99v2.945l-6.91,3.99Zm6.91-.632v2.945l-6.91,3.99v-2.945Zm.358-.207,6.91-3.99v2.945l-6.91,3.99Zm7.268-4.2,6.91-3.989v2.945l-6.91,3.99Zm7.268-4.2,6.91-3.989v2.945l-6.91,3.99Zm7.268-4.2,6.91-3.99v2.945l-6.91,3.989Zm7.268-4.2,6.91-3.99v2.944l-6.91,3.99Zm0-.413V94.929l6.91-3.99v2.944Zm7.268-7.141,6.91-3.989v2.945l-6.91,3.989Zm0-.413V87.375l6.91-3.989v2.945Zm0-3.358V84.018l6.91-3.989v2.945Zm0-3.358V80.66l6.91-3.989v2.945Zm0-3.358V77.3l6.91-3.989v2.945Zm0-3.358V73.945l6.91-3.989V72.9Zm0-3.358V70.587l6.91-3.989v2.944Zm0-3.358V67.23l6.91-3.989v2.945Zm0-3.358V63.872l6.91-3.989v2.944Zm0-3.358V60.514l6.91-3.989V59.47Zm-.358.207-6.91,3.99V64.71l6.91-3.99Zm-7.268,4.2-6.91,3.99V68.907l6.91-3.99Zm-7.268,4.2-6.91,3.989V73.1l6.91-3.989Zm-7.268,4.2-6.91,3.99V77.3l6.91-3.989Zm-7.268,4.2-6.91,3.99V81.495l6.91-3.989Zm-7.268,4.2-6.91,3.99V85.691l6.91-3.99Zm-7.268,4.2-6.91,3.989V89.887l6.91-3.99Zm0,.413V92.2l-6.91,3.989V93.245Zm-7.267,7.14-6.91,3.99V97.441l6.91-3.99Zm0,.413v2.945l-6.91,3.99V100.8Zm0,3.358v2.945l-6.91,3.99v-2.945Zm0,3.358v2.945l-6.91,3.99v-2.945Zm0,3.358v2.945l-6.91,3.99v-2.945Zm0,3.358v2.945l-6.91,3.99v-2.945Zm0,3.357v2.945l-6.91,3.99v-2.945Zm0,3.358V119.9l-6.91,3.99v-2.945Zm0,3.358v2.945l-6.91,3.99V124.3Zm0,3.358v2.945l-6.91,3.99v-2.945Zm.357-.207,6.91-3.989v2.945l-6.91,3.989Zm6.91-.632v2.945l-6.91,3.99v-2.945Zm.358-.207,6.91-3.99v2.945l-6.91,3.99Zm7.268-4.2,6.91-3.989v2.945l-6.91,3.989Zm7.268-4.2,6.91-3.99v2.944l-6.91,3.99Zm7.268-4.2,6.91-3.99v2.945l-6.91,3.989Zm7.268-4.2,6.91-3.989V104.8l-6.91,3.99Zm7.268-4.2,6.91-3.99V100.6l-6.91,3.99Zm7.268-4.2,6.91-3.99V96.4l-6.91,3.989Zm0-.414V94.091l6.91-3.989v2.945Zm7.267-7.14,6.91-3.99V88.85l-6.91,3.99Zm0-.413V86.537l6.91-3.99v2.945Zm0-3.358V83.18l6.91-3.99v2.945Zm0-3.358V79.822l6.91-3.99v2.945Zm0-3.358V76.464l6.91-3.99v2.945Zm0-3.358V73.107l6.91-3.99v2.945Zm0-3.358V69.749l6.91-3.989V68.7Zm0-3.358V66.391l6.91-3.99v2.944Zm0-3.358V63.034l6.91-3.99v2.944Zm0-3.358V59.676l6.91-3.99v2.944Zm0-3.358V56.318l6.91-3.99v2.945Zm0-3.357V52.962l6.91-3.99v2.943Zm-.358.207-6.91,3.989V57.158l6.91-3.989Zm-7.267,4.2-6.91,3.99V61.354l6.91-3.989Zm-7.268,4.2-6.91,3.99V65.551l6.91-3.989Zm-7.268,4.2-6.91,3.989V69.747l6.91-3.99Zm-7.268,4.2-6.91,3.99V73.943l6.91-3.99Zm-7.268,4.2-6.91,3.99V78.139l6.91-3.989Zm-7.268,4.2-6.91,3.99V82.335l6.91-3.99Zm-7.268,4.2-6.91,3.989V86.531l6.91-3.989Zm-7.267,4.2-6.91,3.99V90.727l6.91-3.99Zm0,.414v2.944l-6.91,3.99V94.083ZM98.7,101.636l6.909-3.989v2.944L98.7,104.581Zm0,3.358,6.909-3.989v2.945L98.7,107.939Zm0,3.358,6.909-3.989v2.945L98.7,111.3Zm0,3.357,6.909-3.989v2.945L98.7,114.654Zm0,3.358,6.909-3.989v2.945L98.7,118.012Zm0,3.358,6.909-3.989v2.945L98.7,121.369Zm0,3.358,6.909-3.989v2.945L98.7,124.727Zm0,3.358,6.909-3.989V124.1l-6.91,3.989Zm0,3.358,6.91-3.989v2.945l-6.91,3.989Zm0,3.358,6.91-3.989v2.945L98.7,134.8Zm0,3.358,6.91-3.989v2.945l-6.91,3.989Zm7.267-4.2,6.91-3.99v2.944l-6.91,3.99Zm6.91-.632v2.934l-6.91,3.99v-2.934Zm.357-.207,6.91-3.989v2.934l-6.91,3.99Zm7.268-4.2,6.91-3.99v2.934l-6.91,3.99Zm7.268-4.2,6.91-3.99v2.934l-6.91,3.99Zm7.268-4.2,6.91-3.99v2.934l-6.91,3.99Zm7.268-4.2,6.91-3.989v2.933l-6.91,3.99Zm7.268-4.2,6.91-3.99v2.933l-6.91,3.99Zm7.268-4.2,6.91-3.99v2.933l-6.91,3.99Zm7.268-4.2,6.91-3.989V99.75l-6.91,3.99Zm7.267-4.2,6.91-3.99v2.933l-6.91,3.99Zm0-.413V93.252l6.91-3.99v2.945Zm14.175-11.542-6.907,3.988V85.7l6.907-3.988Zm0-3.358-6.907,3.988V82.341l6.907-3.988Zm0-3.358-6.907,3.988V78.983L185.549,75Zm0-3.358-6.907,3.988V75.626l6.907-3.988Zm0-3.358-6.907,3.988V72.268l6.907-3.988Zm0-3.358-6.907,3.988V68.91l6.908-3.988Zm0-3.358L178.642,68.5V65.553l6.908-3.988Zm0-3.358-6.908,3.988V62.2l6.908-3.988Zm0-3.358-6.908,3.988V58.838l6.908-3.988Zm0-3.358-6.908,3.988V55.48l6.908-3.988Zm0-3.358-6.908,3.988V52.122l6.908-3.988Zm0-3.358-6.908,3.988V48.766l6.908-3.988ZM105.605,90.934v2.942L98.7,97.865V94.923ZM98.7,138.57l6.91-3.989v2.934L98.7,141.5Zm79.946-43.224V92.414l6.907-3.988v2.933Z" transform="translate(-60.581 -27.204)" fill="#e0e0e0"/>
            <path id="Trazado_615730" data-name="Trazado 615730" d="M250.2,70.484l29.084-16.778V70.494L250.2,87.267Z" transform="translate(-154.136 -33.085)" fill="#fafafa"/>
            <path id="Trazado_615731" data-name="Trazado 615731" d="M250.2,70.484l29.084-16.778V70.494L250.2,87.267Z" transform="translate(-154.136 -33.085)" fill="none" stroke="#e0e0e0" stroke-miterlimit="10" stroke-width="1"/>
            <path id="Trazado_615732" data-name="Trazado 615732" d="M254.03,97.407l3.93-10.733,4.346,2.6,4.37-4.451,4.358,2.873,4.358-10.73,4.358,2.235" transform="translate(-156.495 -47.413)" fill="none" stroke="#455a64" stroke-linecap="round" stroke-linejoin="round" stroke-width="0.75"/>
            <path id="Trazado_615733" data-name="Trazado 615733" d="M263.563,100.834a.971.971,0,0,0-.438.761c0,.281.2.394.438.254a.972.972,0,0,0,.438-.761c0-.28-.2-.394-.438-.254" transform="translate(-162.098 -62.082)" fill="#27debf"/>
            <path id="Trazado_615734" data-name="Trazado 615734" d="M274.913,107.6a.971.971,0,0,0-.438.761c0,.281.2.394.438.254a.973.973,0,0,0,.438-.761c0-.28-.2-.394-.438-.254" transform="translate(-169.09 -66.251)" fill="#27debf"/>
            <path id="Trazado_615735" data-name="Trazado 615735" d="M286.264,96.013a.971.971,0,0,0-.438.761c0,.281.2.394.438.254a.973.973,0,0,0,.438-.761c0-.28-.2-.394-.438-.254" transform="translate(-176.083 -59.112)" fill="#27debf"/>
            <path id="Trazado_615736" data-name="Trazado 615736" d="M297.614,103.488a.971.971,0,0,0-.438.761c0,.281.2.394.438.254a.973.973,0,0,0,.438-.761c0-.28-.2-.394-.438-.254" transform="translate(-183.075 -63.717)" fill="#27debf"/>
            <path id="Trazado_615737" data-name="Trazado 615737" d="M308.964,75.544a.971.971,0,0,0-.438.761c0,.281.2.394.438.254a.973.973,0,0,0,.438-.761c0-.28-.2-.394-.438-.254" transform="translate(-190.068 -46.502)" fill="#27debf"/>
            <path id="Trazado_615738" data-name="Trazado 615738" d="M320.314,81.366a.971.971,0,0,0-.438.761c0,.281.2.394.438.254a.973.973,0,0,0,.438-.761c0-.28-.2-.394-.438-.254" transform="translate(-197.06 -50.089)" fill="#27debf"/>
          </g>
        </g>
        <path id="Trazado_615739" data-name="Trazado 615739" d="M345.055,214.749l-7.733,4.465,7.734,4.465,7.734-4.465Z" transform="translate(-207.807 -132.296)" fill="#455a64"/>
        <path id="Trazado_615740" data-name="Trazado 615740" d="M365.2,226.353v17.759l-7.733,4.465V230.829Z" transform="translate(-220.216 -139.445)" fill="#37474f"/>
        <path id="Trazado_615741" data-name="Trazado 615741" d="M345.055,230.83v17.748l-7.734-4.466V226.355Z" transform="translate(-207.807 -139.446)" fill="#263238"/>
        <path id="Trazado_615742" data-name="Trazado 615742" d="M318.555,250.105l-7.733,4.465,7.734,4.465,7.734-4.465Z" transform="translate(-191.482 -154.077)" fill="#27debf"/>
        <g id="Grupo_876508" data-name="Grupo 876508">
          <g id="Grupo_876507" data-name="Grupo 876507" clip-path="url(#clip-path)">
            <g id="Grupo_876506" data-name="Grupo 876506" transform="translate(119.34 96.028)" opacity="0.3">
              <g id="Grupo_876505" data-name="Grupo 876505">
                <g id="Grupo_876504" data-name="Grupo 876504" clip-path="url(#clip-path-20)">
                  <path id="Trazado_615743" data-name="Trazado 615743" d="M318.555,250.105l-7.733,4.465,7.734,4.465,7.734-4.465Z" transform="translate(-310.822 -250.105)" fill="#fff"/>
                </g>
              </g>
            </g>
          </g>
        </g>
        <path id="Trazado_615744" data-name="Trazado 615744" d="M338.7,261.709v10.058l-7.734,4.465V266.184Z" transform="translate(-203.891 -161.226)" fill="#27debf"/>
        <path id="Trazado_615745" data-name="Trazado 615745" d="M318.555,266.186v10.048l-7.734-4.466V261.711Z" transform="translate(-191.482 -161.227)" fill="#27debf"/>
        <g id="Grupo_876513" data-name="Grupo 876513">
          <g id="Grupo_876512" data-name="Grupo 876512" clip-path="url(#clip-path)">
            <g id="Grupo_876511" data-name="Grupo 876511" transform="translate(119.34 100.484)" opacity="0.1">
              <g id="Grupo_876510" data-name="Grupo 876510">
                <g id="Grupo_876509" data-name="Grupo 876509" clip-path="url(#clip-path-22)">
                  <path id="Trazado_615746" data-name="Trazado 615746" d="M318.555,266.186v10.048l-7.734-4.466V261.711Z" transform="translate(-310.821 -261.711)"/>
                </g>
              </g>
            </g>
          </g>
        </g>
        <path id="Trazado_615747" data-name="Trazado 615747" d="M292.055,254.527l-7.733,4.465,7.734,4.466,7.734-4.465Z" transform="translate(-175.157 -156.801)" fill="#27debf"/>
        <g id="Grupo_876518" data-name="Grupo 876518">
          <g id="Grupo_876517" data-name="Grupo 876517" clip-path="url(#clip-path)">
            <g id="Grupo_876516" data-name="Grupo 876516" transform="translate(109.165 97.726)" opacity="0.88">
              <g id="Grupo_876515" data-name="Grupo 876515">
                <g id="Grupo_876514" data-name="Grupo 876514" clip-path="url(#clip-path-20)">
                  <path id="Trazado_615748" data-name="Trazado 615748" d="M292.055,254.527l-7.733,4.465,7.734,4.466,7.734-4.465Z" transform="translate(-284.322 -254.527)" fill="#fff"/>
                </g>
              </g>
            </g>
          </g>
        </g>
        <path id="Trazado_615749" data-name="Trazado 615749" d="M312.2,266.13v14.235l-7.734,4.465V270.606Z" transform="translate(-187.566 -163.95)" fill="#27debf"/>
        <g id="Grupo_876523" data-name="Grupo 876523">
          <g id="Grupo_876522" data-name="Grupo 876522" clip-path="url(#clip-path)">
            <g id="Grupo_876521" data-name="Grupo 876521" transform="translate(116.899 102.18)" opacity="0.75">
              <g id="Grupo_876520" data-name="Grupo 876520">
                <g id="Grupo_876519" data-name="Grupo 876519" clip-path="url(#clip-path-26)">
                  <path id="Trazado_615750" data-name="Trazado 615750" d="M312.2,266.13v14.235l-7.734,4.465V270.606Z" transform="translate(-304.464 -266.13)" fill="#fff"/>
                </g>
              </g>
            </g>
          </g>
        </g>
        <path id="Trazado_615751" data-name="Trazado 615751" d="M292.055,270.607v14.225l-7.734-4.466V266.132Z" transform="translate(-175.156 -163.951)" fill="#27debf"/>
        <g id="Grupo_876528" data-name="Grupo 876528">
          <g id="Grupo_876527" data-name="Grupo 876527" clip-path="url(#clip-path)">
            <g id="Grupo_876526" data-name="Grupo 876526" transform="translate(109.165 102.182)" opacity="0.6">
              <g id="Grupo_876525" data-name="Grupo 876525">
                <g id="Grupo_876524" data-name="Grupo 876524" clip-path="url(#clip-path-28)">
                  <path id="Trazado_615752" data-name="Trazado 615752" d="M292.055,270.607v14.225l-7.734-4.466V266.132Z" transform="translate(-284.322 -266.133)" fill="#fff"/>
                </g>
              </g>
            </g>
          </g>
        </g>
        <path id="Trazado_615753" data-name="Trazado 615753" d="M265.556,293.8l-7.733,4.465,7.734,4.466,7.734-4.465Z" transform="translate(-158.832 -180.997)" fill="#27debf"/>
        <g id="Grupo_876533" data-name="Grupo 876533">
          <g id="Grupo_876532" data-name="Grupo 876532" clip-path="url(#clip-path)">
            <g id="Grupo_876531" data-name="Grupo 876531" transform="translate(98.991 112.805)" opacity="0.3">
              <g id="Grupo_876530" data-name="Grupo 876530">
                <g id="Grupo_876529" data-name="Grupo 876529" clip-path="url(#clip-path-20)">
                  <path id="Trazado_615754" data-name="Trazado 615754" d="M265.556,293.8l-7.733,4.465,7.734,4.466,7.734-4.465Z" transform="translate(-257.822 -293.802)"/>
                </g>
              </g>
            </g>
          </g>
        </g>
        <path id="Trazado_615755" data-name="Trazado 615755" d="M285.7,305.406v5.03l-7.734,4.465v-5.019Z" transform="translate(-171.241 -188.145)" fill="#27debf"/>
        <g id="Grupo_876538" data-name="Grupo 876538">
          <g id="Grupo_876537" data-name="Grupo 876537" clip-path="url(#clip-path)">
            <g id="Grupo_876536" data-name="Grupo 876536" transform="translate(106.725 117.26)" opacity="0.4">
              <g id="Grupo_876535" data-name="Grupo 876535">
                <g id="Grupo_876534" data-name="Grupo 876534" clip-path="url(#clip-path-32)">
                  <path id="Trazado_615756" data-name="Trazado 615756" d="M285.7,305.406v5.03l-7.734,4.465v-5.019Z" transform="translate(-277.965 -305.406)"/>
                </g>
              </g>
            </g>
          </g>
        </g>
        <path id="Trazado_615757" data-name="Trazado 615757" d="M265.556,309.883V314.9l-7.734-4.466v-5.028Z" transform="translate(-158.831 -188.147)" fill="#27debf"/>
        <g id="Grupo_876543" data-name="Grupo 876543">
          <g id="Grupo_876542" data-name="Grupo 876542" clip-path="url(#clip-path)">
            <g id="Grupo_876541" data-name="Grupo 876541" transform="translate(98.991 117.261)" opacity="0.55">
              <g id="Grupo_876540" data-name="Grupo 876540">
                <g id="Grupo_876539" data-name="Grupo 876539" clip-path="url(#clip-path-34)">
                  <path id="Trazado_615758" data-name="Trazado 615758" d="M265.556,309.883V314.9l-7.734-4.466v-5.028Z" transform="translate(-257.822 -305.408)"/>
                </g>
              </g>
            </g>
          </g>
        </g>
        <path id="Trazado_615759" data-name="Trazado 615759" d="M163.609,362.555v2.927l-2.891-7.858V354.7l0,0Z" transform="translate(-99.01 -218.513)" fill="#263238"/>
        <path id="Trazado_615760" data-name="Trazado 615760" d="M168.251,368.524v2.926l11.926-4.137v-2.926Z" transform="translate(-103.651 -224.481)" fill="#37474f"/>
        <g id="Grupo_876587" data-name="Grupo 876587">
          <g id="Grupo_876586" data-name="Grupo 876586" clip-path="url(#clip-path)">
            <path id="Trazado_615761" data-name="Trazado 615761" d="M160.718,354.5l2.893,7.857,11.926-4.137c-3.274-2.857-8.966-4.286-14.819-3.72" transform="translate(-99.01 -218.316)" fill="#455a64"/>
            <path id="Trazado_615762" data-name="Trazado 615762" d="M128.26,376.574a.773.773,0,0,0,0,.089v-.089Z" transform="translate(-79.013 -231.989)" fill="#27debf"/>
            <path id="Trazado_615763" data-name="Trazado 615763" d="M142.423,379.867l-1.771,8.33c-7.228-.7-12.453-4.362-12.392-8.541l0,.007v-2.855c0,4.147,5.21,7.764,12.4,8.466l1.216-5.725Z" transform="translate(-79.012 -232.133)" fill="#27debf"/>
            <g id="Grupo_876546" data-name="Grupo 876546" transform="translate(49.244 144.675)" opacity="0.4">
              <g id="Grupo_876545" data-name="Grupo 876545">
                <g id="Grupo_876544" data-name="Grupo 876544" clip-path="url(#clip-path-36)">
                  <path id="Trazado_615764" data-name="Trazado 615764" d="M142.423,379.867l-1.771,8.33c-7.228-.7-12.453-4.362-12.392-8.541l0,.007v-2.855c0,4.147,5.21,7.764,12.4,8.466l1.216-5.725Z" transform="translate(-128.256 -376.808)"/>
                </g>
              </g>
            </g>
            <path id="Trazado_615765" data-name="Trazado 615765" d="M164.075,383.5v2.926a23.074,23.074,0,0,0,8.8-1.2c3.409-1.183,5.815-3.06,6.777-5.288a5.261,5.261,0,0,0,.448-2.043c0-.278,0-3.024,0-3.024a3.106,3.106,0,0,1-1.793-1.1l-2.233.774-10.228,3.548Z" transform="translate(-101.078 -230.261)" fill="#27debf"/>
            <g id="Grupo_876549" data-name="Grupo 876549" transform="translate(62.997 143.509)" opacity="0.6">
              <g id="Grupo_876548" data-name="Grupo 876548">
                <g id="Grupo_876547" data-name="Grupo 876547" clip-path="url(#clip-path-37)">
                  <path id="Trazado_615766" data-name="Trazado 615766" d="M164.075,383.5v2.926a23.074,23.074,0,0,0,8.8-1.2c3.409-1.183,5.815-3.06,6.777-5.288a5.261,5.261,0,0,0,.448-2.043c0-.278,0-3.024,0-3.024a3.106,3.106,0,0,1-1.793-1.1l-2.233.774-10.228,3.548Z" transform="translate(-164.075 -373.77)" fill="#fff"/>
                </g>
              </g>
            </g>
            <path id="Trazado_615767" data-name="Trazado 615767" d="M140.894,363.169l8.885,5.13v-2.926l-8.885-5.13Z" transform="translate(-86.798 -221.928)" fill="#27debf"/>
            <g id="Grupo_876552" data-name="Grupo 876552" transform="translate(54.096 138.315)" opacity="0.1">
              <g id="Grupo_876551" data-name="Grupo 876551">
                <g id="Grupo_876550" data-name="Grupo 876550" clip-path="url(#clip-path-38)">
                  <path id="Trazado_615768" data-name="Trazado 615768" d="M140.894,363.169l8.885,5.13v-2.926l-8.885-5.13Z" transform="translate(-140.894 -360.243)"/>
                </g>
              </g>
            </g>
            <path id="Trazado_615769" data-name="Trazado 615769" d="M128.365,366.444c-.973,4.572,4.495,8.761,12.284,9.521l1.772-8.331L132.141,361.7a7.546,7.546,0,0,0-3.775,4.745" transform="translate(-79.011 -222.825)" fill="#27debf"/>
            <g id="Grupo_876555" data-name="Grupo 876555" transform="translate(49.243 138.874)" opacity="0.3">
              <g id="Grupo_876554" data-name="Grupo 876554">
                <g id="Grupo_876553" data-name="Grupo 876553" clip-path="url(#clip-path-39)">
                  <path id="Trazado_615770" data-name="Trazado 615770" d="M128.365,366.444c-.973,4.572,4.495,8.761,12.284,9.521l1.772-8.331L132.141,361.7a7.546,7.546,0,0,0-3.775,4.745" transform="translate(-128.254 -361.699)"/>
                </g>
              </g>
            </g>
            <path id="Trazado_615771" data-name="Trazado 615771" d="M164.127,378.561l-.052.244a23.091,23.091,0,0,0,8.8-1.2c3.409-1.183,5.815-3.06,6.777-5.288a5.474,5.474,0,0,0-1.345-6.163l-2.233.775-10.228,3.548Z" transform="translate(-101.078 -225.567)" fill="#27debf"/>
            <g id="Grupo_876558" data-name="Grupo 876558" transform="translate(62.997 140.583)" opacity="0.75">
              <g id="Grupo_876557" data-name="Grupo 876557">
                <g id="Grupo_876556" data-name="Grupo 876556" clip-path="url(#clip-path-40)">
                  <path id="Trazado_615772" data-name="Trazado 615772" d="M164.127,378.561l-.052.244a23.091,23.091,0,0,0,8.8-1.2c3.409-1.183,5.815-3.06,6.777-5.288a5.474,5.474,0,0,0-1.345-6.163l-2.233.775-10.228,3.548Z" transform="translate(-164.075 -366.15)" fill="#fff"/>
                </g>
              </g>
            </g>
            <path id="Trazado_615773" data-name="Trazado 615773" d="M140.894,357.088l8.885,5.13-2.612-7.1a18.211,18.211,0,0,0-6.273,1.966" transform="translate(-86.798 -218.773)" fill="#27debf"/>
            <path id="Trazado_615774" data-name="Trazado 615774" d="M162.311,380.084v-2.926l-1.772,8.331v2.926Z" transform="translate(-98.9 -232.348)" fill="#27debf"/>
            <g id="Grupo_876561" data-name="Grupo 876561" transform="translate(61.639 144.81)" opacity="0.55">
              <g id="Grupo_876560" data-name="Grupo 876560">
                <g id="Grupo_876559" data-name="Grupo 876559" clip-path="url(#clip-path-41)">
                  <path id="Trazado_615775" data-name="Trazado 615775" d="M162.311,380.084v-2.926l-1.772,8.331v2.926Z" transform="translate(-160.54 -377.158)"/>
                </g>
              </g>
            </g>
            <path id="Trazado_615776" data-name="Trazado 615776" d="M191.57,343.266l-1.936,1.118,1.936,1.118,1.936-1.118Z" transform="translate(-116.824 -211.469)" fill="#27debf"/>
            <g id="Grupo_876564" data-name="Grupo 876564" transform="translate(72.81 131.797)" opacity="0.3">
              <g id="Grupo_876563" data-name="Grupo 876563">
                <g id="Grupo_876562" data-name="Grupo 876562" clip-path="url(#clip-path-42)">
                  <path id="Trazado_615777" data-name="Trazado 615777" d="M191.57,343.266l-1.936,1.118,1.936,1.118,1.936-1.118Z" transform="translate(-189.634 -343.266)"/>
                </g>
              </g>
            </g>
            <path id="Trazado_615778" data-name="Trazado 615778" d="M196.612,346.17v1.121l-1.936,1.118v-1.119Z" transform="translate(-119.93 -213.258)" fill="#27debf"/>
            <g id="Grupo_876567" data-name="Grupo 876567" transform="translate(74.746 132.912)" opacity="0.4">
              <g id="Grupo_876566" data-name="Grupo 876566">
                <g id="Grupo_876565" data-name="Grupo 876565" clip-path="url(#clip-path-43)">
                  <path id="Trazado_615779" data-name="Trazado 615779" d="M196.612,346.17v1.121l-1.936,1.118v-1.119Z" transform="translate(-194.676 -346.17)"/>
                </g>
              </g>
            </g>
            <path id="Trazado_615780" data-name="Trazado 615780" d="M191.57,347.291v1.119l-1.936-1.118v-1.121Z" transform="translate(-116.824 -213.259)" fill="#27debf"/>
            <g id="Grupo_876570" data-name="Grupo 876570" transform="translate(72.81 132.912)" opacity="0.55">
              <g id="Grupo_876569" data-name="Grupo 876569">
                <g id="Grupo_876568" data-name="Grupo 876568" clip-path="url(#clip-path-43)">
                  <path id="Trazado_615781" data-name="Trazado 615781" d="M191.57,347.291v1.119l-1.936-1.118v-1.121Z" transform="translate(-189.634 -346.171)"/>
                </g>
              </g>
            </g>
            <path id="Trazado_615782" data-name="Trazado 615782" d="M201.834,334.054l7.172-4.141a1.659,1.659,0,0,1,1.5-.028c.4.232.38.62-.048.867l-7.171,4.141a1.663,1.663,0,0,1-1.5.028c-.4-.232-.38-.62.048-.867" transform="translate(-124.133 -203.124)" fill="#e0e0e0"/>
            <path id="Trazado_615783" data-name="Trazado 615783" d="M202.927,349.823l-1.936,1.118,1.936,1.118,1.936-1.118Z" transform="translate(-123.821 -215.509)" fill="#27debf"/>
            <g id="Grupo_876573" data-name="Grupo 876573" transform="translate(77.171 134.314)" opacity="0.88">
              <g id="Grupo_876572" data-name="Grupo 876572">
                <g id="Grupo_876571" data-name="Grupo 876571" clip-path="url(#clip-path-42)">
                  <path id="Trazado_615784" data-name="Trazado 615784" d="M202.927,349.823l-1.936,1.118,1.936,1.118,1.936-1.118Z" transform="translate(-200.992 -349.823)" fill="#fff"/>
                </g>
              </g>
            </g>
            <path id="Trazado_615785" data-name="Trazado 615785" d="M207.969,352.727v1.122l-1.936,1.118v-1.119Z" transform="translate(-126.927 -217.298)" fill="#27debf"/>
            <g id="Grupo_876576" data-name="Grupo 876576" transform="translate(79.106 135.43)" opacity="0.75">
              <g id="Grupo_876575" data-name="Grupo 876575">
                <g id="Grupo_876574" data-name="Grupo 876574" clip-path="url(#clip-path-43)">
                  <path id="Trazado_615786" data-name="Trazado 615786" d="M207.969,352.727v1.122l-1.936,1.118v-1.119Z" transform="translate(-206.033 -352.727)" fill="#fff"/>
                </g>
              </g>
            </g>
            <path id="Trazado_615787" data-name="Trazado 615787" d="M202.927,353.848v1.119l-1.935-1.118v-1.121Z" transform="translate(-123.821 -217.298)" fill="#27debf"/>
            <g id="Grupo_876579" data-name="Grupo 876579" transform="translate(77.171 135.43)" opacity="0.6">
              <g id="Grupo_876578" data-name="Grupo 876578">
                <g id="Grupo_876577" data-name="Grupo 876577" clip-path="url(#clip-path-43)">
                  <path id="Trazado_615788" data-name="Trazado 615788" d="M202.927,353.848v1.119l-1.935-1.118v-1.121Z" transform="translate(-200.991 -352.728)" fill="#fff"/>
                </g>
              </g>
            </g>
            <path id="Trazado_615789" data-name="Trazado 615789" d="M213.192,340.611l7.171-4.141a1.66,1.66,0,0,1,1.5-.028c.4.232.38.62-.048.867l-7.171,4.141a1.663,1.663,0,0,1-1.5.028c-.4-.232-.38-.62.048-.867" transform="translate(-131.13 -207.163)" fill="#e0e0e0"/>
            <path id="Trazado_615790" data-name="Trazado 615790" d="M214.285,356.38l-1.935,1.118,1.935,1.118,1.936-1.118Z" transform="translate(-130.818 -219.548)" fill="#27debf"/>
            <g id="Grupo_876582" data-name="Grupo 876582" transform="translate(81.531 136.832)" opacity="0.3">
              <g id="Grupo_876581" data-name="Grupo 876581">
                <g id="Grupo_876580" data-name="Grupo 876580" clip-path="url(#clip-path-42)">
                  <path id="Trazado_615791" data-name="Trazado 615791" d="M214.285,356.38l-1.935,1.118,1.935,1.118,1.936-1.118Z" transform="translate(-212.349 -356.38)" fill="#fff"/>
                </g>
              </g>
            </g>
            <path id="Trazado_615792" data-name="Trazado 615792" d="M219.327,359.285v1.121l-1.936,1.118v-1.119Z" transform="translate(-133.924 -221.338)" fill="#27debf"/>
            <path id="Trazado_615793" data-name="Trazado 615793" d="M214.284,360.405v1.119l-1.936-1.118v-1.121Z" transform="translate(-130.817 -221.338)" fill="#27debf"/>
            <g id="Grupo_876585" data-name="Grupo 876585" transform="translate(81.531 137.947)" opacity="0.1">
              <g id="Grupo_876584" data-name="Grupo 876584">
                <g id="Grupo_876583" data-name="Grupo 876583" clip-path="url(#clip-path-43)">
                  <path id="Trazado_615794" data-name="Trazado 615794" d="M214.284,360.405v1.119l-1.936-1.118v-1.121Z" transform="translate(-212.349 -359.285)"/>
                </g>
              </g>
            </g>
            <path id="Trazado_615795" data-name="Trazado 615795" d="M224.55,347.168l7.172-4.141a1.661,1.661,0,0,1,1.5-.028c.4.232.38.62-.048.867L226,348.007a1.663,1.663,0,0,1-1.5.028c-.4-.232-.38-.62.048-.867" transform="translate(-138.127 -211.203)" fill="#e0e0e0"/>
            <path id="Trazado_615796" data-name="Trazado 615796" d="M225.642,362.938l-1.935,1.117,1.936,1.118,1.935-1.118Z" transform="translate(-137.815 -223.588)" fill="#455a64"/>
            <path id="Trazado_615797" data-name="Trazado 615797" d="M230.684,365.842v1.121l-1.936,1.118v-1.119Z" transform="translate(-140.92 -225.377)" fill="#37474f"/>
            <path id="Trazado_615798" data-name="Trazado 615798" d="M225.642,366.963v1.119l-1.936-1.118v-1.121Z" transform="translate(-137.814 -225.378)" fill="#263238"/>
            <path id="Trazado_615799" data-name="Trazado 615799" d="M235.907,353.726l7.171-4.141a1.66,1.66,0,0,1,1.5-.028c.4.232.38.62-.048.867l-7.171,4.141a1.663,1.663,0,0,1-1.5.028c-.4-.232-.38-.62.048-.867" transform="translate(-145.124 -215.243)" fill="#e0e0e0"/>
          </g>
        </g>
        <g id="Grupo_876601" data-name="Grupo 876601">
          <g id="Grupo_876600" data-name="Grupo 876600" clip-path="url(#clip-path)">
            <path id="Trazado_615800" data-name="Trazado 615800" d="M386.827,205.032c2.662-.015,3.924.748,4.882,3.3s3.5,8.388,3.549,10.124c.051,1.8-5.747,7.26-5.539,7.166.064-.029-1.767-3.308-1.767-3.308l3.261-4-1.869-5.426Z" transform="translate(-238.305 -126.31)" fill="#ffa8a7"/>
            <path id="Trazado_615801" data-name="Trazado 615801" d="M383.949,354.408c.163.156.194.306.189.874s.235,1.2-.057,1.732a1.8,1.8,0,0,1-1.895.375,5.863,5.863,0,0,1-1.3-1.172,9.27,9.27,0,0,0-1.142-1.1c-.479-.357-1.036-.595-1.536-.922a3.066,3.066,0,0,1-1.392-2.3,1.508,1.508,0,0,1,.178-.876,1,1,0,0,1,1-.328,13.819,13.819,0,0,1,2.8,1.4c.532.367,2.988,2.155,3.156,2.315" transform="translate(-232.133 -216.03)" fill="#263238"/>
            <path id="Trazado_615802" data-name="Trazado 615802" d="M383.963,353.545c-.017.408-1.735-.546-2.439-.453a.089.089,0,0,0-.02.009c-.653.314-.111,1.231.5,1.7s2.594,1.928,2.594,1.928l.407-2.355Z" transform="translate(-234.843 -217.518)" fill="#ffa8a7"/>
            <path id="Trazado_615803" data-name="Trazado 615803" d="M352.474,371.557c.318,0,.46,1.042.519,1.847a5.633,5.633,0,0,1,.061,2.093c-.22.457-1.059.743-2.352.716a7.591,7.591,0,0,0-3.053,1.022,4.652,4.652,0,0,1-2.908.365,3.642,3.642,0,0,1-2.514-1.312c-.18-.479.062-.706,2.791-1.827a15.582,15.582,0,0,0,4.21-2.686Z" transform="translate(-210.8 -228.898)" fill="#263238"/>
            <path id="Trazado_615804" data-name="Trazado 615804" d="M347.948,374.784c-.378.155-.7.292-.991.416-.074.258.025.667,1.231.867,1.838.306,7.237-3.758,7.237-3.758s-.774.213-.919-.23l-2.347.018a15.579,15.579,0,0,1-4.21,2.686" transform="translate(-213.731 -229.22)" fill="#ffa8a7"/>
            <path id="Trazado_615805" data-name="Trazado 615805" d="M374.427,277.362a23.407,23.407,0,0,0-.528-5.326s.32-6.856.357-11.166c.073-8.523-.09-9.774-1.975-13.451,0,0-11.007-1.288-11.471,4.076-.578,6.68-1.249,17.859-1.232,21.041.013,2.369.281,4.936.412,10.308.084,3.44.447,8.3-.046,12.372.623,1.043,2.307,1.025,3.266.212.276-3.986,2.255-11.618,2.561-14.281a22.55,22.55,0,0,0-.235-5.754s1.458-11.379,1.714-13.11a32.061,32.061,0,0,1,.638,5.558c-.008.756.262,3.29.694,7.553.263,2.6,2.1,12.74,2.5,16a1.377,1.377,0,0,0,2.165-.111c.308-3.979,1.179-11.437,1.179-13.92" transform="translate(-221.518 -152.339)" fill="#ffa8a7"/>
            <g id="Grupo_876590" data-name="Grupo 876590" transform="translate(145.733 102.143)" opacity="0.15">
              <g id="Grupo_876589" data-name="Grupo 876589">
                <g id="Grupo_876588" data-name="Grupo 876588" clip-path="url(#clip-path-51)">
                  <path id="Trazado_615806" data-name="Trazado 615806" d="M379.564,273.833l.973-5.526a7.555,7.555,0,0,0,4.333-2.275,4.636,4.636,0,0,1-3.444,2.962l-1.138,5-.193,4.558Z" transform="translate(-379.564 -266.032)"/>
                </g>
              </g>
            </g>
            <path id="Trazado_615807" data-name="Trazado 615807" d="M372.371,198.9l.459,5.009,4.4-.266-.337-5.555Z" transform="translate(-229.399 -122.032)" fill="#ffa8a7"/>
            <path id="Trazado_615808" data-name="Trazado 615808" d="M373.675,222.735a20.309,20.309,0,0,0-1.9-3.8c1.881-6.057,2.483-8.1,2.117-10.687-.233-1.648-1.527-3.294-3.132-3.209,0,0-.867,0-1.232,0-.072,1.148-3.262,1.2-4.472.414l-1.114.03c-.788.279-3.469,4.206-3.764,6.813a5.742,5.742,0,0,0,1.419,3.954,20.091,20.091,0,0,1-.157,2.685s.008,5.126,0,7.674c0,0,.622,1.965,7.078,1.35,5.743-.547,5.884-2.509,5.884-2.509a12.152,12.152,0,0,0-.724-2.711" transform="translate(-221.872 -126.31)" fill="#27debf"/>
            <g id="Grupo_876593" data-name="Grupo 876593" transform="translate(138.28 78.722)" opacity="0.3">
              <g id="Grupo_876592" data-name="Grupo 876592">
                <g id="Grupo_876591" data-name="Grupo 876591" clip-path="url(#clip-path-52)">
                  <path id="Trazado_615809" data-name="Trazado 615809" d="M373.675,222.735a20.309,20.309,0,0,0-1.9-3.8c1.881-6.057,2.483-8.1,2.117-10.687-.233-1.648-1.527-3.294-3.132-3.209,0,0-.867,0-1.232,0-.072,1.148-3.262,1.2-4.472.414l-1.114.03c-.788.279-3.469,4.206-3.764,6.813a5.742,5.742,0,0,0,1.419,3.954,20.091,20.091,0,0,1-.157,2.685s.008,5.126,0,7.674c0,0,.622,1.965,7.078,1.35,5.743-.547,5.884-2.509,5.884-2.509a12.152,12.152,0,0,0-.724-2.711" transform="translate(-360.152 -205.032)"/>
                </g>
              </g>
            </g>
            <path id="Trazado_615810" data-name="Trazado 615810" d="M366.912,169.629a4.09,4.09,0,0,0-3.538,1.282,2.856,2.856,0,0,0,.217,4.4Z" transform="translate(-223.273 -104.479)" fill="#263238"/>
            <path id="Trazado_615811" data-name="Trazado 615811" d="M362.526,185.868s-.978,1.47-.851,1.626a2.324,2.324,0,0,0,.745.324Z" transform="translate(-222.803 -114.504)" fill="#f28f8f"/>
            <path id="Trazado_615812" data-name="Trazado 615812" d="M366.647,173.121c-.948.487-2.587,1.386-3.017,4.873-.441,3.58.352,4.826.839,5.3a4.618,4.618,0,0,0,2.916.164,9.226,9.226,0,0,0,4.65-3.368c1.332-2.171,1.613-5.068.086-6.208a5.718,5.718,0,0,0-5.474-.758" transform="translate(-223.934 -106.416)" fill="#ffa8a7"/>
            <path id="Trazado_615813" data-name="Trazado 615813" d="M368,174.906c-1.983-1.01-1.478-3.643-1.478-3.643s2.835-4.049,8.062-1.43a5.964,5.964,0,0,1-2.824,11.047,3.308,3.308,0,0,1-3.308-3.307v-.219l.167.054A1.681,1.681,0,0,0,370.16,177c.87-.749.975-2.22-.127-2.591s-1.677.9-1.677.9v0l-.427,1.171a.833.833,0,0,1-.5-1.068.818.818,0,0,1,.566-.5" transform="translate(-225.758 -104.083)" fill="#263238"/>
            <path id="Trazado_615814" data-name="Trazado 615814" d="M324.076,186.566l-9.438,4.727,4.438,12.79,8.813-4.746Z" transform="translate(-193.833 -114.934)" fill="#27debf"/>
            <path id="Trazado_615815" data-name="Trazado 615815" d="M325.342,189.789l-7.918,3.966,3.933,11,7.394-3.982Z" transform="translate(-195.549 -116.919)" fill="#f5f5f5"/>
            <g id="Grupo_876596" data-name="Grupo 876596" transform="translate(123.932 73.521)" opacity="0.15">
              <g id="Grupo_876595" data-name="Grupo 876595">
                <g id="Grupo_876594" data-name="Grupo 876594" clip-path="url(#clip-path-53)">
                  <path id="Trazado_615816" data-name="Trazado 615816" d="M326.967,191.986l-.146-.391c-.081-.216-.736-.1-1.464.262l-1.394.69c-.728.361-1.254.829-1.173,1.045l.146.391Z" transform="translate(-322.782 -191.487)"/>
                </g>
              </g>
            </g>
            <path id="Trazado_615817" data-name="Trazado 615817" d="M325.588,188.481c-.05-.135-.334-.118-.636.038l-.546.283s-.319-.845-1.574-.285-.987,1.538-.987,1.538l-.58.307c-.32.17-.55.418-.514.555l.066.248,4.862-2.435s-.042-.116-.091-.251" transform="translate(-197.597 -116.018)" fill="#37474f"/>
            <path id="Trazado_615818" data-name="Trazado 615818" d="M326.642,189.878c-.452.213-.63.316-.507.65.141.381.274.654.274.654l-2.151,1.08s-.17-.484-.244-.67-.229-.278-.571-.106l-.124-.136,3.391-1.658Z" transform="translate(-199.181 -116.859)" fill="#263238"/>
            <path id="Trazado_615819" data-name="Trazado 615819" d="M327.2,192.043l-.146-.391c-.08-.216-.736-.1-1.464.262l-1.394.69c-.728.361-1.254.829-1.173,1.045l.146.391Z" transform="translate(-198.996 -118.001)" fill="#37474f"/>
            <path id="Trazado_615820" data-name="Trazado 615820" d="M352.05,206.192c-1.486-.025-2.385.107-4.413,3.117s-5.788,8.552-6.23,9.27a3.846,3.846,0,0,0-.252,3.467c.467.873,1.287,1.176,3.623-1.307,1.731-1.839,5.368-6.723,5.368-6.723s2.83-5.276,1.9-7.824" transform="translate(-209.982 -127.024)" fill="#ffa8a7"/>
            <path id="Trazado_615821" data-name="Trazado 615821" d="M325.183,224.1c-1.225.378-5.719-4.971-6.968-6.58a18.53,18.53,0,0,0-3.509-3.561c-1.731-1.324-1.443-3.309-.648-5.12.276-.627,1.166-.2,1.166-.2l.3.87.523,1.507c.366.351.575.467.6.364.05-.192-.256-1-.234-1.843.026-1.01.723-.334.928.023a12.622,12.622,0,0,1,.719,1.682c.338.91.177,1.823.6,2.447s6.523,5.694,6.523,5.694Z" transform="translate(-193.088 -128.446)" fill="#ffa8a7"/>
            <path id="Trazado_615822" data-name="Trazado 615822" d="M370.977,241.232s-4.306,2.543-10.335,0a89.014,89.014,0,0,0-1.094,9.555c-.215,4.076-.688,12.827-.688,12.827s1.781,2.076,8.131,1.654c6.1-.4,7.181-1.995,7.181-1.995s.014-7.86.046-11.3a15.937,15.937,0,0,0-3.241-10.745" transform="translate(-221.076 -148.611)" fill="#27debf"/>
            <g id="Grupo_876599" data-name="Grupo 876599" transform="translate(137.785 92.621)" opacity="0.5">
              <g id="Grupo_876598" data-name="Grupo 876598">
                <g id="Grupo_876597" data-name="Grupo 876597" clip-path="url(#clip-path-54)">
                  <path id="Trazado_615823" data-name="Trazado 615823" d="M370.977,241.232s-4.306,2.543-10.335,0a89.014,89.014,0,0,0-1.094,9.555c-.215,4.076-.688,12.827-.688,12.827s1.781,2.076,8.131,1.654c6.1-.4,7.181-1.995,7.181-1.995s.014-7.86.046-11.3a15.937,15.937,0,0,0-3.241-10.745" transform="translate(-358.861 -241.232)"/>
                </g>
              </g>
            </g>
            <path id="Trazado_615824" data-name="Trazado 615824" d="M394.245,178.906l1.007-.922a.88.88,0,0,0-1.49.852c-.125-.011-.251-.019-.379-.019v8.1a4.205,4.205,0,0,0,4.2,4.205v-8.1a4.206,4.206,0,0,0-3.343-4.116" transform="translate(-242.344 -109.471)" fill="#263238"/>
          </g>
        </g>
      </g>
    </g>
  </g>
</svg>
