<svg xmlns="http://www.w3.org/2000/svg" xmlns:xlink="http://www.w3.org/1999/xlink" width="307.121" height="172.698" viewBox="0 0 307.121 172.698">
  <defs>
    <clipPath id="clip-path">
      <rect id="Rectángulo_325514" data-name="Rectángulo 325514" width="232.839" height="149.669" fill="none"/>
    </clipPath>
    <clipPath id="clip-path-2">
      <rect id="Rectángulo_325513" data-name="Rectángulo 325513" width="232.84" height="149.669" fill="none"/>
    </clipPath>
    <clipPath id="clip-path-3">
      <rect id="Rectángulo_325484" data-name="Rectángulo 325484" width="24.169" height="23.464" fill="none"/>
    </clipPath>
    <clipPath id="clip-path-4">
      <rect id="Rectángulo_325487" data-name="Rectángulo 325487" width="74.152" height="102.469" fill="none"/>
    </clipPath>
    <clipPath id="clip-path-5">
      <rect id="Rectángulo_325504" data-name="Rectángulo 325504" width="28.664" height="13.314" fill="none"/>
    </clipPath>
    <clipPath id="clip-path-6">
      <rect id="Rectángulo_325509" data-name="Rectángulo 325509" width="24.05" height="6.721" fill="none"/>
    </clipPath>
    <clipPath id="clip-path-7">
      <rect id="Rectángulo_325510" data-name="Rectángulo 325510" width="39.555" height="39.554" fill="none"/>
    </clipPath>
    <clipPath id="clip-path-8">
      <rect id="Rectángulo_325512" data-name="Rectángulo 325512" width="25.771" height="19.406" fill="none"/>
    </clipPath>
  </defs>
  <g id="Grupo_877364" data-name="Grupo 877364" transform="translate(-927.615 -8821.631)">
    <rect id="Imagen_35" data-name="Imagen 35" width="307.121" height="172.698" rx="19" transform="translate(927.615 8821.631)" fill="#ffb500"/>
    <g id="Grupo_876637" data-name="Grupo 876637" transform="translate(964.615 8833.631)">
      <g id="Grupo_876636" data-name="Grupo 876636" clip-path="url(#clip-path)">
        <g id="Grupo_876635" data-name="Grupo 876635">
          <g id="Grupo_876634" data-name="Grupo 876634" clip-path="url(#clip-path-2)">
            <path id="Trazado_616099" data-name="Trazado 616099" d="M242.037,149.338c-12.879,0-200.493.049-200.6-.308l-.018-.045a.252.252,0,0,1-.018-.066c-.072-.178-28.907-50.3,15.921-85.184,17.54-13.651-1.1-22.662,12.85-37.859,16.029-17.464,33.523,1.855,51.347-6.063a28.7,28.7,0,0,0,9.473-7.1,35.743,35.743,0,0,1,5.822-5.106q.48-.338.971-.66a38.188,38.188,0,0,1,3.884-2.227q1.346-.671,2.743-1.24h0a43.233,43.233,0,0,1,4.546-1.564A49.007,49.007,0,0,1,155.738.51Q157.25.3,158.787.181C178.7-1.4,201.116,7.5,212.683,20.5c2.329,2.618,12.918,16.166,4.571,34.787-5.271,11.757,16.808,22.986,24.654,36.411,19.947,34.133.311,57.2.13,57.642" transform="translate(-26.088 0.001)" fill="#ebf3fa"/>
            <g id="Grupo_876618" data-name="Grupo 876618" transform="translate(117.546 8.816)" opacity="0.5">
              <g id="Grupo_876617" data-name="Grupo 876617">
                <g id="Grupo_876616" data-name="Grupo 876616" clip-path="url(#clip-path-3)">
                  <path id="Trazado_616100" data-name="Trazado 616100" d="M619.378,61.067l2.391.237a.533.533,0,0,1,.44.34q.135.358.3.71a8.92,8.92,0,0,0,.7,1.23.526.526,0,0,1,.005.592l-1.385,2.095a.516.516,0,0,0,.111.693l1.8,1.428a.51.51,0,0,0,.677-.04l1.625-1.645a.512.512,0,0,1,.607-.1,9.284,9.284,0,0,0,2.787.894.529.529,0,0,1,.441.47l.131,1.4a.534.534,0,0,0,.518.48l2.279.026a.471.471,0,0,0,.135-.015.513.513,0,0,0,.389-.452l.18-1.786.043-.435a9.212,9.212,0,0,0,1.209-.473,9.331,9.331,0,0,0,1.49-.884.512.512,0,0,1,.588-.015l1.686,1.118a.531.531,0,0,0,.709-.113l1.091-1.375.312-.395a.538.538,0,0,0-.042-.717l-1.374-1.359a.512.512,0,0,1-.108-.593,9.212,9.212,0,0,0,.652-1.86,1.6,1.6,0,0,0,.04-.161.271.271,0,0,1,.015-.054.524.524,0,0,1,.455-.361l2.274-.218a.375.375,0,0,0,.075-.013.533.533,0,0,0,.4-.5l.03-2.272a.53.53,0,0,0-.477-.534l-2.494-.247a.512.512,0,0,1-.446-.371,9.369,9.369,0,0,0-.513-1.33q-.165-.348-.356-.676a.54.54,0,0,1,.017-.568l1.331-2.014a.515.515,0,0,0-.109-.688l-1.781-1.409a.539.539,0,0,0-.72.043l-1.286,1.3a.529.529,0,0,1-.648.084,9.261,9.261,0,0,0-2.641-1.082.526.526,0,0,1-.407-.466l-.2-2.049a.544.544,0,0,0-.532-.49l-2.264-.031a.52.52,0,0,0-.526.47l-.012.1-.207,2.075a.531.531,0,0,1-.393.462h0a9.2,9.2,0,0,0-1.53.567c-.267.127-.524.266-.775.415a.522.522,0,0,1-.559-.01l-1.711-1.135a.54.54,0,0,0-.721.113l-1.4,1.773a.586.586,0,0,0-.088.164.538.538,0,0,0,.13.542l1.1,1.082a.537.537,0,0,1,.14.508.577.577,0,0,1-.057.137,9.225,9.225,0,0,0-1.217,3.439.52.52,0,0,1-.377.429.528.528,0,0,1-.088.016l-1.841.175a.528.528,0,0,0-.477.517v.053l-.031,2.215a.538.538,0,0,0,.485.539m16.358-3.429a6.194,6.194,0,0,1,.086,1.146,4.853,4.853,0,0,1-.887,2.491c-.051.065-.1.127-.154.189a5.013,5.013,0,0,1-8.307-5.569,3.254,3.254,0,0,1,.273-.4A5.7,5.7,0,0,1,628.19,54.2a4.977,4.977,0,0,1,7.546,3.44" transform="translate(-618.893 -46.416)" fill="#739af0"/>
                </g>
              </g>
            </g>
            <path id="Trazado_616101" data-name="Trazado 616101" d="M764.159,56.222l1.524.373a.347.347,0,0,1,.253.26q.055.244.13.487a5.854,5.854,0,0,0,.342.86.343.343,0,0,1-.051.383l-1.088,1.227a.337.337,0,0,0,.008.458l1.031,1.088a.333.333,0,0,0,.442.036l1.2-.914a.335.335,0,0,1,.4-.007,6.059,6.059,0,0,0,1.719.834.345.345,0,0,1,.242.344l-.044.918a.349.349,0,0,0,.291.358l1.471.226a.3.3,0,0,0,.089,0,.334.334,0,0,0,.293-.256l.28-1.138.068-.277a6,6,0,0,0,.825-.195,6.093,6.093,0,0,0,1.044-.435.334.334,0,0,1,.381.044l.987.877a.347.347,0,0,0,.469-.008l.832-.788.238-.227a.351.351,0,0,0,.039-.468l-.763-1a.334.334,0,0,1-.015-.393,6.031,6.031,0,0,0,.593-1.142,1.049,1.049,0,0,0,.04-.1.177.177,0,0,1,.015-.033.342.342,0,0,1,.328-.192l1.49.068a.241.241,0,0,0,.05,0,.348.348,0,0,0,.306-.289l.228-1.466a.346.346,0,0,0-.259-.389L778,54.954a.334.334,0,0,1-.254-.281,6.09,6.09,0,0,0-.209-.907q-.075-.24-.168-.47a.353.353,0,0,1,.064-.366l1.045-1.179a.336.336,0,0,0-.007-.455l-1.022-1.075a.351.351,0,0,0-.469-.038l-.951.723a.345.345,0,0,1-.427-.005,6.049,6.049,0,0,0-1.608-.942.343.343,0,0,1-.22-.338l.062-1.343a.355.355,0,0,0-.3-.366l-1.461-.228a.339.339,0,0,0-.383.256l-.017.066-.325,1.322a.347.347,0,0,1-.3.263h0a6.016,6.016,0,0,0-1.041.226c-.185.058-.363.124-.539.2a.34.34,0,0,1-.36-.058l-1-.891a.352.352,0,0,0-.477.007l-1.071,1.017a.378.378,0,0,0-.072.1.351.351,0,0,0,.034.362l.612.8a.351.351,0,0,1,.044.341.37.37,0,0,1-.049.083,6.029,6.029,0,0,0-1.1,2.112.339.339,0,0,1-.283.242.351.351,0,0,1-.059,0l-1.206-.056a.345.345,0,0,0-.356.29l-.006.034L763.9,55.83a.351.351,0,0,0,.264.393m10.889-.714a4.023,4.023,0,0,1-.05.749,3.166,3.166,0,0,1-.8,1.529c-.039.037-.078.073-.117.108a3.273,3.273,0,0,1-4.859-4.363,2.14,2.14,0,0,1,.213-.235,3.722,3.722,0,0,1,1.052-.7,3.25,3.25,0,0,1,4.562,2.917" transform="translate(-618.806 -38.625)" fill="#dfebfd"/>
            <path id="Trazado_616102" data-name="Trazado 616102" d="M700.276,163.166l3.769.438a.84.84,0,0,1,.686.548q.2.569.459,1.129a14.075,14.075,0,0,0,1.078,1.961.83.83,0,0,1-.007.935l-2.242,3.271a.815.815,0,0,0,.158,1.1l2.8,2.3a.806.806,0,0,0,1.071-.046l2.609-2.555a.809.809,0,0,1,.961-.137A14.659,14.659,0,0,0,716,173.592a.835.835,0,0,1,.684.753l.17,2.215a.843.843,0,0,0,.805.771l3.6.1a.742.742,0,0,0,.214-.02.809.809,0,0,0,.626-.7l.33-2.815.079-.686a14.515,14.515,0,0,0,1.922-.715,14.709,14.709,0,0,0,2.375-1.357.809.809,0,0,1,.929-.008l2.633,1.809a.838.838,0,0,0,1.123-.16l1.76-2.141.5-.615a.849.849,0,0,0-.047-1.134l-2.133-2.182a.807.807,0,0,1-.154-.94,14.545,14.545,0,0,0,1.079-2.919,2.559,2.559,0,0,0,.067-.253.46.46,0,0,1,.025-.084.827.827,0,0,1,.728-.558l3.6-.284a.59.59,0,0,0,.119-.018.841.841,0,0,0,.648-.786l.107-3.587a.837.837,0,0,0-.739-.856l-3.931-.455a.809.809,0,0,1-.695-.6,14.816,14.816,0,0,0-.774-2.113q-.252-.554-.544-1.076a.853.853,0,0,1,.042-.9l2.154-3.144a.814.814,0,0,0-.154-1.09l-2.775-2.272a.851.851,0,0,0-1.138.049l-2.065,2.021a.835.835,0,0,1-1.025.116,14.622,14.622,0,0,0-4.142-1.778.83.83,0,0,1-.63-.746l-.255-3.241a.859.859,0,0,0-.827-.788l-3.574-.108a.821.821,0,0,0-.842.729l-.021.164-.382,3.271a.839.839,0,0,1-.633.72l0,0a14.558,14.558,0,0,0-2.431.855c-.426.194-.834.406-1.235.634a.823.823,0,0,1-.883-.031l-2.672-1.837a.852.852,0,0,0-1.142.16l-2.264,2.762a.919.919,0,0,0-.143.256.848.848,0,0,0,.19.859l1.709,1.738a.848.848,0,0,1,.207.806.9.9,0,0,1-.093.215,14.572,14.572,0,0,0-2.012,5.4.82.82,0,0,1-.606.667.852.852,0,0,1-.14.023l-2.912.228a.834.834,0,0,0-.767.8l0,.083-.107,3.5a.849.849,0,0,0,.752.863m25.918-4.984a9.756,9.756,0,0,1,.105,1.812,7.662,7.662,0,0,1-1.466,3.909c-.082.1-.165.2-.248.295a7.916,7.916,0,0,1-12.97-9.011,5.171,5.171,0,0,1,.442-.628,9,9,0,0,1,2.312-2.006,7.86,7.86,0,0,1,11.824,5.63" transform="translate(-566.664 -113.653)" fill="#cddff9"/>
            <path id="Trazado_616103" data-name="Trazado 616103" d="M411.493,188.8s1.827-19.1-11.592-25.824a3.665,3.665,0,0,0-4.56,1.441c-1.935,2.707,3.5,4.576,6.458,6.931s9.058,10.161,9.693,17.451" transform="translate(-319.925 -131.785)" fill="#cddff9"/>
            <path id="Trazado_616104" data-name="Trazado 616104" d="M453.994,170.7s4.666-13.6-3.935-20.834a2.745,2.745,0,0,0-3.573.254c-1.882,1.634,1.753,3.945,3.494,6.176s4.824,8.983,4.014,14.4" transform="translate(-361.259 -120.963)" fill="#cddff9"/>
            <path id="Trazado_616105" data-name="Trazado 616105" d="M712.676,522.488c6.357-7.856-5.765-19.43-5.765-19.43s-20.389.926-22.625-1.475,17.274-4.2,17.274-4.2c-3.2-5.469-18.872-13.976-18.872-13.976s-15.546,12.487-17.123,9.61,14.33-10.353,14.33-10.353c-5.057-3.877-14.158-4.329-14.158-4.329-13.559,1.011-11.541,18.378-11.541,18.378a32.386,32.386,0,0,1-14.407,5.389h0a23.511,23.511,0,0,0-4.341.737l.975,1.349c.441-.151.878-.282,1.31-.39a.01.01,0,0,1,.008,0l.019,0c.275-.058.667-.139,1.148-.234h0c1.1-.17,1.9-.322,2.457-.456l.005,0c3.421-.592,8-1.194,9.55-.508a3.216,3.216,0,0,1,.409-.735l-.409.735c-3.273,5.879,4.244,18.018,10.208,23.5s5.751,1.367,6.19-4.221-5.579-12.284-5.975-15.261,3.021-.677,5.789,3.849.035,9.764,4.38,17.167,21.171,3.279,21.171,3.279c-4.938-3.712-8.5-14.191-7.089-15.711s10.419,11.3,12.343,12.92,8.38,2.229,14.737-5.627" transform="translate(-514.758 -387.488)" fill="#dfebfd"/>
            <path id="Trazado_616106" data-name="Trazado 616106" d="M271.015,575.786c-4.135-5.109,3.749-12.636,3.749-12.636s13.26.6,14.714-.959-11.234-2.73-11.234-2.73c2.081-3.557,12.273-9.089,12.273-9.089s10.11,8.121,11.136,6.25-9.32-6.733-9.32-6.733c3.289-2.521,9.208-2.815,9.208-2.815,8.818.657,7.506,11.952,7.506,11.952a21.064,21.064,0,0,0,9.37,3.5h0a15.285,15.285,0,0,1,2.823.48l-.634.877q-.43-.147-.852-.253h-.005l-.012,0c-.179-.038-.434-.091-.746-.153h0c-.718-.111-1.236-.209-1.6-.3h0c-2.225-.385-5.2-.777-6.211-.33a2.094,2.094,0,0,0-.266-.478l.266.478c2.129,3.823-2.76,11.718-6.639,15.282s-3.74.889-4.025-2.745,3.628-7.989,3.886-9.925-1.965-.44-3.765,2.5-.023,6.35-2.849,11.164-13.768,2.132-13.768,2.132c3.211-2.414,5.527-9.229,4.611-10.218s-6.776,7.347-8.027,8.4-5.449,1.45-9.584-3.659" transform="translate(-218.57 -443.169)" fill="#dfebfd"/>
            <path id="Trazado_616107" data-name="Trazado 616107" d="M248.809,216.836c2.538-6.063,12.9-2.69,12.9-2.69s5.756,11.961,7.821,12.5-2.923-11.185-2.923-11.185c4.118.146,13.821,6.5,13.821,6.5s-2.357,12.752-.223,12.768,1.51-11.4,1.51-11.4c3.779,1.7,6.844,6.772,6.844,6.772,3.6,8.076-6.965,12.275-6.965,12.275a21.06,21.06,0,0,0,1.356,9.911h0a15.274,15.274,0,0,1,.916,2.713l-1.073-.142q-.074-.448-.181-.87a.007.007,0,0,0,0-.005l0-.012c-.052-.175-.126-.425-.22-.729h0v0c-.243-.684-.4-1.187-.5-1.547v0c-.715-2.142-1.783-4.95-2.654-5.625a2.093,2.093,0,0,0,.295-.461l-.295.461c-2.357,3.687-11.626,3.125-16.6,1.4s-2.556-2.872.509-4.845,8.754-.593,10.581-1.284-.544-1.938-3.989-2.128-5.6,2.99-11.18,2.785-8.4-11.112-8.4-11.112c3.648,1.683,10.746.491,11.182-.785s-9.682-2.483-11.2-3.084-3.86-4.111-1.322-10.173" transform="translate(-200.642 -172.716)" fill="#cddff9"/>
            <path id="Trazado_616108" data-name="Trazado 616108" d="M878.158,769.352a7.262,7.262,0,0,1,.19-1.779c.19-.444.888-2.251.888-2.251h2.727a16.707,16.707,0,0,1,.539,2.188c.032.539,0,1.842,0,1.842Z" transform="translate(-711.37 -619.965)" fill="#233862"/>
            <path id="Trazado_616109" data-name="Trazado 616109" d="M950.732,769.352a7.262,7.262,0,0,0-.19-1.779c-.19-.444-.888-2.251-.888-2.251h-2.727a16.72,16.72,0,0,0-.539,2.188c-.032.539,0,1.842,0,1.842Z" transform="translate(-766.63 -619.965)" fill="#233862"/>
            <path id="Trazado_616110" data-name="Trazado 616110" d="M896.922,385.4a25.537,25.537,0,0,1-.477,4.3l-3.011,2.1,11.336,1.7-2.7-3.735s-.816-3.986-.388-5.46-4.756,1.094-4.756,1.094" transform="translate(-723.745 -310.948)" fill="#ffb27d"/>
            <path id="Trazado_616111" data-name="Trazado 616111" d="M911.712,394.177s.9,2.158,2.585,2.11,2.073-1.957,2.073-1.957Z" transform="translate(-738.552 -319.311)" fill="#ed985f"/>
            <path id="Trazado_616112" data-name="Trazado 616112" d="M901.576,348.347a27.116,27.116,0,0,0-.926-3.547c-.381-.824-.7-4.5,3.52-4.693a4.856,4.856,0,0,0,2.5-.349s0,.539-.222.729a2.8,2.8,0,0,1,2.6.92c1.142,1.268-.761,5.708-.666,6.754Z" transform="translate(-729.423 -275.229)" fill="#2c3a64"/>
            <path id="Trazado_616113" data-name="Trazado 616113" d="M909.48,366.113a4.164,4.164,0,0,1-3.475-3.668V359.3a1.256,1.256,0,0,1,1.141-1.34h4.668a1.256,1.256,0,0,1,1.142,1.34v2.97a4.058,4.058,0,0,1-3.475,3.846" transform="translate(-733.929 -289.971)" fill="#ffb27d"/>
            <path id="Trazado_616114" data-name="Trazado 616114" d="M905.341,357.936s.006-1.891,1.5-2.182,4.852.922,5.327-.457-6.481-1.356-6.832-.476a8.9,8.9,0,0,0,0,3.115" transform="translate(-733.265 -286.929)" fill="#2c3a64"/>
            <path id="Trazado_616115" data-name="Trazado 616115" d="M877.6,543.114s.477,14.569-.236,22.882a166.16,166.16,0,0,0,.005,19.882,5.4,5.4,0,0,0,4.755,0s2.713-16.06,2.7-19.882c-.018-4.07,2.952-22.247,2.952-22.247Z" transform="translate(-710.473 -439.961)" fill="#739af0"/>
            <path id="Trazado_616116" data-name="Trazado 616116" d="M924.434,585.772a5.393,5.393,0,0,1-4.755,0s-2.712-16.059-2.695-19.882c.008-1.719-.518-5.955-1.127-10.274-.834-5.908-1.825-11.973-1.825-11.973l10.566-.66s-.871,14.594-.158,22.907a166.164,166.164,0,0,1-.005,19.882" transform="translate(-740.431 -439.856)" fill="#739af0"/>
            <path id="Trazado_616117" data-name="Trazado 616117" d="M894.82,441.5a52.872,52.872,0,0,1-8.614.872,41.661,41.661,0,0,1-5.29-.4c-1.714-.227-2.943-.468-2.943-.468s-.913.08-.374-4.422a63.3,63.3,0,0,0,.19-9.7c-.01-.354,0-.773.019-1.239.175-3.711,1.3-10.392,2.153-10.751a15.66,15.66,0,0,1,3.519-.7c0,.044,1.3,1.95,2.852,2.164a5.367,5.367,0,0,0,2.769-2.1,30.144,30.144,0,0,1,4.341.837s.162.708.772,12.987c.242,4.864,1.9,12.948.606,12.932" transform="translate(-710.78 -335.919)" fill="#f99746"/>
            <path id="Trazado_616118" data-name="Trazado 616118" d="M924.771,598.179c.008-1.719-.518-5.955-1.127-10.274a20.338,20.338,0,0,1,2.174-5.063c1.95,5.47-1.046,15.336-1.046,15.336" transform="translate(-748.217 -472.144)" fill="#5c7de5"/>
            <path id="Trazado_616119" data-name="Trazado 616119" d="M835.782,432.184c-.2.639.361,1.5.913,2.711,1.136,2.486,3.022,6.157,3.022,6.157a10.9,10.9,0,0,1-.573,1.676,39.98,39.98,0,0,1-6.526-6.241c-1.836-2.288-1.987-4.6-1.647-5.6,4.078-11.993,11.473-12.914,11.473-12.914l-.587,9.506s-5.654,3.388-6.075,4.705" transform="translate(-673.028 -338.588)" fill="#f99746"/>
            <path id="Trazado_616120" data-name="Trazado 616120" d="M874.548,536.309s1.712-1.586,2.41-.7.824,2.283.285,2.188-1.649-.6-1.807-.349-.869.738-1.084.353.2-1.495.2-1.495" transform="translate(-708.237 -433.664)" fill="#ffb27d"/>
            <path id="Trazado_616121" data-name="Trazado 616121" d="M847.359,513.224a10.887,10.887,0,0,1-.573,1.676,39.963,39.963,0,0,1-6.526-6.241,8.142,8.142,0,0,0,4.076-1.592c1.136,2.486,3.022,6.157,3.022,6.157" transform="translate(-680.671 -410.76)" fill="#ffb27d"/>
            <path id="Trazado_616122" data-name="Trazado 616122" d="M972.226,433.017c.03.747-.119,2.347-1.955,4.635a39.985,39.985,0,0,1-6.526,6.241,10.878,10.878,0,0,1-.573-1.676s1.886-3.671,3.022-6.157c.552-1.21.946-1.774.819-2.228-.406-1.447-3.816-3.465-5.249-4.551a6.254,6.254,0,0,1-.733-.637l.134-9.232a7.44,7.44,0,0,1,3.036,1.622c4.71,4.712,7.883,8.5,8.023,11.984" transform="translate(-778.504 -339.754)" fill="#f99746"/>
            <path id="Trazado_616123" data-name="Trazado 616123" d="M961.362,536.309s-1.712-1.586-2.41-.7-.825,2.283-.286,2.188,1.649-.6,1.808-.349.869.738,1.084.353-.2-1.495-.2-1.495" transform="translate(-776.318 -433.664)" fill="#ffb27d"/>
            <path id="Trazado_616124" data-name="Trazado 616124" d="M972.3,513.224a10.887,10.887,0,0,0,.573,1.676,39.963,39.963,0,0,0,6.526-6.241,8.142,8.142,0,0,1-4.076-1.592c-1.136,2.486-3.022,6.157-3.022,6.157" transform="translate(-787.632 -410.76)" fill="#ffb27d"/>
            <path id="Trazado_616125" data-name="Trazado 616125" d="M907.365,410.863a1.2,1.2,0,0,0-.646.78s2.019,2.077,3.34,2.109Z" transform="translate(-734.507 -332.828)" fill="#2b478b"/>
            <path id="Trazado_616126" data-name="Trazado 616126" d="M924.3,413.3l2.606-2.994a1.224,1.224,0,0,1,.53.937s-2.016,2.137-3.136,2.057" transform="translate(-748.753 -332.38)" fill="#2b478b"/>
            <path id="Trazado_616127" data-name="Trazado 616127" d="M915.677,424.851s-1.989,17.171-1.3,19.264a14.331,14.331,0,0,0,1.213,2.66.705.705,0,0,0,1.22,0,8.454,8.454,0,0,0,1.218-2.918c0-1.091-1.509-19.018-1.509-19.018Z" transform="translate(-740.594 -344.147)" fill="#2b478b"/>
            <path id="Trazado_616128" data-name="Trazado 616128" d="M918.4,420.214a8.626,8.626,0,0,1,1.934-.067c.145.021.226.253.155.439-.205.538-.624,1.471-1.061,1.471-.615,0-1.573-1.78-1.028-1.842" transform="translate(-743.839 -340.32)" fill="#2b478b"/>
            <path id="Trazado_616129" data-name="Trazado 616129" d="M919.171,389.872a1.338,1.338,0,0,0,1.047.5,1.245,1.245,0,0,0,.979-.5,6.642,6.642,0,0,0-2.025,0" transform="translate(-744.594 -315.758)" fill="#fff"/>
            <path id="Trazado_616130" data-name="Trazado 616130" d="M240.8,396.029c-.192-.58,2.626,1.2,5.984.072,2.895-.97.285-2.86,1.022-5.257.525-1.707.359-6.292-4.115-6.476a3.312,3.312,0,0,0-2.63-.135c-3.534,1.173-10.883,12.633-.262,11.8" transform="translate(-190.595 -311.095)" fill="#163560"/>
            <path id="Trazado_616131" data-name="Trazado 616131" d="M290.157,461.963a11.718,11.718,0,0,0,1.2,1.809c.929,1.164,5.807-1.6,5.387-1.809s-2.8-6.953-3.8-8.148a4.281,4.281,0,0,0-2.227-1.359Z" transform="translate(-235.048 -366.522)" fill="#739af0"/>
            <path id="Trazado_616132" data-name="Trazado 616132" d="M198.721,750.79s-1.346,1.229-1.084,2.1,1.478,1.455,1.642,2.522.821,1.649,1.412,1.649h2.818s.435-.751-.616-.977-1.447-1.48-1.381-2.644a20.517,20.517,0,0,0-.1-2.716l-2.233-.517Z" transform="translate(-160.073 -607.722)" fill="#1a3054"/>
            <path id="Trazado_616133" data-name="Trazado 616133" d="M262.688,756.019s-.484,5.2.107,5.5l7.564-.016s0-.873-1.215-1.067-3.349-.905-3.711-2.49-2.745-1.924-2.745-1.924" transform="translate(-212.645 -612.429)" fill="#1a3054"/>
            <path id="Trazado_616134" data-name="Trazado 616134" d="M232.634,456.7a30.1,30.1,0,0,0,0,3.5c.075,1.264,1.354,2.957,1.535,3.376.455,1.051.969,1.221.969,1.221l3.972.974,1.4.342,4.4-1.315s2.006-5.6,1.2-8.75a24.23,24.23,0,0,0-2.036-5.34,31.435,31.435,0,0,0-8.273-.3Z" transform="translate(-188.41 -364.765)" fill="#739af0"/>
            <path id="Trazado_616135" data-name="Trazado 616135" d="M230.856,488.066c.075,1.264,1.732,2.913,1.913,3.332.455,1.051.969,1.221.969,1.221l3.972.973,1.059-1.494s-6.429-1.788-5.212-7.456Z" transform="translate(-187.01 -392.595)" fill="#5c7de5"/>
            <path id="Trazado_616136" data-name="Trazado 616136" d="M264.841,531.117s2.181,6.788,2.321,9.1-4.169,32.831-4.342,33.9c-.163,1-1.41,1.644-1.41,1.644a1.886,1.886,0,0,1-1.391.107,3.442,3.442,0,0,1-1.494-.7s-1.7-21.767-.647-29.543a123.191,123.191,0,0,0,1.063-14.5Z" transform="translate(-208.622 -430.243)" fill="#ed7d2b"/>
            <path id="Trazado_616137" data-name="Trazado 616137" d="M213.781,530.051s-3.327,4.463-3.637,7.481-.487,13.616-1.147,16.557-3.088,8.6-3.088,17.776a1.83,1.83,0,0,0,1.031.806,8.5,8.5,0,0,0,.907.251,1.426,1.426,0,0,0,1.6-.757c1.641-3.3,6.869-13.962,7.137-16.174.19-1.566,1.84-11.927,5.441-18.007.864-1.46-.53-7.265-.53-7.265Z" transform="translate(-166.801 -429.379)" fill="#f99746"/>
            <path id="Trazado_616138" data-name="Trazado 616138" d="M254.935,525.6a4.572,4.572,0,0,1-2.615.728c-2.077.042-7.225-.53-7.225-.53a4.26,4.26,0,0,0-.219,1.314s6.287,1.586,9.93.232a2.3,2.3,0,0,0,.13-1.743" transform="translate(-198.367 -425.773)" fill="#5c7de5"/>
            <path id="Trazado_616139" data-name="Trazado 616139" d="M281.706,528.631a.955.955,0,1,1,.948,1.073,1.017,1.017,0,0,1-.948-1.073m.314,0a.644.644,0,1,0,.634-.759.706.706,0,0,0-.634.759" transform="translate(-228.202 -427.359)" fill="#fff"/>
            <path id="Trazado_616140" data-name="Trazado 616140" d="M262.783,502.524l9.449.088,4.65-10.928-9.45-.088Z" transform="translate(-212.873 -398.228)" fill="#163560"/>
            <path id="Trazado_616141" data-name="Trazado 616141" d="M269.289,515.755l.693-.851a2.435,2.435,0,0,1,.809-.489c.34-.071,1.058-.485,1.128-.368s-.552.949-.552.949l-.032,0c.714.536,2.515.063,2.737.282.27.266-.371.839-.714,1.161a2.522,2.522,0,0,1-2.092.62c-.56-.174-1.441-.352-1.441-.352Z" transform="translate(-218.143 -416.397)" fill="#ffb27d"/>
            <path id="Trazado_616142" data-name="Trazado 616142" d="M328.54,500.31s-.594-.675-.972-.351.1,1.917.459,1.755.72-1.206.513-1.4" transform="translate(-265.241 -404.931)" fill="#ffb27d"/>
            <path id="Trazado_616143" data-name="Trazado 616143" d="M218.067,450.885a5.374,5.374,0,0,0-4.359,3.157c-1.208,2.936-3.428,7.768-2.951,9.794.19.807,2.486,3.6,12.059,1.827a2.239,2.239,0,0,0-.725-1.471s-6.745-2.166-6.734-2.6c.022-.815.911-1.519,4.679-5.288,1.024-1.025-1.97-5.422-1.97-5.422" transform="translate(-170.675 -365.249)" fill="#739af0"/>
            <path id="Trazado_616144" data-name="Trazado 616144" d="M260.347,434c-.093-.125.027-.522.175-1.262a13.815,13.815,0,0,0,.358-2.874l.2.033,3.353.564s-.076.9-.079,1.741v.021c0,.733.2,1.842-.05,1.986-1.27.745-3.6.27-3.957-.21" transform="translate(-210.873 -348.219)" fill="#ffb27d"/>
            <path id="Trazado_616145" data-name="Trazado 616145" d="M267.7,430.6s-.067,1.264-.069,2.108c-1.876-.045-2.877-1.866-3.284-2.672Z" transform="translate(-214.137 -348.361)" fill="#e8945b"/>
            <path id="Trazado_616146" data-name="Trazado 616146" d="M266.032,407.881s-4.4-.626-3.963-3.357.156-4.651,2.98-4.367,3.2,1.413,3.281,2.359-1.144,5.457-2.3,5.365" transform="translate(-212.27 -324.133)" fill="#ffb27d"/>
            <path id="Trazado_616147" data-name="Trazado 616147" d="M261.73,398.37s-1.71,3.012-3.628,3.193a3.674,3.674,0,0,1-2.638-.44,5.282,5.282,0,0,0,2.2-2.81s3.406-1.611,4.069.058" transform="translate(-206.944 -322.095)" fill="#163560"/>
            <path id="Trazado_616148" data-name="Trazado 616148" d="M286.67,400.98a2.753,2.753,0,0,1,1.1,1.182,4.47,4.47,0,0,1,.193,2.6s1.251-2.033.431-3.427c-.87-1.478-1.724-.356-1.724-.356" transform="translate(-232.223 -324.493)" fill="#163560"/>
            <rect id="Rectángulo_325485" data-name="Rectángulo 325485" width="80.054" height="107.552" transform="translate(75.009 41.618)" fill="#23569e"/>
            <g id="Grupo_876621" data-name="Grupo 876621" transform="translate(77.96 44.159)" opacity="0.9">
              <g id="Grupo_876620" data-name="Grupo 876620">
                <g id="Grupo_876619" data-name="Grupo 876619" clip-path="url(#clip-path-4)">
                  <rect id="Rectángulo_325486" data-name="Rectángulo 325486" width="74.152" height="102.469" fill="#ebf2ff"/>
                </g>
              </g>
            </g>
            <path id="Trazado_616149" data-name="Trazado 616149" d="M510.107,210.074a1.507,1.507,0,0,0-1.507,1.507V214.5a4.591,4.591,0,0,0,4.743,4.422h25.479a4.591,4.591,0,0,0,4.743-4.422V211.43a1.355,1.355,0,0,0-1.356-1.356Z" transform="translate(-412.002 -170.175)" fill="#f77d48"/>
            <path id="Trazado_616150" data-name="Trazado 616150" d="M458.258,556.18H443.284V541.206h14.974Zm-14.269-.705h13.563V541.911H443.989Z" transform="translate(-359.092 -438.415)" fill="#94b5ff"/>
            <path id="Trazado_616151" data-name="Trazado 616151" d="M460.442,542.22a1.058,1.058,0,0,1-.815-.384l-4.621-5.59a1.058,1.058,0,1,1,1.631-1.348l3.664,4.433,6.629-11.127a1.058,1.058,0,1,1,1.818,1.083l-7.4,12.416a1.057,1.057,0,0,1-.828.513c-.027,0-.054,0-.081,0" transform="translate(-368.391 -427.465)" fill="#f99746"/>
            <rect id="Rectángulo_325488" data-name="Rectángulo 325488" width="36.443" height="1.229" transform="translate(105.196 110.77)" fill="#94b5ff"/>
            <rect id="Rectángulo_325489" data-name="Rectángulo 325489" width="36.443" height="1.229" transform="translate(105.196 116.262)" fill="#94b5ff"/>
            <rect id="Rectángulo_325490" data-name="Rectángulo 325490" width="10.15" height="1.23" transform="translate(131.489 113.516)" fill="#94b5ff"/>
            <rect id="Rectángulo_325491" data-name="Rectángulo 325491" width="22.553" height="1.23" transform="translate(105.196 113.516)" fill="#94b5ff"/>
            <rect id="Rectángulo_325492" data-name="Rectángulo 325492" width="36.443" height="1.23" transform="translate(105.196 130.496)" fill="#94b5ff"/>
            <rect id="Rectángulo_325493" data-name="Rectángulo 325493" width="36.443" height="1.23" transform="translate(105.196 135.987)" fill="#94b5ff"/>
            <rect id="Rectángulo_325494" data-name="Rectángulo 325494" width="10.15" height="1.23" transform="translate(131.489 133.241)" fill="#94b5ff"/>
            <rect id="Rectángulo_325495" data-name="Rectángulo 325495" width="22.553" height="1.23" transform="translate(105.196 133.241)" fill="#94b5ff"/>
            <rect id="Rectángulo_325496" data-name="Rectángulo 325496" width="28.177" height="1.229" transform="translate(118.383 71.251)" fill="#94b5ff"/>
            <rect id="Rectángulo_325497" data-name="Rectángulo 325497" width="28.177" height="1.229" transform="translate(118.383 76.743)" fill="#94b5ff"/>
            <rect id="Rectángulo_325498" data-name="Rectángulo 325498" width="7.848" height="1.229" transform="translate(139.199 73.997)" fill="#94b5ff"/>
            <rect id="Rectángulo_325499" data-name="Rectángulo 325499" width="17.437" height="1.229" transform="translate(118.383 73.997)" fill="#94b5ff"/>
            <rect id="Rectángulo_325500" data-name="Rectángulo 325500" width="28.177" height="1.229" transform="translate(118.383 55.788)" fill="#94b5ff"/>
            <rect id="Rectángulo_325501" data-name="Rectángulo 325501" width="28.177" height="1.229" transform="translate(118.383 61.28)" fill="#94b5ff"/>
            <rect id="Rectángulo_325502" data-name="Rectángulo 325502" width="7.848" height="1.229" transform="translate(139.199 58.534)" fill="#94b5ff"/>
            <rect id="Rectángulo_325503" data-name="Rectángulo 325503" width="17.437" height="1.229" transform="translate(118.383 58.534)" fill="#94b5ff"/>
            <g id="Grupo_876624" data-name="Grupo 876624" transform="translate(118.383 84.193)" opacity="0.3">
              <g id="Grupo_876623" data-name="Grupo 876623">
                <g id="Grupo_876622" data-name="Grupo 876622" clip-path="url(#clip-path-5)">
                  <path id="Trazado_616152" data-name="Trazado 616152" d="M647.781,456.6h-20.3a4.184,4.184,0,0,1-4.184-4.184v-4.946a4.184,4.184,0,0,1,4.184-4.184h20.3a4.184,4.184,0,0,1,4.184,4.184v4.946a4.184,4.184,0,0,1-4.184,4.184" transform="translate(-623.301 -443.288)" fill="#f99746"/>
                </g>
              </g>
            </g>
            <g id="Grupo_876627" data-name="Grupo 876627" transform="translate(120.69 87.49)" opacity="0.5">
              <g id="Grupo_876626" data-name="Grupo 876626">
                <g id="Grupo_876625" data-name="Grupo 876625" clip-path="url(#clip-path-6)">
                  <rect id="Rectángulo_325505" data-name="Rectángulo 325505" width="23.641" height="1.229" fill="#f99746"/>
                  <rect id="Rectángulo_325506" data-name="Rectángulo 325506" width="23.641" height="1.229" transform="translate(0 5.492)" fill="#f99746"/>
                  <rect id="Rectángulo_325507" data-name="Rectángulo 325507" width="6.584" height="1.23" transform="translate(17.465 2.746)" fill="#f99746"/>
                  <rect id="Rectángulo_325508" data-name="Rectángulo 325508" width="14.63" height="1.23" transform="translate(0 2.746)" fill="#f99746"/>
                </g>
              </g>
            </g>
            <path id="Trazado_616153" data-name="Trazado 616153" d="M458.258,684.152H443.284V669.178h14.974Zm-14.269-.705h13.563V669.883H443.989Z" transform="translate(-359.092 -542.082)" fill="#94b5ff"/>
            <path id="Trazado_616154" data-name="Trazado 616154" d="M460.442,670.192a1.059,1.059,0,0,1-.815-.384l-4.621-5.59a1.058,1.058,0,1,1,1.631-1.348L460.3,667.3l6.629-11.127a1.058,1.058,0,0,1,1.818,1.083l-7.4,12.416a1.058,1.058,0,0,1-.828.513c-.027,0-.054,0-.081,0" transform="translate(-368.391 -531.132)" fill="#f99746"/>
            <path id="Trazado_616155" data-name="Trazado 616155" d="M369.311,398.895s-17.224,6.333-25.589,23.205l5.688-.975,2.407,4.049s6.659-15.179,20.356-19.729Z" transform="translate(-278.439 -323.133)" fill="#739af0"/>
            <path id="Trazado_616156" data-name="Trazado 616156" d="M438.908,403.646s17.753,4.647,27.7,20.636l-5.755-.424-2.007,4.262s-8.089-14.468-22.159-17.679Z" transform="translate(-353.749 -326.982)" fill="#739af0"/>
            <path id="Trazado_616157" data-name="Trazado 616157" d="M357.268,284.256A22.042,22.042,0,1,1,379.31,306.3a22.042,22.042,0,0,1-22.042-22.042" transform="translate(-289.413 -212.412)" fill="#f77d48"/>
            <g id="Grupo_876630" data-name="Grupo 876630" transform="translate(70.12 52.067)" opacity="0.9">
              <g id="Grupo_876629" data-name="Grupo 876629">
                <g id="Grupo_876628" data-name="Grupo 876628" clip-path="url(#clip-path-7)">
                  <path id="Trazado_616158" data-name="Trazado 616158" d="M388.967,313.691a19.777,19.777,0,1,1,19.778-19.777,19.8,19.8,0,0,1-19.778,19.777m0-38.95a19.173,19.173,0,1,0,19.174,19.173,19.195,19.195,0,0,0-19.174-19.173" transform="translate(-369.19 -274.137)" fill="#ebf2ff"/>
                </g>
              </g>
            </g>
            <g id="Grupo_876633" data-name="Grupo 876633" transform="translate(76.958 61.26)" opacity="0.9">
              <g id="Grupo_876632" data-name="Grupo 876632">
                <g id="Grupo_876631" data-name="Grupo 876631" clip-path="url(#clip-path-8)">
                  <rect id="Rectángulo_325511" data-name="Rectángulo 325511" width="1.66" height="7.544" transform="translate(4.22 0.129)" fill="#ebf2ff"/>
                  <path id="Trazado_616159" data-name="Trazado 616159" d="M443.357,329.21l.981-1.175a3.461,3.461,0,0,0,2.252.916c.679,0,1.089-.27,1.089-.733,0-.42-.259-.636-1.52-.959-1.52-.388-2.5-.808-2.5-2.328a2.36,2.36,0,0,1,2.64-2.274,4.367,4.367,0,0,1,2.8.959l-.862,1.25a3.54,3.54,0,0,0-1.961-.744c-.636,0-.97.291-.97.679,0,.5.323.657,1.627.991,1.53.4,2.393.948,2.393,2.285,0,1.5-1.142,2.339-2.77,2.339a4.8,4.8,0,0,1-3.2-1.207" transform="translate(-436.109 -322.636)" fill="#ebf2ff"/>
                  <path id="Trazado_616160" data-name="Trazado 616160" d="M480.642,326.445a4.011,4.011,0,1,1,4,3.9,3.9,3.9,0,0,1-4-3.9m6.283,0a2.292,2.292,0,0,0-2.285-2.371,2.262,2.262,0,0,0-2.263,2.371,2.292,2.292,0,0,0,2.285,2.371,2.262,2.262,0,0,0,2.263-2.371" transform="translate(-466.312 -322.543)" fill="#ebf2ff"/>
                  <path id="Trazado_616161" data-name="Trazado 616161" d="M405.365,390.544l.873-1.261a2.441,2.441,0,0,0,1.649.647c.927,0,1.423-.7,1.53-1.714a2.293,2.293,0,0,1-1.53.517,2.39,2.39,0,0,1-2.694-2.457,2.662,2.662,0,0,1,2.878-2.641,2.731,2.731,0,0,1,2.177.819,3.767,3.767,0,0,1,.895,2.867c0,2.446-1.153,4.117-3.3,4.117a3.644,3.644,0,0,1-2.479-.895m4.085-4.332a1.174,1.174,0,0,0-1.326-1.153,1.139,1.139,0,0,0-1.282,1.164c0,.668.5,1.132,1.315,1.132a1.144,1.144,0,0,0,1.293-1.142" transform="translate(-405.193 -372.033)" fill="#ebf2ff"/>
                  <path id="Trazado_616162" data-name="Trazado 616162" d="M442.647,387.537c0-2.188,1.358-3.9,3.362-3.9s3.341,1.692,3.341,3.9c0,2.188-1.347,3.9-3.363,3.9s-3.341-1.692-3.341-3.9m5,0c0-1.369-.668-2.4-1.66-2.4s-1.638,1-1.638,2.4c0,1.379.658,2.4,1.66,2.4s1.638-1.013,1.638-2.4" transform="translate(-435.533 -372.033)" fill="#ebf2ff"/>
                  <path id="Trazado_616163" data-name="Trazado 616163" d="M484.074,387.537c0-2.188,1.358-3.9,3.363-3.9s3.341,1.692,3.341,3.9c0,2.188-1.347,3.9-3.363,3.9s-3.341-1.692-3.341-3.9m5,0c0-1.369-.668-2.4-1.66-2.4s-1.638,1-1.638,2.4c0,1.379.657,2.4,1.66,2.4s1.638-1.013,1.638-2.4" transform="translate(-469.092 -372.033)" fill="#ebf2ff"/>
                  <path id="Trazado_616164" data-name="Trazado 616164" d="M525.175,385.715l-1.315.323-.345-1.358,2.166-.647h1.132v7.6h-1.638Z" transform="translate(-501.043 -372.355)" fill="#ebf2ff"/>
                </g>
              </g>
            </g>
            <path id="Trazado_616165" data-name="Trazado 616165" d="M108.029,739.308h9.71c.52-.441-.36-1.444-1.28-1.511a5.671,5.671,0,0,0-1.482.175c-.134-1.775-.9-9.753-3.773-9.433-3.234.359,0,3.514.914,5.381a44.431,44.431,0,0,1,1.718,4.3c-.262.057-.534.113-.812.164-.429-1.316-2.023-5.742-4.051-5.485-2.381.3-1.424,2.077.263,3.13,1.238.775,2.759,1.876,3.481,2.408a10.307,10.307,0,0,1-1.9.152,4.092,4.092,0,0,0-2.79.714" transform="translate(-87.12 -590.162)" fill="#a8d29f"/>
            <path id="Trazado_616166" data-name="Trazado 616166" d="M1054.264,738.847h-9.71c-.52-.441.36-1.444,1.28-1.511a5.663,5.663,0,0,1,1.482.175c.134-1.775.9-9.753,3.773-9.433,3.234.359,0,3.514-.914,5.381a44.456,44.456,0,0,0-1.718,4.3c.262.057.534.112.812.164.429-1.316,2.023-5.742,4.051-5.485,2.381.3,1.424,2.077-.264,3.13-1.238.775-2.759,1.876-3.481,2.408a10.313,10.313,0,0,0,1.9.152,4.092,4.092,0,0,1,2.79.714" transform="translate(-846.037 -589.788)" fill="#a8d29f"/>
            <path id="Trazado_616167" data-name="Trazado 616167" d="M232.51,785.208H.331a.331.331,0,1,1,0-.661H232.51a.331.331,0,1,1,0,.661" transform="translate(0 -635.539)" fill="#233862"/>
          </g>
        </g>
      </g>
    </g>
  </g>
</svg>
