<svg xmlns="http://www.w3.org/2000/svg" xmlns:xlink="http://www.w3.org/1999/xlink" width="85" height="85" viewBox="0 0 85 85">
  <defs>
    <clipPath id="clip-path">
      <rect id="Rectángulo_326164" data-name="Rectángulo 326164" width="56.763" height="52.317" fill="none"/>
    </clipPath>
  </defs>
  <g id="Grupo_877365" data-name="Grupo 877365" transform="translate(-284.615 -9203.631)">
    <circle id="Elipse_5179" data-name="Elipse 5179" cx="42.5" cy="42.5" r="42.5" transform="translate(284.615 9203.631)" fill="#a3314f"/>
    <g id="Grupo_877327" data-name="Grupo 877327" transform="translate(298.615 9219.631)">
      <g id="Grupo_877326" data-name="Grupo 877326" transform="translate(0 0)" clip-path="url(#clip-path)">
        <path id="Trazado_616862" data-name="Trazado 616862" d="M3.475,30.008l-.545.553a3,3,0,0,0,.426,1.8c.289.5.482,1.053.736,1.574a2.36,2.36,0,0,0,2.286,1.381c.662,0,1.326,0,2.079,0a2.224,2.224,0,0,0,1.067,2.037,5.591,5.591,0,0,0,1.419,2.775,7.163,7.163,0,0,0,3.451,2.108c.1.027.187.165.264.152a17.019,17.019,0,0,1,2.569.249c2.731-.052,5.465-.021,8.2-.014a1.214,1.214,0,0,1,.771.088,1.6,1.6,0,0,1-.472,1.092,24.281,24.281,0,0,0-1.508,2.71c-.458.718-.771,1.528-1.207,2.261a13.509,13.509,0,0,1-1.222,2.161,7.738,7.738,0,0,0-.693,1.472c-.582,1.091-1.2,2.165-1.8,3.245H17.989a2.059,2.059,0,0,0-1.279,1.239,1.972,1.972,0,0,0,.475,1.856,2.119,2.119,0,0,0,1.6.7c4.061-.024,8.123-.011,12.186-.011h9a2.534,2.534,0,0,0,1.5-1.621v-.9a2.353,2.353,0,0,0-1.2-1.23H39.156a11.393,11.393,0,0,1-1-1.556c-.781-1.451-1.594-2.886-2.379-4.33-.618-1.137-1.294-2.252-1.844-3.434-.492-1.056-1.141-2.039-1.755-3.113,0-.182-.041-.458.281-.58a.838.838,0,0,1,.2-.05c2.547,0,5.1-.05,7.643.021a24.154,24.154,0,0,0,3.117-.285,5.972,5.972,0,0,0,2.339-1.007,6.12,6.12,0,0,0,2.822-3.905c1.037-1.081,1.064-1.129,1.16-2.1h2.718c.128-.312.441-.3.642-.4a1.632,1.632,0,0,0,.848-.869,11.05,11.05,0,0,0,1.094-2.426c.021-.116.2-.188.191-.363-.015-.252,0-.505,0-.722l-.506-.506a.917.917,0,0,0-.2-.045q-7.145,0-14.29,0c-.459,0-.943-.108-1.317.335-.421.438-.229.9,0,1.444.252.6.566,1.168.794,1.773a3.3,3.3,0,0,0,1.04,1.334,2.043,2.043,0,0,0,1.262.416c.663.027,1.329.007,2.035.007a3.854,3.854,0,0,1,.543,1.895c-.328.2-.58.536-.939.793a3.319,3.319,0,0,1-1.964.618c-3.506.028-7.011.013-10.436.013a3.337,3.337,0,0,0-3.623-.233,2.173,2.173,0,0,1-1.12.246c-3.176-.024-6.351-.034-9.527,0a4.11,4.11,0,0,1-3.412-1.456,4.337,4.337,0,0,1,.5-1.853A9.093,9.093,0,0,0,17.319,35a5.981,5.981,0,0,0,1.773-2.977,1.776,1.776,0,0,1,.225-.351,1.148,1.148,0,0,0-.2-1.5A2.376,2.376,0,0,0,17.881,30q-7.2.008-14.407,0" transform="translate(-0.694 -7.132)" fill="#050506"/>
        <path id="Trazado_616863" data-name="Trazado 616863" d="M21.289,14a6.691,6.691,0,0,0-.865-3.83,13.008,13.008,0,0,0-.932-1.387,8.739,8.739,0,0,0-1.071-1.1A8.457,8.457,0,0,0,15.343,6a6.921,6.921,0,0,0-3.653-.2A5.043,5.043,0,0,1,9.624,5.8a6.836,6.836,0,0,0-2.615,0,7.378,7.378,0,0,0-2.634.883A8.482,8.482,0,0,0,1.34,9.355,7.452,7.452,0,0,0,0,13.781a10.319,10.319,0,0,0,.42,3.144,7.7,7.7,0,0,0,.995,1.907A8.335,8.335,0,0,0,6,22.106a6.627,6.627,0,0,0,1.854.316,6.215,6.215,0,0,0,1.81-.133,3.9,3.9,0,0,1,2.141.06,3.772,3.772,0,0,0,2.351-.023c.393-.144.762,0,1.143-.181a13.816,13.816,0,0,0,3.072-1.7A9.153,9.153,0,0,0,20.4,17.958,6.686,6.686,0,0,0,21.289,14" transform="translate(0 -1.34)" fill="#050506"/>
        <path id="Trazado_616864" data-name="Trazado 616864" d="M66.581,23.108a2.235,2.235,0,0,0,1.475-2.578c-1.364-2.2-2.723-4.514-4.118-6.812-1.158-1.907-2.371-3.786-3.426-5.761a5.511,5.511,0,0,0-1.92-2.326h-1.3c-1.084.3-1.167,1.323-1.81,1.852-.966,2.022-2.264,3.853-3.4,5.779-1.08,1.84-2.207,3.657-3.312,5.484a4.735,4.735,0,0,1-1.04,1.56,2.312,2.312,0,0,0,1.5,2.8Z" transform="translate(-11.334 -1.339)" fill="#050506"/>
        <path id="Trazado_616865" data-name="Trazado 616865" d="M51.026,51.231a.677.677,0,0,0-.791-.367l-.408-.9a.416.416,0,0,1-.457-.225c-.15.179-.3.325-.55.227v.781c-.313.2-.769.037-1.009.446-.181.146-.076.406-.109.659l.329.313.757.039v.709a.706.706,0,0,0,.79.37,2.314,2.314,0,0,0,.62-1.048c.8-.169.8-.169.829-1.005" transform="translate(-11.34 -11.825)" fill="#299ed7"/>
        <path id="Trazado_616866" data-name="Trazado 616866" d="M28.124,6.338A2.64,2.64,0,0,1,29.768,5.3c-.782-.447-1.617-.685-1.705-1.8-.555.756-.989,1.539-2.111,1.691a3.107,3.107,0,0,1,2.008,1.72c.272-.168.108-.4.165-.571" transform="translate(-6.17 -0.832)" fill="#fabd3a"/>
        <path id="Trazado_616867" data-name="Trazado 616867" d="M56.742,48.9l-.554.788.722.409c.394.145.61-.1.56-.7l-.728-.5" transform="translate(-13.358 -11.625)" fill="#96bc4e"/>
        <path id="Trazado_616868" data-name="Trazado 616868" d="M28.972,32.22l-.592-.835a2.083,2.083,0,0,0-.756.663c.066.371.421.478.55.719.537.04.82-.136.8-.547" transform="translate(-6.567 -7.462)" fill="#e44f66"/>
        <path id="Trazado_616869" data-name="Trazado 616869" d="M21.291,0l-.627.78c.059.261.366.411.572.632a.638.638,0,0,0,.789-.668A2.66,2.66,0,0,0,21.291,0" transform="translate(-4.913 0)" fill="#3aa5d9"/>
        <path id="Trazado_616870" data-name="Trazado 616870" d="M43,60.042a1.808,1.808,0,0,0-.5-1.483c-.245-.38-.438-.784-.665-1.169-.8-1.356-1.529-2.758-2.3-4.131a29.394,29.394,0,0,1-1.787-3.34c-.2-.5-.63-.829-.769-1.383-.132,0-.37-.05-.4.008-.3.585-.958.379-1.418.618-.506.264-1.092-.1-1.619-.279a7.945,7.945,0,0,1-1.031-.518c-.19.1-.25.314-.372.518-.791,1.323-1.437,2.723-2.191,4.063-.537.955-.99,1.954-1.544,2.9-.781,1.329-1.438,2.721-2.166,4.108-.006-.014,0,.018.016.037a.15.15,0,0,0,.086.055q8.334,0,16.662,0" transform="translate(-6.237 -11.498)" fill="#1b5da9"/>
        <path id="Trazado_616871" data-name="Trazado 616871" d="M4.432,31.511c.309.707.622,1.411.924,2.119a1.435,1.435,0,0,0,1.482.921c2.468-.015,4.937-.006,7.406-.006.627,0,1.253-.017,1.879,0a1.612,1.612,0,0,0,1.7-1.156,11.356,11.356,0,0,1,.809-1.769c-.743-.235-11.6-.309-14.2-.113" transform="translate(-1.054 -7.465)" fill="#ffd570"/>
        <path id="Trazado_616872" data-name="Trazado 616872" d="M51.519,31.51c-.13.4.3.563.318.869.021.288.257.468.331.749a1.683,1.683,0,0,0,1.89,1.443c3.242,0,6.485,0,9.521,0,1.161-.286,1.146-1.3,1.65-1.921-.071-.443.3-.731.395-1.14Z" transform="translate(-12.242 -7.491)" fill="#ffd570"/>
        <path id="Trazado_616873" data-name="Trazado 616873" d="M22.638,65.181c.051.371-.488.535-.285.954l.7.576c-.113-.037-.08-.017-.047-.017,7.123,0,14.247,0,21.438,0l.545-.588c.156-.37-.271-.566-.217-.926Z" transform="translate(-5.303 -15.496)" fill="#377bbf"/>
        <path id="Trazado_616874" data-name="Trazado 616874" d="M15.114,39.951a4.862,4.862,0,0,1-1.685.422,5.717,5.717,0,0,0,3.756,3.209,1.186,1.186,0,0,0,.409.075c3.533,0,7.065,0,10.565,0,.169-.533.322-1.01.492-1.549H18.946a5.427,5.427,0,0,1-2.379-.664,3.842,3.842,0,0,1-1.454-1.495" transform="translate(-3.193 -9.498)" fill="#e7f1fb"/>
        <path id="Trazado_616875" data-name="Trazado 616875" d="M41.785,43.653c3.471,0,6.86.006,10.249,0a3.771,3.771,0,0,0,2.191-.832,4.884,4.884,0,0,0,2.218-2.451,3.174,3.174,0,0,1-1.689-.438,4.178,4.178,0,0,1-2.693,1.989,8.627,8.627,0,0,1-1.8.187q-4.419.006-8.841,0c.026.521.389.937.361,1.549" transform="translate(-9.848 -9.492)" fill="#e7f1fb"/>
        <path id="Trazado_616876" data-name="Trazado 616876" d="M35.76,46.325c1.271.116,2.445.176,3.01-1.17.473-1.125.255-1.766-.935-2.953a3.752,3.752,0,0,0-2.233-.045,2.9,2.9,0,0,0-1.024,1.328,2.527,2.527,0,0,0,.018,1.687c.2.586.813.737,1.164,1.153" transform="translate(-8.188 -9.987)" fill="#387cc0"/>
        <path id="Trazado_616877" data-name="Trazado 616877" d="M11.663,37.023c-.009.175-.016.315-.022.443l.939.852a.653.653,0,0,1,.56.223c.28-.035.468-.369.825-.207l.761-.871v-.441Z" transform="translate(-2.767 -8.802)" fill="#f0b332"/>
        <path id="Trazado_616878" data-name="Trazado 616878" d="M59.524,38.321c.253-.011.514-.045.674.221a2.425,2.425,0,0,0,1.647-1.04v-.459H58.8c-.147.139.009.337-.074.486l.794.792" transform="translate(-13.962 -8.807)" fill="#f0b332"/>
        <path id="Trazado_616879" data-name="Trazado 616879" d="M1.472,14.47A5.956,5.956,0,0,0,2.6,18.425a7.222,7.222,0,0,0,1.93,1.925,4.888,4.888,0,0,0,2.023.984c1.056.188,2.082.614,3.218.178.5-.191,1.119-.071,1.569-.492a2.075,2.075,0,0,0,1.56-.745,7.583,7.583,0,0,0,2.321-2.889,7.451,7.451,0,0,0,.452-4.509c-.36-2.22-1.76-3.616-3.423-4.873-.778-.149-1.426-.644-2.25-.745a7.94,7.94,0,0,0-1.573-.171A6.767,6.767,0,0,0,3.816,9.046a8.279,8.279,0,0,0-1.528,1.906,6.509,6.509,0,0,0-.817,3.519" transform="translate(-0.339 -1.683)" fill="#ffd46f"/>
        <path id="Trazado_616880" data-name="Trazado 616880" d="M16.579,7.191c.345.059.525.32.752.522a2.138,2.138,0,0,0,1.016.487,6.313,6.313,0,0,1,2.336,1.049,6.75,6.75,0,0,1,2.416,3.53,1.876,1.876,0,0,1,.13.606c.011.515-.006,1.031.005,1.546a4.793,4.793,0,0,1-1.26,3.23,6.593,6.593,0,0,1-2.436,2.057c-.278.132-.692-.03-.848.36a1.808,1.808,0,0,0-1.662.785c-.123.143-.359.021-.468.322a2.867,2.867,0,0,0,1.1-.023c.669-.318,1.426-.182,2.1-.553a12.487,12.487,0,0,0,1.491-.911,6.459,6.459,0,0,0,1.712-1.711A7.257,7.257,0,0,0,21.174,8.5a4.859,4.859,0,0,0-2.186-1.1,4.866,4.866,0,0,0-2.409-.205" transform="translate(-3.937 -1.685)" fill="#ffd36f"/>
        <path id="Trazado_616881" data-name="Trazado 616881" d="M20.738,11.119a8.864,8.864,0,0,1-.122,8.292c.181.166.312.186.437.063a5.6,5.6,0,0,0,1.816-2.454,5.938,5.938,0,0,0-.225-3.926,5.519,5.519,0,0,0-1.906-1.973" transform="translate(-4.901 -2.644)" fill="#f6b833"/>
        <path id="Trazado_616882" data-name="Trazado 616882" d="M66.782,22.347l.542-.553a1.473,1.473,0,0,0-.207-1c-.667-1.047-1.317-2.106-1.964-3.166-.556-.912-1.089-1.836-1.648-2.746-.722-1.177-1.462-2.342-2.188-3.517-.579-.938-1.167-1.872-1.715-2.829a5.351,5.351,0,0,0-1.03-1.451h-.6A4.6,4.6,0,0,0,56.5,9.043c-.995,1.656-2.06,3.269-3.03,4.936-.727,1.248-1.481,2.48-2.213,3.724-.473.8-1,1.574-1.477,2.375a2.528,2.528,0,0,0-.6,1.761l.675.377-.129.131Z" transform="translate(-11.687 -1.683)" fill="#e34d6c"/>
        <path id="Trazado_616883" data-name="Trazado 616883" d="M2.616,14.659a5.785,5.785,0,0,0,1.39,3.965,5.705,5.705,0,0,0,3.1,2.112c.861.244,1.813.674,2.775.123.258-.147.616-.022.945-.111a5.8,5.8,0,0,0,2.477-1.463,6.229,6.229,0,0,0,1.761-3.016,10.022,10.022,0,0,0,.157-2.791,5.2,5.2,0,0,0-.9-2.267A6.2,6.2,0,0,0,11.482,8.8a2.394,2.394,0,0,0-1.294-.342c-.384.069-.619-.283-1.018-.252A18.974,18.974,0,0,0,7,8.6,5.94,5.94,0,0,0,5.1,9.62c-1.379.831-1.886,2.255-2.454,3.613a3.954,3.954,0,0,0-.026,1.426" transform="translate(-0.608 -1.951)" fill="#060606"/>
        <path id="Trazado_616884" data-name="Trazado 616884" d="M59.407,11.4l-1.032.97c.134.433-.416.752-.2,1.132.23.406.091.855.229,1.23.349.953.329,1.975.709,2.995a2.029,2.029,0,0,0,.765.572,1.272,1.272,0,0,0,1.578-.392,3.734,3.734,0,0,0,.455-1.346c.085-.98.495-1.9.493-2.891,0-.079.131-.159.214-.253-.371-.633-.354-1.435-1.182-1.86a1.935,1.935,0,0,0-2.028-.158" transform="translate(-13.818 -2.657)" fill="#0b0706"/>
        <path id="Trazado_616885" data-name="Trazado 616885" d="M58.753,23.77c1,1.007,1,1.007,2.342.983,1.148-.708,1.2-.823,1.2-2.467a2.89,2.89,0,0,0-1.945-1.3c-.518.366-1.415.309-1.6,1.233Z" transform="translate(-13.968 -4.991)" fill="#0d0707"/>
        <path id="Trazado_616886" data-name="Trazado 616886" d="M10.739,9.917c-.454.167-.922-.234-1.459-.234s-1.005.4-1.447.239a5.852,5.852,0,0,0-3.42,3.095,4.9,4.9,0,0,0-.274,3.03,5.164,5.164,0,0,0,2.179,3.278,5.238,5.238,0,0,0,3.012.96,4.8,4.8,0,0,0,2.894-.969,5.953,5.953,0,0,0,2.035-2.45,8.875,8.875,0,0,0,.206-2.875,5.868,5.868,0,0,0-1.3-2.452,8.521,8.521,0,0,0-2.426-1.622" transform="translate(-0.954 -2.302)" fill="#f9ba34"/>
        <path id="Trazado_616887" data-name="Trazado 616887" d="M61.615,13.21,61.3,12.9H60.2c-.329.171-.367.56-.549.815.388,1.344.471,2.743.975,4.041h.261c.271-1.5.878-2.952.732-4.543" transform="translate(-14.181 -3.066)" fill="#f6b833"/>
        <path id="Trazado_616888" data-name="Trazado 616888" d="M61.526,23.77c.027-.363.122-.741-.287-.988a.874.874,0,0,0-.994.281v.712l.3.3c.393.105.654-.2.978-.308" transform="translate(-14.322 -5.406)" fill="#f1b432"/>
        <path id="Trazado_616889" data-name="Trazado 616889" d="M12.874,16.7a1.093,1.093,0,0,1-.29-.82l-.931-.931a3.625,3.625,0,0,1-1.014-.333V13.146h1.476c.021-.658.021-.658-.242-1.091H10.743c-.241-.246-.013-.617-.338-.8a.631.631,0,0,0-.4-.107c-.484.054-.525.406-.518.819a3.857,3.857,0,0,0-1.5.608c-.462.293-.42.924-.7,1.488.026.18.335.415.235.749l.957.957c.367-.065.633.226,1,.308v1.475H8.219c-.067.434-.131.79.271,1.091h.933c.123.449.094,1.05.791.9.393-.083.426-.439.406-.81a4.126,4.126,0,0,0,1.508-.606c.483-.29.372-.95.745-1.426" transform="translate(-1.733 -2.649)" fill="#070705"/>
        <path id="Trazado_616890" data-name="Trazado 616890" d="M12.544,17.893c-.269-.375-.518-.44-.853-.309v1.487c.464.035.6-.364.853-.55Z" transform="translate(-2.779 -4.166)" fill="#f2b533"/>
        <path id="Trazado_616891" data-name="Trazado 616891" d="M9.654,13.683l-.595.873c0,.633,0,.633.838.726a7.418,7.418,0,0,0-.017-1.545l-.226-.054" transform="translate(-2.154 -3.253)" fill="#f3b533"/>
      </g>
    </g>
  </g>
</svg>
