<svg xmlns="http://www.w3.org/2000/svg" xmlns:xlink="http://www.w3.org/1999/xlink" width="113" height="113" viewBox="0 0 113 113">
  <defs>
    <clipPath id="clip-path">
      <rect id="Rectángulo_325321" data-name="Rectángulo 325321" width="57.634" height="57.285" fill="none"/>
    </clipPath>
  </defs>
  <g id="Grupo_877371" data-name="Grupo 877371" transform="translate(-694 -3192.161)">
    <path id="Trazado_613726" data-name="Trazado 613726" d="M56.5,0A56.5,56.5,0,1,1,0,56.5,56.5,56.5,0,0,1,56.5,0Z" transform="translate(694 3192.161)" fill="#d2e6d5"/>
    <g id="Grupo_876359" data-name="Grupo 876359" transform="translate(722 3220.161)" clip-path="url(#clip-path)">
      <path id="Trazado_614883" data-name="Trazado 614883" d="M41.627,48.516c.062.326.395.427.557.678a4.333,4.333,0,0,0,1.771-.051c.512-.259,1.036-.079,1.546-.362a12.2,12.2,0,0,0,2.337-1.413c1.072-1.023,1.99-2.193,2.985-3.287.693-.759,1.434-1.482,2.095-2.271,1.156-1.383,2.423-2.663,3.57-4.046a4.807,4.807,0,0,0-2.262-7.652,2.215,2.215,0,0,0-.637-.084c-.487-.015-.973,0-1.509,0a4.167,4.167,0,0,0-3.01-1.567,3.836,3.836,0,0,0-3.259.858,5.262,5.262,0,0,0-3.343-1.323,3.852,3.852,0,0,0-1.827.474c-1.5.823-3.012,1.636-4.451,2.579a19.183,19.183,0,0,1-2.093,1.19c-1.192.587-2.221,1.458-3.465,1.951-.144.056-.214.294-.219.3l-3.476-.461c.948-.695,1.8-1.355,2.7-1.966A15.639,15.639,0,0,0,32.6,29.721a1.324,1.324,0,0,0,.317-.581,12.09,12.09,0,0,0,5.484-1.649,16.016,16.016,0,0,0,2.208-1.482,14.131,14.131,0,0,0,3.158-3.645,13.553,13.553,0,0,0,1.668-3.7,8.278,8.278,0,0,0,.463-2.629c-.017-.864.026-1.728-.009-2.592A12.584,12.584,0,0,0,44.65,8.546a15.224,15.224,0,0,0-3.69-5A13.955,13.955,0,0,0,35.951.714a11.651,11.651,0,0,0-4.217-.69A9.19,9.19,0,0,1,30.051.013a6.549,6.549,0,0,0-1.593.279A6.947,6.947,0,0,0,26.05.956,15.252,15.252,0,0,0,22.587,2.95c-.373.33-.787.632-1.162.976A15.013,15.013,0,0,0,18,8.814a15.223,15.223,0,0,0-.916,3.008,18.754,18.754,0,0,0-.161,4.871,10.31,10.31,0,0,0,.793,3.034A13.078,13.078,0,0,0,20.2,24c.043.047.039.133.069.249-.47.253-.939.534-1.432.768a21.568,21.568,0,0,0-4.2,2.624c-1,.8-2.118,1.445-3.1,2.26-.7.577-1.443,1.085-2.12,1.67-1.033.89-2.243,1.5-3.334,2.292-1.173.849-2.436,1.563-3.643,2.361A21.225,21.225,0,0,1,.068,37.686a1.949,1.949,0,0,0,.489,1.75c.463.71.823,1.469,1.246,2.2.774,1.327,1.5,2.687,2.286,4.005.95,1.6,1.777,3.278,2.882,4.783a9.176,9.176,0,0,0,1.16,2.221c.83,1.582,1.786,3.1,2.691,4.644h1.025a6.841,6.841,0,0,1,1.829-1.3c.991-.547,1.885-1.226,2.841-1.818a25.929,25.929,0,0,0,2.755-1.8c.109-.09.326-.3.56-.249.819.167,1.58-.364,2.378-.212.512.1.881-.287,1.374-.262.414.019.892.21,1.267-.178.039-.041.144-.036.212-.024.851.139,1.642-.377,2.494-.227.446.077.8-.274,1.256-.249.414.024.892.2,1.261-.2.034-.036.146-.015.219,0a13.517,13.517,0,0,0,2.828-.279,8.329,8.329,0,0,0,1.923-.212c.622-.184,1.25-.049,1.818-.221a4.2,4.2,0,0,1,1.379-.187c.442.015.789-.42,1.233-.2.225-.322.68-.452.581-.931.109-1.006-.65-.986-1.259-.973a42.866,42.866,0,0,0-4.906.551c-4.269.579-8.546,1.061-12.815,1.636a2.137,2.137,0,0,1-1.184-.116C18.617,48,17.613,45.81,16.327,43.8c-1.522-2.547-2.974-5.133-4.423-7.723A17.116,17.116,0,0,1,10.454,33.4c3.536-2.8,6.91-5.9,11.31-7.508a27.832,27.832,0,0,1,6.608-1.784,2.714,2.714,0,0,1,2.339,4.56,34.373,34.373,0,0,1-4.117,3.126c-.6.455-1.214.881-1.827,1.314s-1.312.862-1.111,1.775c.212.971,1.111.92,1.816,1.01q3.509.453,7.022.888c2.714.33,5.433.639,8.137,1.029a4.258,4.258,0,0,0,3.066-.761c2.431-1.559,4.94-2.993,7.4-4.5a2.957,2.957,0,0,1,2.348-.517,2.743,2.743,0,0,1,1.531,4.31c-1.149,1.533-2.506,2.888-3.8,4.3A16.127,16.127,0,0,0,50,42c-1.111,1.158-2.123,2.4-3.233,3.559a4.741,4.741,0,0,1-3.235,1.563,3.471,3.471,0,0,0-1.3.313c-.429.21-.909.442-.6,1.085" transform="translate(0 0)" fill="#040506"/>
      <path id="Trazado_614884" data-name="Trazado 614884" d="M33.1,26.08c-.109-.48.369-.6.489-.819,1.28-.4,2.624-.182,3.739-.967a3.777,3.777,0,0,0,.433-.3c1.4-1.314,2.607-2.809,3.887-4.232-.538-.349-1.016-.024-1.486.165a56.589,56.589,0,0,1-16.91,3.939c-3.99.287-8.025.345-11.9-1.076A26.264,26.264,0,0,1,8.59,21.541c-.352-.176-.7-.5-1.136-.2.845,1.374,1.6,2.8,2.427,4.183.5.834,1,1.681,1.439,2.579.148-.09.268-.227.364-.21.892.144,1.724-.373,2.605-.232.457.073.8-.281,1.259-.253.412.026.9.219,1.261-.2.032-.036.146-.015.219,0,.961.144,1.867-.328,2.83-.242.418.039.8-.285,1.256-.225a1.332,1.332,0,0,0,1.149-.2c.064-.056.219,0,.33-.009a4.845,4.845,0,0,0,1.6-.2c.45-.165,1.016.1,1.475-.249.047-.036.146-.013.221,0a11.316,11.316,0,0,0,2.822-.287c.838-.107,1.662-.094,2.479-.18.12.253.225.472.332.69.3,0,.592.009.888,0,.247-.011.395-.339.686-.223" transform="translate(8.528 22.436)" fill="#f8bdb2"/>
      <path id="Trazado_614885" data-name="Trazado 614885" d="M21.513,11.654a3.732,3.732,0,0,0,1.567,1.636,16.8,16.8,0,0,1,1.409.943,1.88,1.88,0,0,0,2.168.294c.084-.049.221-.006.319-.006a3.352,3.352,0,0,0,1.477-3.471,2.334,2.334,0,0,0-1.145-1.267C26,9.212,24.866,8.12,23.1,8.506c-.765.251-1.171,1.053-1.589,1.938Z" transform="translate(24.612 9.639)" fill="#060707"/>
      <path id="Trazado_614886" data-name="Trazado 614886" d="M4.473,4.906a3.691,3.691,0,0,0-1.1,1.5V8.278a4.51,4.51,0,0,0,1.147,1.4,2.682,2.682,0,0,0,1.859.272,8.748,8.748,0,0,1,2.331-.193A3.885,3.885,0,0,0,10.2,8.639a2.925,2.925,0,0,0,0-2.729A3.97,3.97,0,0,0,8.74,4.792c-.026,0-.176.009-.324,0A7.035,7.035,0,0,1,6.48,4.6a2.715,2.715,0,0,0-2.007.3" transform="translate(3.854 5.161)" fill="#060707"/>
      <path id="Trazado_614887" data-name="Trazado 614887" d="M21.517,3.545c0,.124.021.5-.006.873-.024.339.4.551.247.875A2.7,2.7,0,0,0,24.834,6.51a17.67,17.67,0,0,1,2-1.042A2.887,2.887,0,0,0,28.492,3.9a5.247,5.247,0,0,1,.006-.774,2.652,2.652,0,0,0-.62-1.771A3.154,3.154,0,0,0,26.309.279,1.7,1.7,0,0,0,24.767.56,20.2,20.2,0,0,0,22.4,2.2a2.565,2.565,0,0,0-.883,1.349" transform="translate(24.608 0.219)" fill="#060707"/>
      <path id="Trazado_614888" data-name="Trazado 614888" d="M22.562,8.279c.133.133.317.242.388.4a1.755,1.755,0,0,0,1.79,1.033c.855-.026,1.644.283,2.489.27a2.636,2.636,0,0,0,2.391-3.45c-.21-.583-.332-1.229-.909-1.5a2.713,2.713,0,0,0-1.928-.452c-.759.236-1.537.071-2.262.244-.549.129-1.293.159-1.524.939-.056.191-.281.332-.435.5V8.279" transform="translate(25.812 5.169)" fill="#070708"/>
      <path id="Trazado_614889" data-name="Trazado 614889" d="M4.6,4.147a4.7,4.7,0,0,0,2.62,1.771,4.387,4.387,0,0,1,1.145.615H9.891c.251-.463.838-.515,1.119-1.072.5-1,.581-1.108.379-1.945a2.014,2.014,0,0,0-1.1-1.567A8.374,8.374,0,0,1,8.722.851a3.09,3.09,0,0,0-1.43-.6,2.231,2.231,0,0,0-2.007.885A2.69,2.69,0,0,0,4.58,2.3,3.014,3.014,0,0,0,4.6,4.147" transform="translate(5.087 0.26)" fill="#060707"/>
      <path id="Trazado_614890" data-name="Trazado 614890" d="M10.016,8.537a3.866,3.866,0,0,0-3.1.669c-.343.178-.641.461-1.033.352L4.738,10.711c-.152.109-.03.307-.1.405-.42.549-.172,1.1.017,1.614a3,3,0,0,0,2.2,2,2.515,2.515,0,0,0,1.788-.525c.66-.395,1.282-.862,1.943-1.271a2.582,2.582,0,0,0,.572-3.306c-.311-.536-.847-.733-1.141-1.093" transform="translate(5.039 9.632)" fill="#060707"/>
      <path id="Trazado_614891" data-name="Trazado 614891" d="M9.734,31.139c.111,0,.255-.045.332.006A14.255,14.255,0,0,0,15.311,33.4c.866.217,1.76.292,2.614.485a20.315,20.315,0,0,0,3.844.172c1.308.051,2.62.013,3.93.011.467,0,.862-.326,1.368-.242a1.755,1.755,0,0,0,1.364-.208,6.019,6.019,0,0,0,2.148-.249,33.763,33.763,0,0,0,3.623-.729c.708-.174,1.415-.375,2.116-.566,1.177-.324,2.358-.639,3.514-1.021a28.6,28.6,0,0,0,3.763-1.49.87.87,0,0,1,.334,0c.433-.474.847-.969,1.308-1.417,1.038-1.008,1.833-2.236,2.937-3.177.262-.746,1.1-1.055,1.379-2.011V21.93a2.581,2.581,0,0,0-1.218-2.307,2.615,2.615,0,0,0-2.575-.48,12.8,12.8,0,0,0-2.033,1.072c-1.093.547-2.105,1.259-3.15,1.9-1.106.682-2.2,1.376-3.315,2.05-.476.289-.988.519-1.462.81-.187.114-.463.12-.517.056-.274-.324-.628-.234-.935-.2a5.431,5.431,0,0,1-1.482-.236c-.5-.075-1.036.176-1.486-.223-.041-.039-.146-.015-.221,0a15.014,15.014,0,0,1-2.828-.277,8.211,8.211,0,0,1-1.812-.208c-.613-.163-1.244-.069-1.816-.225-.617-.169-1.246-.064-1.818-.225-.615-.172-1.241-.075-1.822-.219-1.048-.257-2.129-.225-3.2-.508l-.232-.232v-1.1c.028-.019.219-.135.4-.262.7-.476,1.411-.946,2.1-1.437,1.076-.761,2.127-1.554,3.214-2.3a9.288,9.288,0,0,0,1.256-1.042,2.114,2.114,0,0,0,.883-1.782c-.009-.071.142-.161.244-.27-.317-.5-.277-1.123-.579-1.664a2.6,2.6,0,0,0-1.471-1.323,2.386,2.386,0,0,0-1.87-.1,5.934,5.934,0,0,1-1.557.309A26.733,26.733,0,0,0,15.44,12.91c-.043.017-.056.122-.081.187-4.072,2.4-6.94,6-9.659,9.751a1.246,1.246,0,0,0-.24.624.846.846,0,0,0,.146.5c.819,1.261,1.5,2.605,2.266,3.9a14.69,14.69,0,0,1,1.244,2.288,5.511,5.511,0,0,0,.62.978" transform="translate(6.245 12.641)" fill="#fcd3c3"/>
      <path id="Trazado_614892" data-name="Trazado 614892" d="M13.344,21.608a15.3,15.3,0,0,0,2.084-.373,7.556,7.556,0,0,1,2.939.086,4.53,4.53,0,0,1,3.1,3.156,8.334,8.334,0,0,1,.242,1.874,8.693,8.693,0,0,0,3.328-.995c.09-.532-.431-1-.118-1.69.09-.094.287-.307.455-.487.768.077,1.008.684,1.381,1.188a11.968,11.968,0,0,0,3.512-3.458,3.957,3.957,0,0,1-1.16-1.021c-.109-.5.285-.678.512-.948a1.478,1.478,0,0,1,1.4.4c.678-.59.665-1.507.973-2.266a13.165,13.165,0,0,0,.506-2.395c-.976-.236-2.05.285-2.837-.512-.227-.253-.026-.532-.148-.77.214-.2.405-.373.66-.607h2.288a14.224,14.224,0,0,0-1.267-4.713c-.525-.165-.866.519-1.509.437-.129-.18-.3-.42-.467-.66-.039.036-.077.075-.116.114V7.305a2.623,2.623,0,0,1,1.179-.838A16.035,16.035,0,0,0,26.716,2.9a2.823,2.823,0,0,1-.9,1.108h-.65c-.364-.159-.3-.585-.54-.768.2-.379.388-.753.6-1.175a9.746,9.746,0,0,0-4.88-1.2c-.011.384-.026.783-.032,1.181s0,.815,0,1.154c-.352.577-.849.27-1.22.377-.232-.208-.444-.375-.356-.688C18.466,2.335,18.759,1.72,18.5,1a8.315,8.315,0,0,0-4.331,2.98,12.951,12.951,0,0,0-3.78,7.451,1.271,1.271,0,0,0,.1.768.405.405,0,0,0,.459.212,5.523,5.523,0,0,1,4-1.087,3.479,3.479,0,0,0,1.925-.214,2.349,2.349,0,0,0,.386-1.653,2.505,2.505,0,0,1,2.3-2.556,2.5,2.5,0,0,1,2.213,2.633c.021,1.31.049,2.624-.011,3.934a2.21,2.21,0,0,1-2.485,2.4c-1.233.021-2.468,0-3.7.006a2.206,2.206,0,0,1-1.467-.448,3.742,3.742,0,0,0-1.728-.388c-.615.277-1.134-.225-1.72-.219a1.25,1.25,0,0,0-.257,1.248,13.268,13.268,0,0,0,1.9,4.972c.212.356.437.825,1.023.572" transform="translate(11.86 0.974)" fill="#cae9f8"/>
      <path id="Trazado_614893" data-name="Trazado 614893" d="M13.1,25.924c-1.8-3.366-3.707-6.67-5.65-9.921C5.238,17.418,3.078,18.8.943,20.162A3.847,3.847,0,0,0,1.726,21.6c1.119,1.822,2.073,3.737,3.216,5.549.491.776.853,1.64,1.411,2.386a1.666,1.666,0,0,0,1.387.152,9.86,9.86,0,0,0,4.951-2.62c.322-.281.69-.611.412-1.141" transform="translate(1.079 18.309)" fill="#8ab8e4"/>
      <path id="Trazado_614894" data-name="Trazado 614894" d="M15.362,20.5H15.03a14.341,14.341,0,0,1-1-1.7,8.642,8.642,0,0,1-1.138-3.538c-.379-.4-.184-.9-.219-1.355a.168.168,0,0,1,.219-.176,3.405,3.405,0,0,0,0-1.662c0-.362-.386-.643-.221-1.044a11.059,11.059,0,0,1,.761-3.37c.581-1.812,1.825-3.208,2.839-4.747q-.113-.145-.225,0h-.8c-.277-.369-.748-.592-.855-1.083a6.867,6.867,0,0,0-1.893,1.606,5.794,5.794,0,0,0-1.574,1.878c.21.412.909.354,1.074.9v.68l-.684.429c-.476.191-.832-.444-1.4-.354a14.693,14.693,0,0,0-1.3,4.7c.776.088,1.552,0,2.418.054.1.148.251.364.5.725v.517c-.819.877-1.885.41-2.914.592a14.165,14.165,0,0,0,1.379,4.685,2.253,2.253,0,0,1,1.43-.446c.517.47.506.48.575.993a2.913,2.913,0,0,1-1.181.946c.157.416.626.575.7.888.092.392.427.5.581.78a7.3,7.3,0,0,0,.851-.118,6.872,6.872,0,0,1,2.247-.562.17.17,0,0,0,.178-.221" transform="translate(9.841 2.086)" fill="#8ab8e4"/>
      <path id="Trazado_614895" data-name="Trazado 614895" d="M10.215,20.63c.054.594-.45.849-.8,1.1A13.85,13.85,0,0,1,6.9,23.417a8.512,8.512,0,0,1-1.968.635,8.5,8.5,0,0,1-1.469.187c.71,1.593,1.687,3.04,2.511,4.571a28.783,28.783,0,0,0,1.7,2.884L14.236,27.5c-.731-1.274-1.475-2.571-2.221-3.868a11.06,11.06,0,0,0-.911-1.524c-.375-.459-.369-1.126-.888-1.482" transform="translate(3.965 23.602)" fill="#4c7bbd"/>
      <path id="Trazado_614896" data-name="Trazado 614896" d="M6.372,22.379c.189.028.279-.133.343-.242a23.82,23.82,0,0,1,1.891-2.59,38.742,38.742,0,0,1,4.31-4.715,18.845,18.845,0,0,1,3.113-2.483c.107-.064.268-.154.242-.345a11.36,11.36,0,0,0-3.4,1.516,49.319,49.319,0,0,0-4.927,3.529A22.445,22.445,0,0,1,5.469,18.9a5.96,5.96,0,0,0-.806.667,13.284,13.284,0,0,0,1.709,2.813" transform="translate(5.335 13.734)" fill="#f7bdb1"/>
      <path id="Trazado_614897" data-name="Trazado 614897" d="M29.484,14.526a2.838,2.838,0,0,0-1.529-.485,2.35,2.35,0,0,0-1.681.44c-.978.77-2.123,1.237-3.145,1.923-1.411.948-2.948,1.707-4.434,2.543-.21.12-.429.227-.645.339.107.107.212.212.328.326a6.226,6.226,0,0,1,2.024.219,1.151,1.151,0,0,0,1.025-.2c1.239-.787,2.5-1.542,3.752-2.3q1.7-1.036,3.407-2.063c.339-.2.725-.343.9-.74" transform="translate(20.65 16.038)" fill="#f7bcb1"/>
      <path id="Trazado_614898" data-name="Trazado 614898" d="M26.454,14.276a6.163,6.163,0,0,0-1.023-.33,5.579,5.579,0,0,0-1.4-.032c-.873.467-1.743.847-2.521,1.366-1.666,1.108-3.521,1.9-5.137,3.085a4.272,4.272,0,0,1-.851.379c.131.131.236.238.339.339.641.116,1.331-.193,1.915.234l8.677-5.041" transform="translate(17.76 15.884)" fill="#e39a8a"/>
      <path id="Trazado_614899" data-name="Trazado 614899" d="M12.174,4.013H12.4c.532-.176.684-.868,1.284-.95a12.028,12.028,0,0,1,2.933-2A9.059,9.059,0,0,1,16.672,2.6c.009.154.006.307.225.289v-2a9.562,9.562,0,0,0-4.918,1.169l.6,1.169c-.126.247-.264.519-.4.791" transform="translate(13.705 0.977)" fill="#89b6e2"/>
      <path id="Trazado_614900" data-name="Trazado 614900" d="M22.353,9.711v.7a9.625,9.625,0,0,0,2.635,1.73,2.138,2.138,0,0,0,1-1.229C25.256,9.975,24,9.84,23.1,9.162c-.395.036-.487.427-.75.549" transform="translate(25.573 10.482)" fill="#fad84c"/>
      <path id="Trazado_614901" data-name="Trazado 614901" d="M7.894,6.649V5.885c-.967-.742-2.127-.437-3.212-.508-.341.208-.4.583-.59.89.2.283.234.665.581.92.583,0,1.211-.017,1.84.006a1.665,1.665,0,0,0,1.381-.545" transform="translate(4.683 6.147)" fill="#fad84d"/>
      <path id="Trazado_614902" data-name="Trazado 614902" d="M25.093,1.057a8.7,8.7,0,0,0-2.736,1.7V3.4c.193.217.384.433.6.673,1-.654,2.181-.892,3.008-1.758a2.1,2.1,0,0,0-.868-1.256" transform="translate(25.578 1.21)" fill="#fad84c"/>
      <path id="Trazado_614903" data-name="Trazado 614903" d="M26.766,7.207c.169-.172.249-.251.33-.33V5.7l-.319-.319c-1.117.077-2.331-.225-3.334.405-.1.126-.142.154-.144.182,0,.225,0,.448,0,.714,1.063.785,2.309.412,3.469.527" transform="translate(26.653 6.146)" fill="#f8d74c"/>
      <path id="Trazado_614904" data-name="Trazado 614904" d="M6.375,1.065H5.8c-.446.379-.557.71-.512,1.55A20.52,20.52,0,0,0,8.243,4.032c.169-.212.354-.44.57-.71v-.6c-.787-.536-1.58-1.072-2.438-1.655" transform="translate(6.035 1.219)" fill="#f8d64c"/>
      <path id="Trazado_614905" data-name="Trazado 614905" d="M7.927,9.2c-.74.545-1.76.748-2.609,1.239A1.593,1.593,0,0,0,5.7,11.97c.519.259.952-.03,1.357-.3.59-.4,1.149-.838,1.722-1.261.178-.643-.032-1.063-.849-1.2" transform="translate(6.033 10.53)" fill="#f9d74c"/>
      <path id="Trazado_614906" data-name="Trazado 614906" d="M10.549,9.986a6.807,6.807,0,0,1-.011,1,1.337,1.337,0,0,0,.236.8c.06.326.392.425.545.66.326.131.547-.107.8-.208.791-.414.3-1.241.62-1.932a8.35,8.35,0,0,1,3.467-.144c.309.364.287.63.071.9-.487.27-1.036.111-1.539.225-.615.139-1.226.311-.817,1.177-.088.313.122.48.341.678,1.8,0,3.63,0,5.459,0a2.414,2.414,0,0,0,2.286-2.148c.047-1.8.021-3.6.006-5.394a1.349,1.349,0,0,0-.461-.931l-.95-.952a3.767,3.767,0,0,0-2.262-.045.512.512,0,0,0-.088.056C16.531,5.41,16.876,5.1,16.848,7.076c0,.262,0,.521,0,.879-1.119,0-2.228-.006-3.336,0a2.939,2.939,0,0,0-2.738,1.351c-.249.169-.452.352-.225.678" transform="translate(11.955 4.026)" fill="#040506"/>
      <path id="Trazado_614907" data-name="Trazado 614907" d="M13.032,9.112V8.548l.358-.356h2.539V6.451h-4.1c-.174.2-.364.425-.6.7.146.508.472,1.121,0,1.735.624-.12,1.175.343,1.8.225" transform="translate(12.847 7.381)" fill="#264d6b"/>
      <path id="Trazado_614908" data-name="Trazado 614908" d="M10.618,7.017c-.109-.287.193-.437.225-.678q-.235.01-.225-.225a.56.56,0,0,0,0,.9" transform="translate(11.886 6.995)" fill="#a1c7e4"/>
      <path id="Trazado_614909" data-name="Trazado 614909" d="M4.933,24.439a2.489,2.489,0,0,0,2.639,3.045,2.975,2.975,0,0,0,2.579-2.892c-.362-.476-.362-1.117-.838-1.574s-1.1-.463-1.58-.81a2.943,2.943,0,0,0-2.8,2.232" transform="translate(5.605 25.406)" fill="#050608"/>
      <path id="Trazado_614910" data-name="Trazado 614910" d="M15.848,4.586a1.369,1.369,0,0,0-1.529,0c-.015.032-.045.062-.045.094,0,1.76,0,3.523,0,5.375l.733.59c.369.1.549-.354.84-.611V4.586" transform="translate(16.33 4.981)" fill="#1e3d55"/>
      <path id="Trazado_614911" data-name="Trazado 614911" d="M7.464,24.219v-.645l-.639-.515H6.231c-.36.157-.277.6-.555.787-.09.287.341.388.244.678l.66.33c.247-.247.68-.2.883-.635" transform="translate(6.479 26.381)" fill="#ece8eb"/>
    </g>
  </g>
</svg>
