<svg xmlns="http://www.w3.org/2000/svg" xmlns:xlink="http://www.w3.org/1999/xlink" width="113" height="113" viewBox="0 0 113 113">
  <defs>
    <clipPath id="clip-path">
      <rect id="Rectángulo_325320" data-name="Rectángulo 325320" width="69.385" height="68.232" fill="none"/>
    </clipPath>
  </defs>
  <g id="Grupo_877370" data-name="Grupo 877370" transform="translate(-379 -3192.161)">
    <path id="Trazado_613726" data-name="Trazado 613726" d="M56.5,0A56.5,56.5,0,1,1,0,56.5,56.5,56.5,0,0,1,56.5,0Z" transform="translate(379 3192.161)" fill="#d2e6d5"/>
    <g id="Grupo_876357" data-name="Grupo 876357" transform="translate(401 3214.161)" clip-path="url(#clip-path)">
      <path id="Trazado_614845" data-name="Trazado 614845" d="M0,68H69.155V0h.219c.011.345.011.689.011,1.036v67.2H1.034c-.345,0-.689,0-1.034-.009V68" transform="translate(0 0)" fill="#fff"/>
      <path id="Trazado_614846" data-name="Trazado 614846" d="M40.9,19.632c-.228-.228-.418-.418-.61-.612v-.68q4.873-4.87,9.767-9.763h.623l9.8,9.8v.687l-.713.515H55.948V33.734a14.478,14.478,0,0,1,4.529,11.625,14.289,14.289,0,0,1-4.562,9.723v3.457c-.186.161-.389.333-.661.566-3.491,0-7.089.093-10.679-.038A11.092,11.092,0,0,1,39.554,57.7c-.34.214-.13.51-.234.9l-.855.506H4.1l-.579-.568v-30.1l.579-.568H8.072c.093-1.357.031-2.719.042-4.078s0-2.746,0-4.16H4.133c-.23-.228-.418-.418-.61-.61v-.685l9.762-9.758h.639c3.252,3.25,6.5,6.5,9.8,9.794v.683l-.619.378.113.153H19.185v6.687a11.367,11.367,0,0,1,7.286-4.683V13.2H22.514l-.608-.621v-.667l9.772-9.767h.61L42.1,11.951v.669l-.627.354c.044.057.088.113.132.172H37.525v1.038c0,3.828.009,7.655-.013,11.484a2.437,2.437,0,0,0,.333,1.244,18.255,18.255,0,0,1,1.222,2.826,1.9,1.9,0,0,1,.057.775c-.011.283.2.384.382.6a17.187,17.187,0,0,1,5.349-1.476V19.632Z" transform="translate(2.912 1.774)" fill="#1a1818"/>
      <path id="Trazado_614847" data-name="Trazado 614847" d="M26.086,42.29V29.856c-.2-.2-.384-.393-.607-.621h-5.91a11.368,11.368,0,0,0,6.55-9.246,12.9,12.9,0,0,1,5.422-1.723,12.341,12.341,0,0,1,4.915.59,12.649,12.649,0,0,1,5.536,3.508A12.419,12.419,0,0,1,44.8,27.391a13.227,13.227,0,0,1,.4,5.863,14.492,14.492,0,0,1-2.141,5.315,12.8,12.8,0,0,1-4.827,4.047,13.123,13.123,0,0,1-6.095,1.359c-1.553-.062-2.861-.212-6.047-1.684" transform="translate(16.183 15.064)" fill="#85bc7d"/>
      <path id="Trazado_614848" data-name="Trazado 614848" d="M21.2,32.1a9.156,9.156,0,0,1-6.522-2.819,9.134,9.134,0,0,1,.247-13.006,9.134,9.134,0,0,1,13.006.323,8.928,8.928,0,0,1,2.518,6.645,8.6,8.6,0,0,1-1.376,4.48,7.858,7.858,0,0,1-2.934,2.971A8.937,8.937,0,0,1,21.2,32.1" transform="translate(9.985 11.335)" fill="#ffbc57"/>
      <path id="Trazado_614849" data-name="Trazado 614849" d="M28.556,25.587V14.3l-.7-.572H25.494c2.244-2.244,4.514-4.514,6.71-6.712,2.187,2.185,4.471,4.471,6.67,6.668H36.5c-.2.228-.378.428-.619.7v13.8a18.018,18.018,0,0,0-3.429-1.717,35.827,35.827,0,0,0-3.9-.884" transform="translate(21.083 5.798)" fill="#9090c4"/>
      <path id="Trazado_614850" data-name="Trazado 614850" d="M22.193,3.414l6.824,6.824c-.749.09-1.6,0-2.583.051l-.365.577-.166-.09V23.169a11.661,11.661,0,0,0-7.319-2.832V10.87l-.607-.6H15.342l6.851-6.851" transform="translate(12.687 2.823)" fill="#8f90c4"/>
      <path id="Trazado_614851" data-name="Trazado 614851" d="M12.117,6.933l6.84,6.84c-.767.055-1.617,0-2.565.031l-.563.718v9.329H8.507V14.425l-.632-.674H5.3l6.818-6.818" transform="translate(4.382 5.733)" fill="#8f90c4"/>
      <path id="Trazado_614852" data-name="Trazado 614852" d="M25.861,33.149H12.107c-.068-.581-.013-1.173-.038-1.838H25.861a1.426,1.426,0,0,1,0,1.838" transform="translate(9.981 25.893)" fill="#ffbc57"/>
      <path id="Trazado_614853" data-name="Trazado 614853" d="M25.861,31.137H12.107c-.068-.581-.013-1.173-.038-1.838H25.861a1.426,1.426,0,0,1,0,1.838" transform="translate(9.981 24.229)" fill="#cd9646"/>
      <path id="Trazado_614854" data-name="Trazado 614854" d="M25.861,27.113H12.107c-.068-.581-.013-1.173-.038-1.838H25.861a1.426,1.426,0,0,1,0,1.838" transform="translate(9.981 20.901)" fill="#cd9646"/>
      <path id="Trazado_614855" data-name="Trazado 614855" d="M25.861,29.125H12.107c-.068-.581-.013-1.173-.038-1.838H25.861a1.426,1.426,0,0,1,0,1.838" transform="translate(9.981 22.565)" fill="#ffbc57"/>
      <path id="Trazado_614856" data-name="Trazado 614856" d="M14.64,19.066H4.562c-.068-.581-.013-1.173-.038-1.838H14.64a1.426,1.426,0,0,1,0,1.838" transform="translate(3.741 14.247)" fill="#ffbc57"/>
      <path id="Trazado_614857" data-name="Trazado 614857" d="M14.64,21.078H4.562c-.068-.581-.013-1.173-.038-1.838H14.64a1.426,1.426,0,0,1,0,1.838" transform="translate(3.741 15.911)" fill="#cd9646"/>
      <path id="Trazado_614858" data-name="Trazado 614858" d="M14.64,23.09H4.562c-.068-.581-.013-1.173-.038-1.838H14.64a1.426,1.426,0,0,1,0,1.838" transform="translate(3.741 17.574)" fill="#ffbc57"/>
      <path id="Trazado_614859" data-name="Trazado 614859" d="M14.64,25.1H4.562c-.068-.581-.013-1.173-.038-1.838H14.64a1.426,1.426,0,0,1,0,1.838" transform="translate(3.741 19.238)" fill="#cd9646"/>
      <path id="Trazado_614860" data-name="Trazado 614860" d="M14.64,27.113H4.562c-.068-.581-.013-1.173-.038-1.838H14.64a1.426,1.426,0,0,1,0,1.838" transform="translate(3.741 20.901)" fill="#ffbc57"/>
      <path id="Trazado_614861" data-name="Trazado 614861" d="M14.64,29.125H4.562c-.068-.581-.013-1.173-.038-1.838H14.64a1.426,1.426,0,0,1,0,1.838" transform="translate(3.741 22.565)" fill="#cd9646"/>
      <path id="Trazado_614862" data-name="Trazado 614862" d="M14.64,31.137H4.562c-.068-.581-.013-1.173-.038-1.838H14.64a1.426,1.426,0,0,1,0,1.838" transform="translate(3.741 24.229)" fill="#ffbc57"/>
      <path id="Trazado_614863" data-name="Trazado 614863" d="M14.64,33.149H4.562c-.068-.581-.013-1.173-.038-1.838H14.64a1.426,1.426,0,0,1,0,1.838" transform="translate(3.741 25.893)" fill="#cd9646"/>
      <path id="Trazado_614864" data-name="Trazado 614864" d="M10.061,25.1V23.264h5.614a7.918,7.918,0,0,0,2.624,1.69c-.148.04.084-.037-.016.08-.022.027-.057.064-.086.064q-4.067.005-8.136,0" transform="translate(8.32 19.238)" fill="#ae803e"/>
      <path id="Trazado_614865" data-name="Trazado 614865" d="M19.618,29.125V27.287h4.564c.066.581.013,1.173.038,1.838Z" transform="translate(16.224 22.565)" fill="#d89f4d"/>
      <path id="Trazado_614866" data-name="Trazado 614866" d="M19.618,27.113V25.275h4.564c.066.581.013,1.173.038,1.838Z" transform="translate(16.224 20.901)" fill="#ae803e"/>
      <path id="Trazado_614867" data-name="Trazado 614867" d="M19.618,31.137V29.3h4.564c.066.581.013,1.173.038,1.838Z" transform="translate(16.224 24.229)" fill="#ae803e"/>
      <path id="Trazado_614868" data-name="Trazado 614868" d="M19.618,33.149V31.311h4.555c.093.581,0,1.173.058,1.838Z" transform="translate(16.224 25.893)" fill="#d89f4d"/>
      <path id="Trazado_614869" data-name="Trazado 614869" d="M10.061,23.09V21.252H12.9c.384.548.5,1.262,1.049,1.706a.338.338,0,0,1-.049.079.16.16,0,0,1-.091.051q-1.874,0-3.749,0" transform="translate(8.32 17.574)" fill="#d79f4d"/>
      <path id="Trazado_614870" data-name="Trazado 614870" d="M10.061,21.078V19.24h1.754c.1.583.493,1.12.245,1.838Z" transform="translate(8.32 15.911)" fill="#ad7f3e"/>
      <path id="Trazado_614871" data-name="Trazado 614871" d="M10.061,19.066V17.228h1.953c.369.623-.115,1.177-.146,1.838Z" transform="translate(8.32 14.247)" fill="#d79f4d"/>
      <path id="Trazado_614872" data-name="Trazado 614872" d="M10.061,29.125V27.287H11.87c.064.581.011,1.173.037,1.838Z" transform="translate(8.32 22.565)" fill="#ae803e"/>
      <path id="Trazado_614873" data-name="Trazado 614873" d="M10.061,31.137V29.3H11.87c.064.581.011,1.173.037,1.838Z" transform="translate(8.32 24.229)" fill="#d89f4d"/>
      <path id="Trazado_614874" data-name="Trazado 614874" d="M10.061,33.149V31.311H11.87c.064.581.011,1.173.037,1.838Z" transform="translate(8.32 25.893)" fill="#ae803e"/>
      <path id="Trazado_614875" data-name="Trazado 614875" d="M10.061,27.113V25.275H11.87c.064.581.011,1.173.037,1.838Z" transform="translate(8.32 20.901)" fill="#d89f4d"/>
      <path id="Trazado_614876" data-name="Trazado 614876" d="M31.565,31.875v.749a1.393,1.393,0,0,1-.859.005c.082-.449.585-.34.859-.755" transform="translate(25.393 26.359)" fill="#8180ae"/>
      <path id="Trazado_614877" data-name="Trazado 614877" d="M33.5,22.258h.6l.563.786v.48l-9.747,9.749h-.733c-.122-.17-.28-.385-.528-.725V32.1L33.5,22.258" transform="translate(19.559 18.406)" fill="#1a1818"/>
      <path id="Trazado_614878" data-name="Trazado 614878" d="M32.421,29.822c-.387.385-.793.791-1.124,1.122a2.968,2.968,0,0,1-2.759,0l-1.083-1.1a2.972,2.972,0,0,1,.1-2.731,2.727,2.727,0,0,1,3.533-1.1,4.84,4.84,0,0,1,1.4,1.664,3.993,3.993,0,0,1-.073,2.145" transform="translate(22.47 21.313)" fill="#1b1819"/>
      <path id="Trazado_614879" data-name="Trazado 614879" d="M23.325,23.313q.7-.685,1.3-1.275a2.832,2.832,0,0,1,2.479.005L28.361,23.3a2.837,2.837,0,0,1,.236,1.7,2.48,2.48,0,0,1-.265.8A3.876,3.876,0,0,1,27.2,26.918a2.644,2.644,0,0,1-1.343.369,2.118,2.118,0,0,1-1.33-.373c-.508-.442-1.166-.808-1.268-1.642a4.246,4.246,0,0,1,.062-1.959" transform="translate(19.17 17.991)" fill="#1b1819"/>
      <path id="Trazado_614880" data-name="Trazado 614880" d="M20.616,24.021l-.762-.762a23.1,23.1,0,0,1-2.532-.544,3.08,3.08,0,0,1-2-4.061.968.968,0,0,0,.005-.342A5.031,5.031,0,0,1,17.813,16.5V15.326l.612-.612h.7l.559.6v1.166a3.514,3.514,0,0,1,2.205,1.239,1.923,1.923,0,0,1,.318,1.48,1.659,1.659,0,0,1-.994.594c-.265-.331-.716-.548-.882-1.094A3.456,3.456,0,0,0,18,18.425a.966.966,0,0,0-.727.429,1.634,1.634,0,0,0-.307,1.29l.817.769a6.971,6.971,0,0,1,1.737.385,3.461,3.461,0,0,1,2.929,2.947c.007.307,0,.612,0,.736a4.068,4.068,0,0,1-2.737,2.666v1.2l-.725.543h-.608l-.512-.72v-1a3.921,3.921,0,0,1-2.174-1.226,2.576,2.576,0,0,1-.365-1.478c.263-.278.459-.683,1.051-.6.232.334.74.521.829,1.061.707.5,1.52.221,2.254.32.952-.537,1.083-.731,1.155-1.734" transform="translate(12.475 12.168)" fill="#1b1818"/>
      <path id="Trazado_614881" data-name="Trazado 614881" d="M30,28.042c-.026.027-.049.055-.077.082-.159.161-.32.32-.488.49h-.723l-.532-.707v-.59c.172-.119.418-.287.776-.532h.479c.13.183.3.426.565.8Z" transform="translate(23.303 22.15)" fill="#80b779"/>
      <path id="Trazado_614882" data-name="Trazado 614882" d="M24.145,23.8v-.473c.183-.128.428-.3.809-.565h.459l.561.581v.707l-.636.53h-.661c-.117-.17-.285-.417-.532-.78" transform="translate(19.967 18.822)" fill="#80b779"/>
    </g>
  </g>
</svg>
