<svg xmlns="http://www.w3.org/2000/svg" xmlns:xlink="http://www.w3.org/1999/xlink" width="128.984" height="141" viewBox="0 0 128.984 141"><defs><clipPath id="a"><rect width="128.984" height="141" fill="none"/></clipPath></defs><g clip-path="url(#a)"><path d="M92.575,106.225h37.208l1.353-1.426V8.939l-1.59-1.351H109.125C107.839,5.06,106.56,2.551,105.261,0H73.949a21.2,21.2,0,0,0-2.783,5.535A8.2,8.2,0,0,1,69.79,7.566H46.62c-.581.524-1.1.932-.885,1.7-.5.757-.248,1.607-.255,2.409-.032,3.4-.081,6.792,0,10.186.357,15.4-.627,30.791-.551,46.191.015,2.951-3.969,7.924-6.823,8.494a4.959,4.959,0,0,1-4.185-1.4,8.959,8.959,0,0,1-.94-2.969A6.365,6.365,0,0,0,22.2,69.49a16,16,0,0,0-2.036,2.594c-3.475,5.184-6.879,10.415-10.4,15.567-1.705,2.493-2.3,5.034-.655,7.7,1.59,2.577,4.087,3.209,6.949,2.806a2.923,2.923,0,0,1,2.386.249c.136.124.363.27.35.407-.391,4.1,2,7.243,3.61,10.658.433.917.7,2.055,1.573,2.534,2.742,1.511,4.9,3.832,7.549,5.39a15.591,15.591,0,0,1,4.115,3.026,5.727,5.727,0,0,0,6.981,1.7,7.526,7.526,0,0,1,5.585-.177c3.705,1.12,6.84.514,10.326-1.735,2.859-1.846,5.593-3.967,8.583-5.677,2.65-1.515,4.684-4,7.133-5.908a6.385,6.385,0,0,1,4.2-1.627c3.579.035,7.16.026,10.74,0,1.181-.008,2.412.127,3.393-.784" transform="translate(-2.151)" fill="#193651"/><path d="M90.424,109.555H73c-1.238,1.863-2.427,3.886-5.141,3.941a7.238,7.238,0,0,1-4.045,4.319H62.005c-.661,1.6-1.362,3.208-3.821,3.84H56.57c-1.154,1.014-1.854,2.5-3.677,3.354-.6.115-1.756-.349-2.634.524-2.267-1.022-4.99-.582-7.09-2.219a9.171,9.171,0,0,0-1.617.7c-.576.387-.908,1.22-1.805.958-.716-.21-1.1.494-1.4.527-2.95-.67-5.161-1.88-5.728-4.882H30.375c-1.655-.837-2.861-1.64-3.454-3.164a2.453,2.453,0,0,0-1.929-1.211,4.152,4.152,0,0,1-3.119-1.746,8.008,8.008,0,0,1-1.436-4.628,4.9,4.9,0,0,1-2.752-2.7,18.7,18.7,0,0,0-.029-2.711c-.13-.878.419-1.5.631-2.317l-2.21-1.963-3.736.939c-.57-.973-1.879-.074-2.836-.838a12.551,12.551,0,0,0-2.2-1.837c.132-1.172-.762-1.991-.686-3.127A5.782,5.782,0,0,1,7.575,92.4c3.918-5.9,7.818-11.813,11.781-17.683a8.117,8.117,0,0,1,3.816-3.167h3.046c2.619,1.608,2.822,1.909,3.454,2.858.976,1.462.576,3.088.711,4.623.966.458,1.865.949,2.812,1.315s1.944.607,3.1.957c1.981-2.407,5.051-3.946,7.288-6.919V12.6c-.76.008-.54.59-.543.988-.017,2.386-.008,4.773-.008,7.16V52.886c-2.091-.528-3.938.32-5.853.574a33.648,33.648,0,0,0-7.62,2.154,56.7,56.7,0,0,0-7.551,3.738,33.186,33.186,0,0,0-3.606,2.51,47.645,47.645,0,0,0-7.711,7.41A54.115,54.115,0,0,0,3.95,80.29,32.224,32.224,0,0,0,1.7,87.066,24.071,24.071,0,0,0,.6,94.6c-1.056,1.861-.363,3.887-.544,5.83-.117,1.247.924,2.332.545,3.626s.507,2.385.591,3.624a17.267,17.267,0,0,0,.789,3.516c.328,1.142.766,2.251,1.154,3.376A42.95,42.95,0,0,0,9.5,126c1.174,1.593,2.619,2.9,3.83,4.432a23.555,23.555,0,0,0,4.211,3.991,58.947,58.947,0,0,0,9.007,5.481c2.758,1.415,5.866,1.782,8.572,3.256,1.64-.369,3.209.335,4.7.664a37.739,37.739,0,0,0,7.51.41c1.145.024,2.344.324,3.453-.28,1.028-.56,2.347.208,3.153-.322,1.031-.678,2.377.032,3.176-1.023a29.79,29.79,0,0,0,10.529-3.844,39.806,39.806,0,0,0,9.547-6.876c2.065-2.149,4.43-4.054,6-6.614,1.246-2.034,2.75-3.905,3.6-6.217.636-1.735,1.595-3.365,2.336-5.087.622-1.446.773-2.978,1.306-4.418" transform="translate(0 -3.33)" fill="#4fbe9e"/><path d="M71.648,74.5c.065.157.145.455.192.449,1.8-.2,3.464.826,5.237.625.956-.109,1.525.847,2.535.625.722-.16,1.653-.353,2.236.505a28.684,28.684,0,0,1,4.177.469c1.69.105,3.255,1.032,4.995.646.454-.1.572.749,1.445.365,1.059-1.41,2.09-3.334,4.585-4.178a17.141,17.141,0,0,1,2.966.35c3.12,1.1,4.045,3.476,4.1,6.247.137,7.329.046,14.662.046,21.994,1.02,1.034,2.352.922,3.618.926q13.2.05,26.406,0c1.273,0,2.585.043,3.668-.881.936-1.163.851-2.57.853-3.932q.031-36.024,0-72.047a6.474,6.474,0,0,0-1.006-4.211c-2.444-.829-5.042-1.292-7.641.261.046.569-.867.741-.58,1.406-.365.4-1.09.177-1.335.789H84.117c-.56-.238-.751-1-1.449-1.093-.36-.73-.592-1.612-1.577-1.737-3.178-.4-6.354-.684-9.231.285a4.842,4.842,0,0,0-1.124,3.615q-.067,22.578-.008,45.155a4.6,4.6,0,0,0,.919,3.366" transform="translate(-18.695 -5.734)" fill="#fefefe"/><path d="M137.147,21.149h7.436c.413,2.416.575,70.61.181,79.882H111.247c-.545-.043-.468.358-.563.708-.911,3.373-3.665,4.826-6.931,3.713a3.549,3.549,0,0,0-1.084-.015c-.908-1.125-2.246-1.858-2.727-3.305-.975-.252-1.625.5-2.43.773a8.28,8.28,0,0,0,1.278,3.576h52.053v-90.7H134.466l2.681,5.373" transform="translate(-25.783 -4.171)" fill="#e0e5e8"/><path d="M28.387,124.565c1.168-1.177,3.126-.656,4.961-.736,1.732.989,1.732.989,2.439,2.326a23.034,23.034,0,0,1,3.362-1.731c1.2-.4,2.43.143,3.6.633a6.1,6.1,0,0,1,2.606,3.213v2.422l2.358,1.181c.429.83.9,1.741,1.483,2.87v2.66c1.008.115,1.526.986,2.27,1.574a9.8,9.8,0,0,1,1.63,2.348c-.113,1.259.349,2.8-.625,4.23a10.5,10.5,0,0,0,5.927.791c.379-.309.129-.707.16-.829l-4.3-4.3v-2.232c.594-1.109,1.562-.817,2.448-.805l4.869,4.868h2.331l.69-.689c-2.268-3.048-5.725-4.856-8.155-7.82.024-.791-.427-1.793,1.153-2.468a3.033,3.033,0,0,1,2.894,1.11c2.146,2.48,4.985,4.191,7.175,6.588,1.4.375,1.815-.822,2.529-1.346.152-2.135-1.919-2.048-2.7-3.165s-1.982-1.911-2.856-2.966c-.932-1.123-2.483-1.453-3.255-2.74v-2.089c.582-1.069,1.539-.882,2.494-.866,2.81,3.151,6.5,5.439,9.134,8.673,1.379.532,1.877-.529,2.643-1.2a5.492,5.492,0,0,0-1.838-4.621,20.041,20.041,0,0,0-4.186-3.779c-1.593-.957-2.446-2.867-4.265-3.679a4.648,4.648,0,0,1-1.372-1.334c-1.895-2.205-4.55-3.579-6.382-5.843-.43-.531-1.369-.05-1.411-.991-2.389.807-4.149,2.4-6.125,3.563-2.229,1.307-4.213,1.913-6.612.942-.157-.064-.363-.009-.3-.009-3.317-1.9-3.626-4.871-3.229-8.025l-5.093-2.041c-3.11,4.729-6.493,9.091-9.278,13.793l2.832,2.517" transform="translate(-6.757 -28.623)" fill="#fcbe5e"/><path d="M50.27,108.655V110.9l1.277,1.276a3.521,3.521,0,0,0,3.059-.694c2.2-1.342,4.344-2.791,6.534-4.158.645-.4,1.493-.443,2.1-1.15,6.4,4.793,11.988,10.544,18.391,15.615l5.5-2.391V102.545a4.534,4.534,0,0,0-3.053-.73c-.969.245-1.582-.682-2.529-.606a4.028,4.028,0,0,1-2.317-.352c-1.118-.569-2.643.157-3.824-.71-2.836.05-5.508-1.151-8.345-1.1-1.449-.975-3.335-.063-4.8-1.184-4.047,3.459-8.092,6.874-11.991,10.794" transform="translate(-13.292 -25.875)" fill="#fcbe5e"/><path d="M70.052,72.913V21.228H80.7c.1.02-.524,1.111.369,1-.16-2.428,1.114-4.394,2.171-6.535H64.67V72.164c1.726.365,3.488,1.024,5.382.75" transform="translate(-17.099 -4.15)" fill="#e0e5e8"/><path d="M130.838,16.6c-1.807-4.055-4.048-7.5-5.263-11.436H98.923c-1.406,1.949-5,10.006-5.084,11.436Z" transform="translate(-24.811 -1.366)" fill="#f06051"/><path d="M108.2,123.84l1.3-1.3v-23.3l-1.371-.928c-.414-.462-1.038-.325-1.657-.287l-.778.778c0,8.065,0,16.131,0,24.13.516,1.091,1.451.982,2.5.913" transform="translate(-27.947 -25.904)" fill="#fcfcfc"/><path d="M30.311,100.471c-.034-.939.223-1.819-.853-2.4H27.131L14.383,117.193v1.546l1.513,1.287c.513-.33,1.255-.352,1.756-1.074,4.029-5.806,8.022-11.635,11.8-17.609a6.228,6.228,0,0,1,.858-.872" transform="translate(-3.803 -25.93)" fill="#fdfdfd"/><path d="M33.037,143.555c-.083,1.395.6,1.871,1.817,1.776l8.619-7.431v-1.683c-.461-.5-.861-1.039-1.881-.722-2.691,2.564-5.978,4.824-8.555,8.059" transform="translate(-8.733 -35.801)" fill="#f7bb5d"/><path d="M41.294,149.582c-.216,1.417.867,1.762,1.524,2.489,2.866-1.354,4.47-3.985,6.607-5.752.6-1.813-.982-1.9-1.786-2.527a36.14,36.14,0,0,0-6.345,5.789" transform="translate(-10.911 -38.02)" fill="#f8bc5d"/><path d="M49.531,155.267v1.8l1.358,1.681c2.04-.339,2.808-2.289,4.588-2.756v-2.527c-.68-.246-1.281-1.042-2.442-.707-1.025.772-1.769,2.224-3.5,2.512" transform="translate(-13.096 -40.368)" fill="#f7bb5d"/><path d="M33.319,135.23c-.328-.205-.3-.8-.6-1.26H31.514c-.708,1.216-2.559,1.523-2.964,3.3a1.357,1.357,0,0,0,1.649,1.081l3.12-3.122" transform="translate(-7.549 -35.422)" fill="#edb55d"/><path d="M80.836,62.773,79.406,64.2c.326,3.228-.442,6.582.566,10.009,3.641,1.166,7.271.858,10.88.241,1.406-3.444.362-6.82.833-10.25l-1.866-1.43Z" transform="translate(-20.995 -16.597)" fill="#1b3852"/><path d="M91.618,46.012V37.175l-1.445-1.331H80.785l-1.242,1.713v8.527l1.535,1.3H90.25l1.367-1.367" transform="translate(-21.032 -9.477)" fill="#1a3752"/><path d="M112.293,68.016l-1.325,1.41c-.03.817-.314,1.776.812,2.4h29.7c1.134-.607.843-1.576.834-2.431l-1.344-1.381Z" transform="translate(-29.326 -17.984)" fill="#1b3852"/><path d="M140.991,44.927l1.32-1.491c.039-.733.3-1.683-.787-2.319H111.781c-1.111.6-.828,1.569-.825,2.439l1.353,1.371Z" transform="translate(-29.328 -10.872)" fill="#193651"/><path d="M144.93,98.736c1.078-.6.764-1.495.844-2.424L144.1,94.994c.207.04.038-.021-.132-.021-5.493-.005-10.987.023-16.48-.026a6.206,6.206,0,0,0-3.242.813.839.839,0,0,1-.429,1,4.281,4.281,0,0,0,1.219,1.974Z" transform="translate(-32.737 -25.105)" fill="#1b3853"/><path d="M148.4,116.636V120.4a26.528,26.528,0,0,0,3.76.168v-3.777a37.446,37.446,0,0,0-3.76-.155" transform="translate(-39.237 -30.839)" fill="#26415b"/><path d="M127.448,116.7H124.5l-.753.838v2.931h3.71a15.382,15.382,0,0,0-.006-3.768" transform="translate(-32.719 -30.855)" fill="#2a455e"/><path d="M140.209,117.458l-.68-.68h-3.012v3.666h3.692Z" transform="translate(-36.096 -30.877)" fill="#2a455e"/><path d="M89.071,68.079H84.845V71.8c1.3.229,2.724-.008,4.226.13Z" transform="translate(-22.433 -18)" fill="#f7f8f9"/><path d="M89.068,41.118H84.851v3.715c1.292.247,2.714-.013,4.217.141Z" transform="translate(-22.435 -10.872)" fill="#f7f8f9"/></g></svg>