<svg xmlns="http://www.w3.org/2000/svg" xmlns:xlink="http://www.w3.org/1999/xlink" width="169" height="169" viewBox="0 0 169 169">
  <defs>
    <filter id="Elipse_5165" x="0" y="0" width="169" height="169" filterUnits="userSpaceOnUse">
      <feOffset dy="6" input="SourceAlpha"/>
      <feGaussianBlur stdDeviation="5" result="blur"/>
      <feFlood flood-opacity="0.329"/>
      <feComposite operator="in" in2="blur"/>
      <feComposite in="SourceGraphic"/>
    </filter>
    <clipPath id="clip-path">
      <rect id="Rectángulo_325261" data-name="Rectángulo 325261" width="83.333" height="69.768" fill="none"/>
    </clipPath>
  </defs>
  <g id="Grupo_877360" data-name="Grupo 877360" transform="translate(-347.615 -830.631)">
    <g transform="matrix(1, 0, 0, 1, 347.62, 830.63)" filter="url(#Elipse_5165)">
      <circle id="Elipse_5165-2" data-name="Elipse 5165" cx="69.5" cy="69.5" r="69.5" transform="translate(15 9)" fill="#ffb500"/>
    </g>
    <g id="Grupo_876308" data-name="Grupo 876308" transform="translate(390.615 874.632)">
      <g id="Grupo_876307" data-name="Grupo 876307" transform="translate(0 -0.001)" clip-path="url(#clip-path)">
        <path id="Trazado_614504" data-name="Trazado 614504" d="M80.055,19.558c.471-.09.6-.592.973-.765v-3.7c.93-.2,1.958-.332,2.28-1.521,0-.809-.056-1.624.012-2.426a2.928,2.928,0,0,0-1.208-2.7H46.6V6.64c.672-.347,1.469-.533,1.921-1.425-.183-1.469.325-3.148-.35-4.747-.208-.248-.644-.1-.787-.468H1.174L.031,1.233c.192,1.422-.322,3,.366,4.5L2.29,6.64V20.385c-.294.493-.933.4-1.044.672a2.044,2.044,0,0,0-.226,1.174,2.152,2.152,0,0,0,1.27,1.026V41.631c-.387.211-.945-.09-1.205.654v1.323c.211.4.71.4,1.2.474V63.128c-.263.3-.737-.065-1,.335C1.115,63.711.9,64,.5,63.928c-.877,1.5-.211,3.145-.5,4.614l1.177,1.227H60.064c.232-.356.713-.5.8-.976.437-.979-.3-1.27-.942-1.617-5.249-.288-10.5-.037-15.756-.136-.7-.012-1.4.031-2.157-.034-.012-.542.409-.75.679-1.022,3.672-3.7,7.4-7.334,11.009-11.089a5.874,5.874,0,0,1,6.042-1.757,4.726,4.726,0,0,1,1.772,1.119c3.9,4,7.96,7.839,12,11.7a2.164,2.164,0,0,1,.595.778c-.424.548-1.007.307-1.5.316-2.327.037-4.66-.046-6.987.05-.982.04-2.107.155-1.5,1.7a.86.86,0,0,0,.573.964h17.5c.313-.353.669-.756,1.119-1.267-.161-1.354.316-2.919-.347-4.446l-1.9-.923V47.382c.583-.065.855-.567,1.258-.9v-.973c-.214-.555-.957-.418-1.255-1.119V29.473c.558-.105.858-.564,1.249-.933v-.973c-.214-.524-.908-.455-1.258-1V23.344c-.31-.347-.552-.654-1-.527-1.23-.592-1.5.273-1.71,1.162-.186.765.108,1.639-.536,2.293a2.039,2.039,0,0,1-1.394.322c-8.877,0-17.754.019-26.631-.025a4.154,4.154,0,0,1-2.408-.366,3.148,3.148,0,0,1,.152-2.934,2.612,2.612,0,0,0,.025-2.491,8.336,8.336,0,0,1-.307-4.855c.9-.592,1.8-.335,2.64-.446,8.539.112,17.082.015,25.621.053a5.622,5.622,0,0,1,2.339.245c.514.734.276,1.54.465,2.259.229.886.4,1.9,1.744,1.524" transform="translate(0 0.002)" fill="#040506"/>
        <path id="Trazado_614505" data-name="Trazado 614505" d="M45.072,16.576c.316.025.325-.192.325-.415V13.22c.325-.635.824-.561,1.3-.558V9.4c-.651-.186-.651-.186-1.345-.858V4.839h-28.9a2.361,2.361,0,0,0-.53,1.667c-.031,2.826-.04,5.652.006,8.477a2.181,2.181,0,0,0,.437,1.506,1.387,1.387,0,0,0,1.1.242q13.334.009,26.665,0a1.515,1.515,0,0,0,.945-.158" transform="translate(33.356 10.156)" fill="#2176bd"/>
        <path id="Trazado_614506" data-name="Trazado 614506" d="M29.055,31.732c.524.285,1.026.589.976,1.3h3.253c0-.273,0-.542,0-.815L33.8,31.7H44.226c.239-.35.062-.545-.149-.725-1.218-1.035-2.076-2.463-3.542-3.226-.576-1.484-2.16-1.943-3.108-3.071-1.007-1.2-2.2-2.249-3.309-3.362-1.072-1.075-2.15-2.144-3.213-3.229a2.753,2.753,0,0,0-1.85-1.035c-.837-.133-1.27.493-1.754.973q-5.8,5.782-11.567,11.594c-.48.483-1.044.936-1.041,1.738a4.181,4.181,0,0,0,2.1.192c3.563.022,7.126,0,10.69.019.521,0,1.075-.174,1.571.158" transform="translate(30.835 35.758)" fill="#655a67"/>
        <path id="Trazado_614507" data-name="Trazado 614507" d="M21.162,41.551c.471-.09.666-.521.961-.815q5.707-5.689,11.393-11.409V12.379a.826.826,0,0,0-.1-.112.252.252,0,0,0-.139-.059c-3.461,0-6.922,0-10.439,0v6.274a2.686,2.686,0,0,1-2.677,1.549c-1.246.009-2.488,0-3.724,0-.167-.431-.66-.266-.926-.583a2.843,2.843,0,0,1-.861-1.933c.028-1.732.009-3.464.009-5.311H8.151a2.554,2.554,0,0,0-.527,1.831c-.019,4.452-.028,8.9.006,13.351a2.58,2.58,0,0,0,.654,1.964c2.036.762,4.394-.208,6.556.576a1.937,1.937,0,0,1,.936,1.927c.022,1.89.046,3.78-.006,5.67-.046,1.583-.555,2.082-2.178,2.194-1.236.084-2.479,0-3.718.043-.685.028-1.425-.059-1.912.62a1.135,1.135,0,0,0,.372,1.332c4.174-.112,8.5.2,12.828-.164" transform="translate(15.964 25.613)" fill="#faac72"/>
        <path id="Trazado_614508" data-name="Trazado 614508" d="M6.357,2.038c.053.335-.524.412-.325.8-.772.666-1.707.483-2.6.5A2.525,2.525,0,0,0,2.9,5.165q-.033,5.187,0,10.377a2.525,2.525,0,0,0,.53,1.822H37.735c.232-1.311.3-9.9.105-13.974H10.447c-.266-.406-.747-.552-.837-1.026-.982-1.14-2.088-1.019-3.253-.325" transform="translate(6.049 3.172)" fill="#ffc900"/>
        <path id="Trazado_614509" data-name="Trazado 614509" d="M11.239,25.728V21.49A4.54,4.54,0,0,1,12.7,19.572H37.83V7.469H3.434a2.744,2.744,0,0,0-.539,2q-.023,7.171,0,14.346a2.765,2.765,0,0,0,.589,2.008,53.716,53.716,0,0,0,7.752-.09" transform="translate(6.047 15.675)" fill="#ffc900"/>
        <path id="Trazado_614510" data-name="Trazado 614510" d="M16.492,15.337c1.655.13,2.268.737,2.274,2.293.009,2.333,0,4.666,0,7,1.512.263,18.582.347,26.6.13V9.469H16.492a7.3,7.3,0,0,0,0,5.868" transform="translate(33.316 19.872)" fill="#2276bd"/>
        <path id="Trazado_614511" data-name="Trazado 614511" d="M39.339,31.145H43.4V15.281H16.826V20c.381.164.4-.332.644-.446a3.559,3.559,0,0,0,.8-.434,7.65,7.65,0,0,1,3.842-1.308,8.684,8.684,0,0,1,4.865,1.215,6.059,6.059,0,0,1,1.218.961q5.587,5.573,11.142,11.161" transform="translate(35.309 32.068)" fill="#2276bd"/>
        <path id="Trazado_614512" data-name="Trazado 614512" d="M3.434,33.343h7.805V14.43c-2.584-.347-5.171-.065-7.635-.158a2.424,2.424,0,0,0-.7,2.079q-.042,7.5-.006,15a2.744,2.744,0,0,0,.539,2" transform="translate(6.047 29.907)" fill="#ffc900"/>
        <path id="Trazado_614513" data-name="Trazado 614513" d="M17.8,29.485c0-.449-.347-.319-.583-.322-2.157-.006-4.313,0-6.572,0V12.2H6.592a.546.546,0,0,0-.115.108.272.272,0,0,0-.056.139q0,14.636,0,29.281c.394.285.837.133,1.246.133q7.543.019,15.086-.006c.3,0,.793.322.9-.31h-12.9c-.214-.455-.05-.889-.105-1.3-1.862-.846-2.287-2.37-2.129-4.263.112-1.348.015-2.711.034-4.065A1.72,1.72,0,0,1,10.462,30c1.785-.043,3.573.006,5.357-.031.688-.012,1.425.09,1.983-.486" transform="translate(13.468 25.613)" fill="#f69657"/>
        <path id="Trazado_614514" data-name="Trazado 614514" d="M6.325,33.45V14.536H14.13c0-.446-.344-.319-.579-.319-3.882-.006-7.765-.006-11.616-.006-.146.146-.26.26-.431.434v18.8Z" transform="translate(3.156 29.801)" fill="#ffb700"/>
        <path id="Trazado_614515" data-name="Trazado 614515" d="M14.17,25.728H6.365V7.469h-4.7a.771.771,0,0,0-.118.105.256.256,0,0,0-.059.136q0,9.1,0,18.2c.394.282.837.13,1.246.13q5.35.023,10.7,0c.26,0,.688.229.744-.316" transform="translate(3.116 15.675)" fill="#ffb700"/>
        <path id="Trazado_614516" data-name="Trazado 614516" d="M32.3,31.952c-.059-.545-.483-.316-.744-.316-3.957-.015-7.91-.009-11.864-.009H17.822c.468-.468.781-.784,1.1-1.1q6.144-6.163,12.3-12.32c.332-.335.579-.781,1.075-.93.025-.319-.2-.322-.418-.325-.7,0-1.41.04-2.11-.009a3.979,3.979,0,0,0-3.182,1.342Q19.86,25.005,13.15,31.744c.211.056-.09-.065.031.115a.189.189,0,0,0,.121.09q9.5,0,18.994,0" transform="translate(27.595 35.537)" fill="#554c56"/>
        <path id="Trazado_614517" data-name="Trazado 614517" d="M6.4,16.123V2.1H1.693a137.938,137.938,0,0,0-.112,14.021Z" transform="translate(3.079 4.413)" fill="#ffb700"/>
        <path id="Trazado_614518" data-name="Trazado 614518" d="M7.03,3.555c.753,0,1.512.053,2.256-.022.428-.04.648.291,1,.347V3.062c.266-.26.536-.524.827-.812H40.527A1.629,1.629,0,0,0,40.493.788H2.958A1.022,1.022,0,0,0,2.8,2.25c.632,0,1.267.043,1.9-.012A3.361,3.361,0,0,1,6.6,2.65c.136.288.282.595.428.9" transform="translate(5.377 1.655)" fill="#fdb600"/>
        <path id="Trazado_614519" data-name="Trazado 614519" d="M46.9,16.576H18.278V4.839H15.034c-.015,1.918,0,3.839-.009,5.751a1.489,1.489,0,0,1,.967.607v1.289a1.21,1.21,0,0,1-.917.573V16.8c.35.242.793.093,1.205.093q14.691.019,29.389-.012c.39,0,.976.394,1.23-.3" transform="translate(31.529 10.156)" fill="#1863ae"/>
        <path id="Trazado_614520" data-name="Trazado 614520" d="M16.25,5H47.467c-.139-.5.366-1.032-.322-1.3a1.8,1.8,0,0,0-1.1-.155q-14.334,0-28.667,0a1.8,1.8,0,0,0-1.125.161.942.942,0,0,0,0,1.3" transform="translate(33.558 7.391)" fill="#1864ae"/>
        <path id="Trazado_614521" data-name="Trazado 614521" d="M6.426,2.333V1.193c1.453-.248,31.8-.341,37.643-.115.2.4.025.84.084,1.255.651-.415.136-1.029.4-1.583H1c-.26.434,0,.967-.164,1.583Z" transform="translate(1.754 1.575)" fill="#e4a400"/>
        <path id="Trazado_614522" data-name="Trazado 614522" d="M18.278,15.337V9.469H15.2a.975.975,0,0,0-.115.112.267.267,0,0,0-.053.139c0,1.834,0,3.672,0,5.618Z" transform="translate(31.529 19.872)" fill="#1864ae"/>
        <path id="Trazado_614523" data-name="Trazado 614523" d="M18.325,5.1V3.954a.746.746,0,0,1,.115-.1.292.292,0,0,1,.139-.05q15.319,0,30.641,0a.249.249,0,0,0-.254-.319c-.486-.019-.973-.006-1.459-.006H15.217C14.9,3.957,15.183,4.49,15,5.1Z" transform="translate(31.483 7.283)" fill="#1157a4"/>
        <path id="Trazado_614524" data-name="Trazado 614524" d="M6.361,21.255H.867v1.63h1.41c4.1,0,8.192.009,12.289-.015.294,0,.79.322.9-.31a2.726,2.726,0,0,0-1.971-.5c-1.658-.019-3.312.012-4.97-.019a2.4,2.4,0,0,1-2.166-.784" transform="translate(1.819 44.605)" fill="#e4a400"/>
        <path id="Trazado_614525" data-name="Trazado 614525" d="M2.64,21.255v1.131a.634.634,0,0,0,.108.115.262.262,0,0,0,.136.056q4.429,0,8.862,0V21.429a.764.764,0,0,0-.108-.115.262.262,0,0,0-.136-.056q-4.429,0-8.862,0" transform="translate(5.54 44.605)" fill="#fcb400"/>
        <path id="Trazado_614526" data-name="Trazado 614526" d="M12.356,12.2H10.779a22.147,22.147,0,0,0-.046,2.528c-.015.858,0,1.72,0,2.689h1.627a5.976,5.976,0,0,0,0-5.218" transform="translate(22.493 25.613)" fill="#e13448"/>
        <path id="Trazado_614527" data-name="Trazado 614527" d="M11.247,12.211v5.218H12.5a22.148,22.148,0,0,0,.046-2.528c.015-.858,0-1.72,0-2.584-.452-.217-.886-.046-1.3-.105" transform="translate(23.601 25.608)" fill="#e44c5e"/>
        <path id="Trazado_614528" data-name="Trazado 614528" d="M26.561,22.8h1.884V21.275H25.04c.462.462.939.942,1.521,1.524" transform="translate(52.546 44.646)" fill="#135ea6"/>
        <path id="Trazado_614529" data-name="Trazado 614529" d="M18.865,19.651c-.164.384-.843.1-.9.508-.341.446-.155.83-.214,1.23l.871.784h1.94c.22-.232.508-.533.737-.775.229-.607-.322-.914-.341-1.376a2.485,2.485,0,0,0-2.095-.372" transform="translate(37.254 41.059)" fill="#0b0a0b"/>
        <path id="Trazado_614530" data-name="Trazado 614530" d="M20.692,22.053c.449.266.8.474,1.212.719h1.27c.2-.239.449-.521.753-.874V20.634c-.146-.146-.26-.26-.415-.418H21.476c-.2.2-.431.434-.685.688-.192.316-.043.7-.1,1.15" transform="translate(43.415 42.424)" fill="#0a090a"/>
        <path id="Trazado_614531" data-name="Trazado 614531" d="M19.528,18.326c-.167.167-.279.282-.4.4v1.162c.27,1.007,1.236.31,1.444,1.122.555-.5,1.3-.3,1.735-.92V18.723c-.108-.112-.223-.226-.394-.4Z" transform="translate(40.146 38.458)" fill="#080708"/>
        <path id="Trazado_614532" data-name="Trazado 614532" d="M16.7,17.785q-3.741,0-7.48,0a2.6,2.6,0,0,0-1.8.394c-.245.167-.115.6-.48.744q0,3.5,0,7c0,1.992.6,2.59,2.6,2.624h6.563a2.956,2.956,0,0,0,1.565-1.292V18.591c-.356-.232-.5-.716-.973-.806" transform="translate(14.569 37.313)" fill="#060606"/>
        <path id="Trazado_614533" data-name="Trazado 614533" d="M13.316,24.352c.316.025.322-.2.322-.418v-5.4H7.791c-.012,1.862,0,3.783-.009,5.816h2.6c.672-.781.446-1.732.49-2.627a5.545,5.545,0,0,1,.2-2,1.16,1.16,0,0,1,1.413-.2c.843,1.524-.248,3.368.827,4.824" transform="translate(16.33 38.899)" fill="#efecf0"/>
        <path id="Trazado_614534" data-name="Trazado 614534" d="M11.553,24.171V18.665c-.936-.077-1.881-.019-2.931-.043v5.549Z" transform="translate(18.093 39.079)" fill="#fafafb"/>
      </g>
    </g>
  </g>
</svg>
