<svg xmlns="http://www.w3.org/2000/svg" xmlns:xlink="http://www.w3.org/1999/xlink" width="1048" height="303" viewBox="0 0 1048 303">
  <defs>
    <filter id="accountant-calculating-profit-with-financial-analysis-graphs" x="0" y="0" width="1048" height="303" filterUnits="userSpaceOnUse">
      <feOffset dy="3" input="SourceAlpha"/>
      <feGaussianBlur stdDeviation="3" result="blur"/>
      <feFlood flood-opacity="0.161"/>
      <feComposite operator="in" in2="blur"/>
      <feComposite in="SourceGraphic"/>
    </filter>
    <filter id="Rectángulo_325312" x="796" y="205" width="149" height="66" filterUnits="userSpaceOnUse">
      <feOffset dy="3" input="SourceAlpha"/>
      <feGaussianBlur stdDeviation="3" result="blur-2"/>
      <feFlood flood-opacity="0.161"/>
      <feComposite operator="in" in2="blur-2"/>
      <feComposite in="SourceGraphic"/>
    </filter>
    <filter id="Rectángulo_325312-2" x="449" y="205" width="149" height="66" filterUnits="userSpaceOnUse">
      <feOffset dy="3" input="SourceAlpha"/>
      <feGaussianBlur stdDeviation="3" result="blur-3"/>
      <feFlood flood-opacity="0.161"/>
      <feComposite operator="in" in2="blur-3"/>
      <feComposite in="SourceGraphic"/>
    </filter>
    <filter id="Rectángulo_325312-3" x="106" y="205" width="149" height="66" filterUnits="userSpaceOnUse">
      <feOffset dy="3" input="SourceAlpha"/>
      <feGaussianBlur stdDeviation="3" result="blur-4"/>
      <feFlood flood-opacity="0.161"/>
      <feComposite operator="in" in2="blur-4"/>
      <feComposite in="SourceGraphic"/>
    </filter>
    <filter id="Rectángulo_325312-4" x="622" y="205" width="149" height="66" filterUnits="userSpaceOnUse">
      <feOffset dy="3" input="SourceAlpha"/>
      <feGaussianBlur stdDeviation="3" result="blur-5"/>
      <feFlood flood-opacity="0.161"/>
      <feComposite operator="in" in2="blur-5"/>
      <feComposite in="SourceGraphic"/>
    </filter>
    <filter id="Rectángulo_325312-5" x="278" y="205" width="149" height="66" filterUnits="userSpaceOnUse">
      <feOffset dy="3" input="SourceAlpha"/>
      <feGaussianBlur stdDeviation="3" result="blur-6"/>
      <feFlood flood-opacity="0.161"/>
      <feComposite operator="in" in2="blur-6"/>
      <feComposite in="SourceGraphic"/>
    </filter>
    <clipPath id="clip-path">
      <rect id="Rectángulo_326167" data-name="Rectángulo 326167" width="98.087" height="98.088" fill="none"/>
    </clipPath>
    <clipPath id="clip-path-2">
      <rect id="Rectángulo_326173" data-name="Rectángulo 326173" width="49.032" height="49.019" fill="none"/>
    </clipPath>
    <clipPath id="clip-path-3">
      <rect id="Rectángulo_326175" data-name="Rectángulo 326175" width="49.643" height="49.654" fill="none"/>
    </clipPath>
    <clipPath id="clip-path-4">
      <rect id="Rectángulo_326198" data-name="Rectángulo 326198" width="52.073" height="52.019" fill="none"/>
    </clipPath>
    <clipPath id="clip-path-5">
      <rect id="Rectángulo_326199" data-name="Rectángulo 326199" width="43.847" height="43.931" fill="none"/>
    </clipPath>
    <clipPath id="clip-path-6">
      <rect id="Rectángulo_326200" data-name="Rectángulo 326200" width="56.301" height="56.369" fill="none"/>
    </clipPath>
  </defs>
  <g id="Grupo_877368" data-name="Grupo 877368" transform="translate(-275.615 -496.631)">
    <g transform="matrix(1, 0, 0, 1, 275.62, 496.63)" filter="url(#accountant-calculating-profit-with-financial-analysis-graphs)">
      <rect id="accountant-calculating-profit-with-financial-analysis-graphs-2" data-name="accountant-calculating-profit-with-financial-analysis-graphs" width="1030" height="285" rx="20" transform="translate(9 6)" fill="#f6f6f6"/>
    </g>
    <g id="Grupo_876344" data-name="Grupo 876344" transform="translate(491 49)">
      <g transform="matrix(1, 0, 0, 1, -215.38, 447.63)" filter="url(#Rectángulo_325312)">
        <rect id="Rectángulo_325312-6" data-name="Rectángulo 325312" width="131" height="48" rx="20" transform="translate(805 211)" fill="#fff"/>
      </g>
      <path id="Trazado_617050" data-name="Trazado 617050" d="M7.859-4.648h-4.5V0H1.016V-11.375H8.422v1.9H3.359v2.938h4.5ZM12.016,0H9.75V-12h2.266Zm6.922-.859A2.831,2.831,0,0,1,16.625.156a2.67,2.67,0,0,1-2.074-.781,3.335,3.335,0,0,1-.73-2.289V-8.453h2.258v5.467q0,1.322,1.2,1.322a1.63,1.63,0,0,0,1.578-.8V-8.453h2.266V0H19Zm6.281-7.594V.461a3.024,3.024,0,0,1-.742,2.176,2.821,2.821,0,0,1-2.141.777,4.591,4.591,0,0,1-1.117-.133V1.492a4.238,4.238,0,0,0,.711.07q1.023,0,1.023-1.086v-8.93Zm-2.445-2.187a1.112,1.112,0,0,1,.34-.836,1.277,1.277,0,0,1,.926-.328,1.277,1.277,0,0,1,.926.328,1.112,1.112,0,0,1,.34.836,1.108,1.108,0,0,1-.348.844,1.283,1.283,0,0,1-.918.328,1.283,1.283,0,0,1-.918-.328A1.108,1.108,0,0,1,22.773-10.641ZM26.633-4.3a5.013,5.013,0,0,1,.484-2.242A3.546,3.546,0,0,1,28.512-8.07a4.069,4.069,0,0,1,2.113-.539,3.849,3.849,0,0,1,2.793,1.047,4.2,4.2,0,0,1,1.207,2.844l.016.578A4.418,4.418,0,0,1,33.555-1.02,3.775,3.775,0,0,1,30.641.156a3.793,3.793,0,0,1-2.918-1.172A4.5,4.5,0,0,1,26.633-4.2Zm2.258.16A3.16,3.16,0,0,0,29.344-2.3a1.5,1.5,0,0,0,1.3.638,1.5,1.5,0,0,0,1.281-.63,3.457,3.457,0,0,0,.461-2.015,3.128,3.128,0,0,0-.461-1.831,1.5,1.5,0,0,0-1.3-.649,1.474,1.474,0,0,0-1.281.646A3.516,3.516,0,0,0,28.891-4.144Zm10.773-.145a5.094,5.094,0,0,1,.887-3.148,2.877,2.877,0,0,1,2.426-1.172,2.589,2.589,0,0,1,2.039.922V-12h2.266V0H45.242l-.109-.9A2.657,2.657,0,0,1,42.961.156,2.869,2.869,0,0,1,40.566-1.02,5.258,5.258,0,0,1,39.664-4.289Zm2.258.168A3.337,3.337,0,0,0,42.336-2.3a1.349,1.349,0,0,0,1.2.634,1.511,1.511,0,0,0,1.477-.884V-5.889a1.489,1.489,0,0,0-1.461-.884Q41.922-6.773,41.922-4.121Zm11,4.277A4.15,4.15,0,0,1,49.895-.984a4.054,4.054,0,0,1-1.168-3.039v-.219a5.106,5.106,0,0,1,.492-2.277,3.612,3.612,0,0,1,1.395-1.547,3.914,3.914,0,0,1,2.059-.543A3.508,3.508,0,0,1,55.4-7.516a4.444,4.444,0,0,1,1,3.1v.922H51.016a2.1,2.1,0,0,0,.66,1.328,2,2,0,0,0,1.395.5,2.437,2.437,0,0,0,2.039-.945l1.109,1.242A3.389,3.389,0,0,1,54.844-.246,4.511,4.511,0,0,1,52.922.156Zm-.258-6.945a1.411,1.411,0,0,0-1.09.455,2.357,2.357,0,0,0-.535,1.3H54.18v-.181a1.681,1.681,0,0,0-.406-1.165A1.456,1.456,0,0,0,52.664-6.789ZM62.281,0V-6.8H61.023V-8.453h1.258v-.719a2.918,2.918,0,0,1,.816-2.207,3.162,3.162,0,0,1,2.285-.785,5.278,5.278,0,0,1,1.148.156l-.023,1.75a2.878,2.878,0,0,0-.687-.07q-1.273,0-1.273,1.2v.68h1.68V-6.8h-1.68V0Zm4.766-4.3a5.013,5.013,0,0,1,.484-2.242A3.546,3.546,0,0,1,68.926-8.07a4.069,4.069,0,0,1,2.113-.539,3.849,3.849,0,0,1,2.793,1.047,4.2,4.2,0,0,1,1.207,2.844l.016.578A4.418,4.418,0,0,1,73.969-1.02,3.775,3.775,0,0,1,71.055.156a3.793,3.793,0,0,1-2.918-1.172A4.5,4.5,0,0,1,67.047-4.2Zm2.258.16A3.16,3.16,0,0,0,69.758-2.3a1.5,1.5,0,0,0,1.3.638,1.5,1.5,0,0,0,1.281-.63A3.457,3.457,0,0,0,72.8-4.309a3.128,3.128,0,0,0-.461-1.831,1.5,1.5,0,0,0-1.3-.649,1.474,1.474,0,0,0-1.281.646A3.516,3.516,0,0,0,69.3-4.144Zm9.219-4.309.07.977a2.951,2.951,0,0,1,2.43-1.133,2.453,2.453,0,0,1,2,.789A3.682,3.682,0,0,1,83.7-5.461V0H81.438V-5.406a1.465,1.465,0,0,0-.312-1.043,1.4,1.4,0,0,0-1.039-.324,1.553,1.553,0,0,0-1.43.813V0H76.4V-8.453Zm6.531,4.164a5.094,5.094,0,0,1,.887-3.148,2.877,2.877,0,0,1,2.426-1.172,2.589,2.589,0,0,1,2.039.922V-12h2.266V0H90.633l-.109-.9A2.657,2.657,0,0,1,88.352.156,2.869,2.869,0,0,1,85.957-1.02,5.258,5.258,0,0,1,85.055-4.289Zm2.258.168A3.337,3.337,0,0,0,87.727-2.3a1.349,1.349,0,0,0,1.2.634,1.511,1.511,0,0,0,1.477-.884V-5.889a1.489,1.489,0,0,0-1.461-.884Q87.313-6.773,87.313-4.121ZM94.07-4.3a5.013,5.013,0,0,1,.484-2.242A3.546,3.546,0,0,1,95.949-8.07a4.069,4.069,0,0,1,2.113-.539,3.849,3.849,0,0,1,2.793,1.047,4.2,4.2,0,0,1,1.207,2.844l.016.578a4.418,4.418,0,0,1-1.086,3.121A3.775,3.775,0,0,1,98.078.156,3.793,3.793,0,0,1,95.16-1.016,4.5,4.5,0,0,1,94.07-4.2Zm2.258.16A3.16,3.16,0,0,0,96.781-2.3a1.5,1.5,0,0,0,1.3.638,1.5,1.5,0,0,0,1.281-.63,3.457,3.457,0,0,0,.461-2.015,3.128,3.128,0,0,0-.461-1.831,1.5,1.5,0,0,0-1.3-.649,1.474,1.474,0,0,0-1.281.646A3.516,3.516,0,0,0,96.328-4.144Zm11.719,1.808a.727.727,0,0,0-.41-.652,4.659,4.659,0,0,0-1.316-.426Q103.3-4.047,103.3-5.977a2.323,2.323,0,0,1,.934-1.879,3.766,3.766,0,0,1,2.441-.754,4.053,4.053,0,0,1,2.574.758,2.388,2.388,0,0,1,.965,1.969h-2.258a1.092,1.092,0,0,0-.312-.8A1.322,1.322,0,0,0,106.672-7a1.351,1.351,0,0,0-.883.258.814.814,0,0,0-.312.656.7.7,0,0,0,.355.605,3.657,3.657,0,0,0,1.2.4,9.8,9.8,0,0,1,1.422.379,2.336,2.336,0,0,1,1.789,2.273,2.2,2.2,0,0,1-.992,1.871,4.28,4.28,0,0,1-2.562.715A4.47,4.47,0,0,1,104.8-.223a3.166,3.166,0,0,1-1.293-1.039,2.414,2.414,0,0,1-.469-1.426h2.141a1.179,1.179,0,0,0,.445.922,1.766,1.766,0,0,0,1.109.32,1.635,1.635,0,0,0,.98-.246A.766.766,0,0,0,108.047-2.336Z" transform="translate(599.615 689.631)" fill="#12263f"/>
    </g>
    <g id="Grupo_876346" data-name="Grupo 876346" transform="translate(144 49)">
      <g transform="matrix(1, 0, 0, 1, 131.62, 447.63)" filter="url(#Rectángulo_325312-2)">
        <rect id="Rectángulo_325312-7" data-name="Rectángulo 325312" width="131" height="48" rx="20" transform="translate(458 211)" fill="#fff"/>
      </g>
      <path id="Trazado_617048" data-name="Trazado 617048" d="M3.359-1.883H8.336V0H1.016V-11.375H3.359ZM11.914,0H9.648V-8.453h2.266Zm-2.4-10.641a1.112,1.112,0,0,1,.34-.836,1.277,1.277,0,0,1,.926-.328,1.28,1.28,0,0,1,.922.328,1.105,1.105,0,0,1,.344.836A1.108,1.108,0,0,1,11.7-9.8a1.283,1.283,0,0,1-.918.328A1.283,1.283,0,0,1,9.863-9.8,1.108,1.108,0,0,1,9.516-10.641ZM13.422-4.3a5.053,5.053,0,0,1,.887-3.148,2.9,2.9,0,0,1,2.434-1.156A2.6,2.6,0,0,1,18.906-7.57l.148-.883h1.984V3.25H18.773V-.727a2.6,2.6,0,0,1-2.047.883A2.878,2.878,0,0,1,14.32-1.016,5.3,5.3,0,0,1,13.422-4.3Zm2.258.16A3.315,3.315,0,0,0,16.105-2.3a1.363,1.363,0,0,0,1.2.634,1.518,1.518,0,0,0,1.469-.829v-3.5a1.506,1.506,0,0,0-1.453-.8,1.38,1.38,0,0,0-1.211.634A3.661,3.661,0,0,0,15.68-4.144Zm12.2,3.285A2.831,2.831,0,0,1,25.563.156a2.67,2.67,0,0,1-2.074-.781,3.335,3.335,0,0,1-.73-2.289V-8.453h2.258v5.467q0,1.322,1.2,1.322a1.63,1.63,0,0,0,1.578-.8V-8.453h2.266V0H27.938ZM34.148,0H31.883V-8.453h2.266Zm-2.4-10.641a1.112,1.112,0,0,1,.34-.836,1.277,1.277,0,0,1,.926-.328,1.28,1.28,0,0,1,.922.328,1.105,1.105,0,0,1,.344.836,1.108,1.108,0,0,1-.348.844,1.283,1.283,0,0,1-.918.328A1.283,1.283,0,0,1,32.1-9.8,1.108,1.108,0,0,1,31.75-10.641Zm3.906,6.352a5.094,5.094,0,0,1,.887-3.148,2.877,2.877,0,0,1,2.426-1.172,2.589,2.589,0,0,1,2.039.922V-12h2.266V0H41.234l-.109-.9A2.657,2.657,0,0,1,38.953.156,2.869,2.869,0,0,1,36.559-1.02,5.258,5.258,0,0,1,35.656-4.289Zm2.258.168A3.337,3.337,0,0,0,38.328-2.3a1.349,1.349,0,0,0,1.2.634,1.511,1.511,0,0,0,1.477-.884V-5.889a1.489,1.489,0,0,0-1.461-.884Q37.914-6.773,37.914-4.121Zm11,4.277A4.15,4.15,0,0,1,45.887-.984a4.054,4.054,0,0,1-1.168-3.039v-.219a5.106,5.106,0,0,1,.492-2.277,3.612,3.612,0,0,1,1.395-1.547,3.914,3.914,0,0,1,2.059-.543,3.508,3.508,0,0,1,2.73,1.094,4.444,4.444,0,0,1,1,3.1v.922H47.008a2.1,2.1,0,0,0,.66,1.328,2,2,0,0,0,1.395.5A2.437,2.437,0,0,0,51.1-2.609l1.109,1.242A3.389,3.389,0,0,1,50.836-.246,4.511,4.511,0,0,1,48.914.156Zm-.258-6.945a1.411,1.411,0,0,0-1.09.455,2.357,2.357,0,0,0-.535,1.3h3.141v-.181a1.681,1.681,0,0,0-.406-1.165A1.456,1.456,0,0,0,48.656-6.789ZM56.266-1.82H60.4V0H53.383V-1.375l3.977-5.258H53.5v-1.82h6.773v1.33Z" transform="translate(624.615 689.631)" fill="#12263f"/>
    </g>
    <g id="Grupo_876348" data-name="Grupo 876348" transform="translate(-199 49)">
      <g transform="matrix(1, 0, 0, 1, 474.62, 447.63)" filter="url(#Rectángulo_325312-3)">
        <rect id="Rectángulo_325312-8" data-name="Rectángulo 325312" width="131" height="48" rx="20" transform="translate(115 211)" fill="#fff"/>
      </g>
      <path id="Trazado_617046" data-name="Trazado 617046" d="M5.227-4.164H3.359V0H1.016V-11.375H5.242a4.778,4.778,0,0,1,3.109.9A3.1,3.1,0,0,1,9.445-7.937,3.5,3.5,0,0,1,8.941-6,3.437,3.437,0,0,1,7.414-4.758L9.875-.109V0H7.359Zm-1.867-1.9H5.25a1.936,1.936,0,0,0,1.367-.449A1.606,1.606,0,0,0,7.1-7.75a1.719,1.719,0,0,0-.457-1.266,1.9,1.9,0,0,0-1.4-.461H3.359ZM14.969.156A4.15,4.15,0,0,1,11.941-.984a4.054,4.054,0,0,1-1.168-3.039v-.219a5.106,5.106,0,0,1,.492-2.277A3.612,3.612,0,0,1,12.66-8.066a3.914,3.914,0,0,1,2.059-.543,3.508,3.508,0,0,1,2.73,1.094,4.444,4.444,0,0,1,1,3.1v.922H13.063a2.1,2.1,0,0,0,.66,1.328,2,2,0,0,0,1.395.5,2.437,2.437,0,0,0,2.039-.945l1.109,1.242A3.389,3.389,0,0,1,16.891-.246,4.511,4.511,0,0,1,14.969.156Zm-.258-6.945a1.411,1.411,0,0,0-1.09.455,2.357,2.357,0,0,0-.535,1.3h3.141v-.181a1.681,1.681,0,0,0-.406-1.165A1.456,1.456,0,0,0,14.711-6.789ZM21.8-8.453l.07.977A2.951,2.951,0,0,1,24.3-8.609a2.453,2.453,0,0,1,2,.789,3.682,3.682,0,0,1,.672,2.359V0H24.719V-5.406a1.465,1.465,0,0,0-.312-1.043,1.4,1.4,0,0,0-1.039-.324,1.553,1.553,0,0,0-1.43.813V0H19.68V-8.453Zm9.586-2.078v2.078h1.445V-6.8H31.391v4.219a1.007,1.007,0,0,0,.18.672.9.9,0,0,0,.688.2,3.6,3.6,0,0,0,.664-.055V-.047a4.648,4.648,0,0,1-1.367.2,2.156,2.156,0,0,1-2.422-2.4V-6.8H27.9V-8.453h1.234v-2.078ZM38.992,0a2.507,2.507,0,0,1-.227-.758,2.732,2.732,0,0,1-2.133.914,3,3,0,0,1-2.059-.719,2.312,2.312,0,0,1-.816-1.812,2.389,2.389,0,0,1,1-2.062,4.915,4.915,0,0,1,2.879-.727h1.039v-.484a1.393,1.393,0,0,0-.3-.937,1.183,1.183,0,0,0-.949-.352,1.345,1.345,0,0,0-.895.273.929.929,0,0,0-.324.75H33.945A2.268,2.268,0,0,1,34.4-7.273a3,3,0,0,1,1.281-.98,4.669,4.669,0,0,1,1.859-.355,3.689,3.689,0,0,1,2.48.785,2.747,2.747,0,0,1,.918,2.207v3.664a4.041,4.041,0,0,0,.336,1.82V0ZM37.125-1.57a1.945,1.945,0,0,0,.922-.223,1.462,1.462,0,0,0,.625-.6V-3.844h-.844q-1.7,0-1.8,1.172l-.008.133a.9.9,0,0,0,.3.7A1.153,1.153,0,0,0,37.125-1.57ZM50.289-4.148A5.119,5.119,0,0,1,49.422-.98,2.872,2.872,0,0,1,47,.156,2.639,2.639,0,0,1,44.8-.9l-.1.9H42.672V-12H44.93v4.3a2.571,2.571,0,0,1,2.055-.914A2.9,2.9,0,0,1,49.41-7.473a5.126,5.126,0,0,1,.879,3.2Zm-2.258-.164a3.363,3.363,0,0,0-.406-1.871,1.374,1.374,0,0,0-1.211-.59,1.489,1.489,0,0,0-1.484.883v3.336a1.509,1.509,0,0,0,1.5.891,1.394,1.394,0,0,0,1.438-1.078A5.562,5.562,0,0,0,48.031-4.312ZM54.063,0H51.8V-8.453h2.266Zm-2.4-10.641a1.112,1.112,0,0,1,.34-.836,1.277,1.277,0,0,1,.926-.328,1.28,1.28,0,0,1,.922.328,1.105,1.105,0,0,1,.344.836,1.108,1.108,0,0,1-.348.844,1.283,1.283,0,0,1-.918.328,1.283,1.283,0,0,1-.918-.328A1.108,1.108,0,0,1,51.664-10.641ZM58.3,0H56.039V-12H58.3Zm4.242,0H60.281V-8.453h2.266Zm-2.4-10.641a1.112,1.112,0,0,1,.34-.836,1.277,1.277,0,0,1,.926-.328,1.28,1.28,0,0,1,.922.328,1.105,1.105,0,0,1,.344.836,1.108,1.108,0,0,1-.348.844,1.283,1.283,0,0,1-.918.328A1.283,1.283,0,0,1,60.5-9.8,1.108,1.108,0,0,1,60.148-10.641Zm3.906,6.352a5.094,5.094,0,0,1,.887-3.148,2.877,2.877,0,0,1,2.426-1.172,2.589,2.589,0,0,1,2.039.922V-12h2.266V0H69.633l-.109-.9A2.657,2.657,0,0,1,67.352.156,2.869,2.869,0,0,1,64.957-1.02,5.258,5.258,0,0,1,64.055-4.289Zm2.258.168A3.337,3.337,0,0,0,66.727-2.3a1.349,1.349,0,0,0,1.2.634,1.511,1.511,0,0,0,1.477-.884V-5.889a1.489,1.489,0,0,0-1.461-.884Q66.313-6.773,66.313-4.121ZM78.32,0a2.507,2.507,0,0,1-.227-.758,2.732,2.732,0,0,1-2.133.914A3,3,0,0,1,73.9-.562a2.312,2.312,0,0,1-.816-1.812,2.389,2.389,0,0,1,1-2.062,4.915,4.915,0,0,1,2.879-.727H78v-.484a1.393,1.393,0,0,0-.3-.937,1.183,1.183,0,0,0-.949-.352,1.345,1.345,0,0,0-.895.273.929.929,0,0,0-.324.75H73.273a2.268,2.268,0,0,1,.453-1.359,3,3,0,0,1,1.281-.98,4.669,4.669,0,0,1,1.859-.355,3.689,3.689,0,0,1,2.48.785,2.747,2.747,0,0,1,.918,2.207v3.664A4.041,4.041,0,0,0,80.6-.133V0ZM76.453-1.57a1.945,1.945,0,0,0,.922-.223,1.462,1.462,0,0,0,.625-.6V-3.844h-.844q-1.7,0-1.8,1.172l-.008.133a.9.9,0,0,0,.3.7A1.153,1.153,0,0,0,76.453-1.57Zm5.2-2.719a5.094,5.094,0,0,1,.887-3.148,2.877,2.877,0,0,1,2.426-1.172A2.589,2.589,0,0,1,87-7.687V-12h2.266V0H87.227l-.109-.9A2.657,2.657,0,0,1,84.945.156,2.869,2.869,0,0,1,82.551-1.02,5.258,5.258,0,0,1,81.648-4.289Zm2.258.168A3.337,3.337,0,0,0,84.32-2.3a1.349,1.349,0,0,0,1.2.634A1.511,1.511,0,0,0,87-2.548V-5.889a1.489,1.489,0,0,0-1.461-.884Q83.906-6.773,83.906-4.121Z" transform="translate(610.615 689.631)" fill="#12263f"/>
    </g>
    <g id="Grupo_877332" data-name="Grupo 877332" transform="translate(507 108)">
      <g id="Grupo_876345" data-name="Grupo 876345" transform="translate(-190 -59)">
        <g transform="matrix(1, 0, 0, 1, -41.38, 447.63)" filter="url(#Rectángulo_325312-4)">
          <rect id="Rectángulo_325312-9" data-name="Rectángulo 325312" width="131" height="48" rx="20" transform="translate(631 211)" fill="#fff"/>
        </g>
      </g>
      <path id="Trazado_617049" data-name="Trazado 617049" d="M19.207,13.211A4.025,4.025,0,0,1,17.852,16.1a4.76,4.76,0,0,1-3.223,1.055,4.28,4.28,0,0,1-3.441-1.473,6.038,6.038,0,0,1-1.254-4.043v-.7a6.819,6.819,0,0,1,.578-2.891,4.332,4.332,0,0,1,1.652-1.918,4.629,4.629,0,0,1,2.5-.668,4.637,4.637,0,0,1,3.172,1.055,4.326,4.326,0,0,1,1.391,2.961H16.879a2.376,2.376,0,0,0-.613-1.6,2.271,2.271,0,0,0-1.605-.5,1.991,1.991,0,0,0-1.754.84,4.707,4.707,0,0,0-.6,2.605V11.7a5.038,5.038,0,0,0,.559,2.7,1.954,1.954,0,0,0,1.762.852,2.314,2.314,0,0,0,1.621-.5,2.241,2.241,0,0,0,.613-1.535ZM25.5,17a2.507,2.507,0,0,1-.227-.758,2.732,2.732,0,0,1-2.133.914,3,3,0,0,1-2.059-.719,2.312,2.312,0,0,1-.816-1.812,2.389,2.389,0,0,1,1-2.062,4.915,4.915,0,0,1,2.879-.727h1.039v-.484a1.393,1.393,0,0,0-.3-.937,1.183,1.183,0,0,0-.949-.352,1.345,1.345,0,0,0-.895.273.929.929,0,0,0-.324.75H20.449A2.268,2.268,0,0,1,20.9,9.727a3,3,0,0,1,1.281-.98,4.669,4.669,0,0,1,1.859-.355,3.689,3.689,0,0,1,2.48.785,2.747,2.747,0,0,1,.918,2.207v3.664a4.041,4.041,0,0,0,.336,1.82V17Zm-1.867-1.57a1.945,1.945,0,0,0,.922-.223,1.462,1.462,0,0,0,.625-.6V13.156h-.844q-1.7,0-1.8,1.172l-.008.133a.9.9,0,0,0,.3.7A1.153,1.153,0,0,0,23.629,15.43Zm13.156-2.578A5.07,5.07,0,0,1,35.9,15.98,2.843,2.843,0,0,1,33.5,17.156a2.633,2.633,0,0,1-2.07-.891V20.25H29.176V8.547H31.27l.078.828a2.654,2.654,0,0,1,2.141-.984,2.862,2.862,0,0,1,2.43,1.156,5.207,5.207,0,0,1,.867,3.188Zm-2.258-.164a3.327,3.327,0,0,0-.418-1.82,1.361,1.361,0,0,0-1.215-.641,1.479,1.479,0,0,0-1.461.813V14.5a1.5,1.5,0,0,0,1.477.836Q34.527,15.336,34.527,12.688ZM43.082,17a2.507,2.507,0,0,1-.227-.758,2.732,2.732,0,0,1-2.133.914,3,3,0,0,1-2.059-.719,2.312,2.312,0,0,1-.816-1.812,2.389,2.389,0,0,1,1-2.062,4.915,4.915,0,0,1,2.879-.727h1.039v-.484a1.393,1.393,0,0,0-.3-.937,1.183,1.183,0,0,0-.949-.352,1.345,1.345,0,0,0-.895.273.929.929,0,0,0-.324.75H38.035a2.268,2.268,0,0,1,.453-1.359,3,3,0,0,1,1.281-.98,4.669,4.669,0,0,1,1.859-.355,3.689,3.689,0,0,1,2.48.785,2.747,2.747,0,0,1,.918,2.207v3.664a4.041,4.041,0,0,0,.336,1.82V17Zm-1.867-1.57a1.945,1.945,0,0,0,.922-.223,1.462,1.462,0,0,0,.625-.6V13.156h-.844q-1.7,0-1.8,1.172l-.008.133a.9.9,0,0,0,.3.7A1.153,1.153,0,0,0,41.215,15.43Zm9.063-.094a1.481,1.481,0,0,0,1.016-.344,1.2,1.2,0,0,0,.406-.914h2.117a2.9,2.9,0,0,1-.469,1.574,3.093,3.093,0,0,1-1.262,1.109,3.949,3.949,0,0,1-1.77.395A3.67,3.67,0,0,1,47.457,16,4.56,4.56,0,0,1,46.41,12.82v-.148a4.508,4.508,0,0,1,1.039-3.117A3.627,3.627,0,0,1,50.3,8.391a3.555,3.555,0,0,1,2.543.9,3.2,3.2,0,0,1,.973,2.4H51.7a1.551,1.551,0,0,0-.406-1.072,1.51,1.51,0,0,0-2.223.163,3.333,3.333,0,0,0-.4,1.866v.235a3.375,3.375,0,0,0,.4,1.878A1.377,1.377,0,0,0,50.277,15.336ZM57.488,17H55.223V8.547h2.266ZM55.09,6.359a1.112,1.112,0,0,1,.34-.836,1.465,1.465,0,0,1,1.848,0,1.105,1.105,0,0,1,.344.836,1.108,1.108,0,0,1-.348.844,1.448,1.448,0,0,1-1.836,0A1.108,1.108,0,0,1,55.09,6.359ZM59,12.711a5.094,5.094,0,0,1,.887-3.148,2.877,2.877,0,0,1,2.426-1.172,2.589,2.589,0,0,1,2.039.922V5h2.266V17H64.574l-.109-.9a2.657,2.657,0,0,1-2.172,1.055A2.869,2.869,0,0,1,59.9,15.98,5.258,5.258,0,0,1,59,12.711Zm2.258.168a3.337,3.337,0,0,0,.414,1.823,1.349,1.349,0,0,0,1.2.634,1.511,1.511,0,0,0,1.477-.884V11.111a1.489,1.489,0,0,0-1.461-.884Q61.254,10.227,61.254,12.879ZM73.262,17a2.507,2.507,0,0,1-.227-.758,2.732,2.732,0,0,1-2.133.914,3,3,0,0,1-2.059-.719,2.312,2.312,0,0,1-.816-1.812,2.389,2.389,0,0,1,1-2.062,4.915,4.915,0,0,1,2.879-.727h1.039v-.484a1.393,1.393,0,0,0-.3-.937,1.183,1.183,0,0,0-.949-.352,1.345,1.345,0,0,0-.895.273.929.929,0,0,0-.324.75H68.215a2.268,2.268,0,0,1,.453-1.359,3,3,0,0,1,1.281-.98,4.669,4.669,0,0,1,1.859-.355,3.689,3.689,0,0,1,2.48.785,2.747,2.747,0,0,1,.918,2.207v3.664a4.041,4.041,0,0,0,.336,1.82V17Zm-1.867-1.57a1.945,1.945,0,0,0,.922-.223,1.462,1.462,0,0,0,.625-.6V13.156H72.1q-1.7,0-1.8,1.172l-.008.133a.9.9,0,0,0,.3.7A1.153,1.153,0,0,0,71.395,15.43Zm5.2-2.719a5.094,5.094,0,0,1,.887-3.148A2.877,2.877,0,0,1,79.9,8.391a2.589,2.589,0,0,1,2.039.922V5h2.266V17H82.168l-.109-.9a2.657,2.657,0,0,1-2.172,1.055,2.869,2.869,0,0,1-2.395-1.176A5.258,5.258,0,0,1,76.59,12.711Zm2.258.168a3.337,3.337,0,0,0,.414,1.823,1.349,1.349,0,0,0,1.2.634,1.511,1.511,0,0,0,1.477-.884V11.111a1.489,1.489,0,0,0-1.461-.884Q78.848,10.227,78.848,12.879Zm10.742-.168a5.094,5.094,0,0,1,.887-3.148A2.877,2.877,0,0,1,92.9,8.391a2.589,2.589,0,0,1,2.039.922V5h2.266V17H95.168l-.109-.9a2.657,2.657,0,0,1-2.172,1.055,2.869,2.869,0,0,1-2.395-1.176A5.258,5.258,0,0,1,89.59,12.711Zm2.258.168a3.337,3.337,0,0,0,.414,1.823,1.349,1.349,0,0,0,1.2.634,1.511,1.511,0,0,0,1.477-.884V11.111a1.489,1.489,0,0,0-1.461-.884Q91.848,10.227,91.848,12.879Zm11,4.277a4.15,4.15,0,0,1-3.027-1.141,4.054,4.054,0,0,1-1.168-3.039v-.219a5.106,5.106,0,0,1,.492-2.277,3.612,3.612,0,0,1,1.395-1.547,3.914,3.914,0,0,1,2.059-.543,3.508,3.508,0,0,1,2.73,1.094,4.444,4.444,0,0,1,1,3.1v.922h-5.383a2.1,2.1,0,0,0,.66,1.328,2,2,0,0,0,1.395.5,2.437,2.437,0,0,0,2.039-.945l1.109,1.242a3.389,3.389,0,0,1-1.375,1.121A4.511,4.511,0,0,1,102.848,17.156Zm-.258-6.945a1.411,1.411,0,0,0-1.09.455,2.357,2.357,0,0,0-.535,1.3h3.141v-.181a1.681,1.681,0,0,0-.406-1.165A1.456,1.456,0,0,0,102.59,10.211ZM19.715,35.336a1.481,1.481,0,0,0,1.016-.344,1.2,1.2,0,0,0,.406-.914h2.117a2.9,2.9,0,0,1-.469,1.574,3.093,3.093,0,0,1-1.262,1.109,3.949,3.949,0,0,1-1.77.395A3.67,3.67,0,0,1,16.895,36a4.56,4.56,0,0,1-1.047-3.184v-.148a4.508,4.508,0,0,1,1.039-3.117,3.627,3.627,0,0,1,2.852-1.164,3.555,3.555,0,0,1,2.543.9,3.2,3.2,0,0,1,.973,2.4H21.137a1.551,1.551,0,0,0-.406-1.072,1.51,1.51,0,0,0-2.223.163,3.333,3.333,0,0,0-.4,1.866v.235a3.375,3.375,0,0,0,.4,1.878A1.377,1.377,0,0,0,19.715,35.336Zm9.578-4.672a6.134,6.134,0,0,0-.812-.062,1.654,1.654,0,0,0-1.68.867V37H24.543V28.547h2.133l.063,1.008a2.092,2.092,0,0,1,1.883-1.164,2.366,2.366,0,0,1,.7.1Zm4.977,6.492a4.15,4.15,0,0,1-3.027-1.141,4.054,4.054,0,0,1-1.168-3.039v-.219a5.106,5.106,0,0,1,.492-2.277,3.612,3.612,0,0,1,1.395-1.547,3.914,3.914,0,0,1,2.059-.543,3.508,3.508,0,0,1,2.73,1.094,4.444,4.444,0,0,1,1,3.1v.922H32.363a2.1,2.1,0,0,0,.66,1.328,2,2,0,0,0,1.395.5,2.437,2.437,0,0,0,2.039-.945l1.109,1.242a3.389,3.389,0,0,1-1.375,1.121A4.511,4.511,0,0,1,34.27,37.156Zm-.258-6.945a1.411,1.411,0,0,0-1.09.455,2.357,2.357,0,0,0-.535,1.3h3.141v-.181a1.681,1.681,0,0,0-.406-1.165A1.456,1.456,0,0,0,34.012,30.211Zm8.531,5.125a1.481,1.481,0,0,0,1.016-.344,1.2,1.2,0,0,0,.406-.914h2.117a2.9,2.9,0,0,1-.469,1.574,3.093,3.093,0,0,1-1.262,1.109,3.949,3.949,0,0,1-1.77.395A3.67,3.67,0,0,1,39.723,36a4.56,4.56,0,0,1-1.047-3.184v-.148a4.508,4.508,0,0,1,1.039-3.117,3.627,3.627,0,0,1,2.852-1.164,3.555,3.555,0,0,1,2.543.9,3.2,3.2,0,0,1,.973,2.4H43.965a1.551,1.551,0,0,0-.406-1.072,1.51,1.51,0,0,0-2.223.163,3.333,3.333,0,0,0-.4,1.866v.235a3.375,3.375,0,0,0,.4,1.878A1.377,1.377,0,0,0,42.543,35.336ZM49.754,37H47.488V28.547h2.266Zm-2.4-10.641a1.112,1.112,0,0,1,.34-.836,1.465,1.465,0,0,1,1.848,0,1.193,1.193,0,0,1,0,1.68,1.448,1.448,0,0,1-1.836,0A1.108,1.108,0,0,1,47.355,26.359Zm6.375,2.188.07.945a2.971,2.971,0,0,1,2.43-1.1,2.255,2.255,0,0,1,2.242,1.289,2.9,2.9,0,0,1,2.539-1.289,2.521,2.521,0,0,1,2.047.8,3.681,3.681,0,0,1,.672,2.41V37H61.465V31.609a1.61,1.61,0,0,0-.281-1.051,1.246,1.246,0,0,0-.992-.332,1.409,1.409,0,0,0-1.406.969l.008,5.8H56.535V31.617a1.59,1.59,0,0,0-.289-1.062,1.259,1.259,0,0,0-.984-.328,1.463,1.463,0,0,0-1.391.8V37H51.613V28.547ZM67.848,37H65.582V28.547h2.266Zm-2.4-10.641a1.112,1.112,0,0,1,.34-.836,1.465,1.465,0,0,1,1.848,0,1.193,1.193,0,0,1,0,1.68,1.448,1.448,0,0,1-1.836,0A1.108,1.108,0,0,1,65.449,26.359Zm8.148,10.8a4.15,4.15,0,0,1-3.027-1.141A4.054,4.054,0,0,1,69.4,32.977v-.219a5.106,5.106,0,0,1,.492-2.277,3.612,3.612,0,0,1,1.395-1.547,3.914,3.914,0,0,1,2.059-.543,3.508,3.508,0,0,1,2.73,1.094,4.444,4.444,0,0,1,1,3.1v.922H71.691a2.1,2.1,0,0,0,.66,1.328,2,2,0,0,0,1.395.5,2.437,2.437,0,0,0,2.039-.945l1.109,1.242a3.389,3.389,0,0,1-1.375,1.121A4.511,4.511,0,0,1,73.6,37.156Zm-.258-6.945a1.411,1.411,0,0,0-1.09.455,2.357,2.357,0,0,0-.535,1.3h3.141v-.181a1.681,1.681,0,0,0-.406-1.165A1.456,1.456,0,0,0,73.34,30.211Zm7.094-1.664.07.977a2.951,2.951,0,0,1,2.43-1.133,2.453,2.453,0,0,1,2,.789,3.682,3.682,0,0,1,.672,2.359V37H83.348V31.594a1.465,1.465,0,0,0-.312-1.043A1.4,1.4,0,0,0,82,30.227a1.553,1.553,0,0,0-1.43.813V37H78.309V28.547Zm9.586-2.078v2.078h1.445V30.2H90.02v4.219a1.007,1.007,0,0,0,.18.672.9.9,0,0,0,.688.2,3.6,3.6,0,0,0,.664-.055v1.711a4.648,4.648,0,0,1-1.367.2,2.156,2.156,0,0,1-2.422-2.4V30.2H86.527V28.547h1.234V26.469ZM92.137,32.7a5.013,5.013,0,0,1,.484-2.242,3.546,3.546,0,0,1,1.395-1.523,4.069,4.069,0,0,1,2.113-.539,3.849,3.849,0,0,1,2.793,1.047,4.2,4.2,0,0,1,1.207,2.844l.016.578a4.418,4.418,0,0,1-1.086,3.121,4.209,4.209,0,0,1-5.832,0,4.5,4.5,0,0,1-1.09-3.187Zm2.258.16a3.16,3.16,0,0,0,.453,1.843,1.628,1.628,0,0,0,2.578.008,3.457,3.457,0,0,0,.461-2.015,3.128,3.128,0,0,0-.461-1.831,1.5,1.5,0,0,0-1.3-.649,1.474,1.474,0,0,0-1.281.646A3.516,3.516,0,0,0,94.395,32.856Z" transform="translate(407.615 601.631)" fill="#12263f"/>
    </g>
    <g id="Grupo_877333" data-name="Grupo 877333" transform="translate(281 40)">
      <g id="Grupo_876347" data-name="Grupo 876347" transform="translate(-308 9)">
        <g transform="matrix(1, 0, 0, 1, 302.62, 447.63)" filter="url(#Rectángulo_325312-5)">
          <rect id="Rectángulo_325312-10" data-name="Rectángulo 325312" width="131" height="48" rx="20" transform="translate(287 211)" fill="#fff"/>
        </g>
      </g>
      <path id="Trazado_617047" data-name="Trazado 617047" d="M8.922,14.016A1.2,1.2,0,0,0,8.453,13a6.148,6.148,0,0,0-1.687-.75,11.963,11.963,0,0,1-1.93-.777A3.153,3.153,0,0,1,2.9,8.648,2.747,2.747,0,0,1,3.418,7,3.389,3.389,0,0,1,4.91,5.875a5.616,5.616,0,0,1,2.184-.406,5.112,5.112,0,0,1,2.172.441,3.458,3.458,0,0,1,1.48,1.246,3.261,3.261,0,0,1,.527,1.828H8.93A1.534,1.534,0,0,0,8.438,7.77a2.023,2.023,0,0,0-1.383-.434A2.162,2.162,0,0,0,5.719,7.7a1.146,1.146,0,0,0-.477.957,1.1,1.1,0,0,0,.559.93,6.311,6.311,0,0,0,1.645.7,7.106,7.106,0,0,1,2.914,1.492A2.972,2.972,0,0,1,11.273,14a2.737,2.737,0,0,1-1.117,2.316,4.891,4.891,0,0,1-3.008.84,5.808,5.808,0,0,1-2.391-.48,3.783,3.783,0,0,1-1.645-1.316,3.371,3.371,0,0,1-.566-1.937H4.9q0,1.883,2.25,1.883a2.189,2.189,0,0,0,1.3-.34A1.106,1.106,0,0,0,8.922,14.016Zm3.438-1.32a5.013,5.013,0,0,1,.484-2.242A3.546,3.546,0,0,1,14.238,8.93a4.069,4.069,0,0,1,2.113-.539,3.849,3.849,0,0,1,2.793,1.047,4.2,4.2,0,0,1,1.207,2.844l.016.578a4.418,4.418,0,0,1-1.086,3.121,3.775,3.775,0,0,1-2.914,1.176,3.793,3.793,0,0,1-2.918-1.172,4.5,4.5,0,0,1-1.09-3.187Zm2.258.16A3.16,3.16,0,0,0,15.07,14.7a1.628,1.628,0,0,0,2.578.008,3.457,3.457,0,0,0,.461-2.015,3.128,3.128,0,0,0-.461-1.831,1.5,1.5,0,0,0-1.3-.649,1.474,1.474,0,0,0-1.281.646A3.516,3.516,0,0,0,14.617,12.856ZM24.141,17H21.875V5h2.266Zm5.023-2.758,1.57-5.7h2.359L30.242,17H28.086L25.234,8.547h2.359Zm8.813,2.914a4.15,4.15,0,0,1-3.027-1.141,4.054,4.054,0,0,1-1.168-3.039v-.219a5.106,5.106,0,0,1,.492-2.277,3.612,3.612,0,0,1,1.395-1.547,3.914,3.914,0,0,1,2.059-.543,3.508,3.508,0,0,1,2.73,1.094,4.444,4.444,0,0,1,1,3.1v.922H36.07a2.1,2.1,0,0,0,.66,1.328,2,2,0,0,0,1.395.5,2.437,2.437,0,0,0,2.039-.945l1.109,1.242A3.389,3.389,0,0,1,39.9,16.754,4.511,4.511,0,0,1,37.977,17.156Zm-.258-6.945a1.411,1.411,0,0,0-1.09.455,2.357,2.357,0,0,0-.535,1.3h3.141v-.181a1.681,1.681,0,0,0-.406-1.165A1.456,1.456,0,0,0,37.719,10.211Zm7.094-1.664.07.977a2.951,2.951,0,0,1,2.43-1.133,2.453,2.453,0,0,1,2,.789,3.682,3.682,0,0,1,.672,2.359V17H47.727V11.594a1.465,1.465,0,0,0-.312-1.043,1.4,1.4,0,0,0-1.039-.324,1.553,1.553,0,0,0-1.43.813V17H42.688V8.547Zm10.4,6.789a1.481,1.481,0,0,0,1.016-.344,1.2,1.2,0,0,0,.406-.914H58.75a2.9,2.9,0,0,1-.469,1.574,3.093,3.093,0,0,1-1.262,1.109,3.949,3.949,0,0,1-1.77.395A3.67,3.67,0,0,1,52.391,16a4.56,4.56,0,0,1-1.047-3.184v-.148a4.508,4.508,0,0,1,1.039-3.117,3.627,3.627,0,0,1,2.852-1.164,3.555,3.555,0,0,1,2.543.9,3.2,3.2,0,0,1,.973,2.4H56.633a1.551,1.551,0,0,0-.406-1.072A1.51,1.51,0,0,0,54,10.786a3.333,3.333,0,0,0-.4,1.866v.235a3.375,3.375,0,0,0,.4,1.878A1.377,1.377,0,0,0,55.211,15.336ZM62.422,17H60.156V8.547h2.266Zm-2.4-10.641a1.112,1.112,0,0,1,.34-.836,1.465,1.465,0,0,1,1.848,0,1.105,1.105,0,0,1,.344.836,1.108,1.108,0,0,1-.348.844,1.448,1.448,0,0,1-1.836,0A1.108,1.108,0,0,1,60.023,6.359ZM69.18,17a2.507,2.507,0,0,1-.227-.758,2.732,2.732,0,0,1-2.133.914,3,3,0,0,1-2.059-.719,2.312,2.312,0,0,1-.816-1.812,2.389,2.389,0,0,1,1-2.062,4.915,4.915,0,0,1,2.879-.727h1.039v-.484a1.393,1.393,0,0,0-.3-.937,1.183,1.183,0,0,0-.949-.352,1.345,1.345,0,0,0-.895.273.929.929,0,0,0-.324.75H64.133a2.268,2.268,0,0,1,.453-1.359,3,3,0,0,1,1.281-.98,4.669,4.669,0,0,1,1.859-.355,3.689,3.689,0,0,1,2.48.785,2.747,2.747,0,0,1,.918,2.207v3.664a4.041,4.041,0,0,0,.336,1.82V17Zm-1.867-1.57a1.945,1.945,0,0,0,.922-.223,1.462,1.462,0,0,0,.625-.6V13.156h-.844q-1.7,0-1.8,1.172l-.008.133a.9.9,0,0,0,.3.7A1.153,1.153,0,0,0,67.313,15.43Z" transform="translate(310.615 681.631)" fill="#12263f"/>
    </g>
    <path id="Trazado_616901" data-name="Trazado 616901" d="M2020.375,109.672a49.044,49.044,0,1,1-49.044-49.044,49.044,49.044,0,0,1,49.044,49.044" transform="translate(-997.671 480.003)" fill="#4c78b5"/>
    <path id="Trazado_616902" data-name="Trazado 616902" d="M1934.694,152.487a.95.95,0,0,1-.822-.475l-9.627-16.675a63.177,63.177,0,0,1-52.713-62.3h1.9a60.945,60.945,0,0,0,51.56,60.5.951.951,0,0,1,.673.463l9.03,15.641,9.03-15.641a.951.951,0,0,1,.673-.463,61.267,61.267,0,0,0-9.7-121.761v-1.9a63.167,63.167,0,0,1,10.45,125.462l-9.627,16.675a.95.95,0,0,1-.822.475" transform="translate(-961.325 516.578)" fill="#606060"/>
    <path id="Trazado_616903" data-name="Trazado 616903" d="M1869.266,66.263h-7.12A65.773,65.773,0,0,1,1927.919.49V7.61a58.719,58.719,0,0,0-58.653,58.653" transform="translate(-954.55 523.353)" fill="#4c78b5"/>
    <path id="Trazado_616904" data-name="Trazado 616904" d="M2642.618,109.632a49.044,49.044,0,1,1-49.044-49.044,49.044,49.044,0,0,1,49.044,49.044" transform="translate(-1446.915 480.043)" fill="#a351a3"/>
    <path id="Trazado_616905" data-name="Trazado 616905" d="M2556.935,152.455a.95.95,0,0,1-.822-.475l-9.635-16.688a63.176,63.176,0,0,1-52.705-62.3h1.9a60.949,60.949,0,0,0,51.553,60.5.949.949,0,0,1,.673.463l9.038,15.654,9.038-15.654a.95.95,0,0,1,.673-.463,61.268,61.268,0,0,0-9.711-121.761v-1.9a63.167,63.167,0,0,1,10.457,125.462l-9.635,16.688a.951.951,0,0,1-.823.475" transform="translate(-1410.482 516.609)" fill="#606060"/>
    <path id="Trazado_616906" data-name="Trazado 616906" d="M2491.507,66.219h-7.12A65.775,65.775,0,0,1,2550.16.446v7.12a58.72,58.72,0,0,0-58.653,58.653" transform="translate(-1403.707 523.384)" fill="#a351a3"/>
    <path id="Trazado_616907" data-name="Trazado 616907" d="M158.229,109.184A49.044,49.044,0,1,1,109.185,60.14a49.045,49.045,0,0,1,49.044,49.044" transform="translate(346.474 480.491)" fill="#69787d"/>
    <path id="Trazado_616908" data-name="Trazado 616908" d="M7.12,65.773H0A65.773,65.773,0,0,1,65.773,0V7.12A58.719,58.719,0,0,0,7.12,65.773" transform="translate(389.615 523.706)" fill="#69787d"/>
    <path id="Trazado_616909" data-name="Trazado 616909" d="M72.548,152.133a.95.95,0,0,1-.822-.475l-9.714-16.825A63.175,63.175,0,0,1,9.385,72.548h1.9a60.962,60.962,0,0,0,51.475,60.485.949.949,0,0,1,.672.463l9.117,15.79,9.117-15.79a.949.949,0,0,1,.672-.463A61.268,61.268,0,0,0,72.548,11.284v-1.9A63.168,63.168,0,0,1,83.084,134.834l-9.715,16.825a.949.949,0,0,1-.822.475" transform="translate(382.841 516.932)" fill="#606060"/>
    <path id="Trazado_616910" data-name="Trazado 616910" d="M1401,109.632a49.044,49.044,0,1,1-49.044-49.044A49.044,49.044,0,0,1,1401,109.632" transform="translate(-551.292 480.043)" fill="#ffaa01"/>
    <path id="Trazado_616911" data-name="Trazado 616911" d="M1315.318,152.455a.949.949,0,0,1-.822-.475l-9.635-16.688a63.177,63.177,0,0,1-52.705-62.3h1.9a60.949,60.949,0,0,0,51.553,60.5.95.95,0,0,1,.673.463l9.038,15.654,9.038-15.654a.95.95,0,0,1,.673-.463,61.268,61.268,0,0,0-9.711-121.761v-1.9a63.167,63.167,0,0,1,10.457,125.462l-9.635,16.688a.95.95,0,0,1-.822.475" transform="translate(-514.237 516.609)" fill="#606060"/>
    <path id="Trazado_616912" data-name="Trazado 616912" d="M1249.891,66.219h-7.12A65.773,65.773,0,0,1,1308.544.446v7.12a58.719,58.719,0,0,0-58.653,58.653" transform="translate(-507.462 523.384)" fill="#ffaa01"/>
    <g id="Grupo_877336" data-name="Grupo 877336" transform="translate(579.032 540.76)" opacity="0.35" style="mix-blend-mode: multiply;isolation: isolate">
      <g id="Grupo_877335" data-name="Grupo 877335">
        <g id="Grupo_877334" data-name="Grupo 877334" clip-path="url(#clip-path)">
          <path id="Trazado_616913" data-name="Trazado 616913" d="M779.043,110.352A49.044,49.044,0,1,1,730,61.308a49.044,49.044,0,0,1,49.044,49.044" transform="translate(-680.955 -61.308)" fill="#333"/>
        </g>
      </g>
    </g>
    <path id="Trazado_616914" data-name="Trazado 616914" d="M779.043,109.41A49.044,49.044,0,1,1,730,60.366a49.044,49.044,0,0,1,49.044,49.044" transform="translate(-102.34 480.265)" fill="#60c9c4"/>
    <path id="Trazado_616915" data-name="Trazado 616915" d="M693.358,152.294h0a.95.95,0,0,1-.822-.475l-9.674-16.757A63.174,63.174,0,0,1,630.2,72.771h1.9a60.953,60.953,0,0,0,51.514,60.49.951.951,0,0,1,.672.463l9.078,15.723,9.08-15.723a.95.95,0,0,1,.672-.463,61.268,61.268,0,0,0-9.752-121.753v-1.9a63.167,63.167,0,0,1,10.5,125.454l-9.677,16.757a.95.95,0,0,1-.822.475" transform="translate(-65.283 516.771)" fill="#606060"/>
    <path id="Trazado_616916" data-name="Trazado 616916" d="M627.931,66h-7.12A65.774,65.774,0,0,1,686.584.223v7.12A58.719,58.719,0,0,0,627.931,66" transform="translate(-58.509 523.545)" fill="#60c9c4"/>
    <path id="Trazado_616917" data-name="Trazado 616917" d="M228.444,584.774a5.221,5.221,0,1,1-5.221-5.221,5.221,5.221,0,0,1,5.221,5.221" transform="translate(232.254 105.363)" fill="#69787d"/>
    <path id="Trazado_616918" data-name="Trazado 616918" d="M847.889,584.774a5.221,5.221,0,1,1-5.221-5.221,5.221,5.221,0,0,1,5.221,5.221" transform="translate(-214.884 105.363)" fill="#60c9c4"/>
    <path id="Trazado_616919" data-name="Trazado 616919" d="M1471.6,584.774a5.221,5.221,0,1,1-5.221-5.221,5.221,5.221,0,0,1,5.221,5.221" transform="translate(-665.103 105.363)" fill="#ffaa01"/>
    <path id="Trazado_616920" data-name="Trazado 616920" d="M2091.046,584.774a5.222,5.222,0,1,1-5.222-5.221,5.222,5.222,0,0,1,5.222,5.221" transform="translate(-1112.241 105.363)" fill="#4c78b5"/>
    <path id="Trazado_616921" data-name="Trazado 616921" d="M902.787,564.194a9.5,9.5,0,0,0-9.464,8.782H739.707a9.49,9.49,0,0,0-18.928,0H567.4a9.491,9.491,0,0,0-18.928,0H393.906a9.49,9.49,0,0,0-18.928,0H221.6a9.493,9.493,0,1,0-.048,1.9H375.026a9.491,9.491,0,0,0,18.833,0h154.66a9.491,9.491,0,0,0,18.833,0H720.826a9.491,9.491,0,0,0,18.833,0H893.371a9.492,9.492,0,1,0,9.417-10.68M212.135,581.282a7.595,7.595,0,1,1,7.595-7.595,7.6,7.6,0,0,1-7.595,7.595m172.307,0a7.595,7.595,0,1,1,7.595-7.595,7.6,7.6,0,0,1-7.595,7.595m173.494,0a7.595,7.595,0,1,1,7.595-7.595,7.6,7.6,0,0,1-7.595,7.595m172.307,0a7.595,7.595,0,1,1,7.595-7.595,7.6,7.6,0,0,1-7.595,7.595m172.544,0a7.595,7.595,0,1,1,7.595-7.595,7.6,7.6,0,0,1-7.595,7.595" transform="translate(243.341 116.45)" fill="#606060"/>
    <path id="Trazado_616922" data-name="Trazado 616922" d="M2711.345,584.774a5.221,5.221,0,1,1-5.221-5.221,5.222,5.222,0,0,1,5.221,5.221" transform="translate(-1559.995 105.363)" fill="#a351a3"/>
    <g id="Grupo_877349" data-name="Grupo 877349" transform="translate(430.615 564.631)" clip-path="url(#clip-path-2)">
      <path id="Trazado_616924" data-name="Trazado 616924" d="M14.124,92.843h-.818c-.283.109-.434.437-.767.463-.395.043-.56-.343-.868-.463h-.817A1.868,1.868,0,0,0,9.72,94.2a4.959,4.959,0,0,1-3.979,4.036,2.857,2.857,0,0,0-.776.317c-.2,3.807-.167,7.614-.123,11.531,2.9.525,4.611,2.119,5.037,4.786,1.088.461,34.968.5,36.173.078.536-1.038.679-2.323,1.647-3.265.938-.912,2.153-1.109,3.475-1.709.106-3.754.06-7.562.029-11.342-1.305-.643-2.581-.807-3.525-1.768-.917-.934-1.108-2.153-1.578-3.181a2.85,2.85,0,0,0-1.854-.341q-13.887-.01-27.773,0a4.218,4.218,0,0,1-2.351-.5" transform="translate(-3.498 -67.516)" fill="#a6c881"/>
      <path id="Trazado_616925" data-name="Trazado 616925" d="M10.638,34.019c-.091.432.322.55.526.843H42.472a5.078,5.078,0,0,0,4.912,4.9V51.117a5.6,5.6,0,0,0-3.406,1.517,5.523,5.523,0,0,0-1.511,3.416H6.591a5.075,5.075,0,0,0-4.909-4.9V39.806a5.636,5.636,0,0,0,3.413-1.524A5.418,5.418,0,0,0,6.6,34.9c.375-.18.8-.328.772-.879.091-.432-.322-.551-.506-.815H.514l-.5.522v23.5l.543.485H48.572l.471-.575V33.681l-.621-.477h-7.5V14.949l-.577-.577H37.272l1.143-1.142v-.8l-.651-.477h-.35L34.364,15v.434L37.4,18.47h.567l.466-.675V17.38l-1.313-1.3H39.15c.142.811.195,14.3.058,17.1H11.178l-.54.54v.307" transform="translate(-0.012 -8.692)" fill="#040506"/>
      <path id="Trazado_616926" data-name="Trazado 616926" d="M67.183,9.008c-.1-.477-.45-.782-.481-1.3.324-.324.657-.7,1.04-1.025a2.74,2.74,0,0,0,.611-.877,1.024,1.024,0,0,0,.018-1.261c-.05-.059-.007-.2-.007-.339-.388-.387-.821-.772-1.194-1.208-.314-.367-.778-.449-1.153-.694a.728.728,0,0,0-.75.079A6.9,6.9,0,0,0,64,3.259c-.28.294-.553.594-.774.831-.6.08-.907-.353-1.381-.448V1.313A1.759,1.759,0,0,0,60.4.036H58.058a1.828,1.828,0,0,0-1.13,1.333V3.562a4.278,4.278,0,0,1-1.351.593c-.326-.348-.674-.674-.968-1.043a3.885,3.885,0,0,0-1.215-.78.634.634,0,0,0-.743.032c-.186.166-.389.044-.563.134L50.427,4.158a.8.8,0,0,0-.046.184c0,.36-.392.669-.2,1.034a8.317,8.317,0,0,0,.831,1.288,12.243,12.243,0,0,0,1,1c.07.507-.338.831-.442,1.3h-2.5c-.131.276-.426.211-.59.391a1.665,1.665,0,0,0-.56,1.2c.02.746.005,1.494.005,2.085A1.807,1.807,0,0,0,49.3,13.911h2.254c.05.481.519.772.45,1.305a16.889,16.889,0,0,0-1.415,1.62c-.327.526-.611.986-.221,1.588.046.071.006.2.006.27l1.742,1.756a1.7,1.7,0,0,1,.208,0c.318.039.621.351.93.189a4.011,4.011,0,0,0,1.237-.723c.344-.376.719-.726,1.08-1.087.54-.118.851.4,1.343.444,0,.641.013,1.252,0,1.861a1.5,1.5,0,0,0,.98,1.624c.058.022.1.093.146.141H60.7c.111-.241.408-.172.572-.354a1.667,1.667,0,0,0,.559-1.2c-.02-.678,0-1.357,0-2.036l1.2-.551a19.224,19.224,0,0,0,1.7,1.461,2.792,2.792,0,0,0,.945.44c.464.065.729-.4,1.158-.415a6.347,6.347,0,0,0,1.609-1.991.994.994,0,0,0-.006-.916,3.813,3.813,0,0,0-.8-1.2c-.328-.288-.623-.614-.9-.887-.075-.561.387-.856.45-1.317H69.6c.517-.286,1.044-.508,1.214-1.124,0-.678-.014-1.357,0-2.035a1.5,1.5,0,0,0-.982-1.623c-.058-.022-.1-.093-.146-.141H67.183" transform="translate(-34.848 -0.026)" fill="#040506"/>
      <path id="Trazado_616927" data-name="Trazado 616927" d="M2.962,22.058h.613L6.537,19.1v-.618l-.514-.5h-.61L4.2,19.213c-.17-.9-.228-13.625-.083-17.551H19.9L20.43,1.1V.487L19.893,0H2.939L2.448.593v18.44L1.318,17.9a5.4,5.4,0,0,1-.785.059L0,18.689V19.1l2.962,2.961" fill="#040506"/>
      <path id="Trazado_616928" data-name="Trazado 616928" d="M121.231,19.124,120.1,17.991h-.8l-.481.486v.508l3.055,3.054h.423L125.332,19v-.546l-.539-.469h-.665l-1.186,1.186V.526L122.32,0H105.4l-.471.575v.57l.61.477h15.688Z" transform="translate(-76.308 -0.002)" fill="#040506"/>
      <path id="Trazado_616929" data-name="Trazado 616929" d="M29.927,34.039c-.089.416.3.539.492.8h.618c.2-.217.594-.35.525-.8V16.08h1.975c-.086.116.069-.057.064.079,0,.025-.042.049-.066.072L32.38,17.386c0,.2,0,.408,0,.615l.511.506H33.5l2.965-2.976v-.584L33.476,11.98h-.6l-.481.546V13.1l1.326,1.259c-1.149.136-2.179.026-3.3.08l-.49.624Z" transform="translate(-21.754 -8.712)" fill="#040506"/>
      <path id="Trazado_616930" data-name="Trazado 616930" d="M74.889,111.464a9.3,9.3,0,0,0-2.658-7.059,9.013,9.013,0,0,0-15.354,6.863,8.61,8.61,0,0,0,2.676,5.925,8.992,8.992,0,0,0,12.714-.075,8.392,8.392,0,0,0,2.622-5.653" transform="translate(-41.352 -74.012)" fill="#040506"/>
      <path id="Trazado_616931" data-name="Trazado 616931" d="M30.7,131.791H24.493l-.5.529v.615l.6.478h6.279l.447-.64v-.5l-.621-.481" transform="translate(-17.451 -95.839)" fill="#050606"/>
      <path id="Trazado_616932" data-name="Trazado 616932" d="M129.374,131.791l-.483.572v.577l.57.469h6.3l.375-.61.1.1v-.6l-.711-.5Z" transform="translate(-93.73 -95.839)" fill="#050606"/>
      <path id="Trazado_616933" data-name="Trazado 616933" d="M6.094,165.12H9.255a3.16,3.16,0,0,0-3.161-3.209Z" transform="translate(-4.432 -117.743)" fill="#468c25"/>
      <path id="Trazado_616934" data-name="Trazado 616934" d="M165.161,165.184v-3.151a3.156,3.156,0,0,0-3.214,3.151Z" transform="translate(-117.769 -117.822)" fill="#468c25"/>
      <path id="Trazado_616935" data-name="Trazado 616935" d="M9.193,95.941h-3.2a14.285,14.285,0,0,0-.024,1.551c-.01.537,0,1.075,0,1.61a3.162,3.162,0,0,0,3.224-3.162" transform="translate(-4.335 -69.769)" fill="#468c25"/>
      <path id="Trazado_616936" data-name="Trazado 616936" d="M165.21,99.235c.013-.18.025-.277.026-.373,0-.944,0-1.887,0-2.872h-3.212c.265,2.021.977,2.784,3.186,3.245" transform="translate(-117.825 -69.804)" fill="#468c25"/>
      <path id="Trazado_616937" data-name="Trazado 616937" d="M57.336,23.319c.772-.606,1.219-1.356,1.992-1.709a4.789,4.789,0,0,1,3.128.873c.141.469.55.885.472,1.5a13.4,13.4,0,0,0-.014,1.653h1.635c0-.292,0-.62,0-.948a2.884,2.884,0,0,1,.57-2.262,4.589,4.589,0,0,1,3.077-.8,13.443,13.443,0,0,1,1.993,1.8A4.723,4.723,0,0,1,71.2,22.205c-.439-.439-.809-.828-1.2-1.2a1.946,1.946,0,0,1-.455-2.083,15.116,15.116,0,0,1,.774-1.767l.937-.482h2.254c.058-.52.012-1.047.032-1.608H71.229a2.45,2.45,0,0,0-.9-.475c-.17-.6-.552-1.109-.736-1.73a1.987,1.987,0,0,1,.488-2.234c.4-.375.772-.768,1.188-1.184-.239-.485-.851-.535-1.146-1.013-.765.491-1.166,1.349-2.064,1.689a4.793,4.793,0,0,1-3.052-.887c-.141-.468-.55-.885-.472-1.5a13.452,13.452,0,0,0,.014-1.653H62.914c0,.292,0,.62,0,.948a2.887,2.887,0,0,1-.57,2.262,4.591,4.591,0,0,1-3.077.8A13.037,13.037,0,0,1,57.3,8.325c-.465.269-.573.831-1.01,1.219.409.409.779.8,1.169,1.165a1.942,1.942,0,0,1,.454,2.083,12.21,12.21,0,0,1-.793,1.777l-.918.472H53.949c-.058.52-.012,1.047-.032,1.608h2.317a2.448,2.448,0,0,0,.9.475c.169.6.552,1.109.735,1.729a1.987,1.987,0,0,1-.488,2.234c-.4.375-.772.768-1.186,1.182.222.5.864.519,1.14,1.049" transform="translate(-39.209 -4.427)" fill="#3d78bd"/>
      <path id="Trazado_616938" data-name="Trazado 616938" d="M85.409,122.312c-.023.129.069.223.159.2a15.652,15.652,0,0,0,2.3-.595,7.312,7.312,0,0,0,3.986-4.157,4.993,4.993,0,0,0,.3-3.786,6.337,6.337,0,0,0-2.585-4.519,5.21,5.21,0,0,0-3.267-1.432c-.23,0-.3-.261-.527-.216-.146.029-.362-.075-.365.206-.027.31.13.6.107.906a1.884,1.884,0,0,0,1.167,2.036,2.31,2.31,0,0,1,1.208,1.57c.116.464.191.956-.409,1.171-.5-.087-.516-.505-.649-.842a2.041,2.041,0,0,0-3.044-.894,1.351,1.351,0,0,0-.6,1.417,1.433,1.433,0,0,0,1.051,1.135,7.364,7.364,0,0,0,1.414.141,2.534,2.534,0,0,1,2.181,1.751,2.06,2.06,0,0,1-.77,2.629,3.248,3.248,0,0,0-1.659,3.282" transform="translate(-60.478 -78.392)" fill="#468c25"/>
      <path id="Trazado_616939" data-name="Trazado 616939" d="M69.709,108.036c.023-.129-.069-.223-.159-.2a15.651,15.651,0,0,0-2.3.595,7.312,7.312,0,0,0-3.986,4.157,4.993,4.993,0,0,0-.3,3.786,6.337,6.337,0,0,0,2.585,4.519,5.21,5.21,0,0,0,3.267,1.432c.23,0,.3.261.527.216.146-.029.362.075.365-.206.027-.31-.13-.6-.107-.906a1.884,1.884,0,0,0-1.167-2.036,2.31,2.31,0,0,1-1.208-1.57c-.116-.464-.191-.956.409-1.171.5.087.516.505.649.842a2.041,2.041,0,0,0,3.044.894,1.351,1.351,0,0,0,.6-1.417,1.433,1.433,0,0,0-1.051-1.135,7.364,7.364,0,0,0-1.414-.141,2.534,2.534,0,0,1-2.181-1.751,2.06,2.06,0,0,1,.77-2.629,3.248,3.248,0,0,0,1.659-3.282" transform="translate(-45.595 -78.418)" fill="#468c25"/>
      <path id="Trazado_616940" data-name="Trazado 616940" d="M80.689,108.557c-.034,0-.081-.014-.1,0-.1.091-.194.19-.3.3v1.838a4.37,4.37,0,0,0-2.134,1.692,3.28,3.28,0,0,0-.1,2.636l1.291,1.291c.225.015.478-.047.618.213h1.839c1.246.641,1.252,1.808,0,2.452H80.522a1.408,1.408,0,0,1-1.051-1.727l-.446-.446c-.213-.165-.46,0-.667-.1l-.523.539c-.225,1.485.6,2.764,2.43,3.43v1.883c.175.093.217.31.425.3h.818c.216.02.234-.228.4-.265v-1.871a4.37,4.37,0,0,0,2.134-1.692,3.28,3.28,0,0,0,.1-2.636L82.844,115.1c-.224-.015-.478.047-.617-.213H80.388c-1.246-.641-1.252-1.808,0-2.451h1.284a1.408,1.408,0,0,1,1.051,1.727l.446.447c.213.165.46,0,.667.1l.524-.539c.225-1.485-.6-2.764-2.43-3.43v-1.883c-.175-.093-.216-.31-.424-.3Z" transform="translate(-56.575 -78.939)" fill="#040506"/>
      <path id="Trazado_616941" data-name="Trazado 616941" d="M81.942,32.417l.409-1.635a3.567,3.567,0,0,0-1.044-3.555,4.482,4.482,0,0,0-5.2-.634,4.4,4.4,0,0,0-2.162,4.376,4.309,4.309,0,0,0,3.675,3.7,1.112,1.112,0,0,0,1.049-.214,8.15,8.15,0,0,0,1.431-.409,2.092,2.092,0,0,0,1.839-1.635" transform="translate(-53.741 -18.94)" fill="#f7f9fa"/>
      <path id="Trazado_616942" data-name="Trazado 616942" d="M75.08,30.768a4.713,4.713,0,0,1-2.669-.7,3.692,3.692,0,0,1-1.63-2.277,4.047,4.047,0,0,1,4.464-5.162,4.844,4.844,0,0,1,2,.806,3.116,3.116,0,0,1,1.041,1.3,4.284,4.284,0,0,1,.469,2.354c.225.029.306.244.5.385h.679l.475-.788a5.612,5.612,0,0,0-1.7-4.021,5.425,5.425,0,0,0-4.084-1.7,5.687,5.687,0,0,0-5.669,5.772,5.4,5.4,0,0,0,1.693,3.982,5.821,5.821,0,0,0,4.336,1.689l.488-.593v-.535c-.08-.188-.364-.259-.4-.517" transform="translate(-50.149 -15.248)" fill="#040506"/>
      <path id="Trazado_616943" data-name="Trazado 616943" d="M98.476,48.829c-.058.024-.147.031-.169.073a3.864,3.864,0,0,1-1.671,1.561v.721l.52.491a1.513,1.513,0,0,0,1.421-.6c.524-.562,1.26-1,1.115-1.95a2.348,2.348,0,0,0-.809-.512l-.408.215" transform="translate(-70.275 -35.352)" fill="#04060a"/>
    </g>
    <g id="Grupo_877351" data-name="Grupo 877351" transform="translate(603.615 564.631)">
      <g id="Grupo_877350" data-name="Grupo 877350" clip-path="url(#clip-path-3)">
        <path id="Trazado_616944" data-name="Trazado 616944" d="M14.456,102.82a5.974,5.974,0,0,0-1.476-3.313A6.822,6.822,0,0,0,9.751,97.8a4.532,4.532,0,0,0,1.82-4.462A4.732,4.732,0,0,0,7.394,89.85a4.8,4.8,0,0,0-3.142,1.107,4.554,4.554,0,0,0-1.412,2.4,4.477,4.477,0,0,0,1.789,4.436,13.4,13.4,0,0,0-1.931.7,5.27,5.27,0,0,0-2.526,3.335A6.884,6.884,0,0,0,0,103.247c0,2.832,0,5.665,0,8.547l.593.488H7.326c1.261,2.535,4.264,3.46,6.571,3.2,3.164-.913,4.654-2.559,5.279-5.458a5.177,5.177,0,0,0-.35-3.131A6.923,6.923,0,0,0,17.12,104.3a8.5,8.5,0,0,0-2.665-1.483" transform="translate(0 -65.867)" fill="#040506"/>
        <path id="Trazado_616945" data-name="Trazado 616945" d="M123.5,97.822a6.221,6.221,0,0,0-3.335,1.761,6.124,6.124,0,0,0-1.423,3.24,12.825,12.825,0,0,0-2.655,1.478,5.368,5.368,0,0,0-1.209,1.594,5.617,5.617,0,0,0-.7,1.814,5.783,5.783,0,0,0,.334,3.806,5.514,5.514,0,0,0,1.509,2.264,6.184,6.184,0,0,0,2.967,1.519,5.68,5.68,0,0,0,3.225-.039,5.743,5.743,0,0,0,3.234-2.305c.118-.216.385-.345.4-.662H132.7l.458-.457a.709.709,0,0,0,.048-.179c0-2.8-.02-5.6.013-8.4a5.058,5.058,0,0,0-.827-2.957,4.577,4.577,0,0,0-3.1-2.212c-.272-.041-.4-.324-.68-.3a4.5,4.5,0,0,0,1.762-4.422,4.475,4.475,0,0,0-4.751-3.5A5.372,5.372,0,0,0,122.995,91a4.943,4.943,0,0,0-1.368,2.424,4.434,4.434,0,0,0,1.877,4.4" transform="translate(-83.581 -65.873)" fill="#040506"/>
        <path id="Trazado_616946" data-name="Trazado 616946" d="M78.713,16.924a3.383,3.383,0,0,1,.968-1.04c.348-.276.355-.821.833-.961.177-.5-.2-.8-.433-1.151a15.266,15.266,0,0,1-1.2-1.72.584.584,0,0,1,.517-.584c.424.044.608.484,1.039.476.432-.278.342-.738.314-1.151a6.7,6.7,0,0,0-4.937-6.007,6.787,6.787,0,0,0-7.33,2.595,6.656,6.656,0,0,0-.047,7.687,6.726,6.726,0,0,0,8.678,2.175,2.429,2.429,0,0,1,1.6-.32" transform="translate(-49.294 -3.327)" fill="#e54d57"/>
        <path id="Trazado_616947" data-name="Trazado 616947" d="M75.445,13.6c-.322-.072-.2-.537-.626-.607A6.322,6.322,0,0,1,69.7,14.369a5.829,5.829,0,0,1-3.6-1.867c-2.048-2.321-2.574-5.034-1.024-7.766A6.507,6.507,0,0,1,77.2,8.567c-.5-.156-.508-.777-.946-1.027-.379.382-.9.521-1.207.975.543.736,1.066,1.493,1.644,2.206a4.124,4.124,0,0,1,.555.874c.254.032.323.311.534.4h.58c.991-1.05,1.785-2.319,2.688-3.5-.324-.439-.847-.58-1.187-.961-.471.271-.468.858-.987,1.046a8.288,8.288,0,0,0-2.756-6.615A7.237,7.237,0,0,0,72.755.214a8.073,8.073,0,0,0-9.1,4.165,8.186,8.186,0,0,0-.795,2.46,8.567,8.567,0,0,0-.009,2.292,5.2,5.2,0,0,0,.445,1.608,13.85,13.85,0,0,0,1.2,2.195,5.517,5.517,0,0,0,1.333,1.343,7.976,7.976,0,0,0,10.007-.045c.021-.309-.395-.342-.4-.634" transform="translate(-46.027 0)" fill="#050506"/>
        <path id="Trazado_616948" data-name="Trazado 616948" d="M78.98,121.636v-1.6H63.458l-.468.467q0,.3,0,.6l3.427,3.424,1.142-1.142-1.747-1.744Z" transform="translate(-46.179 -87.996)" fill="#040506"/>
        <path id="Trazado_616949" data-name="Trazado 616949" d="M76.343,99.991H63.069v1.576H78.6l.453-.481v-.567l-3.416-3.4L74.554,98.2l1.789,1.789" transform="translate(-46.236 -71.201)" fill="#040506"/>
        <rect id="Rectángulo_326174" data-name="Rectángulo 326174" width="1.536" height="1.533" transform="translate(24.047 24.819)" fill="#040506"/>
        <path id="Trazado_616950" data-name="Trazado 616950" d="M90.112,82.5h1.531V80.941c-.47-.052-.984-.006-1.531-.026Z" transform="translate(-66.062 -59.32)" fill="#040506"/>
        <path id="Trazado_616951" data-name="Trazado 616951" d="M90.109,70.509h1.533V68.946c-.472-.051-.986-.006-1.533-.026Z" transform="translate(-66.06 -50.526)" fill="#040506"/>
        <path id="Trazado_616952" data-name="Trazado 616952" d="M17.229,129.017a11.7,11.7,0,0,0-.5-1.323,3.39,3.39,0,0,0-3-1.852c-1.4-.067-2.8-.054-4.2-.005a3.46,3.46,0,0,0-3.356,2.447,3.776,3.776,0,0,0-.212,1.217c.023,2.333.011,4.666.011,7v.506h5.006a5.82,5.82,0,0,1,.2-3.807,6.221,6.221,0,0,1,2.336-3.021,6.637,6.637,0,0,1,3.718-1.161" transform="translate(-4.367 -92.222)" fill="#397abf"/>
        <path id="Trazado_616953" data-name="Trazado 616953" d="M37.59,152.437c2.681-2.339,2.33-5,.957-6.727a4.739,4.739,0,1,0-5.93,7.055,4.033,4.033,0,0,0,2.543.589,6.276,6.276,0,0,0,2.43-.917" transform="translate(-21.941 -105.355)" fill="#ffb436"/>
        <path id="Trazado_616954" data-name="Trazado 616954" d="M19.413,101.592a2.757,2.757,0,0,0,2.743-2.81A2.678,2.678,0,0,0,19.3,96.017a2.648,2.648,0,0,0-2.69,2.832,2.737,2.737,0,0,0,2.805,2.744" transform="translate(-12.175 -70.389)" fill="#fdb05d"/>
        <path id="Trazado_616955" data-name="Trazado 616955" d="M137.965,128.979a7.8,7.8,0,0,1,3.606,1.2,6.082,6.082,0,0,1,2.369,3,5.584,5.584,0,0,1,.177,3.856h5.036v-7.549a3.481,3.481,0,0,0-1.336-2.836,3.314,3.314,0,0,0-2.067-.791c-1.433,0-2.869-.051-4.3.014a3.387,3.387,0,0,0-3.278,2.4c-.073.219-.315.421-.207.7" transform="translate(-101.123 -92.255)" fill="#397abf"/>
        <path id="Trazado_616956" data-name="Trazado 616956" d="M129.646,148.814A4.805,4.805,0,0,0,124.908,144a4.777,4.777,0,1,0-.08,9.554,4.807,4.807,0,0,0,4.818-4.737" transform="translate(-88.02 -105.565)" fill="#ffb436"/>
        <path id="Trazado_616957" data-name="Trazado 616957" d="M154.136,98.751a2.751,2.751,0,0,0-2.826-2.725,2.773,2.773,0,1,0,.1,5.545,2.736,2.736,0,0,0,2.729-2.82" transform="translate(-108.908 -70.398)" fill="#fdb05d"/>
        <path id="Trazado_616958" data-name="Trazado 616958" d="M87.719,15.05H86.185v4.355l-1.438,1.437,1.139,1.139,1.832-1.829Z" transform="translate(-62.129 -11.033)" fill="#060506"/>
        <path id="Trazado_616959" data-name="Trazado 616959" d="M43.777,149.79a2.119,2.119,0,0,0-1.5-1.918c-.2-.272-.051-.514-.164-.783H40.584v.73a2.125,2.125,0,0,0-1.6,2.533,3.6,3.6,0,0,1,.457.915l1.085.559h1.353l.27.289c.061.267-.122.34-.248.494H40.829l-.348-.348H38.954a2.007,2.007,0,0,0,1.4,1.905c.265.208.184.352.2.476a3.176,3.176,0,0,1,0,.349h1.577v-.73a2.124,2.124,0,0,0,1.6-2.533,3.594,3.594,0,0,1-.457-.915l-1.085-.56H40.847l-.287-.357c-.045-.2.138-.272.263-.426h1.071l.318.318Z" transform="translate(-28.553 -107.832)" fill="#050506"/>
        <path id="Trazado_616960" data-name="Trazado 616960" d="M133.675,151.668a3.552,3.552,0,0,1-.463-.913l-1.079-.556H130.78l-.271-.292c-.06-.263.122-.337.248-.491h1.071l.347.347H133.7a2.046,2.046,0,0,0-1.5-1.936c-.176-.285-.082-.521-.11-.744-.023-.023-.047-.068-.071-.068-.49,0-.981,0-1.506,0v.638c-.343.432-.957.405-1.194.832a5.087,5.087,0,0,0-.409.826,3.217,3.217,0,0,0-.022.974c.276.257.318.623.483.931l1.081.558h1.354l.271.292c.06.263-.122.337-.248.491h-1.071l-.347-.347h-1.472c-.214.536.236.89.4,1.293s.783.371,1.1.742c.115.186.02.422.055.7h1.57v-.73a2.126,2.126,0,0,0,1.6-2.538" transform="translate(-94.473 -107.775)" fill="#050506"/>
      </g>
    </g>
    <g id="Grupo_877353" data-name="Grupo 877353" transform="translate(947.615 563.631)">
      <g id="Grupo_877352" data-name="Grupo 877352" clip-path="url(#clip-path-4)">
        <path id="Trazado_616961" data-name="Trazado 616961" d="M88.259,100.195V96.3c-.3-.354-.111-.774-.163-1.162,0-.211,0-.421,0-.632a.647.647,0,0,0-.159-.481c-.063-.3.089-.608-.141-.923-.143-.2.047-.555-.172-.82-.078-.1-.013-.309-.013-.475l-.308-.114c0-.617-.349-1.172-.349-1.81-.044-.112-.171-.067-.24-.1a4.284,4.284,0,0,0-.424-1.134,1.824,1.824,0,0,1-.481-1.016c-.008-.149-.158-.3-.267-.433a4.758,4.758,0,0,1-.551-1.077c-.188-.114-.491-.107-.47-.441.019-.305-.174-.411-.474-.466.141-.393-.2-.648-.39-.852-.2-.22-.507-.323-.436-.734-.548-.088-.626-.721-1.13-.891l-.017-.356a1.274,1.274,0,0,0,.658-.467v-.406c.166-.124.157-.365.325-.488V80.14c-.057-.122-.185-.071-.32-.146a1.079,1.079,0,0,0-.678-1.2c-.192-.077-.134-.456-.45-.438a11.01,11.01,0,0,0,.471-2.21c.166-.124.157-.365.325-.488a1.809,1.809,0,0,1,.148-.827c.1-.216-.055-.508.165-.744.08-.086.013-.309.013-.483l.305-.106V72.474c-.219-.1-.486-.172-.5-.551h-.784c-.154.193-.375.156-.582.167a.5.5,0,0,0-.394.158c-.818-.043-1.613.276-2.436.163-.351.264-.759.133-1.144.162-.154.193-.375.156-.582.167a.5.5,0,0,0-.394.158h-.325a.506.506,0,0,0-.394-.158c-.207-.011-.428.027-.582-.167-.818.043-1.612-.276-2.436-.162-.351-.264-.759-.132-1.144-.163a.507.507,0,0,0-.394-.158c-.207-.011-.428.027-.582-.167h-.736a.7.7,0,0,1-.56.554v.978c.038.119.159.083.3.117.006.7.376,1.359.348,2.087.168.123.159.363.325.488a2.023,2.023,0,0,0,.2,1.135,6,6,0,0,1,.125,1,1.586,1.586,0,0,1-.615.711.889.889,0,0,0-.349,1l-.338.087v.934c.168.123.159.363.325.488v.363a1.081,1.081,0,0,0,.64.505c0,.1.01.2.017.353-.537.057-.493.806-1.041.829-.174.255-.094.559-.42.742a.888.888,0,0,0-.5.865c-.2.135-.506.149-.5.515a.374.374,0,0,1-.409.386c-.171.122.042.387-.168.493-.262.132-.161.559-.292.584a.5.5,0,0,0-.393.486c.012.265-.245.423-.19.664.067.295-.288.126-.339.336-.095.388-.255.759-.391,1.147l-.228.06c.024.642-.418,1.2-.338,1.87l-.3.061a15.386,15.386,0,0,0-.363,2.252.644.644,0,0,0-.159.478c0,.21,0,.42,0,.63-.053.389.132.811-.163,1.167v3.9c.26.25.128.575.167.868a.563.563,0,0,0,.159.432,2.739,2.739,0,0,0,.251,1.277c.076.214.013.417.078.57.521.314.516.844.66,1.3.044.16.211.112.319.171.272.148.057.464.275.631.177.137.487.11.533.41a.414.414,0,0,0,.357.361.427.427,0,0,1,.3.329.426.426,0,0,0,.391.325c.278.046.272.082.471.465a.606.606,0,0,1,.648.34h.562l.052.252c.393.184.854.152,1.248.3a3.343,3.343,0,0,0,1.262.082q4.47.026,8.941,0c.435,0,.912.188,1.315-.151a2.516,2.516,0,0,0,1.2-.235c.029-.071-.031-.165.107-.236h.418c.235-.123.347-.468.664-.333.2-.073.1-.285.249-.4.212-.159.592-.018.667-.335.066-.276.23-.358.457-.456.247-.107.195-.527.469-.594.336-.082.373-.28.412-.566.022-.159.223-.278.425-.293.163-.445.156-.974.677-1.368-.019-.572.4-1.161.346-1.848a.563.563,0,0,0,.159-.431c.039-.293-.093-.618.167-.869" transform="translate(-50.018 -56.34)" fill="#060708"/>
        <path id="Trazado_616962" data-name="Trazado 616962" d="M183.339,94.65h-6.454a1.268,1.268,0,0,0-.413,1c.012,1.809.005,3.619.005,5.414.154.166.348.28.358.545h6.451V103.7a.556.556,0,0,1,.552.517h.716c.093-.435.726-.418.738-.907.445-.036.492-.534.829-.707.362-.186.547-.572.845-.842a4.1,4.1,0,0,0,.853-.84c.206-.349.708-.425.754-.888.464,0,.466-.542.835-.694s.4-.723.849-.769a1.233,1.233,0,0,0-.2-1.124c-.355-.041-.415-.548-.7-.659-.4-.156-.436-.6-.811-.753-.315-.13-.4-.549-.735-.734-.3-.164-.477-.5-.726-.74s-.592-.428-.736-.726c-.178-.368-.622-.421-.77-.8-.125-.322-.681-.3-.645-.754a1.242,1.242,0,0,0-.933-.237c-.42.04-.212.52-.566.493-.023,0-.047.016-.1.034Z" transform="translate(-138.237 -72.079)" fill="#060708"/>
        <path id="Trazado_616963" data-name="Trazado 616963" d="M7,94.754V92.666c-.374.01-.314-.388-.541-.508a1.232,1.232,0,0,0-1.062.224c.009.467-.579.5-.792.885a2.737,2.737,0,0,1-.845.837c-.352.243-.437.775-.938.819-.055.492-.6.562-.816.942a2.877,2.877,0,0,1-.847.837c-.351.244-.431.781-.925.8A1.383,1.383,0,0,0,.024,98.6c.352.1.447.516.741.685.328.189.423.594.735.735.337.151.364.567.675.685.353.134.4.553.752.7.31.129.33.643.766.664.072.4.552.479.676.761.154.349.558.379.67.681.133.359.593.387.7.78H6.45c.109-.2.157-.487.523-.487v-2.071c1.1-.033,2.169-.012,3.241-.015s2.159,0,3.227,0c.1-.211.127-.439.375-.5V95.33c-.1-.161-.139-.405-.372-.576Z" transform="translate(0 -72.159)" fill="#060708"/>
        <path id="Trazado_616964" data-name="Trazado 616964" d="M98.868,0h-.916c-.063.156-.079.335-.235.4-.452.2-.551.8-1.07.911-.057.491-.634.537-.808.949-.084.2-.446.285-.513.425-.1.207-.242.424-.388.466-.3.088-.321.37-.491.539s-.5.177-.517.5c-.485.206-.616.794-1.111,1.008-.2.085-.21.4-.439.526a1.289,1.289,0,0,0,.378,1.235h2.175v6.349c.151.255.411.357.406.639h6.1c.014-.24.18-.374.354-.542v-6.4h2.159a1.261,1.261,0,0,0,.447-1.235c-.244-.226-.362-.568-.7-.748-.274-.146-.444-.455-.668-.683-.282-.287-.678-.5-.846-.843s-.727-.347-.7-.828c-.472-.08-.67-.528-.925-.819-.33-.377-.853-.578-1.024-1.089-.047-.142-.195-.083-.24-.135C99.117.434,98.8.342,98.868,0" transform="translate(-72.346)" fill="#060708"/>
        <path id="Trazado_616965" data-name="Trazado 616965" d="M152.108,40.084c.16.276.226.6.614.724.176.057.238.415.419.525.2.123.365.2.457.459.105.3.648.246.662.684.462.139.557.707,1.01.861a.3.3,0,0,1,.171.163.806.806,0,0,0,.569.566c.174.055.135.268.226.384h.709c.073-.431.688-.393.7-.856a1.231,1.231,0,0,0,.724-.741c.469.007.452-.56.837-.693.331-.114.412-.534.726-.744a3.457,3.457,0,0,0,.79-.785,8.643,8.643,0,0,1,.756-.7,8.424,8.424,0,0,1,1.416,1.414.643.643,0,0,0,.146.037c.241,0,.483,0,.7,0a1.317,1.317,0,0,0,.416-1.073c-.013-2.244-.006-4.488-.006-6.732v-.687l-.342-.577h-8.246c-.19.093-.2.458-.517.526v.675c.421.031.415.565.72.691.522.215.583.6.574,1.061-.172.231-.477.346-.625.546-.174.235-.3.471-.6.54-.068.481-.635.543-.8.953-.1.25-.45.258-.57.481a1.045,1.045,0,0,1-.539.522c-.172.073-.2.328-.346.483s-.4.074-.417.29c-.018.248-.329.277-.333.514a.35.35,0,0,0,0,.488" transform="translate(-119.074 -25.313)" fill="#060708"/>
        <path id="Trazado_616966" data-name="Trazado 616966" d="M44.338,39.555c-.224-.22-.258-.582-.618-.715-.306-.112-.347-.533-.678-.682a1,1,0,0,1-.378-.479c-.068-.13-.383-.176-.472-.362-.127-.268-.388-.37-.577-.558a5.4,5.4,0,0,1-.538-.585c-.314-.43-.891-.613-1.059-1.165-.01-.032-.157.031-.221-.078.18-.135.444-.158.491-.484.039-.272.506-.218.584-.469a.751.751,0,0,1,.53-.5V32.8c-.33-.015-.316-.395-.544-.543h-8.17a1.256,1.256,0,0,0-.395,1q.013,3.532,0,7.065a1.126,1.126,0,0,0,.411,1h.831A6.861,6.861,0,0,1,35,39.879c.1.289.481.266.594.6.106.311.557.332.674.681.1.3.514.287.629.619.108.31.555.334.673.682.1.3.515.284.63.619.106.31.554.336.672.682.1.3.56.267.622.646h.713c.106-.15.1-.421.35-.455a.363.363,0,0,0,.309-.214c.074-.289.32-.358.5-.521.257-.227.388-.593.752-.72.03-.514.708-.464.819-.951.038-.168.4-.239.528-.417s.177-.379.457-.461c.238-.069.294-.4.408-.625a.35.35,0,0,0,0-.488" transform="translate(-25.296 -25.272)" fill="#060708"/>
        <path id="Trazado_616967" data-name="Trazado 616967" d="M63.853,180.04h.29a7.331,7.331,0,0,0,.035-1.137.221.221,0,0,0-.325,0Z" transform="translate(-50.018 -140.085)" fill="#0a0a0b"/>
        <path id="Trazado_616968" data-name="Trazado 616968" d="M174.995,178.9v1.054c.116.128.228.065.325.083V178.9a.221.221,0,0,0-.325,0" transform="translate(-137.079 -140.084)" fill="#0a0b0b"/>
        <path id="Trazado_616969" data-name="Trazado 616969" d="M64.178,203.219v-.731c-.119-.125-.228-.064-.325-.082v.813a.221.221,0,0,0,.325,0" transform="translate(-50.018 -158.552)" fill="#111212"/>
        <path id="Trazado_616970" data-name="Trazado 616970" d="M175.293,202.407h-.275c-.116.257-.018.542-.051.813a.222.222,0,0,0,.325,0Z" transform="translate(-137.051 -158.552)" fill="#121212"/>
        <path id="Trazado_616971" data-name="Trazado 616971" d="M63.853,176.553h.325v-.65a.222.222,0,0,0-.325,0Z" transform="translate(-50.018 -137.734)" fill="#535454"/>
        <path id="Trazado_616972" data-name="Trazado 616972" d="M174.995,176.553h.325v-.65a.222.222,0,0,0-.325,0Z" transform="translate(-137.079 -137.734)" fill="#545555"/>
        <rect id="Rectángulo_326176" data-name="Rectángulo 326176" width="0.325" height="0.488" transform="translate(19.042 24.682)" fill="#4e4f4f"/>
        <rect id="Rectángulo_326177" data-name="Rectángulo 326177" width="0.325" height="0.488" transform="translate(19.692 19.321)" fill="#909292"/>
        <rect id="Rectángulo_326178" data-name="Rectángulo 326178" width="0.325" height="0.488" transform="translate(32.058 19.321)" fill="#919292"/>
        <path id="Trazado_616973" data-name="Trazado 616973" d="M114.918,74.923v.325h.488a.221.221,0,0,0,0-.325Z" transform="translate(-90.019 -58.69)" fill="#4b4b4b"/>
        <rect id="Rectángulo_326179" data-name="Rectángulo 326179" width="0.488" height="0.325" transform="translate(25.387 16.233)" fill="#9ea0a0"/>
        <rect id="Rectángulo_326180" data-name="Rectángulo 326180" width="0.325" height="0.488" transform="translate(32.709 24.682)" fill="#4f4f50"/>
        <path id="Trazado_616974" data-name="Trazado 616974" d="M120.926,75.248h.488a.221.221,0,0,0,0-.325h-.488Z" transform="translate(-94.725 -58.69)" fill="#9ea0a0"/>
        <rect id="Rectángulo_326181" data-name="Rectángulo 326181" width="0.488" height="0.325" transform="translate(26.689 16.233)" fill="#4b4b4b"/>
        <rect id="Rectángulo_326182" data-name="Rectángulo 326182" width="0.325" height="0.488" transform="translate(13.835 44.668)" fill="#868889"/>
        <path id="Trazado_616975" data-name="Trazado 616975" d="M93.891,71.924v.325h.488a.221.221,0,0,0,0-.325Z" transform="translate(-73.548 -56.34)" fill="#4a4a4b"/>
        <rect id="Rectángulo_326183" data-name="Rectángulo 326183" width="0.488" height="0.325" transform="translate(20.831 15.583)" fill="#9f9fa0"/>
        <path id="Trazado_616976" data-name="Trazado 616976" d="M141.953,72.248h.488a.221.221,0,0,0,0-.325h-.488Z" transform="translate(-111.196 -56.34)" fill="#9f9fa0"/>
        <path id="Trazado_616977" data-name="Trazado 616977" d="M87.884,65.909V66.4h.242c.152-.127.073-.284.058-.433-.086-.1-.2-.035-.3-.055" transform="translate(-68.842 -51.625)" fill="#edefef"/>
        <path id="Trazado_616978" data-name="Trazado 616978" d="M151.258,66.412v-.488h-.242c-.152.127-.073.284-.058.433.086.1.2.035.3.055" transform="translate(-118.223 -51.64)" fill="#ebeeef"/>
        <rect id="Rectángulo_326184" data-name="Rectángulo 326184" width="0.325" height="0.488" transform="translate(37.916 44.668)" fill="#88898a"/>
        <rect id="Rectángulo_326185" data-name="Rectángulo 326185" width="0.325" height="0.488" transform="translate(13.835 37.681)" fill="#adaeae"/>
        <rect id="Rectángulo_326186" data-name="Rectángulo 326186" width="0.325" height="0.488" transform="translate(37.916 37.681)" fill="#adafb0"/>
        <rect id="Rectángulo_326187" data-name="Rectángulo 326187" width="0.488" height="0.325" transform="translate(31.245 15.583)" fill="#4a4a4b"/>
        <path id="Trazado_616979" data-name="Trazado 616979" d="M72.195,134.977c.065.9-.239,1.777-.177,2.687a20.286,20.286,0,0,1,0,2.752c-.056.831.2,1.624.183,2.464l.31.106c-.055.538.292.995.362,1.523.406.207.406.207.508.676.219.222.613.261.687.666.031.169.232.2.4.173a1.765,1.765,0,0,0,1.089.247c2.9,0,5.8-.053,8.693.015,2.652.062,5.606-2.537,6.325-4.516a11.717,11.717,0,0,0,.74-4.441c-.043-1.351.066-2.7-.065-4.054a15.545,15.545,0,0,0-1.324-4.637c-.092-.449-.462-.783-.517-1.247-.533-.28-.552-.3-.621-.78-.051-.076-.179-.057-.2-.09-.248-.384-.667-.6-.927-.962-.111-.153-.174-.291-.379-.343a.464.464,0,0,1-.275-.26c-.174-.494-.569-.542-1-.542H78.463a21.631,21.631,0,0,0-2.339,2.286c.011.287-.212.535-.634.676-.122.128.052.4-.2.533a.372.372,0,0,0-.154.475c-.188.156-.465.14-.513.451a1.3,1.3,0,0,1-.466.938.572.572,0,0,0-.182.32,1.544,1.544,0,0,1-.453.948c-.247.253-.25.746-.351,1.136-.02.076-.01.157-.121.2h-.185c-.008.719-.376,1.376-.348,2.109-.166.124-.157.365-.325.488" transform="translate(-56.408 -97.458)" fill="#ffdd5f"/>
        <path id="Trazado_616980" data-name="Trazado 616980" d="M98.835,143.915c-.3.07-.14.277-.131.457l.28.058c-.039.652.392,1.226.351,1.888l.268.07a1.106,1.106,0,0,1,.044.143c.06.355-.079.712.141,1.081.156.263-.076.666.173.983.079.1.012.315.012.477,0,1.65.019,3.3-.011,4.948a5.387,5.387,0,0,1-.291,1.659,2.185,2.185,0,0,0-.045.546l-.3.067c.121.548-.328.978-.341,1.525-.338.089-.544.285-.475.633-.229.284-.678.288-.707.712-.545.18-.653.919-1.277,1-.266.514-.862.383-1.271.632-.149.091-.132.19-.221.348-.552-.139-1.078.2-1.664.165s-1.191-.008-1.787-.008h-8.2c.125.373.362.729.728.775.3.037.164.409.4.356s.358.209.574.169.345.24.573.163a.508.508,0,0,0,.394.158c.207.011.428-.027.582.167h9.437c.154-.193.375-.156.582-.167a.5.5,0,0,0,.394-.158,6.985,6.985,0,0,0,1.158-.35c.178-.034.32-.351.532-.427.245-.088.422-.184.444-.46.535-.178.6-.9,1.159-.973.223-.248.028-.744.581-.712.037-.552.437-1.012.359-1.583l.266-.069c.019-.046.058-.094.054-.138-.053-.635.227-1.234.177-1.877-.052-.671-.012-1.348-.012-2.023,0-.648-.023-1.3.006-1.943a14.218,14.218,0,0,1-.169-1.957c-.168-.123-.159-.363-.325-.487a14.556,14.556,0,0,0-.342-1.923l-.327-.069c.136-.405-.192-.728-.16-1.134a.55.55,0,0,0-.252-.431.362.362,0,0,1-.233-.236c-.158-.417-.118-.941-.627-1.2-.062-.031.011-.381-.193-.462s-.039-.4-.306-.4" transform="translate(-65.313 -112.733)" fill="#eeb000"/>
        <path id="Trazado_616981" data-name="Trazado 616981" d="M98.6,80.923h-.244c-.275.5.018.974.107,1.437a3.737,3.737,0,0,1,.129.956l.326.085a4.551,4.551,0,0,0,.377,1.747h5.813a.843.843,0,0,0,.216-.553,1.138,1.138,0,0,1,.237-.644,8.321,8.321,0,0,0,.411-1.755,1.122,1.122,0,0,1,.19-.636.308.308,0,0,0-.079-.313c-.427-.094-.794.2-1.224.175a4.821,4.821,0,0,0-1.231.11,1.971,1.971,0,0,1-1.54-.121c-.018-.012-.053,0-.08,0-.823.113-1.616-.206-2.434-.163a.507.507,0,0,0-.394-.158c-.207-.011-.428.027-.582-.167" transform="translate(-76.955 -63.39)" fill="#ffdc5f"/>
        <path id="Trazado_616982" data-name="Trazado 616982" d="M104.568,107.919h-7.93c.006.376-.385.322-.5.541a1.369,1.369,0,0,0,.172,1.039,1.409,1.409,0,0,0,.968.209q3.647,0,7.294,0a1.193,1.193,0,0,0,0-1.787" transform="translate(-75.276 -84.536)" fill="#ea6146"/>
        <path id="Trazado_616983" data-name="Trazado 616983" d="M129.937,84.5v.65h1.583a4.427,4.427,0,0,0,.366-1.688c.059-.131.19-.077.313-.15.008-.773.289-1.532.346-2.294-.112-.144-.23-.072-.33-.093-.154.193-.375.156-.582.167a.5.5,0,0,0-.394.158h-.325v.325c-.166.124-.157.365-.325.487a2.824,2.824,0,0,1-.242,1.265,5.114,5.114,0,0,0-.084.684c-.166.124-.157.365-.325.488" transform="translate(-101.784 -63.389)" fill="#edb000"/>
        <path id="Trazado_616984" data-name="Trazado 616984" d="M135.143,107.919c-.078.228.189.352.168.574a2.78,2.78,0,0,0,0,.719c.036.215-.145.321-.172.495.294,0,.589,0,.883,0s.578.064.806-.212a1.308,1.308,0,0,0,.238-1.031c-.119-.214-.492-.174-.5-.543Z" transform="translate(-105.85 -84.536)" fill="#e23a21"/>
        <rect id="Rectángulo_326188" data-name="Rectángulo 326188" width="0.325" height="0.488" transform="translate(15.787 37.031)" fill="#867134"/>
        <rect id="Rectángulo_326189" data-name="Rectángulo 326189" width="0.325" height="0.488" transform="translate(35.963 37.031)" fill="#775a0d"/>
        <path id="Trazado_616985" data-name="Trazado 616985" d="M96.374,231.229V230.9h-.488a.221.221,0,0,0,0,.325Z" transform="translate(-75.055 -180.874)" fill="#b58700"/>
        <path id="Trazado_616986" data-name="Trazado 616986" d="M142.44,230.9h-.488v.325h.488a.221.221,0,0,0,0-.325" transform="translate(-111.196 -180.874)" fill="#b48600"/>
        <path id="Trazado_616987" data-name="Trazado 616987" d="M99.9,80.923v.325h.488a.221.221,0,0,0,0-.325Z" transform="translate(-78.254 -63.39)" fill="#b09442"/>
        <rect id="Rectángulo_326190" data-name="Rectángulo 326190" width="0.488" height="0.325" transform="translate(22.133 17.533)" fill="#4a3f1f"/>
        <path id="Trazado_616988" data-name="Trazado 616988" d="M135.945,81.247h.488a.221.221,0,0,0,0-.325h-.488Z" transform="translate(-106.49 -63.389)" fill="#453613"/>
        <rect id="Rectángulo_326191" data-name="Rectángulo 326191" width="0.488" height="0.325" transform="translate(29.943 17.533)" fill="#957008"/>
        <rect id="Rectángulo_326192" data-name="Rectángulo 326192" width="0.488" height="0.325" transform="translate(31.245 50.03)" fill="#4a3b13"/>
        <rect id="Rectángulo_326193" data-name="Rectángulo 326193" width="0.488" height="0.325" transform="translate(20.343 50.03)" fill="#4a3b13"/>
        <path id="Trazado_616989" data-name="Trazado 616989" d="M191.08,106.567v.574c-.1.4-.561.276-.531.692h-6.47v3.414h.791q2.516,0,5.032,0c.31,0,.637-.078.9.2a1.2,1.2,0,0,1,.232,1.064c.349-.048.447-.338.639-.462.428-.276.576-.853,1.115-.985.062-.486.617-.553.806-.948a.741.741,0,0,1,.554-.408v-.326c-.182-.082-.409-.144-.477-.349a.506.506,0,0,0-.41-.4c-.251-.06-.21-.411-.406-.547a4.909,4.909,0,0,1-1.236-1.247c-.134-.195-.406-.066-.541-.274" transform="translate(-144.195 -83.477)" fill="#ea6146"/>
        <path id="Trazado_616990" data-name="Trazado 616990" d="M12.894,112.421c.026-.462-.1-.821.229-1.1.054-.13.272-.058.351-.261h6.4v-3.377H13.435c.01-.4-.386-.338-.532-.611v-.723c-.317.185-.6.263-.729.632-.061.177-.418.237-.525.419-.122.206-.192.376-.462.453s-.214.508-.468.592a.652.652,0,0,0-.459.457.321.321,0,0,1-.442.221v.394c.255.183.613.278.656.679.484.065.567.6.948.807.2.111.3.412.493.551a1.065,1.065,0,0,1,.508.551c.066.21.325.106.471.319" transform="translate(-7.691 -83.305)" fill="#ea6146"/>
        <path id="Trazado_616991" data-name="Trazado 616991" d="M108.7,10.265c-.322.211-.667.273-.764.671-.057.237-.484.143-.542.406a.505.505,0,0,1-.459.447c-.165.443-.7.566-.872,1-.084.208-.3.265-.577.393h.933c.174.207.175.49.455.548v6.448h3.568V13.872c.1-.239.388-.325.367-.593.193-.14.435.042.652-.154-.179-.241-.135-.63-.567-.722a.4.4,0,0,1-.282-.347c-.013-.089-.114-.225-.188-.234-.385-.049-.386-.476-.629-.615a1.089,1.089,0,0,1-.562-.577c-.079-.213-.378-.154-.534-.365" transform="translate(-82.627 -8.041)" fill="#d9d9d9"/>
        <path id="Trazado_616992" data-name="Trazado 616992" d="M169.834,44.452c.251,0,.279.421.619.3v-4.16H166.07c.155.16.212.381.43.288.158.174-.024.421.255.555-.243.122-.147.344-.206.552-.4-.019-.379.437-.622.583a1.073,1.073,0,0,0-.565.573c-.081.236-.486.143-.545.406a.5.5,0,0,1-.458.446c-.165.442-.693.567-.877,1a.484.484,0,0,1-.273.263.458.458,0,0,0-.375.347.489.489,0,0,1-.388.332.42.42,0,0,0-.244.565c.188.237.478.436.718.68.261.266.458.637.783.791.35.165.356.63.788.7a2.724,2.724,0,0,0,.782-.453c.114-.288.395-.384.584-.57s.308-.44.562-.6c.286-.179.336-.64.762-.674.055-.492.637-.532.807-.949.081-.2.449-.282.511-.423.094-.215.27-.318.384-.488.076-.114.2-.036.3-.058a.415.415,0,0,1,.651,0" transform="translate(-127.037 -31.793)" fill="#3db2c5"/>
        <path id="Trazado_616993" data-name="Trazado 616993" d="M195.17,57.214v-.243c-.182-.19-.4-.015-.558-.088-.142.116-.072.231-.093.33Z" transform="translate(-152.373 -44.555)" fill="#0d565a"/>
        <path id="Trazado_616994" data-name="Trazado 616994" d="M41.238,44.452a.347.347,0,0,1,.412.173c.2.451.8.549.912,1.067.333.119.487.407.707.651a8.092,8.092,0,0,1,.618.627c.162.219.468.315.636.618.11.2.5.289.606.549.109.277.424.256.549.487.031.058.192.047.258.06.416-.1.437-.55.783-.717.325-.157.522-.526.783-.791a9.833,9.833,0,0,0,.742-.71c-.011-.121.011-.3-.035-.319-.434-.187-.562-.706-1-.889a.441.441,0,0,1-.288-.345c-.014-.09-.11-.226-.184-.236-.379-.054-.393-.465-.63-.614a1.186,1.186,0,0,1-.563-.575c-.089-.225-.487-.15-.544-.407a.583.583,0,0,0-.456-.457.505.505,0,0,1-.25-.376.33.33,0,0,0-.379-.232c-.169-.145.032-.444-.228-.55.118-.149.226-.3.127-.486.194-.112.406-.155.516-.392H39.968v4.16c.34.125.368-.3.619-.3a.415.415,0,0,1,.651,0" transform="translate(-31.308 -31.793)" fill="#3db2c5"/>
        <path id="Trazado_616995" data-name="Trazado 616995" d="M43.466,57.223v-.251c-.187-.133-.394-.065-.588-.055-.113.092-.043.207-.063.307Z" transform="translate(-33.536 -44.564)" fill="#0c5356"/>
        <path id="Trazado_616996" data-name="Trazado 616996" d="M99.484,140.435c-.348-.075-.7-.118-.823-.558-.076-.273-.458-.235-.616-.476a10.649,10.649,0,0,1-.2-1.448,8.018,8.018,0,0,1,.337-1.324c.3-.157.6-.3.671-.686a4.384,4.384,0,0,1,1.788-.388c1.65.017,3.3.006,4.988.006V133.79H102.1v-1.784h-1.633V133.8a5.138,5.138,0,0,0-1.769.174l-.047.23c-.143.139-.424-.033-.547.214-.1.208-.307.178-.5.172a.961.961,0,0,1-.7.683c.121.471-.577.614-.337,1.1H96.3a6.182,6.182,0,0,0-.043,3.319c.032.122.161.073.277.132-.127.424.477.6.354,1.049.41.01.451.383.647.644.245.094.65.023.661.444a7.313,7.313,0,0,0,3.329.423h1.056c.124.166.365.157.488.325.348.075.7.118.823.558.076.273.458.235.523.335a3.6,3.6,0,0,1-.079,2.932c-.26.139-.566.285-.637.667a4.383,4.383,0,0,1-1.788.388c-1.65-.017-3.3-.006-4.988-.006v1.771h3.528v1.784h1.633v-1.792a4.856,4.856,0,0,0,1.77-.181l.046-.222c.143-.139.424.033.547-.214.1-.208.307-.178.5-.172a.962.962,0,0,1,.7-.683c-.121-.47.577-.614.337-1.1h.281a6.181,6.181,0,0,0,.043-3.319c-.032-.122-.161-.073-.277-.132.127-.424-.477-.6-.354-1.049-.41-.01-.45-.384-.647-.644-.245-.094-.65-.023-.661-.443a7.307,7.307,0,0,0-3.329-.423H99.972c-.124-.166-.365-.157-.488-.325" transform="translate(-75.236 -103.404)" fill="#060708"/>
        <rect id="Rectángulo_326194" data-name="Rectángulo 326194" width="0.488" height="0.325" transform="translate(24.248 37.031)" fill="#7f6b31"/>
        <rect id="Rectángulo_326195" data-name="Rectángulo 326195" width="0.488" height="0.325" transform="translate(27.34 38.981)" fill="#806c32"/>
        <rect id="Rectángulo_326196" data-name="Rectángulo 326196" width="0.325" height="0.488" transform="translate(28.153 20.62)" fill="#fdcb2d"/>
        <rect id="Rectángulo_326197" data-name="Rectángulo 326197" width="0.325" height="0.488" transform="translate(28.804 18.183)" fill="#fccb33"/>
      </g>
    </g>
    <g id="Grupo_877355" data-name="Grupo 877355" transform="translate(1124.615 567.631)">
      <g id="Grupo_877354" data-name="Grupo 877354" clip-path="url(#clip-path-5)">
        <path id="Trazado_616997" data-name="Trazado 616997" d="M21.911,40.62c-.977-2.511-2.911-3.638-5.093-4.468-2.944-.476-4.449-.119-6.351,1.162A7.4,7.4,0,0,0,7.074,43.66a7.86,7.86,0,0,0,3.241,6.468H.453l-.432.433V70.986l.413.415h43l.423-.476V50.566l-.521-.424H33.485a7.938,7.938,0,0,0,2.96-4.127,7.35,7.35,0,0,0-.156-4.961A7.674,7.674,0,0,0,25.2,37a7.434,7.434,0,0,0-3.287,3.619" transform="translate(-0.016 -27.47)" fill="#040506"/>
        <path id="Trazado_616998" data-name="Trazado 616998" d="M5.992,2.184,7.039,1.136V.476l-.523-.4H.381L.108.545,0,.46V6.727l.393.394H1L2.038,6.084c.017,0,.046,0,.075,0s.067-.005.083.01c1.522,1.521,3.042,3.043,4.577,4.58h.475l3.338-3.343V6.786l-4.6-4.6" transform="translate(0 -0.06)" fill="#040506"/>
        <path id="Trazado_616999" data-name="Trazado 616999" d="M144.886,0l-.433.452v.679l1.051.928-4.594,4.6V7.22l3.4,3.408h.417l4.642-4.648a12.808,12.808,0,0,1,1.167,1.086h.587l.4-.671V.446L151.082,0h-6.2" transform="translate(-107.675 -0.004)" fill="#040506"/>
        <path id="Trazado_617000" data-name="Trazado 617000" d="M79.667,5.683h1.689l.313-.5.1.083V4.782L77.1.1c-.141-.142-.341-.1-.54-.086L71.931,4.648c-.1.178-.027.384-.044.582l.438.438h1.584a.424.424,0,0,1,.065.059.14.14,0,0,1,.031.074c0,.972,0,1.943,0,2.993l.562.4h4.666l.433-.434Z" transform="translate(-54.923 0)" fill="#040506"/>
        <path id="Trazado_617001" data-name="Trazado 617001" d="M5.976,102.263v18.366h40.94c.122-.718.17-15.895.051-18.366Z" transform="translate(-4.566 -78.143)" fill="#6faa2e"/>
        <path id="Trazado_617002" data-name="Trazado 617002" d="M47.314,44.818c-.024-.109.046-.226-.06-.33-.422-.412-.8-.871-1.26-1.24A5.66,5.66,0,0,0,43.786,42.2a5.528,5.528,0,0,0-1.775-.228,6.579,6.579,0,0,0-4.145,1.753,6.079,6.079,0,0,0-1.746,2.822,3.759,3.759,0,0,0-.3,1.466c.06.507-.2,1.051.171,1.52a4.629,4.629,0,0,0,.775,2.156,5.2,5.2,0,0,0,1.706,1.8,6.587,6.587,0,0,0,1.9.973,7.344,7.344,0,0,0,.752.1,5.338,5.338,0,0,0,4.885-1.807,6.764,6.764,0,0,0,1.307-7.936" transform="translate(-27.346 -32.063)" fill="#ffe183"/>
        <path id="Trazado_617003" data-name="Trazado 617003" d="M107.144,44.572a5.924,5.924,0,0,0-3.119-2.173,6.143,6.143,0,0,0-4.488.294,6.432,6.432,0,0,0-2.5,2.037,5.2,5.2,0,0,0-1.014,2.222,2.747,2.747,0,0,0-.211,1.076c.06.344-.032.713.023,1.059a5.455,5.455,0,0,0,.386,1.606,7.841,7.841,0,0,0,1.4,2.18,7.323,7.323,0,0,0,2.761,1.695,5.386,5.386,0,0,0,.753.1,4.7,4.7,0,0,0,3.373-.629c2.839-1.5,4.887-6.06,2.642-9.468" transform="translate(-73.201 -32.171)" fill="#ffe183"/>
        <path id="Trazado_617004" data-name="Trazado 617004" d="M124.413,52.577c-.015.333.262.548.343.83a7.343,7.343,0,0,1,.334,3.21,5.666,5.666,0,0,1-.334,1.535,13.528,13.528,0,0,1-1.069,1.943,8.213,8.213,0,0,1-1.175,1.2,11.848,11.848,0,0,1-2.611,1.37c-.5.038-1,.01-1.5.01a.132.132,0,0,0,.139.172c.65-.074,1.331.186,1.956-.172a5.488,5.488,0,0,0,3.91-2.241,4.73,4.73,0,0,0,1.256-2.829c.01-.272.18-.509.183-.81a6.932,6.932,0,0,0-1.02-3.734c-.115-.19-.153-.421-.408-.484" transform="translate(-90.47 -40.176)" fill="#fec751"/>
        <path id="Trazado_617005" data-name="Trazado 617005" d="M64.588,54.061a13.117,13.117,0,0,1,.5,1.9,4.348,4.348,0,0,1-.006,1.837,7.987,7.987,0,0,1-.329,1.443c-.2.447-.472.861-.7,1.3a5.484,5.484,0,0,1-2.412,2.4c-.338.175-.671.357-1.014.524a2.8,2.8,0,0,1-1.357.34c-.293-.011-.586,0-.88,0a.132.132,0,0,0,.139.172c.651-.074,1.332.186,1.957-.172a6.2,6.2,0,0,0,5.192-5.074,6.888,6.888,0,0,0,.129-1.521A6.406,6.406,0,0,0,64.8,54.188c-.044-.065-.1-.155-.21-.127" transform="translate(-44.62 -41.306)" fill="#fec751"/>
        <path id="Trazado_617006" data-name="Trazado 617006" d="M84.3,82.6a7.29,7.29,0,0,1-2.69,3.159c1,.061,1.8.025,2.6.032.821.007,1.642,0,2.483,0-.063-.4-.429-.453-.668-.643a3.219,3.219,0,0,1-.641-.787c-.168-.254-.378-.486-.56-.738A6.865,6.865,0,0,1,84.3,82.6" transform="translate(-62.362 -63.117)" fill="#f5f7f9"/>
        <path id="Trazado_617007" data-name="Trazado 617007" d="M11.59,13.452l1.848-1.85c0,.1,0,.068,0,.038s0-.065-.016-.081Q11.145,9.275,8.855,6.984V6.418l.384-.384c-1.09-.087-2.13-.016-3.2-.047V9.347l.308-.515H7l4.594,4.62" transform="translate(-4.615 -4.574)" fill="#c62a26"/>
        <path id="Trazado_617008" data-name="Trazado 617008" d="M148.41,11.744l1.8,1.8c.805-.693,1.546-1.521,2.336-2.3s1.542-1.54,2.317-2.317h.533l.406.385v-3.2h-3.082c-.116.275.329.2.289.3v.725l-4.6,4.6" transform="translate(-113.406 -4.673)" fill="#c62a26"/>
        <path id="Trazado_617009" data-name="Trazado 617009" d="M82.913,10.366c.1.057.308-.024.5.007l.463.463v3.057H86.65V10.826l.581-.451.389-.018-2.35-2.353-2.358,2.361" transform="translate(-63.357 -6.117)" fill="#c62a26"/>
        <path id="Trazado_617010" data-name="Trazado 617010" d="M34.17,108.847a5.414,5.414,0,0,0-1.5-.554,8.924,8.924,0,0,0-2.23-.146,5.339,5.339,0,0,0-2.249.538,1.832,1.832,0,0,1-.907.161c-4.008,0-8.017,0-12.117,0l-.3.459a6.1,6.1,0,0,1-.314,1.134l-1.034,1.034a2.1,2.1,0,0,1-1.143.193l-.452.459v7.625l.487.435c.385-.142.759.2,1.19.174l.937.944c.028.414.367.781.157,1.243l.581.455H27.737a7.811,7.811,0,0,0,6.558.021H46.86l.436-.5c-.122-.375.177-.754.184-1.2l.957-.932c.406-.069.812-.312,1.243-.209l.43-.43v-7.675l-.554-.384a2.72,2.72,0,0,1-1.036-.217l-1.033-1.035c.028-.345-.34-.715-.172-1.14l-.46-.462H34.17" transform="translate(-9.109 -82.629)" fill="#040506"/>
        <path id="Trazado_617011" data-name="Trazado 617011" d="M53.227,50.128a3.155,3.155,0,0,0-.536-.4c-.142-.078-.213-.375-.412-.539v-.9a1.58,1.58,0,0,1,.921-.976h.892a1.988,1.988,0,0,1,1.045,1.382h1.356a2.225,2.225,0,0,0-.555-1.679c-.406-.466-.809-.985-1.552-.981V45.2H53.031c-.168.221,0,.529-.088.795a2.768,2.768,0,0,0-2.088,3.156,2.831,2.831,0,0,0,3.085,2.4c.192.224.5.226.756.435.047.32.4.581.4,1,0,.393-.359.622-.377.893a1.423,1.423,0,0,1-2.093,0l-.439-.9H50.851a2.2,2.2,0,0,0,.556,1.678c.409.459.792,1.009,1.551.963v.849h1.356c.168-.221,0-.529.088-.795a2.764,2.764,0,0,0,2.086-3.155,2.857,2.857,0,0,0-3.261-2.4" transform="translate(-38.835 -34.542)" fill="#050606"/>
        <path id="Trazado_617012" data-name="Trazado 617012" d="M114.58,47.622l.494,1.018h1.332a2.224,2.224,0,0,0-.456-1.579,2.288,2.288,0,0,0-1.6-1.074c-.157-.255.046-.569-.118-.847h-1.32v.809a2.4,2.4,0,0,0-1.776,1.242,2.534,2.534,0,0,0-.366,1.956,2.882,2.882,0,0,0,3.219,2.352,4.192,4.192,0,0,1,1.008.987v.863c-.132.2-.4.319-.415.61-.272-.005-.38.232-.552.374h-.917c-.025-.354-.546-.214-.6-.61-.024-.18-.335-.233-.341-.474,0-.086,0-.173,0-.3h-1.4a2.046,2.046,0,0,0,.464,1.56,2.14,2.14,0,0,0,1.588,1.078c.159.258-.044.572.12.85h1.32v-.809a2.4,2.4,0,0,0,1.776-1.242,2.51,2.51,0,0,0,.356-2.042,2.761,2.761,0,0,0-2.681-2.25c-.428-.015-.706-.314-1.119-.384-.117-.4-.557-.732-.4-1.2.09-.275.088-.6.334-.836a1.762,1.762,0,0,1,1.061-.427c.386-.047.635.316.987.37" transform="translate(-84.602 -34.493)" fill="#050606"/>
        <path id="Trazado_617013" data-name="Trazado 617013" d="M77.259,116.8c0-.088.038-.209-.006-.261a6.991,6.991,0,0,0-3.438-2.355,4.469,4.469,0,0,0-2.294-.2,6.994,6.994,0,0,0-1.829.491,8.8,8.8,0,0,0-1.942,1.291,6.346,6.346,0,0,0-1.69,2.755,5.7,5.7,0,0,0-.275,1.381c-.019.469-.216.992.153,1.43A4.838,4.838,0,0,0,67,124.075a5.364,5.364,0,0,0,1.336,1.381,8.09,8.09,0,0,0,2.114,1.069,2.428,2.428,0,0,0,.791.013,5.049,5.049,0,0,0,4.455-1.563,6.777,6.777,0,0,0,1.56-8.18" transform="translate(-50.215 -87.036)" fill="#528b23"/>
        <path id="Trazado_617014" data-name="Trazado 617014" d="M28.6,126.376a1.466,1.466,0,0,0-.108-.576,6.115,6.115,0,0,1-.452-1.408,8.323,8.323,0,0,1-.139-2.146,6.733,6.733,0,0,1,.532-2.341,8.361,8.361,0,0,1,1.74-2.646.186.186,0,0,0-.031-.053.125.125,0,0,0-.071-.039c-3.061,0-6.121,0-9.251,0a4.827,4.827,0,0,1-1.055,1.849,4.839,4.839,0,0,1-1.756.98v5.646a6.974,6.974,0,0,1,1.4.732c.031.029.114,0,.173,0a2.207,2.207,0,0,0,1.264.3c2.2,0,4.4.006,6.6-.006a1.474,1.474,0,0,0,1.159-.291" transform="translate(-13.76 -89.53)" fill="#3d6622"/>
        <path id="Trazado_617015" data-name="Trazado 617015" d="M117.748,126.2c-.112-.02-.142.054-.179.139a2.874,2.874,0,0,1-.422.877c-.365.371-.545.888-.992,1.178a.417.417,0,0,0,.056.073.135.135,0,0,0,.073.034c3.057,0,6.113,0,9.238,0a5,5,0,0,1,1.052-1.844,5.688,5.688,0,0,1,1.771-1.008V120.03a6.154,6.154,0,0,1-1.783-1.036,4.726,4.726,0,0,1-1.042-1.829h-1.4a5.783,5.783,0,0,0-.123,3.471c.3.38.733.309,1.137.336a2.538,2.538,0,0,1,1.28.2,5.474,5.474,0,0,1,.058,3.294c-.712.489-1.626,0-2.367.421a2.271,2.271,0,0,1-2.476,1.25,21.411,21.411,0,0,0-3.878.066" transform="translate(-88.758 -89.53)" fill="#355c21"/>
        <path id="Trazado_617016" data-name="Trazado 617016" d="M123.874,120.708v-3.543h-8.037a7.554,7.554,0,0,1,1.564,2.157,6.718,6.718,0,0,1,.666,1.938,11.493,11.493,0,0,1,.143,1.875,5.323,5.323,0,0,1-.7,2.8c-.039.064-.005.174-.005.262.03.293.26.171.4.171q2.277.013,4.553,0a1.344,1.344,0,0,0,1.415-1.416c-.418-.385-.939-.234-1.423-.272a6.1,6.1,0,0,1-2.389-.237,8.052,8.052,0,0,1-.053-3.133c.533-.456,1.113-.283,1.652-.339.739-.077,1.524.216,2.213-.271" transform="translate(-88.515 -89.53)" fill="#3d6622"/>
        <path id="Trazado_617017" data-name="Trazado 617017" d="M33.679,156.218H24.657a6.09,6.09,0,0,1,1.227,2.109h9.439c-.674-.674-1.078-1.451-1.644-2.109" transform="translate(-18.841 -119.372)" fill="#355c21"/>
        <path id="Trazado_617018" data-name="Trazado 617018" d="M95.173,126.177a13.14,13.14,0,0,1,.5,1.9,4.347,4.347,0,0,1-.006,1.836,7.966,7.966,0,0,1-.329,1.443c-.2.447-.466.864-.7,1.3a5.91,5.91,0,0,1-2.409,2.408c-.454.249-.909.486-1.386.69a4.457,4.457,0,0,1-1.689.17c.021.05.04.144.063.145a5.337,5.337,0,0,0,1.4.011,9.912,9.912,0,0,0,1.91-.5,6.369,6.369,0,0,0,3.45-3.607,4.334,4.334,0,0,0,.258-3.282,4.537,4.537,0,0,0-.708-2.181.478.478,0,0,0-.354-.332" transform="translate(-68.129 -96.417)" fill="#4a7b23"/>
        <path id="Trazado_617019" data-name="Trazado 617019" d="M83.9,123.614c.219.24.512.267.752.4.062.355.392.59.409.982s-.332.639-.372,1.015a4.149,4.149,0,0,1-1.039.442c-.4.038-.626-.355-1-.37l-.495-1.032H80.825a2.071,2.071,0,0,0,.455,1.566c.392.5.809,1.073,1.587,1.085.164.251-.02.562.118.849h1.325v-.78a2.578,2.578,0,0,0,1.955-1.615,2.667,2.667,0,0,0-.12-2.435,2.787,2.787,0,0,0-2.7-1.529l-.834-.421c-.122-.272-.265-.566-.386-.87-.131-.33.273-.567.178-.883.207-.455.668-.511,1.049-.64.429-.146.773.241,1.2.4l.471.984h1.331A2.074,2.074,0,0,0,86,119.194c-.392-.5-.809-1.073-1.587-1.085-.164-.251.02-.562-.118-.849H82.968v.78a2.578,2.578,0,0,0-1.955,1.615,2.706,2.706,0,0,0,.117,2.436,2.871,2.871,0,0,0,2.774,1.523" transform="translate(-61.726 -89.602)" fill="#040606"/>
        <path id="Trazado_617020" data-name="Trazado 617020" d="M30.606,136.469l.436-.446v-3.378l-.52-.417H24.389l-.287.484-.112-.091v3.429l.537.419Z" transform="translate(-18.332 -101.04)" fill="#040506"/>
        <path id="Trazado_617021" data-name="Trazado 617021" d="M136.194,132.185h-3.816l-.417.536v3.293l.492.422H138.6l.417-.5v-3.33l-.513-.424Z" transform="translate(-100.836 -101.007)" fill="#040506"/>
        <path id="Trazado_617022" data-name="Trazado 617022" d="M29.907,138.9v.614a.424.424,0,0,0,.058.063.14.14,0,0,0,.074.031c1.343,0,2.686,0,4.071,0v-1.417h-.665a2.449,2.449,0,0,1-1.745.452c-.6.033-1.244-.165-1.793.256" transform="translate(-22.853 -105.598)" fill="#4a7b23"/>
        <path id="Trazado_617023" data-name="Trazado 617023" d="M29.907,138.9h3.08c.17-.2.52-.308.458-.709H29.907Z" transform="translate(-22.853 -105.598)" fill="#528b23"/>
        <path id="Trazado_617024" data-name="Trazado 617024" d="M137.91,138.9v.614a.41.41,0,0,0,.058.063.14.14,0,0,0,.074.031c1.343,0,2.686,0,4.071,0v-1.417h-.665a2.45,2.45,0,0,1-1.745.452c-.6.033-1.244-.165-1.793.256" transform="translate(-105.382 -105.598)" fill="#4a7b23"/>
        <path id="Trazado_617025" data-name="Trazado 617025" d="M137.91,138.9h3.08c.17-.2.52-.308.458-.709H137.91Z" transform="translate(-105.382 -105.598)" fill="#528b23"/>
      </g>
    </g>
    <g id="Grupo_877357" data-name="Grupo 877357" transform="translate(772.615 561.631)">
      <g id="Grupo_877356" data-name="Grupo 877356" clip-path="url(#clip-path-6)">
        <path id="Trazado_617026" data-name="Trazado 617026" d="M33.06,40.884a3,3,0,0,1-.222,1.777,7.3,7.3,0,0,0-.156,1.848,4.8,4.8,0,0,0,.16,1.743c.192.494.04,1.171.3,1.694a8.631,8.631,0,0,0,.626,1.451c.322.444.41,1.057.731,1.5a11.784,11.784,0,0,0,3.393,3.393,11.568,11.568,0,0,0,3.531,1.61c.1.02.168.179.259.188a16.224,16.224,0,0,0,3.982.212,10.654,10.654,0,0,0,3.079-.76A19.516,19.516,0,0,0,51.4,54.032a12.084,12.084,0,0,0,4.372-6.119,12.216,12.216,0,0,0,.445-4.685,14.055,14.055,0,0,0-.738-2.982,15.305,15.305,0,0,0-1.856-3.2,13.263,13.263,0,0,0-5.643-3.867c-.529.123-.961-.366-1.485-.242-.391.093-.638-.391-1.045-.233-.192-.276-.087-.586-.088-.873-.009-4.465-.045-8.931.018-13.4a3.067,3.067,0,0,0-1.647-2.758c-.089-.06-.181-.114-.361-.227H23.193a4.549,4.549,0,0,1,.238-1.946,12.38,12.38,0,0,0,0-3.362,8.785,8.785,0,0,0-.521-2.289,13.659,13.659,0,0,0-1.572-2.988,18.333,18.333,0,0,0-1.382-1.576A11.549,11.549,0,0,0,15.118.478,13.684,13.684,0,0,0,10.435.016C9.977.51,9.259-.028,8.792.43A13.494,13.494,0,0,0,5.692,1.7,6.772,6.772,0,0,0,4.225,2.788,8.862,8.862,0,0,0,1.974,5.242,17.745,17.745,0,0,0,.5,8.374a13.384,13.384,0,0,0-.478,4.8c.414.463.114,1.063.306,1.576A20.7,20.7,0,0,0,1.6,17.631a10.76,10.76,0,0,0,3.648,3.96A15.281,15.281,0,0,0,8.152,23.06c.4.149.833.169,1.234.284a7.763,7.763,0,0,0,1.5.337V38.9a5.316,5.316,0,0,0,1.957,1.981Z" transform="translate(0 0)" fill="#040506"/>
        <path id="Trazado_617027" data-name="Trazado 617027" d="M5.546,89.349,1.415,92.461A5.248,5.248,0,0,0,2.5,93.884a16.941,16.941,0,0,0,2.051-1.562,2.963,2.963,0,0,1,.325,1.144,12.043,12.043,0,0,0,.563,3.165A23.21,23.21,0,0,0,7.8,102.458a25.047,25.047,0,0,0,2.182,3.3,23.926,23.926,0,0,0,2.019,2.219,23.451,23.451,0,0,0,6.49,4.568,21.069,21.069,0,0,0,3.686,1.486,7.808,7.808,0,0,0,2.617.532c.62.486,1.394.136,2.1.4a6.56,6.56,0,0,0,2.176.05v-1.791a23.042,23.042,0,0,1-16.661-7.359A22.127,22.127,0,0,1,8.084,98.93,14.743,14.743,0,0,1,6.7,92.582c.753.308,1.22.981,1.936,1.292.463-.347.631-.935,1.1-1.368L5.546,89.349" transform="translate(-0.987 -62.325)" fill="#050506"/>
        <path id="Trazado_617028" data-name="Trazado 617028" d="M116.666,37.641l4.159-3.13a7.349,7.349,0,0,0-1.093-1.4,11.607,11.607,0,0,0-2.019,1.549c-.453-.38-.364-.9-.357-1.4a11.734,11.734,0,0,0-.542-2.843,23,23,0,0,0-2.369-5.823,28.393,28.393,0,0,0-2.236-3.388,24.011,24.011,0,0,0-2.591-2.77,22.8,22.8,0,0,0-4.7-3.4c-.768-.432-1.582-.75-2.353-1.169a13.236,13.236,0,0,0-2.375-.828,12.486,12.486,0,0,0-2.467-.582c-.407-.041-.709-.352-1.152-.276a3.091,3.091,0,0,1-1.159-.163,10.752,10.752,0,0,0-2.274-.045V13.79a8.129,8.129,0,0,0,1.285-.014,4.178,4.178,0,0,1,1.38.246c.423.067.91-.217,1.266.222a17.279,17.279,0,0,1,6.755,2.286,14.254,14.254,0,0,1,3.793,2.607c.334.342.776.526,1.119.871a24.7,24.7,0,0,1,4.986,7.127,21.813,21.813,0,0,1,1.38,4.081,8.6,8.6,0,0,1,.4,3.232l-1.85-1.33c-.567.261-.6.96-1.221,1.307l4.239,3.216" transform="translate(-64.964 -8.325)" fill="#050506"/>
        <path id="Trazado_617029" data-name="Trazado 617029" d="M42.173,99.256l.519.5H63.4a13.009,13.009,0,0,1,4.091-4.427A15.016,15.016,0,0,1,72.939,93.4V87.16c-1.029-.121-28.224-.166-30.766-.049Z" transform="translate(-29.417 -60.716)" fill="#848e9a"/>
        <path id="Trazado_617030" data-name="Trazado 617030" d="M16.084,26.057a9.907,9.907,0,0,0,6.982-2.9,9.78,9.78,0,0,0,2.95-7.375A9.971,9.971,0,0,0,15.8,6.067,9.674,9.674,0,0,0,8.993,8.994a9.774,9.774,0,0,0-2.913,7.391,9.826,9.826,0,0,0,2.9,6.719,9.947,9.947,0,0,0,7.106,2.954" transform="translate(-4.237 -4.23)" fill="#ffcd58"/>
        <path id="Trazado_617031" data-name="Trazado 617031" d="M133.96,124.069A9.961,9.961,0,0,0,131,117.06a9.988,9.988,0,1,0-.015,14.19,10.058,10.058,0,0,0,2.974-7.18" transform="translate(-79.516 -79.629)" fill="#ffcd58"/>
        <path id="Trazado_617032" data-name="Trazado 617032" d="M48.74,69.233c-3.753,2.5-3.358,1.876-6.615,2.77V72.8H72.9a15.377,15.377,0,0,0,.028-1.729c.011-.6,0-1.2,0-1.834Z" transform="translate(-29.384 -48.293)" fill="#afc96a"/>
        <path id="Trazado_617033" data-name="Trazado 617033" d="M91.631,57.172H70.994c-.478.522-.679,1.219-1.215,1.676,1.042.191,15.83.256,22.4.1v-1.28l-.544-.494" transform="translate(-48.674 -39.88)" fill="#848e9a"/>
        <path id="Trazado_617034" data-name="Trazado 617034" d="M57.111,107.237a3.619,3.619,0,0,0-2.016-2.1c-1.458,0-3-.006-4.549,0a2.766,2.766,0,0,0-2.5,2.548c0,.3,0,.6,0,.906a4.309,4.309,0,0,0,1.927,1.993c1.546,0,3.092.006,4.637,0a2.766,2.766,0,0,0,2.5-2.548c0-.3,0-.6,0-.8" transform="translate(-33.512 -73.338)" fill="#050506"/>
        <path id="Trazado_617035" data-name="Trazado 617035" d="M32.47,22.908c.134.829-.319,1.529-1.346,1.961h-.93c-1.321-.491-1.5-1.485-1.313-2.675H27.044v1.862A3.935,3.935,0,0,0,29.7,26.534v1.933c.617.071,1.2.018,1.824.041V26.556a3.9,3.9,0,0,0,2.753-2.6,2.464,2.464,0,0,1,.006-.521,3.439,3.439,0,0,0-.463-2.081,2.649,2.649,0,0,0-1.853-1.486c-.594-.2-1.185-.424-1.757-.682-1.181-.535-1.373-.864-1.359-2.046a1.852,1.852,0,0,1,3.653.434h1.715a2.284,2.284,0,0,0-.666-2.149,2.579,2.579,0,0,0-1.988-1.258V12.2H29.773v1.969c-1.085.011-1.616.783-2.189,1.425a3.718,3.718,0,0,0-.551,2.823c.251.094.236.368.3.551a3.4,3.4,0,0,0,2.522,2.062c.4.119.8.257,1.186.417a2.252,2.252,0,0,1,1.427,1.466" transform="translate(-18.834 -8.507)" fill="#050506"/>
        <path id="Trazado_617036" data-name="Trazado 617036" d="M136.909,130.964h-1.763a6.885,6.885,0,0,0,.013,1.125c.069.4-.473.618-.219.989l-1.245,1.247c-.449-.074-.795.281-1.256.276s-.815-.328-1.263-.256l-1.159-1.161a3.973,3.973,0,0,1-.254-2.218h1.706v-1.827h-1.721v-1.761c.517-.192,1.122.025,1.732-.11v-1.744h-1.719a3.652,3.652,0,0,1,.324-2.342l.927-.929a2.892,2.892,0,0,1,2.782-.044l1.017,1.019a4.337,4.337,0,0,1,.317,2.235h1.739a4.519,4.519,0,0,0-3.677-5.4,4.383,4.383,0,0,0-4.064,1.363,4.648,4.648,0,0,0-1.2,4.04h-1.794V127.3h1.72v1.761c-.517.193-1.122-.025-1.731.11v1.744h1.808a4.672,4.672,0,0,0,1.428,4.319,4.446,4.446,0,0,0,3.7,1.155,4.334,4.334,0,0,0,2.693-1.409,4.573,4.573,0,0,0,1.158-4.011" transform="translate(-87.972 -83.701)" fill="#050506"/>
        <path id="Trazado_617037" data-name="Trazado 617037" d="M54.627,111.151l-.541.611v.667l.638.519h4.249l.54-.684v-.554l-.812-.56Z" transform="translate(-37.727 -77.532)" fill="#e9685b"/>
      </g>
    </g>
  </g>
</svg>
