<svg id="Grupo_876723" data-name="Grupo 876723" xmlns="http://www.w3.org/2000/svg" xmlns:xlink="http://www.w3.org/1999/xlink" width="505" height="261.721" viewBox="0 0 505 261.721">
  <defs>
    <clipPath id="clip-path">
      <rect id="Rectángulo_325986" data-name="Rectángulo 325986" width="505" height="261.721" fill="none"/>
    </clipPath>
    <clipPath id="clip-path-5">
      <rect id="Rectángulo_325969" data-name="Rectángulo 325969" width="51.871" height="51.871" fill="none"/>
    </clipPath>
    <clipPath id="clip-path-6">
      <rect id="Rectángulo_325970" data-name="Rectángulo 325970" width="30.196" height="30.195" fill="none"/>
    </clipPath>
    <clipPath id="clip-path-8">
      <rect id="Rectángulo_325974" data-name="Rectángulo 325974" width="96.648" height="38.151" fill="none"/>
    </clipPath>
    <clipPath id="clip-path-9">
      <rect id="Rectángulo_325975" data-name="Rectángulo 325975" width="97.295" height="15.63" fill="none"/>
    </clipPath>
    <clipPath id="clip-path-10">
      <rect id="Rectángulo_325979" data-name="Rectángulo 325979" width="146.111" height="42.237" fill="none"/>
    </clipPath>
    <clipPath id="clip-path-14">
      <path id="Trazado_616434" data-name="Trazado 616434" d="M672.984,222.127l1.715,7.091s3.326-.771,3.135-1.393-2.375-.6-2.375-.6,2.894-.483,2.606-1.188-3.006-.519-3.006-.519,2.715-.366,2.581-1.268c-.1-.643-2.419-.466-2.419-.466s2.36-.331,2.054-1.191c-.161-.452-1.336-.559-2.416-.559-.977,0-1.875.088-1.875.088" transform="translate(-672.984 -222.039)" fill="none"/>
    </clipPath>
    <linearGradient id="linear-gradient" x1="-59.613" y1="15.901" x2="-59.524" y2="15.901" gradientUnits="objectBoundingBox">
      <stop offset="0" stop-color="#dd8572"/>
      <stop offset="1" stop-color="#ffb3a1"/>
    </linearGradient>
  </defs>
  <g id="Grupo_876722" data-name="Grupo 876722" clip-path="url(#clip-path)">
    <g id="Grupo_876690" data-name="Grupo 876690">
      <g id="Grupo_876689" data-name="Grupo 876689" clip-path="url(#clip-path)">
        <path id="Trazado_616302" data-name="Trazado 616302" d="M226.851,334.342a22.684,22.684,0,0,1,5.818,1.536l4.276-3.583,7.345,5.59-2.314,5.077a22.593,22.593,0,0,1,3.032,5.2l5.556.489,1.24,9.147-5.223,1.952a22.578,22.578,0,0,1-1.538,5.818l3.584,4.276-5.59,7.344-5.077-2.314a22.592,22.592,0,0,1-5.2,3.031l-.489,5.556-9.147,1.242-1.952-5.224a22.578,22.578,0,0,1-5.818-1.537l-4.277,3.583-7.345-5.59,2.315-5.077a22.68,22.68,0,0,1-3.032-5.2l-5.554-.49-1.242-9.147,5.224-1.952a22.559,22.559,0,0,1,1.537-5.819l-3.584-4.276,5.59-7.345,5.077,2.314a22.606,22.606,0,0,1,5.2-3.031l.489-5.555,9.146-1.241Zm-2.743,12.613a9.9,9.9,0,1,0,9.946,7.575,9.906,9.906,0,0,0-9.946-7.575" transform="translate(-78.815 -132.196)" fill="#e0e0e0" fill-rule="evenodd"/>
        <path id="Trazado_616303" data-name="Trazado 616303" d="M67.1,96.039V69.459A26.58,26.58,0,1,1,40.524,96.653Z" transform="translate(-16.277 -27.899)" fill="#e0e0e0"/>
        <path id="Trazado_616304" data-name="Trazado 616304" d="M56.263,84.071l-26.58.6a28.037,28.037,0,0,1,7.531-19.138A27.33,27.33,0,0,1,55.85,57.5Z" transform="translate(-11.923 -23.096)" fill="#f5f5f5"/>
        <path id="Trazado_616305" data-name="Trazado 616305" d="M553.271,5.224a22.652,22.652,0,0,1,5.818,1.536l4.276-3.583,7.345,5.591L568.4,13.843a22.609,22.609,0,0,1,3.032,5.2l5.556.489,1.24,9.147L573,30.63a22.582,22.582,0,0,1-1.538,5.818l3.584,4.276-5.59,7.344-5.077-2.314a22.6,22.6,0,0,1-5.2,3.031l-.489,5.556-9.147,1.242-1.952-5.224a22.578,22.578,0,0,1-5.818-1.537L537.5,52.406l-7.345-5.59,2.315-5.077a22.654,22.654,0,0,1-3.031-5.2l-5.555-.49L522.641,26.9l5.223-1.952a22.561,22.561,0,0,1,1.537-5.819l-3.584-4.276,5.59-7.345,5.077,2.314a22.64,22.64,0,0,1,5.2-3.031l.489-5.555L551.318,0Zm-2.743,12.613a9.9,9.9,0,1,0,9.946,7.575,9.906,9.906,0,0,0-9.946-7.575" transform="translate(-209.928)" fill="#e0e0e0" fill-rule="evenodd"/>
      </g>
    </g>
    <g id="Grupo_876692" data-name="Grupo 876692">
      <g id="Grupo_876691" data-name="Grupo 876691" clip-path="url(#clip-path)">
        <path id="Trazado_616306" data-name="Trazado 616306" d="M505,435.454c0,.089-113.057.16-252.488.16C113.033,435.615,0,435.543,0,435.454s113.033-.16,252.512-.16c139.431,0,252.488.072,252.488.16" transform="translate(0 -174.843)" fill="#263238"/>
      </g>
    </g>
    <g id="Grupo_876700" data-name="Grupo 876700">
      <g id="Grupo_876699" data-name="Grupo 876699" clip-path="url(#clip-path)">
        <path id="Trazado_616307" data-name="Trazado 616307" d="M86.291,216.39a21.144,21.144,0,0,1,4.595,3.236l4.909-1.748,4.614,7.283-3.677,3.693a21.1,21.1,0,0,1,.965,5.538l4.706,2.235-1.888,8.413-5.209.012a21.081,21.081,0,0,1-3.238,4.595l1.748,4.91-7.282,4.614-3.694-3.677a21.145,21.145,0,0,1-5.538.963l-2.234,4.706-8.414-1.887-.011-5.21a21.082,21.082,0,0,1-4.6-3.237l-4.911,1.748-4.614-7.284L56.2,241.6a21.176,21.176,0,0,1-.965-5.538l-4.7-2.235,1.887-8.414,5.209-.011a21.1,21.1,0,0,1,3.238-4.6l-1.748-4.91,7.282-4.614,3.694,3.677A21.127,21.127,0,0,1,75.631,214l2.234-4.705,8.413,1.887Zm-7.418,9.9a9.249,9.249,0,1,0,7,11.049,9.249,9.249,0,0,0-7-11.049" transform="translate(-20.297 -84.066)" fill="#e8505b" fill-rule="evenodd"/>
        <g id="Grupo_876695" data-name="Grupo 876695" transform="translate(30.235 125.227)" opacity="0.8">
          <g id="Grupo_876694" data-name="Grupo 876694">
            <g id="Grupo_876693" data-name="Grupo 876693" clip-path="url(#clip-path-5)">
              <path id="Trazado_616308" data-name="Trazado 616308" d="M86.291,216.39a21.144,21.144,0,0,1,4.595,3.236l4.909-1.748,4.614,7.283-3.677,3.693a21.1,21.1,0,0,1,.965,5.538l4.706,2.235-1.888,8.413-5.209.012a21.081,21.081,0,0,1-3.238,4.595l1.748,4.91-7.282,4.614-3.694-3.677a21.145,21.145,0,0,1-5.538.963l-2.234,4.706-8.414-1.887-.011-5.21a21.082,21.082,0,0,1-4.6-3.237l-4.911,1.748-4.614-7.284L56.2,241.6a21.176,21.176,0,0,1-.965-5.538l-4.7-2.235,1.887-8.414,5.209-.011a21.1,21.1,0,0,1,3.238-4.6l-1.748-4.91,7.282-4.614,3.694,3.677A21.127,21.127,0,0,1,75.631,214l2.234-4.705,8.413,1.887Zm-7.418,9.9a9.249,9.249,0,1,0,7,11.049,9.249,9.249,0,0,0-7-11.049" transform="translate(-50.532 -209.293)" fill="#fff" fill-rule="evenodd"/>
            </g>
          </g>
        </g>
        <path id="Trazado_616309" data-name="Trazado 616309" d="M115.807,347.361a6.321,6.321,0,0,1,1.978.619,8.328,8.328,0,0,1,3.942,3.99,8.429,8.429,0,0,1,.8,3.854,8.564,8.564,0,0,1-1.326,4.321,8.571,8.571,0,0,1-3.784,3.252,8.536,8.536,0,0,1-9.922-2.225,8.571,8.571,0,0,1-2.034-4.558,8.563,8.563,0,0,1,.647-4.473A8.428,8.428,0,0,1,108.486,349a8.33,8.33,0,0,1,5.268-1.924,6.317,6.317,0,0,1,2.053.285c-.009.059-.731-.145-2.048-.1a8.336,8.336,0,0,0-5.054,2,8.169,8.169,0,0,0-2.8,7.3,8.168,8.168,0,0,0,1.949,4.305,8.106,8.106,0,0,0,9.378,2.1,8.175,8.175,0,0,0,3.6-3.06,8.175,8.175,0,0,0,.586-7.794,8.339,8.339,0,0,0-3.718-3.965c-1.17-.6-1.91-.729-1.894-.786" transform="translate(-42.333 -139.409)" fill="#263238"/>
        <path id="Trazado_616310" data-name="Trazado 616310" d="M112.124,328.184a1.812,1.812,0,0,1-.018-.294c-.005-.218-.012-.512-.021-.892-.011-.818-.028-2-.048-3.526l.059.075-7.619-1.663.136-.066-2,4.264-.036.077-.086,0a19.085,19.085,0,0,0-4.967.881l-.09.029L97.361,327l-3.35-3.317.212.023L87.646,327.9l.077-.223,1.589,4.438.041.113-.082.089a18.967,18.967,0,0,0-2.89,4.118l-.057.111H86.2l-4.711.017.208-.168L80,344.008l-.123-.251,4.258,2.017.125.059.005.138a19.009,19.009,0,0,0,.866,4.948l.042.134-.1.1L81.746,354.5l.032-.292,4.176,6.586-.281-.1,4.441-1.582.137-.049.106.1a18.932,18.932,0,0,0,4.1,2.889h0c.058.1-.128-.212.13.213v1.182l0,1.182q0,1.179,0,2.349l-.187-.233,7.61,1.708-.267.13,2.023-4.256.062-.129.142-.005a18.881,18.881,0,0,0,4.948-.857l.135-.042.1.1,3.338,3.329-.284-.031,6.591-4.167-.09.261q-.8-2.262-1.575-4.443l-.044-.123.089-.1a18.918,18.918,0,0,0,2.9-4.106l.059-.111h.125l4.712,0-.194.156c.606-2.676,1.179-5.2,1.723-7.606l.1.206-4.252-2.032-.095-.045,0-.1a19.026,19.026,0,0,0-.851-4.969l-.029-.092.068-.067,3.337-3.329-.019.176-4.145-6.606.127.044-4.45,1.552-.045.016-.034-.032a19.805,19.805,0,0,0-3.026-2.332l-.81-.488a1.983,1.983,0,0,1-.267-.165,2.363,2.363,0,0,1,.287.13c.186.1.467.241.832.455a18.52,18.52,0,0,1,3.09,2.286l-.078-.016,4.431-1.609.08-.029.047.073,4.2,6.57.061.1-.08.081-3.315,3.351.039-.159a19.278,19.278,0,0,1,.895,5.05l-.1-.149,4.262,2.011.132.063-.032.144-1.692,7.613-.035.156h-.16l-4.711.019.184-.112a19.315,19.315,0,0,1-2.955,4.207l.045-.218,1.586,4.439.06.166-.15.095-6.583,4.181-.154.1-.13-.129-3.343-3.323.233.057a19.34,19.34,0,0,1-5.07.885l.2-.134-2.019,4.257-.081.172-.185-.041-7.611-1.7-.187-.042v-.192q0-1.169-.005-2.349l0-1.182v-1.181c.258.424.071.117.128.212h0a19.357,19.357,0,0,1-4.2-2.963l.243.05-4.442,1.58-.179.064-.1-.161-4.17-6.59-.1-.159.132-.133,3.329-3.338-.057.233a19.427,19.427,0,0,1-.879-5.07l.13.2-4.254-2.026-.162-.077.039-.174c.6-2.641,1.177-5.218,1.716-7.608l.038-.168h.171l4.712,0-.183.112a19.289,19.289,0,0,1,2.967-4.2l-.041.2c-.549-1.553-1.086-3.068-1.572-4.444l-.05-.143.127-.08,6.6-4.158.116-.073.1.1,3.332,3.336-.159-.039a19.278,19.278,0,0,1,5.051-.862l-.121.08,2.038-4.248.042-.089.095.022,7.6,1.751.061.014v.06c-.014,1.517-.025,2.685-.032,3.5-.007.385-.012.682-.016.9a2.36,2.36,0,0,1-.017.313" transform="translate(-31.941 -129.186)" fill="#263238"/>
        <path id="Trazado_616311" data-name="Trazado 616311" d="M45.478,301.211a12.328,12.328,0,0,1,2.675,1.884l2.858-1.017,2.686,4.24-2.14,2.15a12.317,12.317,0,0,1,.561,3.224l2.74,1.3-1.1,4.9-3.032.007a12.28,12.28,0,0,1-1.885,2.675l1.017,2.858-4.239,2.687-2.15-2.141a12.283,12.283,0,0,1-3.224.561l-1.3,2.739-4.9-1.1-.007-3.033a12.278,12.278,0,0,1-2.675-1.884l-2.858,1.017-2.687-4.24,2.141-2.15a12.313,12.313,0,0,1-.561-3.224l-2.739-1.3,1.1-4.9,3.032-.006a12.266,12.266,0,0,1,1.885-2.675l-1.018-2.858L33.9,298.24l2.15,2.141a12.312,12.312,0,0,1,3.224-.561l1.3-2.739,4.9,1.1Zm-4.318,5.763a5.384,5.384,0,1,0,4.075,6.432,5.384,5.384,0,0,0-4.075-6.432" transform="translate(-9.906 -119.327)" fill="#e8505b" fill-rule="evenodd"/>
        <g id="Grupo_876698" data-name="Grupo 876698" transform="translate(14.756 177.753)" opacity="0.4">
          <g id="Grupo_876697" data-name="Grupo 876697">
            <g id="Grupo_876696" data-name="Grupo 876696" clip-path="url(#clip-path-6)">
              <path id="Trazado_616312" data-name="Trazado 616312" d="M45.478,301.211a12.328,12.328,0,0,1,2.675,1.884l2.858-1.017,2.686,4.24-2.14,2.15a12.317,12.317,0,0,1,.561,3.224l2.74,1.3-1.1,4.9-3.032.007a12.28,12.28,0,0,1-1.885,2.675l1.017,2.858-4.239,2.687-2.15-2.141a12.283,12.283,0,0,1-3.224.561l-1.3,2.739-4.9-1.1-.007-3.033a12.278,12.278,0,0,1-2.675-1.884l-2.858,1.017-2.687-4.24,2.141-2.15a12.313,12.313,0,0,1-.561-3.224l-2.739-1.3,1.1-4.9,3.032-.006a12.266,12.266,0,0,1,1.885-2.675l-1.018-2.858L33.9,298.24l2.15,2.141a12.312,12.312,0,0,1,3.224-.561l1.3-2.739,4.9,1.1Zm-4.318,5.763a5.384,5.384,0,1,0,4.075,6.432,5.384,5.384,0,0,0-4.075-6.432" transform="translate(-24.661 -297.081)" fill="#fff" fill-rule="evenodd"/>
            </g>
          </g>
        </g>
        <path id="Trazado_616313" data-name="Trazado 616313" d="M571.447,159.907a15.523,15.523,0,0,1,3.992,1.054l2.935-2.459,5.04,3.837-1.588,3.483a15.529,15.529,0,0,1,2.081,3.568l3.813.336L588.57,176l-3.585,1.34a15.493,15.493,0,0,1-1.055,3.993l2.459,2.935-3.836,5.04-3.484-1.588a15.538,15.538,0,0,1-3.568,2.08l-.335,3.813-6.278.852-1.34-3.585a15.491,15.491,0,0,1-3.993-1.055l-2.935,2.46-5.041-3.837,1.589-3.485a15.546,15.546,0,0,1-2.08-3.567l-3.812-.336-.852-6.277,3.585-1.34a15.453,15.453,0,0,1,1.055-3.993l-2.46-2.935,3.836-5.04,3.484,1.589a15.527,15.527,0,0,1,3.568-2.08l.336-3.813,6.276-.851Zm-1.883,8.656a6.8,6.8,0,1,0,6.826,5.2,6.8,6.8,0,0,0-6.826-5.2" transform="translate(-221.088 -62.789)" fill="#263238" fill-rule="evenodd"/>
        <path id="Trazado_616314" data-name="Trazado 616314" d="M621.755,99.451a6.189,6.189,0,0,1,2.03-.107,8.168,8.168,0,0,1,4.985,2.323,8.261,8.261,0,0,1,2.055,3.267,8.4,8.4,0,0,1,.256,4.424,8.415,8.415,0,0,1-2.369,4.282,8.371,8.371,0,0,1-9.88,1.341,8.412,8.412,0,0,1-3.425-3.5,8.4,8.4,0,0,1-.932-4.333,8.269,8.269,0,0,1,1.11-3.7,8.165,8.165,0,0,1,4.187-3.566,6.191,6.191,0,0,1,1.984-.439c.012.057-.722.116-1.916.609a8.175,8.175,0,0,0-3.965,3.561,8.013,8.013,0,0,0-.083,7.664,8.019,8.019,0,0,0,3.262,3.292,7.95,7.95,0,0,0,9.339-1.267,8.024,8.024,0,0,0,2.265-4.042,8.014,8.014,0,0,0-2.122-7.365,8.176,8.176,0,0,0-4.771-2.375c-1.282-.157-2.006-.018-2.009-.076" transform="translate(-246.811 -39.892)" fill="#263238"/>
        <path id="Trazado_616315" data-name="Trazado 616315" d="M614.659,79a1.751,1.751,0,0,1-.117-.264l-.324-.813c-.29-.749-.707-1.826-1.249-3.225l.081.048-7.571,1.072.1-.108c-.117,1.395-.247,2.945-.387,4.6l-.007.083-.078.032a18.72,18.72,0,0,0-4.266,2.506l-.073.057-.086-.039-4.211-1.905.2-.051-4.617,6.1-.005-.232,2.976,3.537.075.09-.045.109a18.591,18.591,0,0,0-1.252,4.771l-.015.122-.115.043-4.325,1.624.135-.225c.326,2.38.677,4.946,1.038,7.577l-.2-.189,4.6.4.135.012.052.125a18.667,18.667,0,0,0,2.485,4.252l.085.109-.057.126-1.915,4.207-.07-.279,6.087,4.629-.292.007,3.543-2.97.109-.092.132.054a18.533,18.533,0,0,0,4.755,1.257h0c.086.067-.19-.151.193.151v0l0,.008.006.017.013.034.025.068.051.136.1.272.2.544.406,1.085.806,2.158-.251-.15,7.578-1.027-.2.21q.206-2.324.407-4.6l.013-.14.129-.053a18.515,18.515,0,0,0,4.256-2.478l.109-.084.126.057,4.2,1.921-.271.068,4.636-6.08.006.27L629.568,105l-.082-.1.049-.118a18.553,18.553,0,0,0,1.267-4.765l.016-.123.115-.042,4.33-1.61-.126.209c-.356-2.667-.692-5.183-1.012-7.58l.163.155-4.6-.416-.1-.01-.039-.094a18.687,18.687,0,0,0-2.478-4.277l-.057-.075.039-.084,1.931-4.2.042.168-6.065-4.658.132,0-3.562,2.946-.035.03-.042-.018a19.4,19.4,0,0,0-3.578-1.11l-.911-.172a1.9,1.9,0,0,1-.3-.06,2.255,2.255,0,0,1,.308.022c.2.024.512.062.92.135a18.14,18.14,0,0,1,3.62,1.046l-.077.012,3.523-2.992.064-.054.068.051,6.105,4.6.089.066-.046.1-1.9,4.212-.018-.159a18.885,18.885,0,0,1,2.545,4.337l-.141-.1,4.6.394.143.013.02.143,1.043,7.575.021.155-.147.055-4.325,1.625.13-.166a18.921,18.921,0,0,1-1.281,4.875l-.033-.215,2.974,3.539.111.132-.105.138-4.625,6.089-.108.142-.163-.074-4.207-1.913.235-.028a18.941,18.941,0,0,1-4.359,2.544l.142-.193q-.2,2.279-.4,4.6l-.016.185-.185.025-7.578,1.03-.186.026-.066-.177-.807-2.158-.406-1.085-.2-.544-.1-.273-.051-.136-.025-.068-.013-.034-.006-.017,0-.008v0l.19.151h0a19,19,0,0,1-4.876-1.289l.24-.037-3.544,2.968-.143.12-.149-.113-6.083-4.634-.147-.112.077-.168,1.921-4.2.027.234a19.078,19.078,0,0,1-2.538-4.361l.187.137-4.6-.41-.175-.016-.023-.174-1.019-7.579-.023-.166.157-.059,4.329-1.611-.13.165a18.926,18.926,0,0,1,1.295-4.87l.031.2L591.772,87.1l-.1-.114.09-.118,4.644-6.074.082-.107.121.056,4.2,1.929-.159.019a18.9,18.9,0,0,1,4.349-2.517l-.084.115c.153-1.657.3-3.206.424-4.6l.009-.1.094-.012,7.583-.984.06-.008.02.056,1.163,3.224c.124.357.221.632.293.837a2.2,2.2,0,0,1,.092.293" transform="translate(-236.603 -29.959)" fill="#263238"/>
      </g>
    </g>
    <rect id="Rectángulo_325972" data-name="Rectángulo 325972" width="275.256" height="190.284" transform="translate(70.46 25.94)" fill="#fafafa"/>
    <g id="Grupo_876711" data-name="Grupo 876711">
      <g id="Grupo_876710" data-name="Grupo 876710" clip-path="url(#clip-path)">
        <path id="Trazado_616316" data-name="Trazado 616316" d="M392.912,233.534c0-1.029-.049-74.524-.126-190.284l.126.125-275.234.031h-.022l.156-.156c0,67.97-.01,132.533-.014,190.284l-.142-.142,275.256.142-275.256.142h-.142v-.142c0-57.752-.009-122.314-.014-190.284v-.156h.178l275.234.03h.126v.126c-.077,115.761-.125,189.256-.126,190.284" transform="translate(-47.196 -17.309)" fill="#263238"/>
        <rect id="Rectángulo_325973" data-name="Rectángulo 325973" width="275.256" height="11.042" transform="translate(70.46 25.94)" fill="#263238"/>
        <path id="Trazado_616317" data-name="Trazado 616317" d="M128.61,51.093a1.7,1.7,0,1,1-1.7-1.7,1.7,1.7,0,0,1,1.7,1.7" transform="translate(-50.296 -19.841)" fill="#fff"/>
        <path id="Trazado_616318" data-name="Trazado 616318" d="M138.832,51.093a1.7,1.7,0,1,1-1.7-1.7,1.7,1.7,0,0,1,1.7,1.7" transform="translate(-54.402 -19.841)" fill="#fff"/>
        <path id="Trazado_616319" data-name="Trazado 616319" d="M149.053,51.093a1.7,1.7,0,1,1-1.7-1.7,1.7,1.7,0,0,1,1.7,1.7" transform="translate(-58.508 -19.841)" fill="#fff"/>
        <path id="Trazado_616320" data-name="Trazado 616320" d="M390.641,299.793c0-.689-.034-22.716-.092-61.807l.092.092-254.11.064h-.015l.156-.156c0,21.173,0,41.858,0,61.807l-.153-.153,254.125.153-254.125.153h-.153v-.153c0-19.949,0-40.635,0-61.807v-.156h.17l254.11.063h.092v.092c-.058,39.091-.091,61.119-.092,61.807" transform="translate(-54.772 -95.529)" fill="#e0e0e0"/>
        <path id="Trazado_616321" data-name="Trazado 616321" d="M260.328,171.23s-.009-.539-.014-1.574-.008-2.571-.014-4.575c-.007-4.01-.018-9.9-.032-17.431-.016-15.052-.039-36.667-.066-62.942l.126.126-122.857.03h-.01l.156-.156c0,30.952-.01,60.333-.014,86.522l-.142-.142,88.609.07,25.238.038,6.7.017,1.728.008c.389,0,.591.008.591.008s-.191.005-.574.008l-1.711.008-6.674.017-25.206.038-88.7.07h-.142v-.142c0-26.189-.009-55.57-.014-86.522v-.156h.166l122.857.029h.126v.126c-.028,26.308-.05,47.95-.066,63.021-.014,7.52-.025,13.4-.032,17.4-.007,1.994-.011,3.519-.014,4.552s-.014,1.547-.014,1.547" transform="translate(-55.151 -33.962)" fill="#e0e0e0"/>
        <path id="Trazado_616322" data-name="Trazado 616322" d="M159.767,176.457l8.848-12.8a5.667,5.667,0,0,1,7.959-1.387l1.243.889a5.668,5.668,0,0,0,8.659-2.777l4.3-12.57a5.667,5.667,0,0,1,10.726,0l2.079,6.083a5.668,5.668,0,0,0,10.544.463l1.8-4.069a5.668,5.668,0,0,1,9.861-.9,5.667,5.667,0,0,0,10.041-1.365l2.01-5.88a5.667,5.667,0,0,1,10.888.574l7.689,33.743s-96.378-.27-96.648,0" transform="translate(-64.173 -55.553)" fill="#e8505b"/>
        <g id="Grupo_876703" data-name="Grupo 876703" transform="translate(95.594 82.753)" opacity="0.3">
          <g id="Grupo_876702" data-name="Grupo 876702">
            <g id="Grupo_876701" data-name="Grupo 876701" clip-path="url(#clip-path-8)">
              <path id="Trazado_616323" data-name="Trazado 616323" d="M159.767,176.457l8.848-12.8a5.667,5.667,0,0,1,7.959-1.387l1.243.889a5.668,5.668,0,0,0,8.659-2.777l4.3-12.57a5.667,5.667,0,0,1,10.726,0l2.079,6.083a5.668,5.668,0,0,0,10.544.463l1.8-4.069a5.668,5.668,0,0,1,9.861-.9,5.667,5.667,0,0,0,10.041-1.365l2.01-5.88a5.667,5.667,0,0,1,10.888.574l7.689,33.743s-96.378-.27-96.648,0" transform="translate(-159.767 -138.306)"/>
            </g>
          </g>
        </g>
        <path id="Trazado_616324" data-name="Trazado 616324" d="M159.351,185.989l7.19-21.035a5.536,5.536,0,0,1,10.431-.128l3.444,9.319a5.536,5.536,0,0,0,9.506,1.551l2.79-3.469a5.535,5.535,0,0,1,7.581-1l6.5,4.752a5.538,5.538,0,0,0,3.268,1.067h8.269a5.537,5.537,0,0,1,3.268,1.067l6.152,4.5a5.536,5.536,0,0,0,7.838-1.344l5.775-8.447q.11-.162.23-.312a5.189,5.189,0,0,1,8.645,1.024l6.178,12.254s-97.063-.2-97.063.2" transform="translate(-64.006 -64.752)" fill="#e8505b"/>
        <path id="Trazado_616325" data-name="Trazado 616325" d="M256.2,191.8l-7.513-6.116c-10.3-7.579-15.19,6.847-23.291-3.978l-2.79-3.469a5.536,5.536,0,0,0-7.581-1L211.8,179.6a17.929,17.929,0,0,1-10.586,3.458h-4.219a5.534,5.534,0,0,0-3.268,1.067l-6.152,4.5c-2.524,1.845-4.283,2.094-8.322-1.3,0,0-4.384-3.564-4.488-3.69-2.149-2.617-6.64-2.616-8.576,0a22.732,22.732,0,0,1-1.476,1.766l-5.8,6.395s97.3-.4,97.3,0" transform="translate(-63.828 -70.761)" fill="#e8505b"/>
        <g id="Grupo_876706" data-name="Grupo 876706" transform="translate(95.079 105.408)" opacity="0.3">
          <g id="Grupo_876705" data-name="Grupo 876705">
            <g id="Grupo_876704" data-name="Grupo 876704" clip-path="url(#clip-path-9)">
              <path id="Trazado_616326" data-name="Trazado 616326" d="M256.2,191.8l-7.513-6.116c-10.3-7.579-15.19,6.847-23.291-3.978l-2.79-3.469a5.536,5.536,0,0,0-7.581-1L211.8,179.6a17.929,17.929,0,0,1-10.586,3.458h-4.219a5.534,5.534,0,0,0-3.268,1.067l-6.152,4.5c-2.524,1.845-4.283,2.094-8.322-1.3,0,0-4.384-3.564-4.488-3.69-2.149-2.617-6.64-2.616-8.576,0a22.732,22.732,0,0,1-1.476,1.766l-5.8,6.395s97.3-.4,97.3,0" transform="translate(-158.907 -176.169)" fill="#fff"/>
            </g>
          </g>
        </g>
        <path id="Trazado_616327" data-name="Trazado 616327" d="M193.644,121.009c0,.086-3.438.156-7.678.156s-7.679-.069-7.679-.156,3.437-.156,7.679-.156,7.678.069,7.678.156" transform="translate(-71.612 -48.543)" fill="#263238"/>
        <rect id="Rectángulo_325976" data-name="Rectángulo 325976" width="2.628" height="2.628" transform="translate(102.37 71.152)" fill="#e8505b"/>
        <path id="Trazado_616328" data-name="Trazado 616328" d="M242.061,121.009c0,.086-3.438.156-7.678.156s-7.679-.069-7.679-.156,3.437-.156,7.679-.156,7.678.069,7.678.156" transform="translate(-91.06 -48.543)" fill="#263238"/>
        <rect id="Rectángulo_325977" data-name="Rectángulo 325977" width="2.628" height="2.628" transform="translate(131.339 71.152)" fill="#e8505b"/>
        <path id="Trazado_616329" data-name="Trazado 616329" d="M290.478,121.009c0,.086-3.438.156-7.678.156s-7.679-.069-7.679-.156,3.437-.156,7.679-.156,7.678.069,7.678.156" transform="translate(-110.507 -48.543)" fill="#263238"/>
        <rect id="Rectángulo_325978" data-name="Rectángulo 325978" width="2.628" height="2.628" transform="translate(160.309 71.152)" fill="#e8505b"/>
        <path id="Trazado_616330" data-name="Trazado 616330" d="M301.424,295.374l6.324-9.018a2.266,2.266,0,0,1,3.22-.507l3.327,2.511a2.265,2.265,0,0,0,3.327-.676l9.6-16.621a2.266,2.266,0,0,1,3.742-.27l5.992,7.6a2.266,2.266,0,0,0,3.691-.187l4.379-6.883a2.266,2.266,0,0,1,3.874.084l3.615,6.262a2.266,2.266,0,0,0,3.872.086l12.361-19.374a2.266,2.266,0,0,1,3.794-.041l20.423,30.55a2.267,2.267,0,0,0,3.561.264l12.408-13.658a2.266,2.266,0,0,1,3.282-.076l9.87,9.905a2.266,2.266,0,0,0,3.567-.467l17.657-30.582a2.266,2.266,0,0,1,4.228,1.133v39.967Z" transform="translate(-121.072 -101.677)" fill="#e8505b"/>
        <path id="Trazado_616331" data-name="Trazado 616331" d="M447.421,330a1.062,1.062,0,0,1-.011-.175c0-.128-.005-.3-.01-.538,0-.494-.011-1.227-.02-2.23l.041.041c-8.438.066-37.792.115-72.653.115s-64.224-.048-72.66-.115l.041-.041c-.01,1-.016,1.736-.02,2.23,0,.235-.008.41-.01.538a1.059,1.059,0,0,1-.011.175,1.072,1.072,0,0,1-.011-.175c0-.128-.005-.3-.01-.538,0-.494-.011-1.227-.02-2.23v-.041h.041c8.437-.066,37.788-.114,72.66-.114s64.215.048,72.653.114h.041v.041c-.008,1-.016,1.736-.02,2.23,0,.235-.008.41-.01.538a1.071,1.071,0,0,1-.011.175" transform="translate(-121.33 -131.304)" fill="#263238"/>
        <path id="Trazado_616332" data-name="Trazado 616332" d="M329.016,330.856c-.086,0-.156-.277-.156-.619s.07-.619.156-.619.156.277.156.619-.069.619-.156.619" transform="translate(-132.092 -132.396)" fill="#263238"/>
        <path id="Trazado_616333" data-name="Trazado 616333" d="M356,330.856c-.086,0-.156-.277-.156-.619s.069-.619.156-.619.156.277.156.619-.069.619-.156.619" transform="translate(-142.932 -132.396)" fill="#263238"/>
        <path id="Trazado_616334" data-name="Trazado 616334" d="M382.987,330.856c-.086,0-.156-.277-.156-.619s.069-.619.156-.619.156.277.156.619-.069.619-.156.619" transform="translate(-153.771 -132.396)" fill="#263238"/>
        <path id="Trazado_616335" data-name="Trazado 616335" d="M409.972,330.856c-.086,0-.156-.277-.156-.619s.069-.619.156-.619.156.277.156.619-.069.619-.156.619" transform="translate(-164.61 -132.396)" fill="#263238"/>
        <path id="Trazado_616336" data-name="Trazado 616336" d="M436.956,330.856c-.086,0-.156-.277-.156-.619s.069-.619.156-.619.156.277.156.619-.069.619-.156.619" transform="translate(-175.448 -132.396)" fill="#263238"/>
        <path id="Trazado_616337" data-name="Trazado 616337" d="M463.941,330.856c-.086,0-.156-.277-.156-.619s.069-.619.156-.619.156.277.156.619-.069.619-.156.619" transform="translate(-186.287 -132.396)" fill="#263238"/>
        <path id="Trazado_616338" data-name="Trazado 616338" d="M490.926,330.856c-.086,0-.156-.277-.156-.619s.069-.619.156-.619.156.277.156.619-.069.619-.156.619" transform="translate(-197.126 -132.396)" fill="#263238"/>
        <path id="Trazado_616339" data-name="Trazado 616339" d="M517.911,330.856c-.086,0-.156-.277-.156-.619s.069-.619.156-.619.156.277.156.619-.069.619-.156.619" transform="translate(-207.965 -132.396)" fill="#263238"/>
        <path id="Trazado_616340" data-name="Trazado 616340" d="M480.094,156.754s-.008-.359-.012-1.048-.007-1.715-.013-3.052c-.007-2.682-.016-6.628-.029-11.706-.014-10.148-.035-24.819-.061-42.93l.114.115-122.859.041h-.008l.156-.156c0,20.68-.006,40.551-.008,58.737l-.147-.147,88.249.07,25.462.041,6.8.018,1.757.009c.4,0,.6.009.6.009s-.194.006-.584.01l-1.74.009L471,156.79l-25.429.04-88.347.071h-.148v-.147c0-18.186-.005-38.057-.008-58.737v-.156h.165l122.859.041h.115v.114c-.026,18.141-.047,32.836-.061,43-.013,5.067-.022,9-.029,11.68-.005,1.329-.01,2.344-.013,3.032s-.012,1.025-.012,1.025" transform="translate(-143.423 -39.308)" fill="#e0e0e0"/>
        <path id="Trazado_616341" data-name="Trazado 616341" d="M458.438,139.034H373.8a1.411,1.411,0,0,1,0-2.821h84.638a1.411,1.411,0,1,1,0,2.821" transform="translate(-149.577 -54.712)" fill="#e0e0e0"/>
        <path id="Trazado_616342" data-name="Trazado 616342" d="M458.438,120.363H373.8a1.411,1.411,0,0,1,0-2.821h84.638a1.411,1.411,0,1,1,0,2.821" transform="translate(-149.577 -47.213)" fill="#e0e0e0"/>
        <path id="Trazado_616343" data-name="Trazado 616343" d="M412.044,139.034H373.8a1.411,1.411,0,0,1,0-2.821h38.244a1.411,1.411,0,1,1,0,2.821" transform="translate(-149.577 -54.712)" fill="#455a64"/>
        <path id="Trazado_616344" data-name="Trazado 616344" d="M532.183,137.909h-.625v.809H531.1v-.809h-1.828v-.329l1.683-2.153h.508l-1.612,2.078h1.264v-.714h.442v.714h.625Z" transform="translate(-212.591 -54.396)" fill="#263238"/>
        <path id="Trazado_616345" data-name="Trazado 616345" d="M536.8,137.73c0,.569-.4,1.025-1.246,1.025a1.885,1.885,0,0,1-1.209-.4l.217-.372a1.477,1.477,0,0,0,.987.353c.5,0,.781-.23.781-.588s-.236-.6-1-.6h-.748l.174-1.721h1.857v.409H535.15l-.089.9h.367c.982,0,1.368.409,1.368.992" transform="translate(-214.627 -54.396)" fill="#263238"/>
        <path id="Trazado_616346" data-name="Trazado 616346" d="M538.931,136.277a.8.8,0,0,1,.766-.9c.456,0,.762.358.762.9s-.305.9-.762.9a.8.8,0,0,1-.766-.9m1.227,0c0-.395-.174-.63-.461-.63s-.46.24-.46.63.178.631.46.631.461-.236.461-.631m1.523-.87h.362L539.8,138.7h-.361Zm-.663,2.421a.774.774,0,1,1,.761.9.793.793,0,0,1-.761-.9m1.222,0c0-.39-.179-.629-.461-.629s-.46.235-.46.629.174.63.46.63.461-.24.461-.63" transform="translate(-216.471 -54.377)" fill="#263238"/>
        <path id="Trazado_616347" data-name="Trazado 616347" d="M458.438,156.323H373.8a1.411,1.411,0,0,1,0-2.821h84.638a1.411,1.411,0,1,1,0,2.821" transform="translate(-149.577 -61.657)" fill="#e0e0e0"/>
        <path id="Trazado_616348" data-name="Trazado 616348" d="M424.5,156.323H373.886a1.332,1.332,0,0,1-1.5-1.411c0-.779.446-1.41,1-1.41H424a1.468,1.468,0,0,1,1.62,1.41,1.419,1.419,0,0,1-1.119,1.411" transform="translate(-149.576 -61.657)" fill="#455a64"/>
        <path id="Trazado_616349" data-name="Trazado 616349" d="M531.692,152.716v.32l-1.331,2.971h-.5l1.3-2.882h-1.5v.588h-.451v-1Z" transform="translate(-212.566 -61.341)" fill="#263238"/>
        <path id="Trazado_616350" data-name="Trazado 616350" d="M533.892,154.336c0-1.072.574-1.683,1.346-1.683s1.339.611,1.339,1.683-.574,1.683-1.339,1.683-1.346-.611-1.346-1.683m2.215,0c0-.842-.358-1.265-.869-1.265s-.875.423-.875,1.265.357,1.265.875,1.265.869-.423.869-1.265" transform="translate(-214.447 -61.316)" fill="#263238"/>
        <path id="Trazado_616351" data-name="Trazado 616351" d="M539.049,153.567a.8.8,0,0,1,.766-.9c.456,0,.762.357.762.9s-.305.9-.762.9a.8.8,0,0,1-.766-.9m1.227,0c0-.395-.174-.63-.461-.63s-.461.239-.461.63.179.629.461.629.461-.235.461-.629m1.523-.87h.363l-2.248,3.291h-.361Zm-.662,2.421a.774.774,0,1,1,.761.9.793.793,0,0,1-.761-.9m1.222,0c0-.39-.179-.63-.461-.63s-.46.235-.46.63.174.63.46.63.461-.24.461-.63" transform="translate(-216.518 -61.322)" fill="#263238"/>
        <path id="Trazado_616352" data-name="Trazado 616352" d="M458.438,173.2H373.8a1.411,1.411,0,0,1,0-2.821h84.638a1.411,1.411,0,1,1,0,2.821" transform="translate(-149.577 -68.436)" fill="#e0e0e0"/>
        <path id="Trazado_616353" data-name="Trazado 616353" d="M405.236,173.2H373.8a1.411,1.411,0,1,1,0-2.821h31.437a1.411,1.411,0,1,1,0,2.821" transform="translate(-149.576 -68.436)" fill="#455a64"/>
        <path id="Trazado_616354" data-name="Trazado 616354" d="M531.561,171.9c0,.569-.4,1.025-1.246,1.025a1.885,1.885,0,0,1-1.209-.4l.217-.372a1.474,1.474,0,0,0,.987.353c.5,0,.781-.23.781-.588s-.236-.6-1-.6h-.748l.174-1.721h1.857V170h-1.462l-.089.9h.367c.982,0,1.368.409,1.368.992" transform="translate(-212.525 -68.12)" fill="#263238"/>
        <path id="Trazado_616355" data-name="Trazado 616355" d="M533.861,171.215c0-1.072.574-1.683,1.345-1.683s1.34.611,1.34,1.683-.574,1.684-1.34,1.684-1.345-.612-1.345-1.684m2.214,0c0-.842-.357-1.265-.869-1.265s-.875.423-.875,1.265.357,1.265.875,1.265.869-.423.869-1.265" transform="translate(-214.435 -68.095)" fill="#263238"/>
        <path id="Trazado_616356" data-name="Trazado 616356" d="M539.017,170.446a.8.8,0,0,1,.766-.9c.457,0,.762.357.762.9s-.305.9-.762.9a.8.8,0,0,1-.766-.9m1.227,0c0-.395-.174-.63-.461-.63s-.46.239-.46.63.178.629.46.629.461-.235.461-.629m1.523-.87h.362l-2.248,3.291h-.361ZM541.1,172a.774.774,0,1,1,.761.9.793.793,0,0,1-.761-.9m1.222,0c0-.39-.179-.63-.461-.63s-.46.235-.46.63.174.63.46.63.461-.24.461-.63" transform="translate(-216.506 -68.102)" fill="#263238"/>
        <path id="Trazado_616357" data-name="Trazado 616357" d="M429.833,120.363H373.8a1.411,1.411,0,0,1,0-2.821h56.034a1.411,1.411,0,1,1,0,2.821" transform="translate(-149.577 -47.213)" fill="#e8505b"/>
        <path id="Trazado_616358" data-name="Trazado 616358" d="M531.9,119.022a1.065,1.065,0,0,1-1.167,1.039c-.884,0-1.382-.593-1.382-1.641a1.518,1.518,0,0,1,1.556-1.726,1.587,1.587,0,0,1,.819.193l-.179.367a1.145,1.145,0,0,0-.63-.155c-.668,0-1.1.418-1.1,1.241a1,1,0,0,0,0,.118,1.094,1.094,0,0,1,.945-.433,1.017,1.017,0,0,1,1.129,1m-.457.019c0-.385-.291-.634-.752-.634a.683.683,0,0,0-.758.639c0,.339.274.635.781.635a.652.652,0,0,0,.729-.64" transform="translate(-212.623 -46.872)" fill="#263238"/>
        <path id="Trazado_616359" data-name="Trazado 616359" d="M534.2,118.377c0-1.072.574-1.683,1.345-1.683s1.34.611,1.34,1.683-.574,1.683-1.34,1.683-1.345-.611-1.345-1.683m2.214,0c0-.842-.357-1.265-.869-1.265s-.875.423-.875,1.265.357,1.265.875,1.265.869-.423.869-1.265" transform="translate(-214.57 -46.872)" fill="#263238"/>
        <path id="Trazado_616360" data-name="Trazado 616360" d="M539.355,117.608a.8.8,0,0,1,.766-.9c.456,0,.762.357.762.9s-.305.9-.762.9a.8.8,0,0,1-.766-.9m1.227,0c0-.395-.174-.631-.461-.631s-.46.24-.46.631.178.629.46.629.461-.235.461-.629m1.523-.87h.362l-2.248,3.291h-.361Zm-.663,2.421a.774.774,0,1,1,.761.9.793.793,0,0,1-.761-.9m1.222,0c0-.39-.179-.63-.461-.63s-.46.235-.46.63.174.63.46.63.461-.24.461-.63" transform="translate(-216.641 -46.879)" fill="#263238"/>
        <path id="Trazado_616361" data-name="Trazado 616361" d="M450.785,206.243c0,.087-20.716.156-46.266.156s-46.27-.069-46.27-.156,20.712-.156,46.27-.156,46.266.069,46.266.156" transform="translate(-143.897 -82.778)" fill="#e0e0e0"/>
        <path id="Trazado_616362" data-name="Trazado 616362" d="M450.785,215.413c0,.086-20.716.156-46.266.156s-46.27-.07-46.27-.156,20.712-.156,46.27-.156,46.266.069,46.266.156" transform="translate(-143.897 -86.462)" fill="#e0e0e0"/>
        <path id="Trazado_616363" data-name="Trazado 616363" d="M450.785,223.706c0,.086-20.716.156-46.266.156s-46.27-.069-46.27-.156,20.712-.156,46.27-.156,46.266.069,46.266.156" transform="translate(-143.897 -89.793)" fill="#e0e0e0"/>
        <path id="Trazado_616364" data-name="Trazado 616364" d="M163.772,294.56h0a1.663,1.663,0,0,1-1.663-1.663v-31.2a1.663,1.663,0,1,1,3.326,0v31.2a1.663,1.663,0,0,1-1.663,1.663" transform="translate(-65.114 -104.446)" fill="#e0e0e0"/>
        <path id="Trazado_616365" data-name="Trazado 616365" d="M163.772,302.248h0a1.663,1.663,0,0,1-1.663-1.663V280.47a1.663,1.663,0,0,1,3.326,0v20.115a1.663,1.663,0,0,1-1.663,1.663" transform="translate(-65.114 -111.988)" fill="#e8505b"/>
        <path id="Trazado_616366" data-name="Trazado 616366" d="M162.509,320.161v2.774h-.285v-2.52h-.653v-.254Z" transform="translate(-64.898 -128.598)" fill="#263238"/>
        <path id="Trazado_616367" data-name="Trazado 616367" d="M164.243,321.532c0-.884.464-1.411,1.106-1.411s1.109.527,1.109,1.411-.467,1.41-1.109,1.41-1.106-.527-1.106-1.41m1.922,0c0-.741-.333-1.149-.816-1.149s-.817.408-.817,1.149.333,1.149.817,1.149.816-.408.816-1.149" transform="translate(-65.971 -128.582)" fill="#263238"/>
        <path id="Trazado_616368" data-name="Trazado 616368" d="M174.883,294.56h0a1.663,1.663,0,0,1-1.663-1.663v-31.2a1.663,1.663,0,0,1,3.326,0v31.2a1.663,1.663,0,0,1-1.663,1.663" transform="translate(-69.577 -104.446)" fill="#e0e0e0"/>
        <path id="Trazado_616369" data-name="Trazado 616369" d="M174.883,297.995h0a1.663,1.663,0,0,1-1.663-1.663V269.881a1.663,1.663,0,1,1,3.326,0v26.451a1.663,1.663,0,0,1-1.663,1.663" transform="translate(-69.577 -107.734)" fill="#e8505b"/>
        <path id="Trazado_616370" data-name="Trazado 616370" d="M173.975,322.664v.254H172.03v-.2l1.153-1.13c.313-.308.372-.495.372-.685,0-.321-.226-.519-.65-.519a.944.944,0,0,0-.757.309l-.2-.174a1.247,1.247,0,0,1,.983-.4c.562,0,.919.286.919.749a1.141,1.141,0,0,1-.456.868l-.942.927Z" transform="translate(-69.065 -128.582)" fill="#263238"/>
        <path id="Trazado_616371" data-name="Trazado 616371" d="M175.9,321.532c0-.884.464-1.411,1.106-1.411s1.109.527,1.109,1.411-.468,1.41-1.109,1.41-1.106-.527-1.106-1.41m1.922,0c0-.741-.333-1.149-.816-1.149s-.817.408-.817,1.149.333,1.149.817,1.149.816-.408.816-1.149" transform="translate(-70.654 -128.582)" fill="#263238"/>
        <path id="Trazado_616372" data-name="Trazado 616372" d="M185.995,294.56h0a1.663,1.663,0,0,1-1.663-1.663v-31.2a1.663,1.663,0,1,1,3.326,0v31.2a1.663,1.663,0,0,1-1.663,1.663" transform="translate(-74.04 -104.446)" fill="#e0e0e0"/>
        <path id="Trazado_616373" data-name="Trazado 616373" d="M185.995,305.438h0a1.663,1.663,0,0,1-1.663-1.663V288.411a1.663,1.663,0,1,1,3.326,0v15.364a1.663,1.663,0,0,1-1.663,1.663" transform="translate(-74.04 -115.177)" fill="#e8505b"/>
        <path id="Trazado_616374" data-name="Trazado 616374" d="M185.043,322.138c0,.463-.337.82-1.006.82a1.44,1.44,0,0,1-1-.357l.139-.225a1.215,1.215,0,0,0,.86.321c.46,0,.713-.214.713-.559s-.234-.551-.749-.551h-.2v-.209l.769-.963h-1.419v-.254h1.783v.2l-.784.987c.594.032.892.345.892.789" transform="translate(-73.52 -128.598)" fill="#263238"/>
        <path id="Trazado_616375" data-name="Trazado 616375" d="M187.055,321.532c0-.884.464-1.411,1.106-1.411s1.109.527,1.109,1.411-.468,1.41-1.109,1.41-1.106-.527-1.106-1.41m1.922,0c0-.741-.333-1.149-.816-1.149s-.817.408-.817,1.149.333,1.149.817,1.149.816-.408.816-1.149" transform="translate(-75.134 -128.582)" fill="#263238"/>
        <path id="Trazado_616376" data-name="Trazado 616376" d="M197.106,294.56h0a1.663,1.663,0,0,1-1.663-1.663v-31.2a1.663,1.663,0,1,1,3.326,0v31.2a1.663,1.663,0,0,1-1.663,1.663" transform="translate(-78.503 -104.446)" fill="#e0e0e0"/>
        <path id="Trazado_616377" data-name="Trazado 616377" d="M197.106,297.995h0a1.663,1.663,0,0,1-1.663-1.663V269.881a1.663,1.663,0,1,1,3.326,0v26.451a1.663,1.663,0,0,1-1.663,1.663" transform="translate(-78.503 -107.734)" fill="#e8505b"/>
        <path id="Trazado_616378" data-name="Trazado 616378" d="M196.632,322.2h-.555v.729h-.285V322.2h-1.565V322l1.47-1.839h.317l-1.419,1.791h1.2v-.641h.278v.641h.555Z" transform="translate(-78.015 -128.598)" fill="#263238"/>
        <path id="Trazado_616379" data-name="Trazado 616379" d="M198.679,321.532c0-.884.464-1.411,1.106-1.411s1.109.527,1.109,1.411-.468,1.41-1.109,1.41-1.106-.527-1.106-1.41m1.922,0c0-.741-.333-1.149-.816-1.149s-.817.408-.817,1.149.333,1.149.817,1.149.816-.408.816-1.149" transform="translate(-79.803 -128.582)" fill="#263238"/>
        <path id="Trazado_616380" data-name="Trazado 616380" d="M208.218,294.56h0a1.663,1.663,0,0,1-1.663-1.663v-31.2a1.663,1.663,0,1,1,3.326,0v31.2a1.663,1.663,0,0,1-1.663,1.663" transform="translate(-82.966 -104.446)" fill="#e0e0e0"/>
        <path id="Trazado_616381" data-name="Trazado 616381" d="M208.218,301.4h0a1.663,1.663,0,0,1-1.663-1.663V278.352a1.663,1.663,0,1,1,3.326,0v21.383a1.663,1.663,0,0,1-1.663,1.663" transform="translate(-82.966 -111.137)" fill="#e8505b"/>
        <path id="Trazado_616382" data-name="Trazado 616382" d="M207.744,322.118c0,.471-.328.84-1.006.84a1.433,1.433,0,0,1-.994-.357l.139-.226a1.2,1.2,0,0,0,.852.321c.471,0,.721-.23.721-.567,0-.357-.222-.579-.927-.579h-.591l.143-1.391H207.6v.253h-1.268l-.1.884h.357c.836,0,1.153.329,1.153.82" transform="translate(-82.64 -128.598)" fill="#263238"/>
        <path id="Trazado_616383" data-name="Trazado 616383" d="M209.686,321.532c0-.884.464-1.411,1.106-1.411s1.109.527,1.109,1.411-.467,1.41-1.109,1.41-1.106-.527-1.106-1.41m1.922,0c0-.741-.333-1.149-.816-1.149s-.817.408-.817,1.149.333,1.149.817,1.149.816-.408.816-1.149" transform="translate(-84.224 -128.582)" fill="#263238"/>
        <path id="Trazado_616384" data-name="Trazado 616384" d="M219.328,294.56h0a1.663,1.663,0,0,1-1.663-1.663v-31.2a1.663,1.663,0,0,1,3.326,0v31.2a1.663,1.663,0,0,1-1.663,1.663" transform="translate(-87.429 -104.446)" fill="#e0e0e0"/>
        <path id="Trazado_616385" data-name="Trazado 616385" d="M219.328,305.193h0a1.64,1.64,0,0,1-1.663-1.516V288.313a1.7,1.7,0,0,1,1.663-1.81,1.663,1.663,0,0,1,1.663,1.663V303.53a1.663,1.663,0,0,1-1.663,1.663" transform="translate(-87.429 -115.079)" fill="#e8505b"/>
        <path id="Trazado_616386" data-name="Trazado 616386" d="M218.682,322.09a.864.864,0,0,1-.947.852c-.737,0-1.137-.511-1.137-1.387,0-.943.515-1.435,1.268-1.435a1.274,1.274,0,0,1,.658.151l-.115.23a.975.975,0,0,0-.538-.13c-.6,0-.983.384-.983,1.137,0,.063,0,.142.012.226a.886.886,0,0,1,.848-.475.84.84,0,0,1,.935.832m-.281.008c0-.364-.269-.6-.7-.6a.642.642,0,0,0-.713.607c0,.3.253.594.733.594a.607.607,0,0,0,.677-.6" transform="translate(-87 -128.582)" fill="#263238"/>
        <path id="Trazado_616387" data-name="Trazado 616387" d="M220.627,321.532c0-.884.464-1.411,1.106-1.411s1.109.527,1.109,1.411-.468,1.41-1.109,1.41-1.106-.527-1.106-1.41m1.922,0c0-.741-.333-1.149-.816-1.149s-.817.408-.817,1.149.333,1.149.817,1.149.816-.408.816-1.149" transform="translate(-88.619 -128.582)" fill="#263238"/>
        <path id="Trazado_616388" data-name="Trazado 616388" d="M230.44,294.56h0a1.663,1.663,0,0,1-1.663-1.663v-31.2a1.663,1.663,0,1,1,3.326,0v31.2a1.662,1.662,0,0,1-1.662,1.663" transform="translate(-91.892 -104.446)" fill="#e0e0e0"/>
        <path id="Trazado_616389" data-name="Trazado 616389" d="M230.44,296.931h0a1.663,1.663,0,0,1-1.663-1.663V267.234a1.663,1.663,0,1,1,3.326,0v28.034a1.663,1.663,0,0,1-1.662,1.663" transform="translate(-91.892 -106.671)" fill="#e8505b"/>
        <path id="Trazado_616390" data-name="Trazado 616390" d="M229.6,320.161v.2l-1.161,2.572h-.309l1.141-2.52h-1.426v.519h-.281v-.772Z" transform="translate(-91.403 -128.598)" fill="#263238"/>
        <path id="Trazado_616391" data-name="Trazado 616391" d="M231.458,321.532c0-.884.464-1.411,1.106-1.411s1.109.527,1.109,1.411-.468,1.41-1.109,1.41-1.106-.527-1.106-1.41m1.922,0c0-.741-.333-1.149-.816-1.149s-.817.408-.817,1.149.333,1.149.817,1.149.816-.408.816-1.149" transform="translate(-92.969 -128.582)" fill="#263238"/>
        <path id="Trazado_616392" data-name="Trazado 616392" d="M241.552,294.56h0a1.663,1.663,0,0,1-1.663-1.663v-31.2a1.663,1.663,0,1,1,3.326,0v31.2a1.663,1.663,0,0,1-1.663,1.663" transform="translate(-96.356 -104.446)" fill="#e0e0e0"/>
        <path id="Trazado_616393" data-name="Trazado 616393" d="M241.552,307.564h0a1.663,1.663,0,0,1-1.663-1.663v-12.2a1.663,1.663,0,1,1,3.326,0v12.2a1.663,1.663,0,0,1-1.663,1.663" transform="translate(-96.356 -117.304)" fill="#e8505b"/>
        <path id="Trazado_616394" data-name="Trazado 616394" d="M240.673,322.146c0,.491-.416.8-1.078.8s-1.07-.305-1.07-.8a.692.692,0,0,1,.535-.682.626.626,0,0,1-.436-.61c0-.451.385-.733.971-.733s.979.282.979.733a.628.628,0,0,1-.444.61.7.7,0,0,1,.543.682m-.293,0c0-.341-.293-.555-.784-.555s-.781.214-.781.555.29.558.781.558.784-.214.784-.558m-.784-.781c.432,0,.689-.194.689-.5s-.273-.5-.689-.5-.686.19-.686.5.254.5.686.5" transform="translate(-95.808 -128.582)" fill="#263238"/>
        <path id="Trazado_616395" data-name="Trazado 616395" d="M242.774,321.532c0-.884.464-1.411,1.106-1.411s1.109.527,1.109,1.411-.468,1.41-1.109,1.41-1.106-.527-1.106-1.41m1.922,0c0-.741-.333-1.149-.816-1.149s-.817.408-.817,1.149.333,1.149.817,1.149.816-.408.816-1.149" transform="translate(-97.514 -128.582)" fill="#263238"/>
        <path id="Trazado_616396" data-name="Trazado 616396" d="M252.663,294.56h0A1.663,1.663,0,0,1,251,292.9v-31.2a1.663,1.663,0,0,1,3.326,0v31.2a1.663,1.663,0,0,1-1.663,1.663" transform="translate(-100.818 -104.446)" fill="#e0e0e0"/>
        <path id="Trazado_616397" data-name="Trazado 616397" d="M252.663,312.635h0A1.639,1.639,0,0,1,251,311.119v-4.276a1.7,1.7,0,0,1,1.663-1.81,1.663,1.663,0,0,1,1.663,1.663v4.277a1.663,1.663,0,0,1-1.663,1.663" transform="translate(-100.818 -122.522)" fill="#e8505b"/>
        <path id="Trazado_616398" data-name="Trazado 616398" d="M251.543,321.508c0,.943-.515,1.434-1.268,1.434a1.272,1.272,0,0,1-.658-.151l.115-.229a.978.978,0,0,0,.539.13c.6,0,.982-.384.982-1.137,0-.063,0-.142-.012-.226a.885.885,0,0,1-.848.475.84.84,0,0,1-.935-.832.864.864,0,0,1,.947-.851c.737,0,1.137.511,1.137,1.387m-.392-.551c0-.305-.254-.594-.733-.594a.607.607,0,0,0-.678.6c0,.364.27.6.7.6a.642.642,0,0,0,.713-.607" transform="translate(-100.2 -128.582)" fill="#263238"/>
        <path id="Trazado_616399" data-name="Trazado 616399" d="M253.628,321.532c0-.884.464-1.411,1.106-1.411s1.109.527,1.109,1.411-.468,1.41-1.109,1.41-1.106-.527-1.106-1.41m1.922,0c0-.741-.333-1.149-.816-1.149s-.817.408-.817,1.149.333,1.149.817,1.149.816-.408.816-1.149" transform="translate(-101.874 -128.582)" fill="#263238"/>
        <path id="Trazado_616400" data-name="Trazado 616400" d="M263.774,294.56h0a1.663,1.663,0,0,1-1.663-1.663v-31.2a1.663,1.663,0,0,1,3.327,0v31.2a1.663,1.663,0,0,1-1.663,1.663" transform="translate(-105.281 -104.446)" fill="#e0e0e0"/>
        <path id="Trazado_616401" data-name="Trazado 616401" d="M263.774,305.193h0a1.64,1.64,0,0,1-1.663-1.516V288.313a1.7,1.7,0,0,1,1.663-1.81,1.663,1.663,0,0,1,1.663,1.663V303.53a1.663,1.663,0,0,1-1.663,1.663" transform="translate(-105.281 -115.079)" fill="#e8505b"/>
        <path id="Trazado_616402" data-name="Trazado 616402" d="M260.278,320.161v2.774h-.285v-2.52h-.653v-.254Z" transform="translate(-104.168 -128.598)" fill="#263238"/>
        <path id="Trazado_616403" data-name="Trazado 616403" d="M262.012,321.532c0-.884.464-1.411,1.106-1.411s1.109.527,1.109,1.411-.468,1.41-1.109,1.41-1.106-.527-1.106-1.41m1.922,0c0-.741-.333-1.149-.816-1.149s-.817.408-.817,1.149.333,1.149.817,1.149.816-.408.816-1.149" transform="translate(-105.242 -128.582)" fill="#263238"/>
        <path id="Trazado_616404" data-name="Trazado 616404" d="M266.393,321.532c0-.884.464-1.411,1.106-1.411s1.109.527,1.109,1.411-.468,1.41-1.109,1.41-1.106-.527-1.106-1.41m1.922,0c0-.741-.333-1.149-.816-1.149s-.817.408-.817,1.149.333,1.149.817,1.149.816-.408.816-1.149" transform="translate(-107.001 -128.582)" fill="#263238"/>
        <path id="Trazado_616405" data-name="Trazado 616405" d="M287.811,297.845c-.086,0-.156-10.269-.156-22.934s.069-22.936.156-22.936.156,10.267.156,22.936-.069,22.934-.156,22.934" transform="translate(-115.542 -101.211)" fill="#e0e0e0"/>
        <path id="Trazado_616406" data-name="Trazado 616406" d="M333.594,256.873c0,.086-6.332.156-14.14.156s-14.141-.069-14.141-.156,6.33-.156,14.141-.156,14.14.069,14.14.156" transform="translate(-122.634 -103.115)" fill="#263238"/>
        <g id="Grupo_876709" data-name="Grupo 876709" transform="translate(180.352 151.46)" opacity="0.5">
          <g id="Grupo_876708" data-name="Grupo 876708">
            <g id="Grupo_876707" data-name="Grupo 876707" clip-path="url(#clip-path-10)">
              <path id="Trazado_616407" data-name="Trazado 616407" d="M301.424,295.374l6.324-9.018a2.266,2.266,0,0,1,3.22-.507l3.327,2.511a2.265,2.265,0,0,0,3.327-.676l9.6-16.621a2.266,2.266,0,0,1,3.742-.27l5.992,7.6a2.266,2.266,0,0,0,3.691-.187l4.379-6.883a2.266,2.266,0,0,1,3.874.084l3.615,6.262a2.266,2.266,0,0,0,3.872.086l12.361-19.374a2.266,2.266,0,0,1,3.794-.041l20.423,30.55a2.267,2.267,0,0,0,3.561.264l12.408-13.658a2.266,2.266,0,0,1,3.282-.076l9.87,9.905a2.266,2.266,0,0,0,3.567-.467l17.657-30.582a2.266,2.266,0,0,1,4.228,1.133v39.967Z" transform="translate(-301.424 -253.137)" fill="#fff"/>
            </g>
          </g>
        </g>
      </g>
    </g>
    <g id="Grupo_876713" data-name="Grupo 876713">
      <g id="Grupo_876712" data-name="Grupo 876712" clip-path="url(#clip-path)">
        <path id="Trazado_616408" data-name="Trazado 616408" d="M93.416,292.624a27.983,27.983,0,1,1,2.993-.16,28.01,28.01,0,0,1-2.993.16m.066-51.759a24.189,24.189,0,0,0-2.573.138,23.708,23.708,0,1,0,2.573-.138" transform="translate(-26.295 -95.066)" fill="#455a64"/>
        <path id="Trazado_616409" data-name="Trazado 616409" d="M162.315,349.738a2.09,2.09,0,0,1-1.6-.735l-26.449-31.04a2.094,2.094,0,1,1,3.188-2.717l26.45,31.04a2.094,2.094,0,0,1-1.593,3.452" transform="translate(-53.731 -126.328)" fill="#455a64"/>
      </g>
    </g>
    <g id="Grupo_876715" data-name="Grupo 876715">
      <g id="Grupo_876714" data-name="Grupo 876714" clip-path="url(#clip-path)">
        <path id="Trazado_616410" data-name="Trazado 616410" d="M604.971,353.873c4.306,1.5,9.922.16,13.605-2.53s6.333-6.543,8.683-10.452a15.52,15.52,0,0,0,2.3-5.328,5.758,5.758,0,0,0-1.638-5.334c-2.314-1.948-5.861-.96-8.489.537a29.274,29.274,0,0,0-14.459,23.106" transform="translate(-242.997 -132.207)" fill="#e8505b"/>
        <path id="Trazado_616411" data-name="Trazado 616411" d="M612.7,383.111c2.585,3.412,7.029,4.93,11.3,5.128a31.24,31.24,0,0,0,12.5-2.518c1.45-.556,3.037-1.319,3.534-2.791a3.548,3.548,0,0,0-.758-3.291,7.378,7.378,0,0,0-2.886-1.967,19.715,19.715,0,0,0-12.58-.681c-4.139,1.073-7.754,3.473-11.113,6.119" transform="translate(-246.101 -151.14)" fill="#e8505b"/>
        <path id="Trazado_616412" data-name="Trazado 616412" d="M603.669,322.38c3.564.071,6.262-3.051,7.876-6.23a23.093,23.093,0,0,0,2.123-14.4c-.326-1.821-1.015-3.785-2.645-4.661a4.7,4.7,0,0,0-5.2.964,10.688,10.688,0,0,0-2.7,4.873,32.587,32.587,0,0,0,.551,19.451" transform="translate(-241.758 -119.16)" fill="#e8505b"/>
        <path id="Trazado_616413" data-name="Trazado 616413" d="M581.419,346.711a42.894,42.894,0,0,0,3.5-34.444c-.582-1.857-1.681-3.982-3.623-4.1-2.15-.136-3.5,2.262-4.093,4.333-2.083,7.268-1.641,14.989-1.18,22.536a16,16,0,0,0,5.4,11.679" transform="translate(-231.215 -123.777)" fill="#e8505b"/>
        <path id="Trazado_616414" data-name="Trazado 616414" d="M561.058,368.834A24.855,24.855,0,0,0,546.312,353.2c-1.614-.608-3.665-.954-4.869.281-1.181,1.212-.817,3.236-.059,4.748a23.787,23.787,0,0,0,5.189,6.289,21.458,21.458,0,0,0,5.947,4.428c2.277,1,6.457,1.249,8.539-.108" transform="translate(-217.174 -141.646)" fill="#e8505b"/>
        <path id="Trazado_616415" data-name="Trazado 616415" d="M618.975,335.293s-.033.036-.106.095l-.327.254-1.274.953-.924.682c-.332.257-.679.554-1.059.863-.752.628-1.642,1.3-2.536,2.156l-1.432,1.3c-.5.455-.973.969-1.489,1.479-1.046,1.006-2.059,2.179-3.148,3.391a66.951,66.951,0,0,0-11.107,17.97c-.6,1.517-1.194,2.948-1.626,4.333-.225.689-.472,1.346-.657,1.992s-.357,1.27-.524,1.864c-.361,1.181-.568,2.278-.795,3.232-.106.479-.217.921-.3,1.333s-.138.789-.2,1.131q-.18.994-.282,1.565l-.081.406a.545.545,0,0,1-.037.137.518.518,0,0,1,.008-.141c.014-.109.032-.244.053-.41q.083-.574.23-1.575l.173-1.138c.073-.414.177-.86.275-1.341.212-.96.406-2.064.756-3.251l.508-1.875c.181-.65.422-1.312.644-2,.424-1.394,1.015-2.834,1.608-4.359a65.474,65.474,0,0,1,11.152-18.042c1.1-1.212,2.123-2.384,3.18-3.387.521-.507,1-1.02,1.505-1.472l1.45-1.292c.906-.844,1.807-1.511,2.57-2.13.386-.3.739-.595,1.076-.846l.94-.663,1.307-.91.344-.23a.505.505,0,0,1,.123-.071" transform="translate(-237.414 -134.676)" fill="#263238"/>
        <path id="Trazado_616416" data-name="Trazado 616416" d="M627.194,382.449a2.393,2.393,0,0,1-.417-.069c-.272-.049-.666-.154-1.183-.24a33.332,33.332,0,0,0-4.4-.538,32.107,32.107,0,0,0-26.068,10.847,33.409,33.409,0,0,0-2.719,3.5c-.3.428-.506.781-.664,1.008a2.381,2.381,0,0,1-.245.345,2.308,2.308,0,0,1,.2-.375c.142-.238.33-.6.621-1.04a29.6,29.6,0,0,1,2.66-3.573A31.585,31.585,0,0,1,621.206,381.4a29.615,29.615,0,0,1,4.409.631c.516.1.907.226,1.175.293a2.311,2.311,0,0,1,.4.126" transform="translate(-237.585 -153.163)" fill="#263238"/>
        <path id="Trazado_616417" data-name="Trazado 616417" d="M604.579,304.279a.664.664,0,0,1-.023.16c-.025.121-.057.273-.1.465-.1.427-.23,1.023-.4,1.781-.35,1.545-.884,3.775-1.555,6.527-1.339,5.506-3.284,13.087-5.311,21.489-1.007,4.2-1.919,8.219-2.705,11.88-.771,3.664-1.428,6.972-1.918,9.761-.262,1.392-.459,2.657-.646,3.767s-.339,2.066-.453,2.849c-.119.767-.213,1.37-.281,1.8-.033.192-.059.346-.08.468a.709.709,0,0,1-.037.158.642.642,0,0,1,.008-.162c.013-.122.031-.278.052-.471l.227-1.811c.1-.786.229-1.747.405-2.859s.355-2.381.606-3.776c.464-2.8,1.1-6.11,1.859-9.78s1.677-7.687,2.684-11.892c2.028-8.4,4-15.978,5.393-21.471l1.643-6.5.452-1.767.124-.458a.663.663,0,0,1,.052-.154" transform="translate(-237.414 -122.219)" fill="#263238"/>
        <path id="Trazado_616418" data-name="Trazado 616418" d="M587.5,371.338a.445.445,0,0,1-.039-.125c-.023-.1-.051-.223-.084-.373q-.11-.529-.3-1.44c-.257-1.251-.6-3.068-.988-5.318-.779-4.5-1.7-10.748-2.271-17.7-.275-3.476-.428-6.8-.5-9.816-.05-3.02-.023-5.742.071-8.025.028-1.142.1-2.173.153-3.078s.11-1.686.169-2.321q.086-.926.135-1.465c.017-.153.031-.278.042-.38a.472.472,0,0,1,.024-.129.436.436,0,0,1,.005.131c0,.1-.008.229-.014.382q-.029.539-.081,1.468c-.041.637-.089,1.416-.12,2.322s-.1,1.936-.11,3.077c-.068,2.28-.074,5-.009,8.013.081,3.015.242,6.328.517,9.8.567,6.938,1.458,13.184,2.186,17.689.364,2.253.674,4.073.9,5.331l.246,1.449c.023.152.042.276.057.379a.47.47,0,0,1,.01.13" transform="translate(-234.293 -129.004)" fill="#263238"/>
        <path id="Trazado_616419" data-name="Trazado 616419" d="M574.618,388.146a2.016,2.016,0,0,1-.158-.357q-.153-.4-.4-1.04l-.285-.752-.391-.874-.446-1.005c-.157-.356-.36-.715-.553-1.1l-.621-1.206-.739-1.27c-.488-.892-1.119-1.778-1.728-2.744a64.981,64.981,0,0,0-4.577-5.849,72.064,72.064,0,0,0-5.253-5.258c-.874-.737-1.674-1.473-2.481-2.091l-1.151-.917-1.092-.805c-.689-.524-1.337-.96-1.908-1.343s-1.059-.717-1.474-.966l-.942-.6a1.977,1.977,0,0,1-.319-.226,2.008,2.008,0,0,1,.348.175l.971.552c.425.235.929.548,1.5.927s1.24.8,1.939,1.312l1.107.793,1.165.907c.818.612,1.627,1.345,2.509,2.079a68.227,68.227,0,0,1,5.292,5.265,61.877,61.877,0,0,1,4.581,5.892c.607.975,1.233,1.87,1.715,2.772l.728,1.286.607,1.22c.187.391.386.754.537,1.115l.428,1.018.37.887q.143.415.263.764c.145.439.261.791.351,1.061a1.946,1.946,0,0,1,.1.375" transform="translate(-220.958 -144.497)" fill="#263238"/>
        <path id="Trazado_616420" data-name="Trazado 616420" d="M625.343,355.279c0,.045-.737.045-1.919.111a34.379,34.379,0,0,0-9.059,1.721c-1.125.372-1.809.641-1.827.6a1.806,1.806,0,0,1,.457-.248c.3-.145.745-.332,1.3-.543a27.31,27.31,0,0,1,9.12-1.732c.6-.008,1.079,0,1.411.028a1.8,1.8,0,0,1,.515.063" transform="translate(-246.036 -142.667)" fill="#263238"/>
        <path id="Trazado_616421" data-name="Trazado 616421" d="M637.521,388.368a13.947,13.947,0,0,0-6.08-6.547,4.265,4.265,0,0,1,1.235.546,10.915,10.915,0,0,1,4.391,4.729,4.261,4.261,0,0,1,.454,1.272" transform="translate(-253.629 -153.364)" fill="#263238"/>
        <path id="Trazado_616422" data-name="Trazado 616422" d="M612.489,318.312c.058.062-1.061,1.171-2.282,2.673s-2.089,2.818-2.161,2.773a17.11,17.11,0,0,1,4.443-5.447" transform="translate(-244.231 -127.854)" fill="#263238"/>
        <path id="Trazado_616423" data-name="Trazado 616423" d="M609.322,307.715a21.16,21.16,0,0,1,.824,4.845,21.072,21.072,0,0,1-.824-4.845" transform="translate(-244.735 -123.599)" fill="#263238"/>
        <path id="Trazado_616424" data-name="Trazado 616424" d="M587.775,340.97a59.924,59.924,0,0,1-3.813,7.355,60.073,60.073,0,0,1,3.813-7.355" transform="translate(-234.557 -136.956)" fill="#263238"/>
        <path id="Trazado_616425" data-name="Trazado 616425" d="M579.024,329.68a33.457,33.457,0,0,1,2.759,5.544,33.527,33.527,0,0,1-2.759-5.544" transform="translate(-232.573 -132.421)" fill="#263238"/>
        <path id="Trazado_616426" data-name="Trazado 616426" d="M558.737,367.906c-.019.082-1.225-.153-2.73-.255s-2.731-.048-2.739-.132a10.953,10.953,0,0,1,5.468.388" transform="translate(-222.23 -147.544)" fill="#263238"/>
        <path id="Trazado_616427" data-name="Trazado 616427" d="M573.759,402.429l3.383,17.792a2.494,2.494,0,0,0,2.45,2.028h10a2.494,2.494,0,0,0,2.46-2.086l2.941-17.734Z" transform="translate(-230.46 -161.643)" fill="#263238"/>
        <path id="Trazado_616428" data-name="Trazado 616428" d="M574.858,408.211h19.114l1.016-5.782H573.759Z" transform="translate(-230.46 -161.642)" fill="#455a64"/>
        <path id="Trazado_616429" data-name="Trazado 616429" d="M575.6,412.093l.4,2.109h18.42l.293-2.109Z" transform="translate(-231.198 -165.524)" fill="#fafafa"/>
      </g>
    </g>
    <g id="Grupo_876717" data-name="Grupo 876717">
      <g id="Grupo_876716" data-name="Grupo 876716" clip-path="url(#clip-path)">
        <path id="Trazado_616430" data-name="Trazado 616430" d="M723.279,192.523h3.534l30.437,1.612,6.462-3.676-5.191,41.983L757.658,244c-3.991,1.523-12.723,4.181-21.973,2.636a17.633,17.633,0,0,1-11.2-6.592c-.432-12.682-1.916-38.588-1.2-47.52" transform="translate(-290.441 -76.501)" fill="#2c95b5"/>
        <path id="Trazado_616431" data-name="Trazado 616431" d="M713.608,212.936a108.768,108.768,0,0,1,2.186-18.712,58.868,58.868,0,0,0,9.593,14.855,80.079,80.079,0,0,1-3.7,12.362l-8.343-7.371c.012-.135.26-1.011.266-1.134" transform="translate(-286.526 -78.013)" fill="#e5dfd8"/>
        <path id="Trazado_616432" data-name="Trazado 616432" d="M720.21,206.1a15.247,15.247,0,0,1-7.686-1.076.7.7,0,0,1-.385-.685c.219-2.893,1.623-18.448,6.944-25.2l4.943,9.114Z" transform="translate(-286.042 -71.955)" fill="#ffcd5f"/>
        <path id="Trazado_616433" data-name="Trazado 616433" d="M680.718,222.005s-9.019-3.276-9.171.014c-.193,4.163,1.391,7.743,3.136,7.392a20.228,20.228,0,0,0,4.871-2.342s2.648-2.224,1.164-5.063" transform="translate(-269.732 -88.589)" fill="#ffa18f"/>
      </g>
    </g>
    <g id="Grupo_876719" data-name="Grupo 876719" transform="translate(402.668 132.853)">
      <g id="Grupo_876718" data-name="Grupo 876718" clip-path="url(#clip-path-14)">
        <rect id="Rectángulo_325984" data-name="Rectángulo 325984" width="6.743" height="8.137" transform="translate(-1.458 0.309) rotate(-11.98)" fill="url(#linear-gradient)"/>
      </g>
    </g>
    <g id="Grupo_876721" data-name="Grupo 876721">
      <g id="Grupo_876720" data-name="Grupo 876720" clip-path="url(#clip-path)">
        <path id="Trazado_616435" data-name="Trazado 616435" d="M677.308,218.952c-.826-.622-.836-3.506-2.293-3.29l.816,3.151Z" transform="translate(-271.131 -86.619)" fill="#ffa18f"/>
        <path id="Trazado_616436" data-name="Trazado 616436" d="M769.3,126.87s-3.207,5.67-30.35-3.171-26.773-13.62-26.474-14.592,31.015,4.073,31.015,4.073Z" transform="translate(-286.151 -43.775)" fill="#a8773b"/>
        <path id="Trazado_616437" data-name="Trazado 616437" d="M778.393,347.656l6.22,45.984-6.307-.329L767.6,347.656Z" transform="translate(-308.318 -139.642)" fill="#ffa18f"/>
        <path id="Trazado_616438" data-name="Trazado 616438" d="M744.512,347.656v45.984l-6.307-.329-4.49-45.655Z" transform="translate(-294.709 -139.642)" fill="#ffa18f"/>
        <path id="Trazado_616439" data-name="Trazado 616439" d="M776.184,354.18l-8.572.678s-21.5-74.722-20.359-74.723l20.427-7.665c0,2.637,8.5,81.709,8.5,81.709" transform="translate(-300.13 -109.443)" fill="#2c95b5"/>
        <path id="Trazado_616440" data-name="Trazado 616440" d="M792.516,424.661c0-1.331-.573-1.606-1.44-2.325-.117-.766-.24-2.466-.321-2.993a.726.726,0,0,0-.7-.615l-7.346-.2a.731.731,0,0,0-.75.7l-.07,2.648c-1.259.582-2.148,1.11-2.143,2.785l0,2.672h12.769Z" transform="translate(-313.199 -168.108)" fill="#a8773b"/>
        <path id="Trazado_616441" data-name="Trazado 616441" d="M779.752,433.244l0,1.629a.761.761,0,0,0,.76.759h11.248a.76.76,0,0,0,.76-.763v-1.625Z" transform="translate(-313.201 -174.02)" fill="#68431b"/>
        <path id="Trazado_616442" data-name="Trazado 616442" d="M739.047,421.89l.018,0V420.11a.8.8,0,0,0-.794-.8,9.125,9.125,0,0,1-8.258-.037l-2.848,3.539-2.925.469a21.123,21.123,0,0,1-3.336.337c-3.056,0-4.052,1.976-4.383,4.014h22.457Z" transform="translate(-287.803 -168.409)" fill="#a8773b"/>
        <path id="Trazado_616443" data-name="Trazado 616443" d="M716.417,433.244a13.611,13.611,0,0,0-.157,1.729.758.758,0,0,0,.766.768l21.07-.075a.762.762,0,0,0,.758-.747l.02-1.674Z" transform="translate(-287.698 -174.02)" fill="#68431b"/>
        <path id="Trazado_616444" data-name="Trazado 616444" d="M746.179,162.36a10.661,10.661,0,0,0-4.735-1.458,9.627,9.627,0,0,0-4.5,1.251c-7.28,4.878-16.266,7.076-17.264,14.647-.222,1.683-1.565,6.347,2.208,6.421l19.117.373,17.147.373c3.774.074,4.027-5.394,4.027-5.394.141-7.635-8.913-11.055-16-16.213" transform="translate(-288.904 -64.615)" fill="#ffcd5f"/>
        <path id="Trazado_616445" data-name="Trazado 616445" d="M783.51,308.475a.035.035,0,0,0,0-.069.035.035,0,0,0,0,.069" transform="translate(-314.697 -123.877)" fill="#a67c52"/>
        <path id="Trazado_616446" data-name="Trazado 616446" d="M704.485,234.611a88.288,88.288,0,0,1-20.73-6.142,7.508,7.508,0,0,1,1.788-6.134s20.587,3.74,26.981,2.893l-5.123,8.091a2.875,2.875,0,0,1-2.915,1.292" transform="translate(-274.607 -89.305)" fill="#e5dfd8"/>
        <path id="Trazado_616447" data-name="Trazado 616447" d="M743.239,167.66c-2.213,3.9,3.521,5.937,6.346,5.78,3.258-.182,7.578-2.252,7.508-6.063a.187.187,0,0,0-.366-.049c-.724,3.2-3.2,4.967-6.409,5.368-2.763.345-8.419-.823-6.871-4.947.045-.123-.145-.2-.208-.088" transform="translate(-298.335 -67.156)" fill="#f9b653"/>
        <path id="Trazado_616448" data-name="Trazado 616448" d="M773.139,171.713l-1.226-.836a1.156,1.156,0,0,0-1.554.235c-4.042,5.133-5.746,9.664-6.983,16.183a.667.667,0,0,0,.747.782l2.176-.3a.677.677,0,0,0,.559-.5c1.477-5.746,2.558-9.95,6.411-14.579a.667.667,0,0,0-.129-.98" transform="translate(-306.619 -68.555)" fill="#186389"/>
        <path id="Trazado_616449" data-name="Trazado 616449" d="M736.956,167.21l-.627.151a2.264,2.264,0,0,0-1.684,1.717,51.444,51.444,0,0,0-1.167,13.86H736.7a75.4,75.4,0,0,1,1-15.031.607.607,0,0,0-.738-.7" transform="translate(-294.578 -67.156)" fill="#186389"/>
        <path id="Trazado_616450" data-name="Trazado 616450" d="M744.009,232.439c2.527-.253,5.054-.521,7.579-.787a8.842,8.842,0,0,0,7.86-7.741,96.891,96.891,0,0,1,4.481-20.119,6.172,6.172,0,0,0-4.443-8.04c-8.274-1.9-22.1-4.756-31.609-5.016a2.308,2.308,0,0,0-2.32,1.814c-3.01,13.539-3.025,28.119-1.261,43.855,7.041.057,12.688-3.263,19.713-3.965" transform="translate(-290.447 -76.612)" fill="#2c95b5"/>
        <path id="Trazado_616451" data-name="Trazado 616451" d="M749.042,210.784a79.674,79.674,0,0,1-18.551-1.54.565.565,0,0,0-.688.464,90.685,90.685,0,0,0-.993,12.224.673.673,0,0,0,.1.331c.559,1,3.587,6.4,7.778,7.292,4.149.882,10.366-4.543,11.575-5.613a.683.683,0,0,0,.188-.454c.176-1.323.808-5.994,1.171-12.1a.568.568,0,0,0-.582-.607" transform="translate(-292.739 -84.041)" fill="#186389"/>
        <path id="Trazado_616452" data-name="Trazado 616452" d="M739.194,229.165a3.841,3.841,0,0,1-.8-.081c-2.953-.628-5.19-3.918-6.26-5.824a.857.857,0,0,1-.124-.422,70.339,70.339,0,0,1,.776-9.556.757.757,0,0,1,.322-.513.765.765,0,0,1,.6-.113,61.666,61.666,0,0,0,14.348,1.189h0a.782.782,0,0,1,.568.229.773.773,0,0,1,.217.583c-.186,3.123-.491,6.285-.909,9.4a.881.881,0,0,1-.256.588c-1.61,1.425-5.457,4.521-8.48,4.522m-5.661-15.886a.117.117,0,0,0-.068.021.109.109,0,0,0-.048.078,69.619,69.619,0,0,0-.769,9.462.242.242,0,0,0,.039.1c1.02,1.816,3.13,4.94,5.836,5.515,2.9.62,7.41-3.13,8.724-4.292a.406.406,0,0,0,.041-.155c.42-3.136.724-6.282.909-9.388a.127.127,0,0,0-.035-.1.112.112,0,0,0-.086-.035,62.333,62.333,0,0,1-14.513-1.205.131.131,0,0,0-.029,0" transform="translate(-294.022 -85.409)" fill="#2c95b5"/>
        <path id="Trazado_616453" data-name="Trazado 616453" d="M744.585,298.819c-.024-6.709-.067-13.094-.139-18.59l-19.027-6.853s.945,19.967,2.318,43.944c.777,13.552,3.007,28.377,5.146,41.618h11.563s.042-5.823.083-14.6l-2.973-46.452a1.193,1.193,0,0,1,2.257-.609Z" transform="translate(-291.377 -109.806)" fill="#2c95b5"/>
        <path id="Trazado_616454" data-name="Trazado 616454" d="M755.317,313.188l-1.819-3.64a.719.719,0,0,0-1.36.367l3.123,48.788c.057-12.055.112-29.687.056-45.516" transform="translate(-302.109 -124.175)" fill="#186389"/>
        <path id="Trazado_616455" data-name="Trazado 616455" d="M748.8,414.1a3.711,3.711,0,0,1,.376,1.968c-.143.7.414,2.062,0,2.484s-13.4.375-13.748,0,.249-1.968-.051-2.39a2.491,2.491,0,0,1,0-2.062c.294-.3,13.165-.446,13.417,0" transform="translate(-295.288 -166.218)" fill="#186389"/>
        <path id="Trazado_616456" data-name="Trazado 616456" d="M759.042,268.367l.056,1.24a.806.806,0,0,1-.631.853c-3.321.589-18.578,3.028-34.134,1.166a.8.8,0,0,1-.674-.831l.028-2.161a.777.777,0,0,1,.876-.8,99.649,99.649,0,0,0,33.593-.228.772.772,0,0,1,.886.763" transform="translate(-290.67 -107.483)" fill="#186389"/>
        <path id="Trazado_616457" data-name="Trazado 616457" d="M769.509,272.471s1.164,11.41,3.217,27.877c.542,4.339,1.5,12.025,2.869,21.746,1.354,9.631,3.211,22,5.687,36.479H768.634s-3.465-10.337-7.4-24.125c-.67-2.347-2.03-6.547-3-10.985-1.709-7.776-3.973-18.527-6.47-31.821l17.748-19.171" transform="translate(-301.958 -109.443)" fill="#2c95b5"/>
        <path id="Trazado_616458" data-name="Trazado 616458" d="M770.407,285.562a9.812,9.812,0,0,1-4.459-.956c-2.861-1.492-3.438-6.409-3.461-6.618a.322.322,0,0,1,.64-.072c.005.048.563,4.785,3.119,6.119a10.959,10.959,0,0,0,6.128.729.321.321,0,1,1,.118.632,12.292,12.292,0,0,1-2.085.166" transform="translate(-306.265 -111.515)" fill="#186389"/>
        <path id="Trazado_616459" data-name="Trazado 616459" d="M727.577,283.766a.322.322,0,0,1-.133-.615,5.793,5.793,0,0,0,3.71-5.189.322.322,0,0,1,.311-.331.329.329,0,0,1,.331.311,6.536,6.536,0,0,1-4.088,5.8.335.335,0,0,1-.132.028" transform="translate(-292.115 -111.515)" fill="#186389"/>
        <path id="Trazado_616460" data-name="Trazado 616460" d="M728.165,185.4l-.035,0a.322.322,0,0,1-.285-.354,23.9,23.9,0,0,0-.631-7.179.322.322,0,0,1,.623-.16,24.135,24.135,0,0,1,.647,7.407.322.322,0,0,1-.319.287" transform="translate(-292.094 -71.283)" fill="#f9b653"/>
        <path id="Trazado_616461" data-name="Trazado 616461" d="M744.872,278.708a41.425,41.425,0,0,0,.647,8.175c.341,1.965.588,4.2,2.5,5.249.36.2.682-.353.323-.551-1.977-1.087-2.107-4.064-2.4-6.058a39.594,39.594,0,0,1-.432-6.815.319.319,0,0,0-.637,0" transform="translate(-299.186 -111.824)" fill="#186389"/>
        <path id="Trazado_616462" data-name="Trazado 616462" d="M772.144,352.448l2.61-1.608c.349-.215.029-.767-.322-.55l-2.609,1.608c-.349.215-.029.767.322.551" transform="translate(-309.955 -140.68)" fill="#186389"/>
        <path id="Trazado_616463" data-name="Trazado 616463" d="M774.61,355.5a45.138,45.138,0,0,1,4.559-2.581c.368-.181.045-.732-.323-.55a45.242,45.242,0,0,0-4.559,2.581c-.344.222-.024.775.322.551" transform="translate(-310.947 -141.521)" fill="#186389"/>
        <path id="Trazado_616464" data-name="Trazado 616464" d="M780.44,356.277l.732-.4c.36-.2.038-.75-.322-.551l-.732.4c-.36.2-.038.75.322.551" transform="translate(-313.285 -142.704)" fill="#186389"/>
        <path id="Trazado_616465" data-name="Trazado 616465" d="M739.711,353.217l2.357-1.136c.37-.178.046-.728-.323-.55l-2.356,1.135c-.37.178-.047.729.322.551" transform="translate(-296.923 -141.184)" fill="#186389"/>
        <path id="Trazado_616466" data-name="Trazado 616466" d="M738.475,357.4l3.091-1.535c.368-.183.045-.734-.322-.551l-3.091,1.535c-.368.182-.045.734.322.551" transform="translate(-296.427 -142.702)" fill="#186389"/>
        <path id="Trazado_616467" data-name="Trazado 616467" d="M743.519,359.257l.488-.244c.367-.184.044-.734-.323-.551l-.487.244c-.367.184-.045.734.322.551" transform="translate(-298.453 -143.968)" fill="#186389"/>
        <path id="Trazado_616468" data-name="Trazado 616468" d="M727.29,266.612a123.2,123.2,0,0,0,31.127-.309c.4-.056.232-.67-.17-.615a122.586,122.586,0,0,1-30.957.286c-.407-.048-.4.591,0,.638" transform="translate(-292.007 -106.717)" fill="#186389"/>
        <path id="Trazado_616469" data-name="Trazado 616469" d="M731.151,269.883a9.027,9.027,0,0,0,.263,2.11.319.319,0,0,0,.615-.17,8.257,8.257,0,0,1-.24-1.94.319.319,0,0,0-.638,0" transform="translate(-293.68 -108.28)" fill="#2c95b5"/>
        <path id="Trazado_616470" data-name="Trazado 616470" d="M741.3,270.867a11.294,11.294,0,0,0,.233,1.854c.084.4.7.232.615-.169a10.3,10.3,0,0,1-.21-1.684c-.017-.409-.655-.411-.638,0" transform="translate(-297.756 -108.675)" fill="#2c95b5"/>
        <path id="Trazado_616471" data-name="Trazado 616471" d="M754.351,271.037q.022.853.042,1.706a.319.319,0,0,0,.638,0q-.021-.853-.042-1.706a.319.319,0,0,0-.638,0" transform="translate(-302.998 -108.743)" fill="#2c95b5"/>
        <path id="Trazado_616472" data-name="Trazado 616472" d="M769.885,270.019q-.046.812-.092,1.625c-.023.41.615.409.638,0q.046-.812.092-1.625c.023-.41-.614-.409-.638,0" transform="translate(-309.2 -108.334)" fill="#2c95b5"/>
        <path id="Trazado_616473" data-name="Trazado 616473" d="M730.187,194.371a4.534,4.534,0,0,1,.9-.425c.386-.132.22-.749-.17-.615a5.311,5.311,0,0,0-1.051.489c-.351.214-.03.765.322.551" transform="translate(-293.102 -77.647)" fill="#186389"/>
        <path id="Trazado_616474" data-name="Trazado 616474" d="M730.06,196.2l3.781-1.391c.382-.141.217-.758-.169-.616l-3.781,1.392c-.382.141-.217.757.17.615" transform="translate(-293.086 -77.991)" fill="#186389"/>
        <path id="Trazado_616475" data-name="Trazado 616475" d="M775.536,260.63a4.878,4.878,0,0,1,.88-.545c.369-.181.045-.731-.323-.55a5.58,5.58,0,0,0-1.008.644c-.322.254.132.7.451.451" transform="translate(-311.282 -104.232)" fill="#186389"/>
        <path id="Trazado_616476" data-name="Trazado 616476" d="M775.744,262.691q1.421-.906,2.917-1.678c.365-.188.043-.739-.322-.551q-1.5.774-2.917,1.678c-.345.22-.026.772.322.551" transform="translate(-311.402 -104.603)" fill="#186389"/>
        <path id="Trazado_616477" data-name="Trazado 616477" d="M766.74,145.733s-1.763,3.6-4.792,3.869l2.4-3.524Z" transform="translate(-306.05 -58.536)" fill="#323c47"/>
        <path id="Trazado_616478" data-name="Trazado 616478" d="M756.244,158.662c-.357,3.623-10.266,6.126-10,.29l1.015-11.646,9.342-.495c-.795,5.036-1.035,9.305-.361,11.851" transform="translate(-299.741 -58.969)" fill="#fca781"/>
        <path id="Trazado_616479" data-name="Trazado 616479" d="M735.2,130.9l2.093-15.562a3.674,3.674,0,0,1,4.31-3.228c4.112.746,8.216,1.536,12.3,2.427a6.219,6.219,0,0,1,4.564,4.062l.023.068a6.186,6.186,0,0,1-.092,4.248l-4.814,11.888c-.835,1.86-5.341,6.867-10.748,6.121-.141-.02-.281-.025-.423-.05l-.2-.016c-4.265-.729-7.437-6.05-7.016-9.958" transform="translate(-295.292 -45.009)" fill="#fca781"/>
        <path id="Trazado_616480" data-name="Trazado 616480" d="M771.051,141.456c-1.337,1.872-3.386,2.7-4.577,1.848a1.746,1.746,0,0,1-.315-.29c-.842-.994-.628-2.954.577-4.641,1.337-1.872,3.386-2.7,4.577-1.848s1.074,3.059-.262,4.931" transform="translate(-307.537 -54.703)" fill="#fca781"/>
        <path id="Trazado_616481" data-name="Trazado 616481" d="M754.483,125.346c1.751-1.7,5.16.408,5.553,2.448a.165.165,0,0,1-.264.174,27.681,27.681,0,0,0-2.054-1.94,5.012,5.012,0,0,0-3.168-.544.084.084,0,0,1-.066-.138" transform="translate(-303.042 -50.097)" fill="#565553"/>
        <path id="Trazado_616482" data-name="Trazado 616482" d="M744.287,123.338a4.13,4.13,0,0,0-2.305-.811c-.976.053-1.706.723-2.611,1.011-.142.045-.227-.136-.15-.266,1-1.669,4.328-2.326,5.165-.032.025.07-.047.129-.1.1" transform="translate(-296.909 -48.906)" fill="#565553"/>
        <path id="Trazado_616483" data-name="Trazado 616483" d="M741.8,129.239c-.16.919.156,1.742.707,1.839s1.129-.57,1.289-1.489-.156-1.742-.707-1.839-1.128.57-1.289,1.489" transform="translate(-297.939 -51.309)" fill="#323c47"/>
        <path id="Trazado_616484" data-name="Trazado 616484" d="M753.576,131.407c-.16.919.156,1.742.707,1.839s1.129-.571,1.289-1.49-.156-1.742-.707-1.838-1.128.57-1.289,1.489" transform="translate(-302.67 -52.18)" fill="#323c47"/>
        <path id="Trazado_616485" data-name="Trazado 616485" d="M753.52,131.305c-.044.252.043.477.194.5s.309-.156.353-.408-.042-.477-.194-.5-.309.156-.353.408" transform="translate(-302.66 -52.576)" fill="#fff"/>
        <path id="Trazado_616486" data-name="Trazado 616486" d="M741.689,129.206c-.044.252.043.477.194.5s.309-.156.354-.408-.043-.477-.194-.5-.309.156-.354.408" transform="translate(-297.908 -51.733)" fill="#fff"/>
        <path id="Trazado_616487" data-name="Trazado 616487" d="M755.223,137.366a.644.644,0,0,0-.391-.317c-.01,0-.119.041-.958-.407a.649.649,0,0,0-.3-.075.665.665,0,0,0-.2.031.642.642,0,0,0-.379.331c-.011.023-2.091,3.213-4.228,3.9a5.1,5.1,0,0,1-1.493.174,32.667,32.667,0,0,1-9.43-1.984c-.7-.282-1.255-2.818-1.407-3.564-.062-.3-.251-.384-.554-.384h-.032c-.317.015-.358.516-.391.832l-.423,4c-.726,4.3,1.407,9.419,6.136,10.228l.055.007.172.029c.09.015.179.023.268.033.047,0,.1.008.143.015a18.517,18.517,0,0,0,2.632.2c5.839,0,9.006-3.1,10.023-6.011l.579-1.481a.64.64,0,0,0,0-.476,6.8,6.8,0,0,1,.229-4.577.642.642,0,0,0-.044-.5" transform="translate(-295.183 -54.254)" fill="#a5a09a"/>
        <path id="Trazado_616488" data-name="Trazado 616488" d="M743.98,139.124a.3.3,0,0,0,.069-.6,2.862,2.862,0,0,1-1.627-.948.621.621,0,0,1-.019-.546c.416-1.077,2.173-.644,2.19-.64a.3.3,0,0,0,.359-.188l1.348-3.6a.3.3,0,1,0-.568-.213l-1.258,3.355c-.625-.1-2.148-.2-2.637,1.064a1.234,1.234,0,0,0,.049,1.048,3.4,3.4,0,0,0,2.024,1.254.277.277,0,0,0,.069.008" transform="translate(-297.934 -53.1)" fill="#dd7d52"/>
        <path id="Trazado_616489" data-name="Trazado 616489" d="M740.839,106.194c2.387-2.189,5.871-2.966,10.354-2.31,6.047.884,8.653,4.073,9.774,6.591A14.364,14.364,0,0,1,759.78,123.4a.321.321,0,0,1-.348.133c-.007,0-.045-.011-.111-.022a2.3,2.3,0,0,0-2.073.79,11.318,11.318,0,0,0-1.113,1.519.322.322,0,0,1-.273.152.328.328,0,0,1-.1-.015,2.1,2.1,0,0,1-1.426-2.418c.114-.562.247-1.242.378-1.979a11.3,11.3,0,0,0-.9-6.747.388.388,0,0,0-.306-.2,72.82,72.82,0,0,1-13.382-2.464.172.172,0,0,0-.189.064c-.1.138-.271.463-.47.838a15.361,15.361,0,0,1-1.449,2.375.321.321,0,0,1-.568-.186c-.014-.23-.291-5.675,3.387-9.048" transform="translate(-296.207 -41.636)" fill="#565553"/>
        <path id="Trazado_616490" data-name="Trazado 616490" d="M764.171,108.513c-7.5-2.55-15.1-5.374-22.84-7.5,7.677-10.245,13.041-14.166,14.389-14.529,1.575-.424,3.329,3.022,4.524,3.941s5.32,1.144,6.823,1.928c1.063.555-.267,9.608-1.9,16.585a7.85,7.85,0,0,0-.991-.422" transform="translate(-297.768 -34.722)" fill="#a8773b"/>
        <path id="Trazado_616491" data-name="Trazado 616491" d="M768.323,108.458a81.814,81.814,0,0,0-21.5-6.944.493.493,0,0,0-.47.19l-1.229,1.64a.482.482,0,0,0,.284.763,130.178,130.178,0,0,1,22.165,6.764.479.479,0,0,0,.658-.337l.343-1.539a.48.48,0,0,0-.254-.537" transform="translate(-299.253 -40.772)" fill="#f9745f"/>
        <path id="Trazado_616492" data-name="Trazado 616492" d="M769.34,124.464l-16.289-6a49.776,49.776,0,0,0-13.33-6.433c-8.264-2.654-13.816-1.235-13.816-1.235l-13.39-4.092s-.253-7.6,25.677-1.038c27.382,6.93,32.8,14.462,31.147,18.8" transform="translate(-286.194 -41.369)" fill="#a8773b"/>
        <path id="Trazado_616493" data-name="Trazado 616493" d="M769.1,124.555a.356.356,0,0,0,.1,0,.369.369,0,0,0,.3-.426c-1.351-7.934-29.17-16.531-40.552-18.035-11.444-1.516-13.469.867-13.662,1.143a.37.37,0,0,0,.6.431c.044-.054,2.025-2.29,12.965-.842,12.609,1.666,38.719,10.37,39.921,17.426a.369.369,0,0,0,.325.305" transform="translate(-287.281 -42.412)" fill="#68431b"/>
        <path id="Trazado_616494" data-name="Trazado 616494" d="M744.011,148.137c-1.724.737-4.2-.267-5.792-.991a25.04,25.04,0,0,1-5.7-3.851.042.042,0,0,1,.053-.066c3.333,2.5,7.081,4.942,11.409,4.785a.065.065,0,0,1,.03.124" transform="translate(-294.223 -57.526)" fill="#e5aa6a"/>
        <path id="Trazado_616495" data-name="Trazado 616495" d="M733.161,144.112a.23.23,0,0,1-.288.358.23.23,0,0,1,.288-.358" transform="translate(-294.338 -57.865)" fill="#e5aa6a"/>
        <path id="Trazado_616496" data-name="Trazado 616496" d="M734,143.238a.114.114,0,0,1-.143.177.114.114,0,0,1,.143-.177" transform="translate(-294.751 -57.524)" fill="#e5aa6a"/>
        <path id="Trazado_616497" data-name="Trazado 616497" d="M734.859,144.246a.156.156,0,0,1-.2.243.156.156,0,0,1,.2-.243" transform="translate(-295.067 -57.925)" fill="#e5aa6a"/>
        <path id="Trazado_616498" data-name="Trazado 616498" d="M734.679,145.423a.232.232,0,0,1-.29.361.232.232,0,0,1,.29-.361" transform="translate(-294.946 -58.391)" fill="#e5aa6a"/>
        <path id="Trazado_616499" data-name="Trazado 616499" d="M736.31,144.7a.31.31,0,0,1-.387.483.31.31,0,0,1,.387-.483" transform="translate(-295.55 -58.095)" fill="#e5aa6a"/>
        <path id="Trazado_616500" data-name="Trazado 616500" d="M736.02,146.449a.334.334,0,0,1-.418.521.334.334,0,0,1,.418-.521" transform="translate(-295.418 -58.793)" fill="#e5aa6a"/>
        <path id="Trazado_616501" data-name="Trazado 616501" d="M737.336,146.023a.236.236,0,0,1-.3.368.236.236,0,0,1,.3-.368" transform="translate(-296.01 -58.632)" fill="#e5aa6a"/>
        <path id="Trazado_616502" data-name="Trazado 616502" d="M737.288,147.924h-.032a.258.258,0,1,1,.229-.285c0,.011,0,.021.006.031a.231.231,0,0,1-.2.253" transform="translate(-296.016 -59.21)" fill="#e5aa6a"/>
        <path id="Trazado_616503" data-name="Trazado 616503" d="M738.668,146.073a.283.283,0,0,1-.354.441.283.283,0,0,1,.354-.441" transform="translate(-296.515 -58.647)" fill="#e5aa6a"/>
        <path id="Trazado_616504" data-name="Trazado 616504" d="M738.283,147.879a.269.269,0,0,1-.337.42.269.269,0,0,1,.337-.42" transform="translate(-296.369 -59.374)" fill="#e5aa6a"/>
        <path id="Trazado_616505" data-name="Trazado 616505" d="M739.64,146.7a.321.321,0,0,1-.4.5.321.321,0,0,1,.4-.5" transform="translate(-296.881 -58.897)" fill="#e5aa6a"/>
        <path id="Trazado_616506" data-name="Trazado 616506" d="M737.01,146.909a.234.234,0,0,1-.293.364.234.234,0,0,1,.293-.364" transform="translate(-295.88 -58.987)" fill="#e5aa6a"/>
        <path id="Trazado_616507" data-name="Trazado 616507" d="M737.164,144.952a.223.223,0,0,1-.279.347.223.223,0,0,1,.279-.347" transform="translate(-295.95 -58.203)" fill="#e5aa6a"/>
        <path id="Trazado_616508" data-name="Trazado 616508" d="M735.614,145.972c0,.013,0,.025-.006.038-.042.276-.434-.038-.174-.139l.035-.014a.108.108,0,0,1,.144.116" transform="translate(-295.364 -58.583)" fill="#e5aa6a"/>
        <path id="Trazado_616509" data-name="Trazado 616509" d="M733.881,144.922a.2.2,0,0,1-.251.312.2.2,0,0,1,.251-.312" transform="translate(-294.646 -58.192)" fill="#e5aa6a"/>
        <path id="Trazado_616510" data-name="Trazado 616510" d="M754.836,148.371a3.755,3.755,0,0,1,.351.71,2.648,2.648,0,0,1,.273.717.193.193,0,0,1-.279.214,1.57,1.57,0,0,1-.727-1.592c.041-.194.284-.181.382-.05" transform="translate(-303.03 -59.557)" fill="#565453"/>
        <path id="Trazado_616511" data-name="Trazado 616511" d="M752.717,149.735a2.892,2.892,0,0,1-1.656,1.221,2.835,2.835,0,0,1-2.026-.045c-.156-.069-.08-.27.042-.321.61-.251,1.277-.184,1.9-.39.561-.185,1.012-.675,1.611-.687a.149.149,0,0,1,.127.221" transform="translate(-300.828 -60.055)" fill="#565453"/>
        <path id="Trazado_616512" data-name="Trazado 616512" d="M776.676,280.6s-4.352,5.686-3.823,6.651,3.118-1.4,3.118-1.4-2.111,5.357-1.459,5.958,3.018-3.932,3.018-3.932-2.073,5.158-1.407,5.613,3.71-5.3,3.71-5.3-1.584,4.711-.64,4.764,2.627-5.378,2.627-5.378-.431,2.669-.01,2.8,1.942-3.549,1.2-8.923Z" transform="translate(-310.412 -112.707)" fill="#ffa18f"/>
        <path id="Trazado_616513" data-name="Trazado 616513" d="M778.774,216.016l-1.891-7.117c3.7-.766,7.368-1.674,11.012-2.7,1.374,12.128.573,29.252-3.25,45.363a8.923,8.923,0,0,1-6.333-.85s2.311-21.812.462-34.7" transform="translate(-312.048 -82.825)" fill="#e5dfd8"/>
        <path id="Trazado_616514" data-name="Trazado 616514" d="M775.023,189.23a.322.322,0,0,1-.321-.3c-.589-9.743,5.479-10.407,5.541-10.412a.321.321,0,0,1,.059.64c-.226.022-5.508.64-4.958,9.733a.321.321,0,0,1-.3.34h-.02" transform="translate(-311.156 -71.703)" fill="#f9b653"/>
        <path id="Trazado_616515" data-name="Trazado 616515" d="M791.639,413.981a3.772,3.772,0,0,1,.573,1.968c-.089.7.287,2.062-.112,2.484s-14.158.375-14.558,0,.089-1.968-.266-2.39a3.035,3.035,0,0,1,.1-2.372c.284-.3,13.959-.136,14.266.31" transform="translate(-312.125 -166.097)" fill="#186389"/>
        <path id="Trazado_616516" data-name="Trazado 616516" d="M782.122,181.472c4.978,8.962,6.54,21.565,6.885,24.985a1.321,1.321,0,0,1-.752,1.331,16.335,16.335,0,0,1-11.426.784,1.341,1.341,0,0,1-.978-1.169,126.508,126.508,0,0,0-2.5-16.9h3.75Z" transform="translate(-310.629 -72.891)" fill="#ffcd5f"/>
      </g>
    </g>
  </g>
</svg>
