<svg xmlns="http://www.w3.org/2000/svg" xmlns:xlink="http://www.w3.org/1999/xlink" width="113" height="113" viewBox="0 0 113 113">
  <defs>
    <clipPath id="clip-path">
      <rect id="Rectángulo_325322" data-name="Rectángulo 325322" width="58.771" height="58.798" fill="none"/>
    </clipPath>
  </defs>
  <g id="Grupo_877372" data-name="Grupo 877372" transform="translate(-1009 -3192.161)">
    <path id="Trazado_613726" data-name="Trazado 613726" d="M56.5,0A56.5,56.5,0,1,1,0,56.5,56.5,56.5,0,0,1,56.5,0Z" transform="translate(1009 3192.161)" fill="#d2e6d5"/>
    <g id="Grupo_876361" data-name="Grupo 876361" transform="translate(1037 3219.161)" clip-path="url(#clip-path)">
      <path id="Trazado_614912" data-name="Trazado 614912" d="M49.637,52.986c-.725.231-1.042.923-1.592,1.331v1.012a2.993,2.993,0,0,0,1.96.783c2.061.448,4.063,1.135,6.152,1.467.188.031.36.262.615.221a2.386,2.386,0,0,1,.373,0l.575-.606c.119-1.408-.415-2.81-.227-4.248a8.07,8.07,0,0,1-.24-2.861c-.052-.638-.387-1.238-.219-1.861l-.331-.331h-.917a3.891,3.891,0,0,0-1.492,1.142h-.463c-.235-.65-.84-.987-1.265-1.506a.713.713,0,0,1,.142-.712,28.649,28.649,0,0,0,3.5-6.125A19.722,19.722,0,0,0,57.533,36.5c.258-1.281.473-2.565.71-3.848a50.22,50.22,0,0,0,.212-5.117c.044-.523-.3-.925-.273-1.442a2.4,2.4,0,0,0-.165-1.346c-.235-.46-.1-1.092-.26-1.661a41.662,41.662,0,0,0-1.344-4.417c-.573-1.394-1.261-2.719-1.963-4.04a26.991,26.991,0,0,0-1.983-2.973A28.284,28.284,0,0,0,49.6,8.342a27.077,27.077,0,0,0-4.827-3.8,27.338,27.338,0,0,0-7.044-3.261A21.8,21.8,0,0,0,33.914.446C32.8.33,31.678.1,30.553.032,29.413-.041,28.265.046,27.12,0A5.638,5.638,0,0,0,25.8.254c-.442.085-.877-.1-1.352.183-.419.244-1.013.127-1.54.248A30.242,30.242,0,0,0,18.373,2.05a37.7,37.7,0,0,0-4.421,2.2A34.013,34.013,0,0,0,9.971,7.088c-.927-.892-1.673-2-2.56-2.971A21.63,21.63,0,0,0,4.513.975c-.369-.181-.658.1-.85.246C2.627,2,1.74,2.963.65,3.68c.158.323-.413.4-.294.756a3.019,3.019,0,0,0,.49.848A16.079,16.079,0,0,1,2.823,7.561C3.846,8.838,5,10.005,5.954,11.342a16.586,16.586,0,0,0,1.275,1.473A28.14,28.14,0,0,0,9.2,15.1a7.419,7.419,0,0,1,.846,1.063,12.778,12.778,0,0,1,.871,1.052,11.209,11.209,0,0,0,1.413,1.658c1.223,1.29,2.258,2.735,3.461,4.04.6.648,1.188,1.313,1.785,1.967h.656c1.523-1.288,3.011-2.548,4.521-3.823a29.381,29.381,0,0,1,2.873,3.323c.394.513.842,1,1.277,1.471.683.74,1.3,1.538,1.952,2.3a33.174,33.174,0,0,1,2.879,3.531,2.2,2.2,0,0,0,.331.338c.867.865,1.571,1.873,2.369,2.794.633.727,1.25,1.475,1.875,2.206a12.617,12.617,0,0,1,1.79,2.206,2.247,2.247,0,0,0,.412.423,8.227,8.227,0,0,1,1.19,1.4c.292.481.8.8,1.092,1.325s.833.869,1.181,1.4a17.654,17.654,0,0,0,1.588,1.821c.612.7,1.21,1.413,1.785,2.127,1,1.244,2.16,2.358,3.058,3.692.36.531.981.871,1.235,1.579" transform="translate(0.313 0)" fill="#040506"/>
      <path id="Trazado_614913" data-name="Trazado 614913" d="M15.407,19.23a.2.2,0,0,0-.237-.237,1.7,1.7,0,0,0-1.848-.088c-.612.7-.212,1.59-.687,2.523-3.275.121-6.665.031-10.163.044a18.9,18.9,0,0,1,.694-5.481A25.959,25.959,0,0,1,5.742,9.54a2.1,2.1,0,0,0,.427-1.2c-.279-.712-1.038-.777-1.6-1.188a26.052,26.052,0,0,0-2.427,4.69c-.258.644-.51,1.286-.735,1.946-.275.8-.46,1.633-.654,2.446C.48,17.361.392,18.544.2,19.688a44.217,44.217,0,0,0-.19,4.529A5.887,5.887,0,0,0,.238,25.9c.112.513-.183,1.09.246,1.558-.092,1.308.548,2.473.715,3.731a6.587,6.587,0,0,0,.525,1.675,48.993,48.993,0,0,0,2.336,4.831A21.067,21.067,0,0,0,6.03,40.556a30.435,30.435,0,0,0,2.617,3.05,29.126,29.126,0,0,0,5.665,4.313c.827.49,1.679.917,2.517,1.377a19.193,19.193,0,0,0,4.4,1.663,12.217,12.217,0,0,0,3.377.713c.679.562,1.615-.115,2.29.473h2.369a11.7,11.7,0,0,0,2.479-.033c1.24-.277,2.561-.1,3.74-.679,3.884-.721,5.2-1.467,8.8-3.331a30.968,30.968,0,0,0,2.786-1.835c-.61-.456-.688-1.2-1.352-1.465-.358-.138-.6.106-.85.279a31.007,31.007,0,0,1-3.569,2.081,32.1,32.1,0,0,1-3.871,1.565c1.992-2.277,3.858-4.6,4.7-7.382a1.693,1.693,0,0,0-1-.931c-.931-.344-1.4.187-1.75.929a22.224,22.224,0,0,1-3.275,5.034,11.229,11.229,0,0,1-4.077,2.954,1.641,1.641,0,0,1-1.336.14c-.046-3.919-.021-7.9-.017-11.892,2.521-.669,4.925.175,7.113-.148a1.644,1.644,0,0,0,.117-1.863c.006-.163-.073-.242-.238-.237a5.329,5.329,0,0,0-2.952-.619A9.347,9.347,0,0,1,31,34.341c-.421-.563-.256-1.211-.292-1.825-.115-1.91.26-3.844-.273-5.734a1.027,1.027,0,0,0-.1-.212,1.728,1.728,0,0,0-2.054.062c-.542,2.417.048,5.036-.36,7.755-3.49.5-7,.39-10.557,1.01a38.837,38.837,0,0,1-1.748-10.886,2.194,2.194,0,0,1,1.7-.4c2.523-.013,5.044,0,7.567-.012a2.471,2.471,0,0,0,1.685-.35,1.156,1.156,0,0,0-.023-1.436c-.035-.179.117-.454-.237-.473a3.037,3.037,0,0,0-1.811-.379c-2.394,0-4.786.006-7.181,0a2.889,2.889,0,0,1-1.506-.21c-.463-.6.073-1.411-.4-2.015" transform="translate(0 6.597)" fill="#040506"/>
      <path id="Trazado_614914" data-name="Trazado 614914" d="M19.273,15.035v1.31a.52.52,0,0,1-.083.073.2.2,0,0,1-.1.037c-3.7,0-7.4,0-11.215,0,.163.694-.223,1.377.25,2.035.112.156.046.465.012.7a17.312,17.312,0,0,0,.288,3.563,11.522,11.522,0,0,0,.442,2.519,14.611,14.611,0,0,0,.677,2.438,2.088,2.088,0,0,1,.015.781c.437.01.873.213,1.283-.16a.311.311,0,0,1,.221-.031,13.48,13.48,0,0,0,3.206-.292c1.55-.165,3.1-.046,4.629-.229.719-.087,1.433-.163,2.231-.2V19.3h1.936c-.64-.76-1.323-1.485-1.906-2.285a15.617,15.617,0,0,0-1.6-1.811c-.079-.077-.135-.206-.285-.167" transform="translate(7.267 13.871)" fill="#49883f"/>
      <path id="Trazado_614915" data-name="Trazado 614915" d="M5.262,7.766A18.5,18.5,0,0,0,3.12,11.777,16.553,16.553,0,0,0,2.4,13.731a11.368,11.368,0,0,0-.7,2.785c-.433.483-.067,1.131-.331,1.636-.3.562-.083,1.146-.137,1.717-.04.442-.406.831-.19,1.352H12.363v-2.8h1.9c-.546-.729-1.148-1.411-1.721-2.115-.95-1.169-1.973-2.277-2.867-3.5-.538-.733-1.227-1.363-1.821-2.067A17.8,17.8,0,0,0,5.885,8.491c-.238-.2-.2-.66-.623-.725" transform="translate(0.907 7.168)" fill="#3b6f34"/>
      <path id="Trazado_614916" data-name="Trazado 614916" d="M23.336,21.928v1.561c-1.265.4-2.492-.237-3.756-.158s-2.508.017-3.792.017V36.508a7.088,7.088,0,0,0,2.608-.856,9.6,9.6,0,0,0,3.6-3.006,11.49,11.49,0,0,1,1.015-1.227,30.525,30.525,0,0,0,2.6-4.5,1.142,1.142,0,0,1,1.048.213c.313-.258.508-.544.238-.946-.613-.71-1.2-1.446-1.777-2.177s-1.24-1.344-1.777-2.086" transform="translate(14.572 20.239)" fill="#58a64c"/>
      <path id="Trazado_614917" data-name="Trazado 614917" d="M15.772,17.248v8.317c.929-.223,1.729.288,2.619.223s1.8.015,2.7-.025c.694-.031,1.317.427,2.019.246-.581-.7-1.2-1.371-1.735-2.1-.958-1.317-2.144-2.442-3.1-3.765-.419-.583-1.008-1.033-1.411-1.65a10.958,10.958,0,0,0-1.1-1.242" transform="translate(14.558 15.92)" fill="#58a64c"/>
      <path id="Trazado_614918" data-name="Trazado 614918" d="M23.933,24.148c0,.188.04.383-.158.517-.158.108-.05.287-.079.431l.758.363a22.8,22.8,0,0,1-5.463,8.1A26.409,26.409,0,0,0,28.2,29.12q-1-1.171-1.99-2.346a28.459,28.459,0,0,1-1.992-2.46c-.06-.087-.133-.206-.281-.167" transform="translate(17.529 22.281)" fill="#6aad57"/>
      <path id="Trazado_614919" data-name="Trazado 614919" d="M8.129,14.168c.123.438-.262.773-.242,1.2s.006.862.006,1.41H19.024a40.8,40.8,0,0,0-3.565-4.142,17.234,17.234,0,0,1-1.836,1.631c-1.24.985-1.7,1.435-3.229,1.342a6.661,6.661,0,0,1-2.265-1.436" transform="translate(7.279 11.659)" fill="#49893f"/>
      <path id="Trazado_614920" data-name="Trazado 614920" d="M6.059,7.5a.778.778,0,0,0,.267.8c1.25,1.156,2.192,2.579,3.329,3.838.869.96,1.635,2.023,2.542,2.956.246.252.271.61.562.848a.915.915,0,0,0,.687.238,56.8,56.8,0,0,1,4.6-3.815,2.759,2.759,0,0,1,1.36,1.131,12.547,12.547,0,0,0,1.583,1.823c.615.69,1.208,1.413,1.785,2.127,1,1.242,2.11,2.394,3.073,3.675A15.87,15.87,0,0,0,27.4,22.968a24.351,24.351,0,0,1,2.19,2.636c.492.637,1.071,1.21,1.6,1.813.613.692,1.21,1.411,1.786,2.125,1,1.244,2.1,2.406,3.073,3.675.581.752,1.252,1.469,1.863,2.21a22.919,22.919,0,0,1,1.81,2.192,11.572,11.572,0,0,0,1.425,1.65c1.225,1.288,2.211,2.773,3.475,4.027a12.241,12.241,0,0,0,1.144,1.319c.7-.19.894-.9,1.215-1.4a26.718,26.718,0,0,0,1.81-3.386,30.53,30.53,0,0,0,1.346-3.708,29.631,29.631,0,0,1,.9-3.529.221.221,0,0,0,0-.117c-.177-1.013.317-1.967.252-2.981-.063-.981.092-1.986-.052-2.952-.09-.6-.14-1.2-.213-1.8a13.7,13.7,0,0,0-.254-1.671,30.483,30.483,0,0,0-1.4-4.623c-.508-1.171-1.081-2.315-1.654-3.456a19.4,19.4,0,0,0-1.936-2.981,6.973,6.973,0,0,0-1.15-1.427c-.487-.381-.754-.994-1.2-1.379A47.4,47.4,0,0,0,39.218,5.73,35.615,35.615,0,0,0,34.577,3.2a20.334,20.334,0,0,0-3.742-1.258,6.212,6.212,0,0,1-1.481-.425c-.41-.217-1.008.192-1.429-.26-.019-.021-.075-.01-.115,0-1.013.173-1.969-.3-2.981-.25a20.858,20.858,0,0,0-2.948.05c-1.244.252-2.56.1-3.74.673a22.154,22.154,0,0,0-7.917,2.881,13.617,13.617,0,0,0-3.74,2.7c-.09.1-.263.117-.425.185" transform="translate(5.575 0.894)" fill="#ffb436"/>
      <path id="Trazado_614921" data-name="Trazado 614921" d="M16.878,20.9,21.4,17.118h.692a45.771,45.771,0,0,1,3.11,3.523,16.818,16.818,0,0,0,1.736,2.011c.419.356.567.9.99,1.26a5.247,5.247,0,0,1,1.04,1.211,10.45,10.45,0,0,0,1.26,1.481c.683.74,1.3,1.538,1.952,2.3a32.548,32.548,0,0,1,2.877,3.531,2.29,2.29,0,0,0,.333.337,25.5,25.5,0,0,1,2.356,2.808c.462.608,1.012,1.16,1.521,1.729,1.1,1.235,2.127,2.536,3.21,3.786a39.961,39.961,0,0,1,2.808,3.436,22.132,22.132,0,0,0,1.525,1.725c.6.7,1.219,1.408,1.777,2.133a15.921,15.921,0,0,1,2.294,2.85.958.958,0,0,1-.373.869c-.208.185-.554.21-.59.683,1.513.171,2.9.931,4.54,1.052a13.663,13.663,0,0,0-.229-2.708,8.229,8.229,0,0,1-.037-2.236,2.754,2.754,0,0,1-1.1.867h-.948c-.75-.96-1.529-1.852-2.265-2.775-1.019-1.279-2.179-2.44-3.138-3.777a16.489,16.489,0,0,0-1.5-1.744c-1.2-1.254-2.229-2.656-3.392-3.944-1.306-1.442-2.494-3-3.775-4.469S35.6,30.042,34.3,28.579c-1.317-1.488-2.506-3.086-3.844-4.567-.869-.96-1.7-1.973-2.51-2.983-.929-1.152-1.954-2.223-2.806-3.44-.458-.654-1.077-1.2-1.6-1.815A11.447,11.447,0,0,0,22.1,14.058C20.906,15.2,19.48,16.1,18.328,17.323c-.317.338-.8.377-1.179.694a2.376,2.376,0,0,1-1.342-1.2,2.006,2.006,0,0,0-.367-.44c-1.088-1.246-2.213-2.461-3.254-3.746-.792-.983-1.656-1.908-2.421-2.906-.971-1.271-2.127-2.385-3.044-3.7A12.107,12.107,0,0,0,5.445,4.557,23.485,23.485,0,0,0,2.892,1.749c-.45.346-.706.912-1.267,1a.445.445,0,0,0,.192.485A23.69,23.69,0,0,1,4.09,5.957C4.545,6.57,5.115,7.1,5.617,7.681c.575.671,1.146,1.36,1.7,2.042,1.035,1.267,2.2,2.425,3.138,3.777a14.938,14.938,0,0,0,1.431,1.65c1.136,1.21,2.123,2.538,3.211,3.786.581.667,1.185,1.31,1.779,1.967" transform="translate(1.487 1.614)" fill="#e54d57"/>
      <path id="Trazado_614922" data-name="Trazado 614922" d="M1.045,15.791c-.05.31-.146.64.027.823a.792.792,0,0,1,.16.763,10.067,10.067,0,0,0,.285,2.5c.054.788.475,1.544.61,2.335a24.189,24.189,0,0,0,2.219,5.709,16.327,16.327,0,0,0,1.438,2.217c.831.25,1.435-.456,2.188-.419a11.5,11.5,0,0,1,3.052-.913,10.719,10.719,0,0,1,3.088-.527,56.817,56.817,0,0,1-1.258-6.159,37.654,37.654,0,0,1-.463-6.332Z" transform="translate(0.898 14.575)" fill="#3b6f34"/>
      <path id="Trazado_614923" data-name="Trazado 614923" d="M20.012,36.1V22.671c-.958,0-1.9-.023-2.831.006a11.963,11.963,0,0,0-2.748.192c-.829.219-1.735.085-2.617.225s-1.8.175-2.717.356A47.5,47.5,0,0,0,11.26,28.3a20.726,20.726,0,0,0,2.3,3.415,9.907,9.907,0,0,0,1,1.242A13.082,13.082,0,0,0,18.8,35.575c.375.127.877-.129,1.211.525" transform="translate(8.398 20.917)" fill="#49883f"/>
      <path id="Trazado_614924" data-name="Trazado 614924" d="M4.193,25.064A17.757,17.757,0,0,0,7.626,28.68,24.727,24.727,0,0,0,14.068,32.8a27.873,27.873,0,0,0,3.569,1.381c.113.031.231,0,.335-.244a23.014,23.014,0,0,1-3.734-4.973,44.581,44.581,0,0,1-2.511-5.619,5.932,5.932,0,0,0-2.535.292,25.347,25.347,0,0,0-2.585.612c-.806.231-1.59.535-2.413.817" transform="translate(3.87 21.482)" fill="#3b6f34"/>
      <path id="Trazado_614925" data-name="Trazado 614925" d="M26.963,14.889a3.008,3.008,0,0,0,.054-2.675c-.41-.408-.852-.852-1.329-1.327a8.307,8.307,0,0,0-2.979-.244,1.32,1.32,0,0,1-1.083-.965c.006-.235.358-.323.26-.6.842-.583,1.8-.238,2.667-.306.544.067.617.6.963.9h1.8a2.7,2.7,0,0,0-1.381-2.329,1.992,1.992,0,0,0-1.461-.483V5.941H22.646c-.223.21.025.562-.121.879a2.921,2.921,0,0,0-2.352,1.392,2.354,2.354,0,0,0-.36,2.144,2.971,2.971,0,0,0,2.961,2.177c.354-.023.71,0,1.063,0a1.7,1.7,0,0,1,1.208.237c.123.221.246.444.377.681.1.258-.412.294-.179.627a4.107,4.107,0,0,1-3.3.088c-.135-.217-.017-.542-.348-.642H19.811c-.4.427.36.785.156,1.229a4.767,4.767,0,0,0,2.6,1.685v.8c.6.069,1.213.013,1.8.035.167-.3.058-.575.112-.888a3.935,3.935,0,0,0,2.479-1.492" transform="translate(18.178 5.483)" fill="#050506"/>
    </g>
  </g>
</svg>
