<svg xmlns="http://www.w3.org/2000/svg" xmlns:xlink="http://www.w3.org/1999/xlink" width="169" height="169" viewBox="0 0 169 169">
  <defs>
    <filter id="Elipse_5167" x="0" y="0" width="169" height="169" filterUnits="userSpaceOnUse">
      <feOffset dy="6" input="SourceAlpha"/>
      <feGaussianBlur stdDeviation="5" result="blur"/>
      <feFlood flood-opacity="0.329"/>
      <feComposite operator="in" in2="blur"/>
      <feComposite in="SourceGraphic"/>
    </filter>
    <clipPath id="clip-path">
      <rect id="Rectángulo_325262" data-name="Rectángulo 325262" width="83.496" height="83.758" fill="none"/>
    </clipPath>
  </defs>
  <g id="Grupo_877361" data-name="Grupo 877361" transform="translate(-662.615 -837.631)">
    <g transform="matrix(1, 0, 0, 1, 662.62, 837.63)" filter="url(#Elipse_5167)">
      <circle id="Elipse_5167-2" data-name="Elipse 5167" cx="69.5" cy="69.5" r="69.5" transform="translate(15 9)" fill="#ffb500"/>
    </g>
    <g id="Grupo_876310" data-name="Grupo 876310" transform="translate(705.615 874.631)">
      <g id="Grupo_876309" data-name="Grupo 876309" transform="translate(0 0)" clip-path="url(#clip-path)">
        <path id="Trazado_614535" data-name="Trazado 614535" d="M53.915,37.746V34.953H40.464c-.74-.74-1.5-1.539-2.3-2.287a8.969,8.969,0,0,0-2.392-2.079c-.624-.457-.09-1.441-.668-2.038-.7-3.453-3.181-5.568-5.815-7.482a7.613,7.613,0,0,0-3.2-1.074c-.6-.1-1.092-.56-1.773-.424a16.994,16.994,0,0,1-1.74.031,12.033,12.033,0,0,0-7.757,3.23,18.429,18.429,0,0,0-3.04,3.821,6.048,6.048,0,0,0-.786,2.444c-.049.586-.432,1.023-.411,1.6.033.93-.046,1.865.028,2.79a9.9,9.9,0,0,0,.447,2.081c.057.19.265.342.239.6a6.5,6.5,0,0,0-.005.709c-.331.355-.763.09-1.131.18a11.5,11.5,0,0,0-3.44,3.9,3.015,3.015,0,0,0-.337,1.457,3.63,3.63,0,0,0,2.058,1.305,9.953,9.953,0,0,1,2.533,1.033,47.642,47.642,0,0,0,4.756,2.02c1.675.714,3.358,1.449,5.08,2.074,2.477.9,4.846,2.068,7.354,2.914.9.3,1.747.82,2.657,1.169a1.655,1.655,0,0,0,1.565-.077c2.238-1.182,4.571-2.187,6.794-3.4a4.4,4.4,0,0,1,2.23-.534c4.126.008,8.256.005,12.505.005V46.125a2.626,2.626,0,0,0-1.981-.486c-3.607-.01-7.22.028-10.828-.018a10.1,10.1,0,0,0-4.592,1.5c-6.11,2.975-4.119,2.8-10.167.383-4.594-1.837-9.142-3.79-13.734-5.63-.519-.206-1.149-.306-1.393-1.056.66-.773,1.472-.4,2.2-.182,3.908,1.156,7.857,2.212,11.668,3.631,2.873,1.071,5.116.946,7.051-1.644a44.838,44.838,0,0,1,3.163-3.25,2.022,2.022,0,0,0,.64-2.212,2.141,2.141,0,0,0-2.109-1.269c-.755-.049-1.513.01-2.269-.072a3.35,3.35,0,0,1-2.78-1.66c3.245-.093,6.357-.874,8.579,2.217a4.836,4.836,0,0,0,4.44,1.894c3.315-.1,6.637-.021,9.954-.033a2.885,2.885,0,0,0,2.156-.486" transform="translate(10.018 30.676)" fill="#040506"/>
        <path id="Trazado_614536" data-name="Trazado 614536" d="M36.353,33.572a16.99,16.99,0,0,0,12.3-5.671,16.088,16.088,0,0,0,4.306-11.814A16.2,16.2,0,0,0,47.335,4.3a16.585,16.585,0,0,0-23.623,1.38,16.115,16.115,0,0,0-4.25,11.837,16.3,16.3,0,0,0,5.694,11.765,16.987,16.987,0,0,0,11.2,4.294" transform="translate(30.514 0.001)" fill="#040506"/>
        <path id="Trazado_614537" data-name="Trazado 614537" d="M51.559,29.149H37.047l-4.116-4.126H25.423c-.036.116-.08.177-.064.218.344.9,1.254,1.318,1.76,2.027,1.781.794,3.631.362,5.427.511l.755.755a2.466,2.466,0,0,1,.072,1.156l-6.426,6.421a3.416,3.416,0,0,1-1.6-.285c-.445-.154-.94-.221-1.418-.375-3.037-.969-6.092-1.881-9.142-2.811C13.028,32.1,11.273,31.57,9.4,31c-.576.406-1.6.537-1.511,1.809,1.483.632,2.965,1.4,4.532,1.889,1.095.342,2.071.907,3.14,1.29C18.7,37.11,21.69,38.613,24.85,39.7a20.055,20.055,0,0,1,2.636,1.21,3.248,3.248,0,0,0,2.135.424l7.593-3.81H51.559Z" transform="translate(12.373 39.273)" fill="#fabda2"/>
        <path id="Trazado_614538" data-name="Trazado 614538" d="M1.028,21.123,3.009,23.1a37.523,37.523,0,0,0,9.8.075l2.523-2.523h3.828v1.919l1.015.527-.2.254h9.579c.257-.252.545-.537.832-.82V7.513c-.283-.267-.576-.545-.9-.853H20.111c-.388.373-.907.665-.989,1.341H15.81c-1.49-2.238-2.639-4.743-4.345-6.9h-3a4.2,4.2,0,0,0-3.23,3.412A5.585,5.585,0,0,0,6,8.047c-.827,0-1.567.005-2.307,0C2.148,8.032-.031,10.031,0,11.783a9.052,9.052,0,0,0,.3,3.009c.329.925-.265,2.04.385,2.983.054.077.008.226.008.342,0,.524.031,1.048-.01,1.57s.627.856.344,1.436" transform="translate(0 1.731)" fill="#040506"/>
        <path id="Trazado_614539" data-name="Trazado 614539" d="M34.269,28.617c-.4-.768-.861-1.678-1.364-2.657-.108-.391.8-.406.324-.938,1.241-.188,2.369-.272,3.158-1.292v-3.8A3.7,3.7,0,0,0,33.4,18.583c-.149-.3-.3-.583-.491-.966.445-.879.93-1.837,1.352-2.672l-3.569-3.564c-.683.344-1.644.825-2.634,1.321-.311-.139-.653-.293-1-.447-.164-1.087-.249-2.215-1.269-3H21.982A3.758,3.758,0,0,0,20.631,12.3a1.636,1.636,0,0,0-.462.085,2.444,2.444,0,0,0-.427.38c-.951-.48-1.912-.964-3-1.513-.527.529-1.092,1.092-1.655,1.657-.578.576-1.154,1.149-1.786,1.783.47.935.953,1.9,1.447,2.883-.139.311-.293.655-.447,1-1.087.164-2.215.249-3.006,1.269v3.849c.673,1.048,1.845,1.154,3.05,1.305a1.546,1.546,0,0,0,.082.46,2.369,2.369,0,0,0,.383.427c-.48.948-.966,1.909-1.387,2.742l3.566,3.566c.686-.344,1.647-.827,2.713-1.359.352-.1.37.807.9.331.188,1.241.272,2.369,1.295,3.158h3.8a3.754,3.754,0,0,0,1.354-3.047,1.578,1.578,0,0,0,.462-.082,2.35,2.35,0,0,0,.424-.38c.953.478,1.912.964,2.747,1.385,1.169-1.167,2.307-2.3,3.582-3.579" transform="translate(17.728 14.52)" fill="#040506"/>
        <path id="Trazado_614540" data-name="Trazado 614540" d="M7.814,11.678c-1.1-.385-1.914-.668-2.834-.989a33.433,33.433,0,0,0-2.7,10.252,38.553,38.553,0,0,0,.357,10.735,34.632,34.632,0,0,0,3.245,9.992,34.142,34.142,0,0,0,6.318,8.623c.658-.534,1.29-1.277,1.994-1.937a31.519,31.519,0,0,1-4.653-6.077,32.221,32.221,0,0,1-2.315-4.622A46.2,46.2,0,0,1,5.407,31.6c-.3-1.305-.177-2.626-.547-3.934A12.162,12.162,0,0,1,4.8,23.68,34.706,34.706,0,0,1,6.661,14a5.835,5.835,0,0,1,1.154-2.318" transform="translate(3.247 16.777)" fill="#050606"/>
        <path id="Trazado_614541" data-name="Trazado 614541" d="M25.841,43.486l1.775,1.77A9.669,9.669,0,0,0,30.5,42.1a33.4,33.4,0,0,0,3.384-5.727A39.682,39.682,0,0,0,36.337,29.2c.29-1.295.439-2.611.725-3.885a31.507,31.507,0,0,0,.288-5.442,25.293,25.293,0,0,0-.791-6.454,3.407,3.407,0,0,1-2.179.432c-.218.229-.375.393-.545.573.773,1.2.252,2.6.645,3.913.367,1.226.033,2.649.09,3.98a37.4,37.4,0,0,1-.442,4.031,17.377,17.377,0,0,1-.928,3.762,19.444,19.444,0,0,1-1.19,3.515c-.606,1.143-.974,2.395-1.68,3.489a31.921,31.921,0,0,1-2.05,3.16c-.85,1.025-1.616,2.122-2.438,3.214" transform="translate(40.555 21.056)" fill="#050607"/>
        <path id="Trazado_614542" data-name="Trazado 614542" d="M9.106,41.173c.989-.2,1.511-.928,2.289-1.215.018-.272.144-.586-.062-.812a9.1,9.1,0,0,1-1.662-3.153,24.858,24.858,0,0,1-1.1-3.219c-.267-1.241-.416-2.51-.712-3.718a14.678,14.678,0,0,1-.2-5.27c.188-1.6.036-3.338.966-4.81.077-1.853,1.043-3.4,1.755-5.031a3.838,3.838,0,0,1,.946-1.537c.128-.11.085-.424.131-.7L9.17,10.263A29.392,29.392,0,0,0,4.815,27.876a28.7,28.7,0,0,0,4.291,13.3" transform="translate(7.436 16.108)" fill="#050607"/>
        <path id="Trazado_614543" data-name="Trazado 614543" d="M23.381,38.925l1.942,1.942a29.463,29.463,0,0,0,2.554-2.611,43.471,43.471,0,0,0,2.724-4.1,19.63,19.63,0,0,0,1.508-3.034,32.683,32.683,0,0,0,1.39-4.3,29.157,29.157,0,0,0,.7-4.589c.118-1.678.026-3.371.026-5.057-.637-.845-.144-1.878-.457-2.775-.018-.051-.08-.085-.121-.126L33.379,14c-.57.753-1.722-.159-2.3.9a10.339,10.339,0,0,0,.288,2.533,6.918,6.918,0,0,1,.049,2.765c-.064.886.313,1.819-.3,2.67-.139.193-.018.563-.041.848a22.676,22.676,0,0,1-1.372,5.535,24.443,24.443,0,0,1-3.191,6,18.912,18.912,0,0,1-3.135,3.669" transform="translate(36.695 21.979)" fill="#050607"/>
        <path id="Trazado_614544" data-name="Trazado 614544" d="M12.71,3.336c.686.876.391,1.932,1.03,2.677.211-.062.262-.349.547-.331,1.244.075,2.423-.568,3.685-.342,1.714-.665,3.5-.208,5.252-.357a6.217,6.217,0,0,1,2.125.337c.686.18,1.441-.175,2.133.342.306.226.771-.015,1.133-.563a2.976,2.976,0,0,1,.506-2.115,34.356,34.356,0,0,0-16.411.352" transform="translate(19.947 3.39)" fill="#060708"/>
        <path id="Trazado_614545" data-name="Trazado 614545" d="M27.36,5.635c-2.885-1.3-12.531-.856-14.584.9.257.7.516,1.4.832,2.256,2.122-.37,4.247-.933,6.431-1.095a37.66,37.66,0,0,1,6.364.414A1.1,1.1,0,0,0,27.1,6.779c-.09-.434.244-.768.262-1.143" transform="translate(20.051 7.665)" fill="#060708"/>
        <path id="Trazado_614546" data-name="Trazado 614546" d="M10.918,35.916c4.386,1.354,8.829,2.724,13.119,4.047.917-.917,1.691-1.691,2.41-2.408-4.5-1.064-6.493-4.45-6.128-7.644l.866-.866h7.382A9.524,9.524,0,0,0,21.4,21.039c-4.242-1.218-7.611.47-10.442,3.559-2.038,3.8-2.888,6.837-.044,11.318" transform="translate(14.273 32.396)" fill="#81a361"/>
        <path id="Trazado_614547" data-name="Trazado 614547" d="M33.053,26.265h2.873v2.76c5.766-1.763,5.766-1.763,7.325-3.32-.465-.427-.928-.85-1.326-1.213L43.9,22.519c.308.329.745.791,1.22,1.295,2.171-1.924,2.649-4.581,3.386-7.271a26.9,26.9,0,0,0-2.742-.126V13.678h2.762c-.743-2.7-1.195-5.4-3.363-7.341L43.839,7.663,41.915,5.744l1.326-1.326c-1.9-2.135-4.586-2.593-7.21-3.338-.29.884.008,1.811-.177,2.752h-2.7V1.124a13.036,13.036,0,0,0-7.236,3.088c.488.488.956.956,1.426,1.423l-2.02,2C24.9,7.162,24.451,6.671,24,6.173c-2.189,2.127-2.878,4.7-3.469,7.459h2.762v2.811H20.537c.66,2.721,1.159,5.362,3.371,7.39.4-.519.812-1.043,1.218-1.567l2.022,2.02c-.465.409-.933.82-1.5,1.318a6.031,6.031,0,0,0,2.318,1.706A24.7,24.7,0,0,0,30.5,28.378a6.1,6.1,0,0,1,2.554.784Z" transform="translate(32.216 1.696)" fill="#007caa"/>
        <path id="Trazado_614548" data-name="Trazado 614548" d="M17.459,9.17H12.765c-1.755-2.112-2.9-4.684-4.437-6.989H7.169c-.19.257-.432.583-.848,1.151C6.205,4.866,7.783,6.29,7.744,8.281c-.283.216-.645.488-1.146.868H1.973l-.868.858c-.175,1.727.594,3.376.342,5.1.594.755.26,1.642.37,2.5.26.375.326.91.822,1.267H9.715c1.223-.6,2-1.778,3.109-2.742h4.635Z" transform="translate(1.693 3.424)" fill="#fabda2"/>
        <path id="Trazado_614549" data-name="Trazado 614549" d="M8.587,15.5h5.475V4.4a23.185,23.185,0,0,0-2.654-.041c-.922-.018-1.842-.005-2.821-.005Z" transform="translate(13.477 6.815)" fill="#007caa"/>
        <path id="Trazado_614550" data-name="Trazado 614550" d="M22.886,12.225A2.031,2.031,0,0,0,22.18,10.3a1.947,1.947,0,0,0-.678,1.891c-.794,1.436-2.515,1.2-3.479,2.014-1.154.036-1.6-1.28-2.744-1-.367,1.1.953,1.555.987,2.647-.707,1.056-.647,2.659-1.978,3.607a2.044,2.044,0,0,0-1.942.707,1.924,1.924,0,0,0,1.881.668c1.459.8,1.2,2.528,2.03,3.479.036,1.156-1.28,1.6-1,2.747,1.1.365,1.555-.953,2.649-.984,1.056.7,2.662.645,3.61,1.973a2.035,2.035,0,0,0,.707,1.94A1.958,1.958,0,0,0,22.9,28.1c.786-1.447,2.521-1.185,3.471-2.014,1.156-.033,1.608,1.272,2.747,1.01.37-1.115-.951-1.565-.982-2.657.7-1.056.645-2.659,1.976-3.607a2.041,2.041,0,0,0,1.94-.7,1.949,1.949,0,0,0-1.894-.678c-1.436-.794-1.2-2.513-2.014-3.476-.036-1.151,1.28-1.6,1-2.742-1.1-.365-1.552.966-2.659.976-1.043-.7-2.654-.63-3.6-1.978" transform="translate(19.373 16.163)" fill="#007baa"/>
        <path id="Trazado_614551" data-name="Trazado 614551" d="M14.066,31.4a4.01,4.01,0,0,1,.082-5.38,4.2,4.2,0,0,1,3.764-1.4,5.619,5.619,0,0,0,1.611.283,5.53,5.53,0,0,1,1.318-2.012,6.646,6.646,0,0,0-8.525.863,6.868,6.868,0,0,0-.406,9.569c.552-.1.789-.614,1.167-.94.349-.3.66-.65.989-.979" transform="translate(15.953 34.08)" fill="#050706"/>
        <path id="Trazado_614552" data-name="Trazado 614552" d="M27.808,11.058c-1.334,1.331-2.608,2.6-3.862,3.852l1.927,1.924,4.671-4.666V3.314c-.881-.1-1.781-.021-2.736-.057Z" transform="translate(37.581 5.113)" fill="#040506"/>
        <path id="Trazado_614553" data-name="Trazado 614553" d="M22.932,17.767V15.591a5.526,5.526,0,0,0-3.155-3.081H17.57a5.831,5.831,0,0,0-3.022,3.068v2.176a5.508,5.508,0,0,0,3.158,3.081h2.2a5.831,5.831,0,0,0,3.022-3.068" transform="translate(22.832 19.635)" fill="#040607"/>
        <path id="Trazado_614554" data-name="Trazado 614554" d="M15.635,15.509l.871.858H17.59c.216-.252.475-.555.812-.953v-.992l-.9-.835H16.491c-.2.275-.465.642-.856,1.182Z" transform="translate(24.538 21.325)" fill="#eceeef"/>
      </g>
    </g>
  </g>
</svg>
