<svg xmlns="http://www.w3.org/2000/svg" width="81.593" height="81.784" viewBox="0 0 81.593 81.784">
  <g id="Grupo_876236" data-name="Grupo 876236" transform="translate(0 0)">
    <g id="Grupo_876237" data-name="Grupo 876237" transform="translate(0 0)">
      <path id="Trazado_613952" data-name="Trazado 613952" d="M45.1,3.192c-.227-.227-.341-.341-.465-.467V1.485A4.719,4.719,0,0,0,42.731,0H39.008a4.24,4.24,0,0,0-2.015,1.414V2.609c-.328.783-1.149.391-1.492.9-.894-.1-1.626.45-2.447.621A46.986,46.986,0,0,0,28.347,5.49,6.45,6.45,0,0,0,23.874,10.3a13.85,13.85,0,0,0-.283,3.23c-.01.788,0,1.576,0,2.4H22.536c-.735.7-1.568,1.323-1.528,2.556H1.8c-.131.131-.192.242-.283.275A2.347,2.347,0,0,0,0,21.309c.015,6.333.005,12.669.005,19.005A2.981,2.981,0,0,0,2.26,42.185H5.106V43.8c0,6.389-.066,12.778.038,19.165a12.3,12.3,0,0,0,1.5,5.917c1.248,2.237,3.182,3.439,5.283,4.558.927-.033,1.77.551,2.725.354.9-.184,1.891.366,2.735-.323,2.381-.066,3.947-1.664,5.568-3.076a27.383,27.383,0,0,0,3.056-2.667c.043-.05.2,0,.462.015-.088,1.424.215,2.866-.465,4.424a12.582,12.582,0,0,0-1.561,1.856,4.053,4.053,0,0,0-.131,4.77,6.036,6.036,0,0,0,2.2,2.285,4.77,4.77,0,0,0,2.1.7c8.124-.005,16.25.015,24.374-.018a4.536,4.536,0,0,0,3.7-2.114,9.8,9.8,0,0,0,1.061-1.944,3.88,3.88,0,0,0-.545-3.548,5.256,5.256,0,0,0-1.6-1.957c-.694-1.508-.422-3-.462-4.477.253,0,.412-.045.455.008a36.121,36.121,0,0,0,3.167,2.788,22.439,22.439,0,0,0,3.023,2.3,6.787,6.787,0,0,0,2.945.927,9.658,9.658,0,0,0,9.01-3.159,10.247,10.247,0,0,0,2.48-5.523c.457-3.53.177-7.051.25-10.573.073-3.566.015-7.134.015-10.7V42.2h3.189c.818-.447,1.646-.785,1.909-1.755q0-9.735.005-19.47a2.113,2.113,0,0,0-1.4-2.136,1.682,1.682,0,0,1-.369-.308H60.607c.063-1.141-.715-1.828-1.47-2.535-.348-.02-.707-.038-1.131-.061,0-1.159-.043-2.268.01-3.374a7.707,7.707,0,0,0-1.768-5.169,6.419,6.419,0,0,0-3.157-1.955c-2.338-.778-4.77-1.253-7.048-2.23a2.562,2.562,0,0,0-.944-.015" transform="translate(0 0)" fill="#040506"/>
      <path id="Trazado_613953" data-name="Trazado 613953" d="M12.513,9.381c0,4.142-.088,8.233.048,12.316a5.767,5.767,0,0,0,1.672,3.927,10.162,10.162,0,0,0,2.987,2.035c.639.3,1.424.093,1.972.664v2.841c1.04.462,1.712,1.654,3.04,1.485a6.51,6.51,0,0,1,2.043-1.381V28.346c.889-.6,1.917-.6,2.811-1.086a6.873,6.873,0,0,0,3.573-4.106,7.42,7.42,0,0,0,.356-2.255C30.973,17.078,31,13.255,31,9.381Z" transform="translate(19.043 14.309)" fill="#efc5a5"/>
      <path id="Trazado_613954" data-name="Trazado 613954" d="M21.351,30.765h2.831v2.452H34.7V22.868c-.73-.485-1.359.164-2.035.242a3.747,3.747,0,0,0-2.056.763A11.069,11.069,0,0,0,28.912,25.2a21.207,21.207,0,0,1-1.677,1.7A70.1,70.1,0,0,1,26.1,19.7a2.865,2.865,0,0,0-2.821.952c1.157.48,1.654,1.525,2.2,2.7-.149.578.1,1.306-.217,2.116A7.324,7.324,0,0,1,24.152,27.4a28.279,28.279,0,0,1-2.23,2.275,6.036,6.036,0,0,1-3.058,1.275c-.5-.581-1.255-.005-1.886-.49-.538-.412-.982-.907-1.505-1.318a2.739,2.739,0,0,1-.306-.323c-.429-.083-.581.25-.8.452s-.45.447-.669.667V32.5l-2.854,2.861c-.6-.6-1.2-1.207-1.722-1.727.553-.545,1.225-1.2,1.677-1.647V25.661H3.187v4.571a34.6,34.6,0,0,1-.025,3.51,7.726,7.726,0,0,0,.7,3.4,5.6,5.6,0,0,0,2.384,2.8,8.07,8.07,0,0,0,4.217,1.343,7.52,7.52,0,0,0,4.826-1.806c2.1-1.707,4.063-3.571,6.063-5.349Z" transform="translate(4.788 29.964)" fill="#ea695c"/>
      <path id="Trazado_613955" data-name="Trazado 613955" d="M30,30.863v3.27a42.5,42.5,0,0,0,4.429,3.836,30.881,30.881,0,0,0,2.465,2.141A7.527,7.527,0,0,0,39.5,41.138a4.364,4.364,0,0,0,2.806-.106c2.932-.715,3.462-1.29,4.833-3.268A11.347,11.347,0,0,0,48.184,35c.01-.212,0-.424,0-.639V25.737H40.6V31.9l1.742,1.745c-.551.533-1.152,1.111-1.674,1.616Q39.461,34.05,37.7,32.285v-2.22c-.437-.364-.874-.73-1.389-1.162-.806.4-1.21,1.548-2.513,1.828-.455-.237-1.086.293-1.864.136a5.1,5.1,0,0,1-2.775-1.4,13.078,13.078,0,0,1-3.275-4.1,4.81,4.81,0,0,1,.621-3.225A4.422,4.422,0,0,1,28.1,20.757a3.369,3.369,0,0,0-2.78-1.162c-.194,2.384-.725,4.692-1.1,6.988-.366.179-.528-.045-.712-.227a13.556,13.556,0,0,0-2.687-2.369,10.572,10.572,0,0,0-4.144-1.2V33.3H27.143V30.863Z" transform="translate(25.436 29.889)" fill="#ea695c"/>
      <path id="Trazado_613956" data-name="Trazado 613956" d="M21.965,10.939a2.7,2.7,0,0,1-2.583-2.578H1.045v2.422c.306.25.742.088,1.141.093,2.071.02,4.142.005,6.212.01A11.74,11.74,0,0,1,12,11.129c.467.5.955.99,1.4,1.51a3.779,3.779,0,0,1-.934,5.589,3.965,3.965,0,0,1-2.283.667c-1.21-.091-2.432-.023-3.717-.023v-2.52H10.73l.732-1.066V14.2c-.106-.106-.217-.22-.384-.386H1.065V16.28h2.72v2.573H1.048v2.47c-.028-.03,0,.015.043.045a.25.25,0,0,0,.134.056c2.54,0,5.083,0,7.677,0V24.26H1.03v2.53H11.52c-.23-2.222.414-4.2,2.546-4.982,2.26-.831,3.907-.293,5.447,2.75v2.27h2.452Z" transform="translate(1.571 12.753)" fill="#bfc7d0"/>
      <path id="Trazado_613957" data-name="Trazado 613957" d="M32.746,11.426a6.629,6.629,0,0,1,3.53-.561c2.538-.008,5.076,0,7.657,0V8.375H25.607a2.667,2.667,0,0,1-2.619,2.518V26.764h2.467v-2.1c.578-1.2,1.053-2.364,2.311-2.8.652-.227,1.328-.71,2.03-.427,1.063.429,2.174.669,2.917,1.843a6.419,6.419,0,0,1,.75,3.525H43.92V24.33c-2.563-.126-5.192.01-7.864-.073V21.438h7.879V18.865h-2.8V16.35H43.9V13.784H33.89c-.119.121-.27.273-.424.427v1.3c.253.232.528.482.9.818h4.162v2.462H33.612a5.778,5.778,0,0,1-2.389-1.76c-.4-.6-.177-1.384-.611-1.987-.116-.159.109-.49.141-.707.21-1.419,1.3-2.172,1.992-2.912" transform="translate(35.064 12.775)" fill="#bfc7d0"/>
      <path id="Trazado_613958" data-name="Trazado 613958" d="M10.5,32.8a2.96,2.96,0,0,0,1.828,3.179,2.242,2.242,0,0,0,1.2.169c3.285.023,6.571.013,9.856.013a.771.771,0,0,0,.114-.109.282.282,0,0,0,.051-.136c0-2.546,0-5.089,0-7.685H13.1A5.483,5.483,0,0,1,11.2,31.8a4.779,4.779,0,0,0-.7,1.005" transform="translate(15.972 43.063)" fill="#ea685c"/>
      <path id="Trazado_613959" data-name="Trazado 613959" d="M16.683,36.166H27.577a3.824,3.824,0,0,0,2.177-2.47A2.59,2.59,0,0,0,28.6,31.434,4.832,4.832,0,0,1,27.1,28.325a.345.345,0,0,0-.073-.066.278.278,0,0,0-.139-.048c-3.384,0-6.77,0-10.21,0Z" transform="translate(25.447 43.028)" fill="#ea685c"/>
      <path id="Trazado_613960" data-name="Trazado 613960" d="M9.354,7.356V9.813H43.7c.088-.763.015-1.586.045-2.457Z" transform="translate(14.268 11.22)" fill="#ffca57"/>
      <path id="Trazado_613961" data-name="Trazado 613961" d="M13.676,15.452c-.3-.3-.525-.528-.763-.765H11.59a1.061,1.061,0,0,0-.475.982c.028,1.323.01,2.649.01,4.035H3.186c-.051.929-.02,1.816-.025,2.7-.005.9,0,1.8,0,2.742h8.5c.722-.77,1.722-1.432,1.76-2.722.447-.308.247-.773.253-1.169.018-1.917.008-3.831.008-5.8" transform="translate(4.814 22.403)" fill="#eec4a4"/>
      <path id="Trazado_613962" data-name="Trazado 613962" d="M27.546,19.844V15.129c-.654-.437-.654-.437-1.944-.457a1.12,1.12,0,0,1-.184.374,1.908,1.908,0,0,1-.412.328c0,1.737.058,3.338-.015,4.932a5.235,5.235,0,0,0,2.1,4.866h8.4V19.844Z" transform="translate(38.102 22.379)" fill="#eec4a4"/>
      <path id="Trazado_613963" data-name="Trazado 613963" d="M16.153,22.178a14.055,14.055,0,0,1-3.369-5.46H9.931c-.321,1.23.159,2.588-.366,3.9a9.06,9.06,0,0,1-2.23,3.2v6.621c3.086-2.682,5.5-5.945,8.818-8.258" transform="translate(11.188 25.5)" fill="#f7bb28"/>
      <path id="Trazado_613964" data-name="Trazado 613964" d="M30.315,30.549V23.862c-2.285-2.379-2.639-3.313-2.5-7.023-.429-.255-.909-.1-1.366-.126s-.934-.005-1.51-.005a14.434,14.434,0,0,1-3.482,5.571,11.941,11.941,0,0,1,2.3,1.682c2.134,2.179,4.3,4.326,6.558,6.589" transform="translate(32.735 25.458)" fill="#f7bb28"/>
      <path id="Trazado_613965" data-name="Trazado 613965" d="M17.868,12.157v-9.9c-1.8.682-3.634.982-5.361,1.765v8.137Z" transform="translate(19.077 3.44)" fill="#ffe393"/>
      <path id="Trazado_613966" data-name="Trazado 613966" d="M17.833,12.211h5.094a.661.661,0,0,0,.111-.111.251.251,0,0,0,.051-.136c0-2.652,0-5.3,0-7.927-1.71-.823-3.556-1.028-5.232-1.78a69.617,69.617,0,0,0-.025,9.955" transform="translate(26.948 3.441)" fill="#ffe393"/>
      <path id="Trazado_613967" data-name="Trazado 613967" d="M18.3,23.254a35.394,35.394,0,0,1,4.922,1.432c.285-.455.843-.624,1.263-.977a10.453,10.453,0,0,0,2.7-4.3,1.282,1.282,0,0,0,.033-.465c0-1.48,0-2.96,0-4.525a17.712,17.712,0,0,1-2.482.672,9.846,9.846,0,0,1-6.44,7.432Z" transform="translate(27.915 21.988)" fill="#a46434"/>
      <path id="Trazado_613968" data-name="Trazado 613968" d="M13.072,15.229l-2.477-.823a13.044,13.044,0,0,0-.071,2.343,8.44,8.44,0,0,0,.051,2.54,7.934,7.934,0,0,0,.861,2.038c.687,1.078,1.248,2.207,2.49,2.773.27.124.384.5.717.568.8-.3,1.619-.492,2.422-.727a13.9,13.9,0,0,1,2.331-.616V22.52a9.7,9.7,0,0,1-6.323-7.291" transform="translate(15.939 21.974)" fill="#a46434"/>
      <path id="Trazado_613969" data-name="Trazado 613969" d="M18.112,1.023H15.673V14.046c.747.119,1.568-.005,2.439.068Z" transform="translate(23.906 1.561)" fill="#ffcd58"/>
      <rect id="Rectángulo_324897" data-name="Rectángulo 324897" width="10.407" height="2.457" transform="translate(29.087 66.176)" fill="#e45441"/>
      <rect id="Rectángulo_324898" data-name="Rectángulo 324898" width="10.455" height="2.444" transform="translate(42.104 66.183)" fill="#e45441"/>
      <rect id="Rectángulo_324899" data-name="Rectángulo 324899" width="7.589" height="2.445" transform="translate(8.005 50.208)" fill="#e75542"/>
      <path id="Trazado_613970" data-name="Trazado 613970" d="M26.136,19.881v2.452H33.72c.083-.758.013-1.581.043-2.452Z" transform="translate(39.866 30.325)" fill="#e75542"/>
      <path id="Trazado_613971" data-name="Trazado 613971" d="M14.662,22.464a4.211,4.211,0,0,0-1.222-1.583h-.8L8.609,24.916l1.336,1.338H11.3c1.028-1.192,2.482-2.167,3.361-3.79" transform="translate(13.131 31.85)" fill="#ffcb57"/>
      <path id="Trazado_613972" data-name="Trazado 613972" d="M24.607,26.3h1.359c.45-.452.9-.9,1.265-1.27-1.321-1.321-2.641-2.647-4.139-4.149h-.611a3.485,3.485,0,0,0-1.159,1.609c.687,1.561,2.217,2.422,3.285,3.811" transform="translate(32.523 31.843)" fill="#ffcb57"/>
      <path id="Trazado_613973" data-name="Trazado 613973" d="M10.485,10.635h2.381a.806.806,0,0,0,.109-.1.236.236,0,0,0,.058-.134q0-3.5,0-7c-.578-.348-.962.2-1.215.384A3.3,3.3,0,0,0,10.5,6.39c-.045,1.374-.01,2.753-.01,4.245" transform="translate(15.973 5.013)" fill="#ffca57"/>
      <path id="Trazado_613974" data-name="Trazado 613974" d="M20.873,3.28c-.093,2.432-.015,4.849-.051,7.316H23.38a29.4,29.4,0,0,0-.061-4.667A2.926,2.926,0,0,0,20.873,3.28" transform="translate(31.76 5.003)" fill="#ffca57"/>
      <path id="Trazado_613975" data-name="Trazado 613975" d="M16.628,18.828c-1.157.548-2.328.434-3.338,1.316-.3.768.487,1.606.333,2.657a11.154,11.154,0,0,1,5.864-1.326c-.586-1.53-2.144-1.6-2.859-2.647" transform="translate(20.168 28.719)" fill="#e55441"/>
      <path id="Trazado_613976" data-name="Trazado 613976" d="M22.58,22.883c-.1-1.1.609-1.942.245-3.086l-3.195-.975c-.73,1.051-2.076,1.359-3.114,2.563a11.911,11.911,0,0,1,6.063,1.5" transform="translate(25.194 28.71)" fill="#e55441"/>
      <path id="Trazado_613977" data-name="Trazado 613977" d="M12.947,11.506c-1.141.174-1.3.27-2.47,1.467v2.162l1.427,1.49h1.043Z" transform="translate(15.981 17.55)" fill="#e9c0a1"/>
      <path id="Trazado_613978" data-name="Trazado 613978" d="M21.861,16.619l1.47-1.482V12.942c-.694-.652-1.27-1.51-2.477-1.427v5.02c.316.189.689.043,1.008.083" transform="translate(31.807 17.556)" fill="#e9c0a1"/>
      <path id="Trazado_613979" data-name="Trazado 613979" d="M12.947,9.774l-.4-.4H10.5v3.27a3.129,3.129,0,0,1,2.015-.419c.164-.164.275-.275.434-.437Z" transform="translate(16.011 14.295)" fill="#9e6032"/>
      <path id="Trazado_613980" data-name="Trazado 613980" d="M20.835,9.784v2c.611.932,1.75.033,2.455,1.1V9.363c-.813.139-1.7-.313-2.455.422" transform="translate(31.78 14.262)" fill="#9e6032"/>
      <path id="Trazado_613981" data-name="Trazado 613981" d="M14.11,15.133a5.8,5.8,0,0,0,5.124,3.275c2.338.045,3.957-1.2,5.2-3.2a4.014,4.014,0,0,0-2.417-1.313c-.735,1.912-2.336,1.7-3.7,1.636a2.532,2.532,0,0,1-1.735-1.619,4.872,4.872,0,0,0-2.465,1.222" transform="translate(21.522 21.191)" fill="#090808"/>
      <path id="Trazado_613982" data-name="Trazado 613982" d="M18.112,11.522H15.673V16.55c.747.144,1.571-.008,2.439.083Z" transform="translate(23.906 17.575)" fill="#040506"/>
      <path id="Trazado_613983" data-name="Trazado 613983" d="M14.314,14.006H15.63c.495-.28.374-.891.843-1.093-.273-.495-.3-1.038-.889-1.384H14.277c-.46.222-.328.886-.8,1.124.341.505.417,1.035.838,1.354" transform="translate(20.555 17.586)" fill="#181512"/>
      <path id="Trazado_613984" data-name="Trazado 613984" d="M18.452,14.009h1.3c.455-.285.434-.836.8-1.144a2.838,2.838,0,0,0-.765-1.333H18.4c-.376.24-.47.765-.73,1.2.278.4.328.937.785,1.275" transform="translate(26.948 17.59)" fill="#181512"/>
      <path id="Trazado_613985" data-name="Trazado 613985" d="M9.453,10.5H7.789c-.152.154-.3.3-.462.465v1.321l.864.745h.924c.167-.212.391-.5.619-.79.359-.573-.071-1.088-.28-1.74" transform="translate(11.176 16.016)" fill="#0d0e0f"/>
      <path id="Trazado_613986" data-name="Trazado 613986" d="M24.047,12.293l.735.732h.982c.22-.242.465-.515.76-.841-.045-.513.263-1.182-.444-1.672H24.433a2.306,2.306,0,0,0-.386,1.78" transform="translate(36.568 16.036)" fill="#0d0e0f"/>
    </g>
  </g>
</svg>
