<svg xmlns="http://www.w3.org/2000/svg" xmlns:xlink="http://www.w3.org/1999/xlink" width="169" height="169" viewBox="0 0 169 169">
  <defs>
    <filter id="Elipse_5167" x="0" y="0" width="169" height="169" filterUnits="userSpaceOnUse">
      <feOffset dy="6" input="SourceAlpha"/>
      <feGaussianBlur stdDeviation="5" result="blur"/>
      <feFlood flood-opacity="0.329"/>
      <feComposite operator="in" in2="blur"/>
      <feComposite in="SourceGraphic"/>
    </filter>
    <clipPath id="clip-path">
      <rect id="Rectángulo_325264" data-name="Rectángulo 325264" width="84.23" height="84.224" fill="none"/>
    </clipPath>
  </defs>
  <g id="Grupo_877363" data-name="Grupo 877363" transform="translate(-662.615 -1085.631)">
    <g transform="matrix(1, 0, 0, 1, 662.62, 1085.63)" filter="url(#Elipse_5167)">
      <circle id="Elipse_5167-2" data-name="Elipse 5167" cx="69.5" cy="69.5" r="69.5" transform="translate(15 9)" fill="#ffb500"/>
    </g>
    <g id="Grupo_876314" data-name="Grupo 876314" transform="translate(704.615 1121.631)">
      <g id="Grupo_876313" data-name="Grupo 876313" transform="translate(0 0)" clip-path="url(#clip-path)">
        <path id="Trazado_614586" data-name="Trazado 614586" d="M32.233,17.461c-.2-.5-.729-.456-1.185-.749Q27.122,18.84,23.138,21c-1.223-.81-2.687-.528-4.122-.587-.563.321-1.122.683-1.718.967a4.661,4.661,0,0,0-2.493,3.384c-.568,2.275-.009,2.655.633,4.4a2.718,2.718,0,0,0,.753,1c1.919,1.952,3.864,3.882,5.855,5.873,0,1.91-.02,3.875.007,5.84.017,1.218-.251,2.469.413,3.633a7.674,7.674,0,0,0,3.172,2.369c4.687,2.425,9.365,4.873,14.1,7.213.6.295,1.231.469,1.829.753.764.362,1.522-.142,2.2-.465q3.916-1.86,7.781-3.827c2.8-1.434,5.554-2.98,8.374-4.377.775-.384,1.159-1.1,1.69-1.4a9.007,9.007,0,0,0,.526-4.253c.013-1.808,0-3.615,0-5.047L74.507,24.1a20.392,20.392,0,0,1,.747,2.775,9.464,9.464,0,0,1,.358,3.148c.611,1.731.168,3.528.349,5.283.076.734-.327,1.314-.369,2-.041.67.345,1.423-.3,2,.085,1.175-.487,2.225-.642,3.345a11.178,11.178,0,0,1-.795,2.635,38.467,38.467,0,0,1-3.8,7.309c-.375.557-1.092.884-1.155,1.648-.882.648-1.281,1.705-2.083,2.43-.773.7-1.426,1.528-2.225,2.187a37.167,37.167,0,0,1-8.687,5.591,30.671,30.671,0,0,1-6.073,2.008c-1.439.295-2.893.452-4.32.71a29.561,29.561,0,0,1-4.148.24,6.78,6.78,0,0,1-2.67-.279c-.766-.277-1.709.212-2.478-.367a19.511,19.511,0,0,1-5.368-1.319A33.379,33.379,0,0,1,23.6,61.924a33.026,33.026,0,0,1-7-6.062,31.239,31.239,0,0,1-5.058-7.754A25.258,25.258,0,0,1,9.23,41.176c-.668-.563-.111-1.419-.522-2.089-.375-.611.072-1.43-.164-2.065C8.016,35.6,8.4,34.14,8.232,32.712a19.688,19.688,0,0,1,.417-4.13,21.188,21.188,0,0,1,.845-3.727,36.1,36.1,0,0,1,3.318-8.331c.192-.4.515-.635.718-1.011.631-1.164,1.585-2.148,1.849-3.5a3.272,3.272,0,0,0-1.716-2.179,8.873,8.873,0,0,1-2.109-1.7c-.524-.648-1.321-.568-2.087-.535-1.458.572-2.05,2.015-2.818,3.181a52.645,52.645,0,0,0-3,5.65,30.64,30.64,0,0,0-1.967,5.427A31.716,31.716,0,0,0,.633,26.538c-.2,1.609-.517,3.209-.587,4.831-.074,1.694.039,3.4-.044,5.091-.035.725.426,1.284.389,2a3.073,3.073,0,0,0,.231,1.869A8.431,8.431,0,0,1,.96,42.475a40,40,0,0,0,1.832,6.154,45.415,45.415,0,0,0,3.419,6.807,33.554,33.554,0,0,0,4.681,6.274c.476.487.792,1.142,1.3,1.585a50.8,50.8,0,0,0,6.9,5.563,46.968,46.968,0,0,0,8.444,4.2c1.583.568,3.2.987,4.8,1.5a16.189,16.189,0,0,0,2.126.408c1.035.181,2.126.223,3.133.419,2.539.5,5.071.087,7.595.282.666.05,1.166-.417,1.838-.375.6.037,1.312.321,1.834-.3a12.869,12.869,0,0,0,3.51-.627,29.528,29.528,0,0,0,6.916-2.356A31.686,31.686,0,0,0,62.7,70.342a44.392,44.392,0,0,0,6.988-4.977,37.321,37.321,0,0,0,2.842-2.6,44.464,44.464,0,0,0,5.822-7.772,9.837,9.837,0,0,1,1.2-1.971c.155-.168,2.952-6.938,2.958-7.15.055-1.834,1.116-3.48.991-5.344.777-.943-.157-2.242.659-3.179V33.734a16.282,16.282,0,0,0-.046-3.441c-.382-1.722-.131-3.554-.941-5.189.251-.878-.474-1.629-.33-2.493-.146-.345-.6-.461-.657-.875a2.6,2.6,0,0,0-1.581-.114c-.934.723-.694,1.648-.5,2.567a40.9,40.9,0,0,1-.666,21.1A38.422,38.422,0,0,1,63.39,66.439a39.569,39.569,0,0,1-16.838,6.076,13.381,13.381,0,0,1-2.133.037,37.763,37.763,0,0,1-21.03-4.626A38.267,38.267,0,0,1,4.955,45.752a38.467,38.467,0,0,1,.688-26.381,30.579,30.579,0,0,1,4.4-8.117,1.726,1.726,0,0,1,1.609,1.065,2.05,2.05,0,0,1-.563,1.528,36.871,36.871,0,0,0,3.061,43.577c6.259,7.143,14.018,11.56,23.429,12.612,8.058.9,15.838-.321,22.892-4.694a10.432,10.432,0,0,1,1.777-.845C71.271,57.9,77.229,49.343,78.541,38.071a34.456,34.456,0,0,0-1.059-14.48,2.56,2.56,0,0,1,.782-3.069,7.139,7.139,0,0,0,1.947-2.4c.148-.5.589-.764.939-1.085a5.379,5.379,0,0,0,1.631-3.906,5.7,5.7,0,0,0-2.432-4.862A6.6,6.6,0,0,0,74.371,7.7a4.6,4.6,0,0,0-1.384,1.03q-5.442,5.478-10.911,10.929l-1.089,1.089c-.266,0-.493.07-.585-.011-1.1-.978-2.528-1.325-3.755-2.046-2.943-1.725-5.984-3.259-8.983-4.877-1.253-.677-2.478-1.4-3.785-1.976-1.792-.792-1.753-.744-3.589,0-1.613.653-3.035,1.644-4.606,2.362-.325.151-.55.524-.821.8v1.15c.472,1.2,1.349,1.072,2.244.627,1.249-.624,2.417-1.4,3.7-1.96a2.9,2.9,0,0,1,1.692-.437c4.781,2.329,9.632,5.15,14.555,7.737.05.465-.277.522-.5.633-4.333,2.187-8.7,4.307-12.957,6.641-.764.419-1.55.878-2.439.275-4.622-2.561-9.422-4.779-14.282-7.326,1.543-.921,2.925-1.657,4.283-2.439.906-.52,1.84-1.133,1.068-2.436" transform="translate(0 8.56)" fill="#040506"/>
        <path id="Trazado_614587" data-name="Trazado 614587" d="M26.673,10.676a7.959,7.959,0,0,0-2.718,1.264,8.486,8.486,0,0,1-1.989,1.033c-.675.02-.736-.637-1.209-.653q-1.313.658-2.628,1.314V14.9a65.182,65.182,0,0,1-6.207,3.482c.175.5.71.585,1.085.775,3.39,1.7,6.837,3.29,10.206,5.03,1.076.557,2.1,1.244,3.172,1.836.223.124.415.057.618.1a2.68,2.68,0,0,0,1.856-.448c3.681-1.777,7.22-3.836,10.891-5.635,1.843-.9,1.867-2.05.122-3.063-3.674-2.137-7.49-4.019-11.2-6.1a1.9,1.9,0,0,0-2-.207" transform="translate(14.105 12.384)" fill="#4d69af"/>
        <path id="Trazado_614588" data-name="Trazado 614588" d="M56.154,12.22c-1.367,1-2.382,2.358-3.454,3.279-.441.893.041,1.458.205,2.035.426,1.491.683,3,.989,4.517.509,2.53.1,5.063.3,7.58a20.821,20.821,0,0,1-.747,6.274,26.042,26.042,0,0,1-1.55,4.923,42.183,42.183,0,0,1-1.974,4.106c-.941,1.594-1.908,3.161-2.982,4.681-.9,1.266-2.2,2.144-2.96,3.515-.445.8-1.439,1.057-2.07,1.729a7.293,7.293,0,0,1-2.028,1.8c-.7.343-1.072,1.2-1.805,1.585-5,3.641-10.319,6.6-16.426,7.96-.511.114-1.275.052-1.321.917,1.565.236,3.078-.269,4.615-.393a11.862,11.862,0,0,0,3.141-.683c1.011-.382,2.054-.581,3.074-.889a17.281,17.281,0,0,0,1.674-.712,35.845,35.845,0,0,0,5.58-2.764,33.7,33.7,0,0,0,3.954-2.694c1.336-1.161,2.738-2.253,3.969-3.548a42.568,42.568,0,0,0,5.394-6.8,43.5,43.5,0,0,0,3.144-6.4,51.263,51.263,0,0,0,1.812-5.8c.273-.969.327-2.076.5-3.093.53-3.078.081-6.156.295-9.224a8.344,8.344,0,0,0-.358-2c-.1-.611.31-1.314-.317-1.834a8.252,8.252,0,0,0-.659-3.172c-.168-.478.419-.714.365-1.271h1.6c-.218-.7-.843-.118-1.284-.452.275-1.113-1.006-1.947-.688-3.163" transform="translate(24.057 14.458)" fill="#dbd6db"/>
        <path id="Trazado_614589" data-name="Trazado 614589" d="M23.4,8.132C23.7,6.7,22.938,5.6,22.674,4.4c-.107-.485-.452-.875-.574-1.406A1.964,1.964,0,0,0,19.956,1.38c-.273-.009-.546,0-.7,0C14.334,3.633,9.7,6.128,6.034,10.108v1.613a26.767,26.767,0,0,1,2.233,2.524A3.122,3.122,0,0,0,11.8,15.784a35.826,35.826,0,0,1,9.409-6.209A4.507,4.507,0,0,0,23.4,8.132" transform="translate(7.139 1.628)" fill="#050606"/>
        <path id="Trazado_614590" data-name="Trazado 614590" d="M15.623,7.147c.4.168.269.646.563.923a2.28,2.28,0,0,0,2.69.67,1.61,1.61,0,0,1,.6-.144,33.926,33.926,0,0,1,6.737-.258l1.14-1.327a18.061,18.061,0,0,0,.426-4.3c-.007-1.2-.194-2.2-1.823-2.666a41.2,41.2,0,0,0-4.556.037c-1.6.17-3.218.341-4.8.64A2.193,2.193,0,0,0,14.918,2.5c-.162,1.4.736,2.96.705,4.65" transform="translate(17.626 0.001)" fill="#060607"/>
        <path id="Trazado_614591" data-name="Trazado 614591" d="M29.258,9.662a3.818,3.818,0,0,0,1.349-1.655c.216-.681.517-1.319.782-1.976s.434-1.351.661-2.083c-.216-1.67-1.661-2-2.952-2.46A25.961,25.961,0,0,0,26.036.574,11.938,11.938,0,0,0,24.042.46c-.325.41-.661.834-1,1.26-.694,1.26-.583,2.8-1.144,4.207-.413,1.03.72,2.545,1.982,2.768a20.148,20.148,0,0,1,3.39.93,6.227,6.227,0,0,0,1.984.037" transform="translate(25.809 0.544)" fill="#060607"/>
        <path id="Trazado_614592" data-name="Trazado 614592" d="M26.657,7.3V9.175c1.037,1.094,2.524,1.692,3.849,2.788.668-.072,1.528.266,2.384-.681.188-.55.985-1.057,1.41-1.838a14.469,14.469,0,0,1,1.137-1.5,2.658,2.658,0,0,0,.382-2.087,14.674,14.674,0,0,0-5.1-3.408c-.362-.114-.448.3-.716.31-.21.011-.417,0-.563,0C28.24,4.114,27.8,5.824,26.657,7.3" transform="translate(31.538 2.876)" fill="#060607"/>
        <path id="Trazado_614593" data-name="Trazado 614593" d="M36.627,6.417c.031-.135-.454-.456-.506-.956H34.693q-2.354,2.354-4.724,4.724v.978c.3.476.838.576,1.155.76,1.773-1.773,3.521-3.521,5.5-5.506" transform="translate(35.456 6.461)" fill="#070708"/>
        <path id="Trazado_614594" data-name="Trazado 614594" d="M66.044,8.611c-.2.044-.424-.092-.611.111-.3.323-.616.622-.926.932Q49.952,24.217,35.4,38.782a5.206,5.206,0,0,1-1.891,1.388h-1.19A9.193,9.193,0,0,1,29.239,38.2c-1.375.461-2.356-.085-3.329-1.074q-7.132-7.24-14.36-14.382c-.544-.539-1.013-1.362-2.028-.98A3.124,3.124,0,0,0,7.86,25.174a7.931,7.931,0,0,0,2.567,3.569q4.958,4.974,9.913,9.922c.192.476-.155.8-.3,1.175a2.511,2.511,0,0,0,2.3,2.3c.417.148.642-.29,1.133-.345,1.727,1.729,3.515,3.515,5.3,5.3.574.574,1.164,1.133,1.712,1.729a.832.832,0,0,0,.727.218c1.113.443,1.565-.52,2.133-1.083q9.356-9.3,18.67-18.652,6.834-6.841,13.668-13.686c1.541-1.55,2.537-3.316,1.838-5.6-.216-.7-.43-1.526-1.476-1.417" transform="translate(9.238 10.177)" fill="#44ac97"/>
        <path id="Trazado_614595" data-name="Trazado 614595" d="M42.961,71.335c.343-.681,1.22-.061,1.6-.657a11.867,11.867,0,0,0,3.685-.987A32.926,32.926,0,0,0,54.6,66.833c1.083-.734,2.327-1.255,3.39-2.067.945-.723,2.08-1.216,2.714-2.308a3.453,3.453,0,0,0-1.945.84,36.907,36.907,0,0,1-8.252,3.5c-1.729.544-3.539.609-5.222,1.249a.512.512,0,0,1-.164,0H36.259c-1.517-.528-3.148-.485-4.687-.963-1.5-.469-2.978-1-4.458-1.526a34.823,34.823,0,0,1-7.632-4.146,10.677,10.677,0,0,1-2.345-1.921c-.613-.736-1.53-1.129-2.185-1.856A41.2,41.2,0,0,1,7.4,46.469c-.891-2.054-1.511-4.194-2.233-6.3.172-.974-.548-1.843-.327-2.821-.616-1.563-.26-3.194-.317-4.792a26.829,26.829,0,0,1,.033-4.921,35.691,35.691,0,0,1,1.773-7.628A46.393,46.393,0,0,1,9.1,13.928a22.694,22.694,0,0,1,1.79-2.7,1.252,1.252,0,0,0,.186-.873c-1.006-.245-1.343-1.48-2.471-1.7-.424.816-1.061,1.6-1.6,2.445a44.757,44.757,0,0,0-3.423,6.8,29.714,29.714,0,0,0-1.6,5.237c-.214,1.006-.308,2.094-.489,3.109-.5,2.81-.159,5.613-.245,8.414A4.468,4.468,0,0,0,1.5,37.019c.347.692.109,1.626.312,2.48.172.731.334,1.535.467,2.3.127.712.472,1.434.675,2.168a37.427,37.427,0,0,0,3.39,7.626A26.276,26.276,0,0,0,9.09,55.715a47.494,47.494,0,0,0,3.257,3.9,42.274,42.274,0,0,0,11.426,8.1,16.938,16.938,0,0,0,3.478,1.5c1.895.434,3.665,1.292,5.632,1.511a13.292,13.292,0,0,1,2.476.349,9.025,9.025,0,0,0,2.511.26c.821.033,1.642.007,2.463.007Z" transform="translate(1.43 10.241)" fill="#f0ecf0"/>
        <path id="Trazado_614596" data-name="Trazado 614596" d="M53.362,8.907c.862.242.963,1.048,1.192,1.709a3.545,3.545,0,0,1,0,2.2,5.852,5.852,0,0,1-1.506,2.5Q36.319,32.034,19.6,48.76c-.3.3-.533.725-1.072.583a1.791,1.791,0,0,0,2.327.441c.275-.153.522-.052.816-.131Q39.414,31.9,57.223,14.092a3.678,3.678,0,0,0,.991-1.393c.426-1.788-.338-3.1-1.891-4.146-1.836-.312-1.836-.312-2.962.354" transform="translate(21.92 9.881)" fill="#2ba48b"/>
        <path id="Trazado_614597" data-name="Trazado 614597" d="M8.594,15a.839.839,0,0,1,.731.223c.71.753,1.458,1.474,2.19,2.207q7.289,7.293,14.62,14.625h1.729c.116-.216.463-.284.448-.618a3.669,3.669,0,0,0-1.05-1.205c-5.141-5.156-10.291-10.3-15.493-15.507-.393-.227-1.054.212-1.4-.406-.467.094-.832.5-1.356.362-.207-.057-.448-.007-.421.319" transform="translate(10.165 16.939)" fill="#2ba48b"/>
        <path id="Trazado_614598" data-name="Trazado 614598" d="M18.385,26.744a9.255,9.255,0,0,1-2.3-2.3,1.882,1.882,0,0,1-1.471.314,45.575,45.575,0,0,0-3.338-3.141,44.176,44.176,0,0,0-.114,4.731A3.551,3.551,0,0,0,13.2,28.419c2.873,1.524,5.724,3.089,8.711,4.517.079-.1.214-.262.31-.378-1.391-1.393-2.81-2.812-4.12-4.122a2.113,2.113,0,0,1,.288-1.692" transform="translate(13.191 25.574)" fill="#acb8df"/>
        <path id="Trazado_614599" data-name="Trazado 614599" d="M18.679,10.919c1.175-.092,2.006.723,2.943,1.2.53.269,1.059.6,1.6.886,2.2,1.161,4.392,2.325,6.578,3.508.985.533,1.947,1.109,2.88,1.644a2.315,2.315,0,0,1,.12,1.15c-.1.159-.3.1-.424.168-1.98,1.015-4.045,1.9-5.955,3.01-2.421,1.408-4.958,2.563-7.414,3.884.035.62.882.076.806.819,5.471-2.993,10.872-5.694,16.417-8.455-2.332-1.238-4.5-2.38-6.665-3.541q-4.165-2.237-8.315-4.5c-.923-.506-1.79-.714-2.572.227" transform="translate(22.099 12.142)" fill="#2e509c"/>
        <path id="Trazado_614600" data-name="Trazado 614600" d="M19.907,21.649v5.412c3.4-3.358,6.768-6.685,10.127-10.02.048-.048-.009-.205-.026-.456a17.32,17.32,0,0,0-3.377,1.6c-1.129.581-2.253,1.17-3.412,1.679a32.7,32.7,0,0,0-3.312,1.784" transform="translate(23.552 19.621)" fill="#c7cfea"/>
        <path id="Trazado_614601" data-name="Trazado 614601" d="M24.614,30.592A4.479,4.479,0,0,0,22.272,32.7c.349.312.515.111.764-.017,1.79-.939,3.6-1.832,5.4-2.753,1.26-.646,2.521-1.292,3.759-1.978a2.309,2.309,0,0,0,1.292-2.163c-.015-1.347,0-2.7,0-4.093a14.917,14.917,0,0,0-4.272,3.962,3.49,3.49,0,0,1-2.576,3.646,4.822,4.822,0,0,0-2.024,1.286" transform="translate(26.35 25.671)" fill="#abb7dd"/>
        <path id="Trazado_614602" data-name="Trazado 614602" d="M16.969,21.38c1.1,1.471,2.548,2.6,3.877,4.061v-5.7A17.986,17.986,0,0,0,17.3,18.092c-.777,1.03-.469,2.168-.33,3.288" transform="translate(19.864 21.405)" fill="#8a9ccf"/>
        <path id="Trazado_614603" data-name="Trazado 614603" d="M20.267,23.19c.308.024.327-.183.327-.408q0-1.438,0-2.88a9.993,9.993,0,0,0-2.587-1.43c-1.253-.655-2.519-1.286-3.746-1.91-.266.205-.338.441-.172.6,2.072,2,3.96,4.178,6.176,6.028" transform="translate(16.566 19.595)" fill="#aab6dd"/>
        <path id="Trazado_614604" data-name="Trazado 614604" d="M23.348,28.448A11.187,11.187,0,0,0,26.083,27.2c1.506-.788,1.515-.773,2.194-1.91,0-.445.011-.982-.007-1.517a.253.253,0,0,0-.323-.255c-1.657,1.277-2.969,2.914-4.495,4.329-.194.181-.063.4-.1.6" transform="translate(27.617 27.815)" fill="#c6cee9"/>
        <path id="Trazado_614605" data-name="Trazado 614605" d="M16.444,3.034a11.5,11.5,0,0,0-3.393,1.613c-1.395.845-2.746,1.775-4.058,2.746a17.047,17.047,0,0,0-1.76,1.731c.574.465.967,1.126,1.653,1.469.53.4.88.024,1.26-.279a38.663,38.663,0,0,1,4-2.679c.159,0,.391.07.465-.011a11.572,11.572,0,0,1,2.823-1.633c.76-1.506.465-2.393-.987-2.958" transform="translate(8.559 3.59)" fill="#eeebef"/>
        <path id="Trazado_614606" data-name="Trazado 614606" d="M11.453,3.6c.574.094.565.677.858,1.006s-.118.917.454,1.113a.837.837,0,0,0-.325.838c.637-.419,1.463-.52,1.987-1.181a13.547,13.547,0,0,0-1.22-2.825A6.033,6.033,0,0,0,11.453,3.6" transform="translate(13.55 3.022)" fill="#d7d2d7"/>
        <path id="Trazado_614607" data-name="Trazado 614607" d="M13.249,5.155a1.539,1.539,0,0,0-1.255.474C10.854,6.5,9.415,6.954,8.466,8.1c-.068.081-.312.011-.474.011.072.345.317.526.731.718a26.711,26.711,0,0,1,3.5-2.816c.354-.273.937-.271,1.024-.86" transform="translate(9.455 6.071)" fill="#cec9ce"/>
        <path id="Trazado_614608" data-name="Trazado 614608" d="M21.736,1.246a25.318,25.318,0,0,0-5.587.43c0,.358-.14.819.028,1.078.369.561.155,1.225.458,1.766a2.3,2.3,0,0,0,.334.341c.989.122,2.022-.6,3.122-.327.487-.327,1.081-.046,1.688-.312a2.527,2.527,0,0,0-.044-2.976" transform="translate(19.042 1.433)" fill="#ede9ed"/>
        <path id="Trazado_614609" data-name="Trazado 614609" d="M19.573,1.227V4.048c-.428.271-.923.074-1.384.142-.172.024-.3.118-.26.325,1.19-.159,2.463.354,3.587-.351V1.227Z" transform="translate(21.205 1.452)" fill="#d6d2d6"/>
        <path id="Trazado_614610" data-name="Trazado 614610" d="M26.045,2.338a2.635,2.635,0,0,0-2.072-.657c-.939.683-.2,1.921-.965,2.668.181.205.319.36.439.5.314.218.644.081.954.122,1.515.076,2.094-.849,1.644-2.631" transform="translate(27.221 1.985)" fill="#ebe7eb"/>
        <path id="Trazado_614611" data-name="Trazado 614611" d="M25.294,1.992a1.814,1.814,0,0,1-.319,1.292,2.149,2.149,0,0,0-.393,1.338h-.932c0,.052-.022.131,0,.157.072.07.179.177.249.162.795-.179,1.465.631,2.229.295.362-.956.712-1.882,1.063-2.816-.633-.068-1.2-.557-1.9-.428" transform="translate(27.971 2.331)" fill="#d5d1d5"/>
        <path id="Trazado_614612" data-name="Trazado 614612" d="M28.162,6.762a.712.712,0,0,0,.616.633c.312.022.382.389.786.343.589-.788,1.223-1.637,1.891-2.53-.777-.493-1.554-.987-2.262-1.434-.284.074-.41.153-.373.358.509,1.059-.055,1.849-.657,2.631" transform="translate(33.318 4.464)" fill="#d3cfd3"/>
        <path id="Trazado_614613" data-name="Trazado 614613" d="M28.537,6.568a.874.874,0,0,0,.989-.616c.188-.413.4-.819.6-1.236-.31-.2-.456-.688-.932-.779-.734.635-.8,1.637-1.349,2.281.146.487.458.308.692.349" transform="translate(32.943 4.658)" fill="#e8e5e9"/>
      </g>
    </g>
  </g>
</svg>
