<svg id="Grupo_876370" data-name="Grupo 876370" xmlns="http://www.w3.org/2000/svg" xmlns:xlink="http://www.w3.org/1999/xlink" width="181.364" height="202" viewBox="0 0 181.364 202">
  <defs>
    <clipPath id="clip-path">
      <rect id="Rectángulo_325359" data-name="Rectángulo 325359" width="181.364" height="202" fill="none"/>
    </clipPath>
  </defs>
  <g id="Grupo_876369" data-name="Grupo 876369" transform="translate(0 0)" clip-path="url(#clip-path)">
    <path id="Trazado_615017" data-name="Trazado 615017" d="M69.873,110.108c-4.015-4.284-6.393-9.044-6.339-14.934.013-1.261,1.014-2.1.83-3.221a3.968,3.968,0,0,1,.843-2.822,3.727,3.727,0,0,0,.013-4.509c-3.1-4.657-2.553-10-2.3-15.163.1-1.978,1.3-3.9,2.037-5.962-.386-.65-.493-1.664-1.346-2.342,0-1.785.022-3.62,0-5.451a7.121,7.121,0,0,1,1.66-4.823,6.647,6.647,0,0,0,1.512-4.917c-.063-1.709.063-3.423-.031-5.128-.126-2.283,1.561-9.017,2.871-12.624a41.51,41.51,0,0,1,6.662-11.471C80.491,11.337,86,7.973,91.985,5.182A20.034,20.034,0,0,1,98.243,3.24c2.911-.287,5.738-1.014,8.734-.973a46.16,46.16,0,0,1,14.216,2.867,32.692,32.692,0,0,1,12.8,8.115c2.705,2.705,5.621,5.226,7.263,8.82,1.31,2.876,3.118,5.54,3.867,8.649.493,2.046,1.5,4,1.252,6.186-.242,2.073,1.153,3.854.857,5.993a46.126,46.126,0,0,0-.063,6.3c3.266,3.925,4.509,8.815,1.579,14.607,3.261,7.8,3.62,15.4-1.368,22.691.79,1.355.763,3.261,2.055,4.562.92,12.543-.516,12.857-6.222,19.227,5.051,1.911,9.982,4.015,15.064,5.626,4.221,1.341,7.258,3.652,8.9,7.8.179.453.538.812.5,1.373-.305,4.657,1.409,9.21.758,13.871-.363,2.615,1.108,4.953.861,7.568-.238,2.476-.534,5.119.058,7.465.947,3.732.108,7.5.772,11.121.776,4.248.1,8.564.857,12.682.615,3.36.359,6.648.637,9.955.251,2.956-.677,5.186-4.033,6.343-40.783,0-82.033-.009-123.282.009a41.248,41.248,0,0,1-33.045-16.338c-3.522-4.477-5.572-9.551-7.281-14.755a18.269,18.269,0,0,1-1.09-6.675,32.485,32.485,0,0,0-.013-5.908c-.449-3.656.911-7.052,1.835-10.336a29.651,29.651,0,0,1,4.809-9.811,50.94,50.94,0,0,1,11.96-11.915,43.138,43.138,0,0,1,13.055-5.585c5.267-1.4,10.569-.565,15.849-.633a13.415,13.415,0,0,1,4.917,1.337c3.221,1.341,3.728,1.368,6.752.072a46.4,46.4,0,0,1,6.85-2.508c.332-.081.565-.529.973-.938" transform="translate(-2.783 7.896)" fill="#040506"/>
    <path id="Trazado_615018" data-name="Trazado 615018" d="M10.3,34.8c-.363.354-.731.722-1.153,1.135h-3.1c-.565-1.113-1.516-2.14-1.323-3.71-1.18-.583-2.992.507-3.818-1.718V28.569c.821-1.2,1.79-2.355,3.571-2.1.7-.816-.206-2.162,1.1-2.763.758-.354,1.077-1.6,2.346-1.077,1.512.673,2.669,1.709,2.409,3.679,1.328.22,2.562.323,3.755,1.79v2.938a5.315,5.315,0,0,1-3.54,1.13c-.5.83-.135,1.754-.247,2.642" transform="translate(163.253 78.43)" fill="#65c4ed"/>
    <path id="Trazado_615019" data-name="Trazado 615019" d="M41.172,10.9c-3.324.538-4.872,2.835-6.761,4.589-.153.673.265,1.373-.686,2.261a5.817,5.817,0,0,1-.718-1.279c-.915-3.32-3.127-5.146-6.595-5.733,3.723-.92,6.146-3.136,7.447-7.38A10.573,10.573,0,0,0,41.172,10.9" transform="translate(21.7 11.704)" fill="#fabc39"/>
    <path id="Trazado_615020" data-name="Trazado 615020" d="M35.124,19.177c.314,1.364,1.6,1.969,1.418,2.9,1.175,1.319,2.692,1.355,3.755,2.2-.48.673-1.193.292-2.023.44-.942,1.22-2.669,1.983-2.979,4.23-1.2-2.526-2.472-4.338-5.262-4.612,2.548-.938,4.6-2.283,5.092-5.159" transform="translate(6.341 66.854)" fill="#e45472"/>
    <path id="Trazado_615021" data-name="Trazado 615021" d="M2.057,29.368c1.436.09,2.741-.395,3.463,1.619v2.126c-.57.372-1.431.933-2.292,1.494-1.507.767-2.122-.821-3.145-1.678-.449-1.772,1.018-2.476,1.974-3.562" transform="translate(175.843 102.381)" fill="#fabf41"/>
    <path id="Trazado_615022" data-name="Trazado 615022" d="M28.159,0c.336.359.7.731,1.117,1.18V3.486c-.87.9-1.53,2.3-3.661,1.974-.381-.574-.951-1.431-1.516-2.288-.79-1.525.875-2.1,1.628-3.172Z" transform="translate(44.906 0.001)" fill="#8eb742"/>
    <path id="Trazado_615023" data-name="Trazado 615023" d="M60.571,27.826a30.259,30.259,0,0,1,16.85,3.925A41.079,41.079,0,0,1,91.794,45.012c2.122,3.073,2.938,6.68,4.621,9.914-.381,2.328,1.148,4.392.9,6.738a34.189,34.189,0,0,0-.027,5.119c.2,4.858-1.552,9.268-3.365,13.579a31.178,31.178,0,0,1-9.448,12.584c-4.334,3.4-8.927,6.366-14.593,7.537-3.988.825-7.922,1.893-11.96,1.409-7.281-.875-14.288-2.647-20.044-7.671-1.328-1.157-2.853-2.073-4.123-3.351C29.016,86.1,26.234,80.215,24.068,74c-.807-2.31-1.445-11.556-.839-13.8.861-3.181,1.256-6.514,2.705-9.506,1.382-2.849,2.539-5.949,4.526-8.326a47.354,47.354,0,0,1,9.923-9.12A37.214,37.214,0,0,1,50.706,28.71a21.408,21.408,0,0,1,9.865-.884" transform="translate(-19.106 96.099)" fill="#fabb34"/>
    <path id="Trazado_615024" data-name="Trazado 615024" d="M80.958,42.064a38.38,38.38,0,0,1-12.426,4.091c-6.258.785-12.664.489-18.671-2.207a45.807,45.807,0,0,1-11.238-7.169C37.093,35.46,35.5,34.191,34,32.809c-.372-.341-.215-.713-.274-1.086-1.337-.628-2.575-1.655-4.549-.929-1.507,2.117-4.549,2.867-6.577,4.971-.722.749-2.189-.247-2.692,1.095-2.925.991-3.226,1.243-4.639,3.894-1.839.251-3.84-.458-5.729,1.292-.825-5.778.471-10.933,2.243-15.76A34.906,34.906,0,0,1,23.671,10.4,29.706,29.706,0,0,1,36.142,4.425c8.452-1.552,8.371-1.3,14-.848,4.876.395,9.1,2.162,13.229,4.28A30.17,30.17,0,0,1,73,15.9a33.048,33.048,0,0,1,5.621,9.075c2.656,7.3,2.571,7.411,2.333,17.092" transform="translate(58.622 11.268)" fill="#494c4f"/>
    <path id="Trazado_615025" data-name="Trazado 615025" d="M42.315,102.549c-.363.363-.642.642-1.05,1.054h-16.1V53.673c-.538-.408-1.041-.794-1.66-1.265-1.144.179-1.646,1.35-2.5,2.091v49.06H3.658c2.36-8.044,4-16.177,6.245-24.176,1.462-5.186,2.4-10.524,3.961-15.71.471-1.566.072-3.4.072-5.235-1.252-1.566-3.19-2.741-3.782-4.679,2.454-2.3,6.1-3.221,7.007-7.3-1.234-1.754-.816-3.961-.861-6.115-2-1.785-.036-4.36-1.418-6.545-1.014-1.611.314-4.248-.749-6.438a1.483,1.483,0,0,1,1.646-.117c2.656,1.642,5.747,2.046,8.533,3.208,2.822,1.175,5.679,2.149,8.568,3.1a5.84,5.84,0,0,1,4.1,3.508c.242.659.179,1.9,1.4,2.122a33.9,33.9,0,0,1-.031,4.387c-.327,2.36,1.153,4.4.879,6.783a19.018,19.018,0,0,0,.054,7.057c1,3.6.52,7.173.646,10.749.081,2.292,1.144,4.4.875,6.774-.265,2.337-.583,4.885.063,7.057,1.068,3.611.547,7.178.6,10.749.022,1.7,1.113,3.073.906,4.8a41.467,41.467,0,0,0-.045,5" transform="translate(122.567 94.311)" fill="#494c4f"/>
    <path id="Trazado_615026" data-name="Trazado 615026" d="M63.438,25.565c0,4.935.26,9.546-.058,14.113-.5,7.043-3.9,15.683-11.462,20.856a25.547,25.547,0,0,1-18.24,4.338,23.029,23.029,0,0,1-14.037-6.944A28.048,28.048,0,0,1,13.526,49.4a21.887,21.887,0,0,1-2.059-7.8c-.148-8.393-.054-16.8-.054-25.176,4.177-1.135,7.658-3.414,11.175-6.11.96.96,1.884,1.853,2.772,2.777A45.247,45.247,0,0,0,41.515,23.555a23.952,23.952,0,0,0,9.013,2.019c4.194-.04,8.389-.009,12.911-.009" transform="translate(66.757 35.981)" fill="#f9c5a4"/>
    <path id="Trazado_615027" data-name="Trazado 615027" d="M37.479,97.2c-.345.345-.713.718-1.041,1.041H21.692c.552-3.329-.682-6.366-.888-9.56-.26-4.114-1.5-8.174-1.422-12.373-1.261-1.723-.206-3.9-.906-5.54-.816-1.929-.52-3.764-.664-5.644-.117-1.5-1.068-2.786-.848-4.414.184-1.337.44-2.844-.736-4,.543-2.737-1.041-5.289-.731-7.954.206-1.759-.633-3.2-.866-4.8-.211-1.476.467-2.956-.655-4.491-.624-.857-.112-2.544-.112-3.894a3.37,3.37,0,0,1,3.836.453c3.7-1.126,7.066-2.606,8.115-6.967h6.774c1.781,1.714,2.808,4.387,5.132,5.94,1.081.579,2.606-.319,3.472,1.032l3.939-1.4c.7.556.184,1.5.242,2.315.1,1.386-1.162,2.463-.83,4.024a3.718,3.718,0,0,1-.709,3.62c-.13.135,0,.511-.018.772-.161,1.88.162,3.715-.673,5.639-.713,1.642.368,3.8-.866,5.567-.247.354-.031,1.027-.036,1.552a13.772,13.772,0,0,1-.718,5.226c-.579,1.467.538,3.351-.843,4.787-.13.139-.049.516-.009.772.534,3.378-.74,6.595-.942,9.923-.251,4.114-1.507,8.174-1.431,12.373-1.328,1.853-.6,3.979-.821,6.011" transform="translate(74.552 101.276)" fill="#cfe0ed"/>
    <path id="Trazado_615028" data-name="Trazado 615028" d="M20.781,26.122c2.117,1.319,4.423,1.2,6.052,3.037.094,3.01,1.386,6.047.911,9.277,1.655,1.83.135,4.239,1.157,6.218,1,1.947.126,4.042.458,5.98a17.808,17.808,0,0,0-6.222,4.576c-.834,3.531,1.337,5.7,3.939,8.026C25.608,70.4,23.608,77.6,21.849,84.854c-1.768,7.281-3.629,14.535-5.5,21.986H10.526c.009-1.305-.709-2.777.565-4.132a1.031,1.031,0,0,0,.09-.74c-.48-3.109,1.3-6.011.812-9.134-.233-1.521,1.144-2.745.83-4.405a5.466,5.466,0,0,1,.731-4.392c-.583-2.988,1.288-5.774.749-8.725-.274-1.516.915-2.562.888-4.015-.022-1.337-.7-2.858.592-4.073.206-.2.184-.749.121-1.108-.547-3.118.776-6.056.96-9.12a33.661,33.661,0,0,1,.745-6.348c.565-2.158.22-4.365.785-6.37.574-2.028.108-4.19.807-5.953.821-2.068.058-4.181.763-5.989.727-1.875.507-3.728.816-6.213" transform="translate(105.61 91.065)" fill="#6e6f70"/>
    <path id="Trazado_615029" data-name="Trazado 615029" d="M22.712,21.377l.911-.911c3.3.435,5.877-1.314,8.685-3.706.511,3.845,2.4,7.057.372,10.524.377,2.844-1.651,4.845-2.66,7.169-.52,1.193-.8,2.36-.179,3.2,2.4,3.248,2.131,6.918,2.055,10.592-.009.525,0,1.05,0,.848-1.027,4.046-3.571,6.2-5.94,8.434-3.033.449-5.536-1.225-8.254-1.974-1.5-.413-2.934-.821-4.284.31-1.839-.624-3.051-2.113-4.1-3.167-1.44-3.374-1.059-6.59-1.036-9.914,7.25-5.271,13.18-11.543,14.436-21.4" transform="translate(110.915 58.432)" fill="#494c4f"/>
    <path id="Trazado_615030" data-name="Trazado 615030" d="M41.183,54.747A13.4,13.4,0,0,0,33.467,56.2a6.592,6.592,0,0,1-5.244.758c-.8-.8-1.741-1.723-2.651-2.665-1.054-1.09-2.427-2-2.759-3.575-.435-2.059-1.256-4.02-1.229-6.218.018-1.341,1.427-2.221.879-3.6,1.781-2.283,1.588-4.971,1.552-7.631-3.557-3.912-4.208-11.117-2.028-16.379,2.687,1.785,5.365,3.611,8.788,3.077,1.445,4.284,2.553,8.483,4.957,12.3a25.125,25.125,0,0,0,9.511,9.345v10.26c-.736,1.265-2.028,2.028-4.06,2.871" transform="translate(43.115 58.892)" fill="#494c4f"/>
    <path id="Trazado_615031" data-name="Trazado 615031" d="M38.638,106.549H32.712c-1.077-3.1-1.628-6.24-2.526-9.3s-1.575-6.186-2.342-9.277c-.763-3.064-1.7-6.316-.157-9.591,1.234-2.62.807-5.527.825-8.335.009-1.839-.085-3.688.027-5.522a17.521,17.521,0,0,0-.96-5.159,38.1,38.1,0,0,0-5.172-12.018c-.812-1.238-1.265-2.777-2.566-3.414,1.548-5.347,1.166-10.722,2.588-15.921,1.5-.6,3.374-.79,4.971-1.794.319.319.686.691,1.153,1.157-.6,3.531,1.35,6.967.749,10.6.884,1.072.731,2.351.821,3.616.09,1.238-.35,2.44.462,3.764.592.965-.076,2.629.359,3.777.807,2.117.305,4.347.83,6.375s.22,4.127.8,5.975c.606,1.911.386,3.777.727,5.617a20.05,20.05,0,0,1,.736,5.6c-.144,1.534,1.113,2.759.848,4.419-.206,1.305-.489,2.826.691,4.029.2.2.027.763.031,1.153a16.246,16.246,0,0,0,.7,5.626c.583,1.593-.359,3.553.839,5.19.251.341.094,1.032.027,1.548-.395,2.979,1.261,5.742.875,8.757-.108.843,1.081,1.7.588,3.122" transform="translate(53.596 91.41)" fill="#6e6f70"/>
    <path id="Trazado_615032" data-name="Trazado 615032" d="M39.724,22.993c0,2.615-.363,4.89.1,6.976a11.915,11.915,0,0,0,2.947,5.442c-4.073,2.714-8.654,4.612-12.583,7.743V45.76c-.973.579-1.893.224-2.992.345a8,8,0,0,0-1.422-3.827c-3.49-2.041-7.483-4.374-11.731-6.855,3.073-3.6,3.75-7.712,3.49-12.341,3.921.736,7.469,1.839,11.283,1.812,3.665-.022,7.084-1.117,10.906-1.9" transform="translate(75.577 80.157)" fill="#f9c5a4"/>
    <path id="Trazado_615033" data-name="Trazado 615033" d="M44.712,57.574H22.178c4.15-2.494,7.573-4.63,10.471-7.564a83.04,83.04,0,0,0,7.792-9.748c1.552,6.285,2.894,11.727,4.271,17.312" transform="translate(37.16 140.359)" fill="#494c4e"/>
    <path id="Trazado_615034" data-name="Trazado 615034" d="M33.317,31.334c-4.9.1-7.2-3.163-9.214-6.639-.516-3.571-.067-6.882,2.378-9.636,1.31-1.476,4.383-2.58,6.837-2.544Z" transform="translate(40.775 43.626)" fill="#f7c4a3"/>
    <path id="Trazado_615035" data-name="Trazado 615035" d="M16.916,15.822c.4,2.122,1.476,4.136.547,6.689-1.8,3.365-3.728,7.245-9.053,7.07V14.817a8.508,8.508,0,0,1,5.729-1.776c.991,1,1.916,1.916,2.777,2.781" transform="translate(125.805 45.366)" fill="#f8c4a4"/>
    <path id="Trazado_615036" data-name="Trazado 615036" d="M13.173,34.4c3.925-3.634,8.681-5.011,12.516-8.093,1.328,2.481-.794,4.4-.323,6.518.484,2.185-1.678,4.011-.583,6.137-1.189.718-2.037,1.229-3.037,1.835h-3.8c-2.126-1.53-2.9-4.15-4.769-6.4" transform="translate(96.135 91.71)" fill="#e5eff9"/>
    <path id="Trazado_615037" data-name="Trazado 615037" d="M19.194,36.313c.956-2.943-1.4-6.218-.6-9.941L31.078,33.6c-1.525,2.4-2.028,5.159-4.36,6.976-2.965.126-6.1.453-7.523-4.262" transform="translate(67.625 91.937)" fill="#e5effa"/>
    <path id="Trazado_615038" data-name="Trazado 615038" d="M33.55,36.69c-3.383-1.539-5.253-4.661-8.981-5.953,3.374-1.319,6.384-2.5,9.4-3.674,1.279,3.306-.754,6.186-.417,9.627" transform="translate(36.752 94.346)" fill="#484a4d"/>
    <path id="Trazado_615039" data-name="Trazado 615039" d="M56.387,69.416,55.342,68.37c-.785.135-1.063.924-1.8,1.449-2.077-.368-4.311.39-6.626-.673-1.086-.5-3.1-.875-4.338.646-1.117-.359-1.884.547-2.831.758-1.884.426-3.54.942-4.226,3.082-.215.668-1.059,1.13-1.611,1.682H31.036c-1.853-.947-3.481-1.781-5.087-2.6-2.059-2.1-1.054-4.567-.1-6.545a119.191,119.191,0,0,0,4.392-11.188c1.364-3.768,2.813-7.532,4.2-11.283,1.476-3.966,2.965-7.963,4.6-11.884a4.389,4.389,0,0,1,.65-.965c.92-.906,2.135,0,2.66-1.077,2.274.4,4.145,1.754,6.4,2.512.265,1.615,2.557,2.808.574,4.71.785.642.444,1.714.8,2.378C51.869,42.593,53.471,46,57.06,47.7c2.194,1.041,3.36,2.894,4.266,5.343,2.871.52,5.679,2.019,8.64,3.113,2.176.807,3.383,2.508,4.464,4.764.3,2.723.332,5.724-2.032,8.748a17.9,17.9,0,0,0-6.384,5.72,32.137,32.137,0,0,1-6.98,8.6c-.785-.022-1.714-.161-2.3.763-1.068-1.265-2.952-.516-4.159-1.664-.054-.359.022-.857-.188-1.063-2.88-2.8-1.364-5.666.354-8.017,1.1-1.507,2.014-3.261,3.643-4.594" transform="translate(-4.214 103.789)" fill="#050606"/>
    <path id="Trazado_615040" data-name="Trazado 615040" d="M41.333,37.818c-.691.592-1.458,1.252-2.324,1.992a1.618,1.618,0,0,1-.87-.323,6.673,6.673,0,0,1-2.3-3.36c-.359-.947-1.054-1.4-1.61-2.207V31.443c.7-.35,1.346-.664,2.014-.991a1.409,1.409,0,0,0,1.611.642c.552,2.539,2.71,4.123,3.477,6.725" transform="translate(-13.538 106.16)" fill="#151105"/>
    <path id="Trazado_615041" data-name="Trazado 615041" d="M36.753,40.943c-1.436-2.436-1.458-3.714-.121-3.93,2.5-.408,4.661-2.378,7.285-1.709a2.433,2.433,0,0,1,.982,2.929c-2.306,1.893-5.276,2.082-8.147,2.71" transform="translate(-23.618 122.595)" fill="#131005"/>
    <path id="Trazado_615042" data-name="Trazado 615042" d="M44.908,36.229a2.458,2.458,0,0,1-1.355,2.92,18.4,18.4,0,0,1-8.075-3.625c.175-1.516,1.516-1.848,1.987-2.826,2.647,1.077,5.383,1.521,7.442,3.531" transform="translate(-22.773 113.99)" fill="#121005"/>
    <path id="Trazado_615043" data-name="Trazado 615043" d="M20.7,21.706c2.414-.314,4.549,1.916,6.684-.036,2.373-.058,3.755-1.8,5.186-3.217,1.467.256,1.83,1.534,3.086,2.189-1.624,1.947-2.965,3.9-5.2,4.607-5.033,1.593-10.448,2.58-15.625-4.064V19.625c.668-.413,1.5-.395,1.848-.929,1.678.489,2.8,1.7,4.02,3.01" transform="translate(79.159 64.334)" fill="#0e0c0a"/>
    <path id="Trazado_615044" data-name="Trazado 615044" d="M13.7,20.424V16.441c.6-1.171,2-1.3,2.983-2.019a7.533,7.533,0,0,1,4.042,2.754v2.436l-2.974,2.71c-1.521.211-2.786-.816-4.051-1.9" transform="translate(99.19 50.278)" fill="#120f0d"/>
    <path id="Trazado_615045" data-name="Trazado 615045" d="M20.225,15.373c1.063.179,1.7-1.193,2.3-.973,1.346,1.332,2.342,2.324,3.611,3.58v1.135c-1.135,1.144-2.122,2.14-3.575,3.6-.6.22-1.35-1.108-2.476-1.171-1.305-1.485-1.27-3.131.139-6.173" transform="translate(69.375 50.116)" fill="#110e0c"/>
    <path id="Trazado_615046" data-name="Trazado 615046" d="M20.747,86.728a2.263,2.263,0,0,1-2.557,1.139,9.12,9.12,0,0,1-1.2-2.171,11.94,11.94,0,0,1-.049-2.75q0-23.862-.022-47.728a8.308,8.308,0,0,1,1.139-4.935,4.234,4.234,0,0,1,1.337.031,6.024,6.024,0,0,1,1.35.879Z" transform="translate(84.873 105.43)" fill="#0c0d0e"/>
    <path id="Trazado_615047" data-name="Trazado 615047" d="M28.786,55.692c3.1-8.07,5.859-15.275,8.775-22.888,2.463,3.8,5.155,6.859,9.156,8.6a5.7,5.7,0,0,1-.027,1.875c-1.377,3.741-2.826,7.46-4.289,11.166-.135.336-.525.57-.893.951-3.872-1.606-7.833-.906-12.723.3" transform="translate(5.439 114.359)" fill="#e87896"/>
    <path id="Trazado_615048" data-name="Trazado 615048" d="M44.564,30.86c1.57-.408,2.494.677,3.58,1.032C43.393,43.807,39.177,55.92,34.166,68c-1.22-.911-2.6-.8-3.051-1.933q6.763-17.7,13.449-35.2" transform="translate(-6.365 107.268)" fill="#e4eef8"/>
    <path id="Trazado_615049" data-name="Trazado 615049" d="M25.632,44.1a20.471,20.471,0,0,0,1.476-4.41c.26-1.467,1.7-2.409,1.637-3.984,3.472,1.422,6.707,2.75,9.905,4.06,1.247,1.552,1.135,3.315,1,5.051-.866.87-1.7,1.7-2.714,2.719-4-.04-7.451-2.44-11.3-3.436" transform="translate(26.644 124.476)" fill="#e24d6b"/>
    <path id="Trazado_615050" data-name="Trazado 615050" d="M32.574,38.924c1.4-.327,2.158.843,3.463.973-2.068,2.9-3.454,6.168-5.845,8.376-1.561.319-2.243-.39-2.974-1.323,1.763-2.647,3.522-5.276,5.356-8.026" transform="translate(23.224 135.493)" fill="#dfe9f3"/>
  </g>
</svg>
