<svg xmlns="http://www.w3.org/2000/svg" xmlns:xlink="http://www.w3.org/1999/xlink" width="74.896" height="74.998" viewBox="0 0 74.896 74.998">
  <defs>
    <clipPath id="clip-path">
      <rect id="Rectángulo_325251" data-name="Rectángulo 325251" width="74.896" height="74.998" fill="none"/>
    </clipPath>
  </defs>
  <g id="Grupo_876289" data-name="Grupo 876289" transform="translate(0 0)">
    <g id="Grupo_876288" data-name="Grupo 876288" transform="translate(0 0)" clip-path="url(#clip-path)">
      <path id="Trazado_614446" data-name="Trazado 614446" d="M0,32.252V43.369a3.659,3.659,0,0,0,1.176.939c2.384,1.322,4.81,2.578,7.072,4.115.255.176.616.205.853.4a1.51,1.51,0,0,0,1.92-.1c1.723-1.111,3.519-2.1,5.286-3.132,1.058-.618,2.124-1.222,3.239-1.861a2.521,2.521,0,0,0,.347-1.693c-.01-2.826-.016-5.653,0-8.481a2.953,2.953,0,0,0-.383-1.628c-.768-.393-1.587-.819-2.331-1.3-2.035-1.313-4.234-2.341-6.215-3.736a1.748,1.748,0,0,0-1.946-.061c-.716.389-1.425.819-2.108,1.24-1.978,1.214-4,2.341-6.038,3.45-.363.2-.545.529-.876.732" transform="translate(0 25.869)" fill="#050506"/>
      <path id="Trazado_614447" data-name="Trazado 614447" d="M28.222,43.7c1.727,1.026,3.294,2.043,4.942,2.909,1.324.7,2.6,1.478,3.894,2.226a1.285,1.285,0,0,0,1.536,0c1.474-.89,3.02-1.656,4.506-2.53,1.1-.645,2.181-1.3,3.3-1.9.48-.257,1.113-.367,1.36-.983V32.292a6.809,6.809,0,0,0-.949-.774c-1.768-1.032-3.584-1.986-5.309-3.1-.859-.557-1.818-1.013-2.708-1.557a1.741,1.741,0,0,0-2.065.083c-1.664,1.21-3.517,2.1-5.282,3.138C30.4,30.7,29.33,31.3,28.216,31.945a2.443,2.443,0,0,0-.343,1.693c0,2.826.014,5.655-.01,8.481a2.859,2.859,0,0,0,.359,1.581" transform="translate(27.131 25.862)" fill="#050506"/>
      <path id="Trazado_614448" data-name="Trazado 614448" d="M33.32,31.874c-1.277-.863-2.783-1.524-4.135-2.461-.817-.564-1.745-.963-2.6-1.466a10.9,10.9,0,0,1-1.644-1,1.648,1.648,0,0,0-2.165.024c-1.064.789-2.313,1.271-3.411,1.988-1.53,1-3.217,1.741-4.67,2.862-.1.075-.263.057-.379.079a3.9,3.9,0,0,0-.389,1.636c.034,2.876.016,5.751.016,8.627,0,.563-.1,1.149.464,1.581,1.326.91,2.834,1.662,4.246,2.59.868.568,1.832.995,2.72,1.553.458.288.951.521,1.419.813a1.606,1.606,0,0,0,1.911.16c1.419-.882,2.933-1.632,4.364-2.491a37.258,37.258,0,0,0,4.33-2.6,2.329,2.329,0,0,0,.454-1.674c-.018-2.826-.008-5.655-.006-8.481a2.109,2.109,0,0,0-.521-1.737" transform="translate(13.558 25.853)" fill="#040506"/>
      <path id="Trazado_614449" data-name="Trazado 614449" d="M59.43,26.187v6.265l.924.679H61.1c.217-.217.424-.422.665-.665V24.484l-.866-.693H34.358V17.826l-.914-.74h-.807l-.687,1.048v5.611H5.21c-.272.286-.505.533-.764.8v7.9l.78.695h.857c.178-.211.4-.468.711-.839v-6.13H31.879V32.4c.288.235.551.448.912.74H33.6c.134-.207.322-.493.685-1.048v-5.9Z" transform="translate(4.329 16.638)" fill="#050506"/>
      <path id="Trazado_614450" data-name="Trazado 614450" d="M26.059,0a14.172,14.172,0,0,0-9.977,4.076,14.213,14.213,0,0,0-4.358,10.609,4.321,4.321,0,0,0,.018,1.165c.365,1.18.4,2.44.872,3.584a22.151,22.151,0,0,0,1.166,2.293,4.616,4.616,0,0,0,.857,1.243c.58.517.813,1.332,1.445,1.737.912.584,1.615,1.431,2.55,1.958A12.671,12.671,0,0,0,21.078,27.8a5.544,5.544,0,0,0,1.034.351,23.308,23.308,0,0,0,4.291.58,16.543,16.543,0,0,0,7.044-2.065,16,16,0,0,0,4.9-4.891,14.7,14.7,0,0,0,2.047-8.065A14.287,14.287,0,0,0,36.2,4.2,14.451,14.451,0,0,0,26.059,0" transform="translate(11.382 0.001)" fill="#050506"/>
      <path id="Trazado_614451" data-name="Trazado 614451" d="M7.572,41.756c.012-.184.018-.231.018-.278V34.524C5.595,33.2,3.475,32,1.209,30.8v7.3l6.363,3.655" transform="translate(1.177 29.994)" fill="#f1c693"/>
      <path id="Trazado_614452" data-name="Trazado 614452" d="M5.64,34.5v7.182c2.124-1.382,4.413-2.372,6.389-3.807V30.853a6.3,6.3,0,0,0-2.2,1,37.044,37.044,0,0,1-3.294,1.934c-.371.182-.561.5-.892.72" transform="translate(5.492 30.043)" fill="#de955a"/>
      <path id="Trazado_614453" data-name="Trazado 614453" d="M8.076,27.9c-1.772.975-3.543,1.956-5.321,2.923a4.213,4.213,0,0,0-.843.78L7.989,35.14l.087-.215a10.986,10.986,0,0,0,0-7.025" transform="translate(1.862 27.168)" fill="#de945a"/>
      <path id="Trazado_614454" data-name="Trazado 614454" d="M5.035,27.9v7.025c.695.032,1.192-.452,1.735-.746,1.476-.8,2.894-1.717,4.425-2.643A65.451,65.451,0,0,0,5.035,27.9" transform="translate(4.903 27.168)" fill="#b97545"/>
      <path id="Trazado_614455" data-name="Trazado 614455" d="M29.08,37.917c1.907,1.437,4.226,2.408,6.346,3.813V34.446a55.5,55.5,0,0,0-6.346-3.638Z" transform="translate(28.316 30)" fill="#f1c593"/>
      <path id="Trazado_614456" data-name="Trazado 614456" d="M39.865,30.767c-2.244,1.313-4.281,2.5-6.336,3.7v7.3l6.336-3.642Z" transform="translate(32.649 29.96)" fill="#de955a"/>
      <path id="Trazado_614457" data-name="Trazado 614457" d="M32.856,34.938c-.032.184.077.255.235.29,2.039-1.168,4.08-2.343,6.164-3.539-.278-.683-.888-.87-1.431-1.141a9.217,9.217,0,0,0-1.522-.912,7.254,7.254,0,0,1-1.642-.947,9.114,9.114,0,0,1-1.465-.8c-.259.067-.373.136-.339.32a29.879,29.879,0,0,0,0,6.732" transform="translate(31.808 27.154)" fill="#b97545"/>
      <path id="Trazado_614458" data-name="Trazado 614458" d="M35.663,34.791a.225.225,0,0,0,.288-.231q.012-3.135,0-6.271a.225.225,0,0,0-.288-.231c-.144,0-.332-.057-.426.012-.189.138-.444.2-.59.314-1.512,1.178-3.381,1.782-4.863,3.051l5.88,3.355" transform="translate(29.001 27.301)" fill="#de955a"/>
      <path id="Trazado_614459" data-name="Trazado 614459" d="M15.151,30.78v7.346c2.072,1.113,4.184,2.329,6.308,3.671V34.475c-1.889-1.3-4.086-2.37-6.308-3.695" transform="translate(14.753 29.972)" fill="#f1c693"/>
      <path id="Trazado_614460" data-name="Trazado 614460" d="M25.952,38.085V30.847a13.489,13.489,0,0,0-3.239,1.735,12.807,12.807,0,0,0-3.13,1.9v7.25c2.147-1.283,4.2-2.58,6.369-3.644" transform="translate(19.069 30.038)" fill="#de955a"/>
      <path id="Trazado_614461" data-name="Trazado 614461" d="M22.1,27.9c-2.106,1.117-4.157,2.329-6.332,3.608l6.253,3.61c.012-.028.045-.111.079-.193a10.986,10.986,0,0,0,0-7.025" transform="translate(15.351 27.168)" fill="#de955a"/>
      <path id="Trazado_614462" data-name="Trazado 614462" d="M18.973,27.9v7.025a2.6,2.6,0,0,0,1.366-.584c1.5-.841,3.008-1.676,4.51-2.517a1.476,1.476,0,0,0,.241-.237c-.446-.752-1.3-.918-1.972-1.342s-1.313-.823-1.988-1.2c-.709-.4-1.437-.762-2.157-1.141" transform="translate(18.475 27.168)" fill="#b97545"/>
      <path id="Trazado_614463" data-name="Trazado 614463" d="M18.235,24.932c-.034.184.083.3.227.284a16.554,16.554,0,0,0,2.672-.211c.864-.229,1.776-.341,2.661-.638a10.666,10.666,0,0,0,3.872-2.276,13.229,13.229,0,0,0,3.02-4.147,8.477,8.477,0,0,0,.632-1.917,10.713,10.713,0,0,0,.371-3.792,28.953,28.953,0,0,0-.643-2.951,9.06,9.06,0,0,0-1.2-2.4,13.743,13.743,0,0,0-1.711-2.076,12.136,12.136,0,0,0-5.268-3.142,7.488,7.488,0,0,0-3.176-.44,1.159,1.159,0,0,0-.148,1.364c.416.527,1.04.454,1.6.549A10.083,10.083,0,0,1,29.8,11.929a10.2,10.2,0,0,1-6.517,10.9,31.4,31.4,0,0,1-3.261.728,11.16,11.16,0,0,1-1.792,1.37" transform="translate(17.75 1.157)" fill="#eab90c"/>
      <path id="Trazado_614464" data-name="Trazado 614464" d="M23.454,24.915h1.393a2.243,2.243,0,0,1,.363-1.17.833.833,0,0,0-.361-.266c-3.18-.28-5.973-1.334-7.97-3.985A10.221,10.221,0,0,1,23.341,3.124a4.01,4.01,0,0,0,1.423-.292c.049-.053.1-.109.15-.164V1.206a11.891,11.891,0,0,0-8.351,3.5A15.59,15.59,0,0,0,13.65,9.058c-.233.444.142,1-.379,1.309-.093,1.52-.819,3.03-.059,4.559a9.907,9.907,0,0,0,2.059,5.284,10.9,10.9,0,0,0,5.5,4.131,5.906,5.906,0,0,0,2.684.574" transform="translate(12.531 1.175)" fill="#fbce2c"/>
      <path id="Trazado_614465" data-name="Trazado 614465" d="M19.2,23.027h.292a9.875,9.875,0,0,0,7.942-3.748A9.831,9.831,0,0,0,29.444,15.3a11.906,11.906,0,0,0,.041-5.035,8.77,8.77,0,0,0-.922-2.7,9.654,9.654,0,0,0-2.813-3.377,13.087,13.087,0,0,0-3.243-1.741A8.544,8.544,0,0,0,19.2,1.953a1.031,1.031,0,0,0-.221,1.052c.914,1.322,1.632,2.807,3.294,3.46A2.722,2.722,0,0,1,23.459,7.9c.278.547.235,1.018-.326,1.315-.839.036-1.046-.695-1.516-1.07-.788-.624-1.547-1.459-2.635-.478a13.556,13.556,0,0,0-.245,3.219c.083.7.677.742,1.18.878A7.592,7.592,0,0,1,22.585,12.9c1.788,1.344,2.088,4.117.3,5.274a21.385,21.385,0,0,0-4.03,3.353,1.45,1.45,0,0,0,.347,1.5" transform="translate(18.246 1.892)" fill="#fcce2c"/>
      <path id="Trazado_614466" data-name="Trazado 614466" d="M24.192,3.128V1.957a9.648,9.648,0,0,0-7.6,3.142,10.15,10.15,0,0,0-2.951,8.128,10.207,10.207,0,0,0,3.038,6.782,9.827,9.827,0,0,0,7.514,3.022c-.008-.505.093-1.032-.292-1.463a3.988,3.988,0,0,0-2.424-2.846,3.441,3.441,0,0,1-1.911-2.084c-.264-.724-.081-1.226.831-1.289,1.174,1,1.753,3.322,4.044,1.909a7.356,7.356,0,0,0,.036-3.324c-.345-.788-1.139-.833-1.808-1.074A3.765,3.765,0,0,1,19.9,10.133a3.138,3.138,0,0,1,1.461-3.663,7.19,7.19,0,0,0,2.828-3.342" transform="translate(13.255 1.888)" fill="#ffe383"/>
      <path id="Trazado_614467" data-name="Trazado 614467" d="M21.582,16.884a3.223,3.223,0,0,1-2.211-.641,1.434,1.434,0,0,1-.7-1.285c0-.29-.166-.43-.464-.693-.274-.154-.722.1-1.129-.059-.255.276-.484.525-.78.845.191,2.447,2.037,3.424,4.1,4.271a2.593,2.593,0,0,0,.46,1.66h1.463c.247-.5.6-.963.414-1.563a10.278,10.278,0,0,1,1.877-.784,3.545,3.545,0,0,0,2.211-2.967,3.582,3.582,0,0,0-1.822-3.776,8.16,8.16,0,0,0-3.328-1.155c-.2-.012-.4,0-.377-.294a.5.5,0,0,0-.087-.113c-2.165-1.441-2.134-2.049.162-3.215a.958.958,0,0,0,.217-.184,2.68,2.68,0,0,1,2.607,1.358,4.765,4.765,0,0,0,.349.574c.134.14.27.278.375.387.511.225.8-.3,1.222-.286-.049-.409.488-.568.387-1.216a6.037,6.037,0,0,0-1.4-2.082,6.649,6.649,0,0,0-2.337-1.147v-1.2a3.221,3.221,0,0,0-1.206-.782c-.294.306-.821.207-1.111.8V4.4a11.084,11.084,0,0,0-2.584,1.634,4.727,4.727,0,0,0-1.18,2.779c.338.458.189,1.338.7,2.053a3.808,3.808,0,0,0,1.129,1.117,10.4,10.4,0,0,0,3.042,1.091c.752.738,2.167.7,2.4,2.055-.233,1.36-1.642,1.113-2.4,1.751" transform="translate(15.866 2.475)" fill="#050606"/>
      <path id="Trazado_614468" data-name="Trazado 614468" d="M20.128,4.78a2.456,2.456,0,0,0-2.341,1.04V7.265a2.4,2.4,0,0,0,2.049,1.028c.276.02.292-.168.292-.367V4.78" transform="translate(17.32 4.627)" fill="#fee182"/>
      <path id="Trazado_614469" data-name="Trazado 614469" d="M18.973,11.7A2.949,2.949,0,0,0,21.9,10.333V9.5c-.438-.422-.888-.855-1.358-1.3-.529.091-.985-.452-1.567-.3Z" transform="translate(18.475 7.661)" fill="#f9cc2c"/>
    </g>
  </g>
</svg>
