<svg xmlns="http://www.w3.org/2000/svg" xmlns:xlink="http://www.w3.org/1999/xlink" width="140.136" height="140" viewBox="0 0 140.136 140">
  <defs>
    <clipPath id="clip-path">
      <rect id="Rectángulo_325298" data-name="Rectángulo 325298" width="140.136" height="140" fill="none"/>
    </clipPath>
  </defs>
  <g id="Grupo_876337" data-name="Grupo 876337" transform="translate(0 0)">
    <g id="Grupo_876336" data-name="Grupo 876336" transform="translate(0 0)" clip-path="url(#clip-path)">
      <path id="Trazado_614717" data-name="Trazado 614717" d="M140.136,7.515c-.582-.258-.376-1.085-.885-1.539a4.663,4.663,0,0,0-3.336-1.539c-2.067.055-4.136.012-5.742.012a5,5,0,0,0-3.524,3.812V45.044h-4.46V0H72.367V17.954h-4.46V.067H18.081V45.01H13.557V7.875c-.73-1.53-1.5-2.827-3.1-3.427-1.688,0-3.382.106-5.06-.021C2.824,4.23.982,5.142,0,7.621V140H140.136Z" transform="translate(0 -0.001)" fill="#040506"/>
      <path id="Trazado_614718" data-name="Trazado 614718" d="M72.02,23.86H58.627v8.851H35.989v-8.76H22.407v26.89H44.864v4.479H72.02Z" transform="translate(45.491 48.438)" fill="#cb8e57"/>
      <path id="Trazado_614719" data-name="Trazado 614719" d="M16.394,10.357V1.5H7.485V42H34.308c-.039.033.042-.018.094-.088a.439.439,0,0,0,.1-.239c.006-8.83.006-17.66.006-26.593H47.65a3.128,3.128,0,0,0,.327-.285.45.45,0,0,0,.106-.236c0-4.315,0-8.63,0-13.045H39.108a37.666,37.666,0,0,0-.067,4.285c-.03,1.491-.006,2.982-.006,4.563Z" transform="translate(15.196 3.038)" fill="#cb8e57"/>
      <path id="Trazado_614720" data-name="Trazado 614720" d="M34.455,1.529h-9.06v13.43H38.807V42.022H65.954V1.511c-1.348-.091-2.818-.018-4.282-.033-1.494-.012-2.991,0-4.582,0v8.736c-2.43.421-14.9.533-22.635.209Z" transform="translate(51.556 2.972)" fill="#cb8e57"/>
      <path id="Trazado_614721" data-name="Trazado 614721" d="M19.8,19.4c0,2.4.342,4.791-.1,7.03a11.175,11.175,0,0,1-2.77,5.721,74.623,74.623,0,0,1,7.8,20.011l-4.845,2.485c-.058,1.627.273,3.457-.933,5.257h9.984V28.43H87.574a.453.453,0,0,1,.112.118.494.494,0,0,1,.082.245c.006,11.842.006,23.684.006,35.62h4.388V19.4Z" transform="translate(34.357 39.384)" fill="#ced371"/>
      <path id="Trazado_614722" data-name="Trazado 614722" d="M1.734,56.771H10.1V52.4h4.466v4.127c2.4.455,18.851.585,27.178.23V52.469H46.3v4.263h8.515c.327-4.694-1.467-8.572-4.457-11.957a15.2,15.2,0,0,0-7.8-5.036,19.333,19.333,0,0,0-4.685-.982q-9.05.05-18.1.006a17.419,17.419,0,0,0-14.187,6.63C2.967,48.6,1.234,52.317,1.734,56.771" transform="translate(3.345 78.682)" fill="#afc96a"/>
      <path id="Trazado_614723" data-name="Trazado 614723" d="M29.879,62.856H65.89V35.845H56.96V49.289H38.939V35.832c-1.545-.1-3.018-.033-4.482-.045-1.494-.015-2.991,0-4.579,0Z" transform="translate(60.66 72.628)" fill="#cb8e57"/>
      <path id="Trazado_614724" data-name="Trazado 614724" d="M10.642,47.407c-.788,1.206-2.327,1.53-3.142,2.533-1.6-.212-1.018-2.43-2.909-2.273-.367,3.5.3,6.712,2.806,9.333,2.318,2.427,5.421,3.579,8.515,5.009,1.451-1.739,2.476-3.424,2.124-5.642-1.648-1.724-3.627-3.16-4.321-5.572-.945-4.248,1.067-6.985,4.93-8.863a23.245,23.245,0,0,0-.018-2.43c-.079-.785.745-1.206.618-2.033-.121-.782-.339-1.7.779-2.154-.73-1-1.715-1.515-1.77-2.654-1.27-5.382,3.173-9.833,8.766-8.66v4.385H23.981c-.327.445-.712.973-1.312,1.8V31.6a4.211,4.211,0,0,0,3.424,1.37c1.694-.067,3.4.082,5.088-.033,5.882-.394,9.063-3.488,9.518-9.427.1-1.3.015-2.615.015-4.115h-2.83c-5.942,0-11.884.1-17.82-.036-3.985-.1-7.242,1.6-10.372,3.657-1.839,1.209-4.282,5.6-4.594,7.957-.106.812-.63,1.4-.661,2.3A16.3,16.3,0,0,0,7.7,43.265c.964,1.406,2.315,2.521,2.945,4.142" transform="translate(8.99 39.294)" fill="#525a66"/>
      <path id="Trazado_614725" data-name="Trazado 614725" d="M29.847,24.819c-1.757-.276-2.688,1.024-4.076,1.2a18.383,18.383,0,0,1-2.324.445c-2.9.006-5.8,0-8.669,0-.485,3.067-1.321,5.918-1.351,8.963H10.412c-.394.521-.839,1.106-1.479,1.948-.258,2.967,2.894,4.066,4.509,6.433v4.654a13.125,13.125,0,0,1-4.4,6.375v7.721h8.951V53.584c1.685,0,3.176.009,4.669,0a8.538,8.538,0,0,0,7.254-3.939,8.546,8.546,0,0,0,1.7-5.8c-.079-1.015-.015-2.045-.015-3.012,1.37-.806,2.96-1.015,3.988-2.282a66.017,66.017,0,0,0-5.739-13.736" transform="translate(18.105 50.307)" fill="#efc5a5"/>
      <path id="Trazado_614726" data-name="Trazado 614726" d="M17.93,29.99H49.4V7.506H40.49v8.918H26.99V7.491c-1.545-.106-3.015-.033-4.479-.045-1.494-.015-2.991,0-4.582,0Z" transform="translate(36.401 15.088)" fill="#c68b61"/>
      <path id="Trazado_614727" data-name="Trazado 614727" d="M43.322,129.486h4.345V3.034c-1.342-.152-2.8-.021-4.345-.079Z" transform="translate(87.951 5.998)" fill="#99a4b0"/>
      <path id="Trazado_614728" data-name="Trazado 614728" d="M8.735,91.611c-3.663-5.069-3.654-10.4-1.1-16.108-.418-.77-.624-1.794-1.039-2.77a10.712,10.712,0,0,1-.718-4.23q.064-31.33.027-62.655V2.988h-4.4V115.916c1.461-.885,2.13-2.467,3.418-3.454a30.023,30.023,0,0,0,3.809-2.77,105.658,105.658,0,0,0,0-18.081" transform="translate(3.061 6.065)" fill="#99a4b0"/>
      <rect id="Rectángulo_325294" data-name="Rectángulo 325294" width="113.05" height="4.324" transform="translate(13.548 49.749)" fill="#99a4b0"/>
      <path id="Trazado_614729" data-name="Trazado 614729" d="M23.608,54.442c4.973,2.394,8.548,2.394,12.239,2.394v4.479h-9.46c-.07,1.618-.273,3.133.739,4.463H40.419V34.325h-22.5V48.152c2.909,2.139,5.272,5.024,5.691,6.291-.327-3.176-.521-4.348.3-5.5,3.342-.661,6.927-.224,10.29-.209.83.915.806,1.57.152,2.342-3.851,1.106-8.1-.536-10.745,3.37" transform="translate(36.375 69.684)" fill="#e0e4e9"/>
      <rect id="Rectángulo_325295" data-name="Rectángulo 325295" width="4.357" height="31.444" transform="translate(81.475 104.035)" fill="#c0c7d0"/>
      <path id="Trazado_614730" data-name="Trazado 614730" d="M4.272,32.242a.43.43,0,0,0-.555.445q-.023,8.6,0,17.19a.43.43,0,0,0,.555.445,25.833,25.833,0,0,1,10.672-2.9V39.757c-3.982-1.776-8.112-3.542-10.672-7.515" transform="translate(7.524 65.434)" fill="#ced371"/>
      <path id="Trazado_614731" data-name="Trazado 614731" d="M43.35,44.66V35.809H34.417a38.428,38.428,0,0,0-.067,4.285c-.03,1.491-.006,2.982-.006,4.566Z" transform="translate(69.679 72.697)" fill="#a56434"/>
      <path id="Trazado_614732" data-name="Trazado 614732" d="M22.3,34.662a14.306,14.306,0,0,1-8.845,3.43v4.5c3.091-.4,5.8,1.2,8.845,1.742Z" transform="translate(27.316 70.369)" fill="#ced371"/>
      <path id="Trazado_614733" data-name="Trazado 614733" d="M28.354,23.945v4.363c1.427.158,2.879.027,4.427.085V23.951a22.039,22.039,0,0,0-4.427-.006" transform="translate(57.563 48.39)" fill="#a56434"/>
      <path id="Trazado_614734" data-name="Trazado 614734" d="M31.357,23.875v4.336h4.385c.236-1.336-.009-2.8.136-4.336Z" transform="translate(63.66 48.469)" fill="#a56434"/>
      <path id="Trazado_614735" data-name="Trazado 614735" d="M22.394,7.466V11.8h4.385c.242-1.333-.009-2.794.139-4.333Z" transform="translate(45.464 15.156)" fill="#daa277"/>
      <path id="Trazado_614736" data-name="Trazado 614736" d="M16.287,1.484H11.954V5.9c1.333.142,2.788.015,4.333.073Z" transform="translate(24.269 3.012)" fill="#a56434"/>
      <path id="Trazado_614737" data-name="Trazado 614737" d="M19.416,5.834V1.5H15.031c-.236,1.336.009,2.8-.136,4.336Z" transform="translate(30.239 3.04)" fill="#a56434"/>
      <path id="Trazado_614738" data-name="Trazado 614738" d="M29.864,1.5V5.825h4.415c.145-1.327.015-2.779.073-4.324Z" transform="translate(60.629 3.046)" fill="#a56434"/>
      <path id="Trazado_614739" data-name="Trazado 614739" d="M32.867,5.952H37.2V1.537c-1.333-.142-2.788-.015-4.333-.073Z" transform="translate(66.726 2.971)" fill="#a56434"/>
      <path id="Trazado_614740" data-name="Trazado 614740" d="M4.555,19.482A3.688,3.688,0,0,0,4.7,21.739c.627-.751,1.2-1.436,1.845-2.206-.548-.351-1.267-.085-1.991-.052" transform="translate(9.032 39.29)" fill="#e8eaec"/>
      <rect id="Rectángulo_325296" data-name="Rectángulo 325296" width="13.418" height="4.33" transform="translate(58.849 117.571)" fill="#040506"/>
      <rect id="Rectángulo_325297" data-name="Rectángulo 325297" width="13.472" height="4.321" transform="translate(58.813 108.513)" fill="#040506"/>
    </g>
  </g>
</svg>
