<svg xmlns="http://www.w3.org/2000/svg" xmlns:xlink="http://www.w3.org/1999/xlink" width="169" height="169" viewBox="0 0 169 169">
  <defs>
    <filter id="Elipse_4754" x="0" y="0" width="169" height="169" filterUnits="userSpaceOnUse">
      <feOffset dy="6" input="SourceAlpha"/>
      <feGaussianBlur stdDeviation="5" result="blur"/>
      <feFlood flood-opacity="0.329"/>
      <feComposite operator="in" in2="blur"/>
      <feComposite in="SourceGraphic"/>
    </filter>
    <clipPath id="clip-path">
      <rect id="Rectángulo_324786" data-name="Rectángulo 324786" width="64.634" height="64.511" fill="none"/>
    </clipPath>
  </defs>
  <g id="Grupo_877373" data-name="Grupo 877373" transform="translate(-716.283 -10230.89)">
    <g transform="matrix(1, 0, 0, 1, 716.28, 10230.89)" filter="url(#Elipse_4754)">
      <circle id="Elipse_4754-2" data-name="Elipse 4754" cx="69.5" cy="69.5" r="69.5" transform="translate(15 9)" fill="#ffb500"/>
    </g>
    <g id="Grupo_876206" data-name="Grupo 876206" transform="translate(768.283 10276.89)">
      <g id="Grupo_876205" data-name="Grupo 876205" transform="translate(0 0)" clip-path="url(#clip-path)">
        <path id="Trazado_613820" data-name="Trazado 613820" d="M0,5.477V7.23c.233.186.187.449.2.7A.6.6,0,0,0,.39,8.4c.142.559.282,1.119.43,1.706.089.1.26.073.4.165.272.184.079.476.246.7.143.189.432.049.5.356.083.346.5.445.705.677s.334.559.687.7c.226.089.224.4.42.575a.749.749,0,0,0,.607.192c.093.062.066.209.108.241a11.966,11.966,0,0,1,1.08,1.09c.155.154.407.2.488.478a.549.549,0,0,0,.41.346c.3.088.479.39.729.559.267.181.532.317.607.66.024.1.13.1.209.143.275.148.548.319.585.69L9.7,18.2c-.047.312.38.4.454.719a.42.42,0,0,0,.585,0c-.057-.445.543-.228.6-.616.049-.336.361-.378.673-.378.091,0,.243-.159.263-.265a.537.537,0,0,1,.469-.5.334.334,0,0,0,.214-.174,1.162,1.162,0,0,1,.751-.746c.182-.052.12-.273.213-.417h.633c.128.073.052.191.089.27.152.307.606.26.731.557.115.278.216.476.548.547.314.067.235.5.484.666.216.145.548.137.591.52.017.165.236.25.388.358.41.294.693.731,1.1,1.05a.926.926,0,0,1,.179,1.071c-.159.275-.626.429-.872.83-.209.343-.734.434-.813.915.079.515.668.611.852.994.208.429.729.461.9,1v.359c.2.147.191.435.39.585v.388c-.2.15-.187.439-.39.585v.388c-.116.486-.753.5-.882.975-.285-.017-.476.236-.8.213-.773-.054-1.552-.017-2.4-.017v3.089H6.11c-.164-.1.015-.337-.094-.494-.123-.2-.356-.238-.542-.339-.223-.121-.16-.4-.339-.545a1.475,1.475,0,0,0-1.176-.339c-.04-.157-.062-.245-.1-.4H2.732c-.147.2-.435.191-.585.39H1.664c-.427.353-.724.948-1.274,1.222v.532c-.2.148-.187.437-.39.585v1.46c.349.01.4.332.526.543.142.236.186.491.547.55.3.051.26.479.486.658a4.292,4.292,0,0,0,3.43-.121,1.127,1.127,0,0,1,.8-.786c.111-.246.224-.491.327-.722h8.5v3.095c.506,0,.982-.005,1.46,0,.746.008,1.525-.152,2.187.553-.032.209.4.3.469.614.2.147.191.435.39.584v1.265c-.39.079-.478.429-.574.719-.135.408-.726.282-.79.727-.062.429-.559.361-.783.729a1.049,1.049,0,0,0,.032.38c.113.275.516.24.626.6.069.226.445.349.621.521a6.783,6.783,0,0,0,.594.7c.078.061.258-.014.28.267a1.516,1.516,0,0,0-.771.645c-.162.393-.606.361-.715.651-.491.035-.737-.373-1.1-.37-.395,0-.412-.523-.881-.488-.289.022-.6-.381-.977-.3-.04-.159-.064-.246-.094-.361a1.962,1.962,0,0,1-1.073-.424c-.462.245-.427-.648-.894-.39-.339-.2-.646-.478-1.061-.385-.04-.159-.064-.246-.1-.4-.584.133-.928-.5-1.5-.425-.022-.154.029-.26-.093-.329H9.019c-.022.106-.04.194-.059.28a5.272,5.272,0,0,1-1.191.393c-.368.034-.267.523-.673.5-.277-.019-.567.25-.852.255-.4.007-.31.569-.759.526-.267-.024-.555.28-.837.285-.376.005-.267.521-.675.493-.277-.019-.562.226-.854.26-.376.042-.366.69-.852.5-.233.3-.677.128-.908.393A2.078,2.078,0,0,1,0,46.045v5.609c.354.434.132.948.2,1.424A.935.935,0,0,0,.39,53.8,4.425,4.425,0,0,0,.726,55.6a3.3,3.3,0,0,1,.079.67l.346.123A7.017,7.017,0,0,0,1.618,58.2c.17.128.545.147.535.57-.008.343.236.479.532.5.081.267.013.523.272.715.177.133.481.177.525.336a.628.628,0,0,0,.305.451c.525.214.6.942,1.211,1.031.084.445.408.547.8.626a.316.316,0,0,1,.238.442,5.757,5.757,0,0,1,1.387.741,3.735,3.735,0,0,0,1.507.543c.027.1.051.192.083.319h.915c.066-.03,0-.186.084-.329a2.846,2.846,0,0,0,1.483-.542c.769-.427.837-.579,1.292-.655.062-.123.137-.251.194-.388.142-.341.543-.076.744-.336.164-.211.13-.58.493-.638.059-.008.155-.014.169-.047.2-.481.823-.636.984-1.034s.525-.4.808-.771c.084-.177-.029-.683.521-.685.182-.187-.034-.545.275-.665.339-.13.1-.478.263-.665l.28-.073a16.614,16.614,0,0,0,.476-2.062l.267-.054a14.453,14.453,0,0,0,.486-4.36c-.037-1.36-.008-2.722-.008-4.082a1.461,1.461,0,0,0,.872-.888c.5-.027.575-.5.876-.839.186.233.353.474.552.685.174.184.464.216.55.538.079.3.548.275.658.584.116.331.332.442.727.361.137-.494.658-.692,1.031-1.041.005-.666.921-.424,1.019-1.073h1.326c.15.2.439.187.585.39.314,0,.331.515.626.4A2.8,2.8,0,0,1,28.1,48.46c0,.452,0,.9,0,1.422h3.1V58.4l-.68.327a1.128,1.128,0,0,1-.79.747c-.444,1.414-.732,1.691-.152,3.52.277.17.638.27.754.7.071.265.437.339.687.408.231.064.177.216.256.408h1.508c.148-.2.437-.191.585-.39h.484c.425-.353.724-.948,1.272-1.222V62.37c.2-.15.189-.439.391-.585V60.723c-.071-.145-.229-.078-.341-.15-.089-.557-.094-1.147-.793-1.412-.211-.079-.319-.434-.472-.66l-.508-.056V49.916H36.5c0-.825,0-1.623,0-2.423a.908.908,0,0,1,.587-1c.089-.53.493-.663.938-.739.024-.091.046-.179.086-.332h.928c.148.2.437.187.585.39.13,0,.26,0,.39,0,.486.12.525.707.975.9.376.164.439.729,1.073.855.391,0,.478-.585.839-.817s.537-.648.943-.938c.511-.007,1.039.008,1.281.7a.385.385,0,0,0,.537.262v.476c-.3.216-.72.344-.786.823l-1.088.526c-.169.344-.334.776-.909.72-.214.1-.116.444-.353.508-.715.191-.693.812-.736,1.333a2.682,2.682,0,0,0,.15,1.49c.11.224.135.462.4.565.056.022.164.034.165.057.034.521.491.471.81.609.138.059.27.135.437.219v10.4H62.421V54.028c.454.089.724-.364,1.085-.24.388-.229.29-.825.817-.773a4.591,4.591,0,0,0,.069-2.838c-.532-.285-.532-.285-.835-.852-.322.044-.548-.277-.795-.334-.42-.1-.263-.579-.626-.65h-.368c-.089-.089-.245-.174-.26-.277-.047-.339-.265-.44-.543-.557-.132-.054-.366-.093-.395-.192-.132-.437-.655-.445-.828-.812a.96.96,0,0,1-.052-.262,1.555,1.555,0,0,1-1.131-.663c-.123-.14-.191-.351-.4-.349a.545.545,0,0,1-.6-.469c-.044-.154-.241-.246-.415-.341-.2-.108-.614-.062-.567-.484a1.626,1.626,0,0,1-.616-.4c-.135-.121-.115-.283-.184-.4-.172-.133-.454.067-.533-.154-.115-.317-.6-.155-.643-.6-.03-.336-.484-.2-.709-.353a.712.712,0,0,1-.241-.385.5.5,0,0,0-.633-.309c-.169.123-.364.241-.348.506l-1.082.51c-.174.38-.359.788-.98.727.079.672-.923.472-.874,1.139a.916.916,0,0,0-.97.744,2.569,2.569,0,0,1-1.846.422c-.231-.133-.343-.538-.58-.693a5.753,5.753,0,0,1-.734-.616A10.732,10.732,0,0,1,46.761,42.9c.693-.754.731-.719.861-1.193-.123-.39-.594-.437-.766-.741a1.145,1.145,0,0,0-.7-.641,2.42,2.42,0,0,1-.478-1.77,1.681,1.681,0,0,1,.685-1.38c.913-.621.849-.715,1.745-.715H49.95c.03-.5.008-1.006.012-1.512s0-1.029,0-1.574h8.484c.224.277.454.565.692.845s.715.371.726.8a7.618,7.618,0,0,0,2.129.283,1.633,1.633,0,0,0,1.016-.332c.305-.344.709-.565.987-.923.6-.774.639-.778.592-1.389-.04-.525.216-1.087-.174-1.583-.062-.079-.01-.248-.01-.371a1.159,1.159,0,0,1-.832-.82c-.42-.019-.569-.638-1.07-.434-.029-.133-.049-.223-.078-.351H60.718c-.056.022,0,.175-.049.282-.17.154-.378-.007-.579.035a3.788,3.788,0,0,0-.744.621,1.417,1.417,0,0,1-.769.643c-.015.148-.034.3-.054.489H49.99V28.116c-1.131-.137-2.232.155-3.289-.292-.01-.435-.459-.484-.712-.673a3.289,3.289,0,0,1-.054-2.752,7.675,7.675,0,0,0,1.726-1.746c-.268-.285-.2-.8-.715-.808-.31-.56-.963-.822-1.26-1.48.3-.181.378-.582.751-.763.349-.169.4-.665.817-.815.289-.1.31-.5.591-.65a1,1,0,0,0,.555-.6.215.215,0,0,1,.179-.175c.388-.116.545-.464.749-.8.358.056.256.638.7.616a.887.887,0,0,1,.773.489c.138.194.545.216.84.277.329.067.6.391.958.145.074.189.116.3.15.386a11.845,11.845,0,0,0,4.907.034c.148-.039.089-.194.181-.371.449.162.828-.24,1.319-.214.162.008.5-.084.555-.363.035-.177.194-.14.245-.206.248-.316.817-.034.97-.611.083-.314.72-.343.746-.839.373-.172.724-.363.815-.815.54-.049.479-.559.688-.866.083-.12-.04-.363.214-.366.148,0,.186-.067.245-.209a6.373,6.373,0,0,0,.415-1.679l.29-.106a11.276,11.276,0,0,0,0-4.969L64,6.776c.148-.461-.231-.849-.214-1.336.005-.14-.061-.506-.373-.543-.189-.022-.13-.211-.192-.255-.329-.235,0-.916-.638-.918-.243-.3-.334-.753-.827-.79-.076-.584-.786-.639-.955-1.147a.135.135,0,0,0-.069-.067c-.332-.14-.822-.187-.963-.435A.891.891,0,0,0,58.891.8C58.518.789,58.236.385,57.833.68L57.75.288A11.256,11.256,0,0,0,52.74.28c-.008.029-.034.115-.078.26-.164.241-.535-.091-.744.16s-.533.083-.8.169c-.319.1-.287.449-.553.515-.03.008-.084-.01-.093,0-.187.3-.707.061-.791.407s-.388.346-.567.53-.268.511-.422.579a2.068,2.068,0,0,0-.525.381c-.192.165-.184.53-.542.543a.191.191,0,0,0-.132.132c0,.66-.727.952-.807,1.493-.067.461-.459.85-.184,1.323l-.371.1a11.3,11.3,0,0,0,.012,5.057,1.929,1.929,0,0,1,.273-.013,5.432,5.432,0,0,0,.408,1.546c.079.208.047.385.337.449.116.025.251.354.241.451-.052.494.3.629.736.791-.4.363-.891.518-.979,1.017-.575-.022-.538.665-1,.84-.4.155-.564.673-.952.945-.358.253-.559.707-1,.921-.241-.182-.693-.187-.71-.666-.624-.268-.818-1.065-1.588-1.252a7.081,7.081,0,0,0-1.723,1.7,3.351,3.351,0,0,1-2.745-.046c-.2-.251-.238-.707-.673-.712-.466-1.056-.169-2.155-.3-3.251H33.414V6.091l.479-.052a1.164,1.164,0,0,1,.646-.756c.3-.135.289-.535.587-.656v-.58c.069-.164.223-.1.361-.175V2.215c-.032-.046-.123-.057-.3-.044.042-.418-.25-.712-.462-1.023S33.994.8,33.944.305A5.026,5.026,0,0,0,31.635.02c-.354,0-.55.273-.815.415-.471.251-.648.759-1.1,1.006-.364.2-.385.663-.413.98a2.478,2.478,0,0,0,.15,1.676c.074.115.012.317.012.506a7.618,7.618,0,0,1,.882.854,4.743,4.743,0,0,0,.847.712v8.455H28.1c0,.737-.034,1.444.013,2.146a2.173,2.173,0,0,1-.258,1.066,2.8,2.8,0,0,1-.791.813,2,2,0,0,1-.953.262,7.308,7.308,0,0,1-.96.01l-.871-.459a1.851,1.851,0,0,0-.682-.727c-.3-.169-.375-.619-.742-.763-.422.11-.4.138-1.265.921a11.126,11.126,0,0,1-1.082,1.066c-.346-.206-.476-.55-.7-.764s-.592-.316-.683-.692c-.526-.143-.688-.7-1.105-.982a6.443,6.443,0,0,1-1.077-1.1,6.96,6.96,0,0,0-.94-.79.343.343,0,0,1,0-.584c.221-.1.422-.277.688-.2.1-.064.052-.2.1-.253a5.678,5.678,0,0,1,.69-.6c.2-.182.326-.569.6-.68.386-.16.37-.675.737-.764.4-.1.376-.528.666-.7.064-.039.032-.238.046-.371.569-.351.7-.6.845-1.667l.243-.061a9.849,9.849,0,0,0,.007-4.561c-.677-.3-.4-1.066-.94-1.6a3.579,3.579,0,0,1-.393-.346c-.184-.175-.186-.484-.528-.57a.606.606,0,0,1-.413-.658.8.8,0,0,1-.857-.4h-.6c-.145-.073-.073-.233-.143-.332A8.33,8.33,0,0,0,12.523.27c-.074.044-.019.152-.037.248-.189.184-.427.047-.71.1-.079.106-.2.258-.285.373h-.467c-.17.169-.106.511-.432.574a.523.523,0,0,1-.66-.5c-.1-.138-.28-.034-.516-.11C9.353.876,9.236.722,9.149.607H8.5C8.354.536,8.423.378,8.359.28A7.62,7.62,0,0,0,4.318.271c-.067.039-.01.147-.035.3A3.186,3.186,0,0,0,3.01.953c-.256.147-.287.488-.641.537-.162.024-.37.283-.452.567-.04.14-.376.3-.584.4-.322.155.1.747-.461.685a2.51,2.51,0,0,1-.3.84c-.258.3-.137.6-.179.908-.2.148-.187.437-.39.584" transform="translate(0 -0.001)" fill="#060708"/>
        <path id="Trazado_613821" data-name="Trazado 613821" d="M37.4,20.913H36.333c-.143.073-.071.231-.143.331-.562.11-1.161.1-1.424.8-.078.211-.434.319-.658.471-.019.172-.035.326-.057.51H29.639v2.148h4.347l.351.724a1.147,1.147,0,0,1,.749.795,4.254,4.254,0,0,0,3.526.14c.17-.268.268-.629.7-.746.267-.071.341-.437.41-.687.064-.229.216-.177.408-.255V23.641c-.2-.148-.191-.437-.39-.585v-.483c-.353-.425-.95-.722-1.223-1.271h-.533c-.148-.2-.439-.189-.585-.39" transform="translate(20.371 14.373)" fill="#060708"/>
        <path id="Trazado_613822" data-name="Trazado 613822" d="M19.512,35.8v-.474c-.194-.143-.326-.4-.656-.537-.17-.071-.314-.424-.494-.634-.159-.186-.366-.052-.6-.164v-4.4H15.646V33.9c-.4.309-.979.312-1.107.908-.059.273-.494.128-.594.43a3.883,3.883,0,0,0,.184,3.422,1.079,1.079,0,0,1,.736.774,4.1,4.1,0,0,0,3.415.224c.3-.243.316-.726.808-.834.258-.057.339-.434.4-.683s.226-.165.408-.268V36.383c-.2-.147-.191-.435-.39-.584" transform="translate(9.373 20.334)" fill="#060708"/>
        <path id="Trazado_613823" data-name="Trazado 613823" d="M26.915,35.8v-.474c-.194-.143-.326-.4-.656-.537-.17-.071-.314-.424-.494-.634-.159-.186-.366-.052-.6-.164v-4.4H23.049V33.9c-.4.309-.979.312-1.107.908-.059.273-.494.128-.594.43a3.883,3.883,0,0,0,.184,3.422,1.079,1.079,0,0,1,.736.774,4.1,4.1,0,0,0,3.415.224c.3-.243.316-.726.808-.834.258-.057.339-.434.4-.683s.226-.165.408-.268V36.383c-.2-.147-.191-.435-.39-.584" transform="translate(14.461 20.334)" fill="#060708"/>
        <path id="Trazado_613824" data-name="Trazado 613824" d="M6.073,20.913H4.611c-.019.339-.329.4-.542.526-.233.14-.5.167-.553.542-.042.3-.478.258-.705.545a4.028,4.028,0,0,0,.162,3.356,1.284,1.284,0,0,1,.751.746c1.12.8,2.281.562,3.5.248.177-.655,1.179-.778,1.213-1.655h4.419v-2.14H8.435a.93.93,0,0,0-.562-1c-.331-.184-.4-.6-.786-.781H6.658c-.148-.2-.439-.189-.585-.39" transform="translate(1.735 14.373)" fill="#060708"/>
        <path id="Trazado_613825" data-name="Trazado 613825" d="M6.073,13.523H4.611c-.019.339-.329.4-.542.526-.233.14-.5.167-.553.542-.042.3-.478.258-.705.545a4.028,4.028,0,0,0,.162,3.356,1.284,1.284,0,0,1,.751.746c1.12.8,2.281.562,3.5.248.177-.655,1.179-.778,1.213-1.655h4.419v-2.14H8.435a.93.93,0,0,0-.562-1c-.331-.184-.4-.6-.786-.781H6.658c-.148-.2-.439-.189-.585-.39" transform="translate(1.735 9.294)" fill="#060708"/>
        <path id="Trazado_613826" data-name="Trazado 613826" d="M39.741,15.666v-.483c-.353-.425-.95-.722-1.223-1.271h-.533c-.148-.2-.439-.189-.585-.39H36.333c-.143.071-.071.231-.143.331-.562.108-1.161.1-1.424.8-.078.211-.434.319-.658.471-.019.172-.037.326-.057.51H29.639v2.148h4.347l.351.724a1.144,1.144,0,0,1,.749.795,4.261,4.261,0,0,0,3.526.14c.17-.27.268-.629.7-.746.267-.073.341-.437.41-.687.064-.231.216-.179.408-.256V16.25c-.2-.147-.191-.435-.39-.584" transform="translate(20.371 9.294)" fill="#060708"/>
        <path id="Trazado_613827" data-name="Trazado 613827" d="M17.165,2.437H15.7c-.007.349-.332.4-.543.526-.238.142-.484.189-.553.545-.054.283-.449.3-.631.429a4.3,4.3,0,0,0,.1,3.481,1.128,1.128,0,0,1,.79.8l.768.346v4.372h2.087V8.65c.164-.282.4-.1.555-.2.2-.121.245-.351.341-.54.118-.228.41-.154.543-.341a1.333,1.333,0,0,0,.336-1.171l.408-.108V5.165c-.2-.148-.191-.437-.39-.585V4.1c-.353-.425-.95-.722-1.223-1.271H17.75c-.148-.2-.439-.189-.585-.39" transform="translate(9.378 1.674)" fill="#060708"/>
        <path id="Trazado_613828" data-name="Trazado 613828" d="M24.568,2.437H23.1c-.007.349-.332.4-.543.526-.238.142-.484.189-.553.545-.054.283-.449.3-.631.429a4.3,4.3,0,0,0,.1,3.481,1.128,1.128,0,0,1,.79.8l.768.346v4.372h2.087V8.65c.164-.282.4-.1.555-.2.2-.121.245-.351.341-.54.118-.228.41-.154.543-.341a1.333,1.333,0,0,0,.336-1.171l.408-.108V5.165c-.2-.148-.191-.437-.39-.585V4.1c-.353-.425-.95-.722-1.223-1.271h-.533c-.148-.2-.439-.189-.585-.39" transform="translate(14.466 1.674)" fill="#060708"/>
        <path id="Trazado_613829" data-name="Trazado 613829" d="M.39,31.976V30.713c-.138-.154-.273-.078-.39-.1v1.363a.264.264,0,0,0,.39,0" transform="translate(0 21.04)" fill="#0f1010"/>
        <rect id="Rectángulo_324753" data-name="Rectángulo 324753" width="0.39" height="0.78" transform="translate(0 53.015)" fill="#6c6d6d"/>
        <rect id="Rectángulo_324754" data-name="Rectángulo 324754" width="0.585" height="0.39" transform="translate(2.146 29.051)" fill="#494a4a"/>
        <rect id="Rectángulo_324755" data-name="Rectángulo 324755" width="0.39" height="0.584" transform="translate(41.376 56.134)" fill="#4f4f4f"/>
        <rect id="Rectángulo_324756" data-name="Rectángulo 324756" width="0.39" height="0.584" transform="translate(0 31.195)" fill="#494a4a"/>
        <rect id="Rectángulo_324757" data-name="Rectángulo 324757" width="0.39" height="0.584" transform="translate(18.736 25.934)" fill="#b9baba"/>
        <rect id="Rectángulo_324758" data-name="Rectángulo 324758" width="0.39" height="0.584" transform="translate(18.736 24.959)" fill="#a4a6a7"/>
        <rect id="Rectángulo_324759" data-name="Rectángulo 324759" width="0.39" height="0.584" transform="translate(60.112 24.96)" fill="#4a4b4b"/>
        <rect id="Rectángulo_324760" data-name="Rectángulo 324760" width="0.585" height="0.39" transform="translate(7.807 22.816)" fill="#4f4f4f"/>
        <rect id="Rectángulo_324761" data-name="Rectángulo 324761" width="0.585" height="0.39" transform="translate(26.347 45.417)" fill="#5a5859"/>
        <rect id="Rectángulo_324762" data-name="Rectángulo 324762" width="0.585" height="0.39" transform="translate(39.034 45.417)" fill="#a6a8a9"/>
        <rect id="Rectángulo_324763" data-name="Rectángulo 324763" width="0.585" height="0.39" transform="translate(57.77 22.816)" fill="#494a4a"/>
        <rect id="Rectángulo_324764" data-name="Rectángulo 324764" width="0.39" height="0.584" transform="translate(60.112 37.43)" fill="#4a4b4b"/>
        <rect id="Rectángulo_324765" data-name="Rectángulo 324765" width="0.585" height="0.39" transform="translate(7.807 35.285)" fill="#4f4f4f"/>
        <path id="Trazado_613830" data-name="Trazado 613830" d="M9.648,8.326h-.29c-.182.152-.088.341-.069.518.1.125.24.042.359.066Z" transform="translate(6.356 5.722)" fill="#0d0d0e"/>
        <rect id="Rectángulo_324766" data-name="Rectángulo 324766" width="0.585" height="0.39" transform="translate(57.77 35.285)" fill="#494a4a"/>
        <rect id="Rectángulo_324767" data-name="Rectángulo 324767" width="0.39" height="0.584" transform="translate(18.736 37.624)" fill="#5c5c5b"/>
        <path id="Trazado_613831" data-name="Trazado 613831" d="M6.6,11.213H6.015v.29c.152.182.341.088.52.069.125-.1.042-.241.066-.359" transform="translate(4.134 7.706)" fill="#e3e4e6"/>
        <rect id="Rectángulo_324768" data-name="Rectángulo 324768" width="0.585" height="0.39" transform="translate(32.788 64.121)" fill="#4a4b4b"/>
        <rect id="Rectángulo_324769" data-name="Rectángulo 324769" width="0.39" height="0.584" transform="translate(35.132 61.783)" fill="#4a4b4b"/>
        <path id="Trazado_613832" data-name="Trazado 613832" d="M.39,4.869V4.285H0v.584a.264.264,0,0,0,.39,0" transform="translate(0 2.944)" fill="#353636"/>
        <rect id="Rectángulo_324770" data-name="Rectángulo 324770" width="0.39" height="0.584" transform="translate(28.885 6.257)" fill="#4a4b4b"/>
        <rect id="Rectángulo_324771" data-name="Rectángulo 324771" width="0.39" height="0.584" transform="translate(41.376 6.257)" fill="#4a4b4b"/>
        <rect id="Rectángulo_324772" data-name="Rectángulo 324772" width="0.39" height="0.584" transform="translate(0 4.892)" fill="#747576"/>
        <rect id="Rectángulo_324773" data-name="Rectángulo 324773" width="0.39" height="0.584" transform="translate(28.885 56.134)" fill="#4f4f4f"/>
        <rect id="Rectángulo_324774" data-name="Rectángulo 324774" width="0.585" height="0.39" transform="translate(26.543 4.112)" fill="#494a4a"/>
        <rect id="Rectángulo_324775" data-name="Rectángulo 324775" width="0.585" height="0.39" transform="translate(39.034 4.112)" fill="#494a4a"/>
        <rect id="Rectángulo_324776" data-name="Rectángulo 324776" width="0.39" height="0.584" transform="translate(0 7.814)" fill="#9c9d9e"/>
        <path id="Trazado_613833" data-name="Trazado 613833" d="M39.8,23.076a1.161,1.161,0,0,1-.876-.231,1.338,1.338,0,0,0-.624-.157c-.014-.493-.461-.542-.759-.763-.118-.4-.236-.8-.353-1.184l-.226-.012a5.54,5.54,0,0,1-.059-3.4c.042-.138.2-.064.31-.145.121-.13.005-.3.062-.456l.341-.341a1.233,1.233,0,0,0-.417-1.245,1.549,1.549,0,0,1-.56-.532c-.26-.385-.72-.614-1.021-1.019a.935.935,0,0,0-1.053-.2l-.2.277c-.268.1-.442-.013-.579.111-.024.093-.047.181-.066.256a5.431,5.431,0,0,1-3.452,0l-.067-.268c-.368.047-.673-.282-1.083-.275-.309-.189-.228-.766-.79-.744.047-.569-.548-.95-.437-1.554-.2-.145-.191-.435-.39-.584v-.78H23.444a12.287,12.287,0,0,1-.2,1.606c-.121.341-.557.358-.535.739.032.6-.594.763-.827,1.2-.155.294-.56.164-.835.329-.182.111-.14.246-.208.336a6.081,6.081,0,0,1-3.732-.025.265.265,0,0,0,.042-.2c-.12-.159-.3-.061-.459-.093a2.154,2.154,0,0,1-.715-.95,2.44,2.44,0,0,1-.731.967c-.287.2-.452.6-.753.741-.354.165-.322.6-.663.715-.378.123-.445.548-.746.746.211.268.211.732.666.737a5.779,5.779,0,0,1,.046,4.53c-.019.15-.172.094-.278.143-.1.449-.231.8-.56.92-.353.132-.434.6-.8.6-.4-.007-.663.336-1.029.236-.039.162.035.273-.2.368H9.964v4.073a4.091,4.091,0,0,1,1.694.262c.025.1.049.187.088.334.479-.091.81.307,1.25.424.081.39.557.6.481,1.065.51.164.459.609.587,1.011a2.956,2.956,0,0,1,.157,1.193c-.044.429.2.9-.186,1.284.121.429-.226.771-.213,1.179-.373.073-.548.381-.8.6.181.413.6.525.793.795a3.413,3.413,0,0,0,.7.677c.263.211.38.569.742.773.241.135.381.533.7.773a1.125,1.125,0,0,0,.655-.737,6.318,6.318,0,0,1,1.451-.424A3.844,3.844,0,0,1,19.7,36.73a2.654,2.654,0,0,1,1.373.407c.388.341.889.413,1.325.955.054.224.466.545.424,1.053.061.135.213.084.316.127A3.35,3.35,0,0,1,23.387,41h4.107V39.968c.1-.179.209-.118.37-.159-.1-.361.243-.628.238-1.023,0-.37.467-.451.6-.8.123-.329.472-.457.92-.558l.062-.233a5.674,5.674,0,0,1,4.595.019c.017.321.349.483.786.609.148-.258.557-.326.737-.7.167-.351.655-.407.822-.813a.8.8,0,0,1,.506-.4c.177-.056.26-.381.415-.574s.452-.084.516-.439a1.91,1.91,0,0,1-.795-.636c-.027-.165.056-.337-.091-.459-.1-.022-.2.034-.238-.076a7.1,7.1,0,0,1-.268-2.531c-.008-.39.233-.7.263-1.065.366.054.449-.353.442-.469-.03-.648.683-.727.849-1.2a.2.2,0,0,1,.143-.111.847.847,0,0,0,.921-.565c.361.079.611-.292.984-.228a5.37,5.37,0,0,0,.874.008V23.52c-.25-.123-.511-.019-.761-.054-.148-.2-.439-.187-.585-.39" transform="translate(6.848 6.754)" fill="#ffb718"/>
        <path id="Trazado_613834" data-name="Trazado 613834" d="M4.142,10.251a2.433,2.433,0,0,0,.167.391c.216.324.631.43.827.81.172.337.668.4.807.82.046.135.2.147.334.123a.349.349,0,0,1,.386.228c.121.3.263.553.619.6.17.548.825.69,1.093,1.26a.942.942,0,0,1,.953.83h.444c.169-.2.147-.542.525-.592.326-.044.466-.4.724-.564.275-.17.537-.312.606-.661.019-.1.138-.094.214-.137a.928.928,0,0,0,.579-.692l1.107-.533a.693.693,0,0,1,.1-.273c.322-.358.692-.678,1.043-1,.322-.294.6-.709,1.1-.818a.489.489,0,0,0,.353-.4.48.48,0,0,1,.383-.37.508.508,0,0,0,.4-.559c.007-.228.052-.226.491-.437a6.653,6.653,0,0,0-.049-5.021c-.1-.073-.5-.1-.449-.518a.392.392,0,0,0-.223-.393c-.319-.191-.739-.241-.877-.666-.317.143-.51-.179-.795-.208A5.492,5.492,0,0,0,13.423,1.3c-.569.106-1.129.255-1.692.385-.152.612-1.071.447-1.164,1.139-.012.086-.179.2-.287.216-.354.056-.358.388-.515.591H9.373a1.567,1.567,0,0,0-.72-.8c-.26-.14-.375-.543-.661-.756h-.37c-.1-.066-.1-.162-.094-.305a7.81,7.81,0,0,0-2.406-.478,9.3,9.3,0,0,0-1.595.4c-.064.334-.289.376-.594.424-.208.032-.321.383-.621.388-.145.2.073.535-.267.67-.3.12-.081.483-.273.661h-.2A5.991,5.991,0,0,0,1.5,7.418c.037.145.194.081.329.159v.587c.175.251.6.42.4.84.813.192.933,1.313,1.91,1.247" transform="translate(0.867 0.873)" fill="#ea695c"/>
        <path id="Trazado_613835" data-name="Trazado 613835" d="M31.235,34.122h6.246v6.187h4.3V32.026H27.2v8.3c1.309.073,2.656,0,4.033.039Z" transform="translate(18.696 22.011)" fill="#e0e4e9"/>
        <path id="Trazado_613836" data-name="Trazado 613836" d="M1.868,36.474a1.932,1.932,0,0,0,.248,1.262c.1.278.074.547.162.8.066.113.172.071.29.088l.526,1.12c.548.042.383.633.673.877.057.047.052.169.079.272.1.113.312.017.4.192.268.55.972.731,1.2,1.4.491-.189.687.56,1.22.429.148.358.29.724.828.523V26.393c-.378-.191-.6.143-.889.206-.067.015-.127.307-.137.3-.317-.1-.511.208-.8.231a.753.753,0,0,0-.693.447c-.127.278-.489.127-.744.285-.273.172-.655.094-.857.525-.086.186-.537.208-.827.289-.317.088-.65.143-.737.555l-.532.061v2.2c0,.746.057,1.5-.017,2.236s.314,1.424.213,2.16c.2.147.191.435.39.584" transform="translate(0.864 18.099)" fill="#99a4b0"/>
        <path id="Trazado_613837" data-name="Trazado 613837" d="M26.189,34.066H44.234c.194-.094.041-.4.278-.464-.715-.874-.9-1.012-1.426-1.093-.15-.069-.069-.241-.15-.327a3.953,3.953,0,0,0-1.083-.872,1.228,1.228,0,0,1-.759-.817c-.31-.224-.872-.04-.855-.618-.413-.035-.569-.636-1.058-.483-.148-.073-.064-.246-.15-.331a4.129,4.129,0,0,0-1.083-.872,1.247,1.247,0,0,1-.764-.835c-.322-.182-.852-.039-.849-.6-.346-.024-.472-.395-.776-.483a.42.42,0,0,0-.586,0c-.331.192-.776.251-.849.744-.007.051-.081.1-.133.137-.245.165-.72.044-.754.427-.037.427-.518.186-.6.521-.056.228-.344.067-.516.142-.106.145-.079.364-.27.471-.43.24-.672.736-1.181.872a.461.461,0,0,0-.37.376.5.5,0,0,1-.137.24c-.214.282-.724.052-.849.489-.1.359-.53.363-.722.638-.04.061-.241.008-.356.008-.132.16-.093.383-.287.491-.429.241-.673.734-1.179.874-.4.108-.386.518-.577.78a.418.418,0,0,0,0,.584" transform="translate(17.919 17.975)" fill="#c68b61"/>
        <path id="Trazado_613838" data-name="Trazado 613838" d="M29.979,12.661a1.8,1.8,0,0,0,1.476,1.505c.214.074.093.329.272.466.321.243.9.027,1.021.589.407.115.817.228,1.22.339a10.105,10.105,0,0,0,2.463.157c.209.007.435.091.639-.1s.494-.044.742-.081c.213-.032.343-.236.6-.213.278.025.2-.44.56-.5.192-.029.537.067.673-.236.012-.029.054-.044.066-.071.034-.084.057-.172.091-.273a1.994,1.994,0,0,0,1.584-1.569,1.789,1.789,0,0,0,.344-.179c.346-.263.145-.8.572-1.077.354-.231.309-.729.415-1.127A8.8,8.8,0,0,0,42.9,8.029a3.159,3.159,0,0,0-.167-1.1c-.106-.3-.071-.661-.209-.987-.071-.165-.01-.316-.287-.391-.13-.035-.317-.4-.321-.707s-.223-.43-.5-.43A2,2,0,0,0,39.824,2.8c-.1-.154-.1-.471-.4-.513-.366-.052-.7-.061-.862-.51-.076-.218-.523.054-.648-.277-.452.089-.857-.159-1.286-.184a6.312,6.312,0,0,0-2.035.032c-.5.143-1.048.019-1.522.326-.148.1-.359.061-.332.324-.25.025-.4.25-.661.294-.327.056-.321.091-.545.52A1.918,1.918,0,0,0,29.96,4.388c-.094.076-.256.059-.391.167-.255.2.012.609-.334.746.167.4-.665.24-.39.7-.235.223-.121.538-.209.79a6.431,6.431,0,0,0-.181,2.067,6.735,6.735,0,0,0,.375,2.18c.069.213.03.383.329.456.127.03.26.356.256.545-.008.422.251.535.564.624" transform="translate(19.557 0.857)" fill="#ea695c"/>
        <path id="Trazado_613839" data-name="Trazado 613839" d="M12.477,33.607V29.422c-.132-.208-.37-.025-.553-.159-.015-.064-.032-.152-.059-.283-.547.01-.933-.511-1.493-.459-.039-.138-.059-.226-.088-.327A2.127,2.127,0,0,1,9.2,27.762c-.445.209-.432-.636-.893-.39a1.832,1.832,0,0,0-1.065-.415c-.035-.132-.057-.219-.084-.314a1.519,1.519,0,0,1-.894-.388V43.6c.289-.2.641-.111.768-.542.042-.14.349-.2.538-.3s.489-.128.555-.27c.182-.41.732-.449.832-.9.066-.292.386-.251.562-.42s.159-.424.413-.572c.386-.226.351-.879.678-1.087.449-.285.464-.729.678-1.092.067-.116.01-.309.01-.483l.344-.071a12.2,12.2,0,0,0,.437-2.312.907.907,0,0,0,.192-.7c.056-.417-.138-.872.2-1.245" transform="translate(4.309 18.045)" fill="#99a4b0"/>
        <path id="Trazado_613840" data-name="Trazado 613840" d="M32.983,34.548H30.9v4.034a3.671,3.671,0,0,0,.99.037c.351.015.7,0,1.09,0Z" transform="translate(21.24 23.745)" fill="#a56433"/>
        <path id="Trazado_613841" data-name="Trazado 613841" d="M20.441,37.488a1.624,1.624,0,0,0,.187-1.134c-.113-.272-.575-.262-.639-.651H19.13a.663.663,0,0,1-.609.621v.84c.383.01.339.456.677.646a1.387,1.387,0,0,0,1.244-.322" transform="translate(12.73 24.539)" fill="#a9c467"/>
        <path id="Trazado_613842" data-name="Trazado 613842" d="M1.449,18.885a1.4,1.4,0,0,0-.143,1.029c.083.324.589.275.623.7h.845A.716.716,0,0,1,3.4,20v-.84c-.407.025-.294-.489-.6-.618a1.354,1.354,0,0,0-1.355.346" transform="translate(0.866 12.709)" fill="#a9c467"/>
        <path id="Trazado_613843" data-name="Trazado 613843" d="M35.867,19.948c.189.2.43.363.476.672h.969c.16-.211.174-.538.474-.612A1.669,1.669,0,0,0,37.35,18.5H36.332a1.546,1.546,0,0,0-.466,1.448" transform="translate(24.642 12.715)" fill="#a8c366"/>
        <path id="Trazado_613844" data-name="Trazado 613844" d="M20.615,1.694l-.687-.407H19.2c-.221.138-.348.439-.683.442V2.79c.287.015.445.214.641.415h.8l.658-.39Z" transform="translate(12.726 0.884)" fill="#a8c366"/>
        <path id="Trazado_613845" data-name="Trazado 613845" d="M10.11,30.612H9.772a5.291,5.291,0,0,0-.054,1.169.268.268,0,0,0,.391,0Z" transform="translate(6.675 21.039)" fill="#8d96a1"/>
        <rect id="Rectángulo_324777" data-name="Rectángulo 324777" width="0.39" height="0.78" transform="translate(16.394 52.821)" fill="#3c4045"/>
        <rect id="Rectángulo_324778" data-name="Rectángulo 324778" width="0.585" height="0.39" transform="translate(46.646 29.83)" fill="#543e11"/>
        <rect id="Rectángulo_324779" data-name="Rectángulo 324779" width="0.39" height="0.584" transform="translate(2.342 53.991)" fill="#696f76"/>
        <path id="Trazado_613846" data-name="Trazado 613846" d="M26.3,31.081V30.5h-.29c-.182.15-.088.339-.069.518.1.125.24.042.359.066" transform="translate(17.804 20.96)" fill="#b8825b"/>
        <path id="Trazado_613847" data-name="Trazado 613847" d="M31.348,26.387h.585V26.1c-.152-.182-.341-.088-.52-.069-.125.1-.042.241-.066.359" transform="translate(21.542 17.86)" fill="#523c2c"/>
        <rect id="Rectángulo_324780" data-name="Rectángulo 324780" width="0.39" height="0.584" transform="translate(34.35 17.361)" fill="#543e11"/>
        <path id="Trazado_613848" data-name="Trazado 613848" d="M34.833,24.3c-.037-.467.552-.28.579-.655a1.327,1.327,0,0,0-.2-1.141,1.392,1.392,0,0,0-1.26-.283c-.256.145-.211.592-.628.6v.854c.221.159.641.14.548.626Z" transform="translate(22.907 15.241)" fill="#a9c467"/>
        <path id="Trazado_613849" data-name="Trazado 613849" d="M16.922,34.753a1.627,1.627,0,0,0-.224-1.235A1.636,1.636,0,0,0,15.45,33.3c-.267.133-.208.594-.629.6v.854c.24.133.589.186.585.626h.854c.03-.37.486-.358.661-.628" transform="translate(10.187 22.861)" fill="#a9c467"/>
        <path id="Trazado_613850" data-name="Trazado 613850" d="M22.935,33.274c-.37.213-.331.651-.724.668v.783c.24.182.707.169.572.673H23.7c-.007-.424.462-.359.614-.641a1.564,1.564,0,0,0-.221-1.245,1.672,1.672,0,0,0-1.163-.238" transform="translate(15.266 22.862)" fill="#a9c467"/>
        <path id="Trazado_613851" data-name="Trazado 613851" d="M3.7,22.869v.783a.85.85,0,0,1,.663.655h.849c-.029-.451.5-.327.587-.636a1.552,1.552,0,0,0-.2-1.237A1.654,1.654,0,0,0,4.373,22.2c-.268.179-.28.614-.672.67" transform="translate(2.544 15.242)" fill="#a9c467"/>
        <path id="Trazado_613852" data-name="Trazado 613852" d="M4.355,16.921H5.2c-.007-.424.461-.358.614-.641a1.56,1.56,0,0,0-.223-1.245A1.741,1.741,0,0,0,4.37,14.8c-.356.071-.093.781-.665.587v.845c.282.155.6.282.65.687" transform="translate(2.547 10.165)" fill="#a9c467"/>
        <path id="Trazado_613853" data-name="Trazado 613853" d="M33.332,16.307c.429.226.429.226.629.611h.85c-.025-.449.494-.331.587-.638a1.546,1.546,0,0,0-.2-1.237,1.434,1.434,0,0,0-1.065-.246c-.515.046-.262.623-.685.587a.432.432,0,0,0-.118.04Z" transform="translate(22.91 10.161)" fill="#a9c467"/>
        <path id="Trazado_613854" data-name="Trazado 613854" d="M15.459,5.843H16.3c-.007-.424.461-.358.614-.641a1.556,1.556,0,0,0-.219-1.24,1.509,1.509,0,0,0-1.213-.224c-.366.057-.1.768-.675.574v.845c.282.155.6.282.65.687" transform="translate(10.178 2.539)" fill="#a9c467"/>
        <path id="Trazado_613855" data-name="Trazado 613855" d="M23.73,5.824c-.034-.466.521-.312.6-.663a1.414,1.414,0,0,0-.221-1.134,1.376,1.376,0,0,0-1.227-.29c-.31.091-.209.466-.466.56a1.9,1.9,0,0,1-.2.056V5.2c.258.127.587.2.594.628Z" transform="translate(15.274 2.541)" fill="#a9c467"/>
        <path id="Trazado_613856" data-name="Trazado 613856" d="M12.971,27.187c.027.587.5,1.063.386,1.674.756.175.628.834.827,1.353.37.2.8.413.761.994.211.111.5.125.56.43a.485.485,0,0,0,.434.425c.3.057.3.366.435.572h.376c.231.219.515.39.559.714.552.267,1.3.123,1.6.839.628-.008,1.125.532,1.794.391.046.128.084.241.116.327a17.272,17.272,0,0,0,6.171.01c.015-.064.034-.152.066-.307.3-.047.66.035.942-.211a1.031,1.031,0,0,1,.874-.182,1.8,1.8,0,0,1,1.348-.8c.14-.182.164-.5.415-.569a2.321,2.321,0,0,0,.835-.569c.265-.219.56-.359.645-.727.437-.089.521-.415.636-.793.067-.208.43-.322.665-.486.088-.353.175-.707.26-1.06.58-.132.425-.732.685-1.06.14-.175.005-.378.11-.528l.287-.074a15.989,15.989,0,0,0,.02-7.713c-.376.03-.483-.375-.5-.542-.044-.508-.108-.952-.621-1.2.059-.241-.248-.336-.211-.6.044-.3-.2-.43-.489-.456l-.526-1.087a1.111,1.111,0,0,1-.768-.795c-.478-.218-1.014-.348-1.277-.881-.086-.175-.346-.086-.408-.162-.172-.206-.564,0-.651-.429-.039-.182-.44-.348-.78-.349-.317,0-.672-.062-.771-.486-2.732-.408-2.61-.862-7.7-.061-.116.064-.059.174-.093.317-.4.027-.769.314-1.222.24-.152.154-.422.223-.3.532-.317.052-.574.175-.827.228-.283.059-.478.13-.559.41a.475.475,0,0,1-.56.39.224.224,0,0,0-.24.123c-.186.456-.739.557-.943.957-.182.353-.606.53-.641.989a.394.394,0,0,1-.454.277c-.2.506-.256,1.1-.862,1.483.229.621-.621,1.056-.383,1.743l-.429.157c.2.707-.2,1.355-.179,2.052a16.844,16.844,0,0,1-.008,2.043c-.061.648.349,1.225.209,1.87.2.147.192.435.391.584" transform="translate(8.498 8.489)" fill="#060708"/>
        <rect id="Rectángulo_324781" data-name="Rectángulo 324781" width="0.39" height="0.584" transform="translate(21.078 35.091)" fill="#b07d0b"/>
        <path id="Trazado_613857" data-name="Trazado 613857" d="M31.977,12.181c.344-.049.435.2.606.334s.386-.044.516.113c.039.111-.035.224.138.305h3.3c.133-.079.078-.187.094-.28.147-.216.434.019.6-.2.106-.138.206-.358.525-.255.012-.479.344-.861.2-1.436.533.152.9-.15,1.335-.182.115-.412.594-.646.5-1.114.14-.049.253.025.334-.147v-3.3c-.078-.137-.189-.073-.3-.106-.2-.135.039-.425-.182-.591-.142-.106-.329-.223-.272-.526-.461-.01-.842-.343-1.419-.2.152-.533-.152-.9-.184-1.336-.2-.083-.418-.13-.54-.339-.138-.238-.44-.01-.575-.164-.029-.133-.047-.223-.067-.324h-3.38c-.138.078-.073.189-.106.3-.135.2-.425-.039-.592.181-.106.143-.223.331-.526.272,0,.464-.359.837-.184,1.416-.543-.137-.921.132-1.348.194-.046.435-.712.58-.444,1.087-.192.066-.305-.008-.386.165v3.3c.078.133.187.078.28.094.216.145-.022.435.2.6.143.106.331.223.273.526.464,0,.837.359,1.419.182-.157.584.191.962.186,1.424" transform="translate(20.36 1.681)" fill="#060708"/>
        <path id="Trazado_613858" data-name="Trazado 613858" d="M23.413,13.523h-.975c-.241.277-.57.17-.869.2a.647.647,0,0,0-.5.191,5.823,5.823,0,0,0-1.7.361c-.292.083-.187.55-.6.434-.218-.062-.4.236-.7.208a.358.358,0,0,0-.322.451c-.169.226-.39.02-.565.167-.246.2-.319.559-.569.7a1.132,1.132,0,0,0-.624.645c-.074.243-.373.155-.513.351s.037.445-.187.616a1.006,1.006,0,0,1-.476.2c.137.6-.5.938-.422,1.519H14.06c.106.476-.3.871-.2,1.34s-.221.844-.208,1.286a11.084,11.084,0,0,1-.008,1.46c-.047.457.343.825.206,1.282-.145.491.361.881.186,1.328.645.37.624,1.012.8,1.556.066.218.321.1.456.278.187.255.024.71.4.8a.649.649,0,0,1,.537.553c.612.148.656,1.048,1.409,1.053a.363.363,0,0,1,.294.494,4.917,4.917,0,0,1,1.568.574c.032.02.01.121.014.184a14.583,14.583,0,0,0,2.173.4,5.48,5.48,0,0,0,2.4.027,10.848,10.848,0,0,0,2.175-.391c.118-.04.059-.15.1-.3.526.086.869-.5,1.433-.427.192-.093.1-.329.265-.478.2-.182.424-.037.621-.177s.108-.439.351-.513a1.142,1.142,0,0,0,.646-.623c.142-.25.51-.312.7-.57.116-.159.024-.314.071-.469.211-.1.569-.179.552-.415-.022-.321.29-.51.218-.8-.094-.363.359-.172.432-.5a7.25,7.25,0,0,0,.353-1.7.641.641,0,0,0,.191-.5c.03-.3-.076-.626.2-.867v-.974c-.24-.2-.186-.471-.2-.727A.787.787,0,0,0,32,21.121a9.012,9.012,0,0,0-.39-1.967c-.5-.255-.506-.81-.754-1.218-.074-.123-.2-.14-.38-.13.094-.493-.383-.726-.5-1.136-.769-.157-.84-1.346-1.789-1.191-.159-.243-.148-.611-.538-.589-.3.017-.476-.235-.727-.319.042-.481-.408-.138-.542-.322-.208-.29-.572-.007-.783-.208-.256-.241-.552-.073-.822-.128a.788.788,0,0,0-.638-.192c-.258-.012-.533.042-.729-.2" transform="translate(9.375 9.294)" fill="#ffcd57"/>
        <path id="Trazado_613859" data-name="Trazado 613859" d="M24.912,19.412h-.39v.78a.266.266,0,0,0,.39,0Z" transform="translate(16.854 13.342)" fill="#c89f46"/>
        <path id="Trazado_613860" data-name="Trazado 613860" d="M24.522,18.026v.78a.266.266,0,0,0,.39,0v-.78Z" transform="translate(16.854 12.389)" fill="#81672f"/>
        <path id="Trazado_613861" data-name="Trazado 613861" d="M18.426,13.912h.781v-.39h-.781a.264.264,0,0,0,0,.39" transform="translate(12.605 9.293)" fill="#c9a046"/>
        <path id="Trazado_613862" data-name="Trazado 613862" d="M19.814,13.912H20.6v-.39h-.781a.264.264,0,0,0,0,.39" transform="translate(13.559 9.293)" fill="#81682f"/>
        <rect id="Rectángulo_324782" data-name="Rectángulo 324782" width="0.585" height="0.39" transform="translate(30.446 22.816)" fill="#655127"/>
        <rect id="Rectángulo_324783" data-name="Rectángulo 324783" width="0.585" height="0.39" transform="translate(32.788 22.816)" fill="#dcaf4d"/>
        <rect id="Rectángulo_324784" data-name="Rectángulo 324784" width="0.39" height="0.584" transform="translate(41.376 33.532)" fill="#634f26"/>
        <rect id="Rectángulo_324785" data-name="Rectángulo 324785" width="0.39" height="0.584" transform="translate(41.376 31.193)" fill="#e1b24f"/>
        <path id="Trazado_613863" data-name="Trazado 613863" d="M34.928,7.784h2.153V5.852H34.974V3.729H33.051a3.643,3.643,0,0,0-.035.987c-.017.351,0,.705,0,1.09h-2.1V7.767H33v2.14h1.929Z" transform="translate(21.246 2.562)" fill="#e0e4e9"/>
        <path id="Trazado_613864" data-name="Trazado 613864" d="M19.306,23.16H17.384a5.555,5.555,0,0,0,.143,2.128c.116.267.121.506.457.614.224.074.246.391.413.577s.547.051.528.44c-.01.218.283.071.4.278v2.173h2.123V27.257h2.121V23.212a.259.259,0,0,0-.223-.051c-.3-.118.03-.513-.282-.639s-.223-.425-.272-.66c-.142-.132-.314-.029-.464-.071-.13-.17-.4-.25-.294-.489-.2-.194-.535.089-.626-.321-1.826-.638-1.826-.638-1.7-1.7,1.593-.437,1.323,1.011,1.7,1.7.729.035,1.412.035,2.165.035.01-.339.024-.683.029-1.029s0-.7,0-1.041a1.683,1.683,0,0,1-.208-.074c-.319-.175-.3-.565-.5-.813-.192-.226-.6-.172-.666-.585-.056-.343-.375-.386-.749-.356V14.806H19.318v2.116H17.357c0,1.289-.056,2.55.032,3.8.029.4.039,1.039.722,1.132.019.159.034.312.049.452.395.189.774.37,1.149.55,0,.11,0,.208,0,.3.456.442,1.169.1,1.665.584a.8.8,0,0,1,.051.975,1.013,1.013,0,0,1-1.276-.3c-.289-.361-.069-.915-.44-1.259" transform="translate(11.918 10.176)" fill="#060708"/>
        <path id="Trazado_613865" data-name="Trazado 613865" d="M20.644,19.319V17.9c-.164-.282-.587-.31-.666-.665H18.521v1.453c.381.012.339.457.651.634Z" transform="translate(12.73 11.843)" fill="#ffcb56"/>
        <path id="Trazado_613866" data-name="Trazado 613866" d="M18.507,19.756V21.23a1.251,1.251,0,0,1,.658.456H20.63V20.225c-.584-.675-1.389-.41-2.123-.469" transform="translate(12.72 13.575)" fill="#ffca56"/>
      </g>
    </g>
  </g>
</svg>
