<svg xmlns="http://www.w3.org/2000/svg" xmlns:xlink="http://www.w3.org/1999/xlink" width="125.266" height="117.283" viewBox="0 0 125.266 117.283">
  <defs>
    <clipPath id="clip-path">
      <rect id="Rectángulo_325368" data-name="Rectángulo 325368" width="125.266" height="117.283" fill="none"/>
    </clipPath>
  </defs>
  <g id="Grupo_876384" data-name="Grupo 876384" transform="translate(0 0)">
    <g id="Grupo_876383" data-name="Grupo 876383" transform="translate(0 0)" clip-path="url(#clip-path)">
      <path id="Trazado_615106" data-name="Trazado 615106" d="M.417,48.034A.866.866,0,0,1,0,47.491l.212-.361H.738c.149.117.151.122.158.6-.136.122-.219.339-.48.3" transform="translate(0 67.712)" fill="#e56659"/>
      <path id="Trazado_615107" data-name="Trazado 615107" d="M15.427,17.692v2.29c.173,1.433,1.5,1.34,2.39,1.708,7,2.895,11.837,7.856,13.665,15.232,2.407,9.732-.621,18.6-8.833,24.652-1.084.8-2.444,1.274-3.165,2.551.56,1.026,1.55.872,2.427.909,1.747.073,3.5-.071,5.249.071a5.023,5.023,0,0,1,4.966,5.21c.027,2.342.4,4.744-.726,6.979a1.559,1.559,0,0,0-.056,1.34c1.075,2.317.811,4.781.8,7.21a4.294,4.294,0,0,0,1.635,3.562c3.519,3,3.614,9.274.173,12.417a4.7,4.7,0,0,0-1.8,3.969,23.822,23.822,0,0,1-.733,7.639h5.485c.6-.346.836-1.1,1.81-1.462,6.462-.346,13.231.163,19.986-.256a67.311,67.311,0,0,0,21-9.654,7.189,7.189,0,0,0,1.759-1.433c.47-.614.412-1.111-.37-1.408a11.721,11.721,0,0,0-3.626-.273c-10.044-.01-20.086,0-30.13-.015-1.118,0-2.29.2-3.3-.463a1.37,1.37,0,0,1,.066-1.723c.729-.568,1.769-.5,2.763-1.538,1-4.932-.115-10.375.587-15.609,2.074-.889,7.415-.955,9.9-.132.88,5.295-.434,10.829.733,16A3.427,3.427,0,0,0,62,95.657c.88-1.067.768-2.32.772-3.528.022-5.872,0-11.745.017-17.615a5.233,5.233,0,0,1,.529-3.1,33.877,33.877,0,0,1,9.155-.061c.889,1.1.685,2.21.687,3.251.024,5.8,0,11.594.02,17.388a5.81,5.81,0,0,0,.692,3.6,3.186,3.186,0,0,0,3.731.068c.885-1.182.7-2.515.709-3.794.017-8.236,0-16.472.012-24.708a7.12,7.12,0,0,1,.517-3.526,37.665,37.665,0,0,1,9.657-.066c1.072.66.765,1.742.768,2.69.022,7.534,0,15.069.024,22.6,0,1.031-.212,2.149,1,3.28,4.652-4.369,7.256-9.9,9.328-15.761a14.4,14.4,0,0,0,.2-2.965q.007-22.084,0-44.17c0-1.279.151-2.61-.68-3.75-1.036-.86-2.286-.758-3.489-.763-5.249-.029-10.5,0-15.753-.019a5.452,5.452,0,0,1-2.9-.409,4.66,4.66,0,0,1-.463-2.87c-.019-5.266,0-10.529-.017-15.792a5.778,5.778,0,0,0-.641-3.484,4.587,4.587,0,0,0-3.3-.787q-26.028-.026-52.055,0a4.85,4.85,0,0,0-3.275.716A4.916,4.916,0,0,0,16.5,5.353q-.051,4.233,0,8.468a6.067,6.067,0,0,1-1.072,3.872" transform="translate(22.164 1.938)" fill="#d9e5bb"/>
      <path id="Trazado_615108" data-name="Trazado 615108" d="M48.7,102.725c.214-.8,1.306-1.026,1.367-1.979V92.737A8.136,8.136,0,0,0,54.186,88c0-1.189-.027-2.712,0-4.233a6.145,6.145,0,0,0-3.945-6.294c-.068-.029-.11-.1-.171-.168V71.823c0-2.176,0-2.176-1.345-4.627.263-.263.668-.509.814-.863s.192-.7.531-.924c0-2.139-.058-4.274.019-6.406A3.874,3.874,0,0,0,48.8,55.868c-.556-.524-1.082-1.075-1.521-1.513-2.478-1.045-4.966-.531-7.405-.636-.975-.044-1.954-.007-3.343-.007,1.382-.816,2.473-1.352,3.448-2.052a23.546,23.546,0,0,0,8.265-10.02,17.97,17.97,0,0,0,1.828-7.478c-.034-1.45.022-2.9-.01-4.347a19.721,19.721,0,0,0-2.987-9.506,21.15,21.15,0,0,0-4.145-5.158,22.306,22.306,0,0,0-9.866-5.417c-.236-.056-.412-.168-.361-.458-1.291.334-2.434-.495-3.692-.465-1.294.034-2.59.058-3.882,0a22.579,22.579,0,0,0-7.079,1.669,31.581,31.581,0,0,0-6.233,3.779,35.2,35.2,0,0,0-3.755,3.965A16.641,16.641,0,0,0,5.344,22.8,16.189,16.189,0,0,0,3.98,27.475c-.139,1.087-.709,2.079-.551,3.241.141,1.048-.024,2.135.039,3.2a21.644,21.644,0,0,0,1.8,7.264,26.648,26.648,0,0,0,5.543,8.229c1.54,1.581,3.577,2.466,5.275,3.828.246.2.743-.134,1.05.2a.6.6,0,0,1-.093.166.316.316,0,0,1-.183.1q-4.452.007-8.9,0c-.558.3-1.118.607-1.676.916a5.288,5.288,0,0,0-2.8,4.6c-.1,1.9-.022,3.811-.022,5.553.495.948.926,1.764,1.433,2.732a5.561,5.561,0,0,0-1.447,4.308c.068,1.674.015,3.353.015,4.586a6.144,6.144,0,0,0,4,4.44c.56,1.494-.429,2.851-.424,4.33,0,1.416.965,2.69.439,4.145-2.069.556-3.158,2.125-4.018,4.33,0,1.386.093,3.141-.024,4.881-.144,2.142,1.189,4.7,4.286,5.921a3.725,3.725,0,0,0,1.326.1c11.8,0,23.592-.019,35.386.049.941.007,1.657-.614,2.554-.5.692-.307.931-1.182,1.715-1.374" transform="translate(4.887 12.646)" fill="#040506"/>
      <path id="Trazado_615109" data-name="Trazado 615109" d="M16.477,19.63h1.606a1.072,1.072,0,0,0,.151-.163.392.392,0,0,0,.068-.2c0-5.022,0-10.044,0-15.139H76.766V27.376h23.341V78.722a21.743,21.743,0,0,0-.777,6.294c.039,7.917.022,15.831,0,23.748a5.424,5.424,0,0,1-.431,3.112,5.537,5.537,0,0,1-3.109.431q-14.463.022-28.928,0a24.191,24.191,0,0,0-6.518.768H37.957v3.894c1.891.317,60.469.436,66.2.132V24.372C96.062,16.263,87.928,8.112,79.839,0H14.7V19.5c.582.29,1.2.046,1.781.129" transform="translate(21.114 0.001)" fill="#050506"/>
      <path id="Trazado_615110" data-name="Trazado 615110" d="M73.265,26.479H61.4c-.032,3.628-.01,7.264-.015,10.9q0,5.5,0,10.992V59.394H57.768V34.32H45.933V59.389c-1.243.144-2.422.037-3.675.083V42.162H30.348V59.435H26.7v4.147H65.5a1.575,1.575,0,0,0,1.182.612,50.887,50.887,0,0,0,10.412-.151c1.7-3.117,1.211-4.081-2.688-5.872a11.921,11.921,0,0,1-.936-4.817c.046-8.136.027-16.275.01-24.411a4.928,4.928,0,0,0-.212-2.464" transform="translate(38.36 38.043)" fill="#050506"/>
      <path id="Trazado_615111" data-name="Trazado 615111" d="M63.593,26.479v32.9h3.365c.27.29.478.509.7.746v3.458H55.825c-.841,1.347-2.354,1.842-3.553,2.71a60.019,60.019,0,0,1-10.261,5.522,43.34,43.34,0,0,1-6.574,2.327c-.692.195-1.506.224-2.005.894H73.189V40.68c-.865.3-.3,1.274-.877,1.81a3.76,3.76,0,0,0-.921,1.874,8.031,8.031,0,0,1-1.5,3.039c-.775,1.033-1.157,2.273-1.857,3.36-.585.909-1.313,1.723-1.923,2.593a9.486,9.486,0,0,1-1.857,2.432c-.426-.458-.195-1.016-.2-1.518-.015-8.762,0-17.525-.034-26.285,0-.495.451-1.228-.434-1.506" transform="translate(48.032 38.043)" fill="#c5d99b"/>
      <path id="Trazado_615112" data-name="Trazado 615112" d="M28.551,40.409,31.3,43.168c3.933-3.94,7.9-7.922,12.03-12.057,2.425,2.432,4.927,4.942,7.344,7.364.972.309,1.355-.353,1.825-.821q5.333-5.333,10.651-10.68c.426-.426.833-.875,1.452-1.528v6.6h4.074V18.418H55.16v4.057h6.2c-.241.324.115-.063.1.241,0,.056-.1.107-.154.161-3.336,3.346-6.672,6.689-9.9,9.92-2.437-2.442-4.876-4.886-7.059-7.076-1.011-.051-1.447-.012-1.9.441-4.6,4.666-9.238,9.3-13.86,13.938-.041.041-.024.141-.044.309" transform="translate(41.019 26.462)" fill="#050606"/>
      <path id="Trazado_615113" data-name="Trazado 615113" d="M27.463,16.9H50.609V13.027c-1.862-.322-16.167-.422-23.146-.146Z" transform="translate(39.456 18.276)" fill="#080a08"/>
      <path id="Trazado_615114" data-name="Trazado 615114" d="M27.447,9.591v3.974H50.669c.1-1.24.017-2.571.051-3.974Z" transform="translate(39.433 13.78)" fill="#080a08"/>
      <path id="Trazado_615115" data-name="Trazado 615115" d="M50.7,10.377V6.393H27.477c-.1,1.25-.017,2.583-.049,3.984Z" transform="translate(39.405 9.186)" fill="#080a08"/>
      <path id="Trazado_615116" data-name="Trazado 615116" d="M24.27,16.815h3.36c.987-.575.636-1.479.68-2.266.037-.673.1-1.369-.677-1.774H24.27Z" transform="translate(34.869 18.355)" fill="#121612"/>
      <path id="Trazado_615117" data-name="Trazado 615117" d="M24.257,9.523V13.78c1.365-.249,2.78.422,4.04-.551V10.2c-1.145-1.126-2.58-.329-4.04-.677" transform="translate(34.85 13.682)" fill="#121612"/>
      <path id="Trazado_615118" data-name="Trazado 615118" d="M24.256,6.392v3.972h3.492c.093-.11.285-.341.551-.66V6.977c-.193-.192-.353-.356-.58-.585Z" transform="translate(34.849 9.184)" fill="#131612"/>
      <path id="Trazado_615119" data-name="Trazado 615119" d="M5.176,29.852a14.685,14.685,0,0,0,2.261,9.42c1.272,1.988,2.215,4.279,4.525,5.4,2.1,2.366,5.039,3.158,7.844,4.2.066.024.115.154.163.149,1.864-.171,3.653.882,5.492.446a10.517,10.517,0,0,1,2.559-.422,10.514,10.514,0,0,0,2.507-.585,12.3,12.3,0,0,0,2.337-.926,17.487,17.487,0,0,0,3.787-2.405,20.174,20.174,0,0,0,5.483-7.081,17.765,17.765,0,0,0,1.482-5.127,29.606,29.606,0,0,0,.363-3.935,19.133,19.133,0,0,0-.9-4.425,18.032,18.032,0,0,0-1.7-4.1,17.927,17.927,0,0,0-12.454-9.45c-.546-.09-.992-.485-1.64-.463-2.2.071-4.493-.353-6.6.112-3.331.741-6.584,1.954-9.033,4.6-1.5,1.628-3.246,3.017-4.25,5.1C5.936,23.4,4.766,26.48,5.176,29.852" transform="translate(7.317 15.006)" fill="#f48211"/>
      <path id="Trazado_615120" data-name="Trazado 615120" d="M5.117,34.745v6.006c.475.236.972.485,1.447.724.158-.136.353-.227.356-.319.022-1.065.015-2.13.015-3.292h3.631v3.48h4.025c.314-1.055-.041-2.271.18-3.5h3.991v3.528h3.679V37.812H26.5V41.36c1.245.139,2.425.034,3.679.08V37.868h4.14v3.47H38V37.844h4.057v3.477a2.081,2.081,0,0,0,1.881-1.979c.049-1.369.012-2.741.012-4.106-.292-.263-.595-.5-.451-.931a9.19,9.19,0,0,0-1.386-.643,4.215,4.215,0,0,0-1.138-.022q-16.444,0-32.886-.017a3.974,3.974,0,0,0-2.973,1.121" transform="translate(7.352 48.289)" fill="#9a683d"/>
      <path id="Trazado_615121" data-name="Trazado 615121" d="M5.785,28.923c-.317.317-.478.48-.663.663v5.95a1.419,1.419,0,0,0,1.725.668V32.7h3.679v3.265l.733.733h2.783c.168-.19.366-.419.673-.77v-3.28h3.6v3.333c.322.324.482.485.682.685h3.4V32.7h4.135v3.913h3.677V32.676h4.047c.278,1.209-.066,2.568.178,3.957h3.506V32.654h4.135V36.24c1.058.056,1.352-.741,1.852-1.14V30.124c-.412-.446-.77-.838-1.106-1.2Z" transform="translate(7.359 41.554)" fill="#b98757"/>
      <path id="Trazado_615122" data-name="Trazado 615122" d="M12.581,42.224V46.2h3.594V42.2h4.13v4.011h3.514c.607-1.272-.465-2.878.77-4.021h3.47v3.974h3.675V42.862l.641-.641h3.438V46.2h3.543c.655-1.211-.48-2.829.772-4.011h3.519v4.133c.655-.507,1.43-.443,1.786-1.428v-5.31c-.353-.356-.675-.677-1.05-1.053H7.718a3.463,3.463,0,0,0-1.1,2.926,12.877,12.877,0,0,1,0,2.057,2.435,2.435,0,0,0,1.73,2.717c.29-1.272-.049-2.624.19-4.008Z" transform="translate(9.483 55.36)" fill="#7a4b2d"/>
      <path id="Trazado_615123" data-name="Trazado 615123" d="M18.823,47.144V50.66h3.6V47.117h4.067v3.538c1.243.144,2.422.037,3.675.083V47.171h4.14v3.463H37.99V47.144h4.057v3.514c1.136.258,1.274-.831,1.891-1V44.544c-.39-.387-.765-.765-1.145-1.145H5.784c-.212.214-.426.431-.663.673v5.946a1.459,1.459,0,0,0,1.74.66V47.171h3.682v3.463h4.14V47.144Z" transform="translate(7.357 62.352)" fill="#633b1e"/>
      <path id="Trazado_615124" data-name="Trazado 615124" d="M42.1,19.038H58.155c-5.392-5.407-10.8-10.824-16.087-16.126A149.076,149.076,0,0,0,42.1,19.038" transform="translate(60.146 4.184)" fill="#5d9e1f"/>
      <path id="Trazado_615125" data-name="Trazado 615125" d="M42.648,57.227h3.887c.3-.375.154-.768.154-1.128q.018-13.03.007-26.063c0-.733.21-1.547-.655-2.032H42.648Z" transform="translate(61.272 40.234)" fill="#db2042"/>
      <path id="Trazado_615126" data-name="Trazado 615126" d="M39.78,31.2h-3.5V52.634c1.079.122,2.256.015,3.5.061Z" transform="translate(52.118 44.82)" fill="#ffc000"/>
      <path id="Trazado_615127" data-name="Trazado 615127" d="M29.883,34.407V47.992h3.472c-.027.027.037-.022.076-.083a.379.379,0,0,0,.068-.2c0-4.408,0-8.816,0-13.3Z" transform="translate(42.933 49.433)" fill="#9ab80c"/>
      <path id="Trazado_615128" data-name="Trazado 615128" d="M15.681,40.191h4.138V36.366c2.027-1.174,4.518-1.577,5.5-4.466V29.068c-.709-1.111-1.272-2.427-2.585-3.16A8.341,8.341,0,0,0,18.9,24.64a8.666,8.666,0,0,1-3.048-.331,5.224,5.224,0,0,1-1.915-1.3c-.09-.587,0-1.148.536-1.384a20.06,20.06,0,0,1,2.227-.714c.821-.249,1.413-.48,2.178.058.256.178.741.027,1.44.027.136.18.392.553.685.9.244.288.531.543.863.872H25.3a4.213,4.213,0,0,0-1.574-3.994,9.671,9.671,0,0,0-3.8-1.886V13.495c-.295-.3-.509-.512-.733-.736H15.871c-.3,1.289.049,2.651-.2,4.04a9.865,9.865,0,0,0-5.28,3.426,7.537,7.537,0,0,0-.577,3.509,7.449,7.449,0,0,0,1.764,2.488,6.421,6.421,0,0,0,4.847,2.093c1.109,0,2.081.831,3.039.475a4.778,4.778,0,0,1,2.213,1.63c-.292.244-.551.509-.441.9-2.03,1.087-4.052,1.681-6.572.263-.088-.085-.517-.519-.887-.889H9.9c.149,2.51,2.637,4.876,5.785,5.509Z" transform="translate(14.061 18.332)" fill="#060505"/>
    </g>
  </g>
</svg>
