<svg id="Grupo_876639" data-name="Grupo 876639" xmlns="http://www.w3.org/2000/svg" xmlns:xlink="http://www.w3.org/1999/xlink" width="91.002" height="90.986" viewBox="0 0 91.002 90.986">
  <defs>
    <clipPath id="clip-path">
      <rect id="Rectángulo_325524" data-name="Rectángulo 325524" width="91.002" height="90.986" fill="none"/>
    </clipPath>
  </defs>
  <g id="Grupo_876638" data-name="Grupo 876638" transform="translate(0 0)" clip-path="url(#clip-path)">
    <path id="Trazado_616174" data-name="Trazado 616174" d="M89.706,69.07a4.318,4.318,0,0,0,.053-5.969,3.641,3.641,0,0,0,1.179-2.923,3.889,3.889,0,0,0-1.248-2.886c1.333-1.187,1.325-2.711,1.217-4.259A8.245,8.245,0,0,0,87.8,49.946H85.126V23.573H79.212V21.923c0-3.913-.026-7.827.018-11.739a3.174,3.174,0,0,0-1.025-2.52,5.64,5.64,0,0,0-2.5-1.749H70.462V3.266A8.636,8.636,0,0,0,67.3.06H61.832a8.227,8.227,0,0,0-3.173,3.192V5.881h-2.9c0-.642-.045-1.3.013-1.953A2.265,2.265,0,0,0,55.1,2.189,6.581,6.581,0,0,0,52.428.056C51.1.056,49.517.069,47.935.05a2.4,2.4,0,0,0-1.9.74c-.334.355-.684.7-1.036,1.037a2.852,2.852,0,0,0-.983,2.348c.04.54.006,1.084.006,1.688h-8.8c0-.585-.018-1.237,0-1.887a2.359,2.359,0,0,0-.732-1.9c-.4-.377-.787-.769-1.166-1.166A2.777,2.777,0,0,0,31.123.045c-1.465.039-2.932.011-4.406.011-2.25,1.233-3.78,2.883-3.131,5.791H20.611v-2.5c-.381-.522-.581-1.057-.973-1.514a4.577,4.577,0,0,0-4.23-1.8,31.9,31.9,0,0,1-3.437.024A8.54,8.54,0,0,0,8.845,3.18V5.9c-.939.058-1.9.014-2.847.024-.917.008-1.832,0-2.749,0-.387.353-.9.479-1.314.829A5.21,5.21,0,0,0,0,11.118Q.1,47.984.045,84.852a7.393,7.393,0,0,0,3.162,3.253h52.5v2.881H85.051V76.37c1.233-.039,2.377.146,3.478-.507.593-.593,1.277-1.28,2.036-2.041-.037-.734.65-1.532.368-2.441a3.821,3.821,0,0,0-1.227-2.311" transform="translate(0 0)" fill="#040506"/>
    <path id="Trazado_616175" data-name="Trazado 616175" d="M75.089,15.807V12.862H1.9v63.69c.2.175.524.451.9.779H54.553v-2.87H7.726V15.807Z" transform="translate(1.154 7.793)" fill="#e0e4e9"/>
    <path id="Trazado_616176" data-name="Trazado 616176" d="M7.367,31.422v19.67c1.1-.042,2.256.369,3.388-.257a.921.921,0,0,1,.527-.047c1.866.252,3.657-.5,5.523-.406.787.04,1.556-.414,2.41-.353a3.32,3.32,0,0,0,2.41-.342c.039-.029.12-.01.18,0,1.863.226,3.661-.631,5.518-.352.7.106,1.155-.554,1.868-.408a5.878,5.878,0,0,0,1.823,0,5.179,5.179,0,0,0,1.163-.437V34.056a2.957,2.957,0,0,0-2.271-.5c-1.041.2-1.938-.438-2.961-.4-.927.032-1.916.284-2.778-.337-.04-.029-.119-.011-.18,0-1.8.228-3.539-.6-5.335-.355-.861.114-1.538-.517-2.417-.418-.726.084-1.562.3-2.226-.326-.032-.031-.119-.01-.18,0-2.153.294-4.246-.7-6.462-.287" transform="translate(4.463 18.975)" fill="#e65b73"/>
    <path id="Trazado_616177" data-name="Trazado 616177" d="M1.854,14.29H75.1V6.423l-.845-.894H69.292c0,.649-.018,1.3,0,1.953a2.364,2.364,0,0,1-.739,1.9c-.442.421-.875.853-1.3,1.3a2.4,2.4,0,0,1-1.9.721c-1.527-.018-3.054,0-4.582,0C58.528,10.151,57,8.5,57.646,5.6H54.669V8.121c-.393.5-.589,1.044-.975,1.5a4.55,4.55,0,0,1-4.235,1.792,32.493,32.493,0,0,0-3.422-.022A8.526,8.526,0,0,1,42.9,8.265V5.583c-2.892-.135-5.791-.011-8.752-.075V8.191a7.816,7.816,0,0,1-3.292,3.2H25.518A8.322,8.322,0,0,1,22.348,8.2V5.567h-2.9c0,.646-.043,1.306.013,1.956a2.264,2.264,0,0,1-.666,1.739,6.594,6.594,0,0,1-2.674,2.131c-1.331,0-2.916-.045-4.5.019a2.448,2.448,0,0,1-1.744-.652A6.744,6.744,0,0,1,7.72,8.1V5.583H2.71c-.251.252-.554.554-.856.856V14.29" transform="translate(1.123 3.337)" fill="#c0c7d0"/>
    <path id="Trazado_616178" data-name="Trazado 616178" d="M24.683,34.606v15.77a34.875,34.875,0,0,0,4.787,4A6.091,6.091,0,0,0,33.3,55.7c2.441-.032,4.882-.01,7.409-.01V35.186l-.856-.063a10.807,10.807,0,0,1-10.709,4.328V36.7c5.6-.092,6.3-1.063,9.6-4.445h8.644c1.291-.6,2.224-1.365,2.2-2.972H44.424c-3.543,0-7.083.024-10.624-.01a7.415,7.415,0,0,0-4.93,1.835,37.214,37.214,0,0,0-4.186,3.5" transform="translate(14.954 17.734)" fill="#efc5a5"/>
    <path id="Trazado_616179" data-name="Trazado 616179" d="M57.1,41.873a4.008,4.008,0,0,1,1.228-1.646A6.666,6.666,0,0,1,57.1,38.174v-1.98c.273-1.029,1.1-1.492,1.155-2.226a10.525,10.525,0,0,0-5.6-4.655c-2.63-.909-3.435-1.418-7.234-.506a12.982,12.982,0,0,1-.387,3.07,6,6,0,0,1-3.459,3.475,5.05,5.05,0,0,1-2.226.381c-.9-.056-1.8-.013-2.775-.013a44.305,44.305,0,0,0,.043,5.38,13.2,13.2,0,0,0,2.418,6.134,11.8,11.8,0,0,0,5.985,4.087,10.636,10.636,0,0,0,7.641-.344,17.054,17.054,0,0,0,3.783-2.338,2.776,2.776,0,0,0,.71-.97c.294-.536.427-1.245,1.2-1.511-.411-.726-1.068-1.122-1.253-1.818Z" transform="translate(22.117 17.162)" fill="#ffe594"/>
    <path id="Trazado_616180" data-name="Trazado 616180" d="M51.118,16.486h-5.6c-.207.26-.525.4-.578.845a7.576,7.576,0,0,1-1.749,4.032,13.24,13.24,0,0,1-3.1,2.695,4.516,4.516,0,0,1-2.568.845c-.454-.031-.649.238-.952.52v8.667c1.736,0,3.486,0,5.238,0,.782,0,1.322-.591,2.062-.785a14.068,14.068,0,0,1,6.889-.377,14.391,14.391,0,0,1,4.055,1.3,14.667,14.667,0,0,1,4.96,3.909A.977.977,0,0,0,59.926,38a.309.309,0,0,0,.058-.157c0-4.146,0-8.289,0-12.5-1.3-.761-2.883-.681-4.114-1.7a24.257,24.257,0,0,1-3.086-3.1c-1.033-1.22-.854-2.854-1.667-4.058" transform="translate(22.159 9.988)" fill="#afc96a"/>
    <path id="Trazado_616181" data-name="Trazado 616181" d="M36.578,41.457V54.176c1.188.752,2.8.615,4.024,1.644a24.011,24.011,0,0,1,3.1,3.1c1.017,1.23.882,2.842,1.665,4.074h5.606c.218-.223.6-.344.586-.8a6.155,6.155,0,0,1,1.652-3.883,11.2,11.2,0,0,1,2.621-2.42,7.193,7.193,0,0,1,3.319-1.3c.363-.037.5-.289.782-.488V51.071c-2.047-1.2-3.377-2.794-2.842-5.4.154-.723.867-1.167,1.124-1.877-.644-.612-1.113.063-1.405.265a15.54,15.54,0,0,1-4.427,2.173,9.7,9.7,0,0,1-3.035.641,15.076,15.076,0,0,1-11.681-4.551c-.289-.315-.6-.607-.909-.906-.018-.016-.084.016-.178.039" transform="translate(22.161 25.091)" fill="#afc96a"/>
    <path id="Trazado_616182" data-name="Trazado 616182" d="M14.654,23.829V34.063c1.5-.3,2.9.446,4.373.328,1.442-.117,2.777.761,4.31.292V23.829Z" transform="translate(8.878 14.437)" fill="#ffe594"/>
    <path id="Trazado_616183" data-name="Trazado 616183" d="M30.655,30.715v-6.9H21.988V35.163a2.653,2.653,0,0,1,1.962.464c2.407-1.457,4.228-3.575,6.7-4.912" transform="translate(13.322 14.431)" fill="#ffe594"/>
    <path id="Trazado_616184" data-name="Trazado 616184" d="M7.366,32.458a4.156,4.156,0,0,0,2.08.49c1.723-.067,3.4.591,5.14.361.467-.061.735.721,1.307.358a.755.755,0,0,0,.136-.109.264.264,0,0,0,.074-.149c0-3.162,0-6.324,0-9.566H7.366Z" transform="translate(4.463 14.446)" fill="#ffe594"/>
    <path id="Trazado_616185" data-name="Trazado 616185" d="M7.371,25.257h8.672V16.608c.021.022-.014-.029-.063-.063a.309.309,0,0,0-.156-.061c-2.8,0-5.595,0-8.453,0Z" transform="translate(4.466 9.987)" fill="#ffe594"/>
    <path id="Trazado_616186" data-name="Trazado 616186" d="M23.4,25.206V16.52H14.64c-.01,2.834,0,5.73,0,8.686Z" transform="translate(8.867 10.009)" fill="#ffe594"/>
    <path id="Trazado_616187" data-name="Trazado 616187" d="M21.958,16.522V25.2H30.6c-.024.022.027-.013.061-.061a.29.29,0,0,0,.061-.156c0-2.8,0-5.6,0-8.461Z" transform="translate(13.303 10.01)" fill="#ffe594"/>
    <path id="Trazado_616188" data-name="Trazado 616188" d="M29.281,25.257h8.673V16.608c.019.021-.016-.032-.066-.064a.3.3,0,0,0-.156-.058c-2.8,0-5.595,0-8.452,0Z" transform="translate(17.74 9.987)" fill="#ffe594"/>
    <path id="Trazado_616189" data-name="Trazado 616189" d="M23.4,52.374V44.368c-.9.136-1.847-.344-2.711.352-.074.061-.236.027-.355.013-1.861-.234-3.647.629-5.659.315-.071,2.454-.014,4.859-.039,7.328Z" transform="translate(8.865 26.859)" fill="#ffe594"/>
    <path id="Trazado_616190" data-name="Trazado 616190" d="M30.675,52.647v-3.9c-2.391-1.357-4.28-3.385-6.444-4.819-.536-.122-.779.175-1.094.305a3.4,3.4,0,0,1-1.15.027v8.386Z" transform="translate(13.321 26.597)" fill="#ffe594"/>
    <path id="Trazado_616191" data-name="Trazado 616191" d="M7.369,51.993h8.66V45.15a.855.855,0,0,0-.853-.045c-.255.148-.445.369-.784.32-1.86-.27-3.652.564-5.5.344-.605-.072-.946.416-1.526.454Z" transform="translate(4.465 27.271)" fill="#ffe594"/>
    <path id="Trazado_616192" data-name="Trazado 616192" d="M38.012,29.58V23.831H29.294a25.7,25.7,0,0,0-.043,2.786c-.018.968,0,1.937,0,2.963Z" transform="translate(17.711 14.438)" fill="#ffe594"/>
    <path id="Trazado_616193" data-name="Trazado 616193" d="M8.187,1.9c-.329.329-.588.588-.851.853V9.762l1.122.858h3.888L13.154,9.4V2.719L12.333,1.9Z" transform="translate(4.445 1.15)" fill="#ffcd58"/>
    <path id="Trazado_616194" data-name="Trazado 616194" d="M22.317,2.772c-.3-.292-.6-.589-.928-.9H17.337c-.228.284-.491.615-.862,1.079V9.8c.262.156.629.377,1,.6-.063.075-.124.153-.186.23h4.209c.148-.247.4-.662.822-1.37Z" transform="translate(9.981 1.132)" fill="#ffcd58"/>
    <path id="Trazado_616195" data-name="Trazado 616195" d="M33.911,1.871H30.189l-.946.891V9.756l.96.894h4.024l.854-1.121V2.7l-1.171-.833" transform="translate(17.717 1.134)" fill="#ffcd58"/>
    <path id="Trazado_616196" data-name="Trazado 616196" d="M43.315,1.862H39.271c-.275.292-.565.6-.891.947V9.793c.259.2.588.467,1.057.841h3.91c.276-.278.535-.535.838-.84V2.734c-.268-.27-.57-.57-.87-.872" transform="translate(23.253 1.128)" fill="#ffcd58"/>
    <path id="Trazado_616197" data-name="Trazado 616197" d="M29.263,47.591V50.4h8.689c.2-.861-.016-1.81.114-2.81Z" transform="translate(17.729 28.834)" fill="#ffe594"/>
    <path id="Trazado_616198" data-name="Trazado 616198" d="M36.578,21.9a5.91,5.91,0,0,0,5.415-5.373H36.578Z" transform="translate(22.161 10.014)" fill="#9bbe54"/>
    <path id="Trazado_616199" data-name="Trazado 616199" d="M47.774,16.519A5.925,5.925,0,0,0,53.2,21.955V16.519Z" transform="translate(28.944 10.008)" fill="#9bbe54"/>
    <path id="Trazado_616200" data-name="Trazado 616200" d="M36.577,56.879h5.307c.26-2.526-2.663-5.473-5.307-5.389Z" transform="translate(22.16 31.195)" fill="#9bbe54"/>
    <path id="Trazado_616201" data-name="Trazado 616201" d="M47.758,56.845h5.407V51.557c-2.153-.413-5.315,2.3-5.407,5.288" transform="translate(28.934 31.211)" fill="#9bbe54"/>
    <path id="Trazado_616202" data-name="Trazado 616202" d="M51.153,38.589l.907.909h4.076l.853-1.025V37.434l-1.334-.822H52.049c-.3.287-.6.583-.9.87Z" transform="translate(30.991 22.182)" fill="#ecc3a3"/>
    <path id="Trazado_616203" data-name="Trazado 616203" d="M52.048,40.242c-.268.289-.554.6-.885.957v1.1l1.015.846h3.991c.135-.23.35-.6.567-.965.075.059.151.117.226.175V41.109l-1.22-.867Z" transform="translate(30.997 24.381)" fill="#ecc3a3"/>
    <path id="Trazado_616204" data-name="Trazado 616204" d="M52.293,46.823h3.8c.289-.3.586-.6.9-.922V44.774c-.273-.239-.588-.519-.98-.862H51.986c-.169.23-.416.568-.806,1.106v.941l1.113.864" transform="translate(31.008 26.605)" fill="#ecc3a3"/>
    <path id="Trazado_616205" data-name="Trazado 616205" d="M51.153,33.985v1l1.11.843H56.11l.906-.869c0-.387,0-.75,0-1.113-.3-.3-.6-.6-.907-.907H52.036l-.883,1.049" transform="translate(30.991 19.955)" fill="#ecc3a3"/>
    <path id="Trazado_616206" data-name="Trazado 616206" d="M47.058,29.869c-1.988,5.948-3.934,11.784-5.884,17.621l2.744.912c1.951-5.842,3.9-11.676,5.873-17.584l-2.733-.949" transform="translate(24.946 18.097)" fill="#060606"/>
    <path id="Trazado_616207" data-name="Trazado 616207" d="M47.332,35.673h-.756l-.9,1.293V37.7l.93.894h1.127c.217-.259.483-.581.845-1.015V36.521l-1.245-.848" transform="translate(27.672 21.613)" fill="#0f0e0a"/>
    <path id="Trazado_616208" data-name="Trazado 616208" d="M41.989,33.845H41.1l-.9.972v1.065l1.23.9h.788l.9-.917V34.727l-1.129-.882" transform="translate(24.354 20.506)" fill="#0f0e0a"/>
  </g>
</svg>
