<svg xmlns="http://www.w3.org/2000/svg" xmlns:xlink="http://www.w3.org/1999/xlink" width="307.121" height="172.698" viewBox="0 0 307.121 172.698">
  <defs>
    <clipPath id="clip-path">
      <rect id="Rectángulo_325480" data-name="Rectángulo 325480" width="272.145" height="127.877" fill="none"/>
    </clipPath>
    <clipPath id="clip-path-3">
      <rect id="Rectángulo_325457" data-name="Rectángulo 325457" width="29.705" height="8.306" fill="none"/>
    </clipPath>
    <clipPath id="clip-path-4">
      <rect id="Rectángulo_325458" data-name="Rectángulo 325458" width="60.06" height="18.984" fill="none"/>
    </clipPath>
  </defs>
  <g id="Grupo_877363" data-name="Grupo 877363" transform="translate(-927.352 -8286.662)">
    <rect id="Imagen_4" data-name="Imagen 4" width="307.121" height="172.698" rx="19" transform="translate(927.352 8286.662)" fill="#ffb500"/>
    <g id="Grupo_876613" data-name="Grupo 876613" transform="translate(937.855 8317.742)">
      <g id="Grupo_876612" data-name="Grupo 876612" clip-path="url(#clip-path)">
        <g id="Grupo_876611" data-name="Grupo 876611" transform="translate(0 0)">
          <g id="Grupo_876610" data-name="Grupo 876610" clip-path="url(#clip-path)">
            <path id="Trazado_615825" data-name="Trazado 615825" d="M229.814,127.222s29.658,5.447,39.1-15.159c12.249-26.733-12.916-47-32.216-43.227-42.055,8.229-31.928-82.556-99.422-64.028C118.3,10.018,67.021-20.931,52.72,28.693c-3.4,11.8-15.449,13.1-32.94,20.588C-14.451,63.934,1.2,127.469,25.66,127.718s204.154-.5,204.154-.5" transform="translate(0 0.004)" fill="#ebf2f9"/>
            <path id="Trazado_615826" data-name="Trazado 615826" d="M808.279,676.031c-6.115-4.583-11.985,1.4-20.546-2.511s9.05-23.237,1.957-29.107-18.834,6.6-18.834,6.6,20.546-25.683,12.719-28.886-57.332-11.393-57.332-11.393l-8.945,51.6c-1.829-2.366-5.706-5.419-9.063-1.568-4.465,5.122,10.507,16.155,8.143,18.388s-8.012-7.224-12.79-3.525,1.351,10.044,1.351,10.044l13.409.187.006-.468h94.577s1.462-4.777-4.653-9.36" transform="translate(-641.219 -558.045)" fill="#a8d29f"/>
            <path id="Trazado_615827" data-name="Trazado 615827" d="M1129.171,570.761l-6.158,73.227s-.646,4.439,2.656,4.447c5.429.013,27.021,0,27.021,0s-4.086-.924-4.036-3c.059-2.451,7.2-75.364,7.2-75.364Z" transform="translate(-1026.074 -520.883)" fill="#d86713"/>
            <path id="Trazado_615828" data-name="Trazado 615828" d="M1173.237,633.036c-1.068,0-21.691.068-26.978,0-2.3-.029-2.708-2.048-2.727-3.356a6.56,6.56,0,0,1,.07-1.09l.16-1.9.408-4.851.361-4.286.463-5.507.39-4.649,4.376-52.033,26.681-.692s-3.007,30.514-5.134,52.726c-.238,2.475-.463,4.848-.672,7.063q-.1,1.061-.2,2.072c-.2,2.1-.377,4.031-.534,5.735-.083.9-.159,1.733-.228,2.5-.271,3-.43,4.908-.433,5.272a3.088,3.088,0,0,0,.052.593c.438,2.334,3.54,2.41,3.941,2.41" transform="translate(-1044.869 -506.812)" fill="#ee9849"/>
            <path id="Trazado_615829" data-name="Trazado 615829" d="M572.025,116.254H443.931l15,60.257,2.054,8.253,6.987,28.066h129.8Z" transform="translate(-405.629 -106.223)" fill="#f1a34f"/>
            <path id="Trazado_615830" data-name="Trazado 615830" d="M421.911,116.253l-2.079.693,23.357,97.979,2.764-2.1Z" transform="translate(-383.61 -106.222)" fill="#ee9849"/>
            <path id="Trazado_615831" data-name="Trazado 615831" d="M690.552,1237.695H819.558l3.562-2.1h-129.8Z" transform="translate(-630.971 -1128.992)" fill="#d86713"/>
            <rect id="Rectángulo_325456" data-name="Rectángulo 325456" width="27.932" height="1.327" transform="translate(104.883 126.253)" fill="#f1a34f"/>
            <path id="Trazado_615832" data-name="Trazado 615832" d="M1177.351,1259.887l-.144,1.015-26.268,5.307.361-4.286.172-2.036Z" transform="translate(-1051.637 -1151.185)" fill="#d86713"/>
            <g id="Grupo_876606" data-name="Grupo 876606" transform="translate(98.663 117.949)" opacity="0.4">
              <g id="Grupo_876605" data-name="Grupo 876605">
                <g id="Grupo_876604" data-name="Grupo 876604" clip-path="url(#clip-path-3)">
                  <path id="Trazado_615833" data-name="Trazado 615833" d="M1173.245,1375.338c-1.068,0-21.691.068-26.978,0-2.3-.028-2.708-2.048-2.727-3.356l26.144-4.919c-.271,3-.43,4.908-.432,5.272a3.069,3.069,0,0,0,.052.593c.438,2.333,3.54,2.41,3.941,2.41" transform="translate(-1143.54 -1367.063)" fill="#d86713"/>
                </g>
              </g>
            </g>
            <g id="Grupo_876609" data-name="Grupo 876609" transform="translate(57.619 87.622)" opacity="0.4">
              <g id="Grupo_876608" data-name="Grupo 876608">
                <g id="Grupo_876607" data-name="Grupo 876607" clip-path="url(#clip-path-4)">
                  <path id="Trazado_615834" data-name="Trazado 615834" d="M727.877,1015.577l-55.334,18.973-4.725-18.984Z" transform="translate(-667.817 -1015.566)" fill="#d86713"/>
                </g>
              </g>
            </g>
            <path id="Trazado_615835" data-name="Trazado 615835" d="M572.023,116.253H443.929l19.306,77.592,129.573.025Z" transform="translate(-405.627 -106.222)" fill="#699dee"/>
            <path id="Trazado_615836" data-name="Trazado 615836" d="M1441.02,1093.073a4.39,4.39,0,0,0-4.117-3.447,2.758,2.758,0,0,0-2.777,3.447,4.389,4.389,0,0,0,4.116,3.447,2.758,2.758,0,0,0,2.777-3.447" transform="translate(-1310.332 -995.614)" fill="#d86713"/>
            <path id="Trazado_615837" data-name="Trazado 615837" d="M642.96,234.536H523.024l-13.582-54.108-1.041-4.149-.889-3.539-2.083-8.3H623.636l2.288,8.3.976,3.539,1.144,4.149Z" transform="translate(-461.821 -150.252)" fill="#e9f3fe"/>
            <path id="Trazado_615838" data-name="Trazado 615838" d="M623.635,164.44H505.428l2.083,8.3H625.923Z" transform="translate(-461.82 -150.252)" fill="#afcdfb"/>
            <path id="Trazado_615839" data-name="Trazado 615839" d="M995.409,413.227h11.957l1.551,5.994H996.961Z" transform="translate(-909.527 -377.574)" fill="#a8d29f"/>
            <path id="Trazado_615840" data-name="Trazado 615840" d="M737.874,482.7h11.957l1.48,5.72H739.385Z" transform="translate(-674.211 -441.049)" fill="#a8d29f"/>
            <path id="Trazado_615841" data-name="Trazado 615841" d="M1412.568,413.227h11.958l1.551,5.994H1414.12Z" transform="translate(-1290.694 -377.574)" fill="#a8d29f"/>
            <path id="Trazado_615842" data-name="Trazado 615842" d="M1447.717,553.75h11.957l1.481,5.72h-11.926Z" transform="translate(-1322.81 -505.973)" fill="#a8d29f"/>
            <path id="Trazado_615843" data-name="Trazado 615843" d="M1344.5,691.1h23.979l1.486,5.994h-23.914Z" transform="translate(-1228.501 -631.473)" fill="#a8d29f"/>
            <rect id="Rectángulo_325459" data-name="Rectángulo 325459" width="119.094" height="0.348" transform="translate(48.819 35.479)" fill="#afcdfb"/>
            <rect id="Rectángulo_325460" data-name="Rectángulo 325460" width="119.003" height="0.348" transform="translate(50.528 41.473)" fill="#afcdfb"/>
            <rect id="Rectángulo_325461" data-name="Rectángulo 325461" width="119.44" height="0.348" transform="translate(51.709 47.466)" fill="#afcdfb"/>
            <rect id="Rectángulo_325462" data-name="Rectángulo 325462" width="119.299" height="0.348" transform="translate(53.469 53.46)" fill="#afcdfb"/>
            <rect id="Rectángulo_325463" data-name="Rectángulo 325463" width="119.402" height="0.348" transform="translate(54.984 59.454)" fill="#afcdfb"/>
            <rect id="Rectángulo_325464" data-name="Rectángulo 325464" width="119.594" height="0.348" transform="translate(56.41 65.447)" fill="#afcdfb"/>
            <rect id="Rectángulo_325465" data-name="Rectángulo 325465" width="119.742" height="0.348" transform="translate(57.88 71.441)" fill="#afcdfb"/>
            <rect id="Rectángulo_325466" data-name="Rectángulo 325466" width="119.75" height="0.348" transform="translate(59.49 77.435)" fill="#afcdfb"/>
            <path id="Trazado_615844" data-name="Trazado 615844" d="M562.546,195.885a.784.784,0,0,0-.779,1.038,1.417,1.417,0,0,0,1.3,1.037.784.784,0,0,0,.779-1.037,1.417,1.417,0,0,0-1.3-1.038" transform="translate(-513.269 -178.984)" fill="#e9f3fe"/>
            <path id="Trazado_615845" data-name="Trazado 615845" d="M602.5,195.885a.784.784,0,0,0-.779,1.038,1.417,1.417,0,0,0,1.3,1.037.784.784,0,0,0,.779-1.037,1.417,1.417,0,0,0-1.3-1.038" transform="translate(-549.774 -178.984)" fill="#e9f3fe"/>
            <path id="Trazado_615846" data-name="Trazado 615846" d="M646.814,196.922a1.417,1.417,0,0,0-1.3-1.037.784.784,0,0,0-.779,1.037,1.417,1.417,0,0,0,1.3,1.037.784.784,0,0,0,.779-1.037" transform="translate(-589.082 -178.984)" fill="#e9f3fe"/>
            <path id="Trazado_615847" data-name="Trazado 615847" d="M663.336,359.486l.337-.087L649.68,305.335h9.833l-1.144-4.149h-9.764l-.011-.044-.169.044H636.648l-.011-.044-.168.044H624.691l-.011-.044-.169.044H612.734l-.011-.044-.169.044H600.777l-.011-.044-.168.044H588.82l-.011-.044-.168.044H576.863l-.011-.044-.169.044H564.906l-.011-.044-.168.044H552.948l-.011-.044-.169.044h-12.9l1.041,4.149h12.75l14.016,54.152.337-.087-13.993-54.064h11.6l14.016,54.152.337-.087-13.993-54.064h11.6l14.016,54.152.337-.087-13.993-54.064h11.6l14.016,54.152.337-.087-13.993-54.064h11.6l14.016,54.152.337-.087-13.993-54.064h11.6l14.016,54.152.337-.087-13.993-54.064h11.6l14.016,54.152.337-.087-13.993-54.064h11.6l14.016,54.152.337-.087-13.993-54.064h11.6Z" transform="translate(-493.292 -275.159)" fill="#afcdfb"/>
            <rect id="Rectángulo_325467" data-name="Rectángulo 325467" width="25.026" height="25.027" transform="translate(227.364 61.271)" fill="#d86713"/>
            <rect id="Rectángulo_325468" data-name="Rectángulo 325468" width="25.027" height="25.027" transform="translate(235.08 61.271)" fill="#ee9849"/>
            <path id="Trazado_615848" data-name="Trazado 615848" d="M2853.493,903.579a1.828,1.828,0,1,0,.015,3.656h0a1.828,1.828,0,0,0-.016-3.656" transform="translate(-2605.634 -825.619)" fill="#ebf2f9"/>
            <path id="Trazado_615849" data-name="Trazado 615849" d="M2853.51,764.813h0a1.828,1.828,0,1,0-1.835-1.82,1.827,1.827,0,0,0,1.835,1.82" transform="translate(-2605.635 -695.486)" fill="#ebf2f9"/>
            <rect id="Rectángulo_325469" data-name="Rectángulo 325469" width="15.664" height="3.656" transform="translate(240.003 71.989) rotate(-0.238)" fill="#ebf2f9"/>
            <rect id="Rectángulo_325470" data-name="Rectángulo 325470" width="21.394" height="21.394" transform="translate(12.88 78.61)" fill="#4a75cb"/>
            <rect id="Rectángulo_325471" data-name="Rectángulo 325471" width="21.394" height="21.394" transform="translate(19.477 78.61)" fill="#699dee"/>
            <rect id="Rectángulo_325472" data-name="Rectángulo 325472" width="13.39" height="3.125" transform="translate(23.692 87.745)" fill="#ebf2f9"/>
            <path id="Trazado_615850" data-name="Trazado 615850" d="M801.189,1369.647l1.249,5.258,1.87-.011.068-5.247Z" transform="translate(-732.063 -1251.475)" fill="#e49963"/>
            <path id="Trazado_615851" data-name="Trazado 615851" d="M983.5,1364.916l3.552,5.034,1.385-1.778-2.138-3.948Z" transform="translate(-898.646 -1246.52)" fill="#e49963"/>
            <path id="Trazado_615852" data-name="Trazado 615852" d="M696.729,562.608a3.623,3.623,0,0,0-1.96-.375.917.917,0,0,1,.413-.2,3.039,3.039,0,0,0-1.084.283c-4.668-1.8-5.4,5.074-5.3,6.671s-1.568,2.118-4,3.376c-4.633,2.4-5.04,5.615-5.04,5.615.036.021.074.046.114.073.23-.39.7-1.121,1.1-1.231a16.56,16.56,0,0,0-.642,1.564c1.367,1.04,3.924,3.344,5.706,4.977a2.622,2.622,0,0,1,.121-1.012l.22,1.326c.954.877,1.611,1.493,1.611,1.493-.118-1.29,5.835-8.1,8.942-10.138a8.978,8.978,0,0,0,1.045-3.234,8.493,8.493,0,0,1-.635,2.926c2.63-2.421,1.1-11.144-.612-12.116" transform="translate(-621.109 -513.531)" fill="#163560"/>
            <path id="Trazado_615853" data-name="Trazado 615853" d="M830.114,665.294a4.3,4.3,0,0,1-2.639.482,3.426,3.426,0,0,1-1.758-1.685c.454-.09.585-.714.575-3.4l.205.04,3.451.683s-.078,1.086-.081,2.109c0,.859.05,1.674.247,1.766" transform="translate(-754.474 -603.691)" fill="#e49963"/>
            <path id="Trazado_615854" data-name="Trazado 615854" d="M831.451,573.027a2.758,2.758,0,0,1,3.84-.093,14.966,14.966,0,0,0-3.84.093" transform="translate(-759.714 -522.825)" fill="#e37970"/>
            <path id="Trazado_615855" data-name="Trazado 615855" d="M838.217,661.847s-.078,1.086-.081,2.109c-1.931-.054-2.952-1.816-3.37-2.792Z" transform="translate(-762.743 -604.119)" fill="#d68d5d"/>
            <path id="Trazado_615856" data-name="Trazado 615856" d="M817.032,581.716a10.149,10.149,0,0,1-1.255-2.966c-.173-.976.324-4.594,3.96-4.073a4.942,4.942,0,0,1,2.049.774c.789.533,1.929,1.684.655,4.842l-.331,1.067Z" transform="translate(-745.366 -525.047)" fill="#163560"/>
            <path id="Trazado_615857" data-name="Trazado 615857" d="M826.735,974.81l-1.829.056-1.98.061a39.085,39.085,0,0,1-7.139-13.255q-.09-.285-.19-.576c-1.4-4.094-4.315-9.233-5.849-13.884-.244-.741-.463-1.438-.66-2.1-.063-.211-.124-.419-.183-.624a49.329,49.329,0,0,1-1.759-9.261l11.076.089a206.465,206.465,0,0,0,8.513,39.493" transform="translate(-737.506 -854.537)" fill="#2b478b"/>
            <path id="Trazado_615858" data-name="Trazado 615858" d="M766.4,710.477c-.028,5.271.773,7.532.773,7.532a14.883,14.883,0,0,1-10.379.636c-.067-.021-4.667-1.071-4.667-1.071.094-.213.933-3.765,1.025-3.961,1.19-2.556,2.094-3.676,2.235-4.462a16.709,16.709,0,0,0,.137-4.416,35.434,35.434,0,0,0-1.367-6.935,35.991,35.991,0,0,0,4.572-1.563,3.571,3.571,0,0,0,2.466.915c1.123-.025,1.487-.505,1.429-1.03,1.2.666,2.151,1.295,2.151,1.295,1.017,1.766,3.079,3.481,3.229,6.191.037.666-1.6,6.721-1.6,6.868" transform="translate(-687.234 -636.062)" fill="#e7f1fd"/>
            <path id="Trazado_615859" data-name="Trazado 615859" d="M884.208,702.647c-1.626-1.9-5.839-6.018-10.186-6.524l3.751,7.308a3.234,3.234,0,0,0,1.322,1.982,21.769,21.769,0,0,0,6.181,2.578,32.464,32.464,0,0,0,5.546-3.369,19.223,19.223,0,0,0,2.772-3.546l-.476-1.594s-3,1.677-4.07,2.16c-.611.276-2.016.934-3.007,1.4a1.545,1.545,0,0,1-1.832-.395" transform="translate(-798.612 -636.062)" fill="#c65447"/>
            <path id="Trazado_615860" data-name="Trazado 615860" d="M833.275,598.664s-4.569.075-4.572-2.771-.595-4.753,2.322-4.922,3.485.917,3.717,1.867-.279,5.733-1.467,5.826" transform="translate(-757.156 -539.967)" fill="#e49963"/>
            <path id="Trazado_615861" data-name="Trazado 615861" d="M817.547,584.222s-1.251,3.339-3.171,3.833a3.78,3.78,0,0,1-2.753-.021,5.437,5.437,0,0,0,1.778-3.212s3.2-2.189,4.145-.6" transform="translate(-741.598 -533.287)" fill="#163560"/>
            <path id="Trazado_615862" data-name="Trazado 615862" d="M876.685,587.724a4.035,4.035,0,0,1,1.162,1.47c.228.725.33,2.217.765,2.166,0,0,.942-2.27-.117-3.553-1.123-1.361-1.81-.083-1.81-.083" transform="translate(-801.046 -536.518)" fill="#163560"/>
            <path id="Trazado_615863" data-name="Trazado 615863" d="M1095.332,713.612a2.852,2.852,0,0,1,3.2-1.994c.293.092,1.149.433.6,1.349-.4.675-.578.327-1.212,1.234a2.021,2.021,0,0,1-2.109,1Z" transform="translate(-1000.828 -650.192)" fill="#e49963"/>
            <path id="Trazado_615864" data-name="Trazado 615864" d="M812.1,1427.183a5.066,5.066,0,0,1-.238,2.156s-.306,1.394,1.067,1.42,1.71-.1,1.555-.959-.451-2.334-.451-2.334Z" transform="translate(-741.79 -1304.047)" fill="#e49963"/>
            <path id="Trazado_615865" data-name="Trazado 615865" d="M813.345,1453.808s-.029.018-.086.046H810.57a.653.653,0,0,1-.076-.046,6.743,6.743,0,0,1,.1-2.016c1.556,1.425,2.529-.036,2.529-.036a7.3,7.3,0,0,1,.224,2.052" transform="translate(-740.519 -1326.5)" fill="#c45446"/>
            <path id="Trazado_615866" data-name="Trazado 615866" d="M1024.088,1414.229a34.359,34.359,0,0,1-3.31-4.241l-1.883.965,4.209,3.953.985-.13Z" transform="translate(-930.986 -1288.335)" fill="#e49963"/>
            <path id="Trazado_615867" data-name="Trazado 615867" d="M1020.6,1425.9h-3.465a4.919,4.919,0,0,1-1.033-1.6,1.7,1.7,0,0,0-1.147-.766v2.341h-.719l-.681-2.488a2.289,2.289,0,0,1,.28-2.222c.367,0,1.354.25,3.224,2.358a2.452,2.452,0,0,0,1.968.918l.028.015a2.512,2.512,0,0,1,1.544,1.446" transform="translate(-925.932 -1298.549)" fill="#c45446"/>
            <path id="Trazado_615868" data-name="Trazado 615868" d="M873.8,696.123s2.644,6.531,2.721,7.852.311,21.612.311,21.612-.156.933,1.633.544a6,6,0,0,0,2.255-.778s-1.71-12.516-1.244-16.87S875.9,697.03,875.9,697.03Z" transform="translate(-798.407 -636.062)" fill="#c65447"/>
            <path id="Trazado_615869" data-name="Trazado 615869" d="M843.537,1059.84l-1.98.061a39.084,39.084,0,0,1-7.139-13.255q-.09-.285-.19-.576c-1.4-4.094-4.315-9.233-5.849-13.884-.244-.741-.463-1.438-.66-2.1-.063-.211-.124-.419-.183-.624l1.631-1.238s4.9,7.93,6.413,15.392c1.317,6.482,6.591,14.282,7.956,16.222" transform="translate(-756.138 -939.511)" fill="#233862"/>
            <path id="Trazado_615870" data-name="Trazado 615870" d="M896.965,807.7l-.1.3-5.126-1.666a.2.2,0,0,1-.032-.183.146.146,0,0,1,.129-.113Z" transform="translate(-814.766 -736.491)" fill="#163560"/>
            <path id="Trazado_615871" data-name="Trazado 615871" d="M758.579,1022.026c.028,3.629-.156,11.972-.628,15.426H756.2c-.969,0-1.453-.014-1.453-.014-1.186-6.006-2.029-10.975-2.643-15.257-.5-3.514-.952-6.526-1.3-9.12-.347-2.61-.588-4.8-.674-6.642q-.02-.436-.029-.848t0-.8l9.57-.933c-.12,6.359-1.1,16.083-1.088,18.192" transform="translate(-685.378 -917.224)" fill="#2b478b"/>
            <path id="Trazado_615872" data-name="Trazado 615872" d="M756.562,1064.836c-.969,0-1.453-.014-1.453-.014-1.186-6.006-2.029-10.975-2.643-15.257-.5-3.514-.952-6.527-1.3-9.12-.347-2.61-.588-4.8-.674-6.642l3.512,2.066s-2.241.791-1.386,6.777,2.75,21.343,3.941,22.19" transform="translate(-685.744 -944.608)" fill="#233862"/>
            <path id="Trazado_615873" data-name="Trazado 615873" d="M734.384,726.609s-.674,2.436-3.006,2.125a28.11,28.11,0,0,1-5.649-1.71s1-3.149,2.236-7.287c1.5-5.009,3.358-11.466,4.233-15.539a25.22,25.22,0,0,0,.476-2.777l1.935-3.754s2.885,6.475,3.041,8.108-3.265,20.835-3.265,20.835" transform="translate(-663.114 -637.472)" fill="#c65447"/>
            <path id="Trazado_615874" data-name="Trazado 615874" d="M755.881,705.53l2.554-7.864a39.389,39.389,0,0,0-4.845,1.775,11.271,11.271,0,0,0-1.638,4.315s-.661,7.226.816,9.87c0,0,4.665.933,12.128-1.633v-1.71s-8.163.428-9.834.622Z" transform="translate(-686.94 -637.472)" fill="#e49963"/>
            <path id="Trazado_615875" data-name="Trazado 615875" d="M757.959,778.36c-.1,2.643-.726,7.774-6.271,10.521l-.044.021c1.5-5.009,3.358-11.466,4.233-15.539,1.018,1.522,2.139,3.542,2.083,5" transform="translate(-686.792 -706.638)" fill="#aa413e"/>
            <path id="Trazado_615876" data-name="Trazado 615876" d="M755.811,697.666s-4.734.333-5.874,2.873-1.5,10.988-.052,13.475a13.213,13.213,0,0,0,5.532-.092l.131-.025s1.127-2.76.116-3.3c0,0-2.98.155-2.669-.829s2.817-12.1,2.817-12.1" transform="translate(-684.315 -637.472)" fill="#c65447"/>
            <path id="Trazado_615877" data-name="Trazado 615877" d="M893.834,814.827a4.084,4.084,0,0,0,.789-1.593,1.731,1.731,0,0,1,1.691-1.549c1.122-.147,1.6-.163,1.6.153a8.377,8.377,0,0,1-2.528,3.844c-1.611,1.319-1.555-.856-1.555-.856" transform="translate(-816.714 -741.561)" fill="#e49963"/>
            <path id="Trazado_615878" data-name="Trazado 615878" d="M952.073,825.631l-.369-.285-.1.3Z" transform="translate(-869.505 -754.136)" fill="#163560"/>
            <rect id="Rectángulo_325473" data-name="Rectángulo 325473" width="41.44" height="41.441" transform="translate(215.028 86.297)" fill="#d86713"/>
            <rect id="Rectángulo_325474" data-name="Rectángulo 325474" width="41.441" height="41.441" transform="translate(202.251 86.297)" fill="#f1a34f"/>
            <path id="Trazado_615879" data-name="Trazado 615879" d="M2455.16,1100h-9.942v-9.942h-6.053V1100h-9.942v6.053h9.942v9.942h6.053v-9.942h9.942Z" transform="translate(-2219.632 -996.006)" fill="#ebf2f9"/>
            <path id="Trazado_615880" data-name="Trazado 615880" d="M2824.458,1000.208l12.778,6.222v-6.222Z" transform="translate(-2580.767 -913.911)" fill="#c95c12"/>
            <path id="Trazado_615881" data-name="Trazado 615881" d="M2329.279,1127.429a.739.739,0,0,1,.132.791.006.006,0,0,1,0,0,4.912,4.912,0,0,1-1.553,1.7c-.093.076-.177.145-.249.208l-.056.05-.043.039c-.683.629-.426.774-1.652,2.051-1.4,1.455-2.362,1.481-2.635,1.349-.232-.113.239-.885.761-1.752l.076-.126c.07-.115.139-.232.208-.348.611-1.044.455-1.534.31-3.087-.118-1.262-1.964-7.053-1.964-7.053l2.68-.461s.807,4.611,1.7,5.321c.476.378,1.007.383,1.464.664q.049.029.1.06a3.522,3.522,0,0,1,.733.589" transform="translate(-2122.218 -1024.094)" fill="#e49963"/>
            <path id="Trazado_615882" data-name="Trazado 615882" d="M2335.1,1190.809a.739.739,0,0,1,.132.791.008.008,0,0,1,0,0,5.7,5.7,0,0,1-1.556,1.7c-.093.077-.174.147-.247.213l-.056.05-.043.039c-.683.629-.426.774-1.652,2.051-1.4,1.455-2.361,1.481-2.635,1.349-.231-.113.239-.885.761-1.752a5.956,5.956,0,0,0,2.492-1.837c.842-1.075,1.4-2.455,1.977-3.255q.049.029.1.06a3.522,3.522,0,0,1,.733.589" transform="translate(-2128.04 -1087.474)" fill="#c65447"/>
            <path id="Trazado_615883" data-name="Trazado 615883" d="M2064.274,1117.12c-.166.827-1.344.689-2.661.367s-1,.061-2.879-.147-2.443-.907-2.5-1.186c-.051-.247.875-.334,1.869-.449l.376-.045a8.107,8.107,0,0,0,2.962-1.459,11.906,11.906,0,0,0,2.406-2.857l2.571.2s-1.349,2.049-1.871,2.941a3.111,3.111,0,0,0-.252,1.752,3.258,3.258,0,0,1-.02.88" transform="translate(-1878.822 -1015.458)" fill="#e49963"/>
            <path id="Trazado_615884" data-name="Trazado 615884" d="M2061.612,1163.679c-1.318-.322-1,.061-2.879-.147s-2.443-.906-2.5-1.185c-.051-.247.875-.335,1.869-.449l.009.019a5.284,5.284,0,0,0,2.685.835c1.272.031,2.62-.333,3.5-.319a3.3,3.3,0,0,1-.02.879c-.166.827-1.344.689-2.662.367" transform="translate(-1878.821 -1061.65)" fill="#c65447"/>
            <path id="Trazado_615885" data-name="Trazado 615885" d="M2170.066,721.714s-.613-1.5-1.286-1.562-2.818-.4-2.971-.092a2.119,2.119,0,0,0,.459,1.807,16.385,16.385,0,0,0,3.308,1.042Z" transform="translate(-1978.892 -657.818)" fill="#e49963"/>
            <path id="Trazado_615886" data-name="Trazado 615886" d="M2263.662,944.077l5.542,14.913a5.076,5.076,0,0,0,1.667-.153,7.189,7.189,0,0,0,1.611-.785s-1.375-14.319-3.895-17.3-4.926,3.322-4.926,3.322" transform="translate(-2068.356 -858.856)" fill="#aa413e"/>
            <path id="Trazado_615887" data-name="Trazado 615887" d="M2160.934,871.22s-15.923-5.384-19.474-4.239-14.213,22.359-14.213,22.359a2.055,2.055,0,0,0,.9.567,8.469,8.469,0,0,0,2.09.214s9.622-8.248,10.768-10.654,1.6-4.7,2.75-4.468,14.778,5.613,17.87,2.406a8.927,8.927,0,0,0,2.284-7.375Z" transform="translate(-1943.71 -792.033)" fill="#c65447"/>
            <path id="Trazado_615888" data-name="Trazado 615888" d="M2388.945,484.07a9.058,9.058,0,0,1-.678-3.12,9.575,9.575,0,0,0,1.114,3.448c3.312,2.174,9.659,9.434,9.533,10.809,0,0,2.235-3.792,2.274-3.815,0,0,4.125-5.244-.764-8.248-2.484-1.527-2.472-3.486-2.368-5.188s-.678-9.03-5.654-7.112a3.241,3.241,0,0,0-1.157-.3.975.975,0,0,1,.441.209,3.864,3.864,0,0,0-2.09.4c-1.824,1.037-3.457,10.337-.652,12.918" transform="translate(-2181.451 -429.93)" fill="#b5453c"/>
            <path id="Trazado_615889" data-name="Trazado 615889" d="M2412.247,580.634a4.586,4.586,0,0,0,2.813.514,3.647,3.647,0,0,0,1.874-1.8c-.484-.1-.624-.761-.613-3.62l-.219.043-3.68.729s.084,1.158.086,2.249c0,.916-.053,1.785-.262,1.882" transform="translate(-2204.121 -526.057)" fill="#e49963"/>
            <path id="Trazado_615890" data-name="Trazado 615890" d="M2414.294,576.96s.084,1.158.086,2.249c2.059-.058,3.147-1.936,3.594-2.977Z" transform="translate(-2205.991 -526.514)" fill="#d68d5d"/>
            <path id="Trazado_615891" data-name="Trazado 615891" d="M2393.813,491.524a10.816,10.816,0,0,0,1.338-3.163c.185-1.041-.345-4.9-4.222-4.343a5.265,5.265,0,0,0-2.184.826c-.842.568-2.056,1.8-.7,5.162l.353,1.137Z" transform="translate(-2181.451 -442.208)" fill="#b5453c"/>
            <path id="Trazado_615892" data-name="Trazado 615892" d="M2389.143,509.595s4.871.08,4.875-2.954.634-5.068-2.476-5.247-3.716.978-3.963,1.99.3,6.112,1.564,6.211" transform="translate(-2181.527 -458.116)" fill="#e49963"/>
            <path id="Trazado_615893" data-name="Trazado 615893" d="M2390.213,494.841s-3.327-2.275-4.38-.7c-.319-.274-.888-.472-1.639.439-1.129,1.369-.125,3.789-.125,3.789.463.054.573-1.537.815-2.309a3.867,3.867,0,0,1,1.084-1.435c.425.958,1.595,3.251,3.205,3.665,2.047.526,2.935-.022,2.935-.022a5.8,5.8,0,0,1-1.9-3.425" transform="translate(-2177.998 -450.998)" fill="#b5453c"/>
            <path id="Trazado_615894" data-name="Trazado 615894" d="M2388.757,643.661c-.263.729-1.068.917-2.148.791-2.059-.241-5.118-1.623-7.322-2.579-3.361-1.456-4.888-.088-5.958-1.015s1.222-2.989-.764-12.56c-.673-3.246,3.592-10.21,3.592-10.21s.3,1.887,4.455-.4a38.23,38.23,0,0,1,3.3,5.228c1.706,3.237,3.34,7.146,2.86,9.161-.917,3.841,2.75,9.47,1.986,11.589" transform="translate(-2167.797 -564.39)" fill="#699dee"/>
            <path id="Trazado_615895" data-name="Trazado 615895" d="M2221.86,622.36l-2.514,10.331s-.313.557-.8,1.351c-1.153,1.863-3.286,5.029-4.651,5.351-.674.159-2.106-.4-3.692-1.2a74.918,74.918,0,0,1-6.542-3.888,3.146,3.146,0,0,1,.967-2.5s7.179,2.7,7.892,2.75c1.555.111,3.136-7.391,4.589-9.89,1.051-1.808,4.756-2.306,4.756-2.306" transform="translate(-2013.5 -568.663)" fill="#699dee"/>
            <path id="Trazado_615896" data-name="Trazado 615896" d="M2399.487,572.717s-.091.385-1.049.326c0,0-.805-.05-.781-.474a2.591,2.591,0,0,1,1.831.147" transform="translate(-2190.789 -523.078)" fill="#fff"/>
            <path id="Trazado_615897" data-name="Trazado 615897" d="M2458.668,738.809c-.263.73-1.068.917-2.148.791-1.425-.621-7.582-3.006-7.513-4.622.1-2.393,1.184-2.469.42-5.423-.613-2.371,5.075-6.781,5.982-7.739,1.707,3.237,1.753,3.39,1.273,5.4-.917,3.841,2.75,9.47,1.986,11.589" transform="translate(-2237.709 -659.538)" fill="#4a75cb"/>
            <path id="Trazado_615898" data-name="Trazado 615898" d="M2288.134,753.4c-1.152,1.864-3.286,5.029-4.651,5.351-.673.159-2.106-.4-3.692-1.2a9.589,9.589,0,0,0,3.374.185c1.184-.114,1.527-1.566,3.4-3.742,1.214-1.411,1.512-1.056,1.571-.59" transform="translate(-2083.093 -688.02)" fill="#4a75cb"/>
            <path id="Trazado_615899" data-name="Trazado 615899" d="M2406.378,804.07a2.935,2.935,0,0,0-2-.611c-.974.191-1.452.859-1.414,1.165a1.739,1.739,0,0,0,1.3,1.241,14.063,14.063,0,0,0,2.864-.458Z" transform="translate(-2195.633 -734.11)" fill="#e49963"/>
            <path id="Trazado_615900" data-name="Trazado 615900" d="M2440.555,617.685s3.97.245,5.345,2.162c1.935,2.7,6.578,14.7,4.379,16.236-2.478,1.727-12.08-.051-12.08-.051a3.577,3.577,0,0,1,.114-2.03c.408-.662,7.027-1.731,7.332-2.037s-3.818-5.957-3.818-6.874-1.271-7.406-1.271-7.406" transform="translate(-2227.74 -564.392)" fill="#699dee"/>
            <path id="Trazado_615901" data-name="Trazado 615901" d="M2247.788,776h-14.625l-2.636-9.194h14.6Z" transform="translate(-2038.079 -700.648)" fill="#1c468a"/>
            <rect id="Rectángulo_325475" data-name="Rectángulo 325475" width="19.119" height="0.358" transform="translate(195.134 74.995)" fill="#163560"/>
            <path id="Trazado_615902" data-name="Trazado 615902" d="M2314.656,812.16a.426.426,0,0,1,.417-.585.838.838,0,0,1,.753.585.426.426,0,0,1-.417.585.839.839,0,0,1-.753-.585" transform="translate(-2114.928 -741.553)" fill="#163560"/>
            <path id="Trazado_615903" data-name="Trazado 615903" d="M314.921,1476.445H52.214a.234.234,0,0,1,0-.469H314.921a.234.234,0,0,1,0,.469" transform="translate(-47.495 -1348.63)" fill="#283250"/>
            <rect id="Rectángulo_325476" data-name="Rectángulo 325476" width="27.342" height="27.342" transform="translate(15.262 100.004)" fill="#d86713"/>
            <rect id="Rectángulo_325477" data-name="Rectángulo 325477" width="27.342" height="27.342" transform="translate(23.693 100.004)" fill="#f1a34f"/>
            <path id="Trazado_615904" data-name="Trazado 615904" d="M363.922,1242.224l-4.714-4.562,4.562-4.713-2.87-2.777-4.562,4.713-4.713-4.562-2.777,2.87,4.713,4.562L349,1242.468l2.87,2.777,4.562-4.713,4.713,4.562Z" transform="translate(-318.75 -1124.033)" fill="#ebf2f9"/>
            <path id="Trazado_615905" data-name="Trazado 615905" d="M185.326,1159.078l-8.43,5.111v-5.111Z" transform="translate(-161.633 -1059.073)" fill="#c95c12"/>
            <path id="Trazado_615906" data-name="Trazado 615906" d="M1882.854,647.9s6.374,6.491,6.68,8.974-3.034,6.367-3.034,6.367Z" transform="translate(-1720.403 -591.999)" fill="#e58638"/>
            <path id="Trazado_615907" data-name="Trazado 615907" d="M1761.2,1427.55a13.8,13.8,0,0,1-.528,3.128h-7.97a1.45,1.45,0,0,1,1.174-.842c1.249-.218,3.337-1.095,4.093-2.745.8-1.735,3.23.458,3.23.458" transform="translate(-1601.485 -1303.353)" fill="#163560"/>
            <path id="Trazado_615908" data-name="Trazado 615908" d="M1871.435,1427.55a13.836,13.836,0,0,1-.527,3.128h-7.969a1.446,1.446,0,0,1,1.174-.842c1.248-.218,3.337-1.095,4.093-2.745.8-1.735,3.23.458,3.23.458" transform="translate(-1702.206 -1303.353)" fill="#163560"/>
            <path id="Trazado_615909" data-name="Trazado 615909" d="M1796.386,946.761a140.924,140.924,0,0,0,5.283,19.821c4.166,12.678,4.734,18.169,4.734,18.169l4.469-.125s.038-13.856-1.882-20.232-.414-22.984-.414-22.984Z" transform="translate(-1641.396 -860.185)" fill="#163560"/>
            <path id="Trazado_615910" data-name="Trazado 615910" d="M1771.146,945.943a173.353,173.353,0,0,0,1.7,23.978c1.862,13.215,1.231,18.824,1.231,18.824l4.46.148s2.665-13.22,1.9-19.834,3.65-22.7,3.65-22.7Z" transform="translate(-1618.33 -864.328)" fill="#1c468a"/>
            <path id="Trazado_615911" data-name="Trazado 615911" d="M1809.716,597.676l-2.376,1.558-3.434-.64c.047-.277.274-1.426.48-2.467.012-.061.025-.123.037-.183.177-.886.33-1.646.33-1.646l3.208-1.415,1.2-.528c0,.019-.093.983-.105,1.123a8.178,8.178,0,0,0,.665,4.2" transform="translate(-1648.266 -541.247)" fill="#ffb27d"/>
            <path id="Trazado_615912" data-name="Trazado 615912" d="M1777.723,670.978c-.69,3.146-12.168,3.519-15.127.664-.337-.326-.353-1.84-.226-3.882.248-3.99,1.046-9.992,1.077-13.058a24.282,24.282,0,0,1,.49-4.371,35.512,35.512,0,0,1,1.456-5.231s5.606-1.812,6.656-1.5c5.054,1.485,6.365,24.236,5.676,27.383" transform="translate(-1610.248 -588.034)" fill="#ee9849"/>
            <path id="Trazado_615913" data-name="Trazado 615913" d="M1763.143,733.162c.248-3.99,1.046-9.992,1.077-13.058a24.261,24.261,0,0,1,.49-4.371l3.373-.6s3.3,13.468-4.939,18.024" transform="translate(-1611.021 -653.436)" fill="#e58638"/>
            <path id="Trazado_615914" data-name="Trazado 615914" d="M1774.14,854.028a.794.794,0,0,1-.253.918,1.539,1.539,0,0,0-.685,1.4c.111.437,1.17,1.149,1.537,1.034s1.114-.69,1.034-.921.5-2.022-.393-2.712a.722.722,0,0,0-1.24.276" transform="translate(-1620.191 -779.864)" fill="#ffb27d"/>
            <path id="Trazado_615915" data-name="Trazado 615915" d="M1723.671,652.047a10.218,10.218,0,0,0-5.91,4.478c-2.621,3.862-4.345,6.734-3.862,8.126s4.884,6.22,5.642,6.22a2.034,2.034,0,0,0,2.052-1.793s-3.1-4.644-2.488-5.339c.261-.3,4.023-3.351,4.56-1.972.889,2.282.007-9.719.007-9.719" transform="translate(-1565.952 -595.789)" fill="#ee9849"/>
            <path id="Trazado_615916" data-name="Trazado 615916" d="M1813.9,599.1c-.7,1.193-3.329,2.225-4.424,2.6.012-.062.025-.123.037-.183.177-.885.329-1.646.329-1.646l3.208-1.415c.709-.01,1.141.149.85.64" transform="translate(-1653.358 -546.829)" fill="#fca56b"/>
            <path id="Trazado_615917" data-name="Trazado 615917" d="M1792.867,522.554s5.167,1.612,6.121-1.621,2.264-5.2-.995-6.368-4.266-.122-4.847.88-1.6,6.607-.279,7.11" transform="translate(-1637.59 -469.698)" fill="#ffb27d"/>
            <path id="Trazado_615918" data-name="Trazado 615918" d="M1800.144,496.438s.33,3.762,1.107,3.6,1.484-.284,1.37.85-1.193,2.444,1.205,2.644,5.845-5.983,5.186-7.154c-1.9-3.378-11.615-4.06-8.868.061" transform="translate(-1644.386 -451.004)" fill="#163560"/>
            <path id="Trazado_615919" data-name="Trazado 615919" d="M1799.547,633.317a28.8,28.8,0,0,1,4.577-1.083c.442.146.7,1,.7,1l-6.656,1.5a3.305,3.305,0,0,1,1.374-1.423" transform="translate(-1643.028 -577.674)" fill="#e58638"/>
            <path id="Trazado_615920" data-name="Trazado 615920" d="M313.046,700.047s-2.157-2.516-.133-4.115a5.742,5.742,0,0,1,2.684-.822s-1.708,2.864-1.156,3.149,1.673-3.329,1.673-3.329,3.364-.326,4.446.194c0,0-2.876,2.354-2.27,2.494s3.712-2.17,3.712-2.17,3.131.533,2.964,2.443-1.246,2.5-1.72,2.449-3.248-1.109-3.308-.721,1.609,1.658,2.779,1.718c0,0-2.208,2.435-3.675,1.732s-1.592-1.816-2.507-2.234-1.7-.417-1.318.009,2.033.84,2.556,1.765.992,1.549-.526,1.321-3.985-1.339-4.094-2.611Z" transform="translate(-285.123 -634.88)" fill="#82b378"/>
            <path id="Trazado_615921" data-name="Trazado 615921" d="M313.966,730.758s-8.5-.328-10.383,2.1a6.151,6.151,0,0,1-1.693,2.377l-.2.543s1.474-1.554,2-1.648c0,0-.825-3.013,10.274-3.376" transform="translate(-275.661 -667.695)" fill="#82b378"/>
            <path id="Trazado_615922" data-name="Trazado 615922" d="M283.326,780.584a5.34,5.34,0,0,0-1.952,3.762l.331.03a8.632,8.632,0,0,1,1.637-3.469c1.054-.975-.016-.322-.016-.322" transform="translate(-257.097 -713.04)" fill="#82b378"/>
            <path id="Trazado_615923" data-name="Trazado 615923" d="M102.938,624.53s3.431-1.921,1.83-4.529a6.812,6.812,0,0,0-2.653-2.013s.732,3.889,0,3.98-.5-4.392-.5-4.392-3.614-1.738-5.032-1.6c0,0,2.242,3.8,1.51,3.706s-3.248-3.934-3.248-3.934-3.706-.686-4.3,1.51.366,3.294.915,3.431,4.072.091,3.98.549-2.47,1.189-3.8.778c0,0,1.464,3.614,3.385,3.431s2.516-1.372,3.706-1.464,2.059.229,1.464.549-2.608.105-3.568.922-1.738,1.32.046,1.686,4.986.137,5.627-1.235Z" transform="translate(-82.557 -562.527)" fill="#a8d29f"/>
            <path id="Trazado_615924" data-name="Trazado 615924" d="M112.146,642.272s9.607,3.111,10.705,6.588a7.3,7.3,0,0,0,.915,3.339v.686s-1.006-2.333-1.555-2.653c0,0,2.15-3.019-10.065-7.96" transform="translate(-102.47 -586.857)" fill="#82b378"/>
            <path id="Trazado_615925" data-name="Trazado 615925" d="M241.965,752.81a6.336,6.336,0,0,1,.637,4.989l-.381-.1s.37-3.016-.405-4.534.149-.353.149-.353" transform="translate(-220.669 -687.468)" fill="#82b378"/>
            <path id="Trazado_615926" data-name="Trazado 615926" d="M268,563.876s-4.523-2.533-2.412-5.97a8.979,8.979,0,0,1,3.5-2.653s-.965,5.126,0,5.246.663-5.789.663-5.789,4.764-2.292,6.633-2.111c0,0-2.955,5.005-1.99,4.885s4.282-5.186,4.282-5.186,4.885-.9,5.669,1.99-.482,4.342-1.206,4.523-5.367.121-5.247.724,3.257,1.568,5.005,1.025c0,0-1.93,4.764-4.463,4.523s-3.317-1.809-4.885-1.93-2.714.3-1.93.724,3.437.138,4.7,1.215,2.292,1.74-.06,2.222-6.573.181-7.417-1.628Z" transform="translate(-242.16 -504.524)" fill="#a8d29f"/>
            <path id="Trazado_615927" data-name="Trazado 615927" d="M300.827,587.264s-12.664,4.1-14.111,8.684a9.62,9.62,0,0,1-1.206,4.4v.9s1.327-3.076,2.05-3.5c0,0-2.834-3.98,13.267-10.493" transform="translate(-260.877 -536.595)" fill="#82b378"/>
            <path id="Trazado_615928" data-name="Trazado 615928" d="M272.984,732.974a8.352,8.352,0,0,0-.84,6.576l.5-.135s-.488-3.976.534-5.976-.2-.465-.2-.465" transform="translate(-248.35 -669.219)" fill="#82b378"/>
            <path id="Trazado_615929" data-name="Trazado 615929" d="M203.9,812.063a8.86,8.86,0,0,0,8.86-8.86H195.037a8.86,8.86,0,0,0,8.86,8.86" transform="translate(-178.209 -733.903)" fill="#f1a34f"/>
            <path id="Trazado_615930" data-name="Trazado 615930" d="M217.512,811.995a8.865,8.865,0,0,1-9.96-8.792h2.2a8.861,8.861,0,0,0,7.759,8.792" transform="translate(-189.645 -733.903)" fill="#ffb973"/>
            <path id="Trazado_615931" data-name="Trazado 615931" d="M210.49,898.445H194.712a1.093,1.093,0,0,0-1.093,1.093h17.964a1.093,1.093,0,0,0-1.093-1.093" transform="translate(-176.914 -820.928)" fill="#f1a34f"/>
            <rect id="Rectángulo_325478" data-name="Rectángulo 325478" width="18.212" height="0.272" transform="translate(16.536 69.3)" fill="#d86713"/>
          </g>
        </g>
      </g>
    </g>
  </g>
</svg>
