<svg xmlns="http://www.w3.org/2000/svg" xmlns:xlink="http://www.w3.org/1999/xlink" width="169" height="169" viewBox="0 0 169 169">
  <defs>
    <filter id="Elipse_4753" x="0" y="0" width="169" height="169" filterUnits="userSpaceOnUse">
      <feOffset dy="6" input="SourceAlpha"/>
      <feGaussianBlur stdDeviation="5" result="blur"/>
      <feFlood flood-opacity="0.329"/>
      <feComposite operator="in" in2="blur"/>
      <feComposite in="SourceGraphic"/>
    </filter>
    <clipPath id="clip-path">
      <rect id="Rectángulo_324787" data-name="Rectángulo 324787" width="63.72" height="63.748" fill="none"/>
    </clipPath>
  </defs>
  <g id="Grupo_877374" data-name="Grupo 877374" transform="translate(-1008.283 -10230.89)">
    <g transform="matrix(1, 0, 0, 1, 1008.28, 10230.89)" filter="url(#Elipse_4753)">
      <circle id="Elipse_4753-2" data-name="Elipse 4753" cx="69.5" cy="69.5" r="69.5" transform="translate(15 9)" fill="#ffb500"/>
    </g>
    <g id="Grupo_876208" data-name="Grupo 876208" transform="translate(1061.28 10277.883)">
      <g id="Grupo_876207" data-name="Grupo 876207" transform="translate(0 0)" clip-path="url(#clip-path)">
        <path id="Trazado_613867" data-name="Trazado 613867" d="M37.044,2.281A6.062,6.062,0,0,0,34.8.008c-5.614,0-11.264-.03-16.912.025A9.765,9.765,0,0,0,14.4.9,11.232,11.232,0,0,0,8.956,5.063c-.735.471-.958,1.33-1.414,2A8.356,8.356,0,0,0,6.687,9.4a14.489,14.489,0,0,0-.505,5.183,25.546,25.546,0,0,0,.656,2.683,1.533,1.533,0,0,1-.12,1.154,5.125,5.125,0,0,0-.566,2.342A4.135,4.135,0,0,0,10.078,24.7c.294.012.588,0,.966,0a11.141,11.141,0,0,0,5.1,5.775c.343.59-.208,1.183-.223,1.826a4.906,4.906,0,0,1-.48,1.806c-.492.287-1.015-.051-1.488.333-.289.235-.836.051-1.3.248a8.845,8.845,0,0,1-1.681.258c-.992.193-2,.331-2.989.561a8.645,8.645,0,0,0-4.46,2.257A10.827,10.827,0,0,0,1.24,40.551,10.71,10.71,0,0,0,0,45.182c0,6.17,0,12.34,0,18.566H43.147V49.4h1.159q8.67,0,17.339,0a1.98,1.98,0,0,0,1.931-1.233,1.959,1.959,0,0,0,.133-.971c.015-3.859.01-7.716.01-11.575v-16.1A12.864,12.864,0,0,0,61.64,16.8a36.8,36.8,0,0,1-3.2-3.68.973.973,0,0,0-.181-.182,48.315,48.315,0,0,1-3.337-3.644C53.512,7.807,52.2,6.219,50.847,4.68c-.608-.689-1.2-1.4-1.864-2.032-.311-.3-.421-.7-.7-1.007A5.993,5.993,0,0,0,45.968.01H44.4a5.555,5.555,0,0,0-1.956,1.358c-1.277,1.61-2.647,3.137-4.07,4.622A10.115,10.115,0,0,1,37.044,7.5Z" transform="translate(0 0.001)" fill="#040506"/>
        <path id="Trazado_613868" data-name="Trazado 613868" d="M10.958,34.187c1.174-.909,1.828-2.257,3.072-3.249-2.337-.819-4.506-1.434-6.668-2.369V22.227A8.459,8.459,0,0,0,3.276,24.67a8.838,8.838,0,0,0-1.835,3.617A9.6,9.6,0,0,0,1.22,30.5c0,5.268,0,10.537,0,15.861H7.363v-14.3H9.427V46.372H19.673c.1-1.769.008-3.592.056-5.536-2.818-2.259-5.814-4.391-8.77-6.648" transform="translate(0.84 15.326)" fill="#ea695c"/>
        <path id="Trazado_613869" data-name="Trazado 613869" d="M25.709,32.075V46.394h6.082a2.184,2.184,0,0,0,.074-1.073q.013-7.582.005-15.167a9.753,9.753,0,0,0-1.292-4.347,7.191,7.191,0,0,0-1.39-1.74A13.957,13.957,0,0,1,27.4,22.8c-.608.064-1.014-.46-1.635-.591V28.53A63.324,63.324,0,0,1,19.145,30.9c1.066,1.1,1.848,2.347,2.972,3.3q-4.382,3.3-8.718,6.559v5.623H23.563c-.024.02.014,0,.037-.034a.206.206,0,0,0,.047-.108c0-4.709,0-9.417,0-14.17Z" transform="translate(9.239 15.311)" fill="#ea695c"/>
        <path id="Trazado_613870" data-name="Trazado 613870" d="M13.095,8.432c-.14,1.22.095,1.879,1.96,3.08,3.225,0,6.52.095,9.806-.034A6.733,6.733,0,0,0,30.6,7.772a14.433,14.433,0,0,1,.755-1.321c-.2-.732.367-1.433.27-2.25A20.41,20.41,0,0,1,31.6,1.855l-.691-.632h-.436q-7.451,0-14.9.008c-.4,0-.824.071-1.222.11A16.366,16.366,0,0,0,9.643,3.024C9.1,3.869,7.9,4.045,7.567,5.1c-1.056.857-1.355,2.176-2.024,3.271-.253.416.125.973-.4,1.252a31.686,31.686,0,0,0-.282,3.5c.024.362.375.536.3.924a.992.992,0,0,0,.193.95c.152.164.056.556.076.943.509-.152.938-.427,1.482-.258-.042-3.08,1.7-4.9,4.182-6.246a4.073,4.073,0,0,1,.843-3.264,4.6,4.6,0,0,1,2.859-1.774c.047.28.407.5.368.9-.034.338.524.515.091,1.027a3.905,3.905,0,0,0-2.157,2.122" transform="translate(3.341 0.844)" fill="#525b66"/>
        <path id="Trazado_613871" data-name="Trazado 613871" d="M25.683,8.834A7.391,7.391,0,0,1,22.22,9.4c-2.609-.022-5.215-.035-7.826,0A5.046,5.046,0,0,1,10.356,7.68c-.112-.123-.211-.257-.321-.39a2.484,2.484,0,0,1-.953.652,3.38,3.38,0,0,0-1.526,2.071A3.774,3.774,0,0,0,7.3,11.581c.015,1.284.042,2.57-.01,3.852a13.237,13.237,0,0,0,.264,2.078,5.91,5.91,0,0,0,.578,1.818A11.965,11.965,0,0,0,9.128,21.1a10.791,10.791,0,0,0,4.984,3.428,9.131,9.131,0,0,0,3.344.279,12.011,12.011,0,0,0,3.406-1.068,9.977,9.977,0,0,0,2.94-2.475A8.964,8.964,0,0,0,25.44,18.1a7.4,7.4,0,0,0,.35-1.906c.041-2.353.017-4.71.012-7.064,0-.074-.057-.147-.118-.3" transform="translate(5.027 5.027)" fill="#efc5a5"/>
        <path id="Trazado_613872" data-name="Trazado 613872" d="M35.146,20.712H24.171c-.725.34-.916,1.161-1.524,1.686A10.594,10.594,0,0,1,27.5,33.025H44.648c.02-.836-.747-1.255-1.166-1.816-.74-.987-1.564-1.926-2.3-2.921-1.044-1.414-2.178-2.757-3.23-4.163a30.679,30.679,0,0,0-2.808-3.413" transform="translate(15.615 14.282)" fill="#cb8e57"/>
        <path id="Trazado_613873" data-name="Trazado 613873" d="M30.508,1.232h-.742a48.319,48.319,0,0,0-4.33,4.6c-.6.622-1.2,1.274-1.749,1.956A13.732,13.732,0,0,1,21.92,9.772v3.735H41.353a2.268,2.268,0,0,0-.858-1.243c-1.181-1.088-2.129-2.392-3.224-3.563a14.978,14.978,0,0,1-1.826-2.053C34.7,5.473,33.537,4.692,32.756,3.54a17.315,17.315,0,0,0-2.249-2.308" transform="translate(15.114 0.85)" fill="#c68b61"/>
        <path id="Trazado_613874" data-name="Trazado 613874" d="M29.415,22.491C29,22.214,28.6,21.9,28.2,21.6s-.552-.865-.843-1.36V16.358h2.022V14.319h2.068v2.1c1.554.9,2.448,2.078,1.985,4.013H31.471c.76.657,1.717,1.13,2.054,2.186v1.857a3.768,3.768,0,0,0,1.227.069c.384.015.769,0,1.21,0A49.572,49.572,0,0,0,39.37,20.37a4.228,4.228,0,0,0-.446-2.587,9.012,9.012,0,0,0-3.077-3.837A6.93,6.93,0,0,0,32.622,12.5c-.446-.071-.8-.422-1.3-.316a5.872,5.872,0,0,1-1.279.017,9.3,9.3,0,0,0-3.151.757,8.259,8.259,0,0,0-3.942,3.1,5.989,5.989,0,0,0-1.485,4.258c1.21,1.331,2.085,2.963,3.426,4.2h2.68c-.37-.642-.14-1.3-.235-2.026Z" transform="translate(14.777 8.387)" fill="#ffcd58"/>
        <path id="Trazado_613875" data-name="Trazado 613875" d="M31.328,24.47v.52c2.9,3.7,5.775,7.356,8.7,11.076V13.392l-8.7,11.078" transform="translate(21.601 9.235)" fill="#daa277"/>
        <path id="Trazado_613876" data-name="Trazado 613876" d="M20.584,15.479c-.772.786-1.23,1.771-1.992,2.506a9.45,9.45,0,0,1-2.639,1.831,15.351,15.351,0,0,0,.759,3.646c1.576.277,3,.578,4.43.806,1.4.223,2.772.532,4.2.865A4.112,4.112,0,0,1,26.5,23.687v-.676c-1.955-2.489-3.879-4.938-5.918-7.532" transform="translate(11 10.674)" fill="#daa277"/>
        <path id="Trazado_613877" data-name="Trazado 613877" d="M43.684,9.757H21.812a3.771,3.771,0,0,0-.323,1.982H45.626c-.3-.368-.622-.652-.919-.956-.329-.338-.664-.667-1.022-1.026" transform="translate(14.781 6.728)" fill="#e0e4e9"/>
        <path id="Trazado_613878" data-name="Trazado 613878" d="M18.192,21.735c.177-.564-.23-1.09-.218-1.652a7.76,7.76,0,0,0-.35-1.45,12.127,12.127,0,0,1-6.527,0c-.063.284-.414.531-.34.943a2.29,2.29,0,0,1-.23,1.054,3.966,3.966,0,0,0-.024,1.093L14.36,24c1.257-.743,2.489-1.472,3.832-2.264" transform="translate(7.223 12.848)" fill="#eec4a5"/>
        <path id="Trazado_613879" data-name="Trazado 613879" d="M34.957,17.885c1.492-1.907,2.921-3.732,4.438-5.67H30.639c2.235,1.394,3.273,3.524,4.318,5.67" transform="translate(21.126 8.423)" fill="#e9b289"/>
        <path id="Trazado_613880" data-name="Trazado 613880" d="M14.725,26.8H12.26a23.142,23.142,0,0,1-.287,2.538,1.715,1.715,0,0,1-.132.586,1.865,1.865,0,0,0,.112,1.657c.551.946.96,1.977,1.406,2.925.4.046.346-.191.438-.373.387-.786.88-1.521,1.238-2.316a2.446,2.446,0,0,0,.127-2A10.009,10.009,0,0,1,14.8,27.52c-.032-.242.052-.5-.078-.718" transform="translate(8.067 18.481)" fill="#dfe3e8"/>
        <path id="Trazado_613881" data-name="Trazado 613881" d="M17.923,26.743c.814-1.625,1.593-3.18,2.413-4.813a18.477,18.477,0,0,1-2.919-.6L13.85,23.5l4.073,3.247" transform="translate(9.55 14.71)" fill="#ffb815"/>
        <path id="Trazado_613882" data-name="Trazado 613882" d="M10.264,26.738c1.409-1.122,2.727-2.169,4.07-3.237-1.178-.715-2.355-1.431-3.567-2.168a15.081,15.081,0,0,1-2.884.569c.747,1.632,1.539,3.2,2.381,4.835" transform="translate(5.435 14.71)" fill="#ffb815"/>
        <path id="Trazado_613883" data-name="Trazado 613883" d="M6.109,27.363c1.213.419,2.406.838,3.607,1.238a.4.4,0,0,0,.5-.176L6.979,21.943h-.87Z" transform="translate(4.212 15.131)" fill="#e65541"/>
        <path id="Trazado_613884" data-name="Trazado 613884" d="M21.154,21.944h-.87c-1.091,2.193-2.169,4.354-3.33,6.684a36.394,36.394,0,0,0,4.2-1.218Z" transform="translate(11.69 15.131)" fill="#e65541"/>
        <path id="Trazado_613885" data-name="Trazado 613885" d="M14.738,27.01c.216-.821.421-1.593.623-2.36a5.017,5.017,0,0,1-1.46-1.2h-.755a5.059,5.059,0,0,1-1.458,1.2c.2.767.405,1.541.622,2.36Z" transform="translate(8.059 16.171)" fill="#bec5cf"/>
        <path id="Trazado_613886" data-name="Trazado 613886" d="M21.455,6.514,19.468,8.5v3.345c.191.248.473.139.7.117.294-.029.37.378.75.237a16.65,16.65,0,0,0,.536-5.689" transform="translate(13.423 4.492)" fill="#515965"/>
        <path id="Trazado_613887" data-name="Trazado 613887" d="M4.867,13.555a2.073,2.073,0,0,0,2.25,1.485,4.639,4.639,0,0,1-.189-2.029c-.024-.669-.005-1.34-.005-2.009-1.5.044-2.056.767-2.056,2.553" transform="translate(3.356 7.587)" fill="#eac1a2"/>
        <path id="Trazado_613888" data-name="Trazado 613888" d="M19.261,15.023a2.1,2.1,0,0,0,2.384-1.416V12.394c-.713-1.216-.894-1.347-2-1.4-.147,1.249.091,2.512-.125,3.756-.012.069-.113.122-.262.27" transform="translate(13.281 7.583)" fill="#eac1a2"/>
        <path id="Trazado_613889" data-name="Trazado 613889" d="M12.464,32.425c-.715-1.414-1.431-2.828-2.185-4.317-.306.848-1.024,1.2-1.448,1.8l3.5,2.631c.044-.039.088-.076.132-.113" transform="translate(6.09 19.381)" fill="#e2533f"/>
        <path id="Trazado_613890" data-name="Trazado 613890" d="M14.65,32.535l3.5-2.639c-.407-.574-1.134-.88-1.385-1.782a26.681,26.681,0,0,0-2.115,4.421" transform="translate(10.101 19.385)" fill="#e2533f"/>
        <path id="Trazado_613891" data-name="Trazado 613891" d="M28.2,17.885V16.464l-.634-.6h-1.39v1.39l.6.635Z" transform="translate(18.048 10.936)" fill="#ffc957"/>
        <path id="Trazado_613892" data-name="Trazado 613892" d="M26.157,18.276V19.7l.634.6h1.39v-1.39l-.6-.635Z" transform="translate(18.035 12.602)" fill="#ffc957"/>
        <path id="Trazado_613893" data-name="Trazado 613893" d="M11.364,28.683c-.118-.7.5-1.335.274-1.843-.247-.558-.068-1.242-.558-1.693-.438.269-.958.433-1.2.982a13.588,13.588,0,0,0,1.485,2.555" transform="translate(6.812 17.34)" fill="#fac655"/>
        <path id="Trazado_613894" data-name="Trazado 613894" d="M16.425,26.163c-.257-.585-.779-.747-1.216-1.017-.488.453-.311,1.135-.558,1.693-.226.509.394,1.139.176,1.776.583.051.531-.46.667-.711a3.014,3.014,0,0,0,.416-.853,3.109,3.109,0,0,1,.515-.887" transform="translate(10.067 17.339)" fill="#fac655"/>
        <path id="Trazado_613895" data-name="Trazado 613895" d="M21.821,14.264,19.591,15c.583.343.754.982,1.2,1.414.612-.524.627-1.3,1.032-2.146" transform="translate(13.508 9.836)" fill="#ddaa82"/>
        <path id="Trazado_613896" data-name="Trazado 613896" d="M21.943,12.245a2.919,2.919,0,0,1-.147,1.47,6.513,6.513,0,0,0,.813-.77c.242-.318.765-.181.862-.7a4.5,4.5,0,0,0-1.527,0" transform="translate(15.028 8.398)" fill="#deaa83"/>
        <path id="Trazado_613897" data-name="Trazado 613897" d="M9.729,14.434c1.1,2.811,3.2,4.068,5.68,3.82a5.214,5.214,0,0,0,4.546-3.717c-.514-.39-1.2-.405-1.691-.72a1.5,1.5,0,0,0-.608.73,3.106,3.106,0,0,1-4.546,1.059c-.677-.527-.72-.492-1.046-1.218-.1-.213-.279-.307-.382-.488-.735-.084-1.255.5-1.953.534" transform="translate(6.708 9.528)" fill="#070707"/>
        <path id="Trazado_613898" data-name="Trazado 613898" d="M11.268,11.812h.671a1.782,1.782,0,0,1,.8,1h1.907c.182-.809-.3-1.3-.669-1.9s-1.047-.674-1.478-1.169c-.7.12-1.458-.176-2.176.258a4.345,4.345,0,0,0-1.519,1.461,1.472,1.472,0,0,0-.233,1.308c.294.176.639.041.966.068.3.024.6.005.9.005a2.342,2.342,0,0,1,.833-1.029" transform="translate(5.86 6.717)" fill="#080707"/>
        <path id="Trazado_613899" data-name="Trazado 613899" d="M17.542,12.837h1.941c.215-.75-.209-1.249-.574-1.862-.392-.656-1.093-.752-1.549-1.225H15.611c-1.2.686-2.252,1.445-2.228,3.046h1.941c.088-.4.433-.65.735-.968h.781c.286.277.723.49.7,1.009" transform="translate(9.227 6.723)" fill="#080707"/>
      </g>
    </g>
  </g>
</svg>
