<svg xmlns="http://www.w3.org/2000/svg" xmlns:xlink="http://www.w3.org/1999/xlink" width="298.792" height="168.015" viewBox="0 0 298.792 168.015">
  <defs>
    <clipPath id="clip-path">
      <rect id="Rectángulo_325483" data-name="Rectángulo 325483" width="204.634" height="149.819" transform="translate(0 0)" fill="none"/>
    </clipPath>
  </defs>
  <g id="Grupo_877362" data-name="Grupo 877362" transform="translate(-380.615 -8548.631)">
    <rect id="Imagen_3" data-name="Imagen 3" width="298.792" height="168.015" rx="19" transform="translate(380.615 8548.631)" fill="#ced371"/>
    <g id="Grupo_876615" data-name="Grupo 876615" transform="translate(427.615 8557.633)">
      <g id="Grupo_876614" data-name="Grupo 876614" transform="translate(0 -0.002)" clip-path="url(#clip-path)">
        <path id="Trazado_615932" data-name="Trazado 615932" d="M28.05,275.317C13.675,259.665-5.971,243.5,1.733,219.09c5.067-16.058,17.491-20.534,27.819-30.435,5.1-4.887,1.891-12,1.8-19.059-.216-18.079,19.96-32.107,38.509-31.815,20.091.317,28.789,20.516,45.642,21.6,6.618.1,12.544-3.783,18.4-6.868,17.35-9.142,44.88-3.312,46.271,18.8.359,11.939-13.229,31.147.385,37.427,10.851,5,21.812,6.848,23.768,24.748,2.559,23.429-10.971,36.287-28.6,42.317Z" transform="translate(0 -126.869)" fill="#e3eaff"/>
        <path id="Trazado_615933" data-name="Trazado 615933" d="M420.926,749.713h20a4.483,4.483,0,0,1,4.483,4.483v9.325A4.483,4.483,0,0,1,440.93,768h-.148l1.605,5.379a.255.255,0,0,1-.4.276L434.576,768h-13.65a4.483,4.483,0,0,1-4.483-4.483V754.2a4.483,4.483,0,0,1,4.483-4.483" transform="translate(-383.475 -690.361)" fill="#fff"/>
        <path id="Trazado_615934" data-name="Trazado 615934" d="M476.435,797H457.23a2.219,2.219,0,1,1,0-4.438h19.205a2.219,2.219,0,1,1,0,4.438" transform="translate(-418.99 -729.816)" fill="#e3eaff"/>
        <path id="Trazado_615935" data-name="Trazado 615935" d="M476.435,882.606H457.23a2.219,2.219,0,1,1,0-4.438h19.205a2.219,2.219,0,1,1,0,4.438" transform="translate(-418.99 -808.647)" fill="#e3eaff"/>
        <path id="Trazado_615936" data-name="Trazado 615936" d="M1708.814,431.76H1687a4.889,4.889,0,0,0-4.889,4.889v10.169a4.889,4.889,0,0,0,4.889,4.889h.162l-1.751,5.866a.278.278,0,0,0,.435.3l8.083-6.166h14.886a4.889,4.889,0,0,0,4.889-4.889V436.649a4.889,4.889,0,0,0-4.889-4.889" transform="translate(-1548.945 -397.579)" fill="#fff"/>
        <path id="Trazado_615937" data-name="Trazado 615937" d="M1738.676,488.707h-21.965a1.972,1.972,0,0,1-1.973-1.972v-.493a1.972,1.972,0,0,1,1.973-1.973h21.965a1.973,1.973,0,0,1,1.972,1.973v.493a1.973,1.973,0,0,1-1.972,1.972" transform="translate(-1578.99 -445.931)" fill="#e3eaff"/>
        <path id="Trazado_615938" data-name="Trazado 615938" d="M1736.223,573.47h-10.285a2.219,2.219,0,0,1-2.219-2.219h0a2.219,2.219,0,0,1,2.219-2.219h10.285a2.219,2.219,0,0,1,2.219,2.219h0a2.219,2.219,0,0,1-2.219,2.219" transform="translate(-1587.259 -523.984)" fill="#e3eaff"/>
        <path id="Trazado_615939" data-name="Trazado 615939" d="M172.81,1372.648a4.8,4.8,0,0,1,2.977-.937c2.5,0,3.822,1.36,3.822,3.271a4.889,4.889,0,0,1-1.617,3.344c-1.378,1.452-2.371,2.168-3,2.168a1.035,1.035,0,0,1-1.047-1.047c0-.515.478-1.029,1.3-1.782a.8.8,0,0,1,.147-.129c.937-.864,1.231-1.341,1.231-1.929a1.092,1.092,0,0,0-1.213-1.139,3.94,3.94,0,0,0-1.176.221,3.775,3.775,0,0,1-.992.22,1.146,1.146,0,0,1-1.1-1.176,1.389,1.389,0,0,1,.661-1.084m2.518,12.257a1.825,1.825,0,0,1-1.874-1.874,1.8,1.8,0,0,1,1.874-1.727,1.761,1.761,0,0,1,1.727,1.727,1.784,1.784,0,0,1-1.727,1.874" transform="translate(-158.52 -1263.119)" fill="#fff"/>
        <path id="Trazado_615940" data-name="Trazado 615940" d="M2071.792,855.51a3.154,3.154,0,0,1,1.958-.616c1.644,0,2.514.894,2.514,2.151a3.217,3.217,0,0,1-1.063,2.2c-.906.955-1.559,1.426-1.97,1.426a.681.681,0,0,1-.689-.689c0-.338.314-.677.858-1.172a.539.539,0,0,1,.1-.085c.616-.568.81-.882.81-1.269a.718.718,0,0,0-.8-.749,2.594,2.594,0,0,0-.773.145,2.478,2.478,0,0,1-.653.145.754.754,0,0,1-.725-.773.914.914,0,0,1,.435-.713m1.656,8.061a1.2,1.2,0,0,1-1.232-1.233,1.182,1.182,0,0,1,1.232-1.136,1.159,1.159,0,0,1,1.136,1.136,1.173,1.173,0,0,1-1.136,1.233" transform="translate(-1907.377 -787.216)" fill="#fff"/>
        <path id="Trazado_615941" data-name="Trazado 615941" d="M2258.029,1180.02h-22.944a.734.734,0,0,1-.734-.734v-19.75a.734.734,0,1,1,1.469,0v19.016h22.209a.734.734,0,0,1,0,1.469" transform="translate(-2057.467 -1067.064)" fill="#fff"/>
        <path id="Trazado_615942" data-name="Trazado 615942" d="M2257.024,1234.426a.735.735,0,0,1-.528-1.245l7.415-7.671a.735.735,0,0,1,.928-.106l3.507,2.275,3.7-4.3a.734.734,0,1,1,1.113.958l-4.116,4.783a.735.735,0,0,1-.956.137l-3.538-2.295-7,7.236a.731.731,0,0,1-.528.224" transform="translate(-2077.669 -1126.297)" fill="#fff"/>
        <path id="Trazado_615943" data-name="Trazado 615943" d="M2431.192,1204.147l-1.046-2.12-2.252-.719,5.014-2.49Z" transform="translate(-2235.688 -1103.913)" fill="#fff"/>
        <path id="Trazado_615944" data-name="Trazado 615944" d="M534.649,418.744a4.445,4.445,0,1,1,4.444-4.445,4.45,4.45,0,0,1-4.444,4.445m0-7.665a3.22,3.22,0,1,0,3.22,3.22,3.224,3.224,0,0,0-3.22-3.22" transform="translate(-488.23 -377.408)" fill="#fff"/>
        <path id="Trazado_615945" data-name="Trazado 615945" d="M2261.278,893.25a3.256,3.256,0,1,1,3.255-3.256,3.259,3.259,0,0,1-3.255,3.256m0-5.614a2.359,2.359,0,1,0,2.359,2.359,2.362,2.362,0,0,0-2.359-2.359" transform="translate(-2079.264 -816.54)" fill="#e3eaff"/>
        <path id="Trazado_615946" data-name="Trazado 615946" d="M106.31,1126.41a2.923,2.923,0,1,1,2.923-2.923,2.926,2.926,0,0,1-2.923,2.923m0-5.041a2.118,2.118,0,1,0,2.118,2.118,2.12,2.12,0,0,0-2.118-2.118" transform="translate(-95.202 -1031.854)" fill="#fff"/>
        <path id="Trazado_615947" data-name="Trazado 615947" d="M2082.6,339.881a1.59,1.59,0,1,1-1.59-1.59,1.59,1.59,0,0,1,1.59,1.59" transform="translate(-1914.804 -311.51)" fill="#fff"/>
        <path id="Trazado_615948" data-name="Trazado 615948" d="M286.107,693.932a3.127,3.127,0,1,1-3.127-3.127,3.127,3.127,0,0,1,3.127,3.127" transform="translate(-257.698 -636.117)" fill="#e3eaff"/>
        <path id="Trazado_615949" data-name="Trazado 615949" d="M2184.948,253.154a2.351,2.351,0,1,1-2.351-2.351,2.351,2.351,0,0,1,2.351,2.351" transform="translate(-2007.646 -230.948)" fill="#e3eaff"/>
        <path id="Trazado_615950" data-name="Trazado 615950" d="M2338.266,970.165a2.006,2.006,0,1,1-2.006-2.007,2.007,2.007,0,0,1,2.006,2.007" transform="translate(-2149.46 -891.513)" fill="#e3eaff"/>
        <path id="Trazado_615951" data-name="Trazado 615951" d="M2107.348,404.942a2.5,2.5,0,1,1-2.5-2.5,2.5,2.5,0,0,1,2.5,2.5" transform="translate(-1935.912 -370.58)" fill="#fff"/>
        <path id="Trazado_615952" data-name="Trazado 615952" d="M653.179,347.137a2.537,2.537,0,1,1-2.537-2.538,2.537,2.537,0,0,1,2.537,2.538" transform="translate(-596.797 -317.319)" fill="#fff"/>
        <path id="Trazado_615953" data-name="Trazado 615953" d="M470.637,1871.83h-150.2a.887.887,0,0,1,0-1.774h150.2a.887.887,0,1,1,0,1.774" transform="translate(-294.255 -1722.011)" fill="#201d40"/>
        <path id="Trazado_615954" data-name="Trazado 615954" d="M926.592,911.013h0l2.305.008.522,5.445-2.691,1.421-2.87-1.4.464-5.461Z" transform="translate(-850.723 -838.892)" fill="#f37a50"/>
        <path id="Trazado_615955" data-name="Trazado 615955" d="M871.162,778.888c1.419,3.546,4.827,5.516,7.611,4.4s3.892-4.892,2.473-8.438-4.827-5.517-7.612-4.4-3.892,4.892-2.473,8.438" transform="translate(-801.627 -709.17)" fill="#f37a50"/>
        <path id="Trazado_615956" data-name="Trazado 615956" d="M989.351,834.846a.522.522,0,1,0,.13-.726.522.522,0,0,0-.13.726" transform="translate(-910.943 -768)"/>
        <path id="Trazado_615957" data-name="Trazado 615957" d="M939.909,854.2a.565.565,0,1,0,.141-.786.565.565,0,0,0-.141.786" transform="translate(-865.408 -785.762)"/>
        <path id="Trazado_615958" data-name="Trazado 615958" d="M980.432,854.893c.705.556,1.587,1.227,1.587,1.227a1.369,1.369,0,0,1-.984,1.219c.359-.326.675-.76.3-1.261s-.9-1.185-.9-1.185" transform="translate(-902.816 -787.215)" fill="#de623c"/>
        <path id="Trazado_615959" data-name="Trazado 615959" d="M925.069,843.606a.261.261,0,0,1-.253-.321,1.389,1.389,0,0,1,1.267-1.109.26.26,0,0,1,0,.521c-.588,0-.761.7-.763.709a.26.26,0,0,1-.253.2" transform="translate(-851.596 -775.505)" fill="#201d40"/>
        <path id="Trazado_615960" data-name="Trazado 615960" d="M981.017,820.915a.217.217,0,0,1-.187-.327,1.07,1.07,0,0,1,.668-.478,1.112,1.112,0,0,1,.9.286.217.217,0,0,1-.271.339.706.706,0,0,0-.554-.2.627.627,0,0,0-.373.271.217.217,0,0,1-.187.107" transform="translate(-903.155 -755.173)" fill="#201d40"/>
        <path id="Trazado_615961" data-name="Trazado 615961" d="M850.509,758.671a4.691,4.691,0,0,1,1.723-5.381s-.784-.07-.878-1.172a2.9,2.9,0,0,0,1.824-.039c3.9-1.411,6.58-1.392,6.58.276,0,.593,2.573.187,2.358,4.179.015-.282-.9-1.923-1.773-2.087s-.084,1-1.9,1.247c-1.832.252-3.18-.193-4.3.84-.876.9-1.093,5.487-.96,5.763-.305-.633-2.146-2.124-2.674-3.626" transform="translate(-782.912 -691.601)" fill="#201d40"/>
        <path id="Trazado_615962" data-name="Trazado 615962" d="M897.5,854.893a9,9,0,0,1-.134,2.724c-.312-.835-.983.05-1.612.133-1.521.2-4.266-.306-4.538,1.976-1.859.588-3.6-3.391-3.6-3.391-.107,4.446,3.147,6.971,7.829,6.231,3.085-.487,3.371-4.782,2.056-7.673" transform="translate(-817.348 -787.215)" fill="#201d40"/>
        <path id="Trazado_615963" data-name="Trazado 615963" d="M960.016,894.416a3.955,3.955,0,0,1-.939-.368.174.174,0,0,1,.164-.306,2.513,2.513,0,0,0,1.919.326,1.811,1.811,0,0,0,1-.791.174.174,0,0,1,.307.161,2.132,2.132,0,0,1-1.2.959,2.342,2.342,0,0,1-1.251.019" transform="translate(-883.067 -822.475)" fill="#de623c"/>
        <path id="Trazado_615964" data-name="Trazado 615964" d="M861.359,870.6a1.358,1.358,0,1,1-2.069.364,1.5,1.5,0,0,1,2.069-.364" transform="translate(-791.132 -801.449)" fill="#f37a50"/>
        <path id="Trazado_615965" data-name="Trazado 615965" d="M871.4,880.95a.2.2,0,0,0,.06-.068.888.888,0,0,0-.094-1.086.946.946,0,0,0-1.078-.2.2.2,0,1,0,.177.35.56.56,0,0,1,.619.121.5.5,0,0,1,.03.626.2.2,0,0,0,.286.254" transform="translate(-801.288 -809.881)" fill="#de623c"/>
        <path id="Trazado_615966" data-name="Trazado 615966" d="M964.622,1812.362a2.13,2.13,0,0,1,1.539-1.481c2.039,2.813,7.044,1.087,6.879,4.891-7.613-.049-10.776,0-10.776,0a27.884,27.884,0,0,1,.336-3.76l.4.073Z" transform="translate(-886.086 -1667.521)"/>
        <path id="Trazado_615967" data-name="Trazado 615967" d="M820.749,1813.294a2.13,2.13,0,0,1,1.539-1.481c2.039,2.813,7.044,1.087,6.879,4.891-7.613-.049-10.777,0-10.777,0a27.9,27.9,0,0,1,.336-3.759l.4.073Z" transform="translate(-753.603 -1668.38)"/>
        <path id="Trazado_615968" data-name="Trazado 615968" d="M941.776,1268.492s1.236,18.026.734,22.034-2.28,9.146-2.079,22.4a18.1,18.1,0,0,1-6.077,0s-.533-14.989,2.09-21.684c-1.067-6.5-4.49-21.4-4.49-21.4Z" transform="translate(-858.176 -1168.071)" fill="#201d40"/>
        <path id="Trazado_615969" data-name="Trazado 615969" d="M828.5,1274.717s-2.5,20.238-3.717,24.076-3.6,7.084-5.816,20.143c-2.55.127-4.925,0-4.925,0s.344-16.565,4.316-20.332c.134-6.594-.642-23.758-.642-23.758Z" transform="translate(-749.598 -1173.803)" fill="#2c2858"/>
        <path id="Trazado_615970" data-name="Trazado 615970" d="M844.7,972.906s4.335-1.517,5.78-.822c4.491,2.163,5.521,0,5.521,0,1.435.124,5.768.822,5.768.822,0,4.838.323,9.693.235,13.355-.062,3.189.546,11.865.546,11.865a43.8,43.8,0,0,1-9.3,1.286,42.549,42.549,0,0,1-9.122-1.235s.242-8.788.442-12.055c-.065-3.661.13-8.391.13-13.216" transform="translate(-777.298 -894.961)" fill="#e62552"/>
        <path id="Trazado_615971" data-name="Trazado 615971" d="M1060.345,991.777c-1.789-4.269-7.1-6.984-7.705-7.191l-1.231,5.48a32.087,32.087,0,0,1,4.4,3.14,18.544,18.544,0,0,1-1.145,4.952s.767-1.059,1.714-.432c.92.609,2.612-.634,2.612-.634a4.533,4.533,0,0,0,1.354-5.315" transform="translate(-968.173 -906.641)" fill="#c4204a"/>
        <path id="Trazado_615972" data-name="Trazado 615972" d="M1012.641,1021.8a.491.491,0,0,0,.093.019h.1a.485.485,0,0,0,.412-.338l4.77-15.378a.492.492,0,0,0,.019-.093.5.5,0,0,0,0-.061c0-.012,0-.025,0-.037s0-.021-.006-.032a.483.483,0,0,0-.332-.384.489.489,0,0,0-.091-.019.472.472,0,0,0-.1,0H1005.5l-4.811,16.341h11.963Z" transform="translate(-921.466 -925.876)" fill="#95a6db"/>
        <path id="Trazado_615973" data-name="Trazado 615973" d="M1000.281,1005.5a.485.485,0,0,0-.607.319l-4.74,15.34-.011.036a.484.484,0,0,0,.317.6h0a.484.484,0,0,0,.606-.319l4.752-15.375a.484.484,0,0,0-.319-.606" transform="translate(-916.14 -925.876)" fill="#768fdb"/>
        <path id="Trazado_615974" data-name="Trazado 615974" d="M1174.643,1091.814a.5.5,0,0,1,.144-.062l-.016-.022a.875.875,0,0,1,.045-1.2.509.509,0,0,1,.172-.072.724.724,0,0,1,.222-.805.542.542,0,0,1,.31-.087.723.723,0,0,1,.237-.843.848.848,0,0,1,.923,1.393.6.6,0,0,1-.268.1.824.824,0,0,1-.121,1.072.521.521,0,0,1-.172.072.723.723,0,0,1-.222.805.537.537,0,0,1-.286.087.618.618,0,0,1-.188.746.716.716,0,0,1-.78-1.176" transform="translate(-1081.431 -1002.437)" fill="#f37a50"/>
        <path id="Trazado_615975" data-name="Trazado 615975" d="M990.966,1090.843l1.095-.634a2.068,2.068,0,0,1,2.061-1.59l-.491,1.59s.865.672,2.917-.478c2.006-.451,1.149,1.011,1.814,1.116.981.155-.715,2.083-2.718,2.378-2.592.382-2.9-.149-2.9-.149l-1.466.512Z" transform="translate(-912.516 -1002.438)" fill="#f37a50"/>
        <path id="Trazado_615976" data-name="Trazado 615976" d="M778.338,996.7a63.834,63.834,0,0,0,9.9-2.063,5.9,5.9,0,0,1,.723,3.567c-5.681,4.981-14.232,6.591-16.855,5.392-2.4-1.094-.7-15.675,5.309-19.015,2.062,3.489.924,12.118.924,12.118" transform="translate(-710.016 -906.641)" fill="#8a284c"/>
        <path id="Trazado_615977" data-name="Trazado 615977" d="M1527.758,1812.5c-2.038,2.719-7.044,1.051-6.879,4.728,7.612-.047,10.776,0,10.776,0a26.1,26.1,0,0,0-.336-3.634Z" transform="translate(-1400.474 -1669.011)"/>
        <path id="Trazado_615978" data-name="Trazado 615978" d="M1671.631,1813.4c-2.038,2.719-7.044,1.051-6.879,4.728,7.613-.047,10.776,0,10.776,0a26.083,26.083,0,0,0-.336-3.634Z" transform="translate(-1532.958 -1669.839)"/>
        <path id="Trazado_615979" data-name="Trazado 615979" d="M1553.369,1288.147s-1.236,17.427-.734,21.3,2.28,8.842,2.079,21.657a18.709,18.709,0,0,0,6.077,0s.533-14.491-2.09-20.963c1.067-6.287,4.49-20.687,4.49-20.687Z" transform="translate(-1429.61 -1186.17)" fill="#201d40"/>
        <path id="Trazado_615980" data-name="Trazado 615980" d="M1622.637,1294.163s2.5,19.565,3.717,23.276,3.6,6.849,5.816,19.473a26.488,26.488,0,0,0,5.589-.5s-1.008-15.509-4.98-19.151c-.134-6.375.642-22.968.642-22.968Z" transform="translate(-1494.18 -1191.71)" fill="#2c2858"/>
        <path id="Trazado_615981" data-name="Trazado 615981" d="M1632.348,792.816c-1.353,3.38-4.6,5.259-7.257,4.2s-3.71-4.664-2.358-8.044,4.6-5.259,7.257-4.2,3.71,4.664,2.358,8.044" transform="translate(-1493.726 -722.371)" fill="#f37a50"/>
        <path id="Trazado_615982" data-name="Trazado 615982" d="M1633.635,846.166a.5.5,0,1,1-.124-.692.5.5,0,0,1,.124.692" transform="translate(-1503.473 -778.459)"/>
        <path id="Trazado_615983" data-name="Trazado 615983" d="M1679.818,864.62a.538.538,0,1,1-.135-.749.538.538,0,0,1,.135.749" transform="translate(-1545.932 -795.393)"/>
        <path id="Trazado_615984" data-name="Trazado 615984" d="M1636.11,865.279c-.672.53-1.513,1.17-1.513,1.17a1.305,1.305,0,0,0,.938,1.162c-.343-.311-.644-.725-.287-1.2s.861-1.129.861-1.129" transform="translate(-1505.193 -796.779)" fill="#de623c"/>
        <path id="Trazado_615985" data-name="Trazado 615985" d="M1689.462,854.517a.248.248,0,0,1-.241-.191c-.007-.026-.173-.673-.728-.676a.248.248,0,0,1,0-.5,1.324,1.324,0,0,1,1.208,1.057.248.248,0,0,1-.184.3.253.253,0,0,1-.058.007" transform="translate(-1554.596 -785.613)"/>
        <path id="Trazado_615986" data-name="Trazado 615986" d="M1634.482,832.885a.207.207,0,0,1-.178-.1.6.6,0,0,0-.359-.259.676.676,0,0,0-.525.19.207.207,0,1,1-.258-.323,1.059,1.059,0,0,1,.862-.273,1.019,1.019,0,0,1,.637.455.207.207,0,0,1-.178.311" transform="translate(-1503.8 -766.23)"/>
        <path id="Trazado_615987" data-name="Trazado 615987" d="M1620.211,765.088c-.978-3.145.259-4.816.259-4.816-.84-.168-1.166.122-1.166.122a1.866,1.866,0,0,1-.1-1.615c-1.736-.677-2.6.447-4.167.826-2.145.519-4.794-.337-5.042-2.955a.447.447,0,0,1,.7-.413,1.971,1.971,0,0,0,1.168.342,2.106,2.106,0,0,1-.473-1.208.447.447,0,0,1,.738-.348,3.19,3.19,0,0,0,2.748.445c.982-.184,3.229-1.756,4.629-1.449a3.451,3.451,0,0,1,2.443,2.619,3.6,3.6,0,0,1,3.1,3.387c.277,3.042-3.246,5.375-3.246,5.375Z" transform="translate(-1482.533 -694.29)"/>
        <path id="Trazado_615988" data-name="Trazado 615988" d="M1724.244,884.891a1.294,1.294,0,1,0,1.974.339,1.431,1.431,0,0,0-1.974-.339" transform="translate(-1586.949 -814.618)" fill="#f37a50"/>
        <path id="Trazado_615989" data-name="Trazado 615989" d="M1733.551,894.761a.187.187,0,0,1-.057-.064.847.847,0,0,1,.086-1.036.9.9,0,0,1,1.027-.192.187.187,0,0,1-.168.335.534.534,0,0,0-.59.118.479.479,0,0,0-.026.6.187.187,0,0,1-.271.243" transform="translate(-1596.136 -822.659)" fill="#de623c"/>
        <path id="Trazado_615990" data-name="Trazado 615990" d="M1636.262,905.563a.158.158,0,0,1,.167-.239,11.242,11.242,0,0,0,2.973.265.158.158,0,0,1,.122.264,1.978,1.978,0,0,1-3.263-.291" transform="translate(-1506.704 -833.651)" fill="#fff"/>
        <path id="Trazado_615991" data-name="Trazado 615991" d="M1431.3,961.181s.127-.344-10.828-.256l-2.937,3.471c3.04,2.437,13.22,2.871,13.22,2.871Z" transform="translate(-1305.311 -884.839)" fill="#201d40"/>
        <path id="Trazado_615992" data-name="Trazado 615992" d="M1641.694,957.007l3.455-.323,3.343.932-3.766,3.876Z" transform="translate(-1511.728 -880.948)" fill="#95a6db"/>
        <path id="Trazado_615993" data-name="Trazado 615993" d="M1656.825,930.033c1.408,1.156,1.7,1.955,4.687.41l.449-4.6-4.87-.384Z" transform="translate(-1525.661 -852.195)" fill="#f37a50"/>
        <path id="Trazado_615994" data-name="Trazado 615994" d="M1580.081,963.219h0l-1.024-.405.137-1.446-2.84,2.281-.8.128-.767-.268-2.389-2.75-.122,1.448-.9.181-3.258.528L1567.724,981l-1.286,6.153a31.009,31.009,0,0,0,13.912,1.142l-.16-6.177,3.376-17.675Z" transform="translate(-1442.43 -884.699)" fill="#95a6db"/>
        <path id="Trazado_615995" data-name="Trazado 615995" d="M1649.925,1021.963l-2.041,13.808,1.13,1.57,1.474-1.132.5-14.132Z" transform="translate(-1517.428 -941.059)" fill="#2c2858"/>
        <path id="Trazado_615996" data-name="Trazado 615996" d="M1672.131,999.083l.746-.2.76.332-.321,1.637-1.07-.1Z" transform="translate(-1539.756 -919.809)" fill="#2c2858"/>
        <path id="Trazado_615997" data-name="Trazado 615997" d="M1543.9,962.219l-.512,16.68-2.208,10.741a10.873,10.873,0,0,1-5.637-2.393l2.75-8.086.94-16.9Z" transform="translate(-1413.978 -886.044)" fill="#2c2858"/>
        <path id="Trazado_615998" data-name="Trazado 615998" d="M1605.614,962.219l-.509,16.456-2.541-12.611Z" transform="translate(-1475.696 -886.044)" fill="#494c7f"/>
        <path id="Trazado_615999" data-name="Trazado 615999" d="M1678.131,975.7l-4.534,27.041s6.016.739,8.49-.888l-1.343-8.889,1.641-15.091Z" transform="translate(-1541.106 -898.455)" fill="#2c2858"/>
        <path id="Trazado_616000" data-name="Trazado 616000" d="M1700.045,975.7l-2.65,15.849,4.745-11.958Z" transform="translate(-1563.02 -898.456)" fill="#494c7f"/>
        <path id="Trazado_616001" data-name="Trazado 616001" d="M1351.806,703.341c.241.844.313,1.754,1.383,2.208,0,0-.158,2.8-.04,5.1,0,0,2.59-2.92,2.589-2.923a15.4,15.4,0,0,1-.126-3.67c.037-.258.088-.515.128-.774a2.9,2.9,0,0,0-.087-2.028,9.658,9.658,0,0,1-1.184-4.034c-.331-.146-1.109.443-.669,1.882a5.263,5.263,0,0,1,.32,2.075s-1.117-.211-1.513.18a2.154,2.154,0,0,0-.8,1.986" transform="translate(-1244.739 -642.002)" fill="#f37a50"/>
        <path id="Trazado_616002" data-name="Trazado 616002" d="M1360.026,816.183a9.937,9.937,0,0,1,3.477-.729c2.775,8.269,4.753,11.385,3.928,13.759-.688,1.979-2.864,1.821-3.928.338-1.4-1.956-2.646-9.388-3.477-13.367" transform="translate(-1252.359 -750.898)" fill="#201d40"/>
        <path id="Trazado_616003" data-name="Trazado 616003" d="M1765.526,1003.143l8.742,13.677,10.383,5.862-3.2,3.186-10.417-4.566-7.149-10.087Z" transform="translate(-1624.246 -923.728)" fill="#201d40"/>
        <path id="Trazado_616004" data-name="Trazado 616004" d="M1636.58,963.777a7.189,7.189,0,0,1-2.468,1.631l-1.4-3.7.711-.952Z" transform="translate(-1503.458 -884.699)" fill="#fff"/>
        <path id="Trazado_616005" data-name="Trazado 616005" d="M1681.555,970.868a6.2,6.2,0,0,0,2.139,2.044l2.034-3.379-.531-1.074Z" transform="translate(-1548.434 -891.79)" fill="#fff"/>
        <path id="Trazado_616006" data-name="Trazado 616006" d="M876.118,1439.854h-76.33c-1.794,0-3.248-.979-3.248-2.186s1.454-2.186,3.248-2.186h76.33c1.794,0,3.248.979,3.248,2.186s-1.454,2.186-3.248,2.186" transform="translate(-733.482 -1321.841)" fill="#95a6db"/>
        <path id="Trazado_616007" data-name="Trazado 616007" d="M1186.937,1502h0a1.03,1.03,0,0,1-.863-1.593l20.154-30.885,1.725,1.126-20.154,30.885a1.03,1.03,0,0,1-.863.467" transform="translate(-1092.022 -1353.188)" fill="#95a6db"/>
        <path id="Trazado_616008" data-name="Trazado 616008" d="M1195.927,1502h0a1.03,1.03,0,0,0,.863-1.593l-20.154-30.885-1.725,1.126,20.154,30.885a1.03,1.03,0,0,0,.863.467" transform="translate(-1081.898 -1353.188)" fill="#95a6db"/>
        <path id="Trazado_616009" data-name="Trazado 616009" d="M1828.655,1658.772h0a.987.987,0,0,1-.987-.987V1640.3h1.973v17.482a.987.987,0,0,1-.987.987" transform="translate(-1682.98 -1510.448)" fill="#768fdb"/>
        <path id="Trazado_616010" data-name="Trazado 616010" d="M1916.11,1658.772h0a.987.987,0,0,1-.987-.987V1640.3h1.974v17.482a.987.987,0,0,1-.987.987" transform="translate(-1763.511 -1510.448)" fill="#768fdb"/>
        <path id="Trazado_616011" data-name="Trazado 616011" d="M2030.867,1658.772h0a.987.987,0,0,1-.987-.987V1640.3h1.973v17.482a.987.987,0,0,1-.987.987" transform="translate(-1869.183 -1510.448)" fill="#768fdb"/>
        <path id="Trazado_616012" data-name="Trazado 616012" d="M2118.323,1658.772h0a.987.987,0,0,1-.987-.987V1640.3h1.973v17.482a.986.986,0,0,1-.987.987" transform="translate(-1949.716 -1510.448)" fill="#768fdb"/>
        <path id="Trazado_616013" data-name="Trazado 616013" d="M1809.473,1285.168v20.8a.429.429,0,0,1-.429.429h-12.9a2.356,2.356,0,1,0,0,4.712h15.683a2.356,2.356,0,0,0,2.356-2.356v-23.588a2.356,2.356,0,1,0-4.713,0" transform="translate(-1651.783 -1181.257)" fill="#95a6db"/>
        <rect id="Rectángulo_325481" data-name="Rectángulo 325481" width="10.198" height="23.97" transform="translate(160.046 101.555)" fill="#95a6db"/>
        <path id="Trazado_616014" data-name="Trazado 616014" d="M1938.291,1285.168v20.8a.429.429,0,0,1-.428.429h-12.9a2.356,2.356,0,0,0,0,4.712h15.684a2.356,2.356,0,0,0,2.356-2.356v-23.588a2.356,2.356,0,0,0-2.356-2.356h0a2.357,2.357,0,0,0-2.356,2.356" transform="translate(-1770.404 -1181.257)" fill="#768fdb"/>
        <path id="Trazado_616015" data-name="Trazado 616015" d="M775.511,1658.772h0a.987.987,0,0,0,.987-.987V1640.3h-1.973v17.482a.987.987,0,0,0,.987.987" transform="translate(-713.208 -1510.448)" fill="#768fdb"/>
        <path id="Trazado_616016" data-name="Trazado 616016" d="M688.054,1658.772h0a.987.987,0,0,0,.987-.987V1640.3h-1.973v17.482a.987.987,0,0,0,.987.987" transform="translate(-632.675 -1510.448)" fill="#768fdb"/>
        <path id="Trazado_616017" data-name="Trazado 616017" d="M573.3,1658.772h0a.987.987,0,0,0,.987-.987V1640.3h-1.973v17.482a.987.987,0,0,0,.987.987" transform="translate(-527.004 -1510.448)" fill="#768fdb"/>
        <path id="Trazado_616018" data-name="Trazado 616018" d="M485.842,1658.772h0a.987.987,0,0,0,.987-.987V1640.3h-1.973v17.482a.987.987,0,0,0,.987.987" transform="translate(-446.471 -1510.448)" fill="#768fdb"/>
        <path id="Trazado_616019" data-name="Trazado 616019" d="M580.4,1285.168v20.8a.429.429,0,0,0,.429.429h12.9a2.356,2.356,0,1,1,0,4.712H578.047a2.356,2.356,0,0,1-2.356-2.356v-23.588a2.356,2.356,0,0,1,2.356-2.356h0a2.356,2.356,0,0,1,2.356,2.356" transform="translate(-530.116 -1181.257)" fill="#95a6db"/>
        <rect id="Rectángulo_325482" data-name="Rectángulo 325482" width="10.198" height="23.97" transform="translate(37.733 101.555)" fill="#95a6db"/>
        <path id="Trazado_616020" data-name="Trazado 616020" d="M451.585,1285.168v20.8a.429.429,0,0,0,.429.429h12.9a2.356,2.356,0,1,1,0,4.712H449.228a2.356,2.356,0,0,1-2.356-2.356v-23.588a2.356,2.356,0,1,1,4.713,0" transform="translate(-411.495 -1181.257)" fill="#768fdb"/>
        <path id="Trazado_616021" data-name="Trazado 616021" d="M1878.607,1009.958c-2.177-.785-5.538-2.5-3.3-5.638s2.177-1.768,1.373-5.578,1.905-6.807,4.488-6.049,3.242,2.848,6.407,2.319,5.8,2.432,4.605,5-1.7,3.8-.586,5.225,6.135,2.952,4.041,6.357-3.054,3.2-2.326,4.941-.95,3.732-3.861,3.461-5.546-1.372-6.613-4.622a12.2,12.2,0,0,0-4.224-5.417" transform="translate(-1726.166 -913.997)" fill="#2c2858"/>
        <path id="Trazado_616022" data-name="Trazado 616022" d="M1790.979,1799.306l-1.72.514-1.295-1.324a6.4,6.4,0,0,0-.2-1.924l3.212-.533a27.787,27.787,0,0,1,0,3.267" transform="translate(-1646.237 -1653.854)" fill="#f37a50"/>
        <path id="Trazado_616023" data-name="Trazado 616023" d="M1725.142,1826.016a1.761,1.761,0,0,0-1.283-1.193c-1.7,2.266-5.871.876-5.733,3.94,6.344-.039,8.981,0,8.981,0a21.717,21.717,0,0,0-.28-3.029l-.331.059Z" transform="translate(-1582.107 -1680.36)" fill="#e62552"/>
        <path id="Trazado_616024" data-name="Trazado 616024" d="M1651.071,1802.1l-1.79.123-1.03-1.1a10.437,10.437,0,0,0,.288-2.4l3.018.134a27.817,27.817,0,0,1-.486,3.24" transform="translate(-1517.766 -1656.332)" fill="#f37a50"/>
        <path id="Trazado_616025" data-name="Trazado 616025" d="M1582.071,1826.016a1.761,1.761,0,0,0-1.283-1.193c-1.7,2.266-5.871.876-5.733,3.94,6.344-.039,8.981,0,8.981,0a21.736,21.736,0,0,0-.28-3.029l-.331.059Z" transform="translate(-1450.362 -1680.36)" fill="#e62552"/>
        <path id="Trazado_616026" data-name="Trazado 616026" d="M1669.178,1461.58c-4.888.658-18.657,5.761-19.425,6.684-1.585,1.907-.75,12.283-1.5,20.844l4,.236c1.917-6.972,1.764-9.982,2.631-17.979,0,0,15.731,1.178,21.416-2.659,5.861-3.956-3.169-8.064-7.122-7.127" transform="translate(-1517.766 -1345.748)" fill="#0e6a41"/>
        <path id="Trazado_616027" data-name="Trazado 616027" d="M1702.515,1334.756c1.155.2,1.6,1.124,1.878,2.831-4.4,2.592-10.938,2.777-10.938,2.777l-2.084-1.031s5.243-1.888,11.144-4.577" transform="translate(-1557.473 -1229.089)" fill="#de623c"/>
        <path id="Trazado_616028" data-name="Trazado 616028" d="M1844.5,1211.5c-1.926,2.8-9.3,8.817-10.525,9.006l-1.479-4.141s7.2-7.8,8.515-9.174c2.265-2.391,6.643-.254,3.49,4.309" transform="translate(-1687.429 -1110.708)" fill="#de623c"/>
        <path id="Trazado_616029" data-name="Trazado 616029" d="M1881.651,1207.377c1.544-1.664,3.556-5.42,6.173-5.153s2.807,3.045,2.018,4.54-3.513,5.181-3.513,5.181Z" transform="translate(-1732.689 -1107.037)" fill="#ff4f78"/>
        <path id="Trazado_616030" data-name="Trazado 616030" d="M1727.746,1356.4c1.109.382,1.743,3.877,1.431,4.144-4.756,1.884-14.652-.153-14.652-.153L1714,1358.6a77.95,77.95,0,0,0,13.746-2.2" transform="translate(-1578.31 -1249.022)" fill="#f37a50"/>
        <path id="Trazado_616031" data-name="Trazado 616031" d="M1909.433,1215.483c-1.088-5.611-1.556-7.6-2.008-10.241-1.116-6.527,2.167-11.114-3.462-14.242l-4.1.661c-3.317,3.49-5.359,6.657-5.534,8.845-.24,2.823,2.56,4.354,2.56,4.354l-1.127,7.684s-.265.627,4.36,1.5,9.313,1.437,9.313,1.437" transform="translate(-1744.347 -1096.714)" fill="#e62552"/>
        <path id="Trazado_616032" data-name="Trazado 616032" d="M1899.918,1220.84c-1.926,2.831-10.156,10.025-11.392,10.089l-.885-4.293s7.476-8.761,8.787-10.155c2.265-2.419,6.643-.257,3.49,4.359" transform="translate(-1738.205 -1119.256)" fill="#f37a50"/>
        <path id="Trazado_616033" data-name="Trazado 616033" d="M1943.343,1217.192c1.437-2.091,4.336-5.949,6.953-5.682s2.807,3.045,2.018,4.541-3.513,5.181-3.513,5.181Z" transform="translate(-1789.497 -1115.588)" fill="#ff4f78"/>
        <path id="Trazado_616034" data-name="Trazado 616034" d="M1642.731,1378.762c-1.513-.372-4.8-1.477-6.127,1.987.332.636,1.55-.934,2.073-1.079a2.262,2.262,0,0,1,2.171.806c.9.861,2.408.078,2.408.078Z" transform="translate(-1507.041 -1269.183)" fill="#f37a50"/>
        <path id="Trazado_616035" data-name="Trazado 616035" d="M1533.81,1412.823H1519.6v-1.908h16.121a1.908,1.908,0,0,1-1.908,1.908" transform="translate(-1399.297 -1299.219)" fill="#ff4f78"/>
        <path id="Trazado_616036" data-name="Trazado 616036" d="M1424.728,1253.6l7.308,11.989,1.689-.888-8.2-13.678a1.908,1.908,0,0,0-.8,2.577" transform="translate(-1311.737 -1151.989)" fill="#ff4f78"/>
        <path id="Trazado_616037" data-name="Trazado 616037" d="M1942.262,1050.167c-.691,2.886-3.089,4.786-5.356,4.243s-3.545-3.323-2.854-6.209,3.089-4.786,5.356-4.243,3.544,3.323,2.853,6.209" transform="translate(-1780.769 -961.227)" fill="#f37a50"/>
        <path id="Trazado_616038" data-name="Trazado 616038" d="M1975.765,1142.67l-3.767,2.335s-.334,1.665-.5,2.205c-.344,1.115.975,1.6,2.09.908a3.263,3.263,0,0,0,1.4-1.622Z" transform="translate(-1815.371 -1052.21)" fill="#f37a50"/>
        <path id="Trazado_616039" data-name="Trazado 616039" d="M1932.96,1038.824c1.071.092,3.39-.094,4.236-1.1.6,2.037,3.166,3.975,5.287,4.884.085-2.09.069-5.933-3.676-7.53-2.943-1.255-5.846,3.743-5.846,3.743" transform="translate(-1779.936 -952.953)" fill="#2c2858"/>
        <path id="Trazado_616040" data-name="Trazado 616040" d="M1940.718,1101.4a.405.405,0,1,1-.182-.544.406.406,0,0,1,.182.544" transform="translate(-1786.373 -1013.663)"/>
        <path id="Trazado_616041" data-name="Trazado 616041" d="M1980.2,1110.755a.439.439,0,1,1-.2-.589.439.439,0,0,1,.2.589" transform="translate(-1822.672 -1022.237)"/>
        <path id="Trazado_616042" data-name="Trazado 616042" d="M1984.127,1102.568a.152.152,0,0,1-.071-.073,1.162,1.162,0,0,0-.82-.568.153.153,0,0,1,.043-.3,1.452,1.452,0,0,1,1.054.742.153.153,0,0,1-.206.2" transform="translate(-1826.112 -1014.413)" fill="#2c2858"/>
        <path id="Trazado_616043" data-name="Trazado 616043" d="M1937.5,1094.369a.153.153,0,0,1-.039-.245,1.072,1.072,0,0,1,1.063-.261.153.153,0,0,1-.1.289.765.765,0,0,0-.75.189.153.153,0,0,1-.175.028" transform="translate(-1784.042 -1007.224)" fill="#2c2858"/>
        <path id="Trazado_616044" data-name="Trazado 616044" d="M1944.766,1119.09a4.052,4.052,0,0,1-.63.6.16.16,0,0,0-.053.214,2.206,2.206,0,0,0,.979.685.043.043,0,0,0,.045-.072,2.076,2.076,0,0,1-.5-.582.19.19,0,0,1,0-.173c.063-.126.19-.382.276-.594a.072.072,0,0,0-.119-.077" transform="translate(-1790.16 -1030.476)" fill="#de623c"/>
        <path id="Trazado_616045" data-name="Trazado 616045" d="M2019.786,1120.094a1.055,1.055,0,1,0,1.633.04,1.166,1.166,0,0,0-1.633-.04" transform="translate(-1859.385 -1031.135)" fill="#f37a50"/>
        <path id="Trazado_616046" data-name="Trazado 616046" d="M2027.467,1128.205a.151.151,0,0,1-.054-.045.69.69,0,0,1-.053-.846.736.736,0,0,1,.806-.277.153.153,0,0,1-.1.29.436.436,0,0,0-.462.165.391.391,0,0,0,.049.484.153.153,0,0,1-.19.228" transform="translate(-1866.751 -1037.786)" fill="#de623c"/>
        <path id="Trazado_616047" data-name="Trazado 616047" d="M1750.812,1470.48c-4.888.658-18.678,5.127-19.446,6.051-1.585,1.907,1.944,10.073,3.073,20.586h4.718c-.049-7.491.549-14.382-1.756-16.824,0,0,13.218-.882,19.808-.882,3.359,0,5.218-11.35-6.4-8.931" transform="translate(-1593.931 -1353.757)" fill="#3f964f"/>
        <path id="Trazado_616048" data-name="Trazado 616048" d="M1950.053,1147.718a.124.124,0,0,1,.114-.2,8.816,8.816,0,0,0,2.34,0,.124.124,0,0,1,.114.2,1.551,1.551,0,0,1-2.569,0" transform="translate(-1795.653 -1056.675)" fill="#fff"/>
        <path id="Trazado_616049" data-name="Trazado 616049" d="M757.22,1360.258c-.933.622-.675,4.006-.323,4.178,4.854.593,13.051-3.428,13.051-3.428l.321-1.8a84.18,84.18,0,0,1-13.05,1.049" transform="translate(-696.682 -1251.606)" fill="#f37a50"/>
        <path id="Trazado_616050" data-name="Trazado 616050" d="M618.982,1239.3c1.735,2.775,9.33,9.949,10.508,10.056l1-4.068s-6.817-8.643-8.018-10.023c-2.074-2.394-6.335-.49-3.494,4.034" transform="translate(-569.108 -1136.518)" fill="#f37a50"/>
        <path id="Trazado_616051" data-name="Trazado 616051" d="M487.058,1027.162c.209-2.841-.613-5.351-2.878-6.629-2.3-1.3-5.172-.025-5.172-.025a4.469,4.469,0,0,0-4.641,1.564c-2.206,2.43-.537,4.569-1.44,6.341-.534,1.05-3.252,1.266-2.55,4.685a2.6,2.6,0,0,0,2.393,1.716c1.765.116,3.408-.566,4.124.116,2.357,2.248,7.581,1.435,8.312-.621.227-.638,4.926.6,4.457-3.747-.238-2.2-2.792-.862-2.605-3.4" transform="translate(-433.034 -939.206)" fill="#2c2858"/>
        <path id="Trazado_616052" data-name="Trazado 616052" d="M568.362,1219.03l-3.731-.689-1.4,1.862,2.973,6.1,4.373-3.712Z" transform="translate(-518.644 -1121.891)" fill="#f37a50"/>
        <path id="Trazado_616053" data-name="Trazado 616053" d="M520.971,1233.675c-.064-1.16,1.811-5.923.824-8.321-.719-1.928-1.919-5.166-3.389-5.706-.694-.255-1.407-.432-2.271-.671,0,0,.488,2.43-.528,2.512-1.956.157-3.2-3.2-3.2-3.2-1.054-.1-5.891,1.489-5.889,1.886.011,3.111,2.539,7.65,3.365,11.013.325,3.633-.942,7.98-.947,8.393,0,0,7.781,2.188,12.394-.352.1-.354-.268-3.952-.356-5.553" transform="translate(-466.416 -1121.837)" fill="#3f964f"/>
        <path id="Trazado_616054" data-name="Trazado 616054" d="M526.421,1440.151a43.115,43.115,0,0,0-2.137,7.062,5.059,5.059,0,0,0,1.945,4.479h19.66s2.1-3.413,1.5-5.77-2-2.732-2-2.732Z" transform="translate(-482.733 -1326.141)" fill="#3f964f"/>
        <path id="Trazado_616055" data-name="Trazado 616055" d="M651.038,1476.663c-2.51-.354-9.795,2.476-12.9,8.623h8.69Z" transform="translate(-587.619 -1359.734)" fill="#de623c"/>
        <path id="Trazado_616056" data-name="Trazado 616056" d="M766.327,1478.069a6.958,6.958,0,0,0,.878-1.249,2.168,2.168,0,0,1,3.5-.409c3.623,3.995,11.347,13.1,13.069,14.234a10.47,10.47,0,0,0,6.024,1.632s1.332.507.445,1.565c-.457.544-7.315,1.107-7.315,1.107l-.534-2.014c-3.992-2.955-8.962-2.742-13.176-8.144a16.236,16.236,0,0,1-2.886-6.721" transform="translate(-705.66 -1358.879)" fill="#de623c"/>
        <path id="Trazado_616057" data-name="Trazado 616057" d="M967.226,1677.032l2.76,1.791.379-.452-2.239-2.088c1.272-1,4.217-.166,4.217-.166.965-.623,2.845-2.644,3.039-3.727-.618-.77-2.675.814-2.675.814a2.527,2.527,0,0,1-1.091,1.734,9.619,9.619,0,0,1-6.314-1.082s-1.527,2.314,1.924,3.176" transform="translate(-888.574 -1539.8)" fill="#e62552"/>
        <path id="Trazado_616058" data-name="Trazado 616058" d="M748.421,1511.959a1.3,1.3,0,0,0-.95,1.072c-.2,1.394-1.212,4.218.162,7.175,3.372,7.259,5.362,12.042,5.716,13.916-.881,1.649,2.631,6.155,2.683,6.45l2.528-.791s-1.45-2.158-1.973-3c-1.244-2.012-1.447-4.48-1.649-6.394-.863-8.169.621-13.326-5.29-18.118a1.38,1.38,0,0,0-1.227-.307" transform="translate(-687.794 -1392.226)" fill="#f37a50"/>
        <path id="Trazado_616059" data-name="Trazado 616059" d="M807.384,1795.841l.249,3.281.59.027.3-3.046c1.569.4,2.689,3.252,2.689,3.252,1.081.389,3.828.659,4.807.157.237-.958-2.269-1.634-2.269-1.634a2.526,2.526,0,0,1-2.041.184,9.771,9.771,0,0,1-3.068-5.677s-2.667.189-1.259,3.455" transform="translate(-743.089 -1650.491)" fill="#e62552"/>
        <path id="Trazado_616060" data-name="Trazado 616060" d="M580.885,1183.275l-3.029-.454.241,2.812s.58,1.274,1.253,1.36l2.478-.672Z" transform="translate(-532.11 -1089.182)" fill="#f37a50"/>
        <path id="Trazado_616061" data-name="Trazado 616061" d="M539.979,1054.248c.782,3.266,3.5,5.416,6.061,4.8s4.011-3.76,3.229-7.026-3.5-5.416-6.061-4.8-4.011,3.76-3.229,7.026" transform="translate(-497.036 -964.221)" fill="#f37a50"/>
        <path id="Trazado_616062" data-name="Trazado 616062" d="M644.049,1112.218a.459.459,0,1,0,.206-.615.459.459,0,0,0-.206.615" transform="translate(-593.018 -1023.558)"/>
        <path id="Trazado_616063" data-name="Trazado 616063" d="M598.489,1122.809a.5.5,0,1,0,.223-.666.5.5,0,0,0-.223.666" transform="translate(-551.061 -1033.259)"/>
        <path id="Trazado_616064" data-name="Trazado 616064" d="M589.255,1113.543a.171.171,0,0,0,.08-.082,1.315,1.315,0,0,1,.928-.642.173.173,0,0,0-.049-.342,1.643,1.643,0,0,0-1.193.839.173.173,0,0,0,.234.227" transform="translate(-542.377 -1024.405)" fill="#2c2858"/>
        <path id="Trazado_616065" data-name="Trazado 616065" d="M642.412,1104.265a.171.171,0,0,0,.046-.033.173.173,0,0,0,0-.244,1.213,1.213,0,0,0-1.2-.3.173.173,0,0,0,.112.327.866.866,0,0,1,.849.214.173.173,0,0,0,.2.032" transform="translate(-590.38 -1016.27)" fill="#2c2858"/>
        <path id="Trazado_616066" data-name="Trazado 616066" d="M636.19,1132.24a4.6,4.6,0,0,0,.713.677.182.182,0,0,1,.06.242,2.5,2.5,0,0,1-1.108.775.049.049,0,0,1-.051-.081,2.358,2.358,0,0,0,.565-.658.217.217,0,0,0,0-.2c-.072-.142-.215-.432-.312-.672a.082.082,0,0,1,.135-.087" transform="translate(-585.454 -1042.583)" fill="#de623c"/>
        <path id="Trazado_616067" data-name="Trazado 616067" d="M534.118,1133.376a1.194,1.194,0,1,1-1.847.046,1.32,1.32,0,0,1,1.847-.046" transform="translate(-489.941 -1043.328)" fill="#f37a50"/>
        <path id="Trazado_616068" data-name="Trazado 616068" d="M542.985,1142.556a.171.171,0,0,0,.061-.051.781.781,0,0,0,.06-.957.833.833,0,0,0-.912-.313.173.173,0,0,0,.108.328.493.493,0,0,1,.523.186.442.442,0,0,1-.056.548.173.173,0,0,0,.215.258" transform="translate(-499.163 -1050.855)" fill="#de623c"/>
        <path id="Trazado_616069" data-name="Trazado 616069" d="M604.74,1162.868a.138.138,0,0,1,.126-.219,9.752,9.752,0,0,0,2.593,0,.138.138,0,0,1,.126.219,1.718,1.718,0,0,1-2.845,0" transform="translate(-556.84 -1070.606)" fill="#fff"/>
        <path id="Trazado_616070" data-name="Trazado 616070" d="M536.31,1046.731c3.062-.41,7.346-3.53,7.7-5.131-.592-1.923-3.748-2.89-5.53-2s-3.465,4.709-2.168,7.129" transform="translate(-493.43 -956.993)" fill="#2c2858"/>
        <path id="Trazado_616071" data-name="Trazado 616071" d="M897.252,1240h0a.776.776,0,0,1-.5-.979l4.726-14.479a.776.776,0,0,1,.979-.5h0a.776.776,0,0,1,.5.979l-4.726,14.479a.776.776,0,0,1-.979.5" transform="translate(-825.727 -1127.111)" fill="#fff"/>
        <path id="Trazado_616072" data-name="Trazado 616072" d="M927.443,1326.171l.963-2.95a3.989,3.989,0,0,1,0,3.308c-.835,1.611-1.629,1.683-1.629,1.683Z" transform="translate(-853.408 -1218.467)" fill="#f37a50"/>
        <path id="Trazado_616073" data-name="Trazado 616073" d="M912.117,1327.26c-.244-.573-.817-2.005-.244-2s.667.7.667.7Z" transform="translate(-839.457 -1220.347)" fill="#f37a50"/>
        <path id="Trazado_616074" data-name="Trazado 616074" d="M319.748,1210.676a2.147,2.147,0,0,0,.447-2.656c.713-.153,4.476,5.547,6.1,9.169,2.83-2.853,7.817-6.7,9.166-6.929a2.061,2.061,0,0,1,2.473,1.71c.583,1.963-1.692,3.354-1.692,3.354s-9.734,6.872-11.173,6.261c-2.24-.95-4.268-9.13-5.319-10.91" transform="translate(-294.435 -1112.383)" fill="#f37a50"/>
        <path id="Trazado_616075" data-name="Trazado 616075" d="M224.321,1190.194c.794.048,1.777-.344,2.083.368l1.568-.764.095-.945c-1.347-2.158-4.631-2.771-4.956-2.8-.845-.074-1.237-.161-1.3-.048s-.273.865.953,1.012c1.538.185.517,1.414-2.6.244-.781-.293-2.252.087-1.72.658.586.629,2.27,2.055,5.884,2.275" transform="translate(-201.04 -1092.064)" fill="#f37a50"/>
        <path id="Trazado_616076" data-name="Trazado 616076" d="M1136.348,684.365a6.24,6.24,0,0,1-.352,2.066c-1.151,3.3-4.993,5.731-9.557,5.731s-8.405-2.427-9.556-5.731a6.234,6.234,0,0,1-.353-2.066Z" transform="translate(-1028.139 -630.187)" fill="#3f964f"/>
        <path id="Trazado_616077" data-name="Trazado 616077" d="M1136.348,684.365a6.24,6.24,0,0,1-.352,2.066h-19.112a6.234,6.234,0,0,1-.353-2.066Z" transform="translate(-1028.139 -630.187)" fill="#0e6a41"/>
        <path id="Trazado_616078" data-name="Trazado 616078" d="M1021.077,20.749a20.751,20.751,0,1,0-37.151,12.712,25.975,25.975,0,0,1,5.506,15.921v.1h21.789v-.1a26.05,26.05,0,0,1,5.521-15.94,20.657,20.657,0,0,0,4.335-12.694" transform="translate(-902.027 0.001)" fill="#ffe91d"/>
        <path id="Trazado_616079" data-name="Trazado 616079" d="M1133.008,224.229a.531.531,0,0,1-.5-.705c.024-.07,2.471-7.12,4.249-14.3,3.152-12.724,1.53-14.793.686-15.091a5.3,5.3,0,0,0-5.675,1.665,10.576,10.576,0,0,0-1.026,1.228,20.09,20.09,0,0,1,1.408,3c1.1,2.936,1.391,5.678.781,7.335a2.6,2.6,0,0,1-2.815,1.825,3.007,3.007,0,0,1-2.685-2.125,9.963,9.963,0,0,1,.2-5.989,15.989,15.989,0,0,1,1.863-4.091,10.284,10.284,0,0,0-2.5-2.824,2.906,2.906,0,0,0-3.812-.129c-2.4,1.879-2.5,7.528-.266,16.338a116.649,116.649,0,0,0,4.266,13.135.531.531,0,0,1-.984.4,117.884,117.884,0,0,1-4.307-13.262c-2.376-9.386-2.161-15.255.639-17.444a3.959,3.959,0,0,1,5.09.107,10.993,10.993,0,0,1,2.522,2.761,11.247,11.247,0,0,1,.87-1c2.03-2.07,4.44-2.753,6.786-1.923,1.461.517,2.06,2.483,1.832,6.011a62.26,62.26,0,0,1-1.844,10.342c-1.79,7.226-4.251,14.316-4.276,14.387a.531.531,0,0,1-.5.356m-2.912-26.21a15.069,15.069,0,0,0-1.449,3.352,9.064,9.064,0,0,0-.223,5.315,1.963,1.963,0,0,0,1.771,1.441,1.544,1.544,0,0,0,1.74-1.134c.7-1.911-.15-5.814-1.839-8.974" transform="translate(-1031.569 -177.092)" fill="#fff"/>
        <path id="Trazado_616080" data-name="Trazado 616080" d="M1099.925,600.072h-18.113a3.91,3.91,0,0,1-3.91-3.91V596a3.91,3.91,0,0,1,3.91-3.91h18.113a3.91,3.91,0,0,1,3.91,3.91v.164a3.91,3.91,0,0,1-3.91,3.91" transform="translate(-992.569 -545.215)" fill="#3f964f"/>
        <path id="Trazado_616081" data-name="Trazado 616081" d="M1587.733,232.214h-6.785a1.749,1.749,0,0,1,0-3.5h6.785a1.749,1.749,0,0,1,0,3.5" transform="translate(-1454.182 -210.61)" fill="#ffe91d"/>
        <path id="Trazado_616082" data-name="Trazado 616082" d="M782.842,232.214h-6.785a1.749,1.749,0,1,1,0-3.5h6.785a1.749,1.749,0,0,1,0,3.5" transform="translate(-713.01 -210.61)" fill="#ffe91d"/>
        <path id="Trazado_616083" data-name="Trazado 616083" d="M865.737,7.247l-5.4-4.108A1.749,1.749,0,0,1,862.455.356l5.4,4.109a1.749,1.749,0,1,1-2.118,2.783" transform="translate(-791.593 0.002)" fill="#ffe91d"/>
        <path id="Trazado_616084" data-name="Trazado 616084" d="M1509.8,7.247l5.4-4.108a1.749,1.749,0,0,0-2.118-2.783l-5.4,4.109a1.749,1.749,0,1,0,2.118,2.783" transform="translate(-1387.687 0.002)" fill="#ffe91d"/>
        <path id="Trazado_616085" data-name="Trazado 616085" d="M865.737,433.281l-5.4,4.108a1.749,1.749,0,0,0,2.118,2.783l5.4-4.109a1.749,1.749,0,0,0-2.118-2.783" transform="translate(-791.593 -398.651)" fill="#ffe91d"/>
        <path id="Trazado_616086" data-name="Trazado 616086" d="M1509.8,433.281l5.4,4.108a1.749,1.749,0,0,1-2.118,2.783l-5.4-4.109a1.749,1.749,0,0,1,2.118-2.783" transform="translate(-1387.687 -398.651)" fill="#ffe91d"/>
        <path id="Trazado_616087" data-name="Trazado 616087" d="M1267.486,1179.765a25.609,25.609,0,0,1-2.184-6.066,34.466,34.466,0,0,1-.451-7.557.392.392,0,0,1,.726-.189,22.576,22.576,0,0,1,3.156,7.747,60.39,60.39,0,0,1,.551,6.066Z" transform="translate(-1164.686 -1073.476)" fill="#3f964f"/>
        <path id="Trazado_616088" data-name="Trazado 616088" d="M1319.153,1215.48a48.428,48.428,0,0,1,2.184-6,22.27,22.27,0,0,1,3.7-4.846.267.267,0,0,1,.456.234,22.812,22.812,0,0,1-1.769,5.746,27.182,27.182,0,0,1-3.494,4.866Z" transform="translate(-1214.722 -1109.192)" fill="#3f964f"/>
        <path id="Trazado_616089" data-name="Trazado 616089" d="M1251.1,1296.1a.364.364,0,0,1,.44-.511,6.229,6.229,0,0,1,2.141,1.241,4.444,4.444,0,0,1,1.38,2.263l-.4.135a5.577,5.577,0,0,1-3.561-3.127" transform="translate(-1152.016 -1193.001)" fill="#0e6a41"/>
        <path id="Trazado_616090" data-name="Trazado 616090" d="M1312.9,1191.661a.4.4,0,0,0-.722-.2,14.958,14.958,0,0,0-2.622,6.088,14.472,14.472,0,0,0,.091,5.726h.46a39.758,39.758,0,0,0,2.354-5.383,19.025,19.025,0,0,0,.439-6.227" transform="translate(-1205.674 -1096.981)" fill="#0e6a41"/>
        <path id="Trazado_616091" data-name="Trazado 616091" d="M1332.714,1290.323a7.47,7.47,0,0,1,4.307-4.48.239.239,0,0,1,.3.315c-.439,1.072-1.692,3.632-3.807,4.164Z" transform="translate(-1227.209 -1184.034)" fill="#0e6a41"/>
        <path id="Trazado_616092" data-name="Trazado 616092" d="M1280.25,1335.668h-7.714l.99,7.9h5.734Z" transform="translate(-1171.795 -1229.929)" fill="#768fdb"/>
        <path id="Trazado_616093" data-name="Trazado 616093" d="M1112.025,1407.425v1.134h.309a.271.271,0,0,1,.271.271v.046a.271.271,0,0,1-.271.271h-13.162a.316.316,0,0,1-.316-.316V1407.2a.316.316,0,0,1,.316-.316h13.162a.271.271,0,1,1,0,.543Z" transform="translate(-1011.864 -1295.505)" fill="#e62552"/>
        <path id="Trazado_616094" data-name="Trazado 616094" d="M1129.113,1414.873H1117.6a.231.231,0,0,1-.231-.231v-.673a.23.23,0,0,1,.231-.23h11.512Z" transform="translate(-1028.913 -1301.819)" fill="#fff"/>
        <path id="Trazado_616095" data-name="Trazado 616095" d="M1077.4,1375.816v1.255h-.309a.287.287,0,0,0-.271.3v.05a.287.287,0,0,0,.271.3h13.162a.334.334,0,0,0,.316-.349v-1.808a.334.334,0,0,0-.316-.349H1077.1a.3.3,0,0,0,0,.6Z" transform="translate(-991.577 -1266.345)" fill="#3f964f"/>
        <path id="Trazado_616096" data-name="Trazado 616096" d="M1083.661,1384.056h11.5a.242.242,0,0,0,.242-.243v-.77a.243.243,0,0,0-.242-.243h-11.5Z" transform="translate(-997.872 -1273.331)" fill="#fff"/>
        <path id="Trazado_616097" data-name="Trazado 616097" d="M1102.857,1336.85h-12a.48.48,0,0,1-.48-.48V1335.3a.48.48,0,0,1,.48-.48h12a.48.48,0,0,1,.48.48v1.075a.48.48,0,0,1-.48.48" transform="translate(-1004.054 -1229.143)" fill="#e62552"/>
        <path id="Trazado_616098" data-name="Trazado 616098" d="M1113.674,1361.687h-12.237a.363.363,0,0,1-.363-.363v-.437a.363.363,0,0,1,.363-.363h12.237a.363.363,0,0,1,.363.363v.437a.363.363,0,0,1-.363.363" transform="translate(-1013.907 -1252.817)" fill="#768fdb"/>
      </g>
    </g>
  </g>
</svg>
