<svg xmlns="http://www.w3.org/2000/svg" xmlns:xlink="http://www.w3.org/1999/xlink" width="169" height="169" viewBox="0 0 169 169">
  <defs>
    <filter id="Elipse_4753" x="0" y="0" width="169" height="169" filterUnits="userSpaceOnUse">
      <feOffset dy="6" input="SourceAlpha"/>
      <feGaussianBlur stdDeviation="5" result="blur"/>
      <feFlood flood-opacity="0.329"/>
      <feComposite operator="in" in2="blur"/>
      <feComposite in="SourceGraphic"/>
    </filter>
    <clipPath id="clip-path">
      <rect id="Rect치ngulo_324752" data-name="Rect치ngulo 324752" width="64.616" height="64.511" fill="none"/>
    </clipPath>
  </defs>
  <g id="Grupo_877372" data-name="Grupo 877372" transform="translate(-424.283 -10230.89)">
    <g transform="matrix(1, 0, 0, 1, 424.28, 10230.89)" filter="url(#Elipse_4753)">
      <circle id="Elipse_4753-2" data-name="Elipse 4753" cx="69.5" cy="69.5" r="69.5" transform="translate(15 9)" fill="#ffb500"/>
    </g>
    <g id="Grupo_876204" data-name="Grupo 876204" transform="translate(476.283 10276.89)">
      <g id="Grupo_876203" data-name="Grupo 876203" transform="translate(0 0)" clip-path="url(#clip-path)">
        <path id="Trazado_613800" data-name="Trazado 613800" d="M0,24.3c.27.27.454.453.683.683H4.161v5.557c.229.229.413.412.644.641H8.287v3.492l.727.68H64l.6-.755V10.977l-.943-.583H60.5V6.906l-.76-.721H56.307V.6L55.446,0H.626L0,.618Z" transform="translate(0 0.001)" fill="#040506"/>
        <path id="Trazado_613801" data-name="Trazado 613801" d="M64.616,25.557v-.724l-.655-.642H55.91l-8.292,8.294H33.942c-.092-.141-.258-.392-.556-.845v-.616c.173-.1.471-.276,1.012-.6H40l4.8-4.8v-.817l-.7-.611H28.9a32,32,0,0,0-3.218,2.778c-.868.7-1.584,1.562-2.469,2.206a16.236,16.236,0,0,0-1.891,1.69c-.6.6-1.427.93-1.888,1.636H16.781c-.242-.446,0-.932-.2-1.53l-.672-.557h-3.37v-1.36l-.668-.709H.647C.43,28.572.214,28.787,0,29V48.527l.662.641H11.873c.181-.2.384-.423.657-.722v-1.34h3.479c.229-.229.413-.413.644-.642v-1.4H45.09L64.616,25.557" transform="translate(0 15.344)" fill="#040506"/>
        <rect id="Rect치ngulo_324751" data-name="Rect치ngulo 324751" width="52.061" height="20.731" transform="translate(10.448 12.509)" fill="#74aa46"/>
        <path id="Trazado_613802" data-name="Trazado 613802" d="M3.3,6.084l.737-.706H53.328V1.291H1.3V22.028H3.3Z" transform="translate(0.827 0.819)" fill="#74aa46"/>
        <path id="Trazado_613803" data-name="Trazado 613803" d="M55.9,7.146V5.106H3.848V25.822H5.873v-18l.672-.672Z" transform="translate(2.441 3.239)" fill="#90bd6a"/>
        <path id="Trazado_613804" data-name="Trazado 613804" d="M10.218,33.77v8.287H37.9L54.481,25.5H50.134c-2.719,2.718-5.508,5.5-8.276,8.268H27.077a4.185,4.185,0,0,1-2.293-2.4,2.717,2.717,0,0,0-.008-.675c-.229-1.195.928-2.531,2.165-3.087a1.925,1.925,0,0,1,.75-.07c.868-.008,1.736,0,2.6,0h2.417c.678-.678,1.32-1.32,2.022-2.02h-11.7c-.935,1.061-2.192,1.953-3.316,3-1.523,1.41-3.164,2.695-4.643,4.159-.415.41-1.013.608-1.334,1.11Z" transform="translate(6.481 16.172)" fill="#fdd6a0"/>
        <path id="Trazado_613805" data-name="Trazado 613805" d="M9.613,40.244v-12.1a.683.683,0,0,0-.088-.093.217.217,0,0,0-.111-.042c-2.683,0-5.369,0-8.139,0V42.585a1.227,1.227,0,0,0,.954.332,15.875,15.875,0,0,0,6.787-2,1.962,1.962,0,0,0,.6-.672" transform="translate(0.809 17.767)" fill="#74808f"/>
        <path id="Trazado_613806" data-name="Trazado 613806" d="M9.613,35.5A19.5,19.5,0,0,1,5.768,37.14a5.535,5.535,0,0,1-2.01.415c-.476-.074-.74.363-1.191.3a9.186,9.186,0,0,0-1.291-.013V39.8a.763.763,0,0,0,.092.08.234.234,0,0,0,.113.039c2.682,0,5.364,0,8.134,0Z" transform="translate(0.809 22.515)" fill="#616f7f"/>
        <path id="Trazado_613807" data-name="Trazado 613807" d="M9.737,35.534V29.322c-.66-.075-1.33-.015-2.084-.042v8.336c1.247-.142,1.667-1.11,2.084-2.082" transform="translate(4.854 18.572)" fill="#e2ded4"/>
        <path id="Trazado_613808" data-name="Trazado 613808" d="M9.737,33.107a10.4,10.4,0,0,1-2.084,2.082V39.3c.657.131,1.332,0,2.084.082Z" transform="translate(4.854 21)" fill="#cdc3b5"/>
        <path id="Trazado_613809" data-name="Trazado 613809" d="M28.571,26.729a10.061,10.061,0,0,0,6.4-6.169,10.865,10.865,0,0,0,.021-5.754,2.126,2.126,0,0,1-.4-.879,9.8,9.8,0,0,0-4.906-4.873c-.5-.162-.956-.4-1.463-.562a10.745,10.745,0,0,0-3.548-.185,7.829,7.829,0,0,0-1.745.451,7.75,7.75,0,0,0-3.5,2.164c-.842.869-1.881,1.76-2.04,3.138-1.017,1.551-.909,3.318-.734,5a7.39,7.39,0,0,0,1.714,4.074,12.187,12.187,0,0,0,2.814,2.594,13.529,13.529,0,0,0,2.563,1.043A10.171,10.171,0,0,0,27.028,27c.57.015,1.1-.407,1.543-.266" transform="translate(10.491 5.233)" fill="#040506"/>
        <path id="Trazado_613810" data-name="Trazado 613810" d="M21.163,25.544V23.462H9.785V11h11.34V8.92H8.228c-.074.144-.212.418-.353.693l-.2-.155V24.931c.181.183.4.4.613.613H21.163" transform="translate(4.869 5.658)" fill="#040506"/>
        <path id="Trazado_613811" data-name="Trazado 613811" d="M40.129,10.921v12.5H28.752V25.5H41.608c.2-.191.417-.4.628-.608V9.534l-.618-.61h-12.9v2Z" transform="translate(18.213 5.661)" fill="#040506"/>
        <path id="Trazado_613812" data-name="Trazado 613812" d="M10.23,17.715l.619.6H17.9l.6-.83V12.673c-.159-.116-.4-.291-.793-.57h-6.9l-.579.579Z" transform="translate(6.489 7.677)" fill="#040506"/>
        <path id="Trazado_613813" data-name="Trazado 613813" d="M37.011,18.325l.647-.65V12.708c-.2-.172-.425-.369-.706-.614H29.943c-.116.188-.275.446-.59.961v4.676c.181.111.474.291.966.595h6.692" transform="translate(18.618 7.672)" fill="#040506"/>
        <path id="Trazado_613814" data-name="Trazado 613814" d="M24.6,9.536a7.413,7.413,0,0,0-6.748,7.416A6.929,6.929,0,0,0,20,21.906a7.12,7.12,0,0,0,10.268.049A6.984,6.984,0,0,0,32.45,16.63,7.542,7.542,0,0,0,24.6,9.536" transform="translate(11.324 6.049)" fill="#90bd6a"/>
        <path id="Trazado_613815" data-name="Trazado 613815" d="M11.506,15.424h4.081v-2.03a18.782,18.782,0,0,0-1.977-.029c-.686-.011-1.373,0-2.1,0Z" transform="translate(7.298 8.47)" fill="#90bd6a"/>
        <path id="Trazado_613816" data-name="Trazado 613816" d="M34.719,13.371H30.638V15.4a18.782,18.782,0,0,0,1.977.029c.686.011,1.373,0,2.1,0Z" transform="translate(19.433 8.482)" fill="#90bd6a"/>
        <path id="Trazado_613817" data-name="Trazado 613817" d="M22.91,21.549v1.034h2.053c.016-.289.031-.58.052-.959.467-.023,1.034.054,1.383-.3.33-.333.8-.459,1.054-.951a4.966,4.966,0,0,0,.642-1.16,8.208,8.208,0,0,0,.023-1.554c-.649-1.278-1.487-2.311-3.063-2.352V13.2a1.578,1.578,0,0,1,1.066,1.093h1.917c.405-.972-.52-1.487-.747-2.232-.755-.266-1.262-1.136-2.263-.825V10.21h-2.1c-.015.288-.031.579-.051.964a2.3,2.3,0,0,0-1.688.538,9.4,9.4,0,0,0-1.183,1.437c-.445.647-.087,1.335-.248,1.951.667,1.312,1.505,2.347,3.081,2.386v2.066c-.717-.381-.717-.381-1.072-1.049H19.857c-.4.972.521,1.487.747,2.232.757.266,1.263,1.136,2.306.814" transform="translate(12.531 6.477)" fill="#040506"/>
        <path id="Trazado_613818" data-name="Trazado 613818" d="M22.948,16.818c.613-.07.739-.453,1.036-.65v-.842l-.868-.8a9.437,9.437,0,0,0-.168,2.29" transform="translate(14.555 9.215)" fill="#87b263"/>
        <path id="Trazado_613819" data-name="Trazado 613819" d="M22.079,12.064c-.6.07-.722.451-1.02.649v.8c.217.232.41.572.791.68.092-.057.219-.1.221-.145.013-.639.008-1.278.008-1.986" transform="translate(13.357 7.653)" fill="#87b263"/>
      </g>
    </g>
  </g>
</svg>
