<svg xmlns="http://www.w3.org/2000/svg" xmlns:xlink="http://www.w3.org/1999/xlink" width="85" height="85" viewBox="0 0 85 85">
  <defs>
    <clipPath id="clip-path">
      <rect id="Rectángulo_326165" data-name="Rectángulo 326165" width="51.818" height="51.936" fill="none"/>
    </clipPath>
  </defs>
  <g id="Grupo_877366" data-name="Grupo 877366" transform="translate(-284.615 -9352.631)">
    <circle id="Elipse_5180" data-name="Elipse 5180" cx="42.5" cy="42.5" r="42.5" transform="translate(284.615 9352.631)" fill="#a3314f"/>
    <g id="Grupo_877329" data-name="Grupo 877329" transform="translate(301.615 9369.631)">
      <g id="Grupo_877328" data-name="Grupo 877328" transform="translate(0 0)" clip-path="url(#clip-path)">
        <path id="Trazado_616892" data-name="Trazado 616892" d="M26.357,18.95c.381.5.743.85,1.076,1.252a8.436,8.436,0,0,0,2.011,1.928c.25.154.421.434.668.593a9.778,9.778,0,0,0,1.318.721,8.368,8.368,0,0,0,1.941.652,10.5,10.5,0,0,0,1.93.269c1.617-.039,3.235-.013,4.924-.013.244.247.524.532.806.814q5.218,5.229,10.438,10.456c.095.1.192.189.286.287a1.28,1.28,0,0,0,1.924.273,2.013,2.013,0,0,0,.2-1.132q-.012-6.989-.005-13.976a2.617,2.617,0,0,0-.812-1.081Q46.524,13.438,39.992,6.876a2.448,2.448,0,0,0-1.913-.78c-3.2.03-6.4.013-9.625.013-.23-.37-.46-.758-.712-1.115A11.169,11.169,0,0,0,22.878.94,15.241,15.241,0,0,0,20.35.185,9.863,9.863,0,0,0,17.193.077a9.131,9.131,0,0,0-2.642.667,12.394,12.394,0,0,0-2.328,1.2A10.96,10.96,0,0,0,8.3,6.67a15.208,15.208,0,0,0-.8,2.612,9.939,9.939,0,0,0-.11,3.162,8.812,8.812,0,0,0,.668,2.645,14.93,14.93,0,0,0,1.323,2.489,12.1,12.1,0,0,0,2.851,2.848,16,16,0,0,0,3.746,1.7c.695-.083,1.332.321,2.041.215.462-.069.947.034,1.413-.022A10.787,10.787,0,0,0,24.3,20.653a9.109,9.109,0,0,0,2.059-1.7" transform="translate(-2.063 0)" fill="#040506"/>
        <path id="Trazado_616893" data-name="Trazado 616893" d="M18.222,64.946c.365.229.165.848.673,1.013,3.4,0,6.8-.011,10.2.019.3,0,.461-.235.738-.225.221-.066.1-.327.273-.475a29.4,29.4,0,0,0,2.493-2.92c.928-1.042,1.757-2.177,2.65-3.256s1.766-2.171,2.647-3.259c.286-.354.583-.7.871-1.052a1.186,1.186,0,0,0-.217-1.779c-.449-.25-.833-.586-1.276-.825a5.874,5.874,0,0,0-1.355-.377,3.943,3.943,0,0,0-2.3.252c-.408.148-.876.176-1.155.54a6.381,6.381,0,0,0-3.252-.833,4.89,4.89,0,0,0-3.1,1.314c-1.577,1.573-3.149,3.152-4.742,4.748H17.2c-.944-.415-1.928-.768-2.149-2.007.985,0,2.02,0,3.054,0a4.905,4.905,0,0,0,2.17-.618,6.082,6.082,0,0,0,1.628-1.48,5.489,5.489,0,0,0,.985-2.746,2.55,2.55,0,0,0-.255-.962,2.079,2.079,0,0,0-1.243-.283c-2.53.016-5.059.006-7.588.008a7.079,7.079,0,0,0-5.5,2.572A3.239,3.239,0,0,0,7.446,53.8H1.362c-.356,0-.724-.06-1.02.248A1.592,1.592,0,0,0,0,55.172Q.023,59.884,0,64.6a2.657,2.657,0,0,0,.265,1.11,2.073,2.073,0,0,0,1.211.258c3.035-.011,6.07-.006,9.186-.006l.382-.519c.205-.1-.09-.449.3-.494-.1-.972-.408-1.27-1.51-1.293-2.022-.042-4.044-.007-6.067-.017a2.168,2.168,0,0,1-1.415-.3c-.046-2.266-.024-4.61-.009-7.027a11.906,11.906,0,0,1,3.7-.121c.372.294.354.662.469.972A1.238,1.238,0,0,0,8.9,57.1c.131-.419.175-.859.273-1.287A4.316,4.316,0,0,1,12.66,52.28c2.386-.493,4.811-.117,7.391-.234a2.66,2.66,0,0,1-2.447,1.44c-1.077.055-2.157-.006-3.235.024-1.509.043-2.066.728-1.822,2.208a5.266,5.266,0,0,0,4.965,4.422c3.2.1,6.4.031,9.606.025a2.2,2.2,0,0,0,1.6-.751q1.894-1.9,3.79-3.8a5.138,5.138,0,0,1,1.8-1.274,1.4,1.4,0,0,1,1.439-.007c.1.451-.237.69-.457.961q-3.065,3.77-6.125,7.543a2.048,2.048,0,0,1-1.748.8c-2.528-.015-5.056-.028-7.584,0-1.191.015-1.509.3-1.611,1.3" transform="translate(0 -14.042)" fill="#040506"/>
        <path id="Trazado_616894" data-name="Trazado 616894" d="M19.032,65.734a2.269,2.269,0,0,1,.726-1.017h9.719c2.6-3.261,5.3-6.45,7.826-9.828-.395-.032-.649-.258-.963-.3a2.831,2.831,0,0,0-1.831.456,5.843,5.843,0,0,0-1.23.965c-1.5,1.551-3.043,3.067-4.635,4.661h-.817c-3.136,0-6.273.042-9.409-.014a5.119,5.119,0,0,1-4.639-3.321c0-.687-.391-1.334-.164-2.078a.4.4,0,0,0,.17-.38c.14-.135.4-.07.489-.289,1.348,0,2.7-.037,4.045.013a3.6,3.6,0,0,0,2.377-.85,2.181,2.181,0,0,0,.716-1.124c-.141-.177-.386-.059-.594-.06-1.956-.01-3.912.008-5.868-.013a7.542,7.542,0,0,0-2.165.39,4.871,4.871,0,0,0-2.063,1.369A5.512,5.512,0,0,0,9.7,56.417c-.2.644-.052,1.354-.444,1.962a1.336,1.336,0,0,1-1.489.028c-.4-.517-.24-1.129-.283-1.75H2.867v8.024h8.512a2.311,2.311,0,0,1,.772,1.053H14.58c1-.942,1.026-.942,2.023,0Z" transform="translate(-0.809 -14.83)" fill="#e6ab90"/>
        <path id="Trazado_616895" data-name="Trazado 616895" d="M19.8,39.883c-.585-.408-1.115-.654-1.751-.156-.431.9-.4,1.092.343,1.851.472.479.943.96,1.427,1.427a1.243,1.243,0,0,0,2-.02c.484-.466.945-.957,1.43-1.425a1.321,1.321,0,0,0,.342-1.862,1.256,1.256,0,0,0-1.67.133c-.211-.176-.093-.421-.1-.632-.014-1.01,0-2.02-.007-3.03,0-.387.088-.794-.313-1.1A1.092,1.092,0,0,0,20,35.1a2,2,0,0,0-.209,1.195c.01,1.171,0,2.34,0,3.583" transform="translate(-5.016 -9.822)" fill="#050607"/>
        <path id="Trazado_616896" data-name="Trazado 616896" d="M21.2,70.537c.094-.282-.245-.439-.21-.711-.787-.37-.787-.37-1.544-.067-.064.269-.339.464-.271.778-.1.285.26.436.2.7.8.375.8.375,1.555.073.063-.269.338-.464.27-.778" transform="translate(-5.409 -19.633)" fill="#0c0b0b"/>
        <path id="Trazado_616897" data-name="Trazado 616897" d="M36.5,11.384c.148.678.288,1.319.435,1.992,2.2,0,4.39.009,6.576-.006a2.181,2.181,0,0,1,1.216.26,1.251,1.251,0,0,1-.021,1.538,1.841,1.841,0,0,1-1.272.235q-5.154,0-10.3,0c.161,1.193,1.125,1.557,2.128,2.013h3.288a2.654,2.654,0,0,1,.9,1.244,4.593,4.593,0,0,0,3.121,2.61,2.237,2.237,0,0,0,1.228.215c.344-.092.611.149.913.237a1.226,1.226,0,0,1-.007,1.537,2.178,2.178,0,0,1-2.086.05,6.387,6.387,0,0,1-3.952-2.177,4.823,4.823,0,0,1-1.023-1.641H35.727c-.309.233-.3.741-.779.937.826.817,1.31,1.752,2.045,2.5a8.576,8.576,0,0,0,4,2.327,6.445,6.445,0,0,0,1.71.288c2.292-.02,4.585,0,6.877-.016a2.229,2.229,0,0,1,1.218.261,1.223,1.223,0,0,1-.061,1.571c-.1.007-.2-.029-.238.027l8.613,8.627V25L45.518,11.384Z" transform="translate(-9.353 -3.214)" fill="#fee2c6"/>
        <path id="Trazado_616898" data-name="Trazado 616898" d="M24.584,11.237a1.429,1.429,0,0,1,1.16-.28c.841,0,1.682,0,2.538,0,.066-.225-.18-.363-.139-.6a2.28,2.28,0,0,0-.088-.655,7.237,7.237,0,0,0-.975-2.335A7.914,7.914,0,0,0,23.83,4.1a10.2,10.2,0,0,1-1.246-.648c-.374-.283-.9-.062-1.249-.4-1.157-.07-2.314-.5-3.471,0A7.509,7.509,0,0,0,13.883,4.67a7.223,7.223,0,0,0-2.341,2.56,14.53,14.53,0,0,1-.8,1.486c-.253.364-.04.851-.391,1.158a9.617,9.617,0,0,0-.174,2.947,9.668,9.668,0,0,0,.559,2.294,12,12,0,0,0,2,3.228,13.169,13.169,0,0,0,3.514,2.279c.287.16.606.073.924.217a4.51,4.51,0,0,0,1.209.235,13.953,13.953,0,0,0,1.716.017.536.536,0,0,0,.2,0c.616-.278,1.307-.249,1.932-.464.322-.111.587-.387.968-.344.675-.652,1.622-.911,2.262-1.635A7.5,7.5,0,0,0,27.093,16.5c-2.069-.921-3.319-3.762-2.509-5.26" transform="translate(-2.853 -0.794)" fill="#ffd07b"/>
        <path id="Trazado_616899" data-name="Trazado 616899" d="M33.754,59.406H36.59c1.2-1.2,2.429-2.435,3.661-3.672.015-.015.015-.047.047-.154-.36.11-.595-.164-.915-.2a2.916,2.916,0,0,0-2.384.8c-1.094,1.015-2.121,2.1-3.245,3.228" transform="translate(-9.53 -15.629)" fill="#e4aa8f"/>
        <path id="Trazado_616900" data-name="Trazado 616900" d="M20.638,7.817a3.232,3.232,0,0,0-2.014,3.56,5.041,5.041,0,0,0,1.146,1.669,2.977,2.977,0,0,0,1.621.719,6.621,6.621,0,0,1,1.007.27c.09.334.393.611.255,1.005-.164.427-.606.535-.933.782-.79-.075-1.237-.664-1.734-1.166a1.023,1.023,0,0,0-1.089.252,1.437,1.437,0,0,0-.266,1.218,4.706,4.706,0,0,0,1.975,1.5c.1.726-.123,1.409.29,2a1.248,1.248,0,0,0,1.522-.014c.4-.568.189-1.249.267-1.955A2.936,2.936,0,0,0,24.7,14.744a3.1,3.1,0,0,0-2.172-2.959h-.9A2.519,2.519,0,0,1,20.636,11c-.122-.324.146-.649.262-1.006a1.721,1.721,0,0,1,1.231-.232c.52.291.9.929,1.66.782l.69-.691c.112-1.246-.838-1.6-1.786-1.991-.113-.616.147-1.3-.328-1.942a1.188,1.188,0,0,0-1.52.1c-.356.475-.164,1.153-.207,1.8" transform="translate(-5.253 -1.606)" fill="#050506"/>
      </g>
    </g>
  </g>
</svg>
